<?xml version="1.0" standalone="no"?>
<!DOCTYPE svg PUBLIC "-//W3C//DTD SVG 1.1//EN" "http://www.w3.org/Graphics/SVG/1.1/DTD/svg11.dtd" >
<svg xmlns="http://www.w3.org/2000/svg">
<metadata></metadata>
<defs>
<font id="istk_maquette_webblack" horiz-adv-x="608" >
<font-face units-per-em="1000" ascent="800" descent="-200" />
<missing-glyph horiz-adv-x="270" />
<glyph unicode="ff" horiz-adv-x="777" d="M472 545q0 36 12.5 69t38.5 57.5t65.5 39t93.5 14.5q28 0 52.5 -2.5t48.5 -8.5l-17 -137q-8 3 -24 7t-37 4q-26 0 -38.5 -8.5t-12.5 -29.5v-15h106v-136h-106v-399h-182v399h-190v-399h-182v399h-81v136h81v10q0 36 12.5 69t38.5 57.5t65.5 39t93.5 14.5q28 0 52.5 -2.5 t48.5 -8.5l-17 -137q-8 3 -24 7t-37 4q-26 0 -38.5 -8.5t-12.5 -29.5v-15h190v10z" />
<glyph unicode="fi" horiz-adv-x="704" d="M394 577q-8 3 -24 7t-37 4q-26 0 -38.5 -8.5t-12.5 -29.5v-15h106v-136h-106v-399h-182v399h-81v136h81v10q0 36 12.5 69t38.5 57.5t65.5 39t93.5 14.5q28 0 52.5 -2.5t48.5 -8.5zM465 0v535h183v-535h-183zM453 653q0 35 29.5 59.5t73.5 24.5t74 -24.5t30 -59.5t-30 -59 t-74 -24t-73.5 24t-29.5 59z" />
<glyph unicode="fl" horiz-adv-x="704" d="M394 577q-8 3 -24 7t-37 4q-26 0 -38.5 -8.5t-12.5 -29.5v-15h106v-136h-106v-399h-182v399h-81v136h81v10q0 36 12.5 69t38.5 57.5t65.5 39t93.5 14.5q28 0 52.5 -2.5t48.5 -8.5zM465 0v714h183v-714h-183z" />
<glyph horiz-adv-x="0" />
<glyph horiz-adv-x="0" />
<glyph horiz-adv-x="270" />
<glyph unicode=" "  horiz-adv-x="270" />
<glyph unicode="&#x09;" horiz-adv-x="270" />
<glyph unicode="&#xa0;" horiz-adv-x="270" />
<glyph unicode="!" horiz-adv-x="318" d="M206 243h-94l-49 303v168h192v-168zM49 100q0 23 8.5 43t23.5 35t35 23.5t43 8.5t43 -8.5t35 -23.5t23.5 -35t8.5 -43t-8.5 -43t-23.5 -35t-35 -23.5t-43 -8.5t-43 8.5t-35 23.5t-23.5 35t-8.5 43z" />
<glyph unicode="&#x22;" horiz-adv-x="509" d="M430 408h-94l-51 253v53h196v-53zM173 408h-95l-50 253v53h195v-53z" />
<glyph unicode="#" horiz-adv-x="658" d="M501 425l-23 -134h113v-101h-132l-34 -190h-114l35 190h-99l-35 -190h-115l34 190h-69v101h88l24 134h-112v101h131l35 188h113l-33 -188h98l35 188h114l-35 -188h71v-101h-90zM289 425l-23 -134h99l23 134h-99z" />
<glyph unicode="$" d="M280 -58v47q-95 6 -164.5 52.5t-104.5 127.5l144 62q10 -26 24 -44t30 -30t34 -18t37 -9v139q-31 6 -71 20.5t-75 40.5t-59.5 66.5t-24.5 99.5q0 46 16 84.5t46 66t72.5 43.5t95.5 18v47h63v-51q60 -8 117 -40t96 -99l-128 -71q-17 31 -38 44.5t-47 21.5v-126 q37 -9 77 -24.5t73 -42t54.5 -64.5t21.5 -92q0 -42 -14.5 -79.5t-43 -67.5t-71 -49.5t-97.5 -24.5v-48h-63zM406 190q0 29 -17 43.5t-46 21.5v-127q35 5 49 22t14 40zM217 510q0 -25 15.5 -39.5t47.5 -22.5v118q-27 -2 -45 -16.5t-18 -39.5z" />
<glyph unicode="%" horiz-adv-x="810" d="M247 0h-134l455 714h134zM366 559q0 -34 -13 -64.5t-35.5 -53t-53 -35.5t-64.5 -13q-35 0 -65 13t-52.5 35.5t-35.5 53t-13 64.5t13 64.5t35.5 53.5t52.5 36t65 13q34 0 64.5 -13t53 -36t35.5 -53.5t13 -64.5zM261 559q0 26 -17.5 43.5t-43.5 17.5t-43.5 -17.5 t-17.5 -43.5q0 -25 17.5 -42.5t43.5 -17.5t43.5 17.5t17.5 42.5zM780 154q0 -34 -13 -64.5t-35.5 -53t-53 -35.5t-64.5 -13q-35 0 -65 13t-52.5 35.5t-35.5 53t-13 64.5t13 64.5t35.5 53.5t52.5 36t65 13q34 0 64.5 -13t53 -36t35.5 -53.5t13 -64.5zM675 154 q0 26 -17.5 43.5t-43.5 17.5t-43.5 -17.5t-17.5 -43.5q0 -25 17.5 -42.5t43.5 -17.5t43.5 17.5t17.5 42.5z" />
<glyph unicode="&#x26;" horiz-adv-x="692" d="M695 349q-8 -70 -34 -126.5t-67 -99.5l101 -123h-208l-23 28q-45 -20 -92 -30.5t-92 -10.5q-52 0 -99.5 13.5t-84 40.5t-58 66.5t-21.5 90.5q0 39 13 70t34 55t49 42.5t58 31.5q-15 20 -27 37t-20.5 34.5t-13 36.5t-4.5 42q0 41 18 74.5t49.5 57t74.5 36t92 12.5 q44 0 84 -10t71 -30.5t49 -53t18 -77.5q0 -39 -14 -70t-36.5 -55t-51 -42t-57.5 -32l96 -118q20 23 33 60t18 75zM306 131q33 0 68 11l-127 160q-24 -14 -39 -33t-15 -46q0 -41 31 -66.5t82 -25.5zM412 552q0 30 -20 42.5t-45 12.5q-29 0 -50.5 -14t-21.5 -45 q0 -26 13.5 -44.5t35.5 -44.5q39 20 63.5 39t24.5 54z" />
<glyph unicode="'" horiz-adv-x="251" d="M173 408h-95l-50 253v53h195v-53z" />
<glyph unicode="(" horiz-adv-x="317" d="M173 333q0 -43 5.5 -85.5t20 -88.5t40 -97t66.5 -110l-95 -56q-56 65 -92.5 125t-57.5 114.5t-29 104t-8 93.5t8 93.5t29 104t57.5 114.5t92.5 125l95 -56q-41 -59 -66.5 -110t-40 -97t-20 -88.5t-5.5 -85.5z" />
<glyph unicode=")" horiz-adv-x="317" d="M144 333q0 43 -5.5 85.5t-20 88.5t-40.5 97t-66 110l95 56q56 -65 92.5 -125t57.5 -114.5t29 -104t8 -93.5t-8 -93.5t-29 -104t-57.5 -114.5t-92.5 -125l-95 56q40 59 66 110t40.5 97t20 88.5t5.5 85.5z" />
<glyph unicode="*" horiz-adv-x="530" d="M243 541q-13 30 -21.5 53t-14 44t-7.5 42t-2 47h134q0 -26 -2 -47t-7.5 -42t-14 -44t-21.5 -53q19 26 35 45t31.5 34t32.5 27.5t39 25.5l67 -116q-22 -13 -41 -21.5t-40 -14.5t-45 -10t-57 -8q33 -4 57 -8t45 -10t40 -14.5t41 -21.5l-67 -116q-22 13 -39 25t-32.5 27 t-31.5 34.5t-35 45.5q13 -30 21.5 -53t14 -44t7.5 -42t2 -47h-134q0 26 2 47t7.5 42t14 44t21.5 53q-20 -26 -35.5 -45.5t-31 -34.5t-32.5 -27t-39 -25l-67 116q22 13 41 21.5t40 14.5t45 10t57 8q-33 4 -57 8t-45 10t-40 14.5t-41 21.5l67 116q22 -13 39 -25.5t32.5 -27.5 t31 -34t35.5 -45z" />
<glyph unicode="+" d="M379 193v-193h-150v193h-193v150h193v192h150v-192h193v-150h-193z" />
<glyph unicode="," horiz-adv-x="297" d="M53 -76q33 14 58 34.5t29 40.5q-18 1 -36 9t-32 21.5t-23 32t-9 41.5q0 21 7.5 40.5t22 34t34.5 23.5t44 9q46 0 79 -33.5t33 -96.5q0 -70 -44 -129t-122 -100z" />
<glyph unicode="-" horiz-adv-x="400" d="M50 230v160h300v-160h-300z" />
<glyph unicode="." horiz-adv-x="300" d="M40 100q0 23 8.5 43t23.5 35t35 23.5t43 8.5t43 -8.5t35 -23.5t23.5 -35t8.5 -43t-8.5 -43t-23.5 -35t-35 -23.5t-43 -8.5t-43 8.5t-35 23.5t-23.5 35t-8.5 43z" />
<glyph unicode="/" horiz-adv-x="427" d="M180 0h-152l220 714h152z" />
<glyph unicode="0" horiz-adv-x="653" d="M615 357q0 -71 -15 -137.5t-49 -118t-89.5 -83t-136.5 -31.5t-136 31.5t-88.5 83t-48 118t-14.5 137.5q0 70 14.5 136.5t48 118.5t88.5 83.5t136 31.5t136.5 -31.5t89.5 -83.5t49 -118.5t15 -136.5zM425 357q0 42 -4.5 81.5t-15.5 70.5t-30.5 49.5t-49.5 18.5 t-49.5 -18.5t-30.5 -49.5t-15 -70.5t-4 -81.5t4 -81.5t15 -70t30.5 -49t49.5 -18.5t49.5 18.5t30.5 49t15.5 70t4.5 81.5z" />
<glyph unicode="1" horiz-adv-x="442" d="M371 0h-186v521q-31 -10 -71.5 -17.5t-78.5 -11.5l-22 139q80 13 132 32t87 51h139v-714z" />
<glyph unicode="2" horiz-adv-x="611" d="M41 0v134q89 66 151 116t101 90t57 73.5t18 65.5q0 42 -24 64t-59 22q-31 0 -61 -19.5t-50 -65.5l-148 80q45 78 113.5 122.5t165.5 44.5q57 0 105 -16t82.5 -46t54 -72.5t19.5 -94.5q0 -89 -60 -169t-188 -160h254v-169h-531z" />
<glyph unicode="3" horiz-adv-x="642" d="M605 211q0 -47 -19.5 -87.5t-56.5 -71t-90 -48t-119 -17.5q-109 0 -184 47t-114 135l155 70q22 -52 58 -72t82 -20q54 0 76 21t22 52q0 35 -26 52.5t-74 17.5h-76v145h73q45 0 65.5 18.5t20.5 46.5q0 33 -24.5 49.5t-62.5 16.5q-39 0 -73.5 -20t-58.5 -68l-146 74 q48 90 120 132.5t168 42.5q52 0 99.5 -12.5t83.5 -38t57.5 -63t21.5 -87.5q0 -30 -8 -53.5t-21 -41.5t-30 -31.5t-36 -22.5q51 -17 84 -60t33 -106z" />
<glyph unicode="4" horiz-adv-x="627" d="M523 138v-138h-186v138h-309v136q25 55 46 114t36 116.5t23 111t8 98.5h181q0 -91 -32.5 -201t-87.5 -222h140v244h181v-244h77v-153h-77z" />
<glyph unicode="5" horiz-adv-x="626" d="M589 249q0 -48 -16.5 -95t-51.5 -84t-88.5 -60t-126.5 -23q-96 0 -171.5 43.5t-111.5 134.5l151 66q15 -37 46 -60t76 -23t74 25t29 70q0 44 -28 71t-75 27q-41 0 -71 -18.5t-46 -39.5l-116 43l26 388h464v-169h-319l-12 -98q23 17 57 25t68 8q49 0 93 -15.5t77 -45 t52.5 -72.5t19.5 -98z" />
<glyph unicode="6" horiz-adv-x="626" d="M513 714q-88 -63 -143.5 -122.5t-85.5 -114.5q19 14 45 20t49 6q49 0 90 -17t71 -48.5t47 -76.5t17 -102q0 -61 -20.5 -111t-57.5 -86t-89 -55.5t-115 -19.5q-65 0 -117.5 18t-89.5 54t-57 89t-20 122q0 67 16 127.5t44.5 115.5t68 105t85.5 96h262zM229 256 q0 -49 22 -80.5t69 -31.5q45 0 67 31.5t22 81.5q0 51 -22 80t-67 29q-47 0 -69 -30t-22 -80z" />
<glyph unicode="7" horiz-adv-x="573" d="M556 587q-41 -53 -85 -120t-80 -142.5t-57.5 -158t-16.5 -166.5h-205q0 89 24 171.5t59 153t74.5 126.5t71.5 94h-320v169h535v-127z" />
<glyph unicode="8" horiz-adv-x="646" d="M398 513q0 40 -23 57.5t-52 17.5q-30 0 -52.5 -17.5t-22.5 -57.5q0 -43 22.5 -59.5t51.5 -16.5q30 0 53 16.5t23 59.5zM417 215q0 48 -28 69t-66 21q-19 0 -36 -5t-30 -16t-21 -28t-8 -41q0 -47 28.5 -67.5t66.5 -20.5t66 20t28 68zM323 -13q-71 0 -124.5 17.5 t-89.5 47.5t-54 70t-18 85q0 64 33 108t84 62q-19 10 -36 23.5t-30 32.5t-21 43.5t-8 55.5q0 48 21.5 84.5t58 61t84.5 37t100 12.5t100 -12.5t84.5 -37t58 -61t21.5 -84.5q0 -31 -8 -55.5t-21 -43.5t-30 -32.5t-36 -23.5q51 -18 84 -62t33 -108q0 -45 -18 -85t-54 -70 t-89.5 -47.5t-124.5 -17.5z" />
<glyph unicode="9" horiz-adv-x="628" d="M114 0q88 63 143.5 122.5t86.5 114.5q-20 -14 -46 -20t-49 -6q-49 0 -90 17t-71 48.5t-47 76.5t-17 102q0 61 20.5 111t57.5 86t89 55.5t116 19.5t116.5 -18t90 -54t57.5 -89t20 -122q0 -68 -16.5 -128.5t-45 -115t-68 -104.5t-84.5 -96h-263zM398 458q0 49 -22 80.5 t-68 31.5t-68 -31.5t-22 -81.5q0 -51 22 -80t68 -29t68 30t22 80z" />
<glyph unicode=":" horiz-adv-x="342" d="M61 100q0 23 8.5 43t23.5 35t35 23.5t43 8.5t43 -8.5t35 -23.5t23.5 -35t8.5 -43t-9 -43t-24 -35t-35 -23.5t-42 -8.5q-23 0 -43 8.5t-35 23.5t-23.5 35t-8.5 43zM61 435q0 23 8.5 43t23.5 35t35 23.5t43 8.5t43 -8.5t35 -23.5t23.5 -35t8.5 -43t-9 -43t-24 -35 t-35 -23.5t-42 -8.5q-23 0 -43 8.5t-35 23.5t-23.5 35t-8.5 43z" />
<glyph unicode=";" horiz-adv-x="323" d="M61 435q0 23 8.5 43t23.5 35t35 23.5t43 8.5t43 -8.5t35 -23.5t23.5 -35t8.5 -43t-9 -43t-24 -35t-35 -23.5t-42 -8.5q-23 0 -43 8.5t-35 23.5t-23.5 35t-8.5 43zM74 -76q33 14 58 34.5t29 40.5q-18 1 -36 9t-32 21.5t-23 32t-9 41.5q0 21 7.5 40.5t22 34t34.5 23.5t44 9 q46 0 79 -33.5t33 -96.5q0 -70 -44 -129t-122 -100z" />
<glyph unicode="&#x3c;" d="M316 268l172 -174l-105 -105l-280 279l280 279l105 -105z" />
<glyph unicode="=" d="M50 66v150h508v-150h-508zM50 320v150h508v-150h-508z" />
<glyph unicode="&#x3e;" d="M120 442l105 105l280 -279l-280 -279l-105 105l172 174z" />
<glyph unicode="?" horiz-adv-x="581" d="M537 510q0 -43 -14.5 -74t-36 -54.5t-46.5 -41t-46.5 -32t-36 -29t-14.5 -31.5v-5h-183v11q0 36 13.5 62t34 45.5t44 35.5t44 31t34 32t13.5 39q0 29 -24.5 49t-68.5 20q-29 0 -69 -12.5t-73 -46.5l-80 128q48 42 108.5 65t134.5 23q60 0 109.5 -16t84 -44.5t53.5 -68 t19 -86.5zM144 100q0 23 8.5 43t23.5 35t35 23.5t43 8.5t43 -8.5t35 -23.5t23.5 -35t8.5 -43t-8.5 -43t-23.5 -35t-35 -23.5t-43 -8.5t-43 8.5t-35 23.5t-23.5 35t-8.5 43z" />
<glyph unicode="@" horiz-adv-x="864" d="M525 199q-22 -34 -53 -49t-71 -15q-42 0 -75 16t-56.5 44.5t-35.5 67t-12 83.5q0 46 12.5 84.5t35.5 67t56 44.5t74 16q28 0 51 -12t42 -34v38h137v-280q0 -24 10 -43t39 -19q18 0 32.5 11t24 30t14.5 45t5 55q0 69 -19.5 126.5t-58.5 98t-97 63t-134 22.5 q-75 0 -133.5 -24.5t-98 -67t-60 -99t-20.5 -119.5q0 -64 20.5 -120.5t60 -98.5t98 -66t133.5 -24q46 0 88.5 11.5t75.5 36.5l31 -63q-41 -25 -92 -39t-107 -14q-94 0 -168.5 28.5t-126.5 78.5t-79.5 119.5t-27.5 150.5t27.5 150t79.5 119.5t126.5 79.5t168.5 29 q91 0 163 -28.5t122.5 -79t77.5 -119.5t27 -151q0 -47 -12.5 -86t-35.5 -67.5t-57 -44.5t-76 -16q-17 0 -34.5 3t-34.5 10.5t-32 20t-25 30.5zM493 346q0 40 -16.5 70.5t-49.5 30.5q-16 0 -28 -8.5t-20 -22.5t-12 -32t-4 -38q0 -41 16 -70t48 -29q34 0 50 28.5t16 70.5z" />
<glyph unicode="A" horiz-adv-x="718" d="M509 0l-38 141h-230l-38 -141h-207l249 714h228l248 -714h-212zM356 558l-74 -268h147z" />
<glyph unicode="B" horiz-adv-x="707" d="M676 207q0 -97 -65.5 -152t-181.5 -55h-365v714h345q118 0 181 -51t63 -138q0 -48 -23 -88.5t-67 -64.5q56 -22 84.5 -65t28.5 -100zM463 496q0 29 -19 42.5t-50 13.5h-141v-116h141q31 0 50 15.5t19 44.5zM483 224q0 30 -19 46.5t-51 16.5h-160v-125h160q31 0 50.5 15.5 t19.5 46.5z" />
<glyph unicode="C" horiz-adv-x="720" d="M551 456q-31 58 -71.5 83t-91.5 25q-39 0 -70 -16t-52 -43.5t-32.5 -65t-11.5 -80.5q0 -44 11.5 -82t32.5 -66.5t52 -44.5t70 -16q31 0 57 9.5t46 25.5t35 37.5t25 44.5l154 -77q-48 -96 -127.5 -149.5t-194.5 -53.5q-78 0 -143 26.5t-112.5 75t-73.5 117.5t-26 153 t26 152t73.5 116t112.5 74t143 26q94 0 177.5 -43t140.5 -144z" />
<glyph unicode="D" horiz-adv-x="754" d="M361 169q84 0 126.5 50t42.5 138t-42.5 138t-126.5 50h-108v-376h108zM64 0v714h297q89 0 157 -27.5t114 -75.5t69.5 -113t23.5 -141t-23.5 -141t-69.5 -113t-114 -75.5t-157 -27.5h-297z" />
<glyph unicode="E" horiz-adv-x="648" d="M64 0v714h537v-169h-348v-109h310v-149h-310v-118h358v-169h-547z" />
<glyph unicode="F" horiz-adv-x="622" d="M253 545v-109h310v-149h-310v-287h-189v714h536v-169h-347z" />
<glyph unicode="G" horiz-adv-x="756" d="M729 398q4 -14 5.5 -34t1.5 -34q0 -72 -22 -134.5t-66 -109t-109 -73t-151 -26.5q-80 0 -146.5 26.5t-114 75t-73.5 117.5t-26 153q0 85 26 153t73.5 116t114.5 73.5t148 25.5q106 0 186 -47.5t127 -133.5l-160 -80q-26 54 -65 76t-88 22q-42 0 -73 -15.5t-52 -43 t-31.5 -65t-10.5 -81.5q0 -100 45.5 -155.5t123.5 -55.5q57 0 96.5 25t48.5 76h-153v149h345z" />
<glyph unicode="H" horiz-adv-x="767" d="M514 0v287h-261v-287h-189v714h189v-258h261v258h189v-714h-189z" />
<glyph unicode="I" horiz-adv-x="317" d="M64 0v714h189v-714h-189z" />
<glyph unicode="J" horiz-adv-x="590" d="M531 255q0 -61 -17.5 -110.5t-51.5 -84.5t-84 -54t-114 -19q-103 0 -170.5 47.5t-94.5 134.5l159 56q8 -36 32.5 -55.5t62.5 -19.5q40 0 64.5 22.5t24.5 71.5v470h189v-459z" />
<glyph unicode="K" horiz-adv-x="738" d="M518 0l-172 289l-93 -113v-176h-189v714h189v-291l237 291h228l-238 -283l265 -431h-227z" />
<glyph unicode="L" d="M64 0v714h189v-545h343v-169h-532z" />
<glyph unicode="M" horiz-adv-x="930" d="M681 0v478l-157 -478h-120l-156 473v-473h-184v714h259l143 -443l144 443h256v-714h-185z" />
<glyph unicode="N" horiz-adv-x="768" d="M484 0l-238 449v-449h-182v714h227l232 -439v439h181v-714h-220z" />
<glyph unicode="O" horiz-adv-x="780" d="M753 357q0 -77 -25 -144.5t-71.5 -117.5t-114.5 -79t-153 -29q-86 0 -153 29t-113.5 79t-71 117.5t-24.5 144.5t24.5 144.5t71 117.5t113.5 79t153 29q85 0 153 -29t114.5 -79t71.5 -117.5t25 -144.5zM557 357q0 40 -10.5 75.5t-31.5 62.5t-52.5 43t-73.5 16 q-41 0 -72 -16t-52 -43t-31.5 -62.5t-10.5 -75.5q0 -41 10.5 -76.5t31.5 -62.5t52 -42.5t72 -15.5q42 0 73.5 15.5t52.5 42.5t31.5 62.5t10.5 76.5z" />
<glyph unicode="P" horiz-adv-x="684" d="M671 465q0 -57 -19 -103t-54.5 -78.5t-86 -50t-113.5 -17.5h-145v-216h-189v714h334q63 0 113.5 -17.5t86 -50t54.5 -78.5t19 -103zM480 466q0 42 -24.5 60.5t-59.5 18.5h-143v-159h143q36 0 60 19t24 61z" />
<glyph unicode="Q" horiz-adv-x="780" d="M753 359q0 -78 -24.5 -145t-70.5 -118l56 -63l-121 -100l-63 79q-32 -12 -67.5 -18.5t-73.5 -6.5q-86 0 -153 29t-113.5 79.5t-71 118.5t-24.5 145q0 76 24.5 143.5t71 117t113.5 78.5t153 29q85 0 153 -29t114.5 -78.5t71.5 -117t25 -143.5zM557 359q0 40 -10.5 75.5 t-31.5 62t-52.5 42t-73.5 15.5q-41 0 -72 -15.5t-52 -42t-31.5 -62t-10.5 -75.5q0 -41 10.5 -77t31.5 -63t52 -43t72 -16q5 0 10 0.5t10 1.5l-63 80l108 87l75 -88q28 51 28 118z" />
<glyph unicode="R" horiz-adv-x="698" d="M473 0l-122 237h-98v-237h-189v714h336q68 0 119 -17.5t84.5 -48t50.5 -73t17 -93.5q0 -41 -10.5 -73.5t-29 -58.5t-43 -45.5t-51.5 -33.5l142 -271h-206zM479 467q0 39 -24 58.5t-59 19.5h-143v-159h143q35 0 59 21t24 60z" />
<glyph unicode="S" horiz-adv-x="666" d="M640 230q0 -51 -20 -95.5t-59 -77.5t-95.5 -51.5t-129.5 -18.5q-118 0 -204 48t-127 133l155 74q12 -24 31 -42.5t43 -31.5t51.5 -19.5t55.5 -6.5q53 0 83.5 17.5t30.5 48.5q0 19 -13.5 31t-34 19.5t-45.5 11.5t-48 8q-51 9 -101 24t-89.5 40.5t-64 65t-24.5 96.5 q0 52 21 93.5t58.5 70t90 44t115.5 15.5q42 0 85 -7.5t83 -25t75.5 -45.5t62.5 -70l-144 -81q-11 18 -29 31.5t-40 23t-46 14.5t-48 5q-39 0 -67.5 -13.5t-28.5 -40.5q0 -21 18 -33.5t47 -21t66.5 -15t77 -16t77 -24t66.5 -37.5t47 -57t18 -84z" />
<glyph unicode="T" horiz-adv-x="662" d="M425 545v-545h-189v545h-210v169h610v-169h-211z" />
<glyph unicode="U" horiz-adv-x="740" d="M682 279q0 -71 -22 -125.5t-63 -91.5t-98.5 -56t-128.5 -19t-129 19t-98.5 56t-62.5 91.5t-22 125.5v435h189v-435q0 -120 123 -120t123 120v435h189v-435z" />
<glyph unicode="V" horiz-adv-x="686" d="M690 714l-244 -714h-206l-245 714h207l141 -493l137 493h210z" />
<glyph unicode="W" horiz-adv-x="992" d="M794 0h-197l-103 405l-105 -405h-197l-179 714h207l84 -432l116 432h150l117 -434l84 434h211z" />
<glyph unicode="X" horiz-adv-x="716" d="M493 0l-135 236l-137 -236h-228l243 374l-219 340h223l120 -213l116 213h222l-217 -340l242 -374h-230z" />
<glyph unicode="Y" horiz-adv-x="689" d="M439 297v-297h-189v295l-256 419h219l132 -242l132 242h218z" />
<glyph unicode="Z" horiz-adv-x="677" d="M35 0v144l329 401h-315v169h581v-134l-337 -411h347v-169h-605z" />
<glyph unicode="[" horiz-adv-x="337" d="M57 -78v822h270v-108h-120v-606h120v-108h-270z" />
<glyph unicode="\" horiz-adv-x="427" d="M247 0l-220 714h152l220 -714h-152z" />
<glyph unicode="]" horiz-adv-x="337" d="M280 744v-822h-270v108h120v606h-120v108h270z" />
<glyph unicode="^" d="M493 376l-189 188l-188 -188l-105 105l233 233h121l233 -233z" />
<glyph unicode="_" horiz-adv-x="597" d="M0 -125v50h597v-50h-597z" />
<glyph unicode="`" horiz-adv-x="324" d="M149 575l-123 139l152 41l90 -180h-119z" />
<glyph unicode="a" horiz-adv-x="595" d="M589 13q-17 -11 -44.5 -16t-49.5 -5q-38 0 -70.5 14.5t-47.5 46.5q-13 -18 -32 -30t-40.5 -20t-45 -11.5t-46.5 -3.5q-41 0 -76 11t-60 32.5t-39 53t-14 73.5q0 50 19 80t48.5 47t65 24t68.5 10q24 3 45.5 5t37 6.5t24.5 12t9 20.5q0 12 -7 19t-17.5 11t-23 5.5 t-24.5 1.5q-39 0 -86.5 -12.5t-85.5 -35.5l-55 137q59 31 119 44.5t123 13.5q54 0 98 -10t75.5 -33t49 -59.5t17.5 -90.5v-215q0 -14 6 -18t16 -4q17 0 25 7zM341 247q-12 -14 -31.5 -17.5t-43.5 -7.5q-11 -2 -22 -5t-20 -9t-14.5 -16t-5.5 -25q0 -26 16.5 -38t43.5 -12 q35 0 56 19.5t21 58.5v52z" />
<glyph unicode="b" horiz-adv-x="665" d="M638 267q0 -60 -17 -111t-49 -88.5t-77 -58.5t-102 -21q-47 0 -85 16.5t-69 45.5v-50h-183v714h183v-228q31 29 69 45t85 16q57 0 102 -21t77 -58.5t49 -88.5t17 -112zM445 266q0 25 -6 48t-18.5 40.5t-31.5 27.5t-45 10t-46 -10t-33 -27t-19.5 -40t-6.5 -49 q0 -52 25.5 -87t79.5 -35q52 0 76.5 35.5t24.5 86.5z" />
<glyph unicode="c" horiz-adv-x="576" d="M562 123q-34 -59 -95 -97t-155 -38q-66 0 -119.5 21t-90.5 58t-57 88t-20 111q0 61 20 112.5t57 89t90 58.5t118 21q47 0 86 -11t69.5 -30.5t54 -46.5t40.5 -58l-134 -81q-17 35 -44 54.5t-62 19.5q-49 0 -75.5 -35t-26.5 -91q0 -59 28 -93t78 -34q38 0 66 19t48 51z" />
<glyph unicode="d" horiz-adv-x="665" d="M426 0v50q-31 -29 -69 -45.5t-85 -16.5q-57 0 -102 21t-77 58.5t-49 88.5t-17 111q0 61 17 112t49 88.5t77 58.5t102 21q47 0 85 -16t69 -45v228h183v-714h-183zM426 266q0 26 -6.5 49t-19.5 40t-33 27t-46 10t-45 -10t-31.5 -27.5t-18.5 -40.5t-6 -48q0 -51 24.5 -86.5 t76.5 -35.5q54 0 79.5 35t25.5 87z" />
<glyph unicode="e" horiz-adv-x="625" d="M598 271q0 -13 -0.5 -25.5t-1.5 -22.5h-374q3 -44 34.5 -64.5t81.5 -20.5q46 0 81.5 14.5t59.5 40.5l119 -104q-46 -45 -111.5 -73t-159.5 -28q-75 0 -132 20.5t-94.5 57t-56.5 86.5t-19 110q0 61 19.5 113.5t57 90.5t92 59.5t123.5 21.5q67 0 119 -19.5t88 -55.5t55 -87 t19 -114zM419 333q-3 43 -29.5 63t-68.5 20t-68.5 -19.5t-30.5 -63.5h197z" />
<glyph unicode="f" horiz-adv-x="405" d="M394 577q-8 3 -24 7t-37 4q-26 0 -38.5 -8.5t-12.5 -29.5v-15h106v-136h-106v-399h-182v399h-81v136h81v10q0 36 12.5 69t38.5 57.5t65.5 39t93.5 14.5q28 0 52.5 -2.5t48.5 -8.5z" />
<glyph unicode="g" horiz-adv-x="665" d="M610 116q0 -66 -12.5 -118t-50.5 -94q-45 -49 -114.5 -68.5t-147.5 -19.5q-71 0 -129.5 13t-109.5 41l60 138q72 -42 174 -42q30 0 57 5.5t47 17.5t31.5 31.5t11.5 48.5v23q-31 -29 -69 -45t-85 -16q-57 0 -102 20t-77 55t-49 82t-17 101q0 53 17 100t49 82t77 55.5 t102 20.5q47 0 85 -16t69 -46v50h183v-419zM427 290q0 48 -27 79t-78 31q-50 0 -75.5 -30.5t-25.5 -79.5q0 -48 25.5 -80t75.5 -32t77.5 32t27.5 80z" />
<glyph unicode="h" horiz-adv-x="622" d="M387 0v316q0 28 -13.5 49.5t-55.5 21.5q-32 0 -55.5 -19.5t-23.5 -61.5v-306h-183v714h183v-228q31 29 70.5 45t81.5 16q47 0 81 -15.5t55.5 -41.5t32 -60.5t10.5 -71.5v-358h-183z" />
<glyph unicode="i" horiz-adv-x="295" d="M56 0v535h183v-535h-183zM44 653q0 35 29.5 59.5t73.5 24.5t74 -24.5t30 -59.5t-30 -59t-74 -24t-73.5 24t-29.5 59z" />
<glyph unicode="j" horiz-adv-x="306" d="M250 22q0 -104 -54 -154t-146 -50q-33 0 -68.5 8.5t-61.5 25.5l51 130q11 -7 23.5 -11t28.5 -4q22 0 33 12t11 40v516h183v-513zM55 653q0 35 29.5 59.5t73.5 24.5t74 -24.5t30 -59.5t-30 -59t-74 -24t-73.5 24t-29.5 59z" />
<glyph unicode="k" horiz-adv-x="643" d="M432 0l-120 211l-73 -81v-130h-183v714h183v-376l175 197h212l-190 -202l211 -333h-215z" />
<glyph unicode="l" horiz-adv-x="295" d="M56 0v714h183v-714h-183z" />
<glyph unicode="m" horiz-adv-x="939" d="M704 0v316q0 14 -2.5 27t-10 22.5t-21 15.5t-34.5 6q-32 0 -52.5 -19.5t-20.5 -61.5v-306h-183v316q0 14 -2.5 27t-10 22.5t-21 15.5t-34.5 6q-32 0 -52.5 -19.5t-20.5 -61.5v-306h-183v535h183v-49q63 61 148 61q58 0 93 -23t52 -60q19 24 41.5 40t45.5 25.5t46 13.5 t43 4q48 0 81.5 -15.5t55.5 -41.5t32 -60.5t10 -71.5v-358h-183z" />
<glyph unicode="n" horiz-adv-x="622" d="M387 0v316q0 28 -13.5 49.5t-55.5 21.5q-32 0 -55.5 -19.5t-23.5 -61.5v-306h-183v535h183v-49q31 29 70.5 45t81.5 16q47 0 81 -15.5t55.5 -41.5t32 -60.5t10.5 -71.5v-358h-183z" />
<glyph unicode="o" horiz-adv-x="642" d="M617 266q0 -64 -21 -115.5t-59.5 -87.5t-93.5 -55.5t-122 -19.5q-68 0 -122.5 19.5t-93 55.5t-59.5 87.5t-21 115.5t21 116t59.5 89t93 56.5t122.5 19.5q67 0 122 -19.5t93.5 -56.5t59.5 -89t21 -116zM423 267q0 60 -25.5 95t-76.5 35t-76.5 -35t-25.5 -95t25.5 -94 t76.5 -34t76.5 34t25.5 94z" />
<glyph unicode="p" horiz-adv-x="665" d="M638 267q0 -60 -17 -111.5t-49 -88.5t-77 -58t-102 -21q-47 0 -85 16t-69 45v-223h-183v709h183v-50q31 30 69 46t85 16q57 0 102 -21.5t77 -59t49 -88.5t17 -111zM445 268q0 25 -6 48t-18.5 39.5t-31.5 26.5t-45 10q-53 0 -79 -36t-26 -88t26 -88t79 -36q26 0 45 10 t31.5 27t18.5 39.5t6 47.5z" />
<glyph unicode="q" horiz-adv-x="665" d="M426 -174v224q-31 -29 -69 -45.5t-85 -16.5q-57 0 -102 21t-77 58.5t-49 88.5t-17 111q0 61 17 112t49 88.5t77 58.5t102 21q47 0 85 -16t69 -45v49h183v-709h-183zM426 266q0 26 -6.5 49t-19.5 40t-33 27t-46 10t-45 -10t-31.5 -27.5t-18.5 -40.5t-6 -48 q0 -51 24.5 -86.5t76.5 -35.5q54 0 79.5 35t25.5 87z" />
<glyph unicode="r" horiz-adv-x="442" d="M399 344q-12 7 -26.5 12t-33.5 5q-46 0 -73 -32.5t-27 -81.5v-247h-183v535h183v-77q25 42 60.5 65t76.5 23q19 0 38 -4.5t30 -10.5z" />
<glyph unicode="s" horiz-adv-x="585" d="M558 177q0 -44 -18 -78.5t-52 -59.5t-82 -38t-108 -13q-92 0 -167 32t-120 96l127 76q16 -20 36 -34.5t42 -23.5t44.5 -13.5t44.5 -4.5q32 0 55 10t23 30q0 12 -8.5 18.5t-24 10.5t-36.5 7t-45 7q-41 7 -81 16.5t-72 28t-52 48.5t-20 78q0 46 19 79t51 55t75.5 32.5 t93.5 10.5q49 0 90.5 -8.5t76 -22.5t61 -32.5t45.5 -38.5l-118 -85q-26 31 -66.5 45.5t-86.5 14.5q-32 0 -51.5 -8t-19.5 -25q0 -11 9 -18t24.5 -11t36 -7t43.5 -7q53 -9 96 -20.5t73 -30.5t46 -47t16 -69z" />
<glyph unicode="t" horiz-adv-x="461" d="M456 41q-30 -23 -70 -38t-94 -15t-94.5 16.5t-65.5 51.5q-19 26 -26.5 57.5t-7.5 73.5v212h-82v136h82v131h183v-131h145v-136h-145v-213q0 -24 13.5 -32t30.5 -8q20 0 35.5 7t29.5 18z" />
<glyph unicode="u" horiz-adv-x="620" d="M382 0v49q-31 -29 -70.5 -45t-81.5 -16q-47 0 -81 15.5t-55.5 41.5t-32 60.5t-10.5 72.5v357h182v-315q0 -28 13.5 -49.5t55.5 -21.5q32 0 56 19t24 61v306h182v-535h-182z" />
<glyph unicode="v" horiz-adv-x="594" d="M390 0h-186l-207 535h204l98 -323l96 323h202z" />
<glyph unicode="w" horiz-adv-x="850" d="M686 0h-181l-80 308l-82 -308h-181l-149 535h201l57 -302l82 302h146l81 -302l58 302h200z" />
<glyph unicode="x" horiz-adv-x="616" d="M395 0l-88 164l-88 -164h-220l184 278l-167 257h214l79 -148l78 148h214l-169 -258l184 -277h-221z" />
<glyph unicode="y" horiz-adv-x="592" d="M385 -13q-33 -87 -81.5 -129t-130.5 -42q-88 0 -159 48l67 119q15 -10 29.5 -15.5t31.5 -5.5q21 0 34 10t23 28l12 22l-216 513h208l102 -297l94 297h196z" />
<glyph unicode="z" horiz-adv-x="554" d="M31 0v128l218 250h-207v157h469v-120l-223 -258h231v-157h-488z" />
<glyph unicode="{" horiz-adv-x="403" d="M66 387q37 0 48.5 19.5t11.5 46.5v127q0 80 45.5 122t120.5 42h104v-108h-50q-40 0 -55 -21.5t-15 -58.5v-72q0 -54 -23 -93.5t-77 -57.5q54 -17 77 -57t23 -93v-73q0 -37 15 -58.5t55 -21.5h50v-108h-104q-75 0 -120.5 42t-45.5 122v127q0 28 -11.5 47t-48.5 19h-56v108 h56z" />
<glyph unicode="|" horiz-adv-x="229" d="M81 -174v974h67v-974h-67z" />
<glyph unicode="}" horiz-adv-x="403" d="M337 279q-37 0 -48.5 -19.5t-11.5 -46.5v-127q0 -80 -45.5 -122t-120.5 -42h-104v108h50q40 0 55 21.5t15 58.5v72q0 54 23 93.5t77 57.5q-54 17 -77 57t-23 93v73q0 37 -15 58.5t-55 21.5h-50v108h104q75 0 120.5 -42t45.5 -122v-127q0 -28 11.5 -47t48.5 -19h56v-108 h-56z" />
<glyph unicode="~" d="M390 158q-26 0 -51 8.5t-60 31.5q-15 10 -26 16.5t-19.5 10.5t-16 5t-16.5 1q-23 0 -46 -16.5t-46 -54.5l-88 67q38 73 86.5 112.5t110.5 39.5q26 0 51 -8.5t60 -31.5q15 -11 26 -17t19.5 -10t16 -5t16.5 -1q23 0 46 16.5t46 54.5l88 -67q-38 -73 -86.5 -112.5 t-110.5 -39.5z" />
<glyph unicode="&#xa1;" horiz-adv-x="318" d="M255 -9v-165h-192v165l49 303h94zM49 437q0 23 8.5 43t23.5 35t35 23.5t43 8.5t43 -8.5t35 -23.5t23.5 -35t8.5 -43t-8.5 -43t-23.5 -35t-35 -23.5t-43 -8.5t-43 8.5t-35 23.5t-23.5 35t-8.5 43z" />
<glyph unicode="&#xa2;" d="M572 156q-24 -69 -81 -113.5t-139 -53.5v-83h-63v83q-61 5 -108 28t-79.5 60t-49.5 86t-17 106t17 106.5t49.5 87t79.5 60.5t108 28v82h63v-82q80 -8 136.5 -50.5t82.5 -110.5l-156 -54q-16 49 -63 63v-257q47 13 63 65zM289 399q-20 -4 -34 -16.5t-23 -30t-13.5 -39 t-4.5 -43.5q0 -44 17.5 -80t57.5 -47v256z" />
<glyph unicode="&#xa3;" d="M602 77q-10 -13 -27 -28.5t-40 -29t-51 -22.5t-60 -9q-30 0 -57.5 8t-54.5 17.5t-53.5 17.5t-55.5 8q-33 0 -64 -12.5t-66 -38.5l-73 135q108 47 108 124q0 17 -5 40h-103v110h64q-8 23 -13 45.5t-5 48.5q0 20 3 41q6 45 28 81t56.5 61.5t79.5 39t98 13.5q54 0 96 -14 t74 -38t55 -56.5t38 -68.5l-146 -73q-17 39 -38.5 60t-59.5 21t-60.5 -21t-22.5 -63q0 -20 4.5 -39t11.5 -38h127v-110h-102q-2 -30 -13 -57t-37 -53q17 7 33.5 9.5t27.5 2.5q15 0 28 -3.5t26.5 -8t28 -8t32.5 -3.5q32 0 60.5 13.5t51.5 39.5z" />
<glyph unicode="&#xa4;" d="M211 303q0 -19 7 -36t19.5 -29.5t29.5 -19.5t36 -7t36 7t29.5 19.5t19.5 29.5t7 36t-7 36t-19.5 29.5t-29.5 19.5t-36 7t-36 -7t-29.5 -19.5t-19.5 -29.5t-7 -36zM91 303q0 46 19 89l-82 83l105 105l84 -83q20 8 41.5 13t44.5 5q46 0 87 -19l85 84l105 -105l-84 -85 q19 -41 19 -87q0 -23 -5 -44.5t-13 -41.5l83 -84l-105 -105l-83 82q-43 -19 -89 -19q-45 0 -88 19l-82 -82l-105 105l82 82q-19 43 -19 88z" />
<glyph unicode="&#xa5;" d="M446 383h126v-74h-164l-12 -27v-43h176v-75h-176v-164h-188v164h-178v75h178v41l-13 29h-165v74h127l-152 331h215l83 -253l82 253h214z" />
<glyph unicode="&#xa6;" horiz-adv-x="232" d="M171 714v-323h-110v323h110zM61 -108v323h110v-323h-110z" />
<glyph unicode="&#xa7;" horiz-adv-x="632" d="M292 72q43 0 73 15l-87 52q-36 21 -77 48t-77 68q-38 42 -57.5 89.5t-19.5 106.5t20 110t58 88.5t92 58.5t122 21q74 0 139 -26t119 -78l-96 -121q-32 35 -72 55t-89 20q-43 0 -74 -16l88 -51q36 -21 77 -48t77 -68q38 -42 57.5 -89.5t19.5 -106.5t-20 -110t-58 -88.5 t-92 -58.5t-122 -21q-74 0 -139 26t-119 78l96 121q32 -35 72 -55t89 -20zM202 460q-2 -7 -2 -13.5v-13.5q0 -35 14 -61.5t39 -50.5t60 -48t76 -53l41 -29q1 6 1.5 12.5t0.5 14.5q0 35 -14 61.5t-39 50.5t-60 48t-76 53z" />
<glyph unicode="&#xa8;" horiz-adv-x="324" d="M-19 647q0 32 22.5 55t54.5 23t55 -23t23 -55q0 -16 -6.5 -30t-17 -24.5t-24.5 -16.5t-30 -6q-32 0 -54.5 22.5t-22.5 54.5zM188 647q0 32 22.5 55t54.5 23q16 0 30 -6t24.5 -16.5t17 -25t6.5 -30.5q0 -32 -23 -54.5t-55 -22.5t-54.5 22.5t-22.5 54.5z" />
<glyph unicode="&#xa9;" horiz-adv-x="826" d="M613 263q-38 -64 -90 -93t-109 -29q-45 0 -84 17t-68.5 46t-46.5 68.5t-17 84.5t17 85t46.5 69t68.5 46t84 17q57 0 106.5 -28t90.5 -94l-110 -72q-18 33 -40 45.5t-45 12.5q-33 0 -56 -23.5t-23 -57.5q0 -33 23 -58t56 -25q26 0 46.5 14t38.5 48zM37 357 q0 78 29.5 146.5t80.5 119.5t119.5 80.5t146.5 29.5t146.5 -29.5t119.5 -80.5t80.5 -119.5t29.5 -146.5t-29.5 -146.5t-80.5 -119.5t-119.5 -80.5t-146.5 -29.5t-146.5 29.5t-119.5 80.5t-80.5 119.5t-29.5 146.5zM97 357q0 -66 25 -123.5t67.5 -100t100 -67.5t123.5 -25 t123.5 25t100 67.5t67.5 100t25 123.5t-25 123.5t-67.5 100t-100 67.5t-123.5 25t-123.5 -25t-100 -67.5t-67.5 -100t-25 -123.5z" />
<glyph unicode="&#xaa;" horiz-adv-x="448" d="M420 370q-6 -4 -15 -6.5t-19 -4.5t-20 -3t-17 -1q-26 0 -47 8t-33 26q-20 -20 -48.5 -28.5t-60.5 -8.5q-56 0 -93 29t-37 86q0 34 13 54.5t33 31.5t45 15.5t48 7.5q37 4 53 7.5t16 12.5q0 14 -16 18t-30 4q-25 0 -57 -8.5t-59 -25.5l-37 99q36 21 83.5 29.5t88.5 8.5 q36 0 66 -7t51.5 -22t33.5 -39.5t12 -59.5v-134q0 -6 2 -8.5t10 -2.5q1 0 6.5 1t10.5 4zM238 510q-9 -4 -19 -5.5t-23 -3.5q-15 -3 -26.5 -8t-11.5 -21q0 -14 9 -20t22 -6q49 0 49 45v19z" />
<glyph unicode="&#xab;" horiz-adv-x="531" d="M502 88l-84 -62l-170 209v68l170 209l84 -62l-107 -181zM268 88l-84 -62l-170 209v68l170 209l84 -62l-107 -181z" />
<glyph unicode="&#xac;" horiz-adv-x="641" d="M435 35v194h-389v150h538v-344h-149z" />
<glyph unicode="&#xad;" horiz-adv-x="424" d="M48 200v162h328v-162h-328z" />
<glyph unicode="&#xae;" horiz-adv-x="475" d="M336 423h-73l-19 65h-29v-65h-66v206h103q42 0 62 -19.5t20 -49.5q0 -49 -35 -62zM268 558q0 11 -7 16.5t-16 5.5h-30v-46h30q9 0 16 5.5t7 18.5zM37 525q0 42 15.5 78.5t42.5 63.5t63.5 43t78.5 16t78.5 -16t63.5 -43t43 -63.5t16 -78.5t-16 -78.5t-43 -63.5 t-63.5 -42.5t-78.5 -15.5t-78.5 15.5t-63.5 42.5t-42.5 63.5t-15.5 78.5zM67 525q0 -35 13.5 -66t36.5 -54t54 -36.5t66 -13.5t66 13.5t54.5 36.5t37 54t13.5 66t-13.5 66t-37 54.5t-54.5 37t-66 13.5t-66 -13.5t-54 -37t-36.5 -54.5t-13.5 -66z" />
<glyph unicode="&#xaf;" horiz-adv-x="347" d="M0 597v93h347v-93h-347z" />
<glyph unicode="&#xb0;" horiz-adv-x="378" d="M355 559q0 -34 -13 -64.5t-35.5 -53t-53 -35.5t-64.5 -13q-35 0 -65 13t-52.5 35.5t-35.5 53t-13 64.5t13 64.5t35.5 53.5t52.5 36t65 13q34 0 64.5 -13t53 -36t35.5 -53.5t13 -64.5zM250 559q0 26 -17.5 43.5t-43.5 17.5t-43.5 -17.5t-17.5 -43.5q0 -25 17.5 -42.5 t43.5 -17.5t43.5 17.5t17.5 42.5z" />
<glyph unicode="&#xb1;" d="M36 0v150h536v-150h-536zM379 385v-180h-150v180h-193v150h193v179h150v-179h193v-150h-193z" />
<glyph unicode="&#xb2;" horiz-adv-x="420" d="M37 374v96q58 39 97 67.5t62.5 50t33 39t9.5 34.5t-11.5 27t-30.5 10t-37 -13t-31 -42l-109 56q30 51 77 83.5t112 32.5q39 0 71 -10t55 -28.5t36 -46t13 -62.5q0 -45 -30.5 -89t-96.5 -85h132v-120h-352z" />
<glyph unicode="&#xb3;" horiz-adv-x="420" d="M402 507q0 -29 -12.5 -54.5t-36.5 -45t-58.5 -30.5t-78.5 -11q-149 0 -198 132l112 32q14 -30 38.5 -39t49.5 -9q20 0 32 7.5t12 21.5q0 13 -13.5 19.5t-32.5 6.5h-57v109h55q13 0 26 6.5t13 19.5q0 14 -13 20.5t-27 6.5q-25 0 -47 -10t-36 -36l-105 43q34 63 81.5 91 t112.5 28q33 0 63.5 -7.5t54 -23.5t37.5 -41t14 -59q0 -29 -11 -49.5t-32 -34.5q29 -14 43 -39.5t14 -53.5z" />
<glyph unicode="&#xb4;" horiz-adv-x="324" d="M68 575l90 180l152 -41l-123 -139h-119z" />
<glyph unicode="&#xb6;" horiz-adv-x="586" d="M461 -91v695h-55v-695h-117v352h-29q-48 0 -89.5 16t-72 45.5t-48 71.5t-17.5 94t18 93.5t48.5 71t72 45.5t88.5 16h257v-805h-56z" />
<glyph unicode="&#xb7;" horiz-adv-x="268" d="M244 268q0 -23 -9 -43t-24 -35t-35 -23.5t-42 -8.5q-23 0 -43 8.5t-35 23.5t-23.5 35t-8.5 43t8.5 43t23.5 35t35 23.5t43 8.5q22 0 42 -8.5t35 -23.5t24 -35t9 -43z" />
<glyph unicode="&#xb8;" horiz-adv-x="324" d="M105 -32q17 7 34 10.5t39 3.5q49 0 79.5 -19t30.5 -56q0 -23 -12 -40t-33.5 -28.5t-50.5 -17t-63 -5.5q-41 0 -64.5 6.5t-33.5 12.5l15 55q5 -5 19 -10t33 -5q32 0 32 17q0 11 -14 12.5t-27 1.5z" />
<glyph unicode="&#xb9;" horiz-adv-x="420" d="M159 488v179q-20 -5 -46 -9t-52 -7l-17 103q55 8 90.5 20.5t59.5 32.5h101v-319h80v-114h-314v114h98z" />
<glyph unicode="&#xba;" horiz-adv-x="451" d="M428 537q0 -42 -14.5 -76.5t-41 -58.5t-64 -37t-83.5 -13t-83.5 13t-63.5 37t-40.5 58.5t-14.5 76.5q0 84 54.5 134t147.5 50q46 0 83.5 -13t64 -37t41 -58t14.5 -76zM286 537q0 33 -15 54t-46 21q-29 0 -44.5 -21t-15.5 -54q0 -34 15.5 -54t44.5 -20q31 0 46 20t15 54z " />
<glyph unicode="&#xbb;" horiz-adv-x="531" d="M29 450l84 62l170 -209v-68l-170 -209l-84 62l107 181zM263 450l84 62l170 -209v-68l-170 -209l-84 62l107 181z" />
<glyph unicode="&#xbc;" horiz-adv-x="1040" d="M159 395v179q-20 -5 -46 -9t-52 -7l-17 103q55 8 90.5 20.5t59.5 32.5h101v-319h80v-114h-314v114h98zM971 79v-79h-131v79h-205v93q17 31 30.5 65.5t23 69t14.5 67t5 59.5h133q0 -56 -19 -118.5t-52 -125.5h73v138h128v-138h53v-110h-53zM359 0h-134l455 714h134z" />
<glyph unicode="&#xbd;" horiz-adv-x="1040" d="M159 395v179q-20 -5 -46 -9t-52 -7l-17 103q55 8 90.5 20.5t59.5 32.5h101v-319h80v-114h-314v114h98zM657 0v96q58 39 97 67.5t62.5 50t33 39t9.5 34.5t-11.5 27t-30.5 10t-37 -13t-31 -42l-109 56q30 51 77 83.5t112 32.5q39 0 71 -10t55 -28.5t36 -46t13 -62.5 q0 -45 -30.5 -89t-96.5 -85h132v-120h-352zM359 0h-134l455 714h134z" />
<glyph unicode="&#xbe;" horiz-adv-x="1040" d="M402 414q0 -29 -12.5 -54.5t-36.5 -45t-58.5 -30.5t-78.5 -11q-149 0 -198 132l112 32q14 -30 38.5 -39t49.5 -9q20 0 32 7.5t12 21.5q0 13 -13.5 19.5t-32.5 6.5h-57v109h55q13 0 26 6.5t13 19.5q0 14 -13 20.5t-27 6.5q-25 0 -47 -10t-36 -36l-105 43q34 63 81.5 91 t112.5 28q33 0 63.5 -7.5t54 -23.5t37.5 -41t14 -59q0 -29 -11 -49.5t-32 -34.5q29 -14 43 -39.5t14 -53.5zM971 79v-79h-131v79h-205v93q17 31 30.5 65.5t23 69t14.5 67t5 59.5h133q0 -56 -19 -118.5t-52 -125.5h73v138h128v-138h53v-110h-53zM359 0h-134l455 714h134z" />
<glyph unicode="&#xbf;" horiz-adv-x="581" d="M51 31q0 43 14.5 74t36 53.5t46.5 39.5t46.5 31.5t36 28.5t14.5 31v5h183v-11q0 -36 -13.5 -61.5t-34 -45t-44 -34.5t-44 -30t-34 -31.5t-13.5 -38.5q0 -29 24.5 -49t68.5 -20q29 0 69 12.5t73 46.5l80 -128q-48 -42 -108.5 -65t-134.5 -23q-60 0 -109.5 16t-84 44.5 t-53.5 68t-19 86.5zM444 437q0 -23 -8.5 -43t-23.5 -35t-35 -23.5t-43 -8.5t-43 8.5t-35 23.5t-23.5 35t-8.5 43t8.5 43t23.5 35t35 23.5t43 8.5t43 -8.5t35 -23.5t23.5 -35t8.5 -43z" />
<glyph unicode="&#xc0;" horiz-adv-x="718" d="M509 0l-38 141h-230l-38 -141h-207l249 714h228l248 -714h-212zM356 558l-74 -268h147zM316 743l-123 139l152 41l90 -180h-119z" />
<glyph unicode="&#xc1;" horiz-adv-x="718" d="M509 0l-38 141h-230l-38 -141h-207l249 714h228l248 -714h-212zM356 558l-74 -268h147zM275 743l90 180l152 -41l-123 -139h-119z" />
<glyph unicode="&#xc2;" horiz-adv-x="718" d="M509 0l-38 141h-230l-38 -141h-207l249 714h228l248 -714h-212zM356 558l-74 -268h147zM222 735l-49 63q38 32 68 60.5t53 54.5h126q23 -26 53 -54.5t68 -60.5l-49 -63l-135 62z" />
<glyph unicode="&#xc3;" horiz-adv-x="718" d="M509 0l-38 141h-230l-38 -141h-207l249 714h228l248 -714h-212zM356 558l-74 -268h147zM576 854q-9 -21 -22.5 -40t-31 -33.5t-39 -23.5t-46.5 -9q-22 0 -40 6t-34 13.5t-30.5 14t-30.5 6.5q-20 0 -41.5 -12t-36.5 -33l-62 44q9 21 22.5 40t31 33.5t39 23.5t46.5 9 q22 0 40 -6.5t34 -14t30.5 -13.5t30.5 -6q20 0 41.5 12t36.5 33z" />
<glyph unicode="&#xc4;" horiz-adv-x="718" d="M509 0l-38 141h-230l-38 -141h-207l249 714h228l248 -714h-212zM356 558l-74 -268h147zM173 815q0 32 22.5 55t54.5 23t55 -23t23 -55q0 -16 -6.5 -30t-17 -24.5t-24.5 -16.5t-30 -6q-32 0 -54.5 22.5t-22.5 54.5zM380 815q0 32 22.5 55t54.5 23q16 0 30 -6t24.5 -16.5 t17 -25t6.5 -30.5q0 -32 -23 -54.5t-55 -22.5t-54.5 22.5t-22.5 54.5z" />
<glyph unicode="&#xc5;" horiz-adv-x="718" d="M356 558l-74 -268h147zM411 705q0 23 -15 38t-37 15q-23 0 -38 -15t-15 -38q0 -22 15 -37t38 -15q22 0 37 15t15 37zM224 705q0 28 10.5 52.5t29 43t43 29t52.5 10.5t52.5 -10.5t43 -29t29 -43t10.5 -52.5q0 -21 -6 -37l233 -668h-212l-38 141h-230l-38 -141h-207 l233 669q-2 9 -3.5 17.5t-1.5 18.5z" />
<glyph unicode="&#xc6;" horiz-adv-x="993" d="M447 0v141h-187l-56 -141h-207l313 714h636v-169h-311v-101h274v-149h-274v-126h321v-169h-509zM447 567h-29l-99 -277h128v277z" />
<glyph unicode="&#xc7;" horiz-adv-x="720" d="M551 456q-31 58 -71.5 83t-91.5 25q-39 0 -70 -16t-52 -43.5t-32.5 -65t-11.5 -80.5q0 -44 11.5 -82t32.5 -66.5t52 -44.5t70 -16q31 0 57 9.5t46 25.5t35 37.5t25 44.5l154 -77q-48 -96 -127.5 -149.5t-194.5 -53.5q-78 0 -143 26.5t-112.5 75t-73.5 117.5t-26 153 t26 152t73.5 116t112.5 74t143 26q94 0 177.5 -43t140.5 -144zM296 -32q17 7 34 10.5t39 3.5q49 0 79.5 -19t30.5 -56q0 -23 -12 -40t-33.5 -28.5t-50.5 -17t-63 -5.5q-41 0 -64.5 6.5t-33.5 12.5l15 55q5 -5 19 -10t33 -5q32 0 32 17q0 11 -14 12.5t-27 1.5z" />
<glyph unicode="&#xc8;" horiz-adv-x="648" d="M64 0v714h537v-169h-348v-109h310v-149h-310v-118h358v-169h-547zM308 743l-123 139l152 41l90 -180h-119z" />
<glyph unicode="&#xc9;" horiz-adv-x="648" d="M64 0v714h537v-169h-348v-109h310v-149h-310v-118h358v-169h-547zM251 743l90 180l152 -41l-123 -139h-119z" />
<glyph unicode="&#xca;" horiz-adv-x="648" d="M64 0v714h537v-169h-348v-109h310v-149h-310v-118h358v-169h-547zM204 735l-49 63q38 32 68 60.5t53 54.5h126q23 -26 53 -54.5t68 -60.5l-49 -63l-135 62z" />
<glyph unicode="&#xcb;" horiz-adv-x="648" d="M64 0v714h537v-169h-348v-109h310v-149h-310v-118h358v-169h-547zM151 815q0 32 22.5 55t54.5 23t55 -23t23 -55q0 -16 -6.5 -30t-17 -24.5t-24.5 -16.5t-30 -6q-32 0 -54.5 22.5t-22.5 54.5zM358 815q0 32 22.5 55t54.5 23q16 0 30 -6t24.5 -16.5t17 -25t6.5 -30.5 q0 -32 -23 -54.5t-55 -22.5t-54.5 22.5t-22.5 54.5z" />
<glyph unicode="&#xcc;" horiz-adv-x="317" d="M64 0v714h189v-714h-189zM123 743l-123 139l152 41l90 -180h-119z" />
<glyph unicode="&#xcd;" horiz-adv-x="317" d="M64 0v714h189v-714h-189zM73 743l90 180l152 -41l-123 -139h-119z" />
<glyph unicode="&#xce;" horiz-adv-x="317" d="M64 0v714h189v-714h-189zM24 735l-49 63q38 32 68 60.5t53 54.5h126q23 -26 53 -54.5t68 -60.5l-49 -63l-135 62z" />
<glyph unicode="&#xcf;" horiz-adv-x="317" d="M64 0v714h189v-714h-189zM-23 815q0 32 22.5 55t54.5 23t55 -23t23 -55q0 -16 -6.5 -30t-17 -24.5t-24.5 -16.5t-30 -6q-32 0 -54.5 22.5t-22.5 54.5zM184 815q0 32 22.5 55t54.5 23q16 0 30 -6t24.5 -16.5t17 -25t6.5 -30.5q0 -32 -23 -54.5t-55 -22.5t-54.5 22.5 t-22.5 54.5z" />
<glyph unicode="&#xd0;" horiz-adv-x="788" d="M97 0v285h-67v149h67v280h297q89 0 157.5 -27.5t114.5 -75.5t69.5 -113t23.5 -141t-23.5 -141t-69.5 -113t-114.5 -75.5t-157.5 -27.5h-297zM394 169q84 0 126.5 50t42.5 138t-42.5 138t-126.5 50h-107v-111h148v-149h-148v-116h107z" />
<glyph unicode="&#xd1;" horiz-adv-x="768" d="M484 0l-238 449v-449h-182v714h227l232 -439v439h181v-714h-220zM620 854q-9 -21 -22.5 -40t-31 -33.5t-39 -23.5t-46.5 -9q-22 0 -40 6t-34 13.5t-30.5 14t-30.5 6.5q-20 0 -41.5 -12t-36.5 -33l-62 44q9 21 22.5 40t31 33.5t39 23.5t46.5 9q22 0 40 -6.5t34 -14 t30.5 -13.5t30.5 -6q20 0 41.5 12t36.5 33z" />
<glyph unicode="&#xd2;" horiz-adv-x="780" d="M753 357q0 -77 -25 -144.5t-71.5 -117.5t-114.5 -79t-153 -29q-86 0 -153 29t-113.5 79t-71 117.5t-24.5 144.5t24.5 144.5t71 117.5t113.5 79t153 29q85 0 153 -29t114.5 -79t71.5 -117.5t25 -144.5zM557 357q0 40 -10.5 75.5t-31.5 62.5t-52.5 43t-73.5 16 q-41 0 -72 -16t-52 -43t-31.5 -62.5t-10.5 -75.5q0 -41 10.5 -76.5t31.5 -62.5t52 -42.5t72 -15.5q42 0 73.5 15.5t52.5 42.5t31.5 62.5t10.5 76.5zM350 743l-123 139l152 41l90 -180h-119z" />
<glyph unicode="&#xd3;" horiz-adv-x="780" d="M753 357q0 -77 -25 -144.5t-71.5 -117.5t-114.5 -79t-153 -29q-86 0 -153 29t-113.5 79t-71 117.5t-24.5 144.5t24.5 144.5t71 117.5t113.5 79t153 29q85 0 153 -29t114.5 -79t71.5 -117.5t25 -144.5zM557 357q0 40 -10.5 75.5t-31.5 62.5t-52.5 43t-73.5 16 q-41 0 -72 -16t-52 -43t-31.5 -62.5t-10.5 -75.5q0 -41 10.5 -76.5t31.5 -62.5t52 -42.5t72 -15.5q42 0 73.5 15.5t52.5 42.5t31.5 62.5t10.5 76.5zM301 743l90 180l152 -41l-123 -139h-119z" />
<glyph unicode="&#xd4;" horiz-adv-x="780" d="M753 357q0 -77 -25 -144.5t-71.5 -117.5t-114.5 -79t-153 -29q-86 0 -153 29t-113.5 79t-71 117.5t-24.5 144.5t24.5 144.5t71 117.5t113.5 79t153 29q85 0 153 -29t114.5 -79t71.5 -117.5t25 -144.5zM557 357q0 40 -10.5 75.5t-31.5 62.5t-52.5 43t-73.5 16 q-41 0 -72 -16t-52 -43t-31.5 -62.5t-10.5 -75.5q0 -41 10.5 -76.5t31.5 -62.5t52 -42.5t72 -15.5q42 0 73.5 15.5t52.5 42.5t31.5 62.5t10.5 76.5zM255 735l-49 63q38 32 68 60.5t53 54.5h126q23 -26 53 -54.5t68 -60.5l-49 -63l-135 62z" />
<glyph unicode="&#xd5;" horiz-adv-x="780" d="M753 357q0 -77 -25 -144.5t-71.5 -117.5t-114.5 -79t-153 -29q-86 0 -153 29t-113.5 79t-71 117.5t-24.5 144.5t24.5 144.5t71 117.5t113.5 79t153 29q85 0 153 -29t114.5 -79t71.5 -117.5t25 -144.5zM557 357q0 40 -10.5 75.5t-31.5 62.5t-52.5 43t-73.5 16 q-41 0 -72 -16t-52 -43t-31.5 -62.5t-10.5 -75.5q0 -41 10.5 -76.5t31.5 -62.5t52 -42.5t72 -15.5q42 0 73.5 15.5t52.5 42.5t31.5 62.5t10.5 76.5zM603 854q-9 -21 -22.5 -40t-31 -33.5t-39 -23.5t-46.5 -9q-22 0 -40 6t-34 13.5t-30.5 14t-30.5 6.5q-20 0 -41.5 -12 t-36.5 -33l-62 44q9 21 22.5 40t31 33.5t39 23.5t46.5 9q22 0 40 -6.5t34 -14t30.5 -13.5t30.5 -6q20 0 41.5 12t36.5 33z" />
<glyph unicode="&#xd6;" horiz-adv-x="780" d="M753 357q0 -77 -25 -144.5t-71.5 -117.5t-114.5 -79t-153 -29q-86 0 -153 29t-113.5 79t-71 117.5t-24.5 144.5t24.5 144.5t71 117.5t113.5 79t153 29q85 0 153 -29t114.5 -79t71.5 -117.5t25 -144.5zM557 357q0 40 -10.5 75.5t-31.5 62.5t-52.5 43t-73.5 16 q-41 0 -72 -16t-52 -43t-31.5 -62.5t-10.5 -75.5q0 -41 10.5 -76.5t31.5 -62.5t52 -42.5t72 -15.5q42 0 73.5 15.5t52.5 42.5t31.5 62.5t10.5 76.5zM209 815q0 32 22.5 55t54.5 23t55 -23t23 -55q0 -16 -6.5 -30t-17 -24.5t-24.5 -16.5t-30 -6q-32 0 -54.5 22.5t-22.5 54.5z M416 815q0 32 22.5 55t54.5 23q16 0 30 -6t24.5 -16.5t17 -25t6.5 -30.5q0 -32 -23 -54.5t-55 -22.5t-54.5 22.5t-22.5 54.5z" />
<glyph unicode="&#xd7;" d="M411 268l169 -171l-105 -105l-171 170l-171 -170l-105 105l170 171l-170 171l105 105l171 -169l171 169l105 -105z" />
<glyph unicode="&#xd8;" horiz-adv-x="780" d="M108 32l32 45q-55 51 -84 123t-29 157q0 77 24.5 144.5t71 117.5t113.5 79t153 29q51 0 95 -10.5t82 -30.5l33 47l73 -51l-33 -47q56 -51 85 -122.5t29 -155.5q0 -77 -25 -144.5t-71.5 -117.5t-114.5 -79t-153 -29q-51 0 -94.5 10t-81.5 29l-32 -45zM223 357 q0 -34 7 -64.5t22 -55.5l210 301q-16 8 -34 12t-39 4q-41 0 -72 -16t-52 -43t-31.5 -62.5t-10.5 -75.5zM557 357q0 68 -30 119l-210 -301q30 -15 72 -15t73.5 15.5t52.5 42.5t31.5 62.5t10.5 76.5z" />
<glyph unicode="&#xd9;" horiz-adv-x="740" d="M682 279q0 -71 -22 -125.5t-63 -91.5t-98.5 -56t-128.5 -19t-129 19t-98.5 56t-62.5 91.5t-22 125.5v435h189v-435q0 -120 123 -120t123 120v435h189v-435zM327 743l-123 139l152 41l90 -180h-119z" />
<glyph unicode="&#xda;" horiz-adv-x="740" d="M682 279q0 -71 -22 -125.5t-63 -91.5t-98.5 -56t-128.5 -19t-129 19t-98.5 56t-62.5 91.5t-22 125.5v435h189v-435q0 -120 123 -120t123 120v435h189v-435zM295 743l90 180l152 -41l-123 -139h-119z" />
<glyph unicode="&#xdb;" horiz-adv-x="740" d="M682 279q0 -71 -22 -125.5t-63 -91.5t-98.5 -56t-128.5 -19t-129 19t-98.5 56t-62.5 91.5t-22 125.5v435h189v-435q0 -120 123 -120t123 120v435h189v-435zM236 735l-49 63q38 32 68 60.5t53 54.5h126q23 -26 53 -54.5t68 -60.5l-49 -63l-135 62z" />
<glyph unicode="&#xdc;" horiz-adv-x="740" d="M682 279q0 -71 -22 -125.5t-63 -91.5t-98.5 -56t-128.5 -19t-129 19t-98.5 56t-62.5 91.5t-22 125.5v435h189v-435q0 -120 123 -120t123 120v435h189v-435zM190 815q0 32 22.5 55t54.5 23t55 -23t23 -55q0 -16 -6.5 -30t-17 -24.5t-24.5 -16.5t-30 -6q-32 0 -54.5 22.5 t-22.5 54.5zM397 815q0 32 22.5 55t54.5 23q16 0 30 -6t24.5 -16.5t17 -25t6.5 -30.5q0 -32 -23 -54.5t-55 -22.5t-54.5 22.5t-22.5 54.5z" />
<glyph unicode="&#xdd;" horiz-adv-x="689" d="M439 297v-297h-189v295l-256 419h219l132 -242l132 242h218zM267 743l90 180l152 -41l-123 -139h-119z" />
<glyph unicode="&#xde;" horiz-adv-x="684" d="M671 394q0 -57 -19 -102.5t-54.5 -78t-86 -50t-113.5 -17.5h-145v-146h-189v714h189v-70h145q63 0 113.5 -17.5t86 -50.5t54.5 -79t19 -103zM480 395q0 42 -24.5 61t-59.5 19h-143v-159h143q36 0 60 18.5t24 60.5z" />
<glyph unicode="&#xdf;" horiz-adv-x="683" d="M658 205q0 -51 -18.5 -91.5t-51.5 -68t-78.5 -42.5t-98.5 -15q-39 0 -75.5 5t-65.5 15l30 156q13 -6 32 -11.5t44 -5.5q17 0 33 4.5t28 13.5t19.5 23.5t7.5 35.5q0 43 -29 57t-75 14h-62v148h50q37 0 60 15.5t23 48.5q0 37 -27 53t-68 16q-49 0 -73 -21.5t-24 -61.5v-493 h-183v496q0 107 70.5 169t213.5 62q61 0 111.5 -12.5t87 -38t56.5 -63t20 -87.5t-25 -88t-63 -58q58 -16 94.5 -58t36.5 -117z" />
<glyph unicode="&#xe0;" horiz-adv-x="595" d="M589 13q-17 -11 -44.5 -16t-49.5 -5q-38 0 -70.5 14.5t-47.5 46.5q-13 -18 -32 -30t-40.5 -20t-45 -11.5t-46.5 -3.5q-41 0 -76 11t-60 32.5t-39 53t-14 73.5q0 50 19 80t48.5 47t65 24t68.5 10q24 3 45.5 5t37 6.5t24.5 12t9 20.5q0 12 -7 19t-17.5 11t-23 5.5 t-24.5 1.5q-39 0 -86.5 -12.5t-85.5 -35.5l-55 137q59 31 119 44.5t123 13.5q54 0 98 -10t75.5 -33t49 -59.5t17.5 -90.5v-215q0 -14 6 -18t16 -4q17 0 25 7zM341 247q-12 -14 -31.5 -17.5t-43.5 -7.5q-11 -2 -22 -5t-20 -9t-14.5 -16t-5.5 -25q0 -26 16.5 -38t43.5 -12 q35 0 56 19.5t21 58.5v52zM260 575l-123 139l152 41l90 -180h-119z" />
<glyph unicode="&#xe1;" horiz-adv-x="595" d="M589 13q-17 -11 -44.5 -16t-49.5 -5q-38 0 -70.5 14.5t-47.5 46.5q-13 -18 -32 -30t-40.5 -20t-45 -11.5t-46.5 -3.5q-41 0 -76 11t-60 32.5t-39 53t-14 73.5q0 50 19 80t48.5 47t65 24t68.5 10q24 3 45.5 5t37 6.5t24.5 12t9 20.5q0 12 -7 19t-17.5 11t-23 5.5 t-24.5 1.5q-39 0 -86.5 -12.5t-85.5 -35.5l-55 137q59 31 119 44.5t123 13.5q54 0 98 -10t75.5 -33t49 -59.5t17.5 -90.5v-215q0 -14 6 -18t16 -4q17 0 25 7zM341 247q-12 -14 -31.5 -17.5t-43.5 -7.5q-11 -2 -22 -5t-20 -9t-14.5 -16t-5.5 -25q0 -26 16.5 -38t43.5 -12 q35 0 56 19.5t21 58.5v52zM202 575l90 180l152 -41l-123 -139h-119z" />
<glyph unicode="&#xe2;" horiz-adv-x="595" d="M589 13q-17 -11 -44.5 -16t-49.5 -5q-38 0 -70.5 14.5t-47.5 46.5q-13 -18 -32 -30t-40.5 -20t-45 -11.5t-46.5 -3.5q-41 0 -76 11t-60 32.5t-39 53t-14 73.5q0 50 19 80t48.5 47t65 24t68.5 10q24 3 45.5 5t37 6.5t24.5 12t9 20.5q0 12 -7 19t-17.5 11t-23 5.5 t-24.5 1.5q-39 0 -86.5 -12.5t-85.5 -35.5l-55 137q59 31 119 44.5t123 13.5q54 0 98 -10t75.5 -33t49 -59.5t17.5 -90.5v-215q0 -14 6 -18t16 -4q17 0 25 7zM341 247q-12 -14 -31.5 -17.5t-43.5 -7.5q-11 -2 -22 -5t-20 -9t-14.5 -16t-5.5 -25q0 -26 16.5 -38t43.5 -12 q35 0 56 19.5t21 58.5v52zM146 567l-49 63q38 32 68 60.5t53 54.5h126q23 -26 53 -54.5t68 -60.5l-49 -63l-135 62z" />
<glyph unicode="&#xe3;" horiz-adv-x="595" d="M589 13q-17 -11 -44.5 -16t-49.5 -5q-38 0 -70.5 14.5t-47.5 46.5q-13 -18 -32 -30t-40.5 -20t-45 -11.5t-46.5 -3.5q-41 0 -76 11t-60 32.5t-39 53t-14 73.5q0 50 19 80t48.5 47t65 24t68.5 10q24 3 45.5 5t37 6.5t24.5 12t9 20.5q0 12 -7 19t-17.5 11t-23 5.5 t-24.5 1.5q-39 0 -86.5 -12.5t-85.5 -35.5l-55 137q59 31 119 44.5t123 13.5q54 0 98 -10t75.5 -33t49 -59.5t17.5 -90.5v-215q0 -14 6 -18t16 -4q17 0 25 7zM341 247q-12 -14 -31.5 -17.5t-43.5 -7.5q-11 -2 -22 -5t-20 -9t-14.5 -16t-5.5 -25q0 -26 16.5 -38t43.5 -12 q35 0 56 19.5t21 58.5v52zM494 686q-9 -21 -22.5 -40t-31 -33.5t-39 -23.5t-46.5 -9q-22 0 -40 6t-34 13.5t-30.5 14t-30.5 6.5q-20 0 -41.5 -12t-36.5 -33l-62 44q9 21 22.5 40t31 33.5t39 23.5t46.5 9q22 0 40 -6.5t34 -14t30.5 -13.5t30.5 -6q20 0 41.5 12t36.5 33z" />
<glyph unicode="&#xe4;" horiz-adv-x="595" d="M589 13q-17 -11 -44.5 -16t-49.5 -5q-38 0 -70.5 14.5t-47.5 46.5q-13 -18 -32 -30t-40.5 -20t-45 -11.5t-46.5 -3.5q-41 0 -76 11t-60 32.5t-39 53t-14 73.5q0 50 19 80t48.5 47t65 24t68.5 10q24 3 45.5 5t37 6.5t24.5 12t9 20.5q0 12 -7 19t-17.5 11t-23 5.5 t-24.5 1.5q-39 0 -86.5 -12.5t-85.5 -35.5l-55 137q59 31 119 44.5t123 13.5q54 0 98 -10t75.5 -33t49 -59.5t17.5 -90.5v-215q0 -14 6 -18t16 -4q17 0 25 7zM341 247q-12 -14 -31.5 -17.5t-43.5 -7.5q-11 -2 -22 -5t-20 -9t-14.5 -16t-5.5 -25q0 -26 16.5 -38t43.5 -12 q35 0 56 19.5t21 58.5v52zM103 647q0 32 22.5 55t54.5 23t55 -23t23 -55q0 -16 -6.5 -30t-17 -24.5t-24.5 -16.5t-30 -6q-32 0 -54.5 22.5t-22.5 54.5zM310 647q0 32 22.5 55t54.5 23q16 0 30 -6t24.5 -16.5t17 -25t6.5 -30.5q0 -32 -23 -54.5t-55 -22.5t-54.5 22.5 t-22.5 54.5z" />
<glyph unicode="&#xe5;" horiz-adv-x="595" d="M589 13q-17 -11 -44.5 -16t-49.5 -5q-38 0 -70.5 14.5t-47.5 46.5q-13 -18 -32 -30t-40.5 -20t-45 -11.5t-46.5 -3.5q-41 0 -76 11t-60 32.5t-39 53t-14 73.5q0 50 19 80t48.5 47t65 24t68.5 10q24 3 45.5 5t37 6.5t24.5 12t9 20.5q0 12 -7 19t-17.5 11t-23 5.5 t-24.5 1.5q-39 0 -86.5 -12.5t-85.5 -35.5l-55 137q59 31 119 44.5t123 13.5q54 0 98 -10t75.5 -33t49 -59.5t17.5 -90.5v-215q0 -14 6 -18t16 -4q17 0 25 7zM341 247q-12 -14 -31.5 -17.5t-43.5 -7.5q-11 -2 -22 -5t-20 -9t-14.5 -16t-5.5 -25q0 -26 16.5 -38t43.5 -12 q35 0 56 19.5t21 58.5v52zM414 672q0 -46 -36 -77.5t-96 -31.5t-96 31.5t-36 77.5q0 22 9.5 42t27 35t41.5 24t54 9t54 -9t41.5 -24t27 -35t9.5 -42zM234 671q0 -20 14 -34t34 -14t34 14t14 34t-14 34t-34 14t-34 -14t-14 -34z" />
<glyph unicode="&#xe6;" horiz-adv-x="929" d="M723 332q-3 43 -29.5 63.5t-68.5 20.5t-68.5 -20t-30.5 -64h197zM342 247q-12 -14 -31.5 -17.5t-43.5 -7.5q-11 -2 -22 -5t-20 -9t-14.5 -16t-5.5 -25q0 -26 16.5 -38t43.5 -12q35 0 56 19.5t21 58.5v52zM43 489q57 30 115.5 44t115.5 14q64 0 106 -16t70 -43 q31 29 75 44t101 15q65 0 116.5 -20t87 -56.5t54 -87.5t18.5 -114q0 -12 -0.5 -24.5t-1.5 -22.5h-374q3 -44 34.5 -64t81.5 -20q46 0 81.5 15.5t59.5 41.5l119 -104q-46 -45 -111.5 -74t-156.5 -29q-67 0 -120 18t-88 56q-24 -34 -75 -54t-119 -20q-97 0 -152 43t-55 128 q0 50 19 80t48.5 47t65 24t68.5 10q24 3 45.5 5t37 6t24.5 11.5t9 20.5q0 23 -22.5 30.5t-49.5 7.5q-39 0 -86.5 -12.5t-85.5 -35.5z" />
<glyph unicode="&#xe7;" horiz-adv-x="576" d="M562 123q-34 -59 -95 -97t-155 -38q-66 0 -119.5 21t-90.5 58t-57 88t-20 111q0 61 20 112.5t57 89t90 58.5t118 21q47 0 86 -11t69.5 -30.5t54 -46.5t40.5 -58l-134 -81q-17 35 -44 54.5t-62 19.5q-49 0 -75.5 -35t-26.5 -91q0 -59 28 -93t78 -34q38 0 66 19t48 51z M224 -32q17 7 34 10.5t39 3.5q49 0 79.5 -19t30.5 -56q0 -23 -12 -40t-33.5 -28.5t-50.5 -17t-63 -5.5q-41 0 -64.5 6.5t-33.5 12.5l15 55q5 -5 19 -10t33 -5q32 0 32 17q0 11 -14 12.5t-27 1.5z" />
<glyph unicode="&#xe8;" horiz-adv-x="625" d="M598 271q0 -13 -0.5 -25.5t-1.5 -22.5h-374q3 -44 34.5 -64.5t81.5 -20.5q46 0 81.5 14.5t59.5 40.5l119 -104q-46 -45 -111.5 -73t-159.5 -28q-75 0 -132 20.5t-94.5 57t-56.5 86.5t-19 110q0 61 19.5 113.5t57 90.5t92 59.5t123.5 21.5q67 0 119 -19.5t88 -55.5t55 -87 t19 -114zM419 333q-3 43 -29.5 63t-68.5 20t-68.5 -19.5t-30.5 -63.5h197zM275 575l-123 139l152 41l90 -180h-119z" />
<glyph unicode="&#xe9;" horiz-adv-x="625" d="M598 271q0 -13 -0.5 -25.5t-1.5 -22.5h-374q3 -44 34.5 -64.5t81.5 -20.5q46 0 81.5 14.5t59.5 40.5l119 -104q-46 -45 -111.5 -73t-159.5 -28q-75 0 -132 20.5t-94.5 57t-56.5 86.5t-19 110q0 61 19.5 113.5t57 90.5t92 59.5t123.5 21.5q67 0 119 -19.5t88 -55.5t55 -87 t19 -114zM419 333q-3 43 -29.5 63t-68.5 20t-68.5 -19.5t-30.5 -63.5h197zM239 575l90 180l152 -41l-123 -139h-119z" />
<glyph unicode="&#xea;" horiz-adv-x="625" d="M598 271q0 -13 -0.5 -25.5t-1.5 -22.5h-374q3 -44 34.5 -64.5t81.5 -20.5q46 0 81.5 14.5t59.5 40.5l119 -104q-46 -45 -111.5 -73t-159.5 -28q-75 0 -132 20.5t-94.5 57t-56.5 86.5t-19 110q0 61 19.5 113.5t57 90.5t92 59.5t123.5 21.5q67 0 119 -19.5t88 -55.5t55 -87 t19 -114zM419 333q-3 43 -29.5 63t-68.5 20t-68.5 -19.5t-30.5 -63.5h197zM183 567l-49 63q38 32 68 60.5t53 54.5h126q23 -26 53 -54.5t68 -60.5l-49 -63l-135 62z" />
<glyph unicode="&#xeb;" horiz-adv-x="625" d="M598 271q0 -13 -0.5 -25.5t-1.5 -22.5h-374q3 -44 34.5 -64.5t81.5 -20.5q46 0 81.5 14.5t59.5 40.5l119 -104q-46 -45 -111.5 -73t-159.5 -28q-75 0 -132 20.5t-94.5 57t-56.5 86.5t-19 110q0 61 19.5 113.5t57 90.5t92 59.5t123.5 21.5q67 0 119 -19.5t88 -55.5t55 -87 t19 -114zM419 333q-3 43 -29.5 63t-68.5 20t-68.5 -19.5t-30.5 -63.5h197zM138 647q0 32 22.5 55t54.5 23t55 -23t23 -55q0 -16 -6.5 -30t-17 -24.5t-24.5 -16.5t-30 -6q-32 0 -54.5 22.5t-22.5 54.5zM345 647q0 32 22.5 55t54.5 23q16 0 30 -6t24.5 -16.5t17 -25t6.5 -30.5 q0 -32 -23 -54.5t-55 -22.5t-54.5 22.5t-22.5 54.5z" />
<glyph unicode="&#xec;" horiz-adv-x="295" d="M56 0v535h183v-535h-183zM120 575l-123 139l152 41l90 -180h-119z" />
<glyph unicode="&#xed;" horiz-adv-x="295" d="M56 0v535h183v-535h-183zM54 575l90 180l152 -41l-123 -139h-119z" />
<glyph unicode="&#xee;" horiz-adv-x="295" d="M56 0v535h183v-535h-183zM12 567l-49 63q38 32 68 60.5t53 54.5h126q23 -26 53 -54.5t68 -60.5l-49 -63l-135 62z" />
<glyph unicode="&#xef;" horiz-adv-x="295" d="M-28 647q0 32 22.5 55t54.5 23q16 0 30 -6t24.5 -16.5t17 -25t6.5 -30.5t-6.5 -30t-17 -24.5t-24.5 -16.5t-30 -6q-32 0 -54.5 22.5t-22.5 54.5zM168 647q0 32 22.5 55t54.5 23q16 0 30 -6t24.5 -16.5t17 -25t6.5 -30.5q0 -32 -23 -54.5t-55 -22.5t-54.5 22.5t-22.5 54.5 zM56 0v535h183v-535h-183z" />
<glyph unicode="&#xf0;" horiz-adv-x="646" d="M321 726q25 -12 48 -26t45 -29l124 45l25 -65l-88 -32q64 -64 99.5 -145.5t35.5 -173.5q0 -69 -18 -126.5t-55 -98.5t-92 -64t-129 -23q-62 0 -114.5 17t-91 50.5t-60.5 83t-22 113.5q0 51 17 96.5t49 80.5t77 55.5t102 20.5q60 0 110 -28q-16 24 -35 44.5t-41 37.5 l-118 -43l-25 65l71 25q-19 11 -37.5 20t-35.5 17zM427 246q0 48 -27.5 80t-77.5 32t-75.5 -32t-25.5 -80q0 -49 25.5 -79.5t75.5 -30.5q51 0 78 31t27 79z" />
<glyph unicode="&#xf1;" horiz-adv-x="621" d="M387 0v316q0 28 -13.5 49.5t-55.5 21.5q-32 0 -55.5 -19.5t-23.5 -61.5v-306h-183v535h183v-49q31 29 70.5 45t81.5 16q47 0 81 -15.5t55.5 -41.5t32 -60.5t10.5 -71.5v-358h-183zM534 686q-9 -21 -22.5 -40t-31 -33.5t-39 -23.5t-46.5 -9q-22 0 -40 6t-34 13.5t-30.5 14 t-30.5 6.5q-20 0 -41.5 -12t-36.5 -33l-62 44q9 21 22.5 40t31 33.5t39 23.5t46.5 9q22 0 40 -6.5t34 -14t30.5 -13.5t30.5 -6q20 0 41.5 12t36.5 33z" />
<glyph unicode="&#xf2;" horiz-adv-x="642" d="M275 575l-123 139l152 41l90 -180h-119zM617 266q0 -64 -21 -115.5t-59.5 -87.5t-93.5 -55.5t-122 -19.5q-68 0 -122.5 19.5t-93 55.5t-59.5 87.5t-21 115.5t21 116t59.5 89t93 56.5t122.5 19.5q67 0 122 -19.5t93.5 -56.5t59.5 -89t21 -116zM423 267q0 60 -25.5 95 t-76.5 35t-76.5 -35t-25.5 -95t25.5 -94t76.5 -34t76.5 34t25.5 94z" />
<glyph unicode="&#xf3;" horiz-adv-x="642" d="M244 575l90 180l152 -41l-123 -139h-119zM617 266q0 -64 -21 -115.5t-59.5 -87.5t-93.5 -55.5t-122 -19.5q-68 0 -122.5 19.5t-93 55.5t-59.5 87.5t-21 115.5t21 116t59.5 89t93 56.5t122.5 19.5q67 0 122 -19.5t93.5 -56.5t59.5 -89t21 -116zM423 267q0 60 -25.5 95 t-76.5 35t-76.5 -35t-25.5 -95t25.5 -94t76.5 -34t76.5 34t25.5 94z" />
<glyph unicode="&#xf4;" horiz-adv-x="642" d="M187 567l-49 63q38 32 68 60.5t53 54.5h126q23 -26 53 -54.5t68 -60.5l-49 -63l-135 62zM617 266q0 -64 -21 -115.5t-59.5 -87.5t-93.5 -55.5t-122 -19.5q-68 0 -122.5 19.5t-93 55.5t-59.5 87.5t-21 115.5t21 116t59.5 89t93 56.5t122.5 19.5q67 0 122 -19.5t93.5 -56.5 t59.5 -89t21 -116zM423 267q0 60 -25.5 95t-76.5 35t-76.5 -35t-25.5 -95t25.5 -94t76.5 -34t76.5 34t25.5 94z" />
<glyph unicode="&#xf5;" horiz-adv-x="642" d="M527 686q-9 -21 -22.5 -40t-31 -33.5t-39 -23.5t-46.5 -9q-22 0 -40 6t-34 13.5t-30.5 14t-30.5 6.5q-20 0 -41.5 -12t-36.5 -33l-62 44q9 21 22.5 40t31 33.5t39 23.5t46.5 9q22 0 40 -6.5t34 -14t30.5 -13.5t30.5 -6q20 0 41.5 12t36.5 33zM617 266q0 -64 -21 -115.5 t-59.5 -87.5t-93.5 -55.5t-122 -19.5q-68 0 -122.5 19.5t-93 55.5t-59.5 87.5t-21 115.5t21 116t59.5 89t93 56.5t122.5 19.5q67 0 122 -19.5t93.5 -56.5t59.5 -89t21 -116zM423 267q0 60 -25.5 95t-76.5 35t-76.5 -35t-25.5 -95t25.5 -94t76.5 -34t76.5 34t25.5 94z" />
<glyph unicode="&#xf6;" horiz-adv-x="642" d="M141 647q0 32 22.5 55t54.5 23t55 -23t23 -55q0 -16 -6.5 -30t-17 -24.5t-24.5 -16.5t-30 -6q-32 0 -54.5 22.5t-22.5 54.5zM348 647q0 32 22.5 55t54.5 23q16 0 30 -6t24.5 -16.5t17 -25t6.5 -30.5q0 -32 -23 -54.5t-55 -22.5t-54.5 22.5t-22.5 54.5zM617 266 q0 -64 -21 -115.5t-59.5 -87.5t-93.5 -55.5t-122 -19.5q-68 0 -122.5 19.5t-93 55.5t-59.5 87.5t-21 115.5t21 116t59.5 89t93 56.5t122.5 19.5q67 0 122 -19.5t93.5 -56.5t59.5 -89t21 -116zM423 267q0 60 -25.5 95t-76.5 35t-76.5 -35t-25.5 -95t25.5 -94t76.5 -34 t76.5 34t25.5 94z" />
<glyph unicode="&#xf7;" d="M211 454q0 19 7.5 36t20 29.5t29.5 20t36 7.5t36 -7.5t29.5 -20t20 -29.5t7.5 -36t-7.5 -36t-20 -29.5t-29.5 -20t-36 -7.5t-36 7.5t-29.5 20t-20 29.5t-7.5 36zM211 81q0 19 7.5 36t20 29.5t29.5 20t36 7.5t36 -7.5t29.5 -20t20 -29.5t7.5 -36t-7.5 -36t-20 -29.5 t-29.5 -20t-36 -7.5t-36 7.5t-29.5 20t-20 29.5t-7.5 36zM36 193v150h536v-150h-536z" />
<glyph unicode="&#xf8;" horiz-adv-x="642" d="M617 266q0 -64 -21 -115.5t-59.5 -87.5t-93.5 -55.5t-122 -19.5q-38 0 -72 6.5t-63 17.5l-20 -29l-62 43l16 23q-46 36 -70.5 91t-24.5 126q0 64 21 116t59.5 89t93 56.5t122.5 19.5q38 0 71 -6.5t62 -17.5l22 30l62 -43l-18 -25q47 -37 72 -92.5t25 -126.5zM423 267 q0 39 -10 66l-132 -187q15 -7 40 -7q51 0 76.5 34t25.5 94zM219 267q0 -38 10 -64l132 187q-9 3 -19 5t-21 2q-51 0 -76.5 -35t-25.5 -95z" />
<glyph unicode="&#xf9;" horiz-adv-x="620" d="M382 0v49q-31 -29 -70.5 -45t-81.5 -16q-47 0 -81 15.5t-55.5 41.5t-32 60.5t-10.5 72.5v357h182v-315q0 -28 13.5 -49.5t55.5 -21.5q32 0 56 19t24 61v306h182v-535h-182zM261 575l-123 139l152 41l90 -180h-119z" />
<glyph unicode="&#xfa;" horiz-adv-x="620" d="M382 0v49q-31 -29 -70.5 -45t-81.5 -16q-47 0 -81 15.5t-55.5 41.5t-32 60.5t-10.5 72.5v357h182v-315q0 -28 13.5 -49.5t55.5 -21.5q32 0 56 19t24 61v306h182v-535h-182zM244 575l90 180l152 -41l-123 -139h-119z" />
<glyph unicode="&#xfb;" horiz-adv-x="620" d="M382 0v49q-31 -29 -70.5 -45t-81.5 -16q-47 0 -81 15.5t-55.5 41.5t-32 60.5t-10.5 72.5v357h182v-315q0 -28 13.5 -49.5t55.5 -21.5q32 0 56 19t24 61v306h182v-535h-182zM177 567l-49 63q38 32 68 60.5t53 54.5h126q23 -26 53 -54.5t68 -60.5l-49 -63l-135 62z" />
<glyph unicode="&#xfc;" horiz-adv-x="620" d="M382 0v49q-31 -29 -70.5 -45t-81.5 -16q-47 0 -81 15.5t-55.5 41.5t-32 60.5t-10.5 72.5v357h182v-315q0 -28 13.5 -49.5t55.5 -21.5q32 0 56 19t24 61v306h182v-535h-182zM127 647q0 32 22.5 55t54.5 23t55 -23t23 -55q0 -16 -6.5 -30t-17 -24.5t-24.5 -16.5t-30 -6 q-32 0 -54.5 22.5t-22.5 54.5zM334 647q0 32 22.5 55t54.5 23q16 0 30 -6t24.5 -16.5t17 -25t6.5 -30.5q0 -32 -23 -54.5t-55 -22.5t-54.5 22.5t-22.5 54.5z" />
<glyph unicode="&#xfd;" horiz-adv-x="592" d="M385 -13q-33 -87 -81.5 -129t-130.5 -42q-88 0 -159 48l67 119q15 -10 29.5 -15.5t31.5 -5.5q21 0 34 10t23 28l12 22l-216 513h208l102 -297l94 297h196zM244 575l90 180l152 -41l-123 -139h-119z" />
<glyph unicode="&#xfe;" horiz-adv-x="665" d="M638 267q0 -60 -17 -111.5t-49 -88.5t-77 -58t-102 -21q-47 0 -85 16t-69 45v-223h-183v888h183v-229q31 30 69 46t85 16q57 0 102 -21.5t77 -59t49 -88.5t17 -111zM445 268q0 25 -6 48t-18.5 39.5t-31.5 26.5t-45 10q-53 0 -79 -36t-26 -88t26 -88t79 -36q26 0 45 10 t31.5 27t18.5 39.5t6 47.5z" />
<glyph unicode="&#xff;" horiz-adv-x="592" d="M385 -13q-33 -87 -81.5 -129t-130.5 -42q-88 0 -159 48l67 119q15 -10 29.5 -15.5t31.5 -5.5q21 0 34 10t23 28l12 22l-216 513h208l102 -297l94 297h196zM123 647q0 32 22.5 55t54.5 23t55 -23t23 -55q0 -16 -6.5 -30t-17 -24.5t-24.5 -16.5t-30 -6q-32 0 -54.5 22.5 t-22.5 54.5zM330 647q0 32 22.5 55t54.5 23q16 0 30 -6t24.5 -16.5t17 -25t6.5 -30.5q0 -32 -23 -54.5t-55 -22.5t-54.5 22.5t-22.5 54.5z" />
<glyph unicode="&#x100;" horiz-adv-x="718" d="M509 0l-38 141h-230l-38 -141h-207l249 714h228l248 -714h-212zM356 558l-74 -268h147zM182 765v93h347v-93h-347z" />
<glyph unicode="&#x101;" horiz-adv-x="595" d="M589 13q-17 -11 -44.5 -16t-49.5 -5q-38 0 -70.5 14.5t-47.5 46.5q-13 -18 -32 -30t-40.5 -20t-45 -11.5t-46.5 -3.5q-41 0 -76 11t-60 32.5t-39 53t-14 73.5q0 50 19 80t48.5 47t65 24t68.5 10q24 3 45.5 5t37 6.5t24.5 12t9 20.5q0 12 -7 19t-17.5 11t-23 5.5 t-24.5 1.5q-39 0 -86.5 -12.5t-85.5 -35.5l-55 137q59 31 119 44.5t123 13.5q54 0 98 -10t75.5 -33t49 -59.5t17.5 -90.5v-215q0 -14 6 -18t16 -4q17 0 25 7zM341 247q-12 -14 -31.5 -17.5t-43.5 -7.5q-11 -2 -22 -5t-20 -9t-14.5 -16t-5.5 -25q0 -26 16.5 -38t43.5 -12 q35 0 56 19.5t21 58.5v52zM118 597v93h347v-93h-347z" />
<glyph unicode="&#x102;" horiz-adv-x="718" d="M509 0l-38 141h-230l-38 -141h-207l249 714h228l248 -714h-212zM356 558l-74 -268h147zM356 859q38 0 60.5 13t35.5 41l82 -24q-6 -31 -19.5 -58t-35.5 -47t-53 -31.5t-70 -11.5t-70 11.5t-53 31.5t-35.5 47t-19.5 58l82 24q13 -28 35.5 -41t60.5 -13z" />
<glyph unicode="&#x103;" horiz-adv-x="595" d="M589 13q-17 -11 -44.5 -16t-49.5 -5q-38 0 -70.5 14.5t-47.5 46.5q-13 -18 -32 -30t-40.5 -20t-45 -11.5t-46.5 -3.5q-41 0 -76 11t-60 32.5t-39 53t-14 73.5q0 50 19 80t48.5 47t65 24t68.5 10q24 3 45.5 5t37 6.5t24.5 12t9 20.5q0 12 -7 19t-17.5 11t-23 5.5 t-24.5 1.5q-39 0 -86.5 -12.5t-85.5 -35.5l-55 137q59 31 119 44.5t123 13.5q54 0 98 -10t75.5 -33t49 -59.5t17.5 -90.5v-215q0 -14 6 -18t16 -4q17 0 25 7zM341 247q-12 -14 -31.5 -17.5t-43.5 -7.5q-11 -2 -22 -5t-20 -9t-14.5 -16t-5.5 -25q0 -26 16.5 -38t43.5 -12 q35 0 56 19.5t21 58.5v52zM289 691q38 0 60.5 13t35.5 41l82 -24q-6 -31 -19.5 -58t-35.5 -47t-53 -31.5t-70 -11.5t-70 11.5t-53 31.5t-35.5 47t-19.5 58l82 24q13 -28 35.5 -41t60.5 -13z" />
<glyph unicode="&#x104;" horiz-adv-x="718" d="M721 0q-73 0 -107.5 -12.5t-34.5 -37.5q0 -17 16 -26t42 -9q24 0 46.5 7t37.5 20v-100q-12 -10 -39 -18t-62 -8q-67 0 -105.5 30t-38.5 75q0 20 8 41t25 38l-38 141h-230l-38 -141h-207l249 714h228zM356 558l-74 -268h147z" />
<glyph unicode="&#x105;" horiz-adv-x="595" d="M42 489q59 31 119 44.5t124 13.5q53 0 97 -9.5t75.5 -32t49 -58.5t17.5 -90v-218q0 -14 6 -18t16 -4q17 0 25 7l18 -111q-15 -10 -37 -14.5t-42 -5.5q-34 -16 -34 -39q0 -17 15.5 -25.5t39.5 -8.5q20 0 37.5 5t25.5 12v-100q-11 -7 -31 -11.5t-46 -4.5q-66 0 -104.5 28.5 t-38.5 70.5q0 33 22 51.5t46 28.5q-22 6 -39 19.5t-26 33.5q-13 -18 -31.5 -30t-40.5 -20t-45.5 -11.5t-45.5 -3.5q-41 0 -76 11t-60.5 32.5t-39.5 53t-14 73.5q0 50 19 80t48.5 47t65 24t68.5 10q23 3 44 5t37 6.5t25.5 12t9.5 21.5q0 11 -6.5 18t-17 11t-23 5.5t-24.5 1.5 q-41 0 -88 -12.5t-85 -35.5zM341 247q-12 -14 -31.5 -17.5t-43.5 -7.5q-11 -2 -22 -5t-20 -9t-14.5 -16t-5.5 -25q0 -26 16.5 -38t43.5 -12q35 0 56 19.5t21 58.5v52z" />
<glyph unicode="&#x106;" horiz-adv-x="720" d="M551 456q-31 58 -71.5 83t-91.5 25q-39 0 -70 -16t-52 -43.5t-32.5 -65t-11.5 -80.5q0 -44 11.5 -82t32.5 -66.5t52 -44.5t70 -16q31 0 57 9.5t46 25.5t35 37.5t25 44.5l154 -77q-48 -96 -127.5 -149.5t-194.5 -53.5q-78 0 -143 26.5t-112.5 75t-73.5 117.5t-26 153 t26 152t73.5 116t112.5 74t143 26q94 0 177.5 -43t140.5 -144zM298 743l90 180l152 -41l-123 -139h-119z" />
<glyph unicode="&#x107;" horiz-adv-x="576" d="M562 123q-34 -59 -95 -97t-155 -38q-66 0 -119.5 21t-90.5 58t-57 88t-20 111q0 61 20 112.5t57 89t90 58.5t118 21q47 0 86 -11t69.5 -30.5t54 -46.5t40.5 -58l-134 -81q-17 35 -44 54.5t-62 19.5q-49 0 -75.5 -35t-26.5 -91q0 -59 28 -93t78 -34q38 0 66 19t48 51z M219 575l90 180l152 -41l-123 -139h-119z" />
<glyph unicode="&#x108;" horiz-adv-x="720" d="M551 456q-31 58 -71.5 83t-91.5 25q-39 0 -70 -16t-52 -43.5t-32.5 -65t-11.5 -80.5q0 -44 11.5 -82t32.5 -66.5t52 -44.5t70 -16q31 0 57 9.5t46 25.5t35 37.5t25 44.5l154 -77q-48 -96 -127.5 -149.5t-194.5 -53.5q-78 0 -143 26.5t-112.5 75t-73.5 117.5t-26 153 t26 152t73.5 116t112.5 74t143 26q94 0 177.5 -43t140.5 -144zM250 744l-49 63q38 32 68 60.5t53 54.5h126q23 -26 53 -54.5t68 -60.5l-49 -63l-135 62z" />
<glyph unicode="&#x109;" horiz-adv-x="576" d="M562 123q-34 -59 -95 -97t-155 -38q-66 0 -119.5 21t-90.5 58t-57 88t-20 111q0 61 20 112.5t57 89t90 58.5t118 21q47 0 86 -11t69.5 -30.5t54 -46.5t40.5 -58l-134 -81q-17 35 -44 54.5t-62 19.5q-49 0 -75.5 -35t-26.5 -91q0 -59 28 -93t78 -34q38 0 66 19t48 51z M176 567l-49 63q38 32 68 60.5t53 54.5h126q23 -26 53 -54.5t68 -60.5l-49 -63l-135 62z" />
<glyph unicode="&#x10a;" horiz-adv-x="720" d="M551 456q-31 58 -71.5 83t-91.5 25q-39 0 -70 -16t-52 -43.5t-32.5 -65t-11.5 -80.5q0 -44 11.5 -82t32.5 -66.5t52 -44.5t70 -16q31 0 57 9.5t46 25.5t35 37.5t25 44.5l154 -77q-48 -96 -127.5 -149.5t-194.5 -53.5q-78 0 -143 26.5t-112.5 75t-73.5 117.5t-26 153 t26 152t73.5 116t112.5 74t143 26q94 0 177.5 -43t140.5 -144zM308 820q0 34 24 58t58 24t58 -24t24 -58t-24 -58t-58 -24t-58 24t-24 58z" />
<glyph unicode="&#x10b;" horiz-adv-x="576" d="M562 123q-34 -59 -95 -97t-155 -38q-66 0 -119.5 21t-90.5 58t-57 88t-20 111q0 61 20 112.5t57 89t90 58.5t118 21q47 0 86 -11t69.5 -30.5t54 -46.5t40.5 -58l-134 -81q-17 35 -44 54.5t-62 19.5q-49 0 -75.5 -35t-26.5 -91q0 -59 28 -93t78 -34q38 0 66 19t48 51z M226 652q0 34 24 58t58 24t58 -24t24 -58t-24 -58t-58 -24t-58 24t-24 58z" />
<glyph unicode="&#x10c;" horiz-adv-x="720" d="M551 456q-31 58 -71.5 83t-91.5 25q-39 0 -70 -16t-52 -43.5t-32.5 -65t-11.5 -80.5q0 -44 11.5 -82t32.5 -66.5t52 -44.5t70 -16q31 0 57 9.5t46 25.5t35 37.5t25 44.5l154 -77q-48 -96 -127.5 -149.5t-194.5 -53.5q-78 0 -143 26.5t-112.5 75t-73.5 117.5t-26 153 t26 152t73.5 116t112.5 74t143 26q94 0 177.5 -43t140.5 -144zM384 859l135 62l49 -63q-38 -32 -68 -60.5t-53 -54.5h-126q-23 26 -53 54.5t-68 60.5l49 63z" />
<glyph unicode="&#x10d;" horiz-adv-x="576" d="M562 123q-34 -59 -95 -97t-155 -38q-66 0 -119.5 21t-90.5 58t-57 88t-20 111q0 61 20 112.5t57 89t90 58.5t118 21q47 0 86 -11t69.5 -30.5t54 -46.5t40.5 -58l-134 -81q-17 35 -44 54.5t-62 19.5q-49 0 -75.5 -35t-26.5 -91q0 -59 28 -93t78 -34q38 0 66 19t48 51z M309 691l135 62l49 -63q-38 -32 -68 -60.5t-53 -54.5h-126q-23 26 -53 54.5t-68 60.5l49 63z" />
<glyph unicode="&#x10e;" horiz-adv-x="754" d="M361 169q84 0 126.5 50t42.5 138t-42.5 138t-126.5 50h-108v-376h108zM64 0v714h297q89 0 157 -27.5t114 -75.5t69.5 -113t23.5 -141t-23.5 -141t-69.5 -113t-114 -75.5t-157 -27.5h-297zM364 859l135 62l49 -63q-38 -32 -68 -60.5t-53 -54.5h-126q-23 26 -53 54.5 t-68 60.5l49 63z" />
<glyph unicode="&#x10f;" horiz-adv-x="811" d="M426 0v50q-31 -29 -69 -45.5t-85 -16.5q-57 0 -102 21t-77 58.5t-49 88.5t-17 111q0 61 17 112t49 88.5t77 58.5t102 21q47 0 85 -16t69 -45v228h183v-714h-183zM426 266q0 26 -6.5 49t-19.5 40t-33 27t-46 10t-45 -10t-31.5 -27.5t-18.5 -40.5t-6 -48q0 -51 24.5 -86.5 t76.5 -35.5q54 0 79.5 35t25.5 87zM858 714v-91q0 -38 -7.5 -71t-23.5 -62.5t-42 -57t-63 -55.5l-53 68q28 23 47 49t19 63q0 18 -5.5 31.5t-12.5 27t-12.5 30t-5.5 42.5v26h159z" />
<glyph unicode="&#x110;" horiz-adv-x="788" d="M97 0v285h-67v149h67v280h297q89 0 157.5 -27.5t114.5 -75.5t69.5 -113t23.5 -141t-23.5 -141t-69.5 -113t-114.5 -75.5t-157.5 -27.5h-297zM394 169q84 0 126.5 50t42.5 138t-42.5 138t-126.5 50h-107v-111h148v-149h-148v-116h107z" />
<glyph unicode="&#x111;" horiz-adv-x="665" d="M426 0v50q-31 -29 -69 -45.5t-85 -16.5q-57 0 -102 21.5t-77 59t-49 88.5t-17 111q0 61 17 112t49 88t77 58t102 21q47 0 85 -16t69 -45v88h-111v93h111v47h183v-47h53v-93h-53v-574h-183zM426 267q0 26 -6.5 48.5t-19.5 39.5t-33 27t-46 10t-45 -10t-31.5 -27t-18.5 -40 t-6 -48q0 -51 24.5 -87t76.5 -36q53 0 79 35.5t26 87.5z" />
<glyph unicode="&#x112;" horiz-adv-x="648" d="M64 0v714h537v-169h-348v-109h310v-149h-310v-118h358v-169h-547zM170 765v93h347v-93h-347z" />
<glyph unicode="&#x113;" horiz-adv-x="625" d="M598 271q0 -13 -0.5 -25.5t-1.5 -22.5h-374q3 -44 34.5 -64.5t81.5 -20.5q46 0 81.5 14.5t59.5 40.5l119 -104q-46 -45 -111.5 -73t-159.5 -28q-75 0 -132 20.5t-94.5 57t-56.5 86.5t-19 110q0 61 19.5 113.5t57 90.5t92 59.5t123.5 21.5q67 0 119 -19.5t88 -55.5t55 -87 t19 -114zM419 333q-3 43 -29.5 63t-68.5 20t-68.5 -19.5t-30.5 -63.5h197zM145 597v93h347v-93h-347z" />
<glyph unicode="&#x114;" horiz-adv-x="648" d="M64 0v714h537v-169h-348v-109h310v-149h-310v-118h358v-169h-547zM344 859q38 0 60.5 13t35.5 41l82 -24q-6 -31 -19.5 -58t-35.5 -47t-53 -31.5t-70 -11.5t-70 11.5t-53 31.5t-35.5 47t-19.5 58l82 24q13 -28 35.5 -41t60.5 -13z" />
<glyph unicode="&#x115;" horiz-adv-x="625" d="M598 271q0 -13 -0.5 -25.5t-1.5 -22.5h-374q3 -44 34.5 -64.5t81.5 -20.5q46 0 81.5 14.5t59.5 40.5l119 -104q-46 -45 -111.5 -73t-159.5 -28q-75 0 -132 20.5t-94.5 57t-56.5 86.5t-19 110q0 61 19.5 113.5t57 90.5t92 59.5t123.5 21.5q67 0 119 -19.5t88 -55.5t55 -87 t19 -114zM419 333q-3 43 -29.5 63t-68.5 20t-68.5 -19.5t-30.5 -63.5h197zM316 691q38 0 60.5 13t35.5 41l82 -24q-6 -31 -19.5 -58t-35.5 -47t-53 -31.5t-70 -11.5t-70 11.5t-53 31.5t-35.5 47t-19.5 58l82 24q13 -28 35.5 -41t60.5 -13z" />
<glyph unicode="&#x116;" horiz-adv-x="648" d="M64 0v714h537v-169h-348v-109h310v-149h-310v-118h358v-169h-547zM255 820q0 34 24 58t58 24t58 -24t24 -58t-24 -58t-58 -24t-58 24t-24 58z" />
<glyph unicode="&#x117;" horiz-adv-x="625" d="M598 271q0 -13 -0.5 -25.5t-1.5 -22.5h-374q3 -44 34.5 -64.5t81.5 -20.5q46 0 81.5 14.5t59.5 40.5l119 -104q-46 -45 -111.5 -73t-159.5 -28q-75 0 -132 20.5t-94.5 57t-56.5 86.5t-19 110q0 61 19.5 113.5t57 90.5t92 59.5t123.5 21.5q67 0 119 -19.5t88 -55.5t55 -87 t19 -114zM419 333q-3 43 -29.5 63t-68.5 20t-68.5 -19.5t-30.5 -63.5h197zM232 652q0 34 24 58t58 24t58 -24t24 -58t-24 -58t-58 -24t-58 24t-24 58z" />
<glyph unicode="&#x118;" horiz-adv-x="658" d="M523 0q-24 -22 -24 -46q0 -20 14.5 -29.5t37.5 -9.5q41 0 70 27v-100q-11 -10 -35.5 -18t-56.5 -8q-61 0 -97 30t-36 75q0 21 8 41.5t25 37.5h-365v714h557v-169h-368v-101h310v-149h-310v-126h368v-169h-98z" />
<glyph unicode="&#x119;" horiz-adv-x="626" d="M598 271q0 -13 -0.5 -25.5t-1.5 -22.5h-374q3 -44 34.5 -64.5t81.5 -20.5q46 0 81.5 16t59.5 42l119 -104q-17 -15 -31 -26.5t-28.5 -20t-29.5 -16t-33 -15.5q-17 -8 -34 -21t-17 -35q0 -20 16 -29t40 -9q30 0 51.5 11.5t35.5 25.5v-107q-12 -10 -38.5 -19.5t-65.5 -9.5 q-63 0 -102 28.5t-39 71.5q0 23 10 40t27 29q-5 -1 -14.5 -1.5t-23.5 -0.5q-73 0 -128.5 21t-93 58t-56.5 88t-19 111q0 61 19.5 112.5t57 89t92 58.5t123.5 21q67 0 119 -19.5t88 -55.5t55 -87t19 -114zM419 333q-3 43 -29.5 63t-68.5 20t-68.5 -19.5t-30.5 -63.5h197z" />
<glyph unicode="&#x11a;" horiz-adv-x="648" d="M64 0v714h537v-169h-348v-109h310v-149h-310v-118h358v-169h-547zM339 859l135 62l49 -63q-38 -32 -68 -60.5t-53 -54.5h-126q-23 26 -53 54.5t-68 60.5l49 63z" />
<glyph unicode="&#x11b;" horiz-adv-x="625" d="M598 271q0 -13 -0.5 -25.5t-1.5 -22.5h-374q3 -44 34.5 -64.5t81.5 -20.5q46 0 81.5 14.5t59.5 40.5l119 -104q-46 -45 -111.5 -73t-159.5 -28q-75 0 -132 20.5t-94.5 57t-56.5 86.5t-19 110q0 61 19.5 113.5t57 90.5t92 59.5t123.5 21.5q67 0 119 -19.5t88 -55.5t55 -87 t19 -114zM419 333q-3 43 -29.5 63t-68.5 20t-68.5 -19.5t-30.5 -63.5h197zM318 691l135 62l49 -63q-38 -32 -68 -60.5t-53 -54.5h-126q-23 26 -53 54.5t-68 60.5l49 63z" />
<glyph unicode="&#x11c;" horiz-adv-x="756" d="M729 398q4 -14 5.5 -34t1.5 -34q0 -72 -22 -134.5t-66 -109t-109 -73t-151 -26.5q-80 0 -146.5 26.5t-114 75t-73.5 117.5t-26 153q0 85 26 153t73.5 116t114.5 73.5t148 25.5q106 0 186 -47.5t127 -133.5l-160 -80q-26 54 -65 76t-88 22q-42 0 -73 -15.5t-52 -43 t-31.5 -65t-10.5 -81.5q0 -100 45.5 -155.5t123.5 -55.5q57 0 96.5 25t48.5 76h-153v149h345zM249 735l-49 63q38 32 68 60.5t53 54.5h126q23 -26 53 -54.5t68 -60.5l-49 -63l-135 62z" />
<glyph unicode="&#x11d;" horiz-adv-x="665" d="M610 116q0 -66 -12.5 -118t-50.5 -94q-45 -49 -114.5 -68.5t-147.5 -19.5q-71 0 -129.5 13t-109.5 41l60 138q72 -42 174 -42q30 0 57 5.5t47 17.5t31.5 31.5t11.5 48.5v23q-31 -29 -69 -45t-85 -16q-57 0 -102 20t-77 55t-49 82t-17 101q0 53 17 100t49 82t77 55.5 t102 20.5q47 0 85 -16t69 -46v50h183v-419zM427 290q0 48 -27 79t-78 31q-50 0 -75.5 -30.5t-25.5 -79.5q0 -48 25.5 -80t75.5 -32t77.5 32t27.5 80zM184 567l-49 63q38 32 68 60.5t53 54.5h126q23 -26 53 -54.5t68 -60.5l-49 -63l-135 62z" />
<glyph unicode="&#x11e;" horiz-adv-x="756" d="M729 398q4 -14 5.5 -34t1.5 -34q0 -72 -22 -134.5t-66 -109t-109 -73t-151 -26.5q-80 0 -146.5 26.5t-114 75t-73.5 117.5t-26 153q0 85 26 153t73.5 116t114.5 73.5t148 25.5q106 0 186 -47.5t127 -133.5l-160 -80q-26 54 -65 76t-88 22q-42 0 -73 -15.5t-52 -43 t-31.5 -65t-10.5 -81.5q0 -100 45.5 -155.5t123.5 -55.5q57 0 96.5 25t48.5 76h-153v149h345zM384 863q38 0 60.5 13t35.5 41l82 -24q-6 -31 -19.5 -58t-35.5 -47t-53 -31.5t-70 -11.5t-70 11.5t-53 31.5t-35.5 47t-19.5 58l82 24q13 -28 35.5 -41t60.5 -13z" />
<glyph unicode="&#x11f;" horiz-adv-x="665" d="M610 116q0 -66 -12.5 -118t-50.5 -94q-45 -49 -114.5 -68.5t-147.5 -19.5q-71 0 -129.5 13t-109.5 41l60 138q72 -42 174 -42q30 0 57 5.5t47 17.5t31.5 31.5t11.5 48.5v23q-31 -29 -69 -45t-85 -16q-57 0 -102 20t-77 55t-49 82t-17 101q0 53 17 100t49 82t77 55.5 t102 20.5q47 0 85 -16t69 -46v50h183v-419zM427 290q0 48 -27 79t-78 31q-50 0 -75.5 -30.5t-25.5 -79.5q0 -48 25.5 -80t75.5 -32t77.5 32t27.5 80zM310 691q38 0 60.5 13t35.5 41l82 -24q-6 -31 -19.5 -58t-35.5 -47t-53 -31.5t-70 -11.5t-70 11.5t-53 31.5t-35.5 47 t-19.5 58l82 24q13 -28 35.5 -41t60.5 -13z" />
<glyph unicode="&#x120;" horiz-adv-x="756" d="M729 398q4 -14 5.5 -34t1.5 -34q0 -72 -22 -134.5t-66 -109t-109 -73t-151 -26.5q-80 0 -146.5 26.5t-114 75t-73.5 117.5t-26 153q0 85 26 153t73.5 116t114.5 73.5t148 25.5q106 0 186 -47.5t127 -133.5l-160 -80q-26 54 -65 76t-88 22q-42 0 -73 -15.5t-52 -43 t-31.5 -65t-10.5 -81.5q0 -100 45.5 -155.5t123.5 -55.5q57 0 96.5 25t48.5 76h-153v149h345zM303 820q0 34 24 58t58 24t58 -24t24 -58t-24 -58t-58 -24t-58 24t-24 58z" />
<glyph unicode="&#x121;" horiz-adv-x="665" d="M610 116q0 -66 -12.5 -118t-50.5 -94q-45 -49 -114.5 -68.5t-147.5 -19.5q-71 0 -129.5 13t-109.5 41l60 138q72 -42 174 -42q30 0 57 5.5t47 17.5t31.5 31.5t11.5 48.5v23q-31 -29 -69 -45t-85 -16q-57 0 -102 20t-77 55t-49 82t-17 101q0 53 17 100t49 82t77 55.5 t102 20.5q47 0 85 -16t69 -46v50h183v-419zM427 290q0 48 -27 79t-78 31q-50 0 -75.5 -30.5t-25.5 -79.5q0 -48 25.5 -80t75.5 -32t77.5 32t27.5 80zM227 652q0 34 24 58t58 24t58 -24t24 -58t-24 -58t-58 -24t-58 24t-24 58z" />
<glyph unicode="&#x122;" horiz-adv-x="756" d="M729 398q4 -14 5.5 -34t1.5 -34q0 -72 -22 -134.5t-66 -109t-109 -73t-151 -26.5q-80 0 -146.5 26.5t-114 75t-73.5 117.5t-26 153q0 85 26 153t73.5 116t114.5 73.5t148 25.5q106 0 186 -47.5t127 -133.5l-160 -80q-26 54 -65 76t-88 22q-42 0 -73 -15.5t-52 -43 t-31.5 -65t-10.5 -81.5q0 -100 45.5 -155.5t123.5 -55.5q57 0 96.5 25t48.5 76h-153v149h345zM259 -160l69 124h165l-162 -164z" />
<glyph unicode="&#x123;" horiz-adv-x="665" d="M443 709q-20 -30 -43 -66t-36 -71l-145 14q9 24 27 47t40 43t46 36t44 26zM610 116q0 -66 -12.5 -118t-50.5 -94q-45 -49 -114.5 -68.5t-147.5 -19.5q-71 0 -129.5 13t-109.5 41l60 138q72 -42 174 -42q30 0 57 5.5t47 17.5t31.5 31.5t11.5 48.5v23q-31 -29 -69 -45 t-85 -16q-57 0 -102 20t-77 55t-49 82t-17 101q0 53 17 100t49 82t77 55.5t102 20.5q47 0 85 -16t69 -46v50h183v-419zM427 290q0 48 -27 79t-78 31q-50 0 -75.5 -30.5t-25.5 -79.5q0 -48 25.5 -80t75.5 -32t77.5 32t27.5 80z" />
<glyph unicode="&#x124;" horiz-adv-x="767" d="M514 0v287h-261v-287h-189v714h189v-258h261v258h189v-714h-189zM249 735l-49 63q38 32 68 60.5t53 54.5h126q23 -26 53 -54.5t68 -60.5l-49 -63l-135 62z" />
<glyph unicode="&#x125;" horiz-adv-x="622" d="M387 0v316q0 28 -13.5 49.5t-55.5 21.5q-32 0 -55.5 -19.5t-23.5 -61.5v-306h-183v714h183v-228q31 29 70.5 45t81.5 16q47 0 81 -15.5t55.5 -41.5t32 -60.5t10.5 -71.5v-358h-183zM14 717l-49 63q38 32 68 60.5t53 54.5h126q23 -26 53 -54.5t68 -60.5l-49 -63l-135 62z " />
<glyph unicode="&#x126;" horiz-adv-x="768" d="M513 0v289h-259v-289h-190v551h-32v95h32v68h190v-68h259v68h191v-68h32v-95h-32v-551h-191zM513 458v93h-259v-93h259z" />
<glyph unicode="&#x127;" horiz-adv-x="622" d="M239 574v-88q31 29 70.5 45t81.5 16q47 0 81 -15.5t55.5 -41.5t32 -60.5t10.5 -71.5v-358h-183v316q0 28 -13.5 49.5t-55.5 21.5q-32 0 -55.5 -19.5t-23.5 -61.5v-306h-183v574h-53v93h53v47h183v-47h111v-93h-111z" />
<glyph unicode="&#x128;" horiz-adv-x="317" d="M64 0v714h189v-714h-189zM368 854q-9 -21 -22.5 -40t-31 -33.5t-39 -23.5t-46.5 -9q-22 0 -40 6t-34 13.5t-30.5 14t-30.5 6.5q-20 0 -41.5 -12t-36.5 -33l-62 44q9 21 22.5 40t31 33.5t39 23.5t46.5 9q22 0 40 -6.5t34 -14t30.5 -13.5t30.5 -6q20 0 41.5 12t36.5 33z " />
<glyph unicode="&#x129;" horiz-adv-x="295" d="M56 0v535h183v-535h-183zM355 686q-9 -21 -22.5 -40t-31 -33.5t-39 -23.5t-46.5 -9q-22 0 -40 6t-34 13.5t-30.5 14t-30.5 6.5q-20 0 -41.5 -12t-36.5 -33l-62 44q9 21 22.5 40t31 33.5t39 23.5t46.5 9q22 0 40 -6.5t34 -14t30.5 -13.5t30.5 -6q20 0 41.5 12t36.5 33z " />
<glyph unicode="&#x12a;" horiz-adv-x="317" d="M64 0v714h189v-714h-189zM-15 765v93h347v-93h-347z" />
<glyph unicode="&#x12b;" horiz-adv-x="295" d="M56 0v535h183v-535h-183zM0 597v93h294.941v-93h-294.941z" />
<glyph unicode="&#x12c;" horiz-adv-x="317" d="M64 0v714h189v-714h-189zM159 859q38 0 60.5 13t35.5 41l82 -24q-6 -31 -19.5 -58t-35.5 -47t-53 -31.5t-70 -11.5t-70 11.5t-53 31.5t-35.5 47t-19.5 58l82 24q13 -28 35.5 -41t60.5 -13z" />
<glyph unicode="&#x12d;" horiz-adv-x="295" d="M56 0v535h183v-535h-183zM148 691q38 0 60.5 13t35.5 41l82 -24q-6 -31 -19.5 -58t-35.5 -47t-53 -31.5t-70 -11.5t-70 11.5t-53 31.5t-35.5 47t-19.5 58l82 24q13 -28 35.5 -41t60.5 -13z" />
<glyph unicode="&#x12e;" horiz-adv-x="317" d="M253 0q-52 0 -81.5 -10t-29.5 -37q0 -22 16.5 -30t33.5 -8q37 0 61 27v-100q-9 -10 -31 -18t-51 -8q-57 0 -92.5 32.5t-35.5 82.5q0 18 5 36t16 33v714h189v-714z" />
<glyph unicode="&#x12f;" horiz-adv-x="295" d="M176 0q-24 -8 -39.5 -19t-15.5 -27q0 -17 15.5 -25.5t40.5 -8.5q19 0 36.5 5t25.5 12v-100q-11 -7 -31 -11.5t-44 -4.5q-67 0 -106 28.5t-39 73.5q0 15 5 27t11 21.5t12 16.5t9 12v535h183v-535h-63zM44 653q0 35 29.5 59.5t73.5 24.5t74 -24.5t30 -59.5t-30 -59t-74 -24 t-73.5 24t-29.5 59z" />
<glyph unicode="&#x130;" horiz-adv-x="317" d="M64 0v714h189v-714h-189zM76 820q0 34 24 58t58 24t58 -24t24 -58t-24 -58t-58 -24t-58 24t-24 58z" />
<glyph unicode="&#x131;" horiz-adv-x="295" d="M56 0v535h183v-535h-183z" />
<glyph unicode="&#x134;" horiz-adv-x="590" d="M531 255q0 -61 -17.5 -110.5t-51.5 -84.5t-84 -54t-114 -19q-103 0 -170.5 47.5t-94.5 134.5l159 56q8 -36 32.5 -55.5t62.5 -19.5q40 0 64.5 22.5t24.5 71.5v470h189v-459zM298 735l-49 63q38 32 68 60.5t53 54.5h126q23 -26 53 -54.5t68 -60.5l-49 -63l-135 62z" />
<glyph unicode="&#x135;" horiz-adv-x="295" d="M20 567l-49 63q38 32 68 60.5t53 54.5h126q23 -26 53 -54.5t68 -60.5l-49 -63l-135 62zM250 22q0 -104 -54 -154t-146 -50q-33 0 -68.5 8.5t-61.5 25.5l51 130q11 -7 23.5 -11t28.5 -4q22 0 33 12t11 40v516h183v-513z" />
<glyph unicode="&#x136;" horiz-adv-x="738" d="M518 0l-172 289l-93 -113v-176h-189v714h189v-291l237 291h228l-238 -283l265 -431h-227zM252 -160l69 124h165l-162 -164z" />
<glyph unicode="&#x137;" horiz-adv-x="643" d="M432 0l-120 211l-73 -81v-130h-183v714h183v-376l175 197h212l-190 -202l211 -333h-215zM212 -160l69 124h165l-162 -164z" />
<glyph unicode="&#x138;" horiz-adv-x="643" d="M432 0l-120 211l-73 -81v-130h-183v535h183v-197l175 197h212l-190 -202l211 -333h-215z" />
<glyph unicode="&#x139;" d="M64 0v714h189v-545h343v-169h-532zM75 743l90 180l152 -41l-123 -139h-119z" />
<glyph unicode="&#x13a;" horiz-adv-x="295" d="M56 0v714h183v-714h-183zM64 735l90 180l152 -41l-123 -139h-119z" />
<glyph unicode="&#x13b;" d="M64 0v714h189v-545h343v-169h-532zM219 -160l69 124h165l-162 -164z" />
<glyph unicode="&#x13c;" horiz-adv-x="295" d="M56 0v714h183v-714h-183zM2 -160l69 124h165l-162 -164z" />
<glyph unicode="&#x13d;" d="M64 0v714h189v-545h343v-169h-532zM495 714v-91q0 -38 -7.5 -71t-23.5 -62.5t-42 -57t-63 -55.5l-53 68q28 23 47 49t19 63q0 18 -5.5 31.5t-12.5 27t-12.5 30t-5.5 42.5v26h159z" />
<glyph unicode="&#x13e;" horiz-adv-x="446" d="M56 0v714h183v-714h-183zM493 714v-91q0 -38 -7.5 -71t-23.5 -62.5t-42 -57t-63 -55.5l-53 68q28 23 47 49t19 63q0 18 -5.5 31.5t-12.5 27t-12.5 30t-5.5 42.5v26h159z" />
<glyph unicode="&#x13f;" d="M64 0v714h189v-545h343v-169h-532zM559 357q0 -23 -9 -43t-24 -35t-35 -23.5t-42 -8.5q-23 0 -43 8.5t-35 23.5t-23.5 35t-8.5 43t8.5 43t23.5 35t35 23.5t43 8.5q22 0 42 -8.5t35 -23.5t24 -35t9 -43z" />
<glyph unicode="&#x140;" horiz-adv-x="563" d="M56 0v714h183v-714h-183zM538 268q0 -23 -9 -43t-24 -35t-35 -23.5t-42 -8.5q-23 0 -43 8.5t-35 23.5t-23.5 35t-8.5 43t8.5 43t23.5 35t35 23.5t43 8.5q22 0 42 -8.5t35 -23.5t24 -35t9 -43z" />
<glyph unicode="&#x141;" horiz-adv-x="616" d="M73 0v295l-53 -20v119l53 19v301h189v-232l203 76v-119l-203 -75v-195h342v-169h-531z" />
<glyph unicode="&#x142;" horiz-adv-x="370" d="M278 0h-183v301l-91 -31v143l91 30v271h183v-210l91 31v-143l-91 -30v-362z" />
<glyph unicode="&#x143;" horiz-adv-x="768" d="M484 0l-238 449v-449h-182v714h227l232 -439v439h181v-714h-220zM315 743l90 180l152 -41l-123 -139h-119z" />
<glyph unicode="&#x144;" horiz-adv-x="621" d="M387 0v316q0 28 -13.5 49.5t-55.5 21.5q-32 0 -55.5 -19.5t-23.5 -61.5v-306h-183v535h183v-49q31 29 70.5 45t81.5 16q47 0 81 -15.5t55.5 -41.5t32 -60.5t10.5 -71.5v-358h-183zM247 575l90 180l152 -41l-123 -139h-119z" />
<glyph unicode="&#x145;" horiz-adv-x="768" d="M484 0l-238 449v-449h-182v714h227l232 -439v439h181v-714h-220zM257 -160l69 124h165l-162 -164z" />
<glyph unicode="&#x146;" horiz-adv-x="622" d="M387 0v316q0 28 -13.5 49.5t-55.5 21.5q-32 0 -55.5 -19.5t-23.5 -61.5v-306h-183v535h183v-49q31 29 70.5 45t81.5 16q47 0 81 -15.5t55.5 -41.5t32 -60.5t10.5 -71.5v-358h-183zM186 -160l69 124h165l-162 -164z" />
<glyph unicode="&#x147;" horiz-adv-x="768" d="M484 0l-238 449v-449h-182v714h227l232 -439v439h181v-714h-220zM385 859l135 62l49 -63q-38 -32 -68 -60.5t-53 -54.5h-126q-23 26 -53 54.5t-68 60.5l49 63z" />
<glyph unicode="&#x148;" horiz-adv-x="621" d="M387 0v316q0 28 -13.5 49.5t-55.5 21.5q-32 0 -55.5 -19.5t-23.5 -61.5v-306h-183v535h183v-49q31 29 70.5 45t81.5 16q47 0 81 -15.5t55.5 -41.5t32 -60.5t10.5 -71.5v-358h-183zM311 691l135 62l49 -63q-38 -32 -68 -60.5t-53 -54.5h-126q-23 26 -53 54.5t-68 60.5 l49 63z" />
<glyph unicode="&#x14a;" horiz-adv-x="768" d="M441 -19q20 0 36 5t26 16l-257 449v-451h-182v714h230l229 -403v403h181v-634q0 -54 -13.5 -100t-42.5 -80.5t-74.5 -54t-109.5 -19.5q-42 0 -84 9.5t-78 34.5l58 136q17 -14 40 -19.5t41 -5.5z" />
<glyph unicode="&#x14b;" horiz-adv-x="622" d="M570 22q0 -44 -11 -81t-34 -64.5t-59 -43t-86 -15.5q-35 0 -71.5 7.5t-68.5 26.5l51 130q11 -7 23.5 -11t28.5 -4q44 0 44 41v308q0 28 -13.5 49.5t-55.5 21.5q-32 0 -55.5 -19.5t-23.5 -61.5v-306h-183v535h183v-49q31 29 70.5 45t81.5 16q47 0 81 -15.5t55.5 -41.5 t32 -60.5t10.5 -71.5v-336z" />
<glyph unicode="&#x14c;" horiz-adv-x="780" d="M753 357q0 -77 -25 -144.5t-71.5 -117.5t-114.5 -79t-153 -29q-86 0 -153 29t-113.5 79t-71 117.5t-24.5 144.5t24.5 144.5t71 117.5t113.5 79t153 29q85 0 153 -29t114.5 -79t71.5 -117.5t25 -144.5zM557 357q0 40 -10.5 75.5t-31.5 62.5t-52.5 43t-73.5 16 q-41 0 -72 -16t-52 -43t-31.5 -62.5t-10.5 -75.5q0 -41 10.5 -76.5t31.5 -62.5t52 -42.5t72 -15.5q42 0 73.5 15.5t52.5 42.5t31.5 62.5t10.5 76.5zM217 765v93h347v-93h-347z" />
<glyph unicode="&#x14d;" horiz-adv-x="642" d="M617 266q0 -64 -21 -115.5t-59.5 -87.5t-93.5 -55.5t-122 -19.5q-68 0 -122.5 19.5t-93 55.5t-59.5 87.5t-21 115.5t21 116t59.5 89t93 56.5t122.5 19.5q67 0 122 -19.5t93.5 -56.5t59.5 -89t21 -116zM423 267q0 60 -25.5 95t-76.5 35t-76.5 -35t-25.5 -95t25.5 -94 t76.5 -34t76.5 34t25.5 94zM147 597v93h347v-93h-347z" />
<glyph unicode="&#x14e;" horiz-adv-x="780" d="M753 357q0 -77 -25 -144.5t-71.5 -117.5t-114.5 -79t-153 -29q-86 0 -153 29t-113.5 79t-71 117.5t-24.5 144.5t24.5 144.5t71 117.5t113.5 79t153 29q85 0 153 -29t114.5 -79t71.5 -117.5t25 -144.5zM557 357q0 40 -10.5 75.5t-31.5 62.5t-52.5 43t-73.5 16 q-41 0 -72 -16t-52 -43t-31.5 -62.5t-10.5 -75.5q0 -41 10.5 -76.5t31.5 -62.5t52 -42.5t72 -15.5q42 0 73.5 15.5t52.5 42.5t31.5 62.5t10.5 76.5zM389 859q38 0 60.5 13t35.5 41l82 -24q-6 -31 -19.5 -58t-35.5 -47t-53 -31.5t-70 -11.5t-70 11.5t-53 31.5t-35.5 47 t-19.5 58l82 24q13 -28 35.5 -41t60.5 -13z" />
<glyph unicode="&#x14f;" horiz-adv-x="642" d="M617 266q0 -64 -21 -115.5t-59.5 -87.5t-93.5 -55.5t-122 -19.5q-68 0 -122.5 19.5t-93 55.5t-59.5 87.5t-21 115.5t21 116t59.5 89t93 56.5t122.5 19.5q67 0 122 -19.5t93.5 -56.5t59.5 -89t21 -116zM423 267q0 60 -25.5 95t-76.5 35t-76.5 -35t-25.5 -95t25.5 -94 t76.5 -34t76.5 34t25.5 94zM321 691q38 0 60.5 13t35.5 41l82 -24q-6 -31 -19.5 -58t-35.5 -47t-53 -31.5t-70 -11.5t-70 11.5t-53 31.5t-35.5 47t-19.5 58l82 24q13 -28 35.5 -41t60.5 -13z" />
<glyph unicode="&#x150;" horiz-adv-x="780" d="M753 357q0 -77 -25 -144.5t-71.5 -117.5t-114.5 -79t-153 -29q-86 0 -153 29t-113.5 79t-71 117.5t-24.5 144.5t24.5 144.5t71 117.5t113.5 79t153 29q85 0 153 -29t114.5 -79t71.5 -117.5t25 -144.5zM557 357q0 40 -10.5 75.5t-31.5 62.5t-52.5 43t-73.5 16 q-41 0 -72 -16t-52 -43t-31.5 -62.5t-10.5 -75.5q0 -41 10.5 -76.5t31.5 -62.5t52 -42.5t72 -15.5q42 0 73.5 15.5t52.5 42.5t31.5 62.5t10.5 76.5zM255 742l90 180l132 -41l-123 -139h-99zM450 742l90 180l132 -41l-123 -139h-99z" />
<glyph unicode="&#x151;" horiz-adv-x="642" d="M617 266q0 -64 -21 -115.5t-59.5 -87.5t-93.5 -55.5t-122 -19.5q-68 0 -122.5 19.5t-93 55.5t-59.5 87.5t-21 115.5t21 116t59.5 89t93 56.5t122.5 19.5q67 0 122 -19.5t93.5 -56.5t59.5 -89t21 -116zM423 267q0 60 -25.5 95t-76.5 35t-76.5 -35t-25.5 -95t25.5 -94 t76.5 -34t76.5 34t25.5 94zM171 575l90 180l132 -41l-123 -139h-99zM366 575l90 180l132 -41l-123 -139h-99z" />
<glyph unicode="&#x152;" horiz-adv-x="1095" d="M492 0q-24 -6 -49.5 -9.5t-54.5 -3.5q-85 0 -152 29t-113.5 79t-71 117.5t-24.5 144.5t24.5 144.5t71 117.5t113.5 79t152 29q29 0 54.5 -3.5t49.5 -9.5h556v-169h-344q27 -52 38 -109h268v-149h-266q-11 -64 -39 -118h353v-169h-566zM557 357q0 40 -10.5 75.5 t-31.5 62.5t-52.5 43t-73.5 16q-41 0 -72 -15.5t-52 -42.5t-31.5 -63t-10.5 -76q0 -41 10.5 -76.5t31.5 -62.5t52 -42.5t72 -15.5q42 0 73.5 15.5t52.5 42.5t31.5 63t10.5 76z" />
<glyph unicode="&#x153;" horiz-adv-x="997" d="M791 332q-3 43 -29.5 63.5t-68.5 20.5t-68.5 -20t-30.5 -64h197zM409 267q0 60 -23.5 95t-71.5 35q-47 0 -71 -35t-24 -95t24 -94t71 -34q48 0 71.5 34t23.5 94zM699 -12q-66 0 -114 19t-83 53q-36 -34 -85 -53t-111 -19q-65 0 -117 21t-88.5 58t-56 88t-19.5 111 q0 61 19.5 112.5t56 89t88.5 58.5t117 21q61 0 110 -19t84 -52q35 33 83.5 52t109.5 19q65 0 116.5 -19.5t87 -56.5t54.5 -89t19 -116q0 -9 -0.5 -21.5t-1.5 -22.5h-374q3 -44 34.5 -64t81.5 -20q46 0 81.5 15.5t59.5 41.5l119 -104q-46 -45 -111.5 -74t-159.5 -29z" />
<glyph unicode="&#x154;" horiz-adv-x="698" d="M473 0l-122 237h-98v-237h-189v714h336q68 0 119 -17.5t84.5 -48t50.5 -73t17 -93.5q0 -41 -10.5 -73.5t-29 -58.5t-43 -45.5t-51.5 -33.5l142 -271h-206zM479 467q0 39 -24 58.5t-59 19.5h-143v-159h143q35 0 59 21t24 60zM245 743l90 180l152 -41l-123 -139h-119z" />
<glyph unicode="&#x155;" horiz-adv-x="442" d="M399 344q-12 7 -26.5 12t-33.5 5q-46 0 -73 -32.5t-27 -81.5v-247h-183v535h183v-77q25 42 60.5 65t76.5 23q19 0 38 -4.5t30 -10.5zM112 575l90 180l152 -41l-123 -139h-119z" />
<glyph unicode="&#x156;" horiz-adv-x="698" d="M473 0l-122 237h-98v-237h-189v714h336q68 0 119 -17.5t84.5 -48t50.5 -73t17 -93.5q0 -41 -10.5 -73.5t-29 -58.5t-43 -45.5t-51.5 -33.5l142 -271h-206zM479 467q0 39 -24 58.5t-59 19.5h-143v-159h143q35 0 59 21t24 60zM227 -160l69 124h165l-162 -164z" />
<glyph unicode="&#x157;" horiz-adv-x="442" d="M399 344q-12 7 -26.5 12t-33.5 5q-46 0 -73 -32.5t-27 -81.5v-247h-183v535h183v-77q25 42 60.5 65t76.5 23q19 0 38 -4.5t30 -10.5zM0 -160l69 124h165l-162 -164z" />
<glyph unicode="&#x158;" horiz-adv-x="698" d="M473 0l-122 237h-98v-237h-189v714h336q68 0 119 -17.5t84.5 -48t50.5 -73t17 -93.5q0 -41 -10.5 -73.5t-29 -58.5t-43 -45.5t-51.5 -33.5l142 -271h-206zM479 467q0 39 -24 58.5t-59 19.5h-143v-159h143q35 0 59 21t24 60zM333 859l135 62l49 -63q-38 -32 -68 -60.5 t-53 -54.5h-126q-23 26 -53 54.5t-68 60.5l49 63z" />
<glyph unicode="&#x159;" horiz-adv-x="442" d="M399 344q-12 7 -26.5 12t-33.5 5q-46 0 -73 -32.5t-27 -81.5v-247h-183v535h183v-77q25 42 60.5 65t76.5 23q19 0 38 -4.5t30 -10.5zM239 691l135 62l49 -63q-38 -32 -68 -60.5t-53 -54.5h-126q-23 26 -53 54.5t-68 60.5l49 63z" />
<glyph unicode="&#x15a;" horiz-adv-x="666" d="M640 230q0 -51 -20 -95.5t-59 -77.5t-95.5 -51.5t-129.5 -18.5q-118 0 -204 48t-127 133l155 74q12 -24 31 -42.5t43 -31.5t51.5 -19.5t55.5 -6.5q53 0 83.5 17.5t30.5 48.5q0 19 -13.5 31t-34 19.5t-45.5 11.5t-48 8q-51 9 -101 24t-89.5 40.5t-64 65t-24.5 96.5 q0 52 21 93.5t58.5 70t90 44t115.5 15.5q42 0 85 -7.5t83 -25t75.5 -45.5t62.5 -70l-144 -81q-11 18 -29 31.5t-40 23t-46 14.5t-48 5q-39 0 -67.5 -13.5t-28.5 -40.5q0 -21 18 -33.5t47 -21t66.5 -15t77 -16t77 -24t66.5 -37.5t47 -57t18 -84zM228 743l90 180l152 -41 l-123 -139h-119z" />
<glyph unicode="&#x15b;" horiz-adv-x="585" d="M217 575l90 180l152 -41l-123 -139h-119zM558 177q0 -44 -18 -78.5t-52 -59.5t-82 -38t-108 -13q-92 0 -167 32t-120 96l127 76q16 -20 36 -34.5t42 -23.5t44.5 -13.5t44.5 -4.5q32 0 55 10t23 30q0 12 -8.5 18.5t-24 10.5t-36.5 7t-45 7q-41 7 -81 16.5t-72 28t-52 48.5 t-20 78q0 46 19 79t51 55t75.5 32.5t93.5 10.5q49 0 90.5 -8.5t76 -22.5t61 -32.5t45.5 -38.5l-118 -85q-26 31 -66.5 45.5t-86.5 14.5q-32 0 -51.5 -8t-19.5 -25q0 -11 9 -18t24.5 -11t36 -7t43.5 -7q53 -9 96 -20.5t73 -30.5t46 -47t16 -69z" />
<glyph unicode="&#x15c;" horiz-adv-x="666" d="M640 230q0 -51 -20 -95.5t-59 -77.5t-95.5 -51.5t-129.5 -18.5q-118 0 -204 48t-127 133l155 74q12 -24 31 -42.5t43 -31.5t51.5 -19.5t55.5 -6.5q53 0 83.5 17.5t30.5 48.5q0 19 -13.5 31t-34 19.5t-45.5 11.5t-48 8q-51 9 -101 24t-89.5 40.5t-64 65t-24.5 96.5 q0 52 21 93.5t58.5 70t90 44t115.5 15.5q42 0 85 -7.5t83 -25t75.5 -45.5t62.5 -70l-144 -81q-11 18 -29 31.5t-40 23t-46 14.5t-48 5q-39 0 -67.5 -13.5t-28.5 -40.5q0 -21 18 -33.5t47 -21t66.5 -15t77 -16t77 -24t66.5 -37.5t47 -57t18 -84zM190 735l-49 63 q38 32 68 60.5t53 54.5h126q23 -26 53 -54.5t68 -60.5l-49 -63l-135 62z" />
<glyph unicode="&#x15d;" horiz-adv-x="585" d="M558 177q0 -44 -18 -78.5t-52 -59.5t-82 -38t-108 -13q-92 0 -167 32t-120 96l127 76q16 -20 36 -34.5t42 -23.5t44.5 -13.5t44.5 -4.5q32 0 55 10t23 30q0 12 -8.5 18.5t-24 10.5t-36.5 7t-45 7q-41 7 -81 16.5t-72 28t-52 48.5t-20 78q0 46 19 79t51 55t75.5 32.5 t93.5 10.5q49 0 90.5 -8.5t76 -22.5t61 -32.5t45.5 -38.5l-118 -85q-26 31 -66.5 45.5t-86.5 14.5q-32 0 -51.5 -8t-19.5 -25q0 -11 9 -18t24.5 -11t36 -7t43.5 -7q53 -9 96 -20.5t73 -30.5t46 -47t16 -69zM155 567l-49 63q38 32 68 60.5t53 54.5h126q23 -26 53 -54.5 t68 -60.5l-49 -63l-135 62z" />
<glyph unicode="&#x15e;" horiz-adv-x="666" d="M640 230q0 -51 -20 -95.5t-59 -77.5t-95.5 -51.5t-129.5 -18.5q-118 0 -204 48t-127 133l155 74q12 -24 31 -42.5t43 -31.5t51.5 -19.5t55.5 -6.5q53 0 83.5 17.5t30.5 48.5q0 19 -13.5 31t-34 19.5t-45.5 11.5t-48 8q-51 9 -101 24t-89.5 40.5t-64 65t-24.5 96.5 q0 52 21 93.5t58.5 70t90 44t115.5 15.5q42 0 85 -7.5t83 -25t75.5 -45.5t62.5 -70l-144 -81q-11 18 -29 31.5t-40 23t-46 14.5t-48 5q-39 0 -67.5 -13.5t-28.5 -40.5q0 -21 18 -33.5t47 -21t66.5 -15t77 -16t77 -24t66.5 -37.5t47 -57t18 -84zM249 -32q17 7 34 10.5t39 3.5 q49 0 79.5 -19t30.5 -56q0 -23 -12 -40t-33.5 -28.5t-50.5 -17t-63 -5.5q-41 0 -64.5 6.5t-33.5 12.5l15 55q5 -5 19 -10t33 -5q32 0 32 17q0 11 -14 12.5t-27 1.5z" />
<glyph unicode="&#x15f;" horiz-adv-x="585" d="M558 177q0 -44 -18 -78.5t-52 -59.5t-82 -38t-108 -13q-92 0 -167 32t-120 96l127 76q16 -20 36 -34.5t42 -23.5t44.5 -13.5t44.5 -4.5q32 0 55 10t23 30q0 12 -8.5 18.5t-24 10.5t-36.5 7t-45 7q-41 7 -81 16.5t-72 28t-52 48.5t-20 78q0 46 19 79t51 55t75.5 32.5 t93.5 10.5q49 0 90.5 -8.5t76 -22.5t61 -32.5t45.5 -38.5l-118 -85q-26 31 -66.5 45.5t-86.5 14.5q-32 0 -51.5 -8t-19.5 -25q0 -11 9 -18t24.5 -11t36 -7t43.5 -7q53 -9 96 -20.5t73 -30.5t46 -47t16 -69zM214 -32q17 7 34 10.5t39 3.5q49 0 79.5 -19t30.5 -56 q0 -23 -12 -40t-33.5 -28.5t-50.5 -17t-63 -5.5q-41 0 -64.5 6.5t-33.5 12.5l15 55q5 -5 19 -10t33 -5q32 0 32 17q0 11 -14 12.5t-27 1.5z" />
<glyph unicode="&#x160;" horiz-adv-x="666" d="M640 230q0 -51 -20 -95.5t-59 -77.5t-95.5 -51.5t-129.5 -18.5q-118 0 -204 48t-127 133l155 74q12 -24 31 -42.5t43 -31.5t51.5 -19.5t55.5 -6.5q53 0 83.5 17.5t30.5 48.5q0 19 -13.5 31t-34 19.5t-45.5 11.5t-48 8q-51 9 -101 24t-89.5 40.5t-64 65t-24.5 96.5 q0 52 21 93.5t58.5 70t90 44t115.5 15.5q42 0 85 -7.5t83 -25t75.5 -45.5t62.5 -70l-144 -81q-11 18 -29 31.5t-40 23t-46 14.5t-48 5q-39 0 -67.5 -13.5t-28.5 -40.5q0 -21 18 -33.5t47 -21t66.5 -15t77 -16t77 -24t66.5 -37.5t47 -57t18 -84zM323 859l135 62l49 -63 q-38 -32 -68 -60.5t-53 -54.5h-126q-23 26 -53 54.5t-68 60.5l49 63z" />
<glyph unicode="&#x161;" horiz-adv-x="585" d="M288 691l135 62l49 -63q-38 -32 -68 -60.5t-53 -54.5h-126q-23 26 -53 54.5t-68 60.5l49 63zM558 177q0 -44 -18 -78.5t-52 -59.5t-82 -38t-108 -13q-92 0 -167 32t-120 96l127 76q16 -20 36 -34.5t42 -23.5t44.5 -13.5t44.5 -4.5q32 0 55 10t23 30q0 12 -8.5 18.5 t-24 10.5t-36.5 7t-45 7q-41 7 -81 16.5t-72 28t-52 48.5t-20 78q0 46 19 79t51 55t75.5 32.5t93.5 10.5q49 0 90.5 -8.5t76 -22.5t61 -32.5t45.5 -38.5l-118 -85q-26 31 -66.5 45.5t-86.5 14.5q-32 0 -51.5 -8t-19.5 -25q0 -11 9 -18t24.5 -11t36 -7t43.5 -7 q53 -9 96 -20.5t73 -30.5t46 -47t16 -69z" />
<glyph unicode="&#x162;" horiz-adv-x="662" d="M425 545v-545h-189v545h-210v169h610v-169h-211zM178 -160l69 124h165l-162 -164z" />
<glyph unicode="&#x163;" horiz-adv-x="462" d="M456 41q-30 -23 -70 -38t-94 -15t-94.5 16.5t-65.5 51.5q-19 26 -26.5 57.5t-7.5 73.5v212h-82v136h82v131h183v-131h145v-136h-145v-213q0 -24 13.5 -32t30.5 -8q20 0 35.5 7t29.5 18zM129 -160l69 124h165l-162 -164z" />
<glyph unicode="&#x164;" horiz-adv-x="662" d="M425 545v-545h-189v545h-210v169h610v-169h-211zM331 859l135 62l49 -63q-38 -32 -68 -60.5t-53 -54.5h-126q-23 26 -53 54.5t-68 60.5l49 63z" />
<glyph unicode="&#x165;" horiz-adv-x="461" d="M456 41q-30 -23 -70 -38t-94 -15t-94.5 16.5t-65.5 51.5q-19 26 -26.5 57.5t-7.5 73.5v212h-82v136h82v131h183v-131h145v-136h-145v-213q0 -24 13.5 -32t30.5 -8q20 0 35.5 7t29.5 18zM347.956 646.383v-54.5977q0 -22.7998 -4.875 -42.5986 q-4.87598 -19.7988 -15.2764 -37.498q-10.4004 -17.7002 -27.3008 -34.1992t-40.9512 -33.2988l-34.4512 40.7988q18.2002 13.7998 30.5508 29.3984q12.3506 15.5996 12.3506 37.7988q0 10.7998 -3.5752 18.8994t-8.125 16.1992q-4.55078 8.09961 -8.12598 17.999 t-3.5752 25.499v15.5996h103.354z" />
<glyph unicode="&#x166;" horiz-adv-x="662" d="M425 268v-268h-189v268h-102v94h102v183h-210v169h610v-169h-211v-183h102v-94h-102z" />
<glyph unicode="&#x167;" horiz-adv-x="461" d="M98 238h-82v93h82v68h-82v136h82v131h183v-131h145v-136h-145v-68h86v-93h-86v-52q0 -24 13.5 -32t30.5 -8q20 0 35.5 7t29.5 18l66 -130q-30 -23 -70 -38t-94 -15t-94.5 16.5t-65.5 51.5q-19 26 -26.5 57.5t-7.5 73.5v51z" />
<glyph unicode="&#x168;" horiz-adv-x="740" d="M682 279q0 -71 -22 -125.5t-63 -91.5t-98.5 -56t-128.5 -19t-129 19t-98.5 56t-62.5 91.5t-22 125.5v435h189v-435q0 -120 123 -120t123 120v435h189v-435zM572 854q-9 -21 -22.5 -40t-31 -33.5t-39 -23.5t-46.5 -9q-22 0 -40 6t-34 13.5t-30.5 14t-30.5 6.5 q-20 0 -41.5 -12t-36.5 -33l-62 44q9 21 22.5 40t31 33.5t39 23.5t46.5 9q22 0 40 -6.5t34 -14t30.5 -13.5t30.5 -6q20 0 41.5 12t36.5 33z" />
<glyph unicode="&#x169;" horiz-adv-x="620" d="M382 0v49q-31 -29 -70.5 -45t-81.5 -16q-47 0 -81 15.5t-55.5 41.5t-32 60.5t-10.5 72.5v357h182v-315q0 -28 13.5 -49.5t55.5 -21.5q32 0 56 19t24 61v306h182v-535h-182zM520 686q-9 -21 -22.5 -40t-31 -33.5t-39 -23.5t-46.5 -9q-22 0 -40 6t-34 13.5t-30.5 14 t-30.5 6.5q-20 0 -41.5 -12t-36.5 -33l-62 44q9 21 22.5 40t31 33.5t39 23.5t46.5 9q22 0 40 -6.5t34 -14t30.5 -13.5t30.5 -6q20 0 41.5 12t36.5 33z" />
<glyph unicode="&#x16a;" horiz-adv-x="740" d="M682 279q0 -71 -22 -125.5t-63 -91.5t-98.5 -56t-128.5 -19t-129 19t-98.5 56t-62.5 91.5t-22 125.5v435h189v-435q0 -120 123 -120t123 120v435h189v-435zM198 765v93h347v-93h-347z" />
<glyph unicode="&#x16b;" horiz-adv-x="620" d="M382 0v49q-31 -29 -70.5 -45t-81.5 -16q-47 0 -81 15.5t-55.5 41.5t-32 60.5t-10.5 72.5v357h182v-315q0 -28 13.5 -49.5t55.5 -21.5q32 0 56 19t24 61v306h182v-535h-182zM139 597v93h347v-93h-347z" />
<glyph unicode="&#x16c;" horiz-adv-x="740" d="M682 279q0 -71 -22 -125.5t-63 -91.5t-98.5 -56t-128.5 -19t-129 19t-98.5 56t-62.5 91.5t-22 125.5v435h189v-435q0 -120 123 -120t123 120v435h189v-435zM371 859q38 0 60.5 13t35.5 41l82 -24q-6 -31 -19.5 -58t-35.5 -47t-53 -31.5t-70 -11.5t-70 11.5t-53 31.5 t-35.5 47t-19.5 58l82 24q13 -28 35.5 -41t60.5 -13z" />
<glyph unicode="&#x16d;" horiz-adv-x="620" d="M382 0v49q-31 -29 -70.5 -45t-81.5 -16q-47 0 -81 15.5t-55.5 41.5t-32 60.5t-10.5 72.5v357h182v-315q0 -28 13.5 -49.5t55.5 -21.5q32 0 56 19t24 61v306h182v-535h-182zM309 691q38 0 60.5 13t35.5 41l82 -24q-6 -31 -19.5 -58t-35.5 -47t-53 -31.5t-70 -11.5 t-70 11.5t-53 31.5t-35.5 47t-19.5 58l82 24q13 -28 35.5 -41t60.5 -13z" />
<glyph unicode="&#x16e;" horiz-adv-x="740" d="M682 279q0 -71 -22 -125.5t-63 -91.5t-98.5 -56t-128.5 -19t-129 19t-98.5 56t-62.5 91.5t-22 125.5v435h189v-435q0 -120 123 -120t123 120v435h189v-435zM502 808q0 -46 -36 -77.5t-96 -31.5t-96 31.5t-36 77.5q0 22 9.5 42t27 35t41.5 24t54 9t54 -9t41.5 -24t27 -35 t9.5 -42zM322 807q0 -20 14 -34t34 -14t34 14t14 34t-14 34t-34 14t-34 -14t-14 -34z" />
<glyph unicode="&#x16f;" horiz-adv-x="620" d="M382 0v49q-31 -29 -70.5 -45t-81.5 -16q-47 0 -81 15.5t-55.5 41.5t-32 60.5t-10.5 72.5v357h182v-315q0 -28 13.5 -49.5t55.5 -21.5q32 0 56 19t24 61v306h182v-535h-182zM441 672q0 -46 -36 -77.5t-96 -31.5t-96 31.5t-36 77.5q0 22 9.5 42t27 35t41.5 24t54 9t54 -9 t41.5 -24t27 -35t9.5 -42zM261 671q0 -20 14 -34t34 -14t34 14t14 34t-14 34t-34 14t-34 -14t-14 -34z" />
<glyph unicode="&#x170;" horiz-adv-x="740" d="M682 279q0 -71 -22 -125.5t-63 -91.5t-98.5 -56t-128.5 -19t-129 19t-98.5 56t-62.5 91.5t-22 125.5v435h189v-435q0 -120 123 -120t123 120v435h189v-435zM212 743l90 180l132 -41l-123 -139h-99zM407 743l90 180l132 -41l-123 -139h-99z" />
<glyph unicode="&#x171;" horiz-adv-x="620" d="M382 0v49q-31 -29 -70.5 -45t-81.5 -16q-47 0 -81 15.5t-55.5 41.5t-32 60.5t-10.5 72.5v357h182v-315q0 -28 13.5 -49.5t55.5 -21.5q32 0 56 19t24 61v306h182v-535h-182zM145 575l90 180l132 -41l-123 -139h-99zM340 575l90 180l132 -41l-123 -139h-99z" />
<glyph unicode="&#x172;" horiz-adv-x="740" d="M682 279q0 -97 -38 -158t-107 -99q-16 -8 -34 -23t-18 -40q0 -20 16 -32t43 -12q20 0 39.5 7t33.5 20v-100q-11 -10 -35 -18t-58 -8q-32 0 -58 8.5t-45 22.5t-29 33.5t-10 42.5q0 16 5.5 33.5t17.5 33.5q-11 -1 -17 -2t-25 -1q-68 0 -124 19t-96 56t-62.5 91.5 t-22.5 125.5v435h189v-435q0 -120 123 -120t123 120v435h189v-435z" />
<glyph unicode="&#x173;" horiz-adv-x="620" d="M564 -163q-11 -7 -31 -11.5t-44 -4.5q-67 0 -106 28.5t-39 73.5q0 29 13.5 49t24.5 28v49q-31 -29 -70.5 -45t-81.5 -16q-47 0 -81 15.5t-55.5 41.5t-32 60.5t-10.5 72.5v357h182v-315q0 -28 13.5 -49.5t55.5 -21.5q32 0 56 19t24 61v306h182v-535q-35 0 -57.5 -4 t-36 -11t-19 -15t-5.5 -16q0 -17 15.5 -25.5t40.5 -8.5q19 0 36.5 5t25.5 12v-100z" />
<glyph unicode="&#x174;" horiz-adv-x="992" d="M794 0h-197l-103 405l-105 -405h-197l-179 714h207l84 -432l116 432h150l117 -434l84 434h211zM362 735l-49 63q38 32 68 60.5t53 54.5h126q23 -26 53 -54.5t68 -60.5l-49 -63l-135 62z" />
<glyph unicode="&#x175;" horiz-adv-x="850" d="M686 0h-181l-80 308l-82 -308h-181l-149 535h201l57 -302l82 302h146l81 -302l58 302h200zM290 567l-49 63q38 32 68 60.5t53 54.5h126q23 -26 53 -54.5t68 -60.5l-49 -63l-135 62z" />
<glyph unicode="&#x176;" horiz-adv-x="689" d="M439 297v-297h-189v295l-256 419h219l132 -242l132 242h218zM210 735l-49 63q38 32 68 60.5t53 54.5h126q23 -26 53 -54.5t68 -60.5l-49 -63l-135 62z" />
<glyph unicode="&#x177;" horiz-adv-x="592" d="M385 -13q-33 -87 -81.5 -129t-130.5 -42q-88 0 -159 48l67 119q15 -10 29.5 -15.5t31.5 -5.5q21 0 34 10t23 28l12 22l-216 513h208l102 -297l94 297h196zM160 567l-49 63q38 32 68 60.5t53 54.5h126q23 -26 53 -54.5t68 -60.5l-49 -63l-135 62z" />
<glyph unicode="&#x178;" horiz-adv-x="689" d="M439 297v-297h-189v295l-256 419h219l132 -242l132 242h218zM163 815q0 32 22.5 55t54.5 23t55 -23t23 -55q0 -16 -6.5 -30t-17 -24.5t-24.5 -16.5t-30 -6q-32 0 -54.5 22.5t-22.5 54.5zM370 815q0 32 22.5 55t54.5 23q16 0 30 -6t24.5 -16.5t17 -25t6.5 -30.5 q0 -32 -23 -54.5t-55 -22.5t-54.5 22.5t-22.5 54.5z" />
<glyph unicode="&#x179;" horiz-adv-x="677" d="M35 0v144l329 401h-315v169h581v-134l-337 -411h347v-169h-605zM240 743l90 180l152 -41l-123 -139h-119z" />
<glyph unicode="&#x17a;" horiz-adv-x="554" d="M31 0v128l218 250h-207v157h469v-120l-223 -258h231v-157h-488zM190 575l90 180l152 -41l-123 -139h-119z" />
<glyph unicode="&#x17b;" horiz-adv-x="677" d="M35 0v144l329 401h-315v169h581v-134l-337 -411h347v-169h-605zM251 820q0 34 24 58t58 24t58 -24t24 -58t-24 -58t-58 -24t-58 24t-24 58z" />
<glyph unicode="&#x17c;" horiz-adv-x="554" d="M31 0v128l218 250h-207v157h469v-120l-223 -258h231v-157h-488zM190 652q0 34 24 58t58 24t58 -24t24 -58t-24 -58t-58 -24t-58 24t-24 58z" />
<glyph unicode="&#x17d;" horiz-adv-x="677" d="M35 0v144l329 401h-315v169h581v-134l-337 -411h347v-169h-605zM334 859l135 62l49 -63q-38 -32 -68 -60.5t-53 -54.5h-126q-23 26 -53 54.5t-68 60.5l49 63z" />
<glyph unicode="&#x17e;" horiz-adv-x="554" d="M31 0v128l218 250h-207v157h469v-120l-223 -258h231v-157h-488zM273 691l135 62l49 -63q-38 -32 -68 -60.5t-53 -54.5h-126q-23 26 -53 54.5t-68 60.5l49 63z" />
<glyph unicode="&#x192;" d="M536 553q-17 11 -29.5 15.5t-32.5 4.5q-21 0 -35 -11.5t-18 -33.5l-8 -48h122l-26 -141h-122l-47 -264q-7 -41 -22.5 -76t-41 -60.5t-62.5 -40t-87 -14.5q-47 0 -80.5 10t-60.5 24l61 139q17 -11 30 -15.5t32 -4.5q21 0 35 12t18 34l46 256h-108l25 141h109l9 56 q7 41 22 76t41 60.5t63 40t87 14.5q47 0 80.5 -10t60.5 -24z" />
<glyph unicode="&#x1fa;" horiz-adv-x="718" d="M356 558l-74 -268h147zM411 705q0 23 -15 38t-37 15q-23 0 -38 -15t-15 -38q0 -22 15 -37t38 -15q22 0 37 15t15 37zM224 705q0 28 10.5 52.5t29 43t43 29t52.5 10.5t52.5 -10.5t43 -29t29 -43t10.5 -52.5q0 -21 -6 -37l233 -668h-212l-38 141h-230l-38 -141h-207 l233 669q-2 9 -3.5 17.5t-1.5 18.5zM272.065 791.542l84.792 151.996l143.205 -34.6211l-115.883 -117.375h-112.114z" />
<glyph unicode="&#x1fb;" horiz-adv-x="595" d="M589 13q-17 -11 -44.5 -16t-49.5 -5q-38 0 -70.5 14.5t-47.5 46.5q-13 -18 -32 -30t-40.5 -20t-45 -11.5t-46.5 -3.5q-41 0 -76 11t-60 32.5t-39 53t-14 73.5q0 50 19 80t48.5 47t65 24t68.5 10q24 3 45.5 5t37 6.5t24.5 12t9 20.5q0 12 -7 19t-17.5 11t-23 5.5 t-24.5 1.5q-39 0 -86.5 -12.5t-85.5 -35.5l-55 137q59 31 119 44.5t123 13.5q54 0 98 -10t75.5 -33t49 -59.5t17.5 -90.5v-215q0 -14 6 -18t16 -4q17 0 25 7zM341 247q-12 -14 -31.5 -17.5t-43.5 -7.5q-11 -2 -22 -5t-20 -9t-14.5 -16t-5.5 -25q0 -26 16.5 -38t43.5 -12 q35 0 56 19.5t21 58.5v52zM414 672q0 -46 -36 -77.5t-96 -31.5t-96 31.5t-36 77.5q0 22 9.5 42t27 35t41.5 24t54 9t54 -9t41.5 -24t27 -35t9.5 -42zM234 671q0 -20 14 -34t34 -14t34 14t14 34t-14 34t-34 14t-34 -14t-14 -34zM191 804l90 180l152 -41l-123 -139h-119z" />
<glyph unicode="&#x1fc;" horiz-adv-x="961" d="M447 0v141h-187l-56 -141h-207l313 714h636v-169h-311v-101h274v-149h-274v-126h321v-169h-509zM447 567h-29l-99 -277h128v277zM423 743l90 180l152 -41l-123 -139h-119z" />
<glyph unicode="&#x1fd;" horiz-adv-x="929" d="M723 332q-3 43 -29.5 63.5t-68.5 20.5t-68.5 -20t-30.5 -64h197zM342 247q-12 -14 -31.5 -17.5t-43.5 -7.5q-11 -2 -22 -5t-20 -9t-14.5 -16t-5.5 -25q0 -26 16.5 -38t43.5 -12q35 0 56 19.5t21 58.5v52zM43 489q57 30 115.5 44t115.5 14q64 0 106 -16t70 -43 q31 29 75 44t101 15q65 0 116.5 -20t87 -56.5t54 -87.5t18.5 -114q0 -12 -0.5 -24.5t-1.5 -22.5h-374q3 -44 34.5 -64t81.5 -20q46 0 81.5 15.5t59.5 41.5l119 -104q-46 -45 -111.5 -74t-156.5 -29q-67 0 -120 18t-88 56q-24 -34 -75 -54t-119 -20q-97 0 -152 43t-55 128 q0 50 19 80t48.5 47t65 24t68.5 10q24 3 45.5 5t37 6t24.5 11.5t9 20.5q0 23 -22.5 30.5t-49.5 7.5q-39 0 -86.5 -12.5t-85.5 -35.5zM377 575l90 180l152 -41l-123 -139h-119z" />
<glyph unicode="&#x1fe;" horiz-adv-x="780" d="M108 32l32 45q-55 51 -84 123t-29 157q0 77 24.5 144.5t71 117.5t113.5 79t153 29q51 0 95 -10.5t82 -30.5l33 47l73 -51l-33 -47q56 -51 85 -122.5t29 -155.5q0 -77 -25 -144.5t-71.5 -117.5t-114.5 -79t-153 -29q-51 0 -94.5 10t-81.5 29l-32 -45zM223 357 q0 -34 7 -64.5t22 -55.5l210 301q-16 8 -34 12t-39 4q-41 0 -72 -16t-52 -43t-31.5 -62.5t-10.5 -75.5zM557 357q0 68 -30 119l-210 -301q30 -15 72 -15t73.5 15.5t52.5 42.5t31.5 62.5t10.5 76.5zM305 743l90 180l152 -41l-123 -139h-119z" />
<glyph unicode="&#x1ff;" horiz-adv-x="642" d="M245 575l90 180l152 -41l-123 -139h-119zM617 266q0 -64 -21 -115.5t-59.5 -87.5t-93.5 -55.5t-122 -19.5q-38 0 -72 6.5t-63 17.5l-20 -29l-62 43l16 23q-46 36 -70.5 91t-24.5 126q0 64 21 116t59.5 89t93 56.5t122.5 19.5q38 0 71 -6.5t62 -17.5l22 30l62 -43l-18 -25 q47 -37 72 -92.5t25 -126.5zM423 267q0 39 -10 66l-132 -187q15 -7 40 -7q51 0 76.5 34t25.5 94zM219 267q0 -38 10 -64l132 187q-9 3 -19 5t-21 2q-51 0 -76.5 -35t-25.5 -95z" />
<glyph unicode="&#x218;" horiz-adv-x="666" d="M640 230q0 -51 -20 -95.5t-59 -77.5t-95.5 -51.5t-129.5 -18.5q-118 0 -204 48t-127 133l155 74q12 -24 31 -42.5t43 -31.5t51.5 -19.5t55.5 -6.5q53 0 83.5 17.5t30.5 48.5q0 19 -13.5 31t-34 19.5t-45.5 11.5t-48 8q-51 9 -101 24t-89.5 40.5t-64 65t-24.5 96.5 q0 52 21 93.5t58.5 70t90 44t115.5 15.5q42 0 85 -7.5t83 -25t75.5 -45.5t62.5 -70l-144 -81q-11 18 -29 31.5t-40 23t-46 14.5t-48 5q-39 0 -67.5 -13.5t-28.5 -40.5q0 -21 18 -33.5t47 -21t66.5 -15t77 -16t77 -24t66.5 -37.5t47 -57t18 -84zM199 -160l69 124h165 l-162 -164z" />
<glyph unicode="&#x219;" horiz-adv-x="585" d="M558 177q0 -44 -18 -78.5t-52 -59.5t-82 -38t-108 -13q-92 0 -167 32t-120 96l127 76q16 -20 36 -34.5t42 -23.5t44.5 -13.5t44.5 -4.5q32 0 55 10t23 30q0 12 -8.5 18.5t-24 10.5t-36.5 7t-45 7q-41 7 -81 16.5t-72 28t-52 48.5t-20 78q0 46 19 79t51 55t75.5 32.5 t93.5 10.5q49 0 90.5 -8.5t76 -22.5t61 -32.5t45.5 -38.5l-118 -85q-26 31 -66.5 45.5t-86.5 14.5q-32 0 -51.5 -8t-19.5 -25q0 -11 9 -18t24.5 -11t36 -7t43.5 -7q53 -9 96 -20.5t73 -30.5t46 -47t16 -69zM152 -160l69 124h165l-162 -164z" />
<glyph unicode="&#x237;" horiz-adv-x="306" d="M250 22q0 -104 -54 -154t-146 -50q-33 0 -68.5 8.5t-61.5 25.5l51 130q11 -7 23.5 -11t28.5 -4q22 0 33 12t11 40v516h183v-513z" />
<glyph unicode="&#x259;" horiz-adv-x="619" d="M20 262q0 12 1 25.5t5 25.5h373q-8 41 -36 60t-70 19q-32 0 -62 -13t-50 -47l-147 72q39 70 106 106.5t158 36.5q65 0 119 -19t93 -55.5t61 -88.5t22 -118q0 -62 -19.5 -113t-57 -88t-91.5 -57t-123 -20q-68 0 -120.5 20.5t-88.5 57t-54.5 86.5t-18.5 110zM295 119 q43 0 70 21t34 63h-207q8 -41 34.5 -62.5t68.5 -21.5z" />
<glyph unicode="&#x2c6;" horiz-adv-x="347" d="M39 567l-49 63q38 32 68 60.5t53 54.5h126q23 -26 53 -54.5t68 -60.5l-49 -63l-135 62z" />
<glyph unicode="&#x2c7;" horiz-adv-x="347" d="M174 691l135 62l49 -63q-38 -32 -68 -60.5t-53 -54.5h-126q-23 26 -53 54.5t-68 60.5l49 63z" />
<glyph unicode="&#x2d8;" horiz-adv-x="347" d="M174 691q38 0 60.5 13t35.5 41l82 -24q-6 -31 -19.5 -58t-35.5 -47t-53 -31.5t-70 -11.5t-70 11.5t-53 31.5t-35.5 47t-19.5 58l82 24q13 -28 35.5 -41t60.5 -13z" />
<glyph unicode="&#x2d9;" horiz-adv-x="324" d="M80 652q0 34 24 58t58 24t58 -24t24 -58t-24 -58t-58 -24t-58 24t-24 58z" />
<glyph unicode="&#x2da;" horiz-adv-x="324" d="M297 672q0 -46 -36 -77.5t-96 -31.5t-96 31.5t-36 77.5q0 22 9.5 42t27 35t41.5 24t54 9t54 -9t41.5 -24t27 -35t9.5 -42zM117 671q0 -20 14 -34t34 -14t34 14t14 34t-14 34t-34 14t-34 -14t-14 -34z" />
<glyph unicode="&#x2db;" horiz-adv-x="324" d="M215 34q-32 -14 -53 -35t-21 -44q0 -20 16 -30t43 -10q23 0 45.5 7t37.5 20v-100q-12 -10 -39 -18t-62 -8q-66 0 -105 30t-39 72q0 35 27.5 67t73.5 49h76z" />
<glyph unicode="&#x2dc;" horiz-adv-x="387" d="M400 686q-9 -21 -22.5 -40t-31 -33.5t-39 -23.5t-46.5 -9q-22 0 -40 6t-34 13.5t-30.5 14t-30.5 6.5q-20 0 -41.5 -12t-36.5 -33l-62 44q9 21 22.5 40t31 33.5t39 23.5t46.5 9q22 0 40 -6.5t34 -14t30.5 -13.5t30.5 -6q20 0 41.5 12t36.5 33z" />
<glyph unicode="&#x2dd;" horiz-adv-x="435" d="M57 575l90 180l132 -41l-123 -139h-99zM252 575l90 180l132 -41l-123 -139h-99z" />
<glyph unicode="&#x394;" horiz-adv-x="632" d="M603 0h-574v14l281 740h12l281 -740v-14zM186 110h260l-130 364z" />
<glyph unicode="&#x3a9;" horiz-adv-x="626" d="M313 727q61 0 111 -22t86 -61.5t55.5 -94t19.5 -119.5q0 -57 -12.5 -104.5t-31.5 -87.5t-41.5 -74t-42.5 -64h110v-100h-215l-15 96q31 46 56.5 86t43.5 79t28 79t10 85t-11.5 82.5t-32.5 64.5t-51 42t-67 15t-67 -15t-51 -42t-32.5 -64.5t-11.5 -82.5t9.5 -85t27.5 -79 t43.5 -79t57.5 -86l-15 -96h-215v100h110q-20 30 -42.5 64t-41.5 74t-31.5 87.5t-12.5 104.5q0 65 19.5 119.5t55.5 94t86 61.5t111 22z" />
<glyph unicode="&#x3bc;" d="M271 -12q-14 0 -26.5 4t-23.5 10v-176h-182v709h182v-324q0 -14 2.5 -27t9.5 -22.5t19 -15.5t31 -6q29 0 50.5 19t21.5 61v315h182v-396q0 -14 5.5 -18t13.5 -4q13 0 22 6l12 -115q-17 -8 -41 -12t-43 -4q-38 0 -69.5 14.5t-46.5 46.5q-20 -32 -54 -48.5t-65 -16.5z" />
<glyph unicode="&#x3c0;" horiz-adv-x="582" d="M491 424v-424h-110v424h-180v-424h-110v424h-70v110h540v-110h-70z" />
<glyph unicode="&#x1e80;" horiz-adv-x="992" d="M794 0h-197l-103 405l-105 -405h-197l-179 714h207l84 -432l116 432h150l117 -434l84 434h211zM439 743l-123 139l152 41l90 -180h-119z" />
<glyph unicode="&#x1e81;" horiz-adv-x="850" d="M686 0h-181l-80 308l-82 -308h-181l-149 535h201l57 -302l82 302h146l81 -302l58 302h200zM375 575l-123 139l152 41l90 -180h-119z" />
<glyph unicode="&#x1e82;" horiz-adv-x="992" d="M794 0h-197l-103 405l-105 -405h-197l-179 714h207l84 -432l116 432h150l117 -434l84 434h211zM432 743l90 180l152 -41l-123 -139h-119z" />
<glyph unicode="&#x1e83;" horiz-adv-x="850" d="M686 0h-181l-80 308l-82 -308h-181l-149 535h201l57 -302l82 302h146l81 -302l58 302h200zM356 575l90 180l152 -41l-123 -139h-119z" />
<glyph unicode="&#x1e84;" horiz-adv-x="992" d="M794 0h-197l-103 405l-105 -405h-197l-179 714h207l84 -432l116 432h150l117 -434l84 434h211zM315 815q0 32 22.5 55t54.5 23t55 -23t23 -55q0 -16 -6.5 -30t-17 -24.5t-24.5 -16.5t-30 -6q-32 0 -54.5 22.5t-22.5 54.5zM522 815q0 32 22.5 55t54.5 23q16 0 30 -6 t24.5 -16.5t17 -25t6.5 -30.5q0 -32 -23 -54.5t-55 -22.5t-54.5 22.5t-22.5 54.5z" />
<glyph unicode="&#x1e85;" horiz-adv-x="850" d="M686 0h-181l-80 308l-82 -308h-181l-149 535h201l57 -302l82 302h146l81 -302l58 302h200zM244 647q0 32 22.5 55t54.5 23t55 -23t23 -55q0 -16 -6.5 -30t-17 -24.5t-24.5 -16.5t-30 -6q-32 0 -54.5 22.5t-22.5 54.5zM451 647q0 32 22.5 55t54.5 23q16 0 30 -6 t24.5 -16.5t17 -25t6.5 -30.5q0 -32 -23 -54.5t-55 -22.5t-54.5 22.5t-22.5 54.5z" />
<glyph unicode="&#x1ef2;" horiz-adv-x="689" d="M439 297v-297h-189v295l-256 419h219l132 -242l132 242h218zM302 743l-123 139l152 41l90 -180h-119z" />
<glyph unicode="&#x1ef3;" horiz-adv-x="592" d="M385 -13q-33 -87 -81.5 -129t-130.5 -42q-88 0 -159 48l67 119q15 -10 29.5 -15.5t31.5 -5.5q21 0 34 10t23 28l12 22l-216 513h208l102 -297l94 297h196zM250 575l-123 139l152 41l90 -180h-119z" />
<glyph unicode="&#x2000;" horiz-adv-x="492" />
<glyph unicode="&#x2001;" horiz-adv-x="984" />
<glyph unicode="&#x2002;" horiz-adv-x="492" />
<glyph unicode="&#x2003;" horiz-adv-x="984" />
<glyph unicode="&#x2004;" horiz-adv-x="328" />
<glyph unicode="&#x2005;" horiz-adv-x="246" />
<glyph unicode="&#x2006;" horiz-adv-x="164" />
<glyph unicode="&#x2007;" horiz-adv-x="164" />
<glyph unicode="&#x2008;" horiz-adv-x="123" />
<glyph unicode="&#x2009;" horiz-adv-x="196" />
<glyph unicode="&#x200a;" horiz-adv-x="54" />
<glyph unicode="&#x2010;" horiz-adv-x="400" d="M50 230v160h300v-160h-300z" />
<glyph unicode="&#x2011;" horiz-adv-x="400" d="M50 230v160h300v-160h-300z" />
<glyph unicode="&#x2012;" horiz-adv-x="400" d="M50 230v160h300v-160h-300z" />
<glyph unicode="&#x2013;" d="M36 193v150h536v-150h-536z" />
<glyph unicode="&#x2014;" horiz-adv-x="946" d="M36 193v150h874v-150h-874z" />
<glyph unicode="&#x2018;" horiz-adv-x="282" d="M239 653q-33 -14 -58 -34.5t-29 -40.5q18 -1 36 -9t32 -21.5t23 -32t9 -41.5q0 -21 -7.5 -40.5t-22 -34t-34.5 -23.5t-44 -9q-46 0 -79 33.5t-33 96.5q0 70 44 129t122 100z" />
<glyph unicode="&#x2019;" horiz-adv-x="259" d="M37 440q33 14 58 34.5t29 40.5q-18 1 -36 9t-32 21.5t-23 32t-9 41.5q0 21 7.5 40.5t22 34t34.5 23.5t44 9q46 0 79 -33.5t33 -96.5q0 -70 -44 -129t-122 -100z" />
<glyph unicode="&#x201a;" horiz-adv-x="295" d="M51 -76q33 14 58 34.5t29 40.5q-18 1 -36 9t-32 21.5t-23 32t-9 41.5q0 21 7.5 40.5t22 34t34.5 23.5t44 9q46 0 79 -33.5t33 -96.5q0 -70 -44 -129t-122 -100z" />
<glyph unicode="&#x201c;" horiz-adv-x="550" d="M507 653q-33 -14 -58 -34.5t-29 -40.5q18 -1 36 -9t32 -21.5t23 -32t9 -41.5q0 -21 -7.5 -40.5t-22 -34t-34.5 -23.5t-44 -9q-46 0 -79 33.5t-33 96.5q0 70 44 129t122 100zM239 653q-33 -14 -58 -34.5t-29 -40.5q18 -1 36 -9t32 -21.5t23 -32t9 -41.5q0 -21 -7.5 -40.5 t-22 -34t-34.5 -23.5t-44 -9q-46 0 -79 33.5t-33 96.5q0 70 44 129t122 100z" />
<glyph unicode="&#x201d;" horiz-adv-x="527" d="M37 440q33 14 58 34.5t29 40.5q-18 1 -36 9t-32 21.5t-23 32t-9 41.5q0 21 7.5 40.5t22 34t34.5 23.5t44 9q46 0 79 -33.5t33 -96.5q0 -70 -44 -129t-122 -100zM305 440q33 14 58 34.5t29 40.5q-18 1 -36 9t-32 21.5t-23 32t-9 41.5q0 21 7.5 40.5t22 34t34.5 23.5t44 9 q46 0 79 -33.5t33 -96.5q0 -70 -44 -129t-122 -100z" />
<glyph unicode="&#x201e;" horiz-adv-x="563" d="M51 -76q33 14 58 34.5t29 40.5q-18 1 -36 9t-32 21.5t-23 32t-9 41.5q0 21 7.5 40.5t22 34t34.5 23.5t44 9q46 0 79 -33.5t33 -96.5q0 -70 -44 -129t-122 -100zM319 -76q33 14 58 34.5t29 40.5q-18 1 -36 9t-32 21.5t-23 32t-9 41.5q0 21 7.5 40.5t22 34t34.5 23.5t44 9 q46 0 79 -33.5t33 -96.5q0 -70 -44 -129t-122 -100z" />
<glyph unicode="&#x2020;" horiz-adv-x="566" d="M369 384v-384h-171v384h-164v151h164v179h171v-179h163v-151h-163z" />
<glyph unicode="&#x2021;" horiz-adv-x="582" d="M377 151v-151h-171v151h-164v150h164v112h-164v150h164v151h171v-151h163v-150h-163v-112h163v-150h-163z" />
<glyph unicode="&#x2022;" horiz-adv-x="440" d="M401 333q0 -37 -14.5 -70t-39 -57.5t-58 -39t-70.5 -14.5t-70 14.5t-57.5 39t-39 57.5t-14.5 70t14.5 70.5t39 58t57.5 39t70 14.5t70.5 -14.5t58 -39t39 -58t14.5 -70.5z" />
<glyph unicode="&#x2025;" horiz-adv-x="600" d="M40 100q0 23 8.5 43t23.5 35t35 23.5t43 8.5t43 -8.5t35 -23.5t23.5 -35t8.5 -43t-8.5 -43t-23.5 -35t-35 -23.5t-43 -8.5t-43 8.5t-35 23.5t-23.5 35t-8.5 43zM340 100q0 23 8.5 43t23.5 35t35 23.5t43 8.5t43 -8.5t35 -23.5t23.5 -35t8.5 -43t-8.5 -43t-23.5 -35 t-35 -23.5t-43 -8.5t-43 8.5t-35 23.5t-23.5 35t-8.5 43z" />
<glyph unicode="&#x2026;" horiz-adv-x="900" d="M40 100q0 23 8.5 43t23.5 35t35 23.5t43 8.5t43 -8.5t35 -23.5t23.5 -35t8.5 -43t-8.5 -43t-23.5 -35t-35 -23.5t-43 -8.5t-43 8.5t-35 23.5t-23.5 35t-8.5 43zM340 100q0 23 8.5 43t23.5 35t35 23.5t43 8.5t43 -8.5t35 -23.5t23.5 -35t8.5 -43t-8.5 -43t-23.5 -35 t-35 -23.5t-43 -8.5t-43 8.5t-35 23.5t-23.5 35t-8.5 43zM640 100q0 23 8.5 43t23.5 35t35 23.5t43 8.5t43 -8.5t35 -23.5t23.5 -35t8.5 -43t-8.5 -43t-23.5 -35t-35 -23.5t-43 -8.5t-43 8.5t-35 23.5t-23.5 35t-8.5 43z" />
<glyph unicode="&#x202f;" horiz-adv-x="196" />
<glyph unicode="&#x2030;" horiz-adv-x="1192" d="M247 0h-134l455 714h134zM366 559q0 -34 -13 -64.5t-35.5 -53t-53 -35.5t-64.5 -13q-35 0 -65 13t-52.5 35.5t-35.5 53t-13 64.5t13 64.5t35.5 53.5t52.5 36t65 13q34 0 64.5 -13t53 -36t35.5 -53.5t13 -64.5zM261 559q0 26 -17.5 43.5t-43.5 17.5t-43.5 -17.5 t-17.5 -43.5q0 -25 17.5 -42.5t43.5 -17.5t43.5 17.5t17.5 42.5zM780 154q0 -34 -13 -64.5t-35.5 -53t-53 -35.5t-64.5 -13q-35 0 -65 13t-52.5 35.5t-35.5 53t-13 64.5t13 64.5t35.5 53.5t52.5 36t65 13q34 0 64.5 -13t53 -36t35.5 -53.5t13 -64.5zM675 154 q0 26 -17.5 43.5t-43.5 17.5t-43.5 -17.5t-17.5 -43.5q0 -25 17.5 -42.5t43.5 -17.5t43.5 17.5t17.5 42.5zM1162 154q0 -34 -13 -64.5t-35.5 -53t-53 -35.5t-64.5 -13q-35 0 -65 13t-52.5 35.5t-35.5 53t-13 64.5t13 64.5t35.5 53.5t52.5 36t65 13q34 0 64.5 -13t53 -36 t35.5 -53.5t13 -64.5zM1057 154q0 26 -17.5 43.5t-43.5 17.5t-43.5 -17.5t-17.5 -43.5q0 -25 17.5 -42.5t43.5 -17.5t43.5 17.5t17.5 42.5z" />
<glyph unicode="&#x2039;" horiz-adv-x="297" d="M268 88l-84 -62l-170 209v68l170 209l84 -62l-107 -181z" />
<glyph unicode="&#x203a;" horiz-adv-x="297" d="M29 450l84 62l170 -209v-68l-170 -209l-84 62l107 181z" />
<glyph unicode="&#x2044;" horiz-adv-x="200" d="M-61 0h-134l455 714h134z" />
<glyph unicode="&#x205f;" horiz-adv-x="246" />
<glyph unicode="&#x2070;" horiz-adv-x="420" d="M396 592q0 -48 -9.5 -89.5t-31.5 -71.5t-58 -47.5t-89 -17.5t-88.5 17.5t-57 47.5t-30.5 71.5t-9 89.5q0 47 9 88t30.5 71t57 47t88.5 17t89 -17t58 -47t31.5 -71t9.5 -88zM258 592q0 23 -2 43.5t-7 36.5t-15 25t-26 9t-25.5 -9t-14.5 -25t-6.5 -36.5t-1.5 -43.5t1.5 -44 t6.5 -37t14.5 -25.5t25.5 -9.5t26 9.5t15 25.5t7 37t2 44z" />
<glyph unicode="&#x2074;" horiz-adv-x="420" d="M351 453v-79h-131v79h-205v93q17 31 30.5 65.5t23 69t14.5 67t5 59.5h133q0 -56 -19 -118.5t-52 -125.5h73v138h128v-138h53v-110h-53z" />
<glyph unicode="&#x2075;" horiz-adv-x="420" d="M397 518q0 -26 -11.5 -53t-34.5 -49t-58.5 -36t-84.5 -14q-58 0 -104.5 22.5t-80.5 60.5l92 67q18 -17 41 -25.5t48 -8.5q20 0 37 12t17 32q0 19 -15 31.5t-44 12.5q-41 0 -71 -34l-80 29l16 242h309v-121h-200q-1 -7 -4 -22.5t-6 -23.5q16 11 37 16t38 5q33 0 62 -8.5 t50.5 -26t34 -44.5t12.5 -64z" />
<glyph unicode="&#x2076;" horiz-adv-x="420" d="M397 535q0 -38 -13.5 -69t-38 -53.5t-58.5 -34.5t-76 -12q-87 0 -137.5 44.5t-50.5 130.5q0 41 10.5 77.5t28.5 69.5t43 62.5t54 56.5h190q-29 -19 -51.5 -34.5t-40 -30.5t-31.5 -31t-25 -35q11 7 25 9t23 2q65 0 106.5 -40.5t41.5 -111.5zM258 534q0 26 -12 41.5 t-35 15.5q-25 0 -37 -16.5t-12 -41.5q0 -26 12 -41.5t37 -15.5q23 0 35 16t12 42z" />
<glyph unicode="&#x2077;" horiz-adv-x="420" d="M401 719q-33 -39 -62 -80.5t-49.5 -85t-31.5 -88.5t-8 -91h-153q0 52 13 97.5t33 84.5t44 71.5t46 58.5h-195v121h363v-88z" />
<glyph unicode="&#x2078;" horiz-adv-x="420" d="M398 501q0 -64 -49.5 -99.5t-138.5 -35.5t-138.5 35.5t-49.5 99.5q0 27 12.5 55t44.5 45q-17 13 -30.5 34t-13.5 52q0 63 45.5 95.5t129.5 32.5q85 0 129.5 -32.5t44.5 -95.5q0 -31 -13.5 -52t-30.5 -34q34 -17 46 -44.5t12 -55.5zM250 682q0 20 -12.5 29t-27.5 9 q-16 0 -28 -9t-12 -29q0 -22 12 -31t27 -9q16 0 28.5 9t12.5 31zM263 507q0 25 -16.5 36t-36.5 11t-36.5 -11t-16.5 -36q0 -24 16.5 -35t36.5 -11t36.5 11t16.5 35z" />
<glyph unicode="&#x2079;" horiz-adv-x="420" d="M23 646q0 38 13.5 69t38 53.5t58.5 34.5t76 12q87 0 137.5 -44.5t50.5 -130.5q0 -41 -10.5 -77.5t-28.5 -69.5t-43 -62.5t-54 -56.5h-190q29 19 51.5 34.5t40 30.5t31.5 31t25 35q-11 -7 -25 -9t-23 -2q-65 0 -106.5 40.5t-41.5 111.5zM162 647q0 -26 12 -41.5t35 -15.5 q25 0 37 16.5t12 41.5q0 26 -12 41.5t-37 15.5q-23 0 -35 -16t-12 -42z" />
<glyph unicode="&#x2080;" horiz-adv-x="420" d="M396 125q0 -48 -9.5 -89.5t-31.5 -71.5t-58 -47.5t-89 -17.5t-88.5 17.5t-57 47.5t-30.5 71.5t-9 89.5q0 47 9 88t30.5 71t57 47t88.5 17t89 -17t58 -47t31.5 -71t9.5 -88zM258 125q0 23 -2 43.5t-7 36.5t-15 25t-26 9t-25.5 -9t-14.5 -25t-6.5 -36.5t-1.5 -43.5t1.5 -44 t6.5 -37t14.5 -25.5t25.5 -9.5t26 9.5t15 25.5t7 37t2 44z" />
<glyph unicode="&#x2081;" horiz-adv-x="420" d="M159 21v179q-20 -5 -46 -9t-52 -7l-17 103q55 8 90.5 20.5t59.5 32.5h101v-319h80v-114h-314v114h98z" />
<glyph unicode="&#x2082;" horiz-adv-x="420" d="M37 -93v96q58 39 97 67.5t62.5 50t33 39t9.5 34.5t-11.5 27t-30.5 10t-37 -13t-31 -42l-109 56q30 51 77 83.5t112 32.5q39 0 71 -10t55 -28.5t36 -46t13 -62.5q0 -45 -30.5 -89t-96.5 -85h132v-120h-352z" />
<glyph unicode="&#x2083;" horiz-adv-x="420" d="M402 40q0 -29 -12.5 -54.5t-36.5 -45t-58.5 -30.5t-78.5 -11q-149 0 -198 132l112 32q14 -30 38.5 -39t49.5 -9q20 0 32 7.5t12 21.5q0 13 -13.5 19.5t-32.5 6.5h-57v109h55q13 0 26 6.5t13 19.5q0 14 -13 20.5t-27 6.5q-25 0 -47 -10t-36 -36l-105 43q34 63 81.5 91 t112.5 28q33 0 63.5 -7.5t54 -23.5t37.5 -41t14 -59q0 -29 -11 -49.5t-32 -34.5q29 -14 43 -39.5t14 -53.5z" />
<glyph unicode="&#x2084;" horiz-adv-x="420" d="M351 -14v-79h-131v79h-205v93q17 31 30.5 65.5t23 69t14.5 67t5 59.5h133q0 -56 -19 -118.5t-52 -125.5h73v138h128v-138h53v-110h-53z" />
<glyph unicode="&#x2085;" horiz-adv-x="420" d="M397 51q0 -26 -11.5 -53t-34.5 -49t-58.5 -36t-84.5 -14q-58 0 -104.5 22.5t-80.5 60.5l92 67q18 -17 41 -25.5t48 -8.5q20 0 37 12t17 32q0 19 -15 31.5t-44 12.5q-41 0 -71 -34l-80 29l16 242h309v-121h-200q-1 -7 -4 -22.5t-6 -23.5q16 11 37 16t38 5q33 0 62 -8.5 t50.5 -26t34 -44.5t12.5 -64z" />
<glyph unicode="&#x2086;" horiz-adv-x="420" d="M397 68q0 -38 -13.5 -69t-38 -53.5t-58.5 -34.5t-76 -12q-87 0 -137.5 44.5t-50.5 130.5q0 41 10.5 77.5t28.5 69.5t43 62.5t54 56.5h190q-29 -19 -51.5 -34.5t-40 -30.5t-31.5 -31t-25 -35q11 7 25 9t23 2q65 0 106.5 -40.5t41.5 -111.5zM258 67q0 26 -12 41.5t-35 15.5 q-25 0 -37 -16.5t-12 -41.5q0 -26 12 -41.5t37 -15.5q23 0 35 16t12 42z" />
<glyph unicode="&#x2087;" horiz-adv-x="420" d="M391 252q-33 -39 -62 -80.5t-50 -85t-31.5 -88.5t-7.5 -91h-153q0 52 13 97.5t33 84.5t44 71.5t46 58.5h-195v121h363v-88z" />
<glyph unicode="&#x2088;" horiz-adv-x="420" d="M398 34q0 -64 -49.5 -99.5t-138.5 -35.5t-138.5 35.5t-49.5 99.5q0 27 12.5 55t44.5 45q-17 13 -30.5 34t-13.5 52q0 63 45.5 95.5t129.5 32.5q85 0 129.5 -32.5t44.5 -95.5q0 -31 -13.5 -52t-30.5 -34q34 -17 46 -44.5t12 -55.5zM250 215q0 20 -12.5 29t-27.5 9 q-16 0 -28 -9t-12 -29q0 -22 12 -31t27 -9q16 0 28.5 9t12.5 31zM263 40q0 25 -16.5 36t-36.5 11t-36.5 -11t-16.5 -36q0 -24 16.5 -35t36.5 -11t36.5 11t16.5 35z" />
<glyph unicode="&#x2089;" horiz-adv-x="420" d="M23 179q0 38 13.5 69t38 53.5t58.5 34.5t76 12q87 0 137.5 -44.5t50.5 -130.5q0 -41 -10.5 -77.5t-28.5 -69.5t-43 -62.5t-54 -56.5h-190q29 19 51.5 34.5t40 30.5t31.5 31t25 35q-11 -7 -25 -9t-23 -2q-65 0 -106.5 40.5t-41.5 111.5zM162 180q0 -26 12 -41.5t35 -15.5 q25 0 37 16.5t12 41.5q0 26 -12 41.5t-37 15.5q-23 0 -35 -16t-12 -42z" />
<glyph unicode="&#x20ac;" d="M376 -12q-56 0 -106.5 16t-91.5 49.5t-69.5 84t-41.5 119.5h-69v74h60q-1 7 -1 13.5v13.5v11t1 11h-60v71h70q13 66 43 117t72 86t94.5 53t110.5 18q63 0 111.5 -18t82.5 -42l-72 -144q-24 23 -52 33t-57 10q-100 0 -139 -113h215l-35 -71h-194q-1 -5 -1.5 -10.5 t-0.5 -12.5q0 -6 0.5 -12.5t1.5 -13.5h170l-38 -74h-120q14 -59 49 -83t79 -24q48 0 81 19.5t49 37.5l72 -137q-42 -39 -94.5 -60.5t-119.5 -21.5z" />
<glyph unicode="&#x2113;" horiz-adv-x="592" d="M32 268q33 11 61.5 21t54.5 21v156q0 46 11 84.5t34 67t58.5 44.5t84.5 16q44 0 78 -13t57 -36.5t35 -55.5t12 -71q0 -32 -10 -65t-34.5 -65.5t-67 -65.5t-108.5 -65v-59q0 -33 17.5 -44t39.5 -11q20 0 36.5 6.5t29.5 15.5t22.5 19.5t16.5 19.5l96 -96q-14 -18 -34 -36.5 t-46.5 -33.5t-60.5 -24.5t-77 -9.5q-93 0 -141.5 46.5t-48.5 139.5v3q-18 -6 -37 -12.5t-39 -12.5zM298 391q47 31 62 61.5t15 53.5q0 24 -10 36t-27 12q-21 0 -30.5 -17t-9.5 -45v-101z" />
<glyph unicode="&#x2116;" horiz-adv-x="1265" d="M889 383q0 -48 25 -79.5t69 -31.5t68.5 31.5t24.5 79.5t-24.5 79.5t-68.5 31.5t-69 -31.5t-25 -79.5zM768 75h431v-75h-431v75zM756 383q0 50 17.5 91.5t48.5 71.5t72.5 46.5t88.5 16.5t88.5 -16.5t72.5 -46.5t49 -71.5t18 -91.5t-18 -91.5t-49 -71t-72.5 -46 t-88.5 -16.5t-88.5 16.5t-72.5 46t-48.5 71t-17.5 91.5zM184 714h143l205 -449q-5 68 -7.5 122t-2.5 95q0 64 8 104.5t28 69.5q21 31 57 50.5t84 19.5q38 0 67 -12.5t49 -33.5l-67 -84q-14 14 -34 14q-22 0 -34 -15t-17.5 -41t-6.5 -62t-1 -78v-414h-143l-205 449 q5 -68 7.5 -122t2.5 -95q0 -64 -8 -104.5t-28 -69.5q-21 -31 -57 -50.5t-84 -19.5q-38 0 -67 12.5t-49 33.5l67 84q14 -14 34 -14q22 0 34 15t17.5 41t6.5 62t1 78v414z" />
<glyph unicode="&#x2117;" horiz-adv-x="826" d="M37 357q0 78 29.5 146.5t80.5 119.5t119.5 80.5t146.5 29.5t146.5 -29.5t119.5 -80.5t80.5 -119.5t29.5 -146.5t-29.5 -146.5t-80.5 -119.5t-119.5 -80.5t-146.5 -29.5t-146.5 29.5t-119.5 80.5t-80.5 119.5t-29.5 146.5zM97 357q0 -66 25 -123.5t67.5 -100t100 -67.5 t123.5 -25t123.5 25t100 67.5t67.5 100t25 123.5t-25 123.5t-67.5 100t-100 67.5t-123.5 25t-123.5 -25t-100 -67.5t-67.5 -100t-25 -123.5zM393 270v-108h-138v393h192q43 0 74 -12t50 -31.5t28 -46t9 -54.5q0 -29 -9 -54.5t-29 -44.5t-51.5 -30.5t-75.5 -11.5h-50z M470 410q0 19 -9.5 32.5t-32.5 13.5h-35v-90h35q23 0 32.5 12t9.5 32z" />
<glyph unicode="&#x2122;" horiz-adv-x="773" d="M632 404v201l-64 -201h-56l-64 201v-201h-86v310h118l60 -197l60 197h118v-310h-86zM227 627v-223h-90v223h-94v87h280v-87h-96z" />
<glyph unicode="&#x212e;" horiz-adv-x="609" d="M157 273v-187q31 -30 68 -45.5t82 -15.5q65 0 113 29t86 95l36 -22q-24 -37 -48.5 -63t-52.5 -43t-61 -25t-73 -8q-61 0 -110 22t-83.5 60.5t-53.5 90.5t-19 112t19 112t53.5 90.5t83.5 60.5t110 22q60 0 109 -21t84 -59t54.5 -90t19.5 -115h-417zM458 310v150 q-67 62 -152 62q-45 0 -81.5 -16t-67.5 -46v-150h301z" />
<glyph unicode="&#x2153;" horiz-adv-x="1040" d="M159 395v179q-20 -5 -46 -9t-52 -7l-17 103q55 8 90.5 20.5t59.5 32.5h101v-319h80v-114h-314v114h98zM1022 133q0 -29 -12.5 -54.5t-36.5 -45t-58.5 -30.5t-78.5 -11q-149 0 -198 132l112 32q14 -30 38.5 -39t49.5 -9q20 0 32 7.5t12 21.5q0 13 -13.5 19.5t-32.5 6.5 h-57v109h55q13 0 26 6.5t13 19.5q0 14 -13 20.5t-27 6.5q-25 0 -47 -10t-36 -36l-105 43q34 63 81.5 91t112.5 28q33 0 63.5 -7.5t54 -23.5t37.5 -41t14 -59q0 -29 -11 -49.5t-32 -34.5q29 -14 43 -39.5t14 -53.5zM359 0h-134l455 714h134z" />
<glyph unicode="&#x2154;" horiz-adv-x="1040" d="M37 281v96q58 39 97 67.5t62.5 50t33 39t9.5 34.5t-11.5 27t-30.5 10t-37 -13t-31 -42l-109 56q30 51 77 83.5t112 32.5q39 0 71 -10t55 -28.5t36 -46t13 -62.5q0 -45 -30.5 -89t-96.5 -85h132v-120h-352zM1022 133q0 -29 -12.5 -54.5t-36.5 -45t-58.5 -30.5t-78.5 -11 q-149 0 -198 132l112 32q14 -30 38.5 -39t49.5 -9q20 0 32 7.5t12 21.5q0 13 -13.5 19.5t-32.5 6.5h-57v109h55q13 0 26 6.5t13 19.5q0 14 -13 20.5t-27 6.5q-25 0 -47 -10t-36 -36l-105 43q34 63 81.5 91t112.5 28q33 0 63.5 -7.5t54 -23.5t37.5 -41t14 -59 q0 -29 -11 -49.5t-32 -34.5q29 -14 43 -39.5t14 -53.5zM359 0h-134l455 714h134z" />
<glyph unicode="&#x2155;" horiz-adv-x="1040" d="M159 395v179q-20 -5 -46 -9t-52 -7l-17 103q55 8 90.5 20.5t59.5 32.5h101v-319h80v-114h-314v114h98zM1017 144q0 -26 -11.5 -53t-34.5 -49t-58.5 -36t-84.5 -14q-58 0 -104.5 22.5t-80.5 60.5l92 67q18 -17 41 -25.5t48 -8.5q20 0 37 12t17 32q0 19 -15 31.5t-44 12.5 q-41 0 -71 -34l-80 29l16 242h309v-121h-200q-1 -7 -4 -22.5t-6 -23.5q16 11 37 16t38 5q33 0 62 -8.5t50.5 -26t34 -44.5t12.5 -64zM359 0h-134l455 714h134z" />
<glyph unicode="&#x2156;" horiz-adv-x="1040" d="M37 281v96q58 39 97 67.5t62.5 50t33 39t9.5 34.5t-11.5 27t-30.5 10t-37 -13t-31 -42l-109 56q30 51 77 83.5t112 32.5q39 0 71 -10t55 -28.5t36 -46t13 -62.5q0 -45 -30.5 -89t-96.5 -85h132v-120h-352zM1017 144q0 -26 -11.5 -53t-34.5 -49t-58.5 -36t-84.5 -14 q-58 0 -104.5 22.5t-80.5 60.5l92 67q18 -17 41 -25.5t48 -8.5q20 0 37 12t17 32q0 19 -15 31.5t-44 12.5q-41 0 -71 -34l-80 29l16 242h309v-121h-200q-1 -7 -4 -22.5t-6 -23.5q16 11 37 16t38 5q33 0 62 -8.5t50.5 -26t34 -44.5t12.5 -64zM359 0h-134l455 714h134z" />
<glyph unicode="&#x2157;" horiz-adv-x="1040" d="M402 414q0 -29 -12.5 -54.5t-36.5 -45t-58.5 -30.5t-78.5 -11q-149 0 -198 132l112 32q14 -30 38.5 -39t49.5 -9q20 0 32 7.5t12 21.5q0 13 -13.5 19.5t-32.5 6.5h-57v109h55q13 0 26 6.5t13 19.5q0 14 -13 20.5t-27 6.5q-25 0 -47 -10t-36 -36l-105 43q34 63 81.5 91 t112.5 28q33 0 63.5 -7.5t54 -23.5t37.5 -41t14 -59q0 -29 -11 -49.5t-32 -34.5q29 -14 43 -39.5t14 -53.5zM1017 144q0 -26 -11.5 -53t-34.5 -49t-58.5 -36t-84.5 -14q-58 0 -104.5 22.5t-80.5 60.5l92 67q18 -17 41 -25.5t48 -8.5q20 0 37 12t17 32q0 19 -15 31.5 t-44 12.5q-41 0 -71 -34l-80 29l16 242h309v-121h-200q-1 -7 -4 -22.5t-6 -23.5q16 11 37 16t38 5q33 0 62 -8.5t50.5 -26t34 -44.5t12.5 -64zM359 0h-134l455 714h134z" />
<glyph unicode="&#x2158;" horiz-adv-x="1040" d="M351 360v-79h-131v79h-205v93q17 31 30.5 65.5t23 69t14.5 67t5 59.5h133q0 -56 -19 -118.5t-52 -125.5h73v138h128v-138h53v-110h-53zM1017 144q0 -26 -11.5 -53t-34.5 -49t-58.5 -36t-84.5 -14q-58 0 -104.5 22.5t-80.5 60.5l92 67q18 -17 41 -25.5t48 -8.5q20 0 37 12 t17 32q0 19 -15 31.5t-44 12.5q-41 0 -71 -34l-80 29l16 242h309v-121h-200q-1 -7 -4 -22.5t-6 -23.5q16 11 37 16t38 5q33 0 62 -8.5t50.5 -26t34 -44.5t12.5 -64zM359 0h-134l455 714h134z" />
<glyph unicode="&#x2159;" horiz-adv-x="1040" d="M159 395v179q-20 -5 -46 -9t-52 -7l-17 103q55 8 90.5 20.5t59.5 32.5h101v-319h80v-114h-314v114h98zM1017 161q0 -38 -13.5 -69t-38 -53.5t-58.5 -34.5t-76 -12q-87 0 -137.5 44.5t-50.5 130.5q0 41 10.5 77.5t28.5 69.5t43 62.5t54 56.5h190q-29 -19 -51.5 -34.5 t-40 -30.5t-31.5 -31t-25 -35q11 7 25 9t23 2q65 0 106.5 -40.5t41.5 -111.5zM878 160q0 26 -12 41.5t-35 15.5q-25 0 -37 -16.5t-12 -41.5q0 -26 12 -41.5t37 -15.5q23 0 35 16t12 42zM359 0h-134l455 714h134z" />
<glyph unicode="&#x215a;" horiz-adv-x="1040" d="M397 425q0 -26 -11.5 -53t-34.5 -49t-58.5 -36t-84.5 -14q-58 0 -104.5 22.5t-80.5 60.5l92 67q18 -17 41 -25.5t48 -8.5q20 0 37 12t17 32q0 19 -15 31.5t-44 12.5q-41 0 -71 -34l-80 29l16 242h309v-121h-200q-1 -7 -4 -22.5t-6 -23.5q16 11 37 16t38 5q33 0 62 -8.5 t50.5 -26t34 -44.5t12.5 -64zM1017 161q0 -38 -13.5 -69t-38 -53.5t-58.5 -34.5t-76 -12q-87 0 -137.5 44.5t-50.5 130.5q0 41 10.5 77.5t28.5 69.5t43 62.5t54 56.5h190q-29 -19 -51.5 -34.5t-40 -30.5t-31.5 -31t-25 -35q11 7 25 9t23 2q65 0 106.5 -40.5t41.5 -111.5z M878 160q0 26 -12 41.5t-35 15.5q-25 0 -37 -16.5t-12 -41.5q0 -26 12 -41.5t37 -15.5q23 0 35 16t12 42zM359 0h-134l455 714h134z" />
<glyph unicode="&#x215b;" horiz-adv-x="1040" d="M159 395v179q-20 -5 -46 -9t-52 -7l-17 103q55 8 90.5 20.5t59.5 32.5h101v-319h80v-114h-314v114h98zM1018 127q0 -64 -49.5 -99.5t-138.5 -35.5t-138.5 35.5t-49.5 99.5q0 27 12.5 55t44.5 45q-17 13 -30.5 34t-13.5 52q0 63 45.5 95.5t129.5 32.5q85 0 129.5 -32.5 t44.5 -95.5q0 -31 -13.5 -52t-30.5 -34q34 -17 46 -44.5t12 -55.5zM870 308q0 20 -12.5 29t-27.5 9q-16 0 -28 -9t-12 -29q0 -22 12 -31t27 -9q16 0 28.5 9t12.5 31zM883 133q0 25 -16.5 36t-36.5 11t-36.5 -11t-16.5 -36q0 -24 16.5 -35t36.5 -11t36.5 11t16.5 35zM359 0 h-134l455 714h134z" />
<glyph unicode="&#x215c;" horiz-adv-x="1040" d="M402 414q0 -29 -12.5 -54.5t-36.5 -45t-58.5 -30.5t-78.5 -11q-149 0 -198 132l112 32q14 -30 38.5 -39t49.5 -9q20 0 32 7.5t12 21.5q0 13 -13.5 19.5t-32.5 6.5h-57v109h55q13 0 26 6.5t13 19.5q0 14 -13 20.5t-27 6.5q-25 0 -47 -10t-36 -36l-105 43q34 63 81.5 91 t112.5 28q33 0 63.5 -7.5t54 -23.5t37.5 -41t14 -59q0 -29 -11 -49.5t-32 -34.5q29 -14 43 -39.5t14 -53.5zM1018 127q0 -64 -49.5 -99.5t-138.5 -35.5t-138.5 35.5t-49.5 99.5q0 27 12.5 55t44.5 45q-17 13 -30.5 34t-13.5 52q0 63 45.5 95.5t129.5 32.5q85 0 129.5 -32.5 t44.5 -95.5q0 -31 -13.5 -52t-30.5 -34q34 -17 46 -44.5t12 -55.5zM870 308q0 20 -12.5 29t-27.5 9q-16 0 -28 -9t-12 -29q0 -22 12 -31t27 -9q16 0 28.5 9t12.5 31zM883 133q0 25 -16.5 36t-36.5 11t-36.5 -11t-16.5 -36q0 -24 16.5 -35t36.5 -11t36.5 11t16.5 35zM359 0 h-134l455 714h134z" />
<glyph unicode="&#x215d;" horiz-adv-x="1040" d="M397 425q0 -26 -11.5 -53t-34.5 -49t-58.5 -36t-84.5 -14q-58 0 -104.5 22.5t-80.5 60.5l92 67q18 -17 41 -25.5t48 -8.5q20 0 37 12t17 32q0 19 -15 31.5t-44 12.5q-41 0 -71 -34l-80 29l16 242h309v-121h-200q-1 -7 -4 -22.5t-6 -23.5q16 11 37 16t38 5q33 0 62 -8.5 t50.5 -26t34 -44.5t12.5 -64zM1018 127q0 -64 -49.5 -99.5t-138.5 -35.5t-138.5 35.5t-49.5 99.5q0 27 12.5 55t44.5 45q-17 13 -30.5 34t-13.5 52q0 63 45.5 95.5t129.5 32.5q85 0 129.5 -32.5t44.5 -95.5q0 -31 -13.5 -52t-30.5 -34q34 -17 46 -44.5t12 -55.5zM870 308 q0 20 -12.5 29t-27.5 9q-16 0 -28 -9t-12 -29q0 -22 12 -31t27 -9q16 0 28.5 9t12.5 31zM883 133q0 25 -16.5 36t-36.5 11t-36.5 -11t-16.5 -36q0 -24 16.5 -35t36.5 -11t36.5 11t16.5 35zM359 0h-134l455 714h134z" />
<glyph unicode="&#x215e;" horiz-adv-x="1040" d="M401 626q-33 -39 -62 -80.5t-49.5 -85t-31.5 -88.5t-8 -91h-153q0 52 13 97.5t33 84.5t44 71.5t46 58.5h-195v121h363v-88zM1018 127q0 -64 -49.5 -99.5t-138.5 -35.5t-138.5 35.5t-49.5 99.5q0 27 12.5 55t44.5 45q-17 13 -30.5 34t-13.5 52q0 63 45.5 95.5t129.5 32.5 q85 0 129.5 -32.5t44.5 -95.5q0 -31 -13.5 -52t-30.5 -34q34 -17 46 -44.5t12 -55.5zM870 308q0 20 -12.5 29t-27.5 9q-16 0 -28 -9t-12 -29q0 -22 12 -31t27 -9q16 0 28.5 9t12.5 31zM883 133q0 25 -16.5 36t-36.5 11t-36.5 -11t-16.5 -36q0 -24 16.5 -35t36.5 -11t36.5 11 t16.5 35zM359 0h-134l455 714h134z" />
<glyph unicode="&#x2190;" horiz-adv-x="918" d="M817 283h-456l175 -175l-101 -100l-347 349l347 349l101 -100l-175 -175h456v-148z" />
<glyph unicode="&#x2191;" horiz-adv-x="918" d="M385 0v455l-175 -174l-100 101l349 347l349 -347l-100 -101l-175 174v-455h-148z" />
<glyph unicode="&#x2192;" horiz-adv-x="918" d="M101 431h455l-174 175l101 100l347 -349l-347 -349l-101 100l174 175h-455v148z" />
<glyph unicode="&#x2193;" horiz-adv-x="918" d="M533 714v-456l175 175l100 -101l-349 -347l-349 347l100 101l175 -175v456h148z" />
<glyph unicode="&#x2196;" horiz-adv-x="918" d="M189 134v493h493v-141h-247l322 -322l-105 -105l-322 322v-247h-141z" />
<glyph unicode="&#x2197;" horiz-adv-x="918" d="M588 134v247l-322 -322l-105 105l322 322h-247v141h493v-493h-141z" />
<glyph unicode="&#x2198;" horiz-adv-x="918" d="M729 580v-493h-493v141h247l-322 322l105 105l322 -322v247h141z" />
<glyph unicode="&#x2199;" horiz-adv-x="918" d="M330 580v-247l322 322l105 -105l-322 -322h247v-141h-493v493h141z" />
<glyph unicode="&#x2202;" horiz-adv-x="659" d="M327 726q67 -31 120.5 -76t91 -99.5t57.5 -118t20 -132.5t-18 -126.5t-55 -98.5t-92 -64t-129 -23q-62 0 -114.5 17t-91 50.5t-60.5 83t-22 113.5q0 51 17 96.5t49 80.5t77 55.5t102 20.5q60 0 110 -28q-20 31 -46.5 56t-55.5 45t-60 36t-59 29zM433 246q0 48 -27.5 80 t-77.5 32t-75.5 -32t-25.5 -80q0 -49 25.5 -79.5t75.5 -30.5q51 0 78 31t27 79z" />
<glyph unicode="&#x220f;" horiz-adv-x="614" d="M507 604v-604h-110v604h-180v-604h-110v604h-70v110h540v-110h-70z" />
<glyph unicode="&#x2211;" horiz-adv-x="594" d="M546 0h-513v24l270 333l-270 333v24h513v-110h-292l195 -247l-195 -247h292v-110z" />
<glyph unicode="&#x2212;" d="M36 193v150h536v-150h-536z" />
<glyph unicode="&#x221a;" horiz-adv-x="564" d="M576 715l-374 -745h-12l-189 364l98 51l96 -185l283 564z" />
<glyph unicode="&#x221e;" horiz-adv-x="808" d="M763 275q0 -38 -14 -71t-39 -57.5t-58 -38.5t-70 -14q-36 0 -66.5 11t-59.5 40l-52 52l-52 -52q-29 -29 -59 -40t-67 -11q-38 0 -70.5 14t-57.5 38.5t-39 57.5t-14 71t14 71t39 57.5t57.5 38.5t70.5 14q37 0 67 -11t59 -40l52 -52l52 52q29 29 59.5 40t66.5 11 q37 0 70 -14t58 -38.5t39 -57.5t14 -71zM277 323q-21 21 -51 21q-29 0 -49 -20t-20 -49t20 -49t49 -20q30 0 51 21v1q9 8 14 13.5t10 10.5t10 10.5t14 13.5zM651 275q0 29 -20 49t-49 20q-30 0 -51 -21v-1q-9 -8 -14 -13.5t-9.5 -10t-9.5 -10t-14 -13.5l47 -47 q22 -22 51 -22t49 20t20 49z" />
<glyph unicode="&#x222b;" horiz-adv-x="337" d="M62 7q8 -7 15.5 -10.5t18.5 -3.5q40 0 40 44q0 16 -2.5 46.5t-6.5 69.5t-9 83t-9 86q-5 49 -9.5 96t-8 87t-5.5 71.5t-2 50.5q0 59 34 90.5t94 31.5q41 0 68 -11.5t46 -27.5l-50 -69q-8 7 -15.5 10.5t-18.5 3.5q-40 0 -40 -44q0 -16 2.5 -46.5t6.5 -69.5t8.5 -83t9.5 -86 q5 -50 9.5 -96.5t8 -86.5t5.5 -71.5t2 -50.5q0 -59 -34 -90.5t-94 -31.5q-41 0 -68 11.5t-46 27.5z" />
<glyph unicode="&#x2248;" d="M573 414q-12 -15 -27.5 -33t-35.5 -33.5t-43.5 -25.5t-51.5 -10q-31 0 -56.5 9t-63.5 26q-33 14 -57.5 22t-44.5 8q-26 0 -55 -10.5t-58 -33.5l-45 60q12 15 27.5 33t35.5 33t43.5 25t51.5 10q31 0 56.5 -9t63.5 -25q33 -14 57.5 -22.5t44.5 -8.5q26 0 54.5 10.5 t58.5 33.5zM573 218q-12 -15 -27.5 -33t-35.5 -33.5t-43.5 -25.5t-51.5 -10q-31 0 -56.5 9t-63.5 26q-33 14 -57.5 22t-44.5 8q-26 0 -55 -10.5t-58 -33.5l-45 60q12 15 27.5 33t35.5 33t43.5 25t51.5 10q31 0 56.5 -9t63.5 -25q33 -14 57.5 -22.5t44.5 -8.5q26 0 54.5 10.5 t58.5 33.5z" />
<glyph unicode="&#x2260;" d="M153 -10l44 131h-159v120h199l23 70h-222v121h263l44 132h110l-44 -132h158v-121h-198l-24 -70h222v-120h-262l-43 -131h-111z" />
<glyph unicode="&#x2264;" d="M495 723l65 -135l-237 -128l237 -128l-65 -135l-458 263zM36 0v150h536v-150h-536z" />
<glyph unicode="&#x2265;" d="M571 460l-458 -263l-65 135l237 128l-237 128l65 135zM36 0v150h536v-150h-536z" />
<glyph unicode="&#x25a0;" horiz-adv-x="814" d="M50 0v714h714v-714h-714z" />
<glyph unicode="&#x25a1;" horiz-adv-x="814" d="M50 0v714h714v-714h-714zM714 50v614h-614v-614h614z" />
<glyph unicode="&#x25b2;" horiz-adv-x="532" d="M500 0h-468l234 720z" />
<glyph unicode="&#x25b6;" horiz-adv-x="469" d="M70 710l353 -353l-353 -353v706z" />
<glyph unicode="&#x25b7;" horiz-adv-x="469" d="M70 710l353 -353l-353 -353v706zM114 110l247 247l-247 247v-494z" />
<glyph unicode="&#x25ba;" horiz-adv-x="830" d="M70 123v468l720 -234z" />
<glyph unicode="&#x25bb;" horiz-adv-x="830" d="M70 123v468l720 -234zM662 357l-552 179v-358z" />
<glyph unicode="&#x25bc;" horiz-adv-x="532" d="M32 714h468l-234 -720z" />
<glyph unicode="&#x25c0;" horiz-adv-x="469" d="M399 4l-353 353l353 353v-706z" />
<glyph unicode="&#x25c1;" horiz-adv-x="469" d="M399 4l-353 353l353 353v-706zM355 604l-247 -247l247 -247v494z" />
<glyph unicode="&#x25c4;" horiz-adv-x="830" d="M760 591v-468l-720 234z" />
<glyph unicode="&#x25c5;" horiz-adv-x="830" d="M760 591v-468l-720 234zM168 357l552 -179v358z" />
<glyph unicode="&#x25ca;" horiz-adv-x="600" d="M306 -48h-12l-271 401l271 401h12l271 -401zM300 572l-142 -219l142 -219l142 219z" />
<glyph unicode="&#x25cb;" horiz-adv-x="814" d="M30 357q0 78 29.5 146.5t81 120t120 81t146.5 29.5t146.5 -29.5t120 -81t81 -120t29.5 -146.5t-29.5 -146.5t-81 -120t-120 -81t-146.5 -29.5t-146.5 29.5t-120 81t-81 120t-29.5 146.5zM80 357q0 -68 26 -127.5t70 -103.5t103.5 -70t127.5 -26q67 0 127 26t104 70 t70 103.5t26 127.5q0 67 -26 127t-70 104t-104 70t-127 26q-68 0 -127.5 -26t-103.5 -70t-70 -104t-26 -127z" />
<glyph unicode="&#x25cf;" horiz-adv-x="814" d="M30 357q0 78 29.5 146.5t81 120t120 81t146.5 29.5t146.5 -29.5t120 -81t81 -120t29.5 -146.5t-29.5 -146.5t-81 -120t-120 -81t-146.5 -29.5t-146.5 29.5t-120 81t-81 120t-29.5 146.5z" />
<glyph unicode="&#x271a;" horiz-adv-x="814" d="M296 246h-246v222h246v246h222v-246h246v-222h-246v-246h-222v246z" />
<glyph unicode="&#x2765;" horiz-adv-x="582" d="M359 355q38 0 71.5 -14t58 -38.5t39 -57.5t14.5 -70q0 -38 -14.5 -71.5t-39 -58.5t-58 -39.5t-71.5 -14.5t-71 14.5t-58 39.5q-27 27 -46.5 63.5t-40.5 79.5q-38 75 -74.5 119.5t-68.5 44.5v10q32 0 68.5 44.5t74.5 119.5q19 37 38.5 75.5t48.5 67.5q25 24 58 39t71 15 t71.5 -14.5t58 -39.5t39 -58.5t14.5 -71.5t-14.5 -70.5t-39 -57.5t-58 -39t-71.5 -14v-3z" />
<glyph unicode="&#x3008;" horiz-adv-x="339" d="M324 673l-159 -316l159 -316l-134 -67l-190 379v8l190 379z" />
<glyph unicode="&#x3009;" horiz-adv-x="339" d="M15 41l159 316l-159 316l134 67l190 -379v-8l-190 -379z" />
<glyph unicode="&#x300a;" horiz-adv-x="591" d="M324 673l-159 -316l159 -316l-134 -67l-190 379v8l190 379zM576 673l-159 -316l159 -316l-134 -67l-190 379v8l190 379z" />
<glyph unicode="&#x300b;" horiz-adv-x="591" d="M267 41l159 316l-159 316l134 67l190 -379v-8l-190 -379zM15 41l159 316l-159 316l134 67l190 -379v-8l-190 -379z" />
<glyph unicode="&#xe000;" horiz-adv-x="535" d="M0 535h535v-535h-535v535z" />
<glyph unicode="&#xf6c3;" horiz-adv-x="270" d="M1 -160l69 124h165l-162 -164z" />
<glyph d="M579 358q0 -71 -14 -137.5t-46.5 -118t-85.5 -83t-131 -31.5t-130 31.5t-84 83t-45.5 118t-13.5 137.5q0 70 13.5 136.5t45.5 118t84 83t130 31.5t131 -31.5t85.5 -83t46.5 -118t14 -136.5zM389 359q0 43 -3.5 82.5t-13 70t-26.5 48.5t-44 18t-44 -18t-26 -48.5t-12 -70 t-3 -82.5q0 -44 3 -83.5t12 -70.5t26 -49t44 -18t44 18t26.5 49t13 70.5t3.5 83.5z" />
<glyph d="M77 0v157h154v364q-31 -10 -71.5 -17.5t-78.5 -11.5l-22 139q80 13 132 32t87 51h139v-557h145v-157h-485z" />
<glyph d="M42 0v134q89 66 151 116t101 90t57 73.5t18 65.5q0 42 -24 64t-59 22q-31 0 -61 -19.5t-50 -65.5l-148 80q45 78 113.5 122.5t165.5 44.5q57 0 105 -16t82.5 -46t54 -72.5t19.5 -94.5q0 -89 -60 -169t-188 -160h254v-169h-531z" />
<glyph d="M590 211q0 -47 -19.5 -87.5t-56.5 -71t-90 -48t-119 -17.5q-109 0 -184 47t-114 135l155 70q22 -52 58 -72t82 -20q54 0 76 21t22 52q0 35 -26 52.5t-74 17.5h-76v145h73q45 0 65.5 18.5t20.5 46.5q0 33 -24.5 49.5t-62.5 16.5q-39 0 -73.5 -20t-58.5 -68l-146 74 q48 90 120 132.5t168 42.5q52 0 99.5 -12.5t83.5 -38t57.5 -63t21.5 -87.5q0 -30 -8 -53.5t-21 -41.5t-30 -31.5t-36 -22.5q51 -17 84 -60t33 -106z" />
<glyph d="M514 138v-138h-186v138h-309v136q25 55 46 114t36 116.5t23 111t8 98.5h181q0 -91 -32.5 -201t-87.5 -222h140v244h181v-244h77v-153h-77z" />
<glyph d="M584 249q0 -48 -16.5 -95t-51.5 -84t-88.5 -60t-126.5 -23q-96 0 -171.5 43.5t-111.5 134.5l151 66q15 -37 46 -60t76 -23t74 25t29 70q0 44 -28 71t-75 27q-41 0 -71 -18.5t-46 -39.5l-116 43l26 388h464v-169h-319l-12 -98q23 17 57 25t68 8q49 0 93 -15.5t77 -45 t52.5 -72.5t19.5 -98z" />
<glyph d="M502 714q-88 -63 -143.5 -122.5t-85.5 -114.5q19 14 45 20t49 6q49 0 90 -17t71 -48.5t47 -76.5t17 -102q0 -61 -20.5 -111t-57.5 -86t-89 -55.5t-115 -19.5q-65 0 -117.5 18t-89.5 54t-57 89t-20 122q0 67 16 127.5t44.5 115.5t68 105t85.5 96h262zM218 256 q0 -49 22 -80.5t69 -31.5q45 0 67 31.5t22 81.5q0 51 -22 80t-67 29q-47 0 -69 -30t-22 -80z" />
<glyph d="M574 587q-41 -53 -85 -120t-80 -142.5t-57.5 -158t-16.5 -166.5h-205q0 89 24 171.5t59 153t74.5 126.5t71.5 94h-320v169h535v-127z" />
<glyph d="M379 513q0 40 -23 57.5t-52 17.5q-30 0 -52.5 -17.5t-22.5 -57.5q0 -43 22.5 -59.5t51.5 -16.5q30 0 53 16.5t23 59.5zM398 215q0 48 -28 69t-66 21q-19 0 -36 -5t-30 -16t-21 -28t-8 -41q0 -47 28.5 -67.5t66.5 -20.5t66 20t28 68zM304 -13q-71 0 -124.5 17.5 t-89.5 47.5t-54 70t-18 85q0 64 33 108t84 62q-19 10 -36 23.5t-30 32.5t-21 43.5t-8 55.5q0 48 21.5 84.5t58 61t84.5 37t100 12.5t100 -12.5t84.5 -37t58 -61t21.5 -84.5q0 -31 -8 -55.5t-21 -43.5t-30 -32.5t-36 -23.5q51 -18 84 -62t33 -108q0 -45 -18 -85t-54 -70 t-89.5 -47.5t-124.5 -17.5z" />
<glyph d="M106 0q88 63 143.5 122.5t86.5 114.5q-20 -14 -46 -20t-49 -6q-49 0 -90 17t-71 48.5t-47 76.5t-17 102q0 61 20.5 111t57.5 86t89 55.5t116 19.5t116.5 -18t90 -54t57.5 -89t20 -122q0 -68 -16.5 -128.5t-45 -115t-68 -104.5t-84.5 -96h-263zM390 458q0 49 -22 80.5 t-68 31.5t-68 -31.5t-22 -81.5q0 -51 22 -80t68 -29t68 30t22 80z" />
<glyph horiz-adv-x="318" d="M255 168v-168h-192v168l49 303h94zM49 614q0 23 8.5 43t23.5 35t35 23.5t43 8.5t43 -8.5t35 -23.5t23.5 -35t8.5 -43t-8.5 -43t-23.5 -35t-35 -23.5t-43 -8.5t-43 8.5t-35 23.5t-23.5 35t-8.5 43z" />
<glyph horiz-adv-x="581" d="M44 203q0 43 14.5 74t36 54.5t46.5 41t46.5 32t36 29t14.5 31.5v5h183v-11q0 -36 -13.5 -62t-34 -45.5t-44 -35.5t-44 -31t-34 -32t-13.5 -39q0 -29 24.5 -49t68.5 -20q29 0 69 12.5t73 46.5l80 -128q-48 -42 -108.5 -65t-134.5 -23q-60 0 -109.5 16t-84 44.5t-53.5 68 t-19 86.5zM437 613q0 -23 -8.5 -43t-23.5 -35t-35 -23.5t-43 -8.5t-43 8.5t-35 23.5t-23.5 35t-8.5 43t8.5 43t23.5 35t35 23.5t43 8.5t43 -8.5t35 -23.5t23.5 -35t8.5 -43z" />
<glyph horiz-adv-x="400" d="M50 319v160h300v-160h-300z" />
<glyph d="M36 282v150h536v-150h-536z" />
<glyph horiz-adv-x="946" d="M36 282v150h874v-150h-874z" />
<glyph horiz-adv-x="268" d="M244 357q0 -23 -9 -43t-24 -35t-35 -23.5t-42 -8.5q-23 0 -43 8.5t-35 23.5t-23.5 35t-8.5 43t8.5 43t23.5 35t35 23.5t43 8.5q22 0 42 -8.5t35 -23.5t24 -35t9 -43z" />
<glyph d="M379 282v-193h-150v193h-193v150h193v192h150v-192h193v-150h-193z" />
<glyph d="M36 282v150h536v-150h-536z" />
<glyph d="M211 543q0 19 7.5 36t20 29.5t29.5 20t36 7.5t36 -7.5t29.5 -20t20 -29.5t7.5 -36t-7.5 -36t-20 -29.5t-29.5 -20t-36 -7.5t-36 7.5t-29.5 20t-20 29.5t-7.5 36zM211 170q0 19 7.5 36t20 29.5t29.5 20t36 7.5t36 -7.5t29.5 -20t20 -29.5t7.5 -36t-7.5 -36t-20 -29.5 t-29.5 -20t-36 -7.5t-36 7.5t-29.5 20t-20 29.5t-7.5 36zM36 282v150h536v-150h-536z" />
<glyph d="M50 155v150h508v-150h-508zM50 409v150h508v-150h-508z" />
<glyph d="M411 357l169 -171l-105 -105l-171 170l-171 -170l-105 105l170 171l-170 171l105 105l171 -169l171 169l105 -105z" />
<glyph d="M316 357l172 -174l-105 -105l-280 279l280 279l105 -105z" />
<glyph d="M120 531l105 105l280 -279l-280 -279l-105 105l172 174z" />
<glyph horiz-adv-x="420" d="M396 499q0 -48 -9.5 -89.5t-31.5 -71.5t-58 -47.5t-89 -17.5t-88.5 17.5t-57 47.5t-30.5 71.5t-9 89.5q0 47 9 88t30.5 71t57 47t88.5 17t89 -17t58 -47t31.5 -71t9.5 -88zM258 499q0 23 -2 43.5t-7 36.5t-15 25t-26 9t-25.5 -9t-14.5 -25t-6.5 -36.5t-1.5 -43.5t1.5 -44 t6.5 -37t14.5 -25.5t25.5 -9.5t26 9.5t15 25.5t7 37t2 44z" />
<glyph horiz-adv-x="420" d="M159 395v179q-20 -5 -46 -9t-52 -7l-17 103q55 8 90.5 20.5t59.5 32.5h101v-319h80v-114h-314v114h98z" />
<glyph horiz-adv-x="420" d="M37 281v96q58 39 97 67.5t62.5 50t33 39t9.5 34.5t-11.5 27t-30.5 10t-37 -13t-31 -42l-109 56q30 51 77 83.5t112 32.5q39 0 71 -10t55 -28.5t36 -46t13 -62.5q0 -45 -30.5 -89t-96.5 -85h132v-120h-352z" />
<glyph horiz-adv-x="420" d="M402 414q0 -29 -12.5 -54.5t-36.5 -45t-58.5 -30.5t-78.5 -11q-149 0 -198 132l112 32q14 -30 38.5 -39t49.5 -9q20 0 32 7.5t12 21.5q0 13 -13.5 19.5t-32.5 6.5h-57v109h55q13 0 26 6.5t13 19.5q0 14 -13 20.5t-27 6.5q-25 0 -47 -10t-36 -36l-105 43q34 63 81.5 91 t112.5 28q33 0 63.5 -7.5t54 -23.5t37.5 -41t14 -59q0 -29 -11 -49.5t-32 -34.5q29 -14 43 -39.5t14 -53.5z" />
<glyph horiz-adv-x="420" d="M351 360v-79h-131v79h-205v93q17 31 30.5 65.5t23 69t14.5 67t5 59.5h133q0 -56 -19 -118.5t-52 -125.5h73v138h128v-138h53v-110h-53z" />
<glyph horiz-adv-x="420" d="M397 425q0 -26 -11.5 -53t-34.5 -49t-58.5 -36t-84.5 -14q-58 0 -104.5 22.5t-80.5 60.5l92 67q18 -17 41 -25.5t48 -8.5q20 0 37 12t17 32q0 19 -15 31.5t-44 12.5q-41 0 -71 -34l-80 29l16 242h309v-121h-200q-1 -7 -4 -22.5t-6 -23.5q16 11 37 16t38 5q33 0 62 -8.5 t50.5 -26t34 -44.5t12.5 -64z" />
<glyph horiz-adv-x="420" d="M397 442q0 -38 -13.5 -69t-38 -53.5t-58.5 -34.5t-76 -12q-87 0 -137.5 44.5t-50.5 130.5q0 41 10.5 77.5t28.5 69.5t43 62.5t54 56.5h190q-29 -19 -51.5 -34.5t-40 -30.5t-31.5 -31t-25 -35q11 7 25 9t23 2q65 0 106.5 -40.5t41.5 -111.5zM258 441q0 26 -12 41.5 t-35 15.5q-25 0 -37 -16.5t-12 -41.5q0 -26 12 -41.5t37 -15.5q23 0 35 16t12 42z" />
<glyph horiz-adv-x="420" d="M401 626q-33 -39 -62 -80.5t-49.5 -85t-31.5 -88.5t-8 -91h-153q0 52 13 97.5t33 84.5t44 71.5t46 58.5h-195v121h363v-88z" />
<glyph horiz-adv-x="420" d="M398 408q0 -64 -49.5 -99.5t-138.5 -35.5t-138.5 35.5t-49.5 99.5q0 27 12.5 55t44.5 45q-17 13 -30.5 34t-13.5 52q0 63 45.5 95.5t129.5 32.5q85 0 129.5 -32.5t44.5 -95.5q0 -31 -13.5 -52t-30.5 -34q34 -17 46 -44.5t12 -55.5zM250 589q0 20 -12.5 29t-27.5 9 q-16 0 -28 -9t-12 -29q0 -22 12 -31t27 -9q16 0 28.5 9t12.5 31zM263 414q0 25 -16.5 36t-36.5 11t-36.5 -11t-16.5 -36q0 -24 16.5 -35t36.5 -11t36.5 11t16.5 35z" />
<glyph horiz-adv-x="420" d="M23 553q0 38 13.5 69t38 53.5t58.5 34.5t76 12q87 0 137.5 -44.5t50.5 -130.5q0 -41 -10.5 -77.5t-28.5 -69.5t-43 -62.5t-54 -56.5h-190q29 19 51.5 34.5t40 30.5t31.5 31t25 35q-11 -7 -25 -9t-23 -2q-65 0 -106.5 40.5t-41.5 111.5zM162 554q0 -26 12 -41.5t35 -15.5 q25 0 37 16.5t12 41.5q0 26 -12 41.5t-37 15.5q-23 0 -35 -16t-12 -42z" />
<glyph horiz-adv-x="420" d="M396 218q0 -48 -9.5 -89.5t-31.5 -71.5t-58 -47.5t-89 -17.5t-88.5 17.5t-57 47.5t-30.5 71.5t-9 89.5q0 47 9 88t30.5 71t57 47t88.5 17t89 -17t58 -47t31.5 -71t9.5 -88zM258 218q0 23 -2 43.5t-7 36.5t-15 25t-26 9t-25.5 -9t-14.5 -25t-6.5 -36.5t-1.5 -43.5t1.5 -44 t6.5 -37t14.5 -25.5t25.5 -9.5t26 9.5t15 25.5t7 37t2 44z" />
<glyph horiz-adv-x="420" d="M159 114v179q-20 -5 -46 -9t-52 -7l-17 103q55 8 90.5 20.5t59.5 32.5h101v-319h80v-114h-314v114h98z" />
<glyph horiz-adv-x="420" d="M37 0v96q58 39 97 67.5t62.5 50t33 39t9.5 34.5t-11.5 27t-30.5 10t-37 -13t-31 -42l-109 56q30 51 77 83.5t112 32.5q39 0 71 -10t55 -28.5t36 -46t13 -62.5q0 -45 -30.5 -89t-96.5 -85h132v-120h-352z" />
<glyph horiz-adv-x="420" d="M402 133q0 -29 -12.5 -54.5t-36.5 -45t-58.5 -30.5t-78.5 -11q-149 0 -198 132l112 32q14 -30 38.5 -39t49.5 -9q20 0 32 7.5t12 21.5q0 13 -13.5 19.5t-32.5 6.5h-57v109h55q13 0 26 6.5t13 19.5q0 14 -13 20.5t-27 6.5q-25 0 -47 -10t-36 -36l-105 43q34 63 81.5 91 t112.5 28q33 0 63.5 -7.5t54 -23.5t37.5 -41t14 -59q0 -29 -11 -49.5t-32 -34.5q29 -14 43 -39.5t14 -53.5z" />
<glyph horiz-adv-x="420" d="M351 79v-79h-131v79h-205v93q17 31 30.5 65.5t23 69t14.5 67t5 59.5h133q0 -56 -19 -118.5t-52 -125.5h73v138h128v-138h53v-110h-53z" />
<glyph horiz-adv-x="420" d="M397 144q0 -26 -11.5 -53t-34.5 -49t-58.5 -36t-84.5 -14q-58 0 -104.5 22.5t-80.5 60.5l92 67q18 -17 41 -25.5t48 -8.5q20 0 37 12t17 32q0 19 -15 31.5t-44 12.5q-41 0 -71 -34l-80 29l16 242h309v-121h-200q-1 -7 -4 -22.5t-6 -23.5q16 11 37 16t38 5q33 0 62 -8.5 t50.5 -26t34 -44.5t12.5 -64z" />
<glyph horiz-adv-x="420" d="M397 161q0 -38 -13.5 -69t-38 -53.5t-58.5 -34.5t-76 -12q-87 0 -137.5 44.5t-50.5 130.5q0 41 10.5 77.5t28.5 69.5t43 62.5t54 56.5h190q-29 -19 -51.5 -34.5t-40 -30.5t-31.5 -31t-25 -35q11 7 25 9t23 2q65 0 106.5 -40.5t41.5 -111.5zM258 160q0 26 -12 41.5 t-35 15.5q-25 0 -37 -16.5t-12 -41.5q0 -26 12 -41.5t37 -15.5q23 0 35 16t12 42z" />
<glyph horiz-adv-x="420" d="M391 345q-33 -39 -62 -80.5t-50 -85t-31.5 -88.5t-7.5 -91h-153q0 52 13 97.5t33 84.5t44 71.5t46 58.5h-195v121h363v-88z" />
<glyph horiz-adv-x="420" d="M398 127q0 -64 -49.5 -99.5t-138.5 -35.5t-138.5 35.5t-49.5 99.5q0 27 12.5 55t44.5 45q-17 13 -30.5 34t-13.5 52q0 63 45.5 95.5t129.5 32.5q85 0 129.5 -32.5t44.5 -95.5q0 -31 -13.5 -52t-30.5 -34q34 -17 46 -44.5t12 -55.5zM250 308q0 20 -12.5 29t-27.5 9 q-16 0 -28 -9t-12 -29q0 -22 12 -31t27 -9q16 0 28.5 9t12.5 31zM263 133q0 25 -16.5 36t-36.5 11t-36.5 -11t-16.5 -36q0 -24 16.5 -35t36.5 -11t36.5 11t16.5 35z" />
<glyph horiz-adv-x="420" d="M23 272q0 38 13.5 69t38 53.5t58.5 34.5t76 12q87 0 137.5 -44.5t50.5 -130.5q0 -41 -10.5 -77.5t-28.5 -69.5t-43 -62.5t-54 -56.5h-190q29 19 51.5 34.5t40 30.5t31.5 31t25 35q-11 -7 -25 -9t-23 -2q-65 0 -106.5 40.5t-41.5 111.5zM162 273q0 -26 12 -41.5t35 -15.5 q25 0 37 16.5t12 41.5q0 26 -12 41.5t-37 15.5q-23 0 -35 -16t-12 -42z" />
<glyph horiz-adv-x="1332" d="M640 230q0 -51 -20 -95.5t-59 -77.5t-95.5 -51.5t-129.5 -18.5q-118 0 -204 48t-127 133l155 74q12 -24 31 -42.5t43 -31.5t51.5 -19.5t55.5 -6.5q53 0 83.5 17.5t30.5 48.5q0 19 -13.5 31t-34 19.5t-45.5 11.5t-48 8q-51 9 -101 24t-89.5 40.5t-64 65t-24.5 96.5 q0 52 21 93.5t58.5 70t90 44t115.5 15.5q42 0 85 -7.5t83 -25t75.5 -45.5t62.5 -70l-144 -81q-11 18 -29 31.5t-40 23t-46 14.5t-48 5q-39 0 -67.5 -13.5t-28.5 -40.5q0 -21 18 -33.5t47 -21t66.5 -15t77 -16t77 -24t66.5 -37.5t47 -57t18 -84zM1306 230q0 -51 -20 -95.5 t-59 -77.5t-95.5 -51.5t-129.5 -18.5q-118 0 -204 48t-127 133l155 74q12 -24 31 -42.5t43 -31.5t51.5 -19.5t55.5 -6.5q53 0 83.5 17.5t30.5 48.5q0 19 -13.5 31t-34 19.5t-45.5 11.5t-48 8q-51 9 -101 24t-89.5 40.5t-64 65t-24.5 96.5q0 52 21 93.5t58.5 70t90 44 t115.5 15.5q42 0 85 -7.5t83 -25t75.5 -45.5t62.5 -70l-144 -81q-11 18 -29 31.5t-40 23t-46 14.5t-48 5q-39 0 -67.5 -13.5t-28.5 -40.5q0 -21 18 -33.5t47 -21t66.5 -15t77 -16t77 -24t66.5 -37.5t47 -57t18 -84z" />
<glyph horiz-adv-x="295" d="M56 0v535h183v-535h-183zM65 652q0 34 24 58t58 24t58 -24t24 -58t-24 -58t-58 -24t-58 24t-24 58z" />
<glyph horiz-adv-x="293" d="M243 714v-91q0 -38 -7.5 -71t-23.5 -62.5t-42 -57t-63 -55.5l-53 68q28 23 47 49t19 63q0 18 -5.5 31.5t-12.5 27t-12.5 30t-5.5 42.5v26h159z" />
<glyph horiz-adv-x="918" d="M205 304h325l-124 -125l72 -71l248 249l-248 249l-72 -71l124 -125h-325v-106zM878 357q0 -87 -33 -163t-90 -133t-133 -90t-163 -33t-163 33t-133 90t-90 133t-33 163t33 163t90 133t133 90t163 33t163 -33t133 -90t90 -133t33 -163z" />
<glyph horiz-adv-x="918" d="M878 357q0 -87 -33 -163t-90 -133t-133 -90t-163 -33t-163 33t-133 90t-90 133t-33 163t33 163t90 133t133 90t163 33t163 -33t133 -90t90 -133t33 -163zM648 194v352h-352v-101h176l-230 -230l75 -75l230 230v-176h101z" />
<glyph horiz-adv-x="918" d="M878 357q0 -87 -33 -163t-90 -133t-133 -90t-163 -33t-163 33t-133 90t-90 133t-33 163t33 163t90 133t133 90t163 33t163 -33t133 -90t90 -133t33 -163zM512 103v325l125 -124l71 72l-249 248l-249 -248l71 -72l125 124v-325h106z" />
<glyph horiz-adv-x="918" d="M40 357q0 87 33 163t90 133t133 90t163 33t163 -33t133 -90t90 -133t33 -163t-33 -163t-90 -133t-133 -90t-163 -33t-163 33t-133 90t-90 133t-33 163zM371 194v176l230 -230l75 75l-230 230h176v101h-352v-352h101z" />
<glyph horiz-adv-x="918" d="M878 357q0 -87 -33 -163t-90 -133t-133 -90t-163 -33t-163 33t-133 90t-90 133t-33 163t33 163t90 133t133 90t163 33t163 -33t133 -90t90 -133t33 -163zM713 410h-326l125 125l-72 71l-248 -249l248 -249l72 71l-125 125h326v106z" />
<glyph horiz-adv-x="918" d="M40 357q0 87 33 163t90 133t133 90t163 33t163 -33t133 -90t90 -133t33 -163t-33 -163t-90 -133t-133 -90t-163 -33t-163 33t-133 90t-90 133t-33 163zM270 520v-352h352v101h-176l230 230l-75 75l-230 -230v176h-101z" />
<glyph horiz-adv-x="918" d="M40 357q0 87 33 163t90 133t133 90t163 33t163 -33t133 -90t90 -133t33 -163t-33 -163t-90 -133t-133 -90t-163 -33t-163 33t-133 90t-90 133t-33 163zM406 611v-326l-125 125l-71 -72l249 -248l249 248l-71 72l-125 -125v326h-106z" />
<glyph horiz-adv-x="918" d="M878 357q0 -87 -33 -163t-90 -133t-133 -90t-163 -33t-163 33t-133 90t-90 133t-33 163t33 163t90 133t133 90t163 33t163 -33t133 -90t90 -133t33 -163zM547 520v-176l-230 230l-75 -75l230 -230h-176v-101h352v352h-101z" />
<glyph horiz-adv-x="918" d="M205 410h325l-124 125l72 71l248 -249l-248 -249l-72 71l124 125h-325v106zM878 357q0 -87 -33 -163t-90 -133t-133 -90t-163 -33t-163 33t-133 90t-90 133t-33 163t33 163t90 133t133 90t163 33t163 -33t133 -90t90 -133t33 -163zM828 357q0 76 -29 143t-79.5 117.5 t-117.5 79.5t-143 29t-143 -29t-117.5 -79.5t-79.5 -117.5t-29 -143t29 -143t79.5 -117.5t117.5 -79.5t143 -29t143 29t117.5 79.5t79.5 117.5t29 143z" />
<glyph horiz-adv-x="918" d="M878 357q0 -87 -33 -163t-90 -133t-133 -90t-163 -33t-163 33t-133 90t-90 133t-33 163t33 163t90 133t133 90t163 33t163 -33t133 -90t90 -133t33 -163zM547 194v176l-230 -230l-75 75l230 230h-176v101h352v-352h-101zM828 357q0 76 -29 143t-79.5 117.5t-117.5 79.5 t-143 29t-143 -29t-117.5 -79.5t-79.5 -117.5t-29 -143t29 -143t79.5 -117.5t117.5 -79.5t143 -29t143 29t117.5 79.5t79.5 117.5t29 143z" />
<glyph horiz-adv-x="918" d="M878 357q0 -87 -33 -163t-90 -133t-133 -90t-163 -33t-163 33t-133 90t-90 133t-33 163t33 163t90 133t133 90t163 33t163 -33t133 -90t90 -133t33 -163zM406 103v325l-125 -124l-71 72l249 248l249 -248l-71 -72l-125 124v-325h-106zM828 357q0 76 -29 143t-79.5 117.5 t-117.5 79.5t-143 29t-143 -29t-117.5 -79.5t-79.5 -117.5t-29 -143t29 -143t79.5 -117.5t117.5 -79.5t143 -29t143 29t117.5 79.5t79.5 117.5t29 143z" />
<glyph horiz-adv-x="918" d="M270 194v352h352v-101h-176l230 -230l-75 -75l-230 230v-176h-101zM40 357q0 87 33 163t90 133t133 90t163 33t163 -33t133 -90t90 -133t33 -163t-33 -163t-90 -133t-133 -90t-163 -33t-163 33t-133 90t-90 133t-33 163zM90 357q0 -76 29 -143t79.5 -117.5t117.5 -79.5 t143 -29t143 29t117.5 79.5t79.5 117.5t29 143t-29 143t-79.5 117.5t-117.5 79.5t-143 29t-143 -29t-117.5 -79.5t-79.5 -117.5t-29 -143z" />
<glyph horiz-adv-x="918" d="M878 357q0 -87 -33 -163t-90 -133t-133 -90t-163 -33t-163 33t-133 90t-90 133t-33 163t33 163t90 133t133 90t163 33t163 -33t133 -90t90 -133t33 -163zM713 304h-326l125 -125l-72 -71l-248 249l248 249l72 -71l-125 -125h326v-106zM828 357q0 76 -29 143t-79.5 117.5 t-117.5 79.5t-143 29t-143 -29t-117.5 -79.5t-79.5 -117.5t-29 -143t29 -143t79.5 -117.5t117.5 -79.5t143 -29t143 29t117.5 79.5t79.5 117.5t29 143z" />
<glyph horiz-adv-x="918" d="M40 357q0 87 33 163t90 133t133 90t163 33t163 -33t133 -90t90 -133t33 -163t-33 -163t-90 -133t-133 -90t-163 -33t-163 33t-133 90t-90 133t-33 163zM371 520v-176l230 230l75 -75l-230 -230h176v-101h-352v352h101zM90 357q0 -76 29 -143t79.5 -117.5t117.5 -79.5 t143 -29t143 29t117.5 79.5t79.5 117.5t29 143t-29 143t-79.5 117.5t-117.5 79.5t-143 29t-143 -29t-117.5 -79.5t-79.5 -117.5t-29 -143z" />
<glyph horiz-adv-x="918" d="M40 357q0 87 33 163t90 133t133 90t163 33t163 -33t133 -90t90 -133t33 -163t-33 -163t-90 -133t-133 -90t-163 -33t-163 33t-133 90t-90 133t-33 163zM512 611v-326l125 125l71 -72l-249 -248l-249 248l71 72l125 -125v326h106zM90 357q0 -76 29 -143t79.5 -117.5 t117.5 -79.5t143 -29t143 29t117.5 79.5t79.5 117.5t29 143t-29 143t-79.5 117.5t-117.5 79.5t-143 29t-143 -29t-117.5 -79.5t-79.5 -117.5t-29 -143z" />
<glyph horiz-adv-x="918" d="M878 357q0 -87 -33 -163t-90 -133t-133 -90t-163 -33t-163 33t-133 90t-90 133t-33 163t33 163t90 133t133 90t163 33t163 -33t133 -90t90 -133t33 -163zM648 520v-352h-352v101h176l-230 230l75 75l230 -230v176h101zM828 357q0 76 -29 143t-79.5 117.5t-117.5 79.5 t-143 29t-143 -29t-117.5 -79.5t-79.5 -117.5t-29 -143t29 -143t79.5 -117.5t117.5 -79.5t143 -29t143 29t117.5 79.5t79.5 117.5t29 143z" />
</font>
</defs>
</svg>
