<?xml version="1.0" encoding="utf-8"?>
<!-- Generator: Adobe Illustrator 17.1.0, SVG Export Plug-In . SVG Version: 6.00 Build 0)  -->
<!DOCTYPE svg PUBLIC "-//W3C//DTD SVG 1.1//EN" "http://www.w3.org/Graphics/SVG/1.1/DTD/svg11.dtd">
<svg version="1.1" id="Layer_1" xmlns="http://www.w3.org/2000/svg" xmlns:xlink="http://www.w3.org/1999/xlink" x="0px" y="0px"
	 width="101.2px" height="121.9px" viewBox="0 0 101.2 121.9" enable-background="new 0 0 101.2 121.9" xml:space="preserve">
<g>
	<g>
		<g>
			<g>
				<g>
					<path fill="#02A388" d="M49.5,60.2h2.2c14.8,0.4,30.9,6.1,29.3,20.3l-1.6,13.3c-0.8,6.8-5.2,7.8-14,7.9H35.8
						c-8.8,0-13.1-1.1-14-7.9l-1.6-13.3C18.6,66.3,34.7,60.6,49.5,60.2z"/>
					<g>
						<g>
							<g>
								<path fill="#02A388" d="M33,37.8C33,28,41,20,50.8,20c9.8,0,17.8,8,17.8,17.8c0,9.8-8,17.8-17.8,17.8
									C41,55.6,33,47.6,33,37.8z"/>
							</g>
						</g>
					</g>
				</g>
			</g>
		</g>
	</g>
</g>
</svg>
