<?xml version="1.0" encoding="utf-8"?>
<!-- Generator: Adobe Illustrator 17.1.0, SVG Export Plug-In . SVG Version: 6.00 Build 0)  -->
<!DOCTYPE svg PUBLIC "-//W3C//DTD SVG 1.1//EN" "http://www.w3.org/Graphics/SVG/1.1/DTD/svg11.dtd">
<svg version="1.1" id="Layer_1" xmlns="http://www.w3.org/2000/svg" xmlns:xlink="http://www.w3.org/1999/xlink" x="0px" y="0px"
	 width="48px" height="48px" viewBox="0 0 48 48" enable-background="new 0 0 48 48" xml:space="preserve">
<g opacity="0.3">
	<path fill="#676F6F" d="M24,36c-6.6,0-12-5.4-12-12s5.4-12,12-12s12,5.4,12,12S30.6,36,24,36z M24,12.9c-6.1,0-11.1,5-11.1,11.1
		s5,11.1,11.1,11.1s11.1-5,11.1-11.1S30.1,12.9,24,12.9z"/>
</g>
<path opacity="0.2" fill="#676F6F" enable-background="new    " d="M24,12.9c-6.1,0-11.1,5-11.1,11.1s5,11.1,11.1,11.1
	s11.1-5,11.1-11.1S30.1,12.9,24,12.9z"/>
<path opacity="0.6" fill="#FFFFFF" d="M28.7,27.7L25,24l3.7-3.7c0.2-0.2,0.2-0.5,0-0.7l-0.3-0.3c-0.2-0.2-0.5-0.2-0.7,0L24,23
	l-3.6-3.7c-0.2-0.2-0.5-0.2-0.7,0l-0.3,0.3c-0.2,0.2-0.2,0.5,0,0.7L23,24l-3.7,3.6c-0.2,0.2-0.2,0.5,0,0.7l0.3,0.3
	c0.2,0.2,0.5,0.2,0.7,0L24,25l3.7,3.7c0.1,0.1,0.2,0.1,0.4,0.1c0.2,0,0.3-0.1,0.4-0.1l0.3-0.3C28.8,28.2,28.8,27.9,28.7,27.7z"/>
</svg>
