<?xml version="1.0" encoding="utf-8"?>
<!-- Generator: Adobe Illustrator 18.0.0, SVG Export Plug-In . SVG Version: 6.00 Build 0)  -->
<!DOCTYPE svg PUBLIC "-//W3C//DTD SVG 1.1//EN" "http://www.w3.org/Graphics/SVG/1.1/DTD/svg11.dtd">
<svg version="1.1" id="Layer_1" xmlns="http://www.w3.org/2000/svg" xmlns:xlink="http://www.w3.org/1999/xlink" x="0px" y="0px"
	 width="59px" height="64.5px" viewBox="0 0 59 64.5" enable-background="new 0 0 59 64.5" xml:space="preserve">
<g>
	<path fill="#666E6E" d="M26.7,23.6c0.3-0.1,0.5-0.4,0.6-0.7c0.1-0.3,0.1-0.6-0.1-0.9l-4.9-8.9c-0.2-0.3-0.4-0.5-0.7-0.6
		c-0.3-0.1-0.6-0.1-0.9,0.1c-2.9,1.6-4.8,3.8-5.6,6.4c-1.3,4.5,1,8.8,1.1,8.9l9.7,17.8c2.8,5.1,6.9,6.1,9.8,6
		c3.1-0.1,5.5-1.4,5.6-1.5l0,0c0.3-0.2,0.5-0.4,0.6-0.7c0.1-0.3,0.1-0.6-0.1-0.9l-4.9-8.9c-0.2-0.3-0.4-0.5-0.7-0.6
		c-0.3-0.1-0.6-0.1-0.9,0.1l-3.4,1.9l-8.6-15.7L26.7,23.6z M20.8,15.3l3.7,6.7l-3.4,1.9c-0.6,0.3-0.8,1-0.5,1.6l9.7,17.8
		c0.3,0.6,1,0.8,1.6,0.5l3.4-1.9l3.7,6.7c-0.8,0.3-2.1,0.6-3.4,0.7c-3.3,0.1-5.8-1.5-7.6-4.7l-9.7-17.8c0,0-1.9-3.6-0.9-7.1
		C17.9,18,19.1,16.5,20.8,15.3z"/>
	<path fill="#666E6E" d="M32.4,21.7c-0.4-0.3-0.9-0.3-1.3-0.1c-0.2,0.1-0.3,0.2-0.5,0.4c-0.2,0.3-0.3,0.6-0.2,1
		c0.1,0.3,0.3,0.6,0.6,0.8c3.9,2.6,6.3,6.9,6.4,11.6c0,0.6,0.4,1.1,0.9,1.2c0.1,0,0.3,0.1,0.4,0.1c0.2,0,0.4-0.1,0.6-0.2
		c0.4-0.2,0.7-0.7,0.7-1.2C39.8,29.9,37,24.8,32.4,21.7z"/>
	<path fill="#666E6E" d="M34.1,17.2c-0.4-0.2-0.9-0.2-1.3,0c-0.2,0.1-0.4,0.3-0.5,0.5c-0.2,0.3-0.2,0.7-0.1,1
		c0.1,0.3,0.3,0.6,0.6,0.8c6,3.4,9.5,10.1,8.7,17c-0.1,0.6,0.3,1.2,0.9,1.4c0.1,0,0.2,0,0.2,0c0.3,0,0.5,0,0.8-0.2
		c0.4-0.2,0.6-0.6,0.7-1C45,28.8,41.1,21.2,34.1,17.2z"/>
</g>
</svg>
