<?xml version="1.0" encoding="utf-8"?>
<!-- Generator: Adobe Illustrator 18.0.0, SVG Export Plug-In . SVG Version: 6.00 Build 0)  -->
<!DOCTYPE svg PUBLIC "-//W3C//DTD SVG 1.1//EN" "http://www.w3.org/Graphics/SVG/1.1/DTD/svg11.dtd">
<svg version="1.1" id="Layer_4" xmlns="http://www.w3.org/2000/svg" xmlns:xlink="http://www.w3.org/1999/xlink" x="0px" y="0px"
	 width="76px" height="60px" viewBox="0 0 76 60" enable-background="new 0 0 76 60" xml:space="preserve">
<g>
	<path fill="#666E6E" d="M53.6,16.5c-3.9-3.2-9.2-5-14.8-5c-5.6,0-10.8,1.8-14.8,5c-4,3.2-6.2,7.5-6.2,12.1c0,3.8,1.5,7.4,4.4,10.3
		c0.1,0.1,0.1,0.3,0.1,0.4l-1.5,6.3c-0.2,0.5-0.1,1,0.2,1.4l0,0c0.3,0.3,0.7,0.5,1.1,0.5c0.2,0,0.4,0,0.8-0.2l7.2-3.1
		c0,0,0.1,0,0.1,0c0.1,0,0.2,0,0.3,0c0,0,0.1,0,0.2,0c0.1,0,0.1,0,0.2,0c2.4,0.9,5.1,1.3,7.9,1.3c5.6,0,10.8-1.8,14.8-5
		c4-3.2,6.2-7.5,6.2-12C59.7,24,57.5,19.7,53.6,16.5z M38.9,43.3c-2.5,0-4.9-0.4-7.2-1.2C31.2,42,30.9,42,30.6,42
		c-0.5,0-0.9,0.1-1.3,0.3l-6,2.6l1.2-5c0.2-0.8-0.1-1.7-0.6-2.4l0,0c-2.4-2.5-3.7-5.5-3.7-8.8c0-8.1,8.3-14.8,18.6-14.8
		c10.2,0,18.7,6.6,18.8,14.8C57.5,36.7,49.2,43.3,38.9,43.3z"/>
	<circle fill="#666E6E" cx="31.2" cy="29.8" r="2.6"/>
	<path fill="#666E6E" d="M38.5,27.2c-1.4,0-2.6,1.2-2.6,2.6s1.2,2.6,2.6,2.6c1.4,0,2.5-1.1,2.6-2.6l0,0
		C41.1,28.4,39.9,27.2,38.5,27.2z"/>
	<path fill="#666E6E" d="M45.7,27.2c-1.4,0-2.6,1.2-2.6,2.6s1.2,2.6,2.6,2.6c1.5,0,2.6-1.1,2.6-2.6C48.3,28.4,47.1,27.2,45.7,27.2z"
		/>
</g>
</svg>
