<?xml version="1.0" encoding="utf-8"?>
<!-- Generator: Adobe Illustrator 17.1.0, SVG Export Plug-In . SVG Version: 6.00 Build 0)  -->
<!DOCTYPE svg PUBLIC "-//W3C//DTD SVG 1.1//EN" "http://www.w3.org/Graphics/SVG/1.1/DTD/svg11.dtd">
<svg version="1.1" id="Layer_1" xmlns="http://www.w3.org/2000/svg" xmlns:xlink="http://www.w3.org/1999/xlink" x="0px" y="0px"
	 viewBox="0 0 120.8 39.8" enable-background="new 0 0 120.8 39.8" xml:space="preserve">
<g>
	<path fill-rule="evenodd" clip-rule="evenodd" fill="#FFFFFF" d="M12,33.1H7.1V14.8H12V33.1z M16.7,26c1.5,1.7,3.8,2.9,6.2,2.9
		c2.3,0,3.8-1.4,3.8-3.3c0-3.4-4.9-3.8-8.4-5.9c-2.1-1.2-3.7-3-3.7-6c0-4.7,4.3-7.4,8.7-7.4c2.7,0,5.1,0.6,7.6,2.5l-2.6,3.8
		c-1.1-1-2.8-1.7-4.5-1.7c-1.9,0-4.1,0.8-4.1,2.9c0,4.2,12.1,2.9,12.1,11.8c0,4.7-4.2,7.9-8.9,7.9c-3.5,0-6.8-1.5-9.5-3.9L16.7,26z
		 M47,33.1c-0.6,0.2-2.1,0.4-3,0.4c-2.9,0-5.1-1-6.3-2.6c-0.9-1.2-1.4-2.9-1.4-5.4V19h-5.1v-4.1h5.1V9.8h4.9v5.1h6V19h-6v6.9
		c0,1.1,0.2,1.8,0.6,2.3c0.5,0.6,1.3,0.9,2.5,0.9c0.7,0,1.7-0.1,2-0.2L47,33.1z M57.8,14.5c5.5,0,9.7,4.2,9.7,9.5
		c0,5.3-4.2,9.5-9.7,9.5c-5.5,0-9.7-4.2-9.7-9.5C48.1,18.7,52.3,14.5,57.8,14.5z M57.8,28.9c2.9,0,4.8-2.2,4.8-5c0-2.7-2-5-4.8-5
		c-2.9,0-4.8,2.3-4.8,5C53,26.7,54.9,28.9,57.8,28.9z M86.8,29.3c-2.1,2.9-4.8,4.1-8.3,4.1c-5.6,0-9.8-4.2-9.8-9.5
		c0-5.3,4.2-9.5,9.8-9.5c3.2,0,6,1.5,7.7,3.6l-3.5,3c-1-1.3-2.4-2.2-4.2-2.2c-2.8,0-4.9,2.2-4.9,5c0,2.9,2.1,5,5,5
		c2,0,3.6-1.2,4.4-2.4L86.8,29.3z M97.8,23l10,10h-6.6l-7.7-7.9v7.9h-4.9V6.8h4.9v14l6.3-5.9h6.9L97.8,23z M6.4,9.6
		c0-1.8,1.4-3.2,3.2-3.2c1.8,0,3.2,1.4,3.2,3.2c0,1.8-1.4,3.2-3.2,3.2C7.8,12.8,6.4,11.3,6.4,9.6z M108,30.2c0-1.8,1.4-3.2,3.2-3.2
		s3.2,1.4,3.2,3.2c0,1.8-1.4,3.2-3.2,3.2S108,32,108,30.2z"/>
</g>
</svg>
