<?xml version="1.0" encoding="utf-8"?>
<!DOCTYPE svg PUBLIC "-//W3C//DTD SVG 1.1//EN" "http://www.w3.org/Graphics/SVG/1.1/DTD/svg11.dtd">
<svg version="1.1" xmlns="http://www.w3.org/2000/svg" xmlns:xlink="http://www.w3.org/1999/xlink" height="576" width="96">

  <symbol id="virtual-machines" viewBox="-1 -1 34 34">
    <path fill="#FFFFFF" d="M20.2,24.6h-0.8h-7.6h-0.4c1.1,3.8-0.3,4.3-6.6,4.3v1.9h7.9h5.8H26v-2C19.8,28.8,19.1,28.2,20.2,24.6z"/>
    <polygon fill="#FFFFFF" points="16,13.4 16,19.4 20.9,16.5 20.9,10.6 "/>
    <polygon fill="#FFFFFF" points="9.8,16.5 14.7,19.4 14.7,13.4 9.8,10.5 "/>
    <polygon fill="#FFFFFF" points="15.4,6.4 10.2,9 15.4,12.2 20.5,9 "/>
    <path fill="#FFFFFF" d="M30.1,1.2H1.7C0.8,1.2,0,2,0,3v19.8c0,1,0.8,1.8,1.7,1.8h28.3c1,0,1.9-0.9,1.9-1.8V3C32,2.1,31,1.2,30.1,1.2 z M29.5,3.8v18.5H2.5V3.8H29.5L29.5,3.8z"/>
  </symbol>

  <symbol id="cloud-services" viewBox="-1 -1 34 34">
    <path fill="#FFFFFF" d="M20.6,11.7c-0.8,0-1.6,0.7-1.6,1.6c0,0.8,0.6,1.6,1.6,1.6c0.9,0,1.6-0.7,1.6-1.6
    C22.1,12.4,21.5,11.7,20.6,11.7z"/>
    <path fill="#FFFFFF" d="M12.5,16.9c-0.8,0-1.6,0.7-1.6,1.6s0.7,1.6,1.6,1.6c0.8,0,1.6-0.7,1.6-1.6S13.4,16.9,12.5,16.9z"/>
    <path fill="#FFFFFF" d="M25.5,13.8l-1.4,0.4l-0.3,0.7l0.5,1.2l0.1,0.2l-0.8,0.7l-1.3-0.6l-0.7,0.3l-0.4,1.2V18h-1.1l-0.5-1.4
    l-0.7-0.3l-1.1,0.5l-0.3,0.2l-0.7-0.7l0.6-1.3l-0.3-0.7L16,13.9v-0.1v-1.1l1.2-0.5l0.2-0.7l-0.6-1.1l-0.1-0.1l0.7-0.7l1.3,0.6
    l0.7-0.3l0.4-1.1V8.7h1.1l0.5,1.3l0.7,0.3l1.1-0.6l0.1-0.1l0.7,0.7l-0.6,1.3l0.3,0.7l1.3,0.4l0.2,0.1v0.9L25.5,13.8L25.5,13.8z
    M7.7,18l1.4-0.4l0.3-0.7l-0.5-1.2l-0.1-0.2l0.7-0.7l1.3,0.6l0.7-0.3l0.4-1.1H12h1.2l0.4,1.3l0.7,0.3l1.2-0.6l0.1-0.1l0.7,0.7
    l-0.6,1.3l0.3,0.7l1.1,0.4v0.1v1.2l-1.3,0.4l-0.1,0.5l0.6,1.2l0.1,0.1l-0.8,0.8l-1.3-0.6L13.6,22l-0.4,1.2v0.2h-1.1L11.6,22
    l-0.7-0.3l-1.2,0.5l-0.1,0.1l-0.8-0.7l0.6-1.3l-0.3-0.7l-1.2-0.4l-0.2-0.1V18z M27.9,12.4l-0.6-0.2l0.1-0.6c0.1-0.6,0.2-1.3,0.2-1.8
    c0-4-3.3-7.2-7.3-7.2c-2.9,0-5.6,1.8-6.6,4.4L13.3,8l-0.6-0.8c-0.9-1.1-2.3-1.7-3.8-1.7c-2.7,0-4.9,2.2-4.9,4.9
    c0,0.4,0.1,0.9,0.2,1.4l0.3,0.4l-0.5,0.2C1.5,13.3,0,15.3,0,17.7c0,3.2,2.6,5.6,5.9,5.6h1.5c0,0-0.1,0.5-0.1,0.8
    c0,2.9,2.3,5.3,5.3,5.3c2.1,0,4-1.3,4.8-3.3l0.3-0.7l0.5,0.6c0.6,0.8,1.7,1.3,2.7,1.3c2,0,3.6-1.7,3.6-3.6c0-0.1,0-0.4,0-0.4h1.6
    c3.3,0,5.9-2.4,5.9-5.6C32,15.3,30.4,13.2,27.9,12.4z"/>
  </symbol>
  
  <symbol id="web-sites" viewBox="-1 -1 34 34">
    <path fill="#FFFFFF" d="M28.7,6.3C25.6,2.2,20.7,0,16,0c-3.5,0-6.9,1-9.7,3.3c-7,5.4-8.4,15.4-3,22.4c3.2,4.1,8,6.3,12.7,6.3
    c3.5,0,6.9-1,9.7-3.3C32.7,23.3,34.1,13.2,28.7,6.3z M29.5,19.5c-0.6-0.5-1.4-1-2.4-1.8c0.3-0.9,0.2-2.1-0.5-2.9
    c-0.9-1.3-2.7-1.5-3.9-0.8c-1.4-1.3-3-2.8-4.6-4.4c4.8-2.6,8.4-2.4,8.8-2.4c0,0.1,0.1,0.1,0.2,0.2C29.8,11,30.5,15.5,29.5,19.5z
    M20.7,23.3c-0.1-0.3-0.2-0.8-0.5-1.1c-0.9-1.1-2.5-1.4-3.7-0.7c-1.3-0.7-2.5-1.5-3.8-2.5c-0.2-0.2-0.5-0.5-0.8-0.7
    c0.8-1.3,0.9-2.9,0.1-4.2c0.1-0.1,0.3-0.3,0.5-0.5c1.3-1.3,2.5-2.2,3.7-3c1.7,1.6,3.6,3.1,5.4,4.5c-0.5,1-0.3,2.2,0.3,3.1
    c1,1.4,2.9,1.6,4.3,0.6c0.1,0,0.1-0.1,0.2-0.1c1.3,0.9,2.3,1.6,2.8,1.9c-0.3,1-0.9,2.1-1.6,3.1C26.6,24,24.2,24.3,20.7,23.3z
    M25,5.3C22.8,4.9,19.5,5,15.8,7c-1.3-1.4-2.5-2.8-3.9-4.2c1.4-0.5,2.9-0.7,4.3-0.7C19.2,2.1,22.3,3.2,25,5.3z M7.5,4.9
    c0.7-0.6,1.5-1,2.3-1.5c1,1.6,2.3,3.2,3.8,4.7c-1.3,0.9-2.5,1.9-3.9,3.3c-0.1,0.2-0.3,0.3-0.5,0.6c-0.8-0.1-1.5-0.1-2.3,0.1
    c-1.3-2.6-1.2-4.8-1-6C6.5,5.7,6.9,5.4,7.5,4.9z M4.6,8c-0.3,1.4-0.5,3.3,0.6,5.6c-1.2,1.5-1.2,3.6,0,5c0.1,0.1,0.2,0.2,0.3,0.3
    c-0.5,1.7-0.7,3.4-0.8,4.8C1.2,19,1.4,12.7,4.6,8z M24.5,27C22,28.9,19,29.8,16,29.8c-3.2,0-6.3-1.1-8.9-3.2c-0.1-1.5,0-3.9,0.9-6.3
    c0.7,0,1.3,0,2-0.3c0.3,0.3,0.7,0.7,1.2,0.9c1.4,1,2.8,1.9,4,2.6c-0.1,0.7,0.1,1.4,0.6,1.9c0.9,1.3,2.7,1.5,3.9,0.5
    c0.2-0.2,0.5-0.5,0.6-0.7c2.2,0.5,4,0.6,5.4,0.6C25.2,26.3,25,26.6,24.5,27z"/>
  </symbol>

  <symbol id="mobile-services" viewBox="-1 -1 34 34">
    <polygon fill="#FFFFFF" points="16.7,16.1 16.7,21.4 20.9,18.6 20.9,13.2 "/>
    <polygon fill="#FFFFFF" points="11.2,18.6 15.5,21.4 15.5,16.1 11.2,13.2 "/>
    <polygon fill="#FFFFFF" points="16,9.3 11.7,12 16.2,15 20.6,12 "/>
    <path fill="#FFFFFF" d="M24.5,0H7.7c-1.2,0-2,1-2,2.2v27.6c0,1.3,0.9,2.2,2,2.2h16.6c1.2,0,2-0.9,2-2.2V2.2C26.4,1,25.4,0,24.5,0z
    M13,1h6.3c0.5,0,0.9,0.1,0.9,0.7c0,0.6-0.5,0.6-0.9,0.6H13c-0.5,0-0.9,0-0.9-0.6C12.1,1.1,12.5,1,13,1z M17.7,30.1h-3.4
    c-0.4,0-0.8-0.4-0.8-0.8c0-0.4,0.4-0.8,0.8-0.8h3.4c0.5,0,0.8,0.3,0.8,0.8C18.5,29.7,18.1,30.1,17.7,30.1z M7.8,26.5V3.3h16.5
    l0.1,23.2H7.8z"/>
  </symbol>

  <symbol id="storage" viewBox="-1 -1 34 34">
    <path fill="#FFFFFF" d="M30.8,2.4H1.2C0.5,2.4,0,2.9,0,3.5v25c0,0.7,0.6,1.2,1.2,1.2h29.7c0.7,0,1.2-0.6,1.2-1.2v-25
	C32,2.8,31.4,2.4,30.8,2.4z M15.4,14.1v3.6h-6v-3.6H15.4z M9.4,12.9V9.4h6v3.6H9.4z M15.4,18.9v3.6h-6v-3.6H15.4z M16.6,18.9h6v3.6
	h-6V18.9z M16.6,17.8v-3.6h6v3.6H16.6z M16.6,12.9V9.4h6v3.6H16.6z M2.4,9.4h6v3.6h-6V9.4z M2.4,14.1h6v3.6h-6V14.1z M2.4,18.9h6
	v3.6h-6V18.9z M2.4,27.2v-3.6h6v3.6H2.4z M9.4,27.2v-3.6h6v3.6H9.4z M16.6,27.2v-3.6h6v3.6H16.6z M29.6,27.2h-6v-3.6h6V27.2z
	 M29.6,22.5h-6v-3.6h6V22.5z M29.6,17.8h-6v-3.6h6V17.8z M29.6,12.9h-6V9.4h6V12.9z"/>
  </symbol>

  <symbol id="import-export" viewBox="-1 -1 34 34">
    <path fill="#FFFFFF" d="M30.8,2.4H1.2C0.5,2.4,0,2.9,0,3.5v25c0,0.7,0.6,1.2,1.2,1.2h29.7c0.7,0,1.2-0.6,1.2-1.2v-25
	C32,2.8,31.4,2.4,30.8,2.4z M15.4,14.1v3.6h-6v-3.6H15.4z M9.4,12.9V9.4h6v3.6H9.4z M15.4,18.9v3.6h-6v-3.6H15.4z M16.6,18.9h6v3.6
	h-6V18.9z M16.6,17.8v-3.6h6v3.6H16.6z M16.6,12.9V9.4h6v3.6H16.6z M2.4,9.4h6v3.6h-6V9.4z M2.4,14.1h6v3.6h-6V14.1z M2.4,18.9h6
	v3.6h-6V18.9z M2.4,27.2v-3.6h6v3.6H2.4z M9.4,27.2v-3.6h6v3.6H9.4z M16.6,27.2v-3.6h6v3.6H16.6z M29.6,27.2h-6v-3.6h6V27.2z
	 M29.6,22.5h-6v-3.6h6V22.5z M29.6,17.8h-6v-3.6h6V17.8z M29.6,12.9h-6V9.4h6V12.9z"/>
  </symbol>

  <symbol id="sql-database" viewBox="-1 -1 34 34">
    <path fill="#FFFFFF" d="M16,0C9.3,0,4.1,2.3,4.1,4.7v22.4C4.1,29.7,9.4,32,16,32s11.9-2.2,11.9-4.7V4.9C27.9,2.4,22.7,0,16,0z
	 M16.1,1.7c4.7,0,8.5,1.2,8.5,2.7s-3.9,2.7-8.5,2.7c-4.7,0-8.6-1.2-8.6-2.7S11.4,1.7,16.1,1.7z M11.5,20.7c-0.5,0.4-1.2,0.6-2.1,0.6
	c-0.7,0-1.5-0.1-1.9-0.4v-1.6c0.5,0.5,1.2,0.7,1.9,0.7c0.4,0,0.6-0.1,0.7-0.2c0.2-0.1,0.2-0.4,0.2-0.5c0-0.2-0.1-0.4-0.2-0.6
	c-0.1-0.1-0.5-0.4-1.1-0.6c-1.1-0.5-1.7-1.2-1.7-2.2c0-0.6,0.2-1.2,0.7-1.6c0.5-0.4,1.1-0.6,1.9-0.6c0.7,0,1.2,0.1,1.7,0.2v1.6
	c-0.5-0.4-1-0.5-1.7-0.5c-0.4,0-0.6,0.1-0.7,0.2c-0.2,0.1-0.2,0.4-0.2,0.5c0,0.2,0.1,0.4,0.2,0.6c0.1,0.1,0.5,0.4,1,0.6
	c0.7,0.4,1.2,0.6,1.5,1s0.5,0.7,0.5,1.2C12.3,19.7,12.1,20.3,11.5,20.7z M20,22.9h-2.2l-1.5-1.7c-0.6,0-1.2-0.1-1.7-0.5
	c-0.5-0.4-1-0.7-1.2-1.3c-0.2-0.6-0.5-1.2-0.5-1.8c0-0.7,0.1-1.5,0.5-2.1c0.4-0.6,0.7-1.1,1.3-1.3c0.6-0.4,1.2-0.5,1.9-0.5
	s1.2,0.1,1.8,0.5c0.5,0.4,1,0.7,1.2,1.3c0.2,0.6,0.5,1.2,0.5,1.9c0,0.9-0.2,1.6-0.6,2.2c-0.4,0.6-1,1.1-1.7,1.3L20,22.9z M25.6,21.2
	h-4.4v-7.4h1.7v6h2.7L25.6,21.2L25.6,21.2z"/>
    <path fill="#FFFFFF" d="M16.6,15.1c-0.6,0-1,0.2-1.3,0.6c-0.4,0.5-0.5,1-0.5,1.7c0,0.7,0.1,1.3,0.5,1.7c0.4,0.5,0.7,0.6,1.3,0.6
	c0.6,0,1-0.2,1.3-0.6c0.4-0.4,0.5-1,0.5-1.7c0-0.7-0.1-1.3-0.5-1.7C17.6,15.3,17.2,15.1,16.6,15.1z"/>
  </symbol>

  <symbol id="backup" viewBox="-1 -1 34 34">
    <path fill="#FFFFFF" d="M28.8,10.1c0-0.2,0-0.4,0-0.6c0-3.7-3.1-6.7-6.8-6.7c-2.2,0-4.3,1.1-5.6,2.8c-0.9-0.5-1.7-0.7-2.8-0.7
	c-2.7,0-4.9,2-5.1,4.6c0.4,0,0.9-0.1,1.3-0.1c2,0,3.9,0.6,5.5,1.8c1.2-2.7,4.2-4.4,7.4-4.5V4.3l4.1,3.4l-4.1,3.4V8.9
	c-1.9,0.1-3.7,0.7-4.8,2.5h0.3c3.9,0,7,2.9,7.5,6.5c1,0.6,1.6,1.5,2.1,2.5c2.5-0.6,4.3-2.8,4.3-5.5C31.9,12.6,30.7,11,28.8,10.1z"/>
    <path fill="#FFFFFF" d="M3.2,18.9c0-0.2,0-0.4,0-0.7c0-3.7,3.1-6.7,6.8-6.7c2.2,0,4.3,1.1,5.6,2.8c0.9-0.5,1.7-0.7,2.8-0.7
	c2.9,0,5.1,2.2,5.1,5.1v0.4c1.9,1,3,2.6,3,4.6c0,3.2-2.6,5.7-5.9,5.7H5.9c-3.3,0-5.9-2.5-5.9-5.7C0,21.5,1.2,19.9,3.2,18.9z"/>
  </symbol>

  <symbol id="cache" viewBox="-1 -1 34 34">
    <path fill="#FFFFFF" d="M5.4,3.7c0-1.1,3.6-2,8-2s7.9,0.9,7.9,2s-3.6,2-7.9,2C9.1,5.7,5.4,4.8,5.4,3.7z M12.4,30V11
	c0-2.3,3.7-3.4,9-3.4c1.2,0,2.4,0.1,3.6,0.2V3.7c0-2-5.2-3.7-11.7-3.7S1.6,1.7,1.6,3.7v24.4c0,2.1,5.2,3.8,11.7,3.8h0.8
	C13.1,31.2,12.4,30.7,12.4,30z"/>
    <path fill="#FFFFFF" d="M21.9,13.7c-3.1,0-5.7-0.7-5.7-1.4c0-0.8,2.6-1.4,5.7-1.4s5.7,0.7,5.7,1.4C27.6,13,24.9,13.7,21.9,13.7z
	 M26.7,21.7l-10.3,8.7l4-6.7h-3.6L27.2,15l-4,6.7H26.7L26.7,21.7z M21.9,9.2c-4.7,0-8.2,1.1-8.2,2.7v17.3c0,1.4,3.4,2.8,8.2,2.8
	c4.8,0,8.4-1.2,8.4-2.7V11.8C30.3,10.3,26.5,9.2,21.9,9.2z"/>
  </symbol>

  <symbol id="redis-cache" viewBox="-1 -1 34 34">
    <path fill="#FFFFFF" d="M5.4,3.7c0-1.1,3.6-2,8-2s7.9,0.9,7.9,2s-3.6,2-7.9,2C9.1,5.7,5.4,4.8,5.4,3.7z M12.4,30V11
	c0-2.3,3.7-3.4,9-3.4c1.2,0,2.4,0.1,3.6,0.2V3.7c0-2-5.2-3.7-11.7-3.7S1.6,1.7,1.6,3.7v24.4c0,2.1,5.2,3.8,11.7,3.8h0.8
	C13.1,31.2,12.4,30.7,12.4,30z"/>
    <path fill="#FFFFFF" d="M21.9,13.7c-3.1,0-5.7-0.7-5.7-1.4c0-0.8,2.6-1.4,5.7-1.4s5.7,0.7,5.7,1.4C27.6,13,24.9,13.7,21.9,13.7z
	 M26.7,21.7l-10.3,8.7l4-6.7h-3.6L27.2,15l-4,6.7H26.7L26.7,21.7z M21.9,9.2c-4.7,0-8.2,1.1-8.2,2.7v17.3c0,1.4,3.4,2.8,8.2,2.8
	c4.8,0,8.4-1.2,8.4-2.7V11.8C30.3,10.3,26.5,9.2,21.9,9.2z"/>
  </symbol>

  <symbol id="hdinsight" viewBox="-1 -1 52 52">
    <path fill="#FFFFFF" d="M31.4,36.6c-0.2-0.7-1.1-2.2-1.1-2.2s-0.2,2.1-1.6,4.2c-1.4,2.1-2.4,2.5-2.4,2.5s-0.1,0.7,0.6,0.7
	c0.3,0,3.4,0,4,0c0.6,0,1-0.5,1-1.1c0-0.6-0.5-1.2-0.5-1.2S31.7,37.3,31.4,36.6z"/>
    <path fill="#FFFFFF" d="M3.2,31.7C3.2,31.7,3.2,31.7,3.2,31.7c0,0-1.2,1.4-1.9,2.4c-0.7,1-0.2,1.7-0.2,1.7s2.1,3.5,3.9,3
	C5.5,38.6,6,37.6,6,37.6s-0.7-1-1.4-2.3C3.9,34,3.3,32,3.2,31.7z"/>
    <path fill="#FFFFFF" d="M50,16.6c-0.3-6.6-2.1-8.5-2.6-8.4c-0.7,0.1-0.9,1.2-1.7,1.7c-1,0.7-1.7,0.6-2.2,1.2c-0.6,0.6,0.6,2.1,0.4,6
	c-0.2,3.6-2.5,5-2.5,5s1.1-1.6,1.3-2.7c0.2-0.8-0.3-1-0.7-1.3c-0.7-0.6-2,0.9-2.4,1.3c0.6-0.6,1.5-1.5,1.1-2.1
	c-0.7-1.1-2.1-0.3-2.4-0.2c0.3-0.2,1-0.4,0.9-1.1c-0.2-1.2-1.4-0.9-1.6-0.8c0.5-0.2,0.8-0.5,2.1-0.4c0.7,0,0.6-0.7,0.1-1.4
	c-0.7-0.9-1.2-1.2-1.9-1.4c-0.7-0.2-2-0.1-2-0.1s0.9-0.6,1.4-0.5c-0.7-0.9-2.9-4.3-6.7-4.5c-6.9-0.3-8.9,4.1-8.9,4.1l3.3-0.2
	c0,0-1,0.4-3.1,0.7c-1.6,0.3-1.5,0.3-2,0.4c-0.8,0.2-2.7,2.6-4.5,4.5s-3.6,4.6-3.6,5.6c0,1,1,1.7,1.6,2.6c0.6,0.8,0.8,1.3,0.8,1.3
	l2.4-2.9l-2.9,5.9c0,0,1.4,1.8,2.8,1.6c1.1-0.1,3.5-2.1,5.1-2.4c1.6-0.3,2.3-0.1,2.3-0.1s1.1-2.9,0.6-4.9c-0.9-3.6-0.2-5.6,0.5-6.8
	c-0.6,4.8,1,5.2,0.9,8.3c-0.1,2.3-0.8,4.9-0.8,4.9s-2.3-0.8-4.1,0.1c-1.8,0.9-3.3,2.2-5,2.2c-1.8,0-4.1-3-4.1-3l1.3-1.9
	c0,0-0.1-0.6-0.7-1.2c-0.8-1-2-2.3-2.1-3.4c-0.1-1.8,1.8-3.8,2.4-4.7s2.7-3.1,2.7-3.1s-5.9,0.8-8.3,3.7c-3,3.5-3.4,4.6-4.5,4.7
	s-1.5-1-1.5-1S2,22,1.9,21c-0.2-1.6,0.3-2.6,0.3-2.6s-1.8,1.1-2.1,2.2c-0.3,1.1,0.5,1.4,0.5,1.4s0,2,1.2,2.5
	c1.2,0.5,2.1,0.1,2.1,0.1s-0.7,3.7,0.2,6.4s3.1,5.7,3.1,5.7s-0.2,2-0.4,2.6C6.6,39.8,5.8,41,7,41.8s4.2,1.1,4.8,0.7
	c0.7-0.4,0.5-1.6,0.6-2c0.1-0.4,1-2.1,1.1-2.6c0.1-0.5,0.1-3-0.1-3.9c0.2,0.4,0.9,2.3,3.7,2.4c2.5,0.1,3.3-1.3,3.4-2.2
	c0,0.4,0.2,2.3-0.1,2.6c-0.2,0.4-1,0.6-1.8,1c-0.7,0.5-1.7,1-0.1,3c1.9,2.3,2.2,2.5,3.8,1.2c1.6-1.2,3.3-2.4,4.5-3.9
	c1.2-1.5,3.3-7.1,3.3-7.1s-1.3-0.9-2.1-1.9c-0.6-0.8-0.7-1.3-0.7-1.3s1.7,1.6,3.5,2.1c0.6,0.8,1.8,1.8,2.7,2.2
	c3.4,1.4,4.5-2.9,4.5-2.9l-0.5-0.1c0,0-0.9,2.2-2.5,2c-3-0.4-2.1-6.5-2.1-6.5s3,4.4,9.2,4.3C46,29.1,50.3,24.6,50,16.6z M28.6,16.3
	c0,0,0.3-2.9,0.8-3.3c0.7-0.5,2.7,0.1,2.7,0.1s-1.3,0-2,0.7C29.5,14.4,28.6,16.3,28.6,16.3z M33.5,18.8c-0.9,0.7-1.7,1.7-1.7,1.7
	s0.1-0.4,0.3-0.7c0.2-0.3,0.5-0.7,0.5-0.7s-0.3-0.1-0.8-0.5c-0.3-0.3-0.4-0.5-0.4-0.7c0,0-0.2,0.1-0.4,0.3s-0.6,0.6-0.6,0.6
	s0.8-1.6,2-2.4c1.2-0.8,2.5-0.8,2.5-0.8s-0.2,0-0.6,0.2c-0.5,0.2-0.5,0.3-0.5,0.3s0.4,0.1,0.8,0.5c0.4,0.4,0.4,0.9,0.4,0.9
	s0.1,0,0.5-0.2s0.9-0.2,0.9-0.2S34.8,17.8,33.5,18.8z M46.2,11.3c-1,0.8-2.1,0.8-2.2,0.5c-0.1-0.3,0.1-0.3,0.1-0.3s1.1-0.4,1.7-0.9
	c0.8-0.6,1.5-1.9,1.7-1.6S47,10.7,46.2,11.3z"/>
    <path fill="#FFFFFF" d="M25.2,12.6c0,0-0.7,0.3-2,0.5c-1.3,0.2-2.2,0.1-2.8,0.4c-0.9,0.5-1.4,1.4-1.8,2.7c-0.5,1.6-0.4,3.6-0.4,3.6
	s0.8-2.9,1.4-3.9c0.5-0.8,0.9-1.1,0.9-1.1s-0.2,0.5-0.1,0.9c0.1,1,0.5,1.7,0.5,1.7s0.1-2,0.8-2.9c0.4-0.5,1-0.9,1.8-1
	S25.2,12.6,25.2,12.6z"/>
  </symbol>

  <symbol id="recovery-manager" viewBox="-1 -1 34 34">
    <path fill="#FFFFFF" d="M2,14.6c2.2,0,3.1,0.2,3.8-1.7C7.3,8.7,10.9,5,16,5l0,0c5.1,0,8.8,3.6,10.3,7.9c0.7,1.9,1.7,1.7,3.9,1.7
	c0.3,0-0.2,0,0,0L30,7.8L16,0L1.9,8.2L2,14.6C2,14.6,2.1,14.6,2,14.6C2.1,14.6,1.5,14.6,2,14.6z"/>
    <path fill="#FFFFFF" d="M2,18.4v5.6L16.2,32l13.9-8.3v-5.2c-0.2,0.1,0.1-0.1-0.2-0.1h-1.4c-1.3,0.1-1.9,0.4-2.3,1.3
	c-1.5,4.2-5.2,7.5-10.3,7.5l0,0c-5.1,0-8.8-3.2-10.3-7.5c-0.4-1.1-1-1.2-2.3-1.3H2"/>
    <path fill="#FFFFFF" d="M14.1,21.1v-9.2l7,4.6L14.1,21.1z M21.2,11c-2.9-2.9-7.4-2.9-10.2,0c-2.9,2.9-2.9,7.5,0,10.3
	c2.9,2.9,7.4,2.9,10.2,0C24,18.5,24,13.9,21.2,11z"/>
  </symbol>

  <symbol id="media-services" viewBox="-1 -1 34 34">
    <path fill="#FFFFFF" d="M2,14.6c2.2,0,3.1,0.2,3.8-1.7C7.3,8.7,10.9,5,16,5l0,0c5.1,0,8.8,3.6,10.3,7.9c0.7,1.9,1.7,1.7,3.9,1.7
	c0.3,0-0.2,0,0,0L30,7.8L16,0L1.9,8.2L2,14.6C2,14.6,2.1,14.6,2,14.6C2.1,14.6,1.5,14.6,2,14.6z"/>
    <path fill="#FFFFFF" d="M2,18.4v5.6L16.2,32l13.9-8.3v-5.2c-0.2,0.1,0.1-0.1-0.2-0.1h-1.4c-1.3,0.1-1.9,0.4-2.3,1.3
	c-1.5,4.2-5.2,7.5-10.3,7.5l0,0c-5.1,0-8.8-3.2-10.3-7.5c-0.4-1.1-1-1.2-2.3-1.3H2"/>
    <path fill="#FFFFFF" d="M14.1,21.1v-9.2l7,4.6L14.1,21.1z M21.2,11c-2.9-2.9-7.4-2.9-10.2,0c-2.9,2.9-2.9,7.5,0,10.3
	c2.9,2.9,7.4,2.9,10.2,0C24,18.5,24,13.9,21.2,11z"/>
  </symbol>

  <symbol id="active-directory" viewBox="-1 -1 34 34">
    <path fill="#FFFFFF" d="M17.2,11.7c-0.2,0.1-0.3,0.1-0.6,0.2v10.3c0.3,0.1,0.7,0.3,1,0.6l4.6-3.7c-0.1-0.2-0.1-0.6-0.1-0.9
	c0-0.3,0.1-0.8,0.2-1.1L17.2,11.7z"/>
    <path fill="#FFFFFF" d="M9.6,17.1c0.2,0.3,0.3,0.8,0.3,1.2c0,0.3-0.1,0.7-0.2,1l4.6,3.7c0.2-0.2,0.6-0.4,0.9-0.6V11.9
	c-0.2-0.1-0.3-0.1-0.4-0.2L9.6,17.1z"/>
    <path fill="#FFFFFF" d="M16,0L0,19l16,13l16-13L16,0z M24.7,20.9c-0.6,0-1.1-0.2-1.6-0.6l-4.6,3.8c0.1,0.2,0.1,0.4,0.1,0.7
	c0,1.4-1.1,2.6-2.6,2.6s-2.6-1.1-2.6-2.6c0-0.2,0-0.4,0.1-0.6l-4.9-3.8c-0.4,0.3-0.9,0.4-1.4,0.4c-1.4,0-2.6-1.1-2.6-2.6
	c0-1.4,1.1-2.6,2.6-2.6c0.4,0,0.8,0.1,1.2,0.3l5.1-5.6c-0.1-0.3-0.2-0.7-0.2-1.1c0-1.4,1.1-2.6,2.6-2.6s2.6,1.1,2.6,2.6
	c0,0.4-0.1,0.9-0.3,1.2l5,5.6c0.4-0.2,0.9-0.3,1.3-0.3c1.4,0,2.6,1.1,2.6,2.6C27.2,19.8,26,20.9,24.7,20.9z"/>
  </symbol>

  <symbol id="multi-factor-authentication" viewBox="-1 -1 34 34">
    <path fill="#FFFFFF" d="M19.6,30l-2.9,0.5c-0.3,0-0.5-0.1-0.5-0.4s0.1-0.5,0.4-0.5l2.9-0.5c0.3,0,0.5,0.1,0.5,0.3
	C20,29.7,19.9,30,19.6,30z M16.3,18.6c1-0.2,2,0.5,2.1,1.5c0.1,0.7-0.1,1.4-0.8,1.8l0.4,2.2l-1.7,0.3l-0.4-2.3
	c-0.5-0.2-1.1-0.8-1.2-1.4C14.4,19.8,15.1,18.8,16.3,18.6z M12.9,2.1L14,1.9c0.3,0,0.5,0.1,0.5,0.4s-0.1,0.5-0.4,0.5L13,2.9
	c-0.3,0-0.5-0.1-0.5-0.4C12.5,2.3,12.6,2.1,12.9,2.1z M21.8,15c-0.1-0.7-0.7-1.1-1.4-0.9l-8.7,1.4l-1.5-9.1
	c-0.1-0.8,0.4-1.4,1.2-1.5L16.5,4c0.8-0.1,1.5,0.3,1.6,1.1l1,6.5c0.1,0.4,0.4,0.6,0.8,0.6c0.4-0.1,0.6-0.4,0.6-0.8L18.8,1.1
	C18.7,0.3,18-0.1,17.2,0L9.2,1.3C8.4,1.4,7.9,2.1,8,2.8l2.1,12.7c0,0.1,0,0.2,0.1,0.3c-0.4,0.3-0.6,0.7-0.5,1.2L12,30.9
	c0.1,0.7,0.8,1.2,1.5,1.1l9.5-1.5c0.7-0.1,1.1-0.8,1-1.5L21.8,15z"/>
  </symbol>

  <symbol id="service-bus" viewBox="-1 -1 34 34">
    <polygon fill="#FFFFFF" points="13.6,19.2 10.4,19.2 10.4,26 7.6,26 12.1,32 16.6,26 13.6,26 "/>
    <rect x="7.9" y="9.1" fill="#FFFFFF" width="7.9" height="2.3"/>
    <rect x="7.9" y="12.4" fill="#FFFFFF" width="7.9" height="2.3"/>
    <rect x="7.9" y="15.8" fill="#FFFFFF" width="7.9" height="2.3"/>
    <path fill="#FFFFFF" d="M12.7,0h-1.8H5.4H4.3H3.5c-0.2,0-1,0-1,1.1v14.6l0,0v7.9c0,0.2,1,1.1,1.2,1.1h1.1h4.3v-3.4H5.8v-2.6v-3.2
	V3.3h4.5v4.5h3.4v-7C13.6,0,13,0,12.7,0z"/>
    <path fill="#FFFFFF" d="M24.3,14.6h-1c-0.6-6.8-3.9-10-8.4-10.9V7c3.4,1.1,4.7,4.4,4.8,8.9l-0.1,2.3l4.5-0.1c1.2,0,2.2,0.3,2.2,1.6
	v2H14.9v3.4h13.4c0.2,0,1.2-0.9,1.2-1.1v-0.7v-1.7v-2.2C29.5,16.6,27.1,14.6,24.3,14.6z"/>
  </symbol>

  <symbol id="notification-hubs" viewBox="-1 -1 34 34">
    <path fill="#FFFFFF" d="M2.7,11.1h29.1l-8-6.8v3.4H2.7V5c0-1.3,1.2-2.8,2.6-2.8h21.6c1.3,0,2.6,1.4,2.6,2.8v1.2l2.2,2.2V5
		c0-2.8-2-5-4.8-5H5.2C2.4,0,0.4,2.2,0.4,5v6.1h2H2.7z"/>
    <path fill="#FFFFFF" d="M29.2,13.3h-29l8,6.6v-4.3h21.1v3.6c0,1.3-1.1,3.1-2.6,3.1H5.2c-1.3,0-2.6-1.7-2.6-3.1v-1.2l-2.2-2.2v3.4
		c0,2.8,2,5.3,4.8,5.3H10L20.7,32l-0.8-7.6h7c2.8,0,4.8-2.6,4.8-5.3v-5.8h-1.9H29.2z"/>
  </symbol>

  <symbol id="biztalk-services" viewBox="-1 -1 34 34">
    <path fill="#FFFFFF" d="M19.1,15.2c0-1.6-1.3-2.9-2.9-2.9c-1.6,0-2.9,1.3-2.9,2.9s1.3,2.9,2.9,2.9S19.1,16.9,19.1,15.2z"/>
    <path fill="#FFFFFF" d="M27.7,10.3C27.9,9.7,28,9,28,8.3c0-4.3-3.4-7.8-7.5-7.8c-3.1,0-5.8,2-7,4.8c-1-1.2-2.4-1.9-4.1-1.9
	c-2.9,0-5.3,2.5-5.3,5.5c0,0.5,0.1,1,0.2,1.5c-2.4,0.9-4.1,3-4.1,5.8c0,3.6,2.8,6.3,6.3,6.3h1.9h7.2v-2.7c-1.1-0.2-2.1-0.8-2.8-1.6
	l-2.4,1.4l0.9,1.7l-3.9-0.8l1.3-3.8l1,1.8l2.4-1.4c-0.2-0.5-0.4-1.1-0.4-1.8c0-0.6,0.1-1.2,0.3-1.7l-2.5-1.4l-1,1.7l-1.2-3.8L11,9.5
	l-0.9,1.6l2.5,1.4c0.7-0.9,1.7-1.5,2.9-1.7V8h-1.8l2.4-3l2.5,3h-1.9v2.8c1.2,0.2,2.2,0.8,3,1.7l2.5-1.4l-1-1.7l3.8,0.8L23.3,14
	l-0.5-1.7l-2.5,1.4c0.2,0.5,0.3,1.1,0.3,1.7c0,0.6-0.1,1.1-0.3,1.7l2.5,1.4l1.1-1.9l1.1,4l-3.9,0.9l1-1.8l-2.5-1.5
	c-0.7,0.9-1.8,1.6-3,1.7v2.7h7.8h1.2c3.5,0,6.3-2.8,6.3-6.3C32.1,13.2,30.3,11.1,27.7,10.3z"/>
    <path fill="#FFFFFF" d="M16.7,26.6v-4.1h-1.3v4.1c-1.1,0.3-1.9,1.3-1.9,2.4c0,1.4,1.1,2.5,2.5,2.5s2.5-1.1,2.5-2.5
	C18.6,27.8,17.8,26.9,16.7,26.6z"/>
  </symbol>

  <symbol id="scheduler" viewBox="-1 -1 34 34">
    <path fill="#FFFFFF" d="M17.1,22.6v1.2v1.8l-0.6-0.1c-0.2,0-0.5-0.1-0.7-0.1c-0.6-0.1-1.2-0.3-1.8-0.6c-0.2-0.1-0.4-0.2-0.6-0.3
	l-0.3-0.1l-0.3-0.1l-0.3-0.1L12.2,24c-0.2-0.1-0.4-0.2-0.5-0.3c-0.7-0.5-1.4-1-2-1.6c-0.6-0.6-1.1-1.3-1.6-2
	c-0.5-0.7-0.9-1.5-1.2-2.3c-0.6-1.7-0.9-3.4-0.8-5.2c0.1-1.8,0.6-3.5,1.4-5s1.9-2.8,3.2-3.8C11.4,3.4,12,3,12.6,2.6
	c0.7-0.4,1.4-0.6,2-0.9C15.9,1.2,17.2,1,18.4,1s2.2,0.1,3,0.2s1.5,0.4,1.9,0.5L24,2l0.2,0.1c0.1,0,0.2,0,0.2-0.1
	c0-0.1,0-0.2-0.1-0.2l-0.2-0.1l-0.5-0.3c-0.4-0.2-1.1-0.5-1.9-0.8c-0.9-0.3-1.9-0.5-3.2-0.6c-1.3-0.1-2.7,0-4.2,0.4s-3.1,1-4.6,2.1
	c-1.5,1-2.9,2.4-4,4.1s-1.9,3.7-2.2,5.8c-0.2,1-0.2,2.1-0.1,3.2c0.1,1.1,0.3,2.2,0.6,3.2c0.3,1,0.8,2,1.3,3c0.6,1,1.2,1.8,2,2.6
	s1.6,1.5,2.5,2.1c0.2,0.1,0.4,0.3,0.7,0.4l0.3,0.2l0.4,0.2l0.3,0.2l0.4,0.2c0.2,0.1,0.5,0.2,0.7,0.3c1,0.4,2,0.7,3,0.8
	c0.3,0.1,0.9,0.1,1.3,0.1v0.1V32l4.5-4.7L17.1,22.6z"/>
    <path fill="#FFFFFF" d="M18.4,3.5c-5.5,0-9.6,4.5-9.6,9.9c0,4.6,3,8.4,7.3,9.5V22c0-0.4,0.3-0.7,0.6-0.9c0.1,0-0.1-0.1,0.1-0.1
	c0.3,0,0.5,0.1,0.7,0.3l1.9,1.9c5.2-0.4,9.2-4.7,9.2-9.9C28.5,8,24,3.5,18.4,3.5z M11.4,14.6c-0.6,0-1.1-0.5-1.1-1.1
	s0.5-1.1,1.1-1.1s1.1,0.5,1.1,1.1S12,14.6,11.4,14.6z M18.5,4.7c0.6,0,1.1,0.5,1.1,1.1s-0.5,1.1-1.1,1.1c-0.6,0-1.1-0.5-1.1-1.1
	C17.3,5.2,17.8,4.7,18.5,4.7z M24.2,18.7c-0.2,0.3-0.5,0.4-0.8,0.4c-0.2,0-0.4-0.1-0.6-0.2l-5.2-4.2V9.3c0-0.6,0.4-1,1-1
	c0.6,0,1,0.4,1,1v4.3l4.4,3.7C24.4,17.6,24.5,18.2,24.2,18.7z M26.2,14.6c-0.6,0-1.1-0.5-1.1-1.1s0.5-1.1,1.1-1.1
	c0.6,0,1.1,0.5,1.1,1.1S26.8,14.6,26.2,14.6z"/>
  </symbol>

  <symbol id="visual-studio-online" viewBox="-1 -1 34 34">
    <path fill="#FFFFFF" d="M15.5,16L24,9.3v13.2L15.5,16z M3.2,20.8v-9.6L8,16.1L3.2,20.8z M24,0L11.4,12.7L3.2,6.4L0,8.1v16l3.2,1.6
	l8.1-6.3L24,32l8-3.2V3.1L24,0z"/>
  </symbol>

  <symbol id="virtual-network" viewBox="-1 -1 34 34">
    <polygon fill="#FFFFFF" points="32,15.9 30.1,14 23.4,7.4 22.3,8.4 29.9,15.9 22.3,23.6 23.4,24.6 30.1,18 "/>
    <polygon fill="#FFFFFF" points="0,15.9 1.9,14 8.6,7.4 9.7,8.4 2.1,15.9 9.7,23.6 8.6,24.6 1.9,18 "/>
    <path fill="#FFFFFF" d="M12.1,15.9c0,1.1-0.9,1.9-1.9,1.9s-2-0.9-2-1.9S9,14,10.2,14C11.3,14,12.1,14.9,12.1,15.9z"/>
    <path fill="#FFFFFF" d="M17.9,15.9c0,1.1-0.9,1.9-1.9,1.9s-2-0.9-2-1.9s0.9-1.9,2-1.9S17.9,14.9,17.9,15.9z"/>
    <circle fill="#FFFFFF" cx="21.9" cy="15.9" r="1.9"/>
  </symbol>

  <symbol id="traffic-manager" viewBox="-1 -1 34 34">
    <polygon fill="#FFFFFF" points="22.9,18.7 20.6,21 20.6,14.2 27.6,14.2 25,16.4 31.4,22.8 31.4,9.4 22.4,0 9.6,0 7.2,2.4 14.6,10.1 
	17.8,6.8 17.8,17 7.8,17 11,13.7 3.9,6.3 0.6,9.7 0.6,22.7 9.6,32 20.9,32 12.2,23.3 10.6,25.3 10.6,19.8 15.6,19.8 14.1,21.6 
	23.4,31.1 29,25.3 "/>
  </symbol>

  <symbol id="store" viewBox="-1 -1 34 34">
    <path fill="#FFFFFF" d="M9.6,4.5c0-1.8,2.2-2.8,4-2.8l0,0c1,0,3,0.7,3,2.3v4.7h-2.4V4.5c0-0.5,0.1-0.7,0.3-1
	c-0.6-0.3-0.8-0.3-0.9-0.3h-0.1c-0.2,0.5-0.3,0.9-0.3,1.5V9H9.6C9.4,7.9,9.4,6.4,9.6,4.5z M28.4,29.4L26.9,8.5l-1.7,1l-0.8-0.9h-2.3
	V3.9c0-2.2-1.6-3.8-4.3-3.8l0,0c-0.3,0-0.6,0-0.9,0.1c0.7,0.3,1.2,0.7,1.6,1.3c1.3,0.1,2.5,0.9,2.5,2.3v4.7h-3.7V3.8
	c0-2.2-1.2-3.8-3.9-3.8l0,0c-3,0-4.9,1.4-4.9,4.1v4.3H4.6l-1,22.1L23.7,32l0,0h0.3h0.8L28.4,29.4z"/>
  </symbol>

  <symbol id="expressroute" viewBox="-1 -1 34 34">
    <path fill="#FFFFFF" d="M16,11c-0.6,0-1.2-0.5-1.2-1.2s0.5-1.2,1.2-1.2c0.6,0,1.2,0.5,1.2,1.2C17.2,10.4,16.7,11,16,11z M16,6.2
	c-2,0-3.6,1.6-3.6,3.6s1.6,3.6,3.6,3.6s3.6-1.6,3.6-3.6S18,6.2,16,6.2z"/>
    <path fill="#FFFFFF" d="M3.6,23.4c-0.6,0-1.2-0.5-1.2-1.2c0-0.6,0.5-1.2,1.2-1.2s1.2,0.5,1.2,1.2S4.2,23.4,3.6,23.4z M3.6,18.6
	c-2,0-3.6,1.6-3.6,3.6s1.6,3.6,3.6,3.6s3.6-1.6,3.6-3.6S5.6,18.6,3.6,18.6z"/>
    <path fill="#FFFFFF" d="M28.4,23.3c-0.6,0-1.2-0.5-1.2-1.2s0.5-1.2,1.2-1.2c0.6,0,1.2,0.5,1.2,1.2S29.1,23.3,28.4,23.3z M28.4,18.6
	c-2,0-3.6,1.6-3.6,3.6s1.6,3.6,3.6,3.6s3.6-1.6,3.6-3.6C32,20.2,30.4,18.6,28.4,18.6z"/>
    <rect x="6.3" y="21" fill="#FFFFFF" width="19.9" height="2.5"/>
    <rect x="2.7" y="15" transform="matrix(0.7071 -0.7071 0.7071 0.7071 -8.7422 11.4988)" fill="#FFFFFF" width="13.6" height="2.5"/>
    <rect x="15.7" y="14.9" transform="matrix(0.7071 0.7071 -0.7071 0.7071 18.0447 -11.1752)" fill="#FFFFFF" width="13.6" height="2.5"/>
  </symbol>

  <symbol id="automation" viewBox="-1 -1 34 34">
    <path fill="#FFFFFF" d="M29.3,15.4c0-0.2,0-0.5,0-0.7l2.4-1.3c-0.1-0.8-0.3-1.6-0.6-2.3l-2.8,0.1c-0.2-0.4-0.4-0.8-0.7-1.2L29,7.6
	c-0.5-0.6-1.1-1.2-1.7-1.7l-1.4,0.8l-0.6,0.9L24,9.5c1.8,1.4,3,3.6,3,6c0,4.2-3.4,7.6-7.6,7.6S12,19.7,12,15.5
	c0-3.8,2.7-6.9,6.3-7.5l0.6-2.3l-1.3-2.4c-0.8,0.1-1.6,0.3-2.3,0.6v2.8c-0.4,0.2-0.8,0.4-1.2,0.7L11.7,6c-0.6,0.5-1.2,1.1-1.7,1.7
	l1.4,2.4c-0.3,0.4-0.5,0.8-0.7,1.2L8,11.1c-0.3,0.7-0.5,1.5-0.6,2.3l2.4,1.3c0,0.2,0,0.5,0,0.7c0,0.2,0,0.5,0,0.7l-2.4,1.3
	C7.5,18.2,7.7,19,8,19.7l2.8-0.1c0.2,0.4,0.4,0.8,0.7,1.2l-1.4,2.4c0.5,0.6,1.1,1.2,1.7,1.7l2.4-1.4c0.4,0.3,0.8,0.5,1.2,0.7V27
	c0.7,0.3,1.5,0.5,2.3,0.6l1.4-2.4c0.2,0,0.5,0,0.7,0c0.2,0,0.5,0,0.7,0l1.3,2.4c0.8-0.1,1.6-0.3,2.3-0.6v-2.8
	c0.4-0.2,0.8-0.4,1.2-0.7l2.4,1.4c0.6-0.5,1.2-1.1,1.7-1.7l-1.4-2.4c0.3-0.4,0.5-0.8,0.7-1.2l2.8,0.1c0.3-0.7,0.5-1.5,0.6-2.3
	l-2.4-1.3C29.3,15.8,29.3,15.6,29.3,15.4z"/>
    <path fill="#FFFFFF" d="M5.2,26.9c-0.9,0-1.7-0.8-1.7-1.7s0.8-1.7,1.7-1.7s1.7,0.8,1.7,1.7S6.2,26.9,5.2,26.9z M8.4,21.1l-0.2,0.1
	L7,21.8l-0.8-0.3L5.7,20H4.6l-0.1,0.2l-0.4,1.3l-0.8,0.3l-1.4-0.7L1.1,22l0.1,0.2l0.6,1.2l-0.3,0.8L0,24.7v1.2L0.2,26l1.3,0.4
	l0.3,0.8l-0.6,1.4L2,29.4l0.2-0.1l1.2-0.6L4.2,29l0.5,1.4h1.2L6,30.2l0.4-1.3l0.8-0.3l1.4,0.7l0.8-0.8l-0.1-0.2l-0.6-1.2L9,26.3
	l1.4-0.5v-1.2l-0.2-0.1L9,24.2l-0.3-0.8l0.6-1.3c-0.1-0.2-0.2-0.3-0.3-0.5L8.4,21.1z"/>
    <path fill="#FFFFFF" d="M21.1,1.6L20.6,3l-0.8,2.5l-0.4,1.2l-0.3,1.1l-2.3,7.3c0,0.1,0,0.3,0.2,0.3h2.1c0.1,0,0.1,0,0.1,0.1
	c0,0.1,0.1,0.1,0,0.2L17,21c-0.1,0.1,0,0.2,0.1,0.1l6.9-7.9c0.1-0.1,0.1-0.2-0.1-0.2h-2.3h-0.4c-0.1,0-0.2-0.1-0.1-0.2L23.3,9
	l0.5-0.9L24.4,7l1.3-2.2l0.7-1.3C24.8,2.4,23.1,1.8,21.1,1.6z"/>
  </symbol>

  <symbol id="remoteapp" viewBox="-1 -1 34 34">
    <polygon fill="#FFFFFF" points="24.2,8.4 22.1,6.3 15.2,13.2 22.1,20.1 24.2,18.1 19.5,13.4 "/>
    <polygon fill="#FFFFFF" points="7.8,14.2 12.5,18.9 7.8,23.6 9.9,25.7 16.8,18.8 9.9,11.9 "/>
    <path fill="#FFFFFF" d="M16,0C7.1,0,0,7.3,0,16c0,8.9,7.3,16,16,16s16-7.3,16-16S24.9,0,16,0z M16,2.1c7.7,0,13.9,6.2,13.9,13.9
	S23.6,29.9,16,29.9S2.1,23.6,2.1,16S8.3,2.1,16,2.1z"/>
  </symbol>

  <symbol id="sharepoint" viewBox="-1 -1 34 34">
    <path fill="#FFFFFF" d="M17.7,31.1L0,28V4l17.7-3.1V31.1z M8.3,9.8c-0.2,0-0.5,0.1-0.8,0.1C7.3,10,7.1,10,6.9,10.1
		c-0.2,0.1-0.4,0.2-0.5,0.3c-0.2,0.1-0.3,0.3-0.5,0.4c-0.1,0.2-0.3,0.3-0.4,0.5c-0.1,0.2-0.1,0.4-0.2,0.6c-0.1,0.2-0.1,0.4-0.2,0.6
		c0,0.2-0.1,0.5-0.1,0.8c0,0.3,0,0.8,0.1,1.1c0.1,0.3,0.2,0.6,0.4,1c0.2,0.3,0.4,0.5,0.6,0.9c0.2,0.2,0.5,0.5,1,0.8
		c0.1,0.1,0.3,0.2,0.4,0.3s0.2,0.2,0.3,0.2c0.1,0.1,0.2,0.1,0.3,0.2C8.2,18,8.2,18,8.3,18.1c0.1,0.2,0.1,0.3,0.2,0.3
		c0.1,0.1,0.1,0.2,0.1,0.3s0.1,0.2,0.1,0.3c0,0.1,0,0.2,0,0.3s0,0.2,0,0.2c0,0.1,0,0.1-0.1,0.2c0,0.1-0.1,0.1-0.1,0.2
		c0,0.1-0.1,0.1-0.1,0.2c-0.1,0.1-0.1,0.1-0.2,0.2c-0.1,0-0.1,0.1-0.2,0.1s-0.2,0-0.3,0.1c-0.1,0-0.2,0-0.3,0c-0.2,0-0.4,0-0.6-0.1
		c-0.2-0.1-0.4-0.1-0.6-0.2c-0.2-0.1-0.4-0.2-0.6-0.4c-0.2-0.2-0.3-0.3-0.5-0.5v2.7c0.1,0.1,0.3,0.2,0.5,0.3
		c0.2,0.1,0.3,0.2,0.5,0.2c0.2,0.1,0.4,0.1,0.6,0.2c0.2,0,0.4,0.1,0.8,0.1c0.3,0,0.6,0,1,0c0.3,0,0.5-0.1,0.9-0.2
		c0.2-0.1,0.5-0.2,0.6-0.3c0.2-0.1,0.4-0.3,0.5-0.5c0.1-0.1,0.2-0.3,0.3-0.5c0.1-0.2,0.2-0.4,0.2-0.6C11,20.5,11,20.3,11,20
		c0-0.2,0.1-0.5,0.1-0.8s0-0.4,0-0.6c0-0.2-0.1-0.4-0.1-0.6c-0.1-0.2-0.1-0.3-0.2-0.5c-0.1-0.2-0.2-0.3-0.3-0.5
		c-0.1-0.1-0.2-0.2-0.3-0.4c-0.1-0.1-0.3-0.2-0.4-0.4c-0.1-0.1-0.3-0.2-0.5-0.4c-0.2-0.1-0.4-0.2-0.6-0.4C8.4,15.1,8.2,15,8.1,15
		c-0.1-0.1-0.2-0.1-0.3-0.2c-0.1-0.1-0.2-0.1-0.2-0.2c-0.1-0.1-0.1-0.1-0.2-0.2c0-0.1-0.1-0.1-0.1-0.2c0-0.1-0.1-0.1-0.1-0.2
		c0-0.1,0-0.2-0.1-0.2c0-0.1,0-0.2,0-0.3s0-0.2,0-0.2c0-0.1,0-0.2,0.1-0.2c0-0.1,0.1-0.1,0.1-0.2c0-0.1,0.1-0.1,0.1-0.2
		c0.1-0.1,0.1-0.1,0.2-0.1c0.1,0,0.1-0.1,0.2-0.1c0.1,0,0.2-0.1,0.2-0.1c0.1,0,0.2,0,0.3,0c0.2,0,0.4,0,0.6,0c0.2,0,0.4,0.1,0.5,0.1
		c0.2,0.1,0.4,0.1,0.5,0.2c0.2,0.1,0.3,0.2,0.5,0.3v-2.7C10.4,10,10.2,10,10,9.9c-0.2,0-0.3-0.1-0.5-0.1s-0.4,0-0.6,0
		C8.8,9.7,8.6,9.7,8.3,9.8"/>
    <path fill="#FFFFFF" d="M29.2,13c-0.2,0-0.4,0-0.5,0.1c-0.8-2-2.4-3.7-4.4-4.5c0-0.2,0.1-0.3,0.1-0.5c0-1.6-1.3-3-2.9-3
		c-0.9,0-1.5,0.3-2,0.9v4.2c0.5,0.5,1.3,1,2,1c0.9,0,1.6-0.4,2.2-1c1.7,0.6,3,2,3.7,3.8c-0.5,0.5-1,1.3-1,2.2c0,0.9,0.3,1.6,1,2.2
		c-0.6,1.7-1.9,3.1-3.7,3.8c-0.5-0.6-1.3-1-2.2-1c-0.9,0-1.5,0.3-2,1v4.2c0.5,0.5,1.3,0.9,2,0.9c1.6,0,2.9-1.3,2.9-3
		c0-0.2,0-0.4-0.1-0.5c1.9-0.9,3.6-2.5,4.3-4.5c0.2,0,0.3,0.1,0.5,0.1c1.6,0,2.9-1.4,2.9-3C32.1,14.4,30.8,13,29.2,13z"/>
  </symbol>

  <symbol id="cdn" viewBox="-1 -1 34 34">
    <path fill="#FFFFFF" d="M27.5,14.5c0.1-0.6,0.2-1.3,0.2-1.9c0-2.6-1.3-4.9-3.2-6.3l-3.1,5.2c-0.1,0.2,0,0.3,0.2,0.3h4.1
	c0.2,0,0.3,0.1,0.1,0.3L15.7,23.7c-0.1,0.2-0.2,0.1-0.1-0.1l3.2-7.9c0.1-0.2,0-0.3-0.2-0.3h-3.1c-0.2,0-0.3-0.2-0.2-0.3L19,5.1
	c-2.5,0.4-4.6,2.3-5.6,4.5c-1-1.2-2.5-1.9-4.1-1.9c-2.9,0-5.4,2.4-5.4,5.4c0,0.5,0.1,1,0.2,1.5C1.7,15.5,0,17.8,0,20.5
	c0,3.6,2.8,6.4,6.4,6.4h19.2c3.5,0,6.4-2.8,6.4-6.4C31.9,17.7,30.1,15.4,27.5,14.5z"/>
  </symbol>

  <symbol id="cms" viewBox="-1 -1 34 34">
    <path fill="#FFFFFF" d="M15.2,0C8.4,0,2.9,2.2,2.9,4.7v22.4c0,2.3,4.6,4.5,10.6,4.8V12.6h10.3l4.2,3.7L27.9,4.9C28,2.5,22,0,15.2,0z
	 M15.2,1.7c4.8,0,9.3,1.2,9.3,2.6S20,6.9,15.2,6.9S6.4,5.7,6.4,4.3C6.5,2.9,10.4,1.7,15.2,1.7z"/>
    <path fill="#FFFFFF" d="M28.1,31H15.5V14.5h7.8v4.8h4.7V31z M23.3,13.6h-8.7V32h14.4V18.9L23.3,13.6z"/>
    <rect x="18.3" y="17.6" fill="#FFFFFF" width="2.9" height="1"/>
    <rect x="18.3" y="19.6" fill="#FFFFFF" width="2.9" height="1"/>
    <rect x="18.3" y="21.5" fill="#FFFFFF" width="2.9" height="1"/>
    <rect x="18.3" y="23.4" fill="#FFFFFF" width="2.9" height="1"/>
    <rect x="18.3" y="25.4" fill="#FFFFFF" width="2.9" height="1"/>
    <rect x="18.3" y="27.3" fill="#FFFFFF" width="2.9" height="1"/>
    <rect x="22.2" y="27.3" fill="#FFFFFF" width="2.9" height="1"/>
    <rect x="22.2" y="25.4" fill="#FFFFFF" width="2.9" height="1"/>
    <rect x="22.2" y="23.4" fill="#FFFFFF" width="2.9" height="1"/>
    <rect x="22.2" y="21.5" fill="#FFFFFF" width="2.9" height="1"/>
  </symbol>

  <symbol id="api-management" viewBox="-1 -1 34 34">
    <path fill="#FFFFFF" d="M28.1,13.8c0.1-0.4,0.1-0.6,0.1-1.2c0-5.6-4.6-9.9-10.2-9.9l0,0c-4,0-7.7,2.1-9.2,5.8
    C8.3,8.5,7.9,8.3,7.3,8.3c-4,0-7.3,3.2-7.3,7.3c0,4,3.3,7.2,7.3,7.2h3.7c0.1,0.5,0.4,1,0.9,1.4c1.3,1.4,3.5,1.3,4.8,0
    c1.3-1.3,1.3-3.5,0-4.8c-1.3-1.4-3.5-1.4-4.8,0c-0.3,0.3-0.5,0.9-0.7,1.3l-3.8,0.1l0,0c-2.8,0-5.1-2.3-5.1-5.2s2.2-5.2,5.1-5.2
    c0.5,0,1.1,0.1,1.7,0.2l1.1,0.3l0.3-1.1c1.1-3.3,4.1-5.5,7.7-5.5c4.4,0,8,3.6,8,8c0,0.7-0.1,1.4-0.3,2.1l-0.4,1.6l1.7-0.2
    c0.1,0,0.2,0,0.3,0c1.3,0,2.3,1.1,2.3,2.3c0,1.2-0.9,2.1-2,2.3c0,0-5.5,0-5.7,0c-0.2-1.6-1-3-2.1-4.1c-1.4-1.4-3.3-2.2-5.3-2.2
    c-1.4,0-2.8,0.4-3.9,1.1l1.2,1.9c0.9-0.5,1.8-0.7,2.8-0.7c1.4,0,2.8,0.5,3.7,1.6c1,1,1.6,2.3,1.6,3.7s-0.5,2.8-1.6,3.7
    c-1,1.1-2.3,1.6-3.7,1.6c-1,0-2-0.3-2.8-0.9l-1.2,1.9c1.2,0.7,2.6,1.2,3.9,1.2c2,0,3.9-0.7,5.3-2.2c1.2-1.2,1.9-2.7,2.1-4.4
    c0.3,0,5.8-0.1,5.8-0.1h0.1c2.3-0.2,4.1-2.2,4.1-4.6C31.7,16,30.2,14.2,28.1,13.8z"/>
  </symbol>

  <symbol id="documentdb" viewBox="-1 -1 52 52">
    <path fill-rule="evenodd" clip-rule="evenodd" fill="#FFFFFF" d="M25.3,10.9C17.4,10.9,11,9,11,6.8s6.4-4.1,14.3-4.1
	s14.3,1.8,14.3,4.1S33.2,10.9,25.3,10.9z M25.3,0c-11,0-20,3.5-20,7.4v35c0,3.9,9,7.5,20,7.5c11.1,0,19.4-3.5,19.4-7.4v-35
	C44.7,3.7,36.4,0,25.3,0z M20,39c-1.1,0-1.9-0.2-2.4-0.5c-0.5-0.4-0.7-1-0.7-1.8v-2.8c0-2.1-0.6-3.4-1.8-3.9v-0.1
	c1.2-0.5,1.8-1.8,1.8-3.9v-2.9c0-1.5,1-2.3,3.2-2.3v-3c-2.3,0-4.5,0.4-5.4,1.2c-1,0.8-1.4,2-1.4,3.8v3.1c0,1.8-0.5,2.6-1.6,2.6v3
	c1,0,1.6,0.9,1.6,2.5v3.3c0,1.7,0.5,2.9,1.4,3.7c0.9,0.7,3.1,1.1,5.4,1.1l-0.5-3H20z M38.5,28.4c-1.1,0-1.6-0.8-1.6-2.6v-3.2
	c0-1.7-0.5-3-1.5-3.7c-1-0.8-3.2-1.2-5.5-1.2v3c2.1,0,3.2,0.8,3.2,2.3v2.8c0,2.1,0.7,3.5,2.2,4v0c-1.4,0.5-2.2,1.8-2.2,3.8v2.9
	c0,0.8-0.2,1.4-0.7,1.8C31.9,38.8,31.1,39,30,39v3c2.3,0,4.6-0.4,5.5-1.1c0.9-0.8,1.4-2,1.4-3.7V34c0-1.7,0.5-2.5,1.6-2.5V28.4z"/>
  </symbol>

  <symbol id="site-recovery" viewBox="-1 -1 34 34">
    <path fill="#FFFFFF" d="M2,14.6c2.2,0,3.1,0.2,3.8-1.7C7.3,8.7,10.9,5,16,5l0,0c5.1,0,8.8,3.6,10.3,7.9c0.7,1.9,1.7,1.7,3.9,1.7
	c0.3,0-0.2,0,0,0L30,7.8L16,0L1.9,8.2L2,14.6C2,14.6,2.1,14.6,2,14.6C2.1,14.6,1.5,14.6,2,14.6z"/>
    <path fill="#FFFFFF" d="M2,18.4v5.6L16.2,32l13.9-8.3v-5.2c-0.2,0.1,0.1-0.1-0.2-0.1h-1.4c-1.3,0.1-1.9,0.4-2.3,1.3
	c-1.5,4.2-5.2,7.5-10.3,7.5l0,0c-5.1,0-8.8-3.2-10.3-7.5c-0.4-1.1-1-1.2-2.3-1.3H2"/>
    <path fill="#FFFFFF" d="M14.1,21.1v-9.2l7,4.6L14.1,21.1z M21.2,11c-2.9-2.9-7.4-2.9-10.2,0c-2.9,2.9-2.9,7.5,0,10.3
	c2.9,2.9,7.4,2.9,10.2,0C24,18.5,24,13.9,21.2,11z"/>
  </symbol>

  <symbol id="machine-learning" viewBox="-3 -3 106 106">
    <path fill="#FFFFFF" d="M68.5,28.6V11.4h5.7V0H25.7v11.4h5.7v17.1L2.8,85.7l8.6,14.3h77.1l8.6-14.3L68.5,28.6z M45.7,42.9L22.8,88.6
	h-5.5l-3.1-2.9l28.6-54.3v-20h14.3v20l5.7,11.4H45.7z"/>
  </symbol>

  <symbol id="event-hubs" viewBox="-1 -1 34 34">
    <path fill="#FFFFFF" d="M2.7,11.1h29.1l-8-6.8v3.4H2.7V5c0-1.3,1.2-2.8,2.6-2.8h21.6c1.3,0,2.6,1.4,2.6,2.8v1.2l2.2,2.2V5
		c0-2.8-2-5-4.8-5H5.2C2.4,0,0.4,2.2,0.4,5v6.1h2H2.7z"/>
    <path fill="#FFFFFF" d="M29.2,13.3h-29l8,6.6v-4.3h21.1v3.6c0,1.3-1.1,3.1-2.6,3.1H5.2c-1.3,0-2.6-1.7-2.6-3.1v-1.2l-2.2-2.2v3.4
		c0,2.8,2,5.3,4.8,5.3H10L20.7,32l-0.8-7.6h7c2.8,0,4.8-2.6,4.8-5.3v-5.8h-1.9H29.2z"/>
  </symbol>

  <symbol id="storsimple" viewBox="-1 -1 34 34">
    <path fill-rule="evenodd" clip-rule="evenodd" fill="#FFFFFF" d="M9.3,18.5l7.5,0v-1.6H9.3V18.5z M28.3,14.5c-0.2,0-0.3,0-0.5,0
	c0.2-0.9,0.4-1.8,0.4-2.7c0-5.6-4-10.1-9.6-10.1c-4.4,0-8.2,2.9-9.5,6.9C8.4,8.4,7.6,8.2,6.8,8.2C3.1,8.2,0,11.4,0,15.2
	c0,4,2.8,6.7,6.6,6.7h2.7v-1.7l7.6,0v3.4l7.5,0l0-1.7l3.9,0c2.1,0,3.6-1.5,3.6-3.6C32,16.2,30.3,14.5,28.3,14.5z M6.6,21.9l-0.2,0.2
	L6.6,21.9z M16.9,26.9h7.5v-1.6h-7.5V26.9z M16.9,30.3l7.5,0v-1.6h-7.5V30.3z M9.3,15.2l7.5,0v-1.6H9.3V15.2z"/>
  </symbol>

  <symbol id="search" viewBox="-2 -2 55 55">
    <path fill="#FFFFFF" d="M43.1,23.1c0.3-1,0.4-2,0.4-3.1c0-6.7-5.3-12.2-11.8-12.2c-4.9,0-9.1,3.1-10.9,7.5c-1.5-1.9-3.8-3-6.4-3
	c-4.6,0-8.3,3.9-8.3,8.6c0,0.8,0.1,1.6,0.3,2.4c-3.8,1.4-6.4,4.7-6.4,9C0,37.9,4.4,42,9.9,42h30.3c5.5,0,9.8-4.1,9.8-9.7
	C50,27.8,47.1,24.4,43.1,23.1z M36.5,27.3c-0.9,3.5-4,6-7.6,6c-0.6,0-1.3-0.1-1.9-0.2c-0.6-0.2-1.3-0.4-1.9-0.7l-5.4,5.5
	c-0.4,0.4-1,0.7-1.6,0.7c-0.6,0-1.2-0.2-1.6-0.7c-0.4-0.4-0.7-1-0.7-1.6c0-0.6,0.2-1.2,0.7-1.6l5.4-5.5c-0.9-1.7-1.2-3.7-0.7-5.6
	c0.9-3.5,4-6,7.6-6c0.6,0,1.3,0.1,1.9,0.2c2,0.5,3.8,1.8,4.8,3.6C36.7,23.2,37,25.3,36.5,27.3z"/>
    <path fill="#FFFFFF" d="M30.1,20.7c-0.4-0.1-0.8-0.1-1.2-0.1c-2.2,0-4.2,1.5-4.7,3.7c-0.3,1.3-0.1,2.8,0.7,3.9
	c0.3,0.5,0.8,0.9,1.3,1.3c0.5,0.3,1,0.6,1.6,0.7c0.4,0.1,0.8,0.1,1.2,0.1c2.2,0,4.2-1.5,4.7-3.7c0.3-1.3,0.1-2.6-0.6-3.7
	C32.4,21.8,31.3,21,30.1,20.7z"/>
  </symbol>

  <symbol id="azure" viewBox="-1 -1 34 34">
    <path fill="#FFFFFF" d="M19,17.4c-0.8,0-1.5,0.5-1.9,1.2H5.3v0c-2,0-3.6-1.6-3.6-3.6s1.6-3.6,3.6-3.6v0h0h0H7
	c0.1-0.4,0.2-0.8,0.4-1.2C7.4,10,7.5,9.8,7.5,9.7c0.8-1.5,2.4-2.4,4.2-2.4c1.6,0,3,0.8,3.9,2c0.5-0.2,1-0.4,1.6-0.5
	c-1.1-1.8-3.2-3.1-5.5-3.1c-2.7,0-5,1.7-6,4.1c0,0,0,0,0,0l0,0c0,0,0,0,0,0H5.3C2.4,9.7,0,12.1,0,15c0,2.9,2.4,5.3,5.3,5.3h11.9
	c0.3,0.7,1,1.2,1.9,1.2c1.1,0,2-0.9,2-2C21.1,18.3,20.2,17.4,19,17.4z"/>
    <path fill="#FFFFFF" d="M25.6,13.4C24.4,11,21.9,9.3,19,9.3c-3.5,0-6.4,2.4-7.1,5.7c-1.7,0.2-3.2,1.1-4.1,2.4h8.7
	c0.6-0.7,1.5-1.2,2.5-1.2c1.8,0,3.2,1.5,3.2,3.2c0,1.8-1.5,3.2-3.2,3.2c-1,0-1.9-0.5-2.5-1.2H6.9c0.4,2.8,2.8,4.9,5.6,4.9
	c0,0,0,0,0,0v0h13v0c0,0,0,0,0,0c3.6,0,6.5-2.9,6.5-6.5C32,16.3,29.1,13.4,25.6,13.4z"/>
  </symbol>

  <use xlink:href="#virtual-machines"             x="0"   y="0"   width="32" height="32" />
  <use xlink:href="#cloud-services"               x="0"   y="32"  width="32" height="32" />
  <use xlink:href="#web-sites"                    x="0"   y="64"  width="32" height="32" />
  <use xlink:href="#mobile-services"              x="0"   y="96"  width="32" height="32" />
  <use xlink:href="#storage"                      x="0"   y="128" width="32" height="32" />
  <use xlink:href="#import-export"                x="0"   y="160" width="32" height="32" />
  
  <use xlink:href="#sql-database"                 x="0"   y="192" width="32" height="32" />
  <use xlink:href="#backup"                       x="0"   y="224" width="32" height="32" />
  <use xlink:href="#cache"                        x="0"   y="256" width="32" height="32" />
  <use xlink:href="#redis-cache"                  x="0"   y="288" width="32" height="32" />
  <use xlink:href="#hdinsight"                    x="0"   y="320" width="32" height="32" />
  <use xlink:href="#recovery-manager"             x="0"   y="352" width="32" height="32" />
  
  <use xlink:href="#media-services"               x="0"   y="384" width="32" height="32" />
  <use xlink:href="#active-directory"             x="0"   y="416" width="32" height="32" />
  <use xlink:href="#multi-factor-authentication"  x="0"   y="448" width="32" height="32" />
  <use xlink:href="#service-bus"                  x="0"   y="480" width="32" height="32" />
  <use xlink:href="#notification-hubs"            x="0"   y="512" width="32" height="32" />
  <use xlink:href="#biztalk-services"             x="0"   y="544" width="32" height="32" />

  <use xlink:href="#scheduler"                    x="32"  y="0"   width="32" height="32" />
  <use xlink:href="#visual-studio-online"         x="32"  y="32"  width="32" height="32" />
  <use xlink:href="#virtual-network"              x="32"  y="64"  width="32" height="32" />
  <use xlink:href="#traffic-manager"              x="32"  y="96"  width="32" height="32" />
  <use xlink:href="#store"                        x="32"  y="128" width="32" height="32" />
  <use xlink:href="#expressroute"                 x="32"  y="160" width="32" height="32" />

  <use xlink:href="#automation"                   x="32"  y="192" width="32" height="32" />
  <use xlink:href="#remoteapp"                    x="32"  y="224" width="32" height="32" />
  <use xlink:href="#sharepoint"                   x="32"  y="256" width="32" height="32" />
  <use xlink:href="#cdn"                          x="32"  y="288" width="32" height="32" />
  <use xlink:href="#cms"                          x="32"  y="320" width="32" height="32" />
  <use xlink:href="#api-management"               x="32"  y="352" width="32" height="32" />
  
  <use xlink:href="#documentdb"                   x="32"  y="384" width="32" height="32" />
  <use xlink:href="#site-recovery"                x="32"  y="416" width="32" height="32" />
  <use xlink:href="#machine-learning"             x="32"  y="448" width="32" height="32" />
  <use xlink:href="#event-hubs"                   x="32"  y="480" width="32" height="32" />
  <use xlink:href="#storsimple"                   x="32"  y="512" width="32" height="32" />
  <use xlink:href="#search"                       x="32"  y="544" width="32" height="32" />
  
  <use xlink:href="#azure"                        x="64"  y="0"   width="32" height="32" />
</svg>
