<?xml version="1.0" standalone="no"?>
<!DOCTYPE svg PUBLIC "-//W3C//DTD SVG 1.1//EN" "http://www.w3.org/Graphics/SVG/1.1/DTD/svg11.dtd" >
<svg xmlns="http://www.w3.org/2000/svg">
<metadata>Generated by IcoMoon</metadata>
<defs>
<font id="icomoon" horiz-adv-x="512">
<font-face units-per-em="512" ascent="480" descent="-32" />
<missing-glyph horiz-adv-x="512" />
<glyph unicode="&#x20;" d="" horiz-adv-x="256" />
<glyph unicode="&#xe000;" d="M495.697 399.461h-455.427c-22.241 0-40.27 18.029-40.27 40.269s18.029 40.269 40.27 40.269h455.427c22.24 0 40.269-18.029 40.269-40.269s-18.029-40.269-40.269-40.269zM495.697 183.731h-455.427c-22.241 0-40.27 18.029-40.27 40.269s18.029 40.269 40.27 40.269h455.427c22.24 0 40.269-18.029 40.269-40.269s-18.029-40.269-40.269-40.269zM495.697-32h-455.427c-22.241 0-40.27 18.029-40.27 40.269s18.029 40.269 40.27 40.269h455.427c22.24 0 40.269-18.029 40.269-40.269s-18.029-40.269-40.269-40.269z" />
<glyph unicode="&#xe600;" d="M489.184 0.416l-6.208 39.552c-1.76 16.928-15.84 36.8-31.264 44l-113.088 62.72c5.76 4.224 11.296 8.8 16.352 13.856h55.552c5.408 0 10.4 2.784 13.216 7.424 2.848 4.608 3.008 10.368 0.544 15.168-28.704 55.488-28.704 63.488-28.704 115.808v39.904c0 77.088-62.464 139.584-139.584 139.584s-139.616-62.496-139.616-139.584v-39.904c0-52.32 0-60.32-28.704-115.808-2.496-4.768-2.272-10.56 0.544-15.168 2.816-4.64 7.84-7.424 13.216-7.424h55.616c5.248-5.28 11.040-10.048 17.152-14.464l-114.496-62.080c-15.424-7.2-29.504-27.072-31.296-44l-5.664-39.552c-1.792-16.928 12.16-30.848 29.184-30.848h410.656c17.056-0.032 28.416 13.856 26.592 30.816zM158.784 285.088h0.096c0 28.96 23.488 52.416 52.416 52.416 31.328 0 60.992 0 61.088 0 28.928 0 52.416 23.456 52.416 52.384 0 0.128 0 7.744 0 17.504 17.536-17.6 28.352-41.824 28.352-68.544v-79.872c0-53.536-43.584-97.12-97.184-97.12s-97.184 43.584-97.184 97.12v26.112z" />
<glyph unicode="&#xe601;" d="M21.76 274.592c-5.44 0-10.88 2.048-15.072 6.24-8.32 8.32-8.32 21.792 0 30.112 66.624 66.592 155.168 103.296 249.376 103.296 94.112 0.032 182.656-36.672 249.248-103.232 8.32-8.32 8.32-21.792 0-30.112-8.288-8.32-21.792-8.32-30.112 0-58.496 58.528-136.352 90.816-219.136 90.752-82.816 0-160.672-32.224-219.264-90.784-4.128-4.192-9.6-6.272-15.040-6.272zM90.656 205.696c-5.44 0-10.88 2.080-15.072 6.208-8.32 8.352-8.32 21.824 0 30.144 99.488 99.488 261.344 99.52 360.832 0.032 8.352-8.32 8.352-21.792 0-30.112-8.32-8.32-21.824-8.32-30.080 0-82.88 82.848-217.76 82.848-300.64-0.064-4.128-4.096-9.6-6.208-15.040-6.208zM352.48 136.8c-5.44 0-10.912 2.048-15.104 6.24-21.696 21.728-50.624 33.728-81.376 33.728s-59.68-12-81.44-33.728c-8.32-8.352-21.792-8.352-30.112 0-8.32 8.288-8.32 21.792 0 30.048 29.824 29.856 69.44 46.304 111.552 46.304s81.696-16.448 111.52-46.272c8.288-8.288 8.288-21.792 0-30.048-4.192-4.192-9.568-6.272-15.040-6.272zM298.624 76.352c0-23.541-19.084-42.624-42.624-42.624s-42.624 19.084-42.624 42.624c0 23.541 19.083 42.624 42.624 42.624s42.624-19.084 42.624-42.624z" />
<glyph unicode="&#xe602;" d="M275.072 434.368c-7.776 3.36-16.8 1.824-22.976-3.936l-130.24-121.6h-99.2c-11.744 0-21.216-9.472-21.216-21.216v-127.296c0-11.712 9.472-21.216 21.216-21.216h99.2l130.272-121.6c4-3.712 9.184-5.664 14.496-5.664 2.848 0 5.696 0.608 8.448 1.728 7.744 3.392 12.768 11.072 12.768 19.488v381.856c0 8.448-5.024 16.096-12.768 19.456zM410.080 391.744c-10.304 5.6-23.2 1.696-28.736-8.608s-1.696-23.2 8.64-28.736c48.224-25.984 78.144-76.064 78.176-130.784-0.032-54.656-29.984-104.8-78.144-130.752-10.304-5.6-14.144-18.464-8.64-28.768 3.872-7.104 11.168-11.136 18.688-11.136 3.392 0 6.912 0.768 10.080 2.56 61.92 33.408 100.384 97.856 100.416 168.096-0.032 70.336-38.496 134.752-100.48 168.128zM425.728 223.584c0 39.264-21.792 75.104-56.896 93.568-10.336 5.44-23.136 1.44-28.608-8.896-5.472-10.368-1.504-23.2 8.864-28.672 21.088-11.136 34.176-32.608 34.176-56.032 0-23.392-13.088-44.864-34.176-56-10.368-5.44-14.304-18.24-8.864-28.672 3.808-7.232 11.2-11.328 18.816-11.328 3.328 0 6.688 0.8 9.856 2.464 35.040 18.56 56.832 54.368 56.832 93.568z" />
<glyph unicode="&#xe603;" d="M501.184 349.12c-6.88 4.032-15.424 4.096-22.432 0.192l-94.56-53.92v56.8c0 23.488-19.2 42.72-42.688 42.72h-299.264c-23.456 0-42.624-19.232-42.624-42.72v-256.384c0-23.456 19.168-42.72 42.624-42.72h299.264c23.488 0 42.688 19.264 42.688 42.72v56.544l94.624-53.632c3.424-1.92 7.264-2.912 11.008-2.912 3.936 0 7.872 1.024 11.36 3.104 6.88 4.032 11.2 11.456 11.2 19.488v211.232c0 8-4.32 15.456-11.2 19.488z" />
<glyph unicode="&#xe604;" d="M163.68-25.152l226.688 226.592c12.448 12.416 12.448 32.672 0 45.152l-226.688 226.592c-8.32 8.32-21.792 8.32-30.080 0l-15.072-15.072c-8.352-8.288-8.288-21.76 0-30.080l204.128-204.032-204.128-204c-8.288-8.352-8.288-21.824 0-30.144l15.072-15.008c8.32-8.352 21.76-8.352 30.080 0z" />
<glyph unicode="&#xe605;" d="M256 479.36c-141.024 0-255.36-114.336-255.36-255.36s114.336-255.36 255.36-255.36c141.056 0 255.36 114.304 255.36 255.36s-114.304 255.36-255.36 255.36zM256 11.2c-117.344 0-212.8 95.424-212.8 212.8s95.456 212.8 212.8 212.8 212.8-95.456 212.8-212.8-95.456-212.8-212.8-212.8zM371.584 328.288c-7.328 3.552-16.096 2.528-22.496-2.56l-93.088-74.528v57.888c0 8.192-4.704 15.648-12.096 19.2-7.328 3.584-16.064 2.528-22.496-2.56l-106.4-85.088c-5.056-4.064-7.968-10.208-7.968-16.64s2.912-12.576 8-16.64l106.4-85.12c3.84-3.072 8.576-4.64 13.312-4.64 3.136 0 6.272 0.64 9.184 2.048 7.36 3.616 12.064 11.040 12.064 19.232v57.856l93.088-74.496c3.84-3.072 8.576-4.64 13.312-4.64 3.136 0 6.24 0.64 9.184 2.048 7.36 3.552 12.064 11.008 12.064 19.2v170.24c0 8.224-4.672 15.648-12.064 19.2z" />
<glyph unicode="&#xe606;" d="M218.624 201.664c-8.32 8.32-21.824 8.32-30.112-0.032l-123.936-123.872-0.032 71.968c0.032 11.776-9.536 21.312-21.312 21.312h-21.248c-11.776 0-21.344-9.536-21.312-21.312l-0.032-149.12c0-17.6 14.304-31.936 31.968-31.968h149.216c11.744 0 21.312 9.536 21.28 21.312v21.312c0 11.744-9.536 21.28-21.312 21.28h-72l123.904 123.904c8.32 8.352 8.32 21.824 0 30.112l-15.072 15.104zM480.032 480h-149.184c-11.712 0-21.248-9.536-21.248-21.344v-21.28c0-11.776 9.536-21.312 21.312-21.312h71.968l-123.872-123.904c-8.384-8.32-8.384-21.792-0.064-30.112l15.072-15.072c8.32-8.32 21.792-8.32 30.176 0.032l123.872 123.872v-71.968c0-11.808 9.536-21.344 21.28-21.344h21.312c11.808 0 21.344 9.536 21.344 21.344v149.12c0 17.6-14.304 31.936-31.968 31.968z" />
<glyph unicode="&#xe607;" d="M489.792 457.792h-22.272c-12.32 0-22.24-9.984-22.24-22.272v-71.008c-44.288 63.104-117.472 104.384-200.384 104.384-135.296 0-244.928-109.632-244.928-244.896s109.632-244.896 244.896-244.896c120.096 0 219.872 86.528 240.736 200.608 2.208 12.096-6.944 22.048-19.264 22.048h-22.688c-12.288 0-23.36-9.92-26.4-21.824-19.648-76.928-89.44-134.016-172.416-134.016-98.24 0-178.112 79.936-178.112 178.112 0 98.208 79.872 178.112 178.112 178.112 65.728 0 123.008-35.936 153.856-89.056h-75.936c-12.32 0-22.24-9.984-22.24-22.272v-22.272c0-12.32 9.952-22.272 22.24-22.272h155.84c18.4 0 33.376 14.944 33.408 33.376v155.872c0.032 12.288-9.952 22.272-22.208 22.272z" />
<glyph unicode="&#xe608;" d="M404.928 437.44h-105.696v42.56h-85.568v-42.56h-106.656c-23.52 0-42.56-19.104-42.56-42.56h383.104c0 23.456-19.040 42.56-42.624 42.56zM107.008 11.808c0-23.488 19.072-42.592 42.56-42.592h212.8c23.488 0 42.56 19.104 42.56 42.592v340.512h-297.92v-340.512zM319.84 288.448h42.528v-234.080h-42.528v234.080zM234.688 288.448h42.592v-234.080h-42.592v234.080zM149.568 288.448h42.56v-234.080h-42.56v234.080z" />
<glyph unicode="&#xe609;" d="M469.344 480h-426.688c-23.456 0-42.656-19.2-42.656-42.656v-469.344c0 0 9.536 0 21.344 0 11.776 0 30.848 16.544 42.656 36.96l64.864 112.384h340.48c23.424 0 42.656 19.2 42.656 42.656v277.344c0 23.456-19.232 42.656-42.656 42.656zM298.656 216.896h-213.312c-11.808 0-21.344 9.536-21.344 21.344 0 11.776 9.536 21.344 21.344 21.344h213.344c11.776-0.032 21.312-9.568 21.312-21.344 0-11.808-9.536-21.344-21.344-21.344zM426.656 337.792h-341.312c-11.808 0-21.344 9.536-21.344 21.344s9.536 21.344 21.344 21.344h341.344c11.776-0.032 21.312-9.568 21.312-21.344s-9.536-21.344-21.344-21.344z" />
<glyph unicode="&#xe60a;" d="M361.664 478.72c20.768 0 41.568-4.32 60.864-12.96l-98.272-98.336 75.232-75.232 98.336 98.336c24.448-54.752 14.336-121.152-30.592-166.080-29.088-29.088-67.264-43.648-105.344-43.648-38.112 0-76.288 14.56-105.376 43.68-58.176 58.176-58.24 152.48 0 210.72 28.992 29.024 67.072 43.52 105.152 43.52zM226.4 194.336c-12.928 12.928-23.68 27.424-32.32 42.976l-181.632-181.664c-16.608-16.576-16.608-43.616 0-60.192l15.040-15.040c16.544-16.544 43.648-16.544 60.192 0l181.664 181.696c-15.552 8.576-30.016 19.296-42.944 32.224z" />
<glyph unicode="&#xe60b;" d="M470.496 351.68h-42.848v85.568c0 23.52-19.2 42.752-42.752 42.752h-256.64c-23.52 0-42.752-19.232-42.752-42.752v-85.568h-42.752c-23.52 0-42.752-19.232-42.752-42.784v-171.072c0-23.552 19.232-42.784 42.752-42.784h42.752v-85.536c0-23.52 19.232-42.784 42.752-42.784h256.64c23.552 0 42.752 19.264 42.752 42.784v85.536h42.848c23.488 0 42.752 19.232 42.752 42.784v171.072c0 23.552-19.232 42.784-42.752 42.784zM384.896 9.536h-256.64v213.824h256.64v-213.824zM384.896 351.68h-256.64v85.568h256.64v-85.568zM427.648 255.424c-17.664 0-32.064 14.432-32.064 32.096 0 17.696 14.4 32.064 32.064 32.064 17.76 0 32.096-14.4 32.096-32.064s-14.336-32.096-32.096-32.096zM192.448 139.328h128.288c10.976 0 19.872 8.864 19.872 19.872s-8.896 19.872-19.872 19.872h-128.288c-11.008 0-19.904-8.864-19.904-19.872s8.896-19.872 19.904-19.872zM192.448 53.824h128.288c10.976 0 19.872 8.864 19.872 19.872 0 10.976-8.896 19.872-19.872 19.872h-128.288c-11.008 0-19.904-8.896-19.904-19.872 0.032-11.008 8.896-19.872 19.904-19.872z" />
<glyph unicode="&#xe60c;" d="M101.472-28.695c-17.946 0-35.404 9.293-45.041 25.948-14.388 24.846-5.907 56.647 18.948 71.034l234.382 135.675c15.426 8.933 20.421 17.368 20.421 20.050s-5.003 11.109-20.457 20.032l-234.916 135.62c-24.864 14.352-33.382 46.143-19.030 71.017 14.352 24.865 46.152 33.373 71.016 19.030l234.916-135.62c46.017-26.563 72.416-66.663 72.444-110.016 0.027-43.343-26.327-83.48-72.308-110.097l-234.374-135.675c-8.201-4.741-17.16-7-26.002-7v0z" />
<glyph unicode="&#xe60d;" d="M211.712 480h-28.992l-19.563-75.158-20.309 75.158h-30.186c6.058-17.75 12.352-35.563 18.368-53.334 9.195-26.688 14.934-46.805 17.536-60.565v-77.504h28.65v77.504l34.496 113.899zM288.32 334.762v49.984c0 15.232-2.624 26.368-8.043 33.6-7.147 9.75-17.195 14.635-30.144 14.635-12.886 0-22.934-4.885-30.080-14.635-5.504-7.211-8.107-18.346-8.107-33.6v-49.962c0-15.147 2.602-26.389 8.107-33.536 7.147-9.728 17.216-14.613 30.080-14.613 12.95 0 22.998 4.885 30.144 14.613 5.418 7.147 8.043 18.368 8.043 33.514zM262.464 329.92c0-13.205-4.010-19.818-12.331-19.818s-12.331 6.613-12.331 19.818v59.99c0 13.206 4.011 19.755 12.331 19.755s12.331-6.57 12.331-19.755v-59.99zM383.851 288.597v142.635h-25.834v-109.013c-5.717-8.085-11.136-12.096-16.32-12.096-3.456 0-5.504 2.048-6.058 6.059-0.32 0.832-0.32 3.989-0.32 10.069v104.982h-25.771v-112.79c0-10.070 0.875-16.896 2.304-21.226 2.56-7.211 8.32-10.602 16.618-10.602 9.43 0 19.243 5.738 29.526 17.536v-15.552h25.856zM397.738 143.786c-8.512 0-12.822-6.55-12.822-19.606v-13.056h25.558v13.056c0 13.077-4.267 19.606-12.736 19.606zM302.827 143.786c-4.182 0-8.448-2.005-12.714-6.229v-86.016c4.245-4.288 8.512-6.293 12.714-6.293 7.382 0 11.115 6.293 11.115 19.050v60.202c0.022 12.757-3.733 19.286-11.115 19.286zM460.267 215.552c-5.163 22.506-23.552 39.083-45.738 41.558-52.48 5.866-105.6 5.888-158.464 5.866-52.886 0.022-106.026 0-158.486-5.866-22.166-2.475-40.554-19.072-45.76-41.558-7.382-32.086-7.446-67.050-7.446-100.053 0-32.981 0-67.99 7.382-100.032 5.184-22.507 23.552-39.082 45.718-41.558 52.502-5.91 105.621-5.93 158.486-5.91 52.906-0.021 106.005 0 158.507 5.866 22.144 2.474 40.555 19.072 45.717 41.558 7.424 32.064 7.445 67.072 7.445 100.032-0.022 33.046 0.022 68.010-7.36 100.096zM165.099 186.688h-30.635v-162.774h-28.438v162.774h-30.058v26.688h89.13v-26.688zM242.411 23.914h-25.621v15.402c-10.133-11.648-19.84-17.344-29.206-17.344-8.256 0-13.93 3.328-16.49 10.517-1.408 4.245-2.24 11.008-2.24 20.971v111.574h25.578v-103.894c0-5.974 0-9.13 0.256-9.942 0.619-3.99 2.538-5.974 5.952-5.974 5.162 0 10.496 3.947 16.171 11.947v107.882h25.621v-141.142zM339.563 66.283c0-13.056-0.875-22.442-2.603-28.438-3.392-10.496-10.24-15.872-20.438-15.872-9.088 0-17.877 5.056-26.389 15.637v-13.717h-25.6v189.462h25.6v-61.866c8.256 10.176 17.002 15.317 26.389 15.317 10.197 0 17.046-5.376 20.438-15.936 1.728-5.696 2.603-15.019 2.603-28.373v-56.214zM436.075 89.856h-51.157v-25.046c0-13.056 4.288-19.563 13.056-19.563 6.293 0 9.984 3.413 11.435 10.24 0.235 1.365 0.534 7.062 0.534 17.322h26.134v-3.712c0-8.256-0.32-13.909-0.555-16.49-0.853-5.675-2.88-10.795-5.974-15.317-7.082-10.24-17.558-15.317-30.933-15.317s-23.552 4.842-30.912 14.464c-5.44 7.062-8.235 18.197-8.235 33.195v49.472c0 15.062 2.474 26.091 7.914 33.216 7.382 9.685 17.536 14.507 30.613 14.507 12.822 0 22.998-4.822 30.166-14.507 5.376-7.125 7.936-18.154 7.936-33.216v-29.248z" />
<glyph unicode="&#xe60e;" d="M512 382.784c-18.858-8.362-39.104-14.016-60.352-16.554 21.696 12.992 38.358 33.6 46.187 58.133-20.267-12.032-42.774-20.779-66.688-25.493-19.178 20.438-46.464 33.173-76.693 33.173-57.984 0-105.024-47.040-105.024-105.024 0-8.235 0.939-16.256 2.731-23.936-87.296 4.352-164.694 46.166-216.512 109.739-9.046-15.531-14.23-33.579-14.23-52.822 0-36.459 18.56-68.587 46.742-87.445-17.216 0.576-33.429 5.269-47.594 13.162 0-0.448 0-0.875 0-1.344 0-50.88 36.203-93.334 84.266-102.998-8.811-2.368-18.090-3.67-27.691-3.67-6.763 0-13.334 0.661-19.755 1.877 13.354-41.707 52.16-72.086 98.133-72.918-35.947-28.16-81.258-44.992-130.453-44.992-8.491 0-16.854 0.49-25.067 1.493 46.486-29.824 101.718-47.211 161.024-47.211 193.195 0 298.858 160.043 298.858 298.858 0 4.544-0.106 9.088-0.298 13.589 20.502 14.805 38.315 33.322 52.416 54.379z" />
<glyph unicode="&#xe60f;" d="M510.678 166.080v-198.080h-109.163v184.832c0 46.421-15.765 78.101-55.317 78.101-30.187 0-48.149-21.376-56.022-42.005-2.88-7.382-3.627-17.685-3.627-28.010v-192.918h-109.184c0 0 1.429 313.046 0 345.45h109.184v-48.96c-0.235-0.384-0.49-0.768-0.726-1.131h0.726v1.131c14.507 23.51 40.406 57.066 98.432 57.066 71.851 0.022 125.696-49.344 125.696-155.478zM63.126 477.866c-37.376 0-61.803-25.792-61.803-59.669 0-33.195 23.744-59.712 60.352-59.712h0.725c38.123 0 61.781 26.517 61.781 59.712-0.746 33.877-23.68 59.669-61.056 59.669zM7.787-32h109.184v345.45h-109.184v-345.45z" />
<glyph unicode="&#xe610;" d="M295.616-32v233.536h78.379l11.755 91.029h-90.134v58.090c0 26.368 7.317 44.31 45.12 44.31l48.192 0.043v81.408c-8.298 1.109-36.928 3.584-70.25 3.584-69.483 0-117.056-42.411-117.056-120.32v-67.115h-78.549v-91.029h78.571v-233.536h93.974z" />
<glyph unicode="&#xe611;" d="M392.691 476.676c17.946 0 35.404-9.293 45.041-25.948 14.387-24.846 5.897-56.647-18.957-71.034l-234.374-135.666c-15.426-8.933-20.421-17.368-20.421-20.060 0-2.683 5.004-11.1 20.457-20.032l234.915-135.62c24.865-14.351 33.382-46.143 19.030-71.017-14.361-24.865-46.152-33.373-71.017-19.021l-234.916 135.62c-46.017 26.563-72.425 66.663-72.444 110.015-0.036 43.344 26.319 83.481 72.308 110.097l234.374 135.666c8.201 4.741 17.161 7 26.002 7v0z" />
<glyph unicode="&#xe612;" d="M505.37 83.986c0-17.946-9.293-35.404-25.948-45.041-24.846-14.387-56.647-5.897-71.034 18.957l-135.674 234.373c-8.933 15.426-17.368 20.421-20.060 20.421-2.683 0-11.1-5.004-20.032-20.457l-135.612-234.916c-14.352-24.865-46.143-33.382-71.016-19.030-24.864 14.361-33.373 46.152-19.021 71.017l135.62 234.906c26.563 46.017 66.663 72.425 110.016 72.443 43.344 0.036 83.481-26.318 110.097-72.308l135.666-234.374c4.741-8.201 7-17.161 7-25.993v0z" />
<glyph unicode="&#xe613;" d="M0 363.996c0 17.946 9.293 35.405 25.948 45.042 24.846 14.387 56.647 5.897 71.034-18.957l135.666-234.374c8.933-15.426 17.368-20.421 20.059-20.421 2.683 0 11.1 5.003 20.033 20.457l135.62 234.916c14.351 24.865 46.143 33.382 71.017 19.030 24.865-14.361 33.373-46.152 19.021-71.016l-135.611-234.906c-26.563-46.017-66.663-72.425-110.016-72.444-43.344-0.036-83.481 26.318-110.097 72.308l-135.674 234.374c-4.742 8.201-7 17.16-7 25.993v0z" />
<glyph unicode="&#xe614;" d="M255.328 436.096c117.344 0 212.768-95.456 212.768-212.768 0-117.344-95.424-212.768-212.768-212.768-117.312 0-212.768 95.424-212.768 212.768 0 117.312 95.456 212.768 212.768 212.768zM255.328 478.656c-141.056 0-255.328-114.336-255.328-255.328 0-141.056 114.272-255.328 255.328-255.328 141.024 0 255.328 114.272 255.328 255.328 0 140.992-114.304 255.328-255.328 255.328v0zM319.168 329.632v0.032l-127.648 0.064c-23.52 0-42.56-19.072-42.56-42.592v-127.584h-0.032c0-23.488 19.072-42.56 42.592-42.56v-0.032h127.616c23.52 0 42.56 19.040 42.56 42.56v127.616c0.032 23.456-19.072 42.464-42.528 42.496z" />
<glyph unicode="&#xe615;" d="M256 479.072c-140.928 0-255.072-114.144-255.072-255.104 0-140.832 114.144-255.040 255.072-255.040 140.8 0 255.072 114.176 255.072 255.040 0 140.928-114.272 255.104-255.072 255.104zM256 11.424c-117.216 0-212.576 95.36-212.576 212.544 0 117.248 95.36 212.608 212.576 212.608 117.184 0 212.576-95.328 212.576-212.608 0-117.152-95.392-212.544-212.576-212.544zM371.744 243.008l-170.016 85.024c-6.56 3.328-14.4 2.976-20.672-0.928-6.272-3.872-10.080-10.688-10.080-18.080v-170.016c0-7.36 3.808-14.24 10.080-18.112 3.424-2.048 7.328-3.136 11.2-3.136 3.264 0 6.528 0.672 9.504 2.176l170.016 85.024c7.264 3.616 11.808 10.976 11.808 19.008-0.032 8.064-4.576 15.424-11.84 19.040z" />
<glyph unicode="&#xe616;" d="M167.456 195.392l-153.344-153.344c-0.032-0.064-0.064-0.064-0.128-0.128-16.576-16.544-16.576-43.424-0.032-59.968 16.576-16.576 43.424-16.576 60 0l153.472 153.504c-23.84 15.68-44.32 36.064-59.968 59.936zM340.8 478.432c-93.664 0-169.6-75.936-169.6-169.632s75.968-169.664 169.6-169.664c93.696 0 169.632 75.968 169.632 169.664s-75.936 169.632-169.632 169.632zM340.8 192.224c-64.384 0-116.608 52.192-116.608 116.608s52.224 116.64 116.608 116.64c64.416 0 116.64-52.224 116.64-116.64s-52.224-116.608-116.64-116.608z" />
<glyph unicode="&#xe617;" d="M473.92 185.984v0 0 0l-255.904 255.872c-24.96 24.928-57.664 37.408-90.304 37.408-32.704 0-65.376-12.48-90.304-37.408-49.888-49.888-49.888-130.72 0-180.64l255.84-255.872c49.92-49.824 130.784-49.824 180.64 0.064 49.856 49.856 49.856 130.656 0.032 180.576zM67.52 411.712c16.064 16.064 37.44 24.928 60.192 24.928 22.688 0 44.096-8.864 60.192-24.96l127.968-127.904-120.384-120.416-127.936 128c-33.152 33.216-33.152 87.168-0.032 120.352z" />
<glyph unicode="&#xe618;" d="M469.44 448.032h-426.784c-23.52 0-42.656-19.072-42.656-42.656v-277.44c0-23.552 19.104-42.624 42.656-42.624h170.72v-42.688h-64c-23.584 0-42.688-19.136-42.688-42.688h298.752c0 23.552-19.168 42.688-42.688 42.688h-64v42.688h170.688c23.584 0 42.688 19.072 42.688 42.624v277.44c0 23.552-19.104 42.656-42.688 42.656zM42.656 127.936v277.44h426.784v-277.44h-426.784z" />
<glyph unicode="&#xe619;" d="M255.68 480c-141.184 0-255.68-114.464-255.68-255.68s114.496-255.68 255.68-255.68c141.216 0 255.68 114.464 255.68 255.68s-114.464 255.68-255.68 255.68zM255.68 11.232c-117.472 0-213.056 95.584-213.056 213.088 0 117.472 95.584 213.056 213.056 213.056 117.504 0 213.088-95.584 213.088-213.056 0-117.504-95.584-213.088-213.088-213.088zM202.432 330.848c-17.632 0-31.968-14.304-31.968-31.968v-149.12c0-17.664 14.304-31.968 31.968-31.968s31.968 14.304 31.968 31.968v149.12c0 17.664-14.336 31.968-31.968 31.968zM308.96 330.848c-17.696 0-32-14.304-32-31.968v-149.12c0-17.664 14.304-31.968 32-31.968 17.632 0 31.936 14.304 31.936 31.968v149.12c0 17.664-14.304 31.968-31.936 31.968z" />
<glyph unicode="&#xe61a;" d="M489.056 0.384l-4.192 43.392c-1.792 16.928-15.84 36.736-31.296 43.904l-114.176 59.072c5.6 4.256 10.944 8.736 15.808 13.76h55.136c5.408 0 10.432 2.816 13.248 7.424s2.976 10.4 0.512 15.2c-28.704 55.456-28.704 63.488-28.704 115.776v39.936c0 77.088-62.496 139.584-139.584 139.584-77.12 0-139.616-62.496-139.616-139.584v-39.936c0-52.288 0-60.32-28.704-115.776-2.464-4.8-2.272-10.56 0.512-15.2 2.816-4.64 7.872-7.424 13.216-7.424h55.136c5.024-5.088 10.496-9.696 16.16-13.984l-114.112-58.848c-15.392-7.168-29.504-26.976-31.296-43.904l-4.192-43.392c-1.792-16.928 10.688-30.816 27.744-30.816h410.688c17.056 0 29.504 13.856 27.712 30.816zM158.624 285.056h0.064c0 28.96 23.488 52.448 52.416 52.448 31.328 0 60.992 0 61.088 0 28.928 0 52.448 23.488 52.448 52.384 0 0.096 0 7.744 0 17.472 17.504-17.6 28.352-41.856 28.352-68.544v-79.872c0-54.176-43.584-98.272-97.184-98.272s-97.184 44.064-97.184 98.272v26.112zM362.016 11.936v42.432h-106.016v-42.432h-189.344l2.624 27.104c0.608 3.040 4.768 8.832 7.136 10.24 0.512 0.256 1.056 0.544 1.568 0.8l141.216 73.344c11.68-3.264 23.936-5.088 36.608-5.088 12.704 0 24.928 1.856 36.608 5.088l141.728-73.408c0.544-0.288 0.704-0.384 1.28-0.608 2.624-1.568 6.72-7.36 7.296-9.792l2.656-27.712h-83.36z" />
<glyph unicode="&#xe61b;" d="M332.608-32.32c-38.304 0-76.672 14.592-105.888 43.776l-178.496 178.496c-8.352 8.352-8.352 21.888 0 30.176 8.384 8.32 21.92 8.32 30.208 0l178.56-178.496c41.728-41.696 109.536-41.632 151.232 0 41.664 41.696 41.632 109.504-0.064 151.2l-226.144 226.016c-24.992 24.992-65.696 25.024-90.688 0-24.96-25.024-24.96-65.728 0.032-90.688l181.184-181.216c4.032-4 9.376-6.176 15.104-6.176h0.032c5.696 0 11.072 2.176 15.072 6.24 4.096 4 6.304 9.376 6.304 15.072 0 5.76-2.208 11.072-6.24 15.072l-123.52 123.584c-8.352 8.352-8.352 21.824 0 30.208 8.384 8.32 21.92 8.32 30.24-0.064l123.488-123.456c12.128-12.128 18.784-28.192 18.784-45.344-0.064-17.152-6.72-33.216-18.848-45.344-12.032-12.064-28.16-18.72-45.248-18.784-0.064 0-0.064 0-0.064 0-17.152 0-33.248 6.72-45.344 18.784l-181.152 181.216c-41.632 41.632-41.696 109.408-0.096 151.040 41.664 41.76 109.44 41.728 151.168 0.096l226.112-226.080c58.336-58.272 58.336-153.216 0.064-211.584-29.152-29.152-67.52-43.68-105.792-43.744z" />
<glyph unicode="&#xe61c;" d="M508.288 32c-1.024 17.024-14.368 37.152-29.632 44.704l-139.744 69.44c34.336 25.76 56.704 66.784 56.704 112.832v79.84c0 77.12-62.528 139.616-139.584 139.616-77.12 0-139.616-62.496-139.616-139.616v-79.84c0-45.984 22.336-87.008 56.64-112.768l-139.648-69.504c-15.296-7.552-28.576-27.68-29.664-44.704l-1.92-31.488c-1.024-17.024 12.064-30.944 29.056-30.944h450.24c17.024 0 30.144 13.92 29.024 30.944l-1.856 31.488zM158.848 323.776h0.064c0 28.96 23.424 52.384 52.384 52.416 13.696-2.336 28.8-3.68 44.704-3.68 33.504 0 63.2 5.888 83.68 14.944 8.384-14.368 13.504-30.848 13.504-48.64v-79.84c0-54.208-43.552-98.272-97.184-98.272-53.6 0-97.184 44.064-97.184 98.272v64.8zM361.856 11.968v42.4h-105.824v-42.4h-210.976l1.024 17.056c0.448 2.816 4.096 8.384 6.24 9.792l168.832 84.16c11.2-2.976 22.816-4.672 34.88-4.672s23.744 1.696 34.88 4.672l168.576-84.032c2.432-1.504 6.048-7.040 6.464-9.472l1.088-17.504h-105.184z" />
<glyph unicode="&#xe61d;" d="M41.816 181.469c-23.066 0-41.773 18.671-41.816 41.75-0.043 23.095 18.648 41.845 41.743 41.888l428.862 0.741c0.022 0 0.051 0 0.072 0 23.065 0 41.78-18.671 41.816-41.743 0.043-23.094-18.649-41.853-41.743-41.889l-428.862-0.748c-0.022 0-0.051 0-0.072 0v0z" horiz-adv-x="513" />
<glyph unicode="&#xe61e;" d="M470.678 265.841c-0.022 0-0.051 0-0.072 0l-169.909-0.298-0.291 172.706c-0.036 23.080-18.75 41.75-41.816 41.75-0.022 0-0.043 0-0.072 0-23.095-0.036-41.78-18.794-41.743-41.889l0.298-172.706-175.328-0.305c-23.095-0.037-41.787-18.787-41.743-41.882 0.036-23.073 18.75-41.75 41.816-41.75 0.022 0 0.051 0 0.072 0l175.328 0.305 0.298-172.030c0.036-23.073 18.75-41.743 41.816-41.743 0.022 0 0.043 0 0.072 0 23.094 0.036 41.787 18.794 41.743 41.889l-0.291 172.030 169.901 0.298c23.094 0.036 41.787 18.794 41.744 41.888-0.043 23.066-18.757 41.736-41.824 41.736z" horiz-adv-x="513" />
<glyph unicode="&#xe61f;" d="M369.229 398.315v-57.041c0-26.637-21.683-48.294-48.295-48.294-26.628 0-48.281 21.657-48.281 48.294v57.387h-30.592v-57.387c0-26.637-21.654-48.294-48.269-48.294-26.611 0-48.294 21.657-48.294 48.294v57.37c-57.233-0.26-103.727-46.87-103.727-104.175v-216.474c0-57.442 46.733-104.179 104.171-104.179h216.49c57.45 0 104.188 46.737 104.188 104.179v216.474c0 55.163-43.119 100.322-97.391 103.846zM438.605 77.995c0-41.997-34.168-76.185-76.173-76.185h-216.49c-41.993 0-76.173 34.193-76.173 76.185v186.329h368.837v-186.329zM217.937 341.274c0-13.334-10.829-24.154-24.149-24.154-13.351 0-24.149 10.821-24.149 24.154v106.223c0 13.329 10.799 24.137 24.149 24.137 13.321 0 24.149-10.808 24.149-24.137v-106.223zM345.084 341.274c0-13.334-10.829-24.154-24.149-24.154s-24.149 10.821-24.149 24.154v106.223c0 13.329 10.829 24.137 24.149 24.137s24.149-10.808 24.149-24.137v-106.223zM168.738 59.264v96.183c-6.959-2.543-12.869-3.592-31.006-3.592v32.691h5.487c11.387 0 27.626 3.579 31.428 19.606h37.538v-144.887h-43.447zM307.132 55.462c-41.336 0-62.016 32.478-62.016 74.031 0 36.279 16.879 77.415 64.115 77.415 36.075 0 63.070-24.051 63.070-73.613 0.005-28.894-12.655-77.832-65.169-77.832zM309.235 178.214c-20.454 0-21.086-30.797-21.086-51.464 0-14.55 0.426-41.549 20.467-41.549 17.702 0 20.877 22.567 20.877 44.714-0.005 28.68-4.019 48.298-20.258 48.298z" />
<glyph unicode="&#xe620;" d="M512 456.954l-23.046 23.046-232.938-232.938-232.97 232.938-23.046-23.046 232.938-232.971-232.938-232.938 23.046-23.046 232.97 232.938 232.938-232.938 23.046 23.046-232.938 232.938z" />
<glyph unicode="&#xe621;" d="M256 479.072c-140.896 0-255.072-114.176-255.072-255.072s114.144-255.072 255.072-255.072c140.832 0 255.072 114.176 255.072 255.072s-114.24 255.072-255.072 255.072zM256 11.488c-117.248 0-212.576 95.328-212.576 212.512s95.328 212.544 212.576 212.544c117.152 0 212.576-95.36 212.576-212.544s-95.424-212.512-212.576-212.512zM362.24 160.256h-212.512c-11.744 0-21.248-9.504-21.248-21.248s9.504-21.248 21.248-21.248h212.544c11.712 0 21.248 9.504 21.248 21.248s-9.536 21.248-21.28 21.248z" />
<glyph unicode="&#xe622;" d="M400 10.688h-63.968v42.656h31.968c11.744 0 21.344 9.536 21.344 21.312 0 11.808-9.6 21.376-21.344 21.376h-138.688c-64.672 0-117.344 52.8-117.344 117.184 0 64.352 52.672 117.44 117.376 117.44v-85.312c0-11.776 9.504-21.344 21.28-21.344h85.44c11.744 0.032 21.312 9.568 21.312 21.344v213.312c0 11.808-9.568 21.344-21.344 21.344h-85.44c-11.776-0.032-21.248-9.568-21.248-21.344l-0.032-85.312c-88.224 0-160-72.224-160-160.096 0-87.904 71.776-159.36 160-159.36l21.376-0.512v-42.656h-64c-23.52 0-42.656-19.168-42.656-42.688h298.656c0 23.552-19.104 42.656-42.688 42.656zM250.688 160c0-11.776 9.504-21.344 21.28-21.344h42.72c11.744 0.064 21.344 9.568 21.344 21.344v21.312h-85.344v-21.312z" />
<glyph unicode="&#xe623;" d="M426.688 224c0 11.808-9.568 21.344-21.376 21.344-11.744 0-21.312-9.536-21.312-21.344 0-70.592-57.44-128-128-128-70.592 0-128 57.408-128 128 0 11.808-9.536 21.344-21.344 21.344-11.744 0-21.312-9.536-21.312-21.344 0-86.848 65.312-158.624 149.344-169.184v-44.16h-42.688c-23.552 0-42.656-19.104-42.656-42.656h213.344c0 23.552-19.104 42.656-42.656 42.656h-42.688v44.16c84.064 10.528 149.344 82.304 149.344 169.184zM256 138.656c47.136 0 85.312 38.208 85.312 85.344v170.656c0 47.136-38.176 85.344-85.312 85.344s-85.344-38.208-85.344-85.344v-170.656c0-47.136 38.208-85.344 85.344-85.344z" />
<glyph unicode="&#xe624;" d="M508.128 32.224c-1.056 16.992-14.336 37.152-29.6 44.672l-140.096 69.76c34.496 25.408 56.992 66.24 56.992 112.32v79.744c0 76.992-62.432 139.392-139.456 139.392-76.992 0-139.424-62.4-139.424-139.392v-79.776c0-46.080 22.528-86.912 56.992-112.32l-140.096-69.76c-15.264-7.488-28.544-27.648-29.6-44.672l-1.92-31.456c-1.024-16.96 12.032-30.88 29.024-30.88h450.016c17.024 0 30.080 13.92 29.056 30.88l-1.888 31.488zM158.912 323.648h0.064c0 28.896 23.392 52.32 52.32 52.352 13.728-2.336 28.8-3.68 44.672-3.68 33.44 0 63.168 5.856 83.616 14.912 8.384-14.336 13.472-30.784 13.472-48.544v-79.776c0-53.568-43.52-97.12-97.088-97.12-53.504 0-97.056 43.552-97.056 97.12v64.736z" />
<glyph unicode="&#xe625;" d="M256 479.68c-94.112 0-170.464-76.288-170.464-170.464 0-28.704 7.072-55.744 19.584-79.456l132-250.080c3.616-6.752 10.688-11.36 18.88-11.36 8.16 0 15.296 4.64 18.848 11.36l132 250.080c12.512 23.712 19.552 50.752 19.552 79.456 0.032 94.176-76.288 170.464-170.4 170.464zM256 245.312c-35.296 0-63.936 28.64-63.936 63.936s28.64 63.936 63.936 63.936c35.328 0 63.936-28.64 63.936-63.936s-28.608-63.936-63.936-63.936z" />
<glyph unicode="&#xe626;" d="M287.462 195.738c-40.525-40.55-87.475-79.309-106.035-60.723-26.573 26.547-42.931 49.69-101.504 2.637s-13.594-78.438 12.16-104.192c29.696-29.671 140.391-1.562 249.831 107.853 109.389 109.415 137.549 220.135 107.827 249.831-25.728 25.753-57.088 70.707-104.166 12.16s-23.936-74.931 2.637-101.504c18.509-18.586-20.224-65.51-60.749-106.061z" />
<glyph unicode="&#xe627;" d="M348.32-25.152l-226.688 226.56c-12.448 12.416-12.448 32.672 0 45.152l226.688 226.624c8.32 8.32 21.792 8.32 30.080 0l15.072-15.072c8.352-8.288 8.288-21.76 0-30.080l-204.128-204.032 204.128-204c8.288-8.352 8.288-21.824 0-30.144l-15.072-15.008c-8.32-8.352-21.76-8.352-30.080 0z" />
<glyph unicode="&#xe628;" d="M255.68 437.376c117.472 0 213.12-95.584 213.12-213.056s-95.616-213.088-213.12-213.088-213.056 95.616-213.056 213.088c0 117.472 95.552 213.056 213.056 213.056zM255.68 480c-141.216 0-255.68-114.464-255.68-255.68 0-141.248 114.496-255.712 255.68-255.712 141.248 0 255.712 114.464 255.712 255.712-0.032 141.216-114.496 255.68-255.712 255.68v0zM293.6 270.144c0-9.824-17.664-140.96-20.48-165.152 11.648 0.928 24.672 4.16 35.84 9.76l12.512-27.904c-23.232-21.856-54.848-32.992-74.4-32.992-29.312 0-38.112 14.4-38.112 35.328 0 3.68 0.48 7.904 0.928 12.608l18.592 144.128-38.592 6.528 1.824 30.24c30.272 8.384 53.984 11.616 70.24 11.616 24.704 0 31.648-8.352 31.648-24.16zM301.536 359.872c0-22.272-15.84-40.896-39.584-40.896-18.592 0-33.472 14.4-33.472 33.024 0 25.12 17.216 42.752 39.584 42.752 18.592 0 33.472-14.88 33.472-34.88z" />
<glyph unicode="&#xe629;" d="M468 478.432h-424.032c-23.392 0-42.4-18.976-42.4-42.4v-424.064c0-23.392 19.008-42.4 42.4-42.4h424.032c23.424 0 42.432 19.008 42.432 42.4v424.064c0 23.424-19.008 42.4-42.432 42.4zM468 96.768h-424.032v339.264h424.032v-339.264zM118.176 330.016c17.536 0 31.808 14.24 31.808 31.808s-14.24 31.808-31.808 31.808c-17.568 0-31.808-14.24-31.808-31.808s14.24-31.808 31.808-31.808zM317.376 355.712c-10.496 20.928-27.424 20.928-37.952 0l-65.856-131.712-23.424 46.848c-10.464 20.992-27.456 20.992-37.952 0l-65.856-131.648h339.264l-108.224 216.512z" />
<glyph unicode="&#xe62a;" d="M505.824 239.072l-235.2 234.656c-8.32 8.352-21.824 8.352-30.144 0l-234.208-234.656c-8.352-8.32-8.352-21.824 0-30.176 4.16-4.16 9.6-6.208 15.072-6.208 5.44 0 10.912 2.048 15.072 6.208l219.136 219.616 220.096-219.616c4.128-4.16 9.6-6.208 15.040-6.208 5.504 0 10.912 2.048 15.136 6.208 8.288 8.352 8.288 21.856 0 30.176zM63.552 181.376v-170.688c0-23.616 19.104-42.688 42.688-42.688h85.312v170.688h128v-170.688h85.344c23.488 0 42.688 19.072 42.688 42.688v170.688l-192.032 191.968-192-191.968z" />
<glyph unicode="&#xe62b;" d="M228.672 407.392l26.912-27.616 26.976 27.68c52.32 53.568 137.088 53.664 189.44 0 52.32-53.632 52.32-140.64 0-194.272 0 0-156.48-160.448-201.312-206.432-8.32-8.544-21.824-8.544-30.112 0l-201.312 206.432c-52.288 53.664-52.352 140.64-0.032 194.24s137.12 53.6 189.44-0.032z" />
<glyph unicode="&#xe62c;" d="M255.712 480c-140.96 0-255.712-114.688-255.712-255.712v-127.904c0-11.744 9.568-21.312 21.312-21.312 11.776 0 21.312 9.568 21.312 21.312v127.904c0 117.504 95.616 213.12 213.12 213.12 117.536 0 213.12-95.616 213.12-213.12v-127.904c0-11.744 9.568-21.312 21.28-21.312 11.808 0 21.312 9.568 21.312 21.312v127.904c-0.032 141.024-114.752 255.712-255.744 255.712zM383.584 224.288h-21.312c-23.424 0-42.624-19.2-42.624-42.656v-170.464c0-23.456 19.2-42.656 42.624-42.656h21.312c23.424 0 42.592 19.2 42.592 42.656v170.464c0 23.456-19.136 42.656-42.592 42.656zM149.184 224.288h-21.312c-23.424 0-42.624-19.2-42.624-42.656v-170.464c0-23.456 19.168-42.656 42.624-42.656h21.312c23.488 0 42.624 19.2 42.624 42.656v170.464c0 23.456-19.136 42.656-42.624 42.656z" />
<glyph unicode="&#xe62d;" d="M505.12 131.68l-226.56 226.72c-12.448 12.448-32.672 12.448-45.184 0l-226.592-226.72c-8.32-8.32-8.32-21.792 0-30.048l15.072-15.072c8.288-8.384 21.76-8.32 30.080 0l204.064 204.128 204-204.128c8.384-8.32 21.824-8.32 30.112 0l15.040 15.072c8.32 8.32 8.32 21.728-0.032 30.048z" />
<glyph unicode="&#xe62e;" d="M151.296 468h-84.864c-34.624 0-63.648-29.024-63.648-63.648h212.16c0 34.752-28.928 63.648-63.648 63.648zM2.784 361.92v-381.92h509.216v381.92h-509.216z" />
<glyph unicode="&#xe62f;" d="M256 479.072c-140.896 0-255.072-114.176-255.072-255.072 0-140.864 114.144-255.072 255.072-255.072 140.8 0 255.072 114.176 255.072 255.072s-114.272 255.072-255.072 255.072zM256 11.424c-117.248 0-212.576 95.36-212.576 212.576 0 117.248 95.328 212.576 212.576 212.576 117.152 0 212.544-95.328 212.544-212.576 0-117.184-95.392-212.576-212.544-212.576zM290.496 325.632c-6.368 5.12-15.136 6.112-22.464 2.56-7.36-3.552-12.032-10.976-12.032-19.168v-57.792l-92.992 74.4c-6.4 5.12-15.168 6.112-22.496 2.56-7.36-3.552-12.064-10.976-12.064-19.168v-170.016c0-8.192 4.704-15.552 12.064-19.2 2.976-1.376 6.048-2.048 9.216-2.048 4.704 0 9.44 1.568 13.28 4.64l92.992 74.4v-57.792c0-8.192 4.672-15.552 12.032-19.2 2.944-1.376 6.048-2.048 9.216-2.048 4.704 0 9.44 1.568 13.248 4.64l106.272 84.992c5.024 4.096 7.968 10.208 7.968 16.64 0 6.496-2.944 12.608-7.968 16.64l-106.272 84.96z" />
<glyph unicode="&#xe630;" d="M406.912 331.104v-214.144h-364.096v214.144h364.096zM406.912 74.048c23.648 0 42.848 19.2 42.848 42.88v42.816h64.256v128.512h-64.256v42.848c0 23.68-19.2 42.784-42.848 42.816h-364.096c-23.648 0-42.816-19.168-42.816-42.816v-214.144c0-23.68 19.2-42.88 42.816-42.88h364.096zM85.696 289.984h278.176v-128.768h-278.176v128.768z" />
<glyph unicode="&#xe631;" d="M33.376 76.704c-15.264-7.552-28.576-27.68-29.6-44.672l-1.952-31.552c-1.024-16.96 12.032-30.912 29.088-30.912h161.728l-44.512 164.352-114.752-57.216zM508.224 32.032c-0.992 16.992-14.336 37.12-29.6 44.672l-114.688 57.184-44.096-164.352h161.216c17.088 0 30.176 13.952 29.088 30.912l-1.92 31.584zM282.208 96.768h-51.872c-9.12 0-16.48-7.392-16.48-16.512v-13.504c0-17.984 11.68-33.184 27.648-38.88l-6.464-58.336h42.4l-5.984 58.496c15.744 5.856 27.104 20.928 27.104 38.72h0.032v13.504c0 9.12-7.328 16.512-16.384 16.512zM256.032 117.984c77.056 0 139.552 63.872 139.552 140.96v79.904c0 77.088-62.496 139.584-139.552 139.584-77.12 0-139.616-62.496-139.616-139.584v-79.872c0-77.088 62.496-140.992 139.616-140.992zM158.816 323.744h0.096c0 28.96 23.392 52.384 52.384 52.416 13.728-2.336 28.8-3.648 44.736-3.648 33.504 0 63.2 5.856 83.648 14.944 8.384-14.336 13.472-30.816 13.472-48.608v-79.872c0-54.336-43.584-98.592-97.12-98.592-53.6 0-97.216 44.256-97.216 98.592v64.768z" />
<glyph unicode="&#xe632;" d="M489.856 0l-6.176 39.68c-1.792 16.992-15.968 36.832-31.36 44.064l-89.856 49.664v-70.56c0-5.088-2.528-9.92-6.752-12.8-2.592-1.824-5.728-2.752-8.768-2.752-1.888 0-3.776 0.32-5.568 1.056l-43.136 16.576-20.992-95.84h185.952c17.12-0.032 28.416 13.856 26.656 30.912zM170.72 48.352c-1.792-0.736-3.648-1.056-5.536-1.056-3.072 0-6.176 0.928-8.8 2.752-4.192 2.912-6.752 7.712-6.752 12.8v70.304l-90.432-49.408c-15.456-7.232-29.568-27.072-31.36-44.064l-5.696-39.68c-1.792-17.056 12.224-30.944 29.28-30.944h183.296l-21.056 95.584-42.944-16.288zM411.328 160.16c5.408 0 10.464 2.88 13.248 7.52 2.88 4.64 3.040 10.336 0.544 15.136-28.8 55.648-28.8 63.712-28.8 116.128v40.032c0 77.312-62.624 139.968-139.968 139.968s-140-62.656-140-139.968v-40.032c0-52.416 0-60.48-28.768-116.128-2.496-4.8-2.272-10.496 0.544-15.136 2.816-4.672 7.84-7.52 13.248-7.52h55.264c25.408-26.016 60.672-42.304 99.712-42.304s74.336 16.32 99.712 42.304h55.264zM353.792 258.912c0-54.304-43.712-98.496-97.44-98.496s-97.472 44.192-97.472 98.496v26.144h0.064c0 29.056 23.52 52.576 52.576 52.576 31.392 0 61.184 0 61.248 0 29.024 0 52.576 23.552 52.576 52.576 0 0.096 0 7.744 0 17.504 17.568-17.632 28.448-41.952 28.448-68.704v-80.096z" />
<glyph unicode="&#xe633;" d="M255.84 288.544c-58.88 0-106.624-47.68-106.624-106.592 0-58.88 47.712-106.56 106.624-106.56 58.88 0 106.592 47.68 106.592 106.56s-47.712 106.592-106.592 106.592zM255.84 117.984c-35.328 0-63.968 28.672-63.968 63.968 0 35.328 28.672 63.936 63.968 63.936s63.936-28.608 63.936-63.936c0-35.296-28.608-63.968-63.936-63.968zM469.024 373.824h-21.312c-23.456 0-42.656 19.072-42.656 42.336s-19.2 42.336-42.624 42.336h-213.184c-23.424 0-42.624-19.072-42.624-42.336s-19.232-42.336-42.656-42.336h-21.344c-23.424 0-42.624-19.2-42.624-42.624v-298.496c0-23.424 19.2-42.624 42.624-42.624h21.344c23.424 0 42.656-0.096 42.656-0.288 0 0 19.2-0.288 42.624-0.288h213.216c23.424 0 42.624 0.128 42.624 0.128 0 0.352 19.2 0.448 42.656 0.448h21.312c23.424 0 42.656 19.2 42.656 42.624v298.496c-0.032 23.424-19.232 42.624-42.688 42.624zM74.624 267.232c-17.664 0-32 14.336-32 32 0 17.6 14.336 31.968 32 31.968 17.632 0 32-14.368 32-31.968 0-17.664-14.368-32-32-32zM255.84 32.672c-82.4 0-149.248 66.816-149.248 149.248 0 82.496 66.816 149.248 149.248 149.248s149.216-66.752 149.216-149.248c0-82.432-66.816-149.248-149.216-149.248z" />
<glyph unicode="&#xe634;" d="M505.984 385.472c-4.064 5.152-10.144 8.16-16.672 8.16h-387.872l-15.584 68.352c-0.128 0.64-0.576 1.088-0.768 1.696-0.448 1.408-1.088 2.624-1.76 3.872-0.672 1.152-1.312 2.24-2.176 3.264-0.96 1.056-1.888 1.92-3.040 2.784-1.024 0.832-2.048 1.6-3.232 2.208s-2.432 1.056-3.744 1.472c-1.376 0.384-2.688 0.672-4.128 0.8-0.64 0.064-1.152 0.384-1.824 0.384h-42.432c-11.712 0-21.216-9.472-21.216-21.216s9.472-21.216 21.216-21.216h25.504l15.424-67.648c0.032-0.192-0.064-0.448 0-0.672l38.752-169.664c0.096-0.16 0.256-0.384 0.288-0.608l19.232-84.192c2.208-9.824 10.976-16.512 20.672-16.512 0.064 0 0.192 0.064 0.288 0.064 0.064 0 0.096-0.064 0.128-0.064h282.56c11.744 0 21.216 9.504 21.216 21.248 0 11.68-9.472 21.184-21.216 21.184h-266.048l-9.664 42.4h296.96c9.76 0 18.208 6.688 20.576 16.096l42.4 169.632c1.568 6.336 0.16 13.024-3.84 18.176zM185.728 11.968c0-23.417-18.983-42.4-42.4-42.4s-42.4 18.983-42.4 42.4c0 23.417 18.983 42.4 42.4 42.4s42.4-18.983 42.4-42.4zM468.704 11.968c0-23.417-18.983-42.4-42.4-42.4s-42.4 18.983-42.4 42.4c0 23.417 18.983 42.4 42.4 42.4s42.4-18.983 42.4-42.4z" />
<glyph unicode="&#xe635;" d="M256 478.656c-140.64 0-254.656-114.016-254.656-254.656s114.016-254.656 254.656-254.656c140.608 0 254.688 114.016 254.688 254.656 0.032 140.64-114.048 254.656-254.688 254.656zM256 11.776c-117.024 0-212.224 95.232-212.224 212.192 0 117.024 95.232 212.256 212.224 212.256s212.192-95.232 212.192-212.256c0.032-116.96-95.2-212.192-212.192-212.192zM340.896 245.408h-63.648v105.952c0 11.68-9.504 21.184-21.248 21.184s-21.216-9.504-21.216-21.184v-126.528c0-0.288-0.16-0.544-0.16-0.832 0-11.808 9.6-21.376 21.408-21.376h84.896c11.84 0 21.376 9.568 21.376 21.376-0.032 11.84-9.568 21.408-21.408 21.408z" />
<glyph unicode="&#xe636;" d="M256 479.744c-141.28 0-255.744-114.464-255.744-255.776 0-141.216 114.464-255.712 255.744-255.712 141.312 0 255.776 114.496 255.776 255.712-0.032 141.312-114.496 255.776-255.776 255.776zM406.688 73.312c-40.256-40.256-93.76-62.432-150.688-62.432-117.504 0-213.12 95.552-213.12 213.088 0 117.504 95.552 213.152 213.12 213.152 56.96 0 110.496-22.176 150.72-62.4 40.256-40.256 62.4-93.792 62.4-150.752 0-56.896-22.176-110.4-62.432-150.656zM356.32 324.32c-8.32 8.32-21.824 8.32-30.144 0l-70.176-70.176-70.208 70.144c-8.32 8.32-21.792 8.32-30.112 0-8.32-8.352-8.32-21.824 0-30.176l70.144-70.144-70.144-70.144c-8.32-8.32-8.32-21.824 0-30.112 4.16-4.192 9.6-6.24 15.040-6.24 5.472 0 10.912 2.048 15.072 6.24l70.208 70.144 70.176-70.144c4.16-4.192 9.6-6.24 15.072-6.24 5.44 0 10.912 2.048 15.072 6.24 8.352 8.32 8.352 21.824 0 30.112l-70.176 70.144 70.176 70.208c8.32 8.32 8.32 21.792 0 30.144z" />
<glyph unicode="&#xe637;" d="M490.048 266.56h-47.488c-4.8 21.344-13.248 41.312-24.576 59.264l33.632 33.632c8.32 8.32 8.32 21.792 0 30.112l-30.112 30.080c-8.32 8.288-21.76 8.288-30.048 0l-33.632-33.632c-18.016 11.328-37.952 19.776-59.264 24.64v47.456c0 11.776-9.568 21.28-21.28 21.28h-42.56c-11.776 0-21.28-9.504-21.28-21.28v-47.456c-21.376-4.864-41.28-13.312-59.296-24.64l-33.6 33.632c-8.32 8.32-21.792 8.32-30.080 0l-30.080-30.080c-8.32-8.288-8.32-21.76 0-30.080l33.632-33.632c-11.36-17.984-19.808-37.92-24.672-59.296h-47.456c-11.776 0-21.28-9.504-21.28-21.28v-42.56c0-11.776 9.504-21.28 21.28-21.28h47.456c4.864-21.312 13.28-41.248 24.608-59.264l-33.632-33.632c-8.32-8.32-8.32-21.76 0-30.048l30.080-30.112c4.16-4.128 9.6-6.24 15.040-6.24s10.88 2.112 15.040 6.24l33.632 33.568c18.016-11.328 37.92-19.68 59.296-24.576v-47.488c0-11.744 9.504-21.248 21.28-21.248h42.56c11.712 0 21.28 9.504 21.28 21.248v47.488c21.312 4.864 41.248 13.248 59.264 24.64l33.632-33.632c4.128-4.128 9.568-6.24 15.008-6.24 5.504 0 10.944 2.112 15.072 6.24l30.112 30.112c8.32 8.32 8.32 21.76 0 30.048l-33.632 33.632c11.328 18.016 19.744 37.952 24.576 59.264h47.488c11.744 0 21.312 9.504 21.312 21.28v42.56c0 11.744-9.536 21.28-21.312 21.28zM256 106.944c-64.672 0-117.056 52.448-117.056 117.056s52.384 117.056 117.056 117.056c64.64 0 117.056-52.448 117.056-117.056s-52.416-117.056-117.056-117.056zM256 287.872c-35.296 0-63.872-28.64-63.872-63.872 0-35.264 28.576-63.872 63.872-63.872 35.264 0 63.808 28.64 63.808 63.872s-28.544 63.872-63.808 63.872z" />
<glyph unicode="&#xe638;" d="M85.344 250.656v101.344h-42.688c-23.456 0-42.656-19.2-42.656-42.656v-341.312h16c8.832 0 25.536 16.512 37.344 36.928l43.328 75.072h244.64c23.456 0 42.688 19.232 42.688 42.656v42.624h-213.344c-47.040 0-85.312 38.304-85.312 85.344zM469.344 480h-298.688c-23.424 0-42.656-19.2-42.656-42.656v-186.656c0-23.488 19.232-42.688 42.656-42.688h244.672l43.328-75.008c11.808-20.448 28.512-36.992 37.344-36.992h16v341.344c0 23.456-19.232 42.656-42.656 42.656z" />
<glyph unicode="&#xe639;" d="M469.12 479.744h-53.312v-127.872c0-23.424-19.2-42.624-42.592-42.624h-234.432c-23.488 0-42.624 19.2-42.624 42.624v127.872h-53.28c-23.488 0-42.624-19.2-42.624-42.624v-426.24c0-23.424 19.136-42.624 42.624-42.624h426.24c23.392 0 42.624 19.2 42.624 42.624v426.24c0 23.424-19.2 42.624-42.624 42.624zM256 53.504c-47.072 0-85.248 38.112-85.248 85.248 0 47.072 38.144 85.248 85.248 85.248s85.28-38.176 85.28-85.248c-0.032-47.136-38.208-85.248-85.28-85.248zM256 181.376c-23.552 0-42.624-19.072-42.624-42.624 0-23.488 19.072-42.624 42.624-42.624 23.52 0 42.656 19.136 42.656 42.624-0.032 23.552-19.136 42.624-42.656 42.624zM373.216 479.744h-42.624v-127.872h42.624v127.872z" />
<glyph unicode="&#xe63a;" d="M448.256 330.496l-149.536 149.504h-192.224c-23.584 0-42.72-19.104-42.72-42.72v-427.2c0-23.552 19.104-42.72 42.72-42.72h299.008c23.552 0 42.752 19.104 42.752 42.72v320.416zM405.504 10.080h-299.008v427.2h149.504v-149.504h149.504v-277.696z" />
<glyph unicode="&#xe63b;" d="M233.408 63.040c12.448-12.384 32.672-12.384 45.152 0l105.44 105.408c8.256 8.288 8.256 21.76-0.064 30.112l-15.072 15.008c-8.32 8.352-21.76 8.352-30.112 0l-50.816-50.816v295.36c0 11.776-9.504 21.28-21.28 21.28h-21.312c-11.776 0-21.28-9.504-21.28-21.28v-295.36l-50.816 50.784c-8.32 8.352-21.792 8.352-30.080 0l-15.040-15.008c-8.32-8.352-8.32-21.824 0-30.112l105.28-105.376zM426.24 11.168h-340.512c-11.712 0-21.28-9.472-21.28-21.248s9.568-21.312 21.28-21.312h340.512c11.744 0 21.312 9.536 21.312 21.312s-9.536 21.248-21.312 21.248z" />
<glyph unicode="&#xe63c;" d="M469.76 411.136h-426.784c-23.488 0-42.688-19.232-42.688-42.688v-288.864c0-23.456 19.2-42.688 42.688-42.688h426.784c23.456 0 42.688 19.232 42.688 42.688v288.864c0 23.456-19.232 42.688-42.688 42.688zM268.192 218.72c-6.624-6.048-18.24-6.048-24.864 0.096l-162.624 149.632h351.072l-163.584-149.728zM164.704 233.12l-121.76-121.76v233.792l121.76-112.032zM196.16 204.192l18.24-16.8c11.392-10.496 26.4-15.744 41.344-15.744s29.856 5.184 41.248 15.616l19.104 17.472 125.12-125.152h-369.696l124.64 124.608zM347.584 233.536l122.144 111.776v-233.984l-122.144 122.208z" />
<glyph unicode="&#xe63d;" d="M286.56 171.008c3.936-6.816 11.072-10.56 18.368-10.56 3.616 0 7.264 0.928 10.592 2.88 10.080 5.824 13.6 18.816 7.744 28.96l-43.648 75.552 46.4 26.816-129.536 74.816v-149.664l46.432 26.816 43.648-75.616zM467.872 446.496h-423.776c-23.36 0-42.368-18.944-42.368-42.368v-275.488c0-23.328 18.976-42.304 42.368-42.304h169.536v-42.368h-63.616c-23.36 0-42.368-19.008-42.368-42.432h296.672c0 23.424-18.976 42.432-42.368 42.432h-63.584v42.368h169.504c23.392 0 42.4 19.008 42.4 42.304v275.456c0 23.392-18.976 42.4-42.4 42.4zM467.872 128.64h-423.776v275.456h423.776v-275.456z" />
<glyph unicode="&#xe63e;" d="M467.744 478.080h-317.632c-23.36 0-42.368-18.976-42.368-42.368v-105.92h42.368v63.584h317.632v-190.56h-21.12v-42.368h21.12c23.424 0 42.368 18.976 42.368 42.368v232.928c0 23.392-18.912 42.336-42.368 42.336zM361.888 287.488h-317.632c-23.36 0-42.368-18.944-42.368-42.336v-232.928c0-23.392 18.976-42.304 42.368-42.304h317.632c23.424 0 42.368 18.912 42.368 42.304v232.928c0 23.392-18.944 42.336-42.368 42.336zM361.888 12.224h-317.632v190.624h317.632v-190.624z" />
<glyph unicode="&#xe63f;" d="M6.816 316.384l226.56-226.72c12.448-12.448 32.672-12.448 45.184 0l226.592 226.72c8.32 8.32 8.32 21.792 0 30.048l-15.104 15.072c-8.288 8.384-21.76 8.32-30.048 0l-204.032-204.128-204 204.128c-8.384 8.32-21.824 8.32-30.112 0l-15.040-15.072c-8.352-8.32-8.352-21.76 0-30.048z" />
<glyph unicode="&#xe640;" d="M256 480c-141.159 0-256-114.841-256-256s114.843-256 256-256c141.159 0 256 114.842 256 256s-114.841 256-256 256zM125.463 16.099c-1.587 3.212-4.151 3.808-4.172 8.468-0.034 9.284-0.644 15.060-4.388 24.252-4.033 5.298-3.438 16.888-4.483 23.517-2.215 6.273-3.127 12.675-5.76 18.812-2.888 6.74-10.969 11.257-18.184 12.248-9.258 1.62-10.7 9.569-16.345 15.671-4.748 5.127-9.572 10.943-13.346 16.485-1.929 2.63-5.695 2.817-6.788 7.147-1.038 4.099 2.919 5.792 2.842 9.411-5.486 2.978-3.862 3.769-3.727 9.77 0.118 5.14 7.13 10.697 7.038 15.942-1.431 0.449-1.845 1.24-1.251 2.382-1.066 4.988-7.51 13.344-1.066 15.988-1.32 6.889 7.116 11.539 12.25 13.813 1.142 0.495 2.386 4.124 3.891 2.010 0.773-0.818 0.63-1.644-0.428-2.473 0.014-1.676-0.982-9.627 2.718-9.397 1.582 0.091-4.55 8.594 3.832 9.098-0.773 1.553-2.434 0.802-2.724 2.375 2.964 0.115 6.624-2.498 8.373-4.5 1.284-1.474 6.708-0.756 8.544-1.418 2.591-0.937 7.54 2.431 10.989 2.431-0.389-0.411-1.296-0.596-1.697-0.352 1.115-5.764 13.688-7.106 17.136-12.32 2.773-4.061 14.483-5.103 18.93-4.964 5.159 0.384 13.911-12.266 11.506-15.461-3.668-4.856 1.556-10.895 6.231-10.355 4.618 0.435 0.383 8.784 9.4 5.012 3.41-1.428 4.66-1.281 5.597-5.19 4.22 0.41 9.602 1.998 14.524 0.615 4.911-1.38 7.861-4.51 13.033-5.559 11.1-2.385 0.494-22.841-2.114-27.783-1.947-3.724 3.758-16.416 2.96-21.995-2.421-9.526-3.863-12.978-12.184-18.23-2.299-1.449-6.576-5.99-6.008-9.147 0.798-2.738 1.655-5.454 2.577-8.154-1.55-1.797-2.296-3.886-2.257-6.269-0.013 0.034-0.028 0.073-0.038 0.115-0.836-6.151-3.117-11.563-4.298-17.777-0.791-4.162-13.601-6.123-14.124-4.768 2.452-6.356 11.501-3.682 7.238-13.284-1.522-3.409-6.771-4.11-9.879-4.876-3.66-0.906 0.206-5.094 0.115-7.119 1.696-3.964-4.246-2.083-6.663-2.726-4.493-1.223 6.806-6.353 6.078-4.768 1.114-2.494-2.7-1.209-3.511-1.432 1.076-2.354 4.577-8.126 0.185-10.188-0.499-0.304-0.884-0.598-1.19-0.884-10.174 4.618-19.98 9.915-29.359 15.825zM482.643 318.483c-1.988 0.542-2.952-0.575-0.697-5.168 1.156-2.321 3.091-4.101 4.995-5.845 5.671-15.642 9.797-32.017 12.189-48.942-8.327-3.854-15.31-9.552-20.851 1.281-3.504 6.848-5.249 11.577-9.996 17.979-3.531 4.764-8.495 8.436-9.871 14.528-2.292 10.073-18.801 16.134-19.286 27.175-0.073 1.655-4.218 9.446-3.841 9.739 1.041 0.802 0.662 4.943 0.731 6.165 0.259 4.19 1.184 7.406 0.080 11.567-8.959-2.417-16.429 1.255-25.524 2.156 0.31 0.073 0.686 0.338 0.756 0.532-2.685 2.327-4.462 4.183-7.673 5.81 3.511 3.584-0.007 2.112-0.509 4.362-0.686 3.145 7.611 1.744 9.055 2.302-0.163 0.313-1.159 0.898-1.142 1.344-3.281 0.466-2.81-2.898-6.415-0.328-2.781 1.979-3.156 0.815-5.803 0.323 0.38-0.798 0.505-1.38 0.45-2.141-0.050 0.007-4.497 3.096-4.041 0.803 2.689-2.591 4.161-5.115 7.252-7.704-1.819-0.947-3.538 0.080-5.061 1.425 0.135-0.665 1.027-4.688 1.627-5.010-3.626 0.405-5.863 2.177-4.333 5.281-2.801 0.302-8.808 6.224-9.363 9.205-0.911 5.065-7.971 5.813-8.55 9.125-1.25 0.122-15.837 10.216-15.402 7.238 0.64-4.647 8.198-11.079 12.994-11.549 0.679-3.804 7.997-2.856 8.094-7.106-6.897 1.828-4.25 2.448-3.399-2.578-0.098 0.606-3.981-5.402-4.476-2.33 7.217-0.707-15.949 17.411-14.998 15.339-5.12 5.337-6.019 7.286-12.772 3.863-3.302-1.679-14.242 4.135-11.379-3.201-0.167-0.592-15.311-7.073-8.698-9.95-1.995-2.825-5.123-5.107-7.93-6.215-3.323 1.268-9.531-3.462-11.505-0.394-2.51 3.906-4.033 2.422-8.050 2.711-4.11 0.306-0.515 13.964-0.511 15.813 0 2.585-2.146 6.039 3.173 5.65 4.531-0.359 8.959-1.557 13.531-1.916 5.099 0.668 7.060-1.184 6.708 5.873-0.070-0.038-0.132-0.077-0.205-0.115 3.072 5.11-10.899 6.604-10.899 9.248-0.028 1.825 8.119 0.195 9.115 0.327-0.031 0.958-0.572 1.676-0.613 2.731 6.474-0.512 7.402 1.898 12.998 3.107 4.601 0.993 3.989 5.925 9.554 5.476 1.651-0.136 7.603-0.447 6.127 2.087-3.277 5.614-3.219 5.597 2.734 7.945 0.264-1.735 1.191-2.358 1.578-3.114-0.226 0.031-0.578-1.024-0.877-2.212 1.149-0.184 1.874-0.606 1.647-2.070-0.15 1.025-1.25 0.614-1.93 0.871-0.289-1.334-0.431-2.389-0.174-1.668 3.026-0.258 6.652-0.038 9.714-0.567-0.515-3.522 11 0.508 13.824-0.512-0.136-0.247-0.259-0.564-0.23-0.696 1.146-0.050 2.292-0.094 3.441-0.139-0.892 6.179 10.33 8.69 10.368 7.012-0.034 1.489-4.969 3.34-3.577 4.060 4.308 2.233 9.327-1.108 13.918 0.606-1.721 1.885-23.611 1.299-20.327 5.364-1.853 0.53-1.634 1.808-2.55 2.95 0.756-0.059 9.808 3.204 9.666 3.57-1.76 4.371-8.868 0.55-9.736-0.631 0.673-2.023-9.317-1.146-8.82-4.236 0.515-3.219 4.483-2.299 5.231-5.224 0.134-0.512-9.745-4.608-3.507-5.698 0.108-2.438-7.373-4.26-9.063-4.124-1.442 0.156-4.438 5.956-5.155 7.039-1.894 2.79-2.72 4.88-5.974 2.909-1.070-0.648-10.394-3.058-10.721 0.321-0.094 0.958 1.589-0.042 1.421 1.498-1.299 0.097-1.299 0.097-2.392-0.087 0.33 0.544 0.783 0.962 1.358 1.251-6.562 4.545 5.988 6.966 8.846 6.624-0.995 0.192-1.365 0.302-2.18 0.446 1.849 0.101 16.401 5.994 16.906 7.534-2.020-0.035-2.734-0.394-4.73-0.275 0.358 0.192 1.223 0.296 1.539 0.335-0.414 0.024-1.272 0.163-1.272 0.163 0.209 0.858 6.698 0.264 6.879 0.288-0.599 0.098-0.606 0.118-1.341 0.136 1.090 0.362 2.204 0.469 3.34 0.327-0.466 0.163-0.373 0.129-0.749 0.264 2.698 0.895 5.866 0.219 8.792 0.375 48.444-26.712 86.95-69.302 108.46-120.707zM454.635 148.969c-0.063-4.375 6.001-9.035 4.135-13.037-5.115-10.957 4.671-22.065-8.010-29.894-4.441-2.743-10.219-5.256-11.156-11.058-8.15-1.637-0.619-11.362-0.762-15.339-0.322-9.209-2.156-7.307-7.882-12.089-6.082-5.078-0.26-9.561-5.412-15.649-3.288-3.889-5.534-8.366-8.053-12.726-5.43-4.752-11.071-9.271-16.907-13.536-4.065-0.127-7.692 0.45-11.805-1.719-4.538-2.397-9.742 0.849-11.393-0.115 0.185 16.109-12.668 28.24-14.503 45.077-0.85 7.76-1.063 10.731-4.633 17.804-3.723 7.385-6.934 15.677-5.394 24.127 1.096 6.035 5.981 10.198 7.348 16.046 1.38 5.873-1.358 14.772-2.865 20.435-1.62 6.064-2.079 13.549-6.012 18.536-3.936 4.988-10.899 11.668-8.307 18.757 4.027 11.010 5.928 22.361-9.948 22.032-4.904-0.101-4.409 9.596-10.070 9.45-7.764-0.181-14.137-9.15-20.55-9.31-2.71-0.059-4.868 2.382-7.649 2.313-3.337-0.080-5.772-1.975-8.798-3.013-6.591-2.271-11.483 4.278-15.615 8.436-5.478 5.521-6.583 13.159-11.714 18.826-2.891 3.187-5.681 6.496-7.972 10.149 0.122 0.004 0.248 0.007 0.369 0.014 0.094 4.552-2.769 8.739-0.567 12.204 2.254 3.552 3.824 8.44 3.974 12.653 0.209 5.946-3.977 14.646-0.87 20.132 2.364 4.176 3.974 8.279 5.977 12.671 2.462 5.403 4.831 12.19 10.801 14.392 3.298 1.212 7.203 4.503 8.293 7.973 1.191 3.677 0.345 7.934 2.707 11.2 3.396 4.74 7.51 8.892 11.013 13.542-0.080-0.007-0.16-0.010-0.238-0.016 3.981 5.349 10.198-0.603 17.199 3.465 5.635 3.208 12.656 6.726 19.264 6.966 4.387 0.167 8.415 0.050 12.884 0.198 2.142 0.076 4.859 4.002 6.796 1.003 1.055-1.403 2.219-1.494 3.483-0.275-0.268-3.866-1.882-7.178-1.911-11.505-0.070-7.656 7.307-5.144 11.719-6.573 4.124-1.338 20.034-18.707 19.784-5.346-0.226 11.521 16.76 1.606 20.981 0.091 5.969-2.139 10.602-2.888 16.569-0.69 4.416 1.623 8.457-1.279 13.072-0.017 2.716-6.792 2.493-8.603 0.874-15.632-2.647 0.425-5.111 7.001-7.346 9.418 0.373-7.231 7.276-15.893 10.606-22.326 2.247-4.337 2.811-8.728 5.252-12.915 2.811-4.813 1.539-11.581 5.033-15.506 3.755-4.207 5.148-6.214 6.385-11.94 1.637-7.575 13.86-12.48 15.493-19.602 2.351-10.237 5.58-7.795 14.061-6.26 4.796 1.038 9.26 3.518 13.74 5.027 4.943-11.769-8.115-34.695-14.747-44.394l-0.002 0.001c-7.673-11.226-20.115-15.245-23.298-29.801-0.843-3.848-4.291-5.969-4.325-10.138-0.036-4.21 0.957-8.303 0.905-12.514zM205.56 440.12c-5.252-1.477-10.947-1.334-16.198-2.675 0.466 0.021 0.934 0.038 1.393 0.058-0.3-0.392-0.868-0.385-1.793-0.392 0.49-0.084 0.978-0.13 1.020-0.38-2.442-0.477-3.681-1.083-6.075-1.233-0.498-1.156-2.654-0.745-3.633-1.591 0.672 0.054 2.344 0.156 2.141-0.046-4.009-3.86-13.361-0.477-19.25-1.046 1.18 0.286 2.383 0.481 3.613 0.575-3.261 1.442 4.162 0.609 5.178 0.666-1.602 1.243-4.385 1.017-6.011 0.644 0.031-0.188 0.219-0.219 0.136-0.376-1.41-0.049-5.834 0.289-6.98-0.16-0.41 0.024-0.773 0.15-1.042 0.498 1.731 0.341 3.48 0.526 5.249 0.547-0.745 0.050-3.32 0.318-4.972 0.272 0.156 0.029 0.305 0.050 0.481 0.097-2.007-0.066-3.136-0.052-2.305 0.495l-0-0c0.813 0.030 1.641 0.048 2.448 0.055-0.415 0.032-0.813 0.137-1.188 0.331 0.686 0.376 1.644 0.313 2.556 0.286-0.143 0.087-0.314 0.114-0.422 0.282 1.163 0.15 2.333 0.233 3.504 0.251-0.508 0.084-1.463 0.076-1.052 0.317 1.998 0.011 6.106-1.739 7.447-0.978-0.024 0.042-0.049 0.080-0.073 0.118 1.523 0.025 1.204-0.234 0.196-0.811 1.978 1.146 2.511-1.422 5.775 0.832 0.188 0.133-1.515 0.749-2.153 0.84 1.556-0.017 1.905 0.111 0.975 0.393-1.627 0.011-2.864 0.163-3.142 0.582 0.62 0.079 1.237 0.167 1.857 0.247-0.881-0.029-1.762-0.055-2.64-0.084 1.449 0.477 2.734 0.467 4.382 0.635-1.54 0.077-3.007-0.509-4.538-0.255 0.885 0.192 1.313 0.248 2.094 0.335-1.338-0.042-2.636-0.178-3.97-0.22 7.238 2.707 27.78 4.524 35.064 1.927-3.772-0.948 6.178 0.557 5.743-0.331-0.323-0.656-6.244-0.651-6.75-0.731 0.308-0.113 1.963 0.019 2.937 0.029zM105.389 416.569c1.163-0.408 4.66-0.126 6.604 1.501 5.256-0.192 13.723-1.209 16.77-0.39-0.512-0.324-0.742-0.558 0.589-0.341 2.153 1.696 5.625 1.221 6.527 2.56-0.71-0.163-1.177-0.247-1.815-0.405 0.614 0.321 1.216 0.659 1.808 1.011 0.666 0.511-3.010 0.843-2.397 1.292 2.337 1.74 10.727 1.911 8.743 0.406-0.877-0.275-1.756-0.553-2.634-0.832 0.163-0.439 2.041-0.049 2.685-0.321-2.742-0.795 0.555-0.158-1.224-1.627 0.452 0.154 6.886 1.598 5.543 0.49-1.762 0.073-2.494-0.547-2.192-1.857 2.079-1.943 8.127 3.497 9.635 3.906-0.073-0.005-12.413 0.132-10.877 1.372 1.74-0.732 3.225-0.595 4.441 0.411-0.453 0.188-4.232 0.264-4.228 0.264-0.844 1.692 4.619 2.299 5.538 2.79-1.512-0.481-4.186-0.264-5.73-1.017 0.275 0.017 0.55 0.028 0.833 0.042-1.276-0.763-2.626-1.118-4.061-1.063 4.392 3.111 6.637 3.069 12.689 3.32-0.934-0.49-1.916-0.678-2.929-1.024 2.887 0.572 5.463 0.585 8.315 0.429-1.071-0.217-5.952-1.494-4.424-1.494-3.194-1.431 10.383 3.173 11.198 0.861 0.063-0.171-0.569-1.32-0.857-1.32 5.775-0.059 10.547-1.784 16.029-1.999-0.063-0.135-0.119-0.272-0.178-0.407 0.653 0.142 1.226-0.029 1.72-0.523-0.634-0.094-1.195-0.087-1.672-0.404 0.666 0.147 1.292 0.077 1.885-0.205-0.782-0.233-1.138-0.251-1.703-0.668 0.485-0.154 7.099-2.417 7.077-2.609-0.446-3.1-5.392-1.703-7.804-1.334-0.3-0.593-0.745-0.077-1.042-0.951 1.305 0.136 1.819-1.615 3.654-1.38-1.386-4.511-1.222-1.901-6.464-2.769-0.038 0.042 5.761-2.74 2.702-3.459-3.856-0.832-8.443 1.94-10.832 3.138-0.982 0.49-11.195-0.649-10.806-0.134 2.198 2.965 8.177 2.031 11.337 3.413-2.494 0.846 6.482 2.463 3.472 4.629-0.067-1.961-4.898-0.592-4.806-0.515 1.219 0.822 2.564 1.142 4.026 0.971-0.743 0.357-3.791 0.511-4.339 0.432 0.573 0.158 1.143 0.315 1.713 0.47-0.415 0.404-0.857 0.593-1.316 0.661 0.063 0.004 0.114 0.029 0.181 0.029-1.523 0.836-7.165-0.641-5.994 0.251-0.85 0.010-2.358-0.035-4.075-0.098 1.219-0.115 2.619-0.683 3.828-0.634-2.316-1.989-6.928-4.232-11.76-5.594 1.013 0.202 0.558-0.24 0.686-0.547-0.878 0-1.125 0.264-0.794 0.522-0.804-0.226-1.613-0.453-2.424-0.623-0.024-0.23 0.021-0.401-0.021-0.656 0.791 0.344 4.173-0.115 4.511-0.992 0.076-0.258-0.443-0.543-0.23-0.69 0.685-0.439 2.243-0.181 2.43-0.635-3.458-0.978-9.233-1.588-12.696-1.748-0.874-0.034-0.219 0.393 0.365 0.808-0.978 0.115-2.483-0.070-3.103-0.135 1.146 0.971 4.316 2.755 6.66 3.731-2.637-0.359-5.156-0.373-7.185 0.26-0.268-1.083 2.323-0.787 4.381-0.992-2.887-2.525-10.279-3.326-14.677-2.929 0.379-0.139 0.735-0.334 1.055-0.631-3.832-3.472-13.074-6.304-17.865-9.547 3.719 0.613 3.313-0.865 0.885-3.358 8.868 0.386 7.987-4.831 15.148-4.591 2.389-1.703-1.104-3.873-1.4-5.19 0.933 0.219 2.49 0.188 1.76-0.735-0.582-0.042-1.142 0.090-1.694 0.305 0.282-0.508 1.463-0.801 4.508-0.741 3.493 3.863-0.519 5.336 6.286 8.055 8.452 3.368 2.288 3.379 2.114 7.775 9.164 2.075 5.441 10.177 17.659 4.319 3.497-1.672 14.011-4.709 16.593 0.038-1.588-2.828-0.519-3.127 0.877-3.588-0.547 0.279-1.041 0.623-1.439 1.129 3.121 4.207 9.846-4.814 4.479-6.528 0.862-0.54 1.599-1.317 3.714-1.284l-0.108-0.175c-1.776-2.943 7.161-2.171 6.395-3.087-1.243-1.18-7.060-1.702-9.422-2.421 0.188-1.25 10.467 1.442 11.4 1.724 3.131-10.602-28.386-9.516-34.93-14.751l-0.002-0.002c0.795 0.076 16.645 3.692 15.382 1.46-1.073-1.912-4.068-1.453-5.675-2.47 0.912-0.003 1.899-0.244 2.406-0.248-5.653-6.972 7.042-6.157 6.464-7.356-1.038-2.072-11.936-3.772-14.387-5.058-3.93-2.057-0.084 4.252 5.040 4.916-0.946-0.027-1.076 0.413-0.38 1.327-4.065-0.129-10.776-4.74-14.019-4.047-3.41 0.728-13.688-7.82-8.018-7.687-3.513-1.296-8.686-1.055-12.487-2.71 0.752-0.008 2.94 0.54 3.489-0.091-2.173-0.564-11.654-4.015-11.104-5.364-1.696-1.020-2.308-6.611-5.68-6.534 0.213-0.007 1.338 4.779 1.484 5.152-0.718-0.718-3.639-5.654-3.358-6.469 0.209-0.007 0.498-0.028 0.699-0.028-0.446-1.198-1.329-1.971-2.66-2.309-0.021-0.776 0.4-0.888 0.85-1.020-1.007-1.363-3.664-0.756-1.912-2.734-2.279-1.778-5.198-2.167-7.579-3.744 0.049-0.077 0.101-0.15 0.15-0.226-9.572-4.19-18.209-8.247-19.448-19.752-0.314-2.906-3.727-15.813-8.038-15.239-3.88 0.53 3.441 19.094 2.97 20.668-0.066 0.216-10.824 1.932-10.239 2.957-1.647-0.368-3.306 0.004-5.148-0.598 0.62-0.429 0.456-0.411 1.174-0.094-1.146-1.786-2.542-2.821-2.093-3.88-3.121-1.393-6.060 5.026-10.327 2.72-6.343-3.425-10.982-6.403-14.657-12.846-0.054 0.021-0.114 0.052-0.167 0.070-0.971-2.25-19.703-33.423-11.041-35.21 11.819-2.588 12.33 14.043 25.151 11.715-1.605-3.309-4.455-5.759-6.011-9.077-1.041-2.215-1.986-3.292-3.047-4.521-1.447-2.529-14.517-13.12-3.18-13.821 13.67-0.844 3.532-13.824 0.802-20.881-2.38-6.151-7.457-26.745 4.374-21.643 5.617 2.421 5.725-6.11 6.596-9.244-0.373-0.575-4.552-4.445-4.587-4.371-0.237 1.846 1.888 8.478-0.707 9.45-5.27 1.836-5.698-10.585-8.251-9.498-5.037 2.062-2.581 21.368-6.353 22.65-0.41-0.558-0.72-1.373-0.675-1.846-0.317 0.113-0.637 0.223-0.951 0.339-0.954 3.81 2.396 7.93 2.121 11.97-0.258 3.678-0.836 6.743 0.192 10.414-3.329 1.076-6.562 3.393-8.258 7.684-0.677 1.626 0.117 9.718-1.553 10.122-1.209 4.663-3.386-1.338-5.454-0.802-0.499 0.134-0.925 0.569-1.305 1.175 9.618 62.824 43.135 117.885 90.946 155.584 0.382-0.082 0.769-0.19 1.162-0.325zM63.331 281.783c-1.996 6.757-2.703-1.735-8.777-0.934 6.203 7.872 10.902 9.157 17.704 2.494 2.18-2.138 7.168-9.31 6.868-11.195 3.406-0.978 0.937-2.911 2.505-5.137-3.567-4.789-7.308-0.007-11.195 0.61 2.153 5.113 0.572 13.221-7.105 14.162zM296.57 411.1c0.077 1.135 3.291 0.739 4.033 1.153-1.856 2.038 3.138 1.808 4.111 1.739 5.754-0.38 1.484-2.985 1.469-3.678-0.122-4.636-3.295-6.115-8.428-5.772h-0c-5.332 0.373 0.226 3.685 0.637 5.051-0.605 0.503-1.211 1.001-1.82 1.506zM314.789 420.899c-0.762-0.49-1.56-0.916-2.393-1.279 0.975-1.909 2.94-2.191 5.901-0.853 0.38-1.564-2.947-2.891-3.337-3.821 3.872-1.003 9.786-4.944 9.954-8.816 0.695 0.091 0.791 0.284 1.178 0.385 2.247 1.052 2.247-1.435-0.087-4.116 0.682-0.15 1.368-0.296 2.048-0.447 0.042-0.794-17.108-2.333-19.142-2.219 1.192 2.010 6.817 2.928 6.774 4.093-0.748-0.745-6.164 0.24-6.164 0.596 0.004 1.292 2.007 1.577 2.007 3.988 1.623-0.114 4.469-0.16 4.448 1.93-1.557 0.007-2.828 0.275-1.686 1.728-0.585 0.048-4.719-0.405-4.705 0.585 0.029 2.225 2.64 1.166-0.634 2.835-0.498-0.459-0.212-0.662-0.021-0.919-0.26 0.020-0.519 0.037-0.776 0.055 0.038 2.264-0.363 1.808-0.286 3.65-1.432 0.272-2.191 0.498-2.156 1.23v0.003c0.219-0.014 2.559-0.653 2.577-0.345-1.72 0.666 6.6 4.999 6.502 1.739zM161.917 369.189c0.156 0.005 0.329 0.019 0.53 0.049-0.179-0.009-0.355-0.026-0.53-0.049zM141.030 419.411c0.006 0.005 0.011 0.009 0.016 0.013-0.028-0.010-0.036-0.014-0.016-0.013zM159.598 436.135c-0.208 0-0.427-0.005-0.641-0.007 0.21-0.016 0.423-0.018 0.641 0.007z" />
<glyph unicode="&#xe641;" d="M256 480.32c-141.568 0-256.32-114.752-256.32-256.32s114.72-256.32 256.32-256.32c141.568 0 256.32 114.752 256.32 256.32s-114.752 256.32-256.32 256.32zM256 10.368c-117.76 0-213.6 95.872-213.6 213.632 0 117.792 95.84 213.6 213.6 213.6 117.792 0 213.6-95.808 213.6-213.6 0-117.76-95.808-213.632-213.6-213.632zM362.784 245.376h-213.568c-11.84 0-21.376-9.568-21.376-21.376s9.536-21.376 21.344-21.376h213.568c11.84 0 21.376 9.568 21.376 21.376 0.032 11.808-9.504 21.376-21.344 21.376z" />
<glyph unicode="&#xe642;" d="M255.68 480c-141.248 0-255.68-114.464-255.68-255.68s114.432-255.712 255.68-255.712c141.184 0 255.68 114.496 255.68 255.712s-114.496 255.68-255.68 255.68zM255.68 11.264c-117.536 0-213.088 95.584-213.088 213.088s95.552 213.024 213.088 213.024c117.472 0 213.056-95.584 213.056-213.056s-95.584-213.056-213.056-213.056zM238.784 345.92c-8.32 8.352-21.792 8.352-30.112 0-8.32-8.32-8.32-21.792 0-30.112l91.456-91.488-91.456-91.456c-8.32-8.384-8.32-21.856 0-30.144 4.16-4.16 9.6-6.24 15.072-6.24s10.912 2.080 15.072 6.24l106.528 106.56c8.32 8.288 8.32 21.792 0 30.112l-106.56 106.528z" />
<glyph unicode="&#xe643;" d="M75.2 117.6c-41.088 0-74.464-33.344-74.464-74.496 0-41.088 33.376-74.432 74.464-74.432 41.152 0 74.496 33.344 74.496 74.432-0.032 41.152-33.376 74.496-74.496 74.496zM43.232 479.328c-23.52 0-42.56-19.072-42.56-42.56s19.040-42.528 42.56-42.528c211.232 0 383.040-171.84 383.040-383.072 0-23.488 19.072-42.528 42.56-42.528 23.424 0 42.496 19.040 42.496 42.528 0 258.176-209.952 468.16-468.096 468.16zM43.232 309.12c-23.52 0-42.56-19.104-42.56-42.56 0-23.488 19.040-42.56 42.56-42.56 117.312 0 212.768-95.456 212.768-212.8 0-23.488 19.072-42.528 42.56-42.528s42.56 19.040 42.56 42.528c0 164.256-133.664 297.92-297.888 297.92z" />
<glyph unicode="&#xe644;" d="M483.783 334.692h-16.868v27.164c-13.127 1.251-26.795 1.92-40.846 1.92-76.615 0-141.923-19.385-167.139-46.592-25.216 27.207-90.51 46.592-167.125 46.592-14.066 0-27.719-0.668-40.846-1.92v-27.164h-22.286v-263.452l227.555 5.034 227.555-5.034v263.452zM275.641 310.044c22.016 18.56 75.918 37.021 150.429 37.021 8.036 0 16.114-0.228 24.135-0.683v-208.868c-8.022 0.413-16.099 0.626-24.135 0.626-59.904 0-114.546-11.491-150.428-30.592v202.496zM67.641 346.368c8.035 0.455 16.099 0.683 24.15 0.683 74.482 0 128.398-18.46 150.429-37.021v-202.496c-35.882 19.115-90.525 30.592-150.429 30.592-8.035 0-16.1-0.214-24.15-0.626v208.868z" />
<glyph unicode="&#xe645;" d="M256 480.64c-141.76 0-256.64-114.88-256.64-256.64s114.848-256.64 256.64-256.64c141.728 0 256.64 114.88 256.64 256.64 0 141.728-114.912 256.64-256.64 256.64zM256 10.144c-117.952 0-213.856 95.904-213.856 213.856s95.904 213.856 213.856 213.856c117.92 0 213.856-95.904 213.856-213.856s-95.936-213.856-213.856-213.856zM354.272 314.72l-136.064-136.096-60.544 60.48c-8.352 8.384-21.888 8.384-30.24 0-8.352-8.32-8.352-21.856 0-30.208l75.648-75.616c4.16-4.192 9.632-6.272 15.104-6.272 5.44 0 10.944 2.080 15.104 6.272l151.232 151.2c8.352 8.352 8.352 21.888 0 30.24-8.32 8.352-21.888 8.352-30.24 0z" />
<glyph unicode="&#xe646;" d="M256 479.36c-141.024 0-255.36-114.304-255.36-255.36s114.336-255.36 255.36-255.36c141.056 0 255.36 114.304 255.36 255.36s-114.304 255.36-255.36 255.36zM256 11.2c-117.344 0-212.8 95.488-212.8 212.8 0 117.344 95.456 212.8 212.8 212.8 117.376 0 212.8-95.456 212.8-212.8 0-117.312-95.424-212.8-212.8-212.8zM302.976 345.44c-8.32 8.32-21.792 8.32-30.080 0l-106.432-106.4c-8.32-8.32-8.32-21.792 0-30.080l106.4-106.4c4.16-4.192 9.6-6.24 15.072-6.24 5.44 0 10.88 2.048 15.040 6.24 8.32 8.32 8.32 21.76 0 30.048l-91.36 91.392 91.328 91.36c8.352 8.32 8.352 21.792 0.032 30.080z" />
<glyph unicode="&#xe647;" d="M468.352 202.656h-21.792c-11.744 0-22.368-9.504-25.28-20.896-18.848-73.728-85.728-128.448-165.248-128.448-63.008 0-117.952 34.4-147.424 85.344h72.736c11.808 0 21.344 9.536 21.344 21.344v21.344c0 11.776-9.536 21.312-21.344 21.312h-149.344c-17.632 0-31.968-14.304-32-31.968v-149.376c0-11.808 9.536-21.344 21.344-21.344h21.344c11.776 0 21.312 9.536 21.312 21.344v68.064c42.368-60.544 112.544-100.064 192.032-100.064 115.072 0 210.72 82.88 230.72 192.224 2.144 11.584-6.624 21.12-18.4 21.12zM490.72 448.032h-21.312c-11.776 0-21.312-9.536-21.312-21.344v-68c-42.432 60.448-112.576 100-192.032 100-115.104 0-210.784-82.912-230.752-192.224-2.144-11.584 6.656-21.152 18.464-21.152h21.696c11.808 0 22.432 9.504 25.344 20.928 18.848 73.696 85.728 128.448 165.248 128.448 62.976 0 117.888-34.432 147.424-85.344h-72.736c-11.808 0-21.344-9.568-21.344-21.344v-21.344c0-11.776 9.536-21.344 21.312-21.344h149.344c17.664 0 32 14.336 32.032 32v149.376c0 11.808-9.536 21.344-21.376 21.344z" />
<glyph unicode="&#xe648;" d="M256 480.64c-141.76 0-256.64-114.88-256.64-256.672 0-141.728 114.88-256.608 256.608-256.608 141.76 0 256.64 114.88 256.64 256.608 0.032 141.792-114.848 256.672-256.608 256.672zM256 10.112c-117.952 0-213.824 95.936-213.824 213.856 0 117.984 95.904 213.888 213.824 213.888 117.952 0 213.888-95.936 213.888-213.888 0-117.92-95.936-213.856-213.888-213.856zM362.944 245.344h-85.568v85.6c0 11.808-9.536 21.376-21.376 21.376-11.808 0-21.344-9.568-21.344-21.376v-85.568h-85.568c-11.84 0-21.376-9.536-21.376-21.376 0-11.808 9.536-21.344 21.376-21.344h85.536v-85.568c0-11.872 9.568-21.376 21.344-21.376 11.872 0 21.408 9.504 21.408 21.376v85.536h85.536c11.744 0 21.376 9.536 21.376 21.344 0.032 11.84-9.6 21.376-21.344 21.376z" />
<glyph unicode="&#xe649;" d="M141.103 206.135h19.187v-103.872h18.163v103.872h19.546v17.011h-56.896zM294.626 193.438c-5.999 0-11.606-3.281-16.87-9.767v39.483h-16.312v-120.892h16.312v8.726c5.462-6.741 11.063-9.971 16.87-9.971 6.494 0 10.863 3.426 13.043 10.125 1.092 3.818 1.656 9.822 1.656 18.151v35.87c0 8.529-0.559 14.481-1.656 18.108-2.176 6.75-6.55 10.168-13.043 10.168zM292.992 128.017c0-8.137-2.385-12.16-7.104-12.16-2.68 0-5.406 1.288-8.137 4.019v54.899c2.735 2.697 5.457 3.973 8.137 3.973 4.711 0 7.104-4.164 7.104-12.293v-38.438zM230.984 123.498c-3.623-5.115-7.044-7.637-10.321-7.637-2.18 0-3.422 1.284-3.819 3.818-0.149 0.529-0.149 2.522-0.149 6.344v66.317h-16.325v-71.219c0-6.358 0.55-10.663 1.442-13.397 1.638-4.561 5.265-6.703 10.513-6.703 6.007 0 12.168 3.631 18.658 11.072v-9.83h16.333v90.073h-16.333v-68.839zM244.996 275.554c5.316 0 7.863 4.216 7.863 12.634v38.289c0 8.427-2.547 12.621-7.863 12.621-5.321 0-7.876-4.198-7.876-12.621v-38.289c0-8.423 2.555-12.634 7.876-12.634zM256 466.065c-133.688 0-242.065-108.377-242.065-242.065 0-133.692 108.377-242.065 242.065-242.065 133.692 0 242.061 108.369 242.061 242.065 0 133.688-108.369 242.065-242.061 242.065zM282.923 352.845h16.448v-67.021c0-3.87 0-5.875 0.2-6.413 0.363-2.555 1.659-3.865 3.865-3.865 3.294 0 6.762 2.555 10.415 7.723v69.576h16.495v-91.025h-16.49v9.925c-6.57-7.531-12.825-11.179-18.841-11.179-5.317 0-8.977 2.155-10.628 6.758-0.913 2.761-1.467 7.113-1.467 13.538l0.005 71.983zM220.63 323.161c0 9.733 1.651 16.845 5.159 21.445 4.561 6.23 10.987 9.339 19.209 9.339 8.261 0 14.678-3.11 19.243-9.339 3.464-4.595 5.115-11.712 5.115-21.445v-31.877c0-9.677-1.656-16.853-5.115-21.406-4.561-6.208-10.982-9.314-19.243-9.314-8.222 0-14.648 3.106-19.209 9.314-3.507 4.553-5.159 11.733-5.159 21.406v31.877zM176.52 383.966l12.983-47.966 12.476 47.966h18.5l-22.003-72.678v-49.476h-18.287v49.476c-1.66 8.764-5.321 21.606-11.187 38.643-3.853 11.337-7.872 22.712-11.725 34.035h19.243zM386.313 94.31c-3.307-14.358-15.057-24.96-29.192-26.543-33.493-3.738-67.375-3.759-101.137-3.738-33.745-0.022-67.644 0-101.133 3.738-14.139 1.583-25.886 12.177-29.184 26.543-4.706 20.45-4.706 42.777-4.706 63.838 0 21.056 0.059 43.384 4.766 63.838 3.303 14.366 15.040 24.964 29.179 26.538 33.489 3.738 67.387 3.759 101.142 3.738 33.741 0.022 67.644 0 101.129-3.738 14.135-1.578 25.89-12.173 29.197-26.538 4.706-20.454 4.663-42.782 4.663-63.838-0.005-21.060-0.017-43.387-4.723-63.838zM346.611 193.438c-8.346 0-14.839-3.067-19.55-9.229-3.469-4.557-5.048-11.606-5.048-21.235v-31.548c0-9.575 1.771-16.67 5.243-21.184 4.711-6.149 11.217-9.224 19.755-9.224 8.525 0 15.215 3.221 19.733 9.767 1.979 2.889 3.269 6.161 3.81 9.775 0.154 1.634 0.35 5.252 0.35 10.522v2.377h-16.644c0-6.541-0.214-10.168-0.363-11.055-0.935-4.365-3.277-6.55-7.288-6.55-5.606 0-8.346 4.168-8.346 12.497v15.974h32.64v18.649c0 9.63-1.63 16.674-5.051 21.235-4.557 6.157-11.050 9.229-19.243 9.229zM354.594 157.918h-16.325v8.337c0 8.329 2.739 12.493 8.192 12.493 5.401 0 8.132-4.164 8.132-12.493v-8.337z" />
<glyph unicode="&#xe64a;" d="M256 465.685c-133.47 0-241.685-108.215-241.685-241.685s108.216-241.69 241.685-241.69 241.685 108.219 241.685 241.69c0 133.5-108.216 241.685-241.685 241.685zM376.239 278.259l0.179-7.706c0-78.664-59.84-169.297-169.297-169.297-33.595 0-64.862 9.851-91.209 26.739 4.655-0.542 9.395-0.845 14.2-0.845 27.887 0 53.534 9.514 73.894 25.468-26.040 0.482-48.005 17.702-55.586 41.331 3.656-0.695 7.343-1.029 11.209-1.029 5.435 0 10.692 0.695 15.68 2.053-27.221 5.487-47.736 29.508-47.736 58.329v0.755c8.038-4.467 17.19-7.13 26.948-7.458-15.949 10.662-26.462 28.881-26.462 49.514 0 10.906 2.931 21.115 8.034 29.905 29.333-36.011 73.199-59.695 122.654-62.17-1.019 4.348-1.536 8.909-1.536 13.564 0 32.837 26.646 59.481 59.512 59.481 17.105 0 32.572-7.219 43.447-18.791 13.534 2.692 26.283 7.646 37.79 14.442-4.442-13.897-13.866-25.558-26.163-32.93 11.998 1.421 23.505 4.651 34.168 9.365-7.974-11.904-18.095-22.387-29.726-30.724z" />
<glyph unicode="&#xe64b;" d="M108.010 466.095c-7.189 7.189-18.948 7.189-26.138 0l-63.33-63.339c-7.177-7.194-7.202-18.949 0-26.151l61.615-61.602 89.477 89.463-61.624 61.627zM205.145 387.725c-7.548 6.818-19.606 6.511-26.786-0.683l-80.76-80.764c-7.189-7.202-7.493-19.26-0.695-26.786l239.766-265.656 134.136 134.114-265.659 239.774zM498.189 123.247l-13.649 12.31-135.475-135.462 12.331-13.64c6.805-7.557 18.265-7.838 25.442-0.653l112.009 112.009c7.181 7.168 6.89 18.615-0.657 25.438z" />
<glyph unicode="&#xe64c;" d="M491.080 66.3l-23.475-23.475-49.57 49.57 83.495 83.49c7.283 7.283 7.283 19.089 0 26.36-7.283 7.291-19.098 7.305-26.368 0l-30.754-30.759-284.139 284.147c-7.27 7.283-19.081 7.283-26.363 0l-46.131-46.149-62.038 62.038c-3.639 3.631-9.541 3.631-13.18 0-3.643-3.639-3.643-9.541 0-13.184l62.037-62.033-46.153-46.148c-7.279-7.271-7.279-19.080 0-26.351l284.126-284.126-30.759-30.771c-7.283-7.283-7.283-19.094 0-26.363 3.644-3.644 8.414-5.474 13.184-5.474s9.541 1.834 13.18 5.474l83.486 83.481 49.583-49.583-23.462-23.445c-3.644-3.644-3.644-9.541 0-13.188 1.822-1.83 4.194-2.743 6.592-2.743 2.377 0 4.77 0.913 6.587 2.743l73.302 73.293c3.644 3.652 3.644 9.536 0 13.197-3.639 3.639-9.544 3.639-13.18 0zM160.952 244.011l32.956 32.965c3.643 3.639 3.643 9.553 0 13.184-3.626 3.627-9.541 3.627-13.179 0l-32.956-32.955-79.782 79.782 79.104 79.104 119.326-119.33-79.104-79.099-26.363 26.351zM213.688 191.283l32.956 32.964c3.639 3.643 9.54 3.643 13.179 0 3.644-3.652 3.644-9.553 0-13.192l-32.952-32.955-13.184 13.184zM253.239 151.731l32.951 32.96c3.644 3.639 9.541 3.639 13.188 0 3.639-3.635 3.639-9.541 0-13.192l-32.96-32.96-13.179 13.192zM338.931 131.964l-32.969-32.969-13.184 13.197 32.973 32.952c3.639 3.644 9.541 3.644 13.18 0 3.627-3.639 3.644-9.536 0-13.18z" />
<glyph unicode="&#xe64d;" d="M256.005 466.321c-133.824 0-242.326-108.489-242.326-242.321 0-99.221 59.669-184.465 145.049-221.943-0.687 16.926-0.124 37.235 4.215 55.642 4.655 19.673 31.181 132.036 31.181 132.036s-7.744 15.466-7.744 38.34c0 35.909 20.817 62.728 46.733 62.728 22.042 0 32.691-16.554 32.691-36.377 0-22.157-14.131-55.296-21.398-85.994-6.071-25.711 12.886-46.669 38.246-46.669 45.918 0 76.834 58.966 76.834 128.832 0 53.107-35.767 92.856-100.83 92.856-73.502 0-119.296-54.818-119.296-116.041 0-21.111 6.221-36.007 15.97-47.531 4.484-5.295 5.112-7.424 3.486-13.504-1.161-4.459-3.832-15.193-4.936-19.452-1.617-6.135-6.588-8.333-12.13-6.063-33.861 13.824-49.63 50.897-49.63 92.574 0 68.834 58.056 151.373 173.189 151.373 92.522 0 153.399-66.944 153.399-138.811 0-95.057-52.847-166.071-130.752-166.071-26.154 0-50.774 14.135-59.2 30.2 0 0-14.067-55.829-17.049-66.607-5.137-18.683-15.194-37.363-24.393-51.913 21.807-6.43 44.826-9.933 68.685-9.933 133.82 0 242.317 108.493 242.317 242.321 0.005 133.841-108.493 242.329-242.313 242.329z" />
<glyph unicode="&#xe64e;" d="M435.247 443.021h-302.135c-22.758 0-41.203-18.492-41.203-41.336v-27.554h-13.73c-22.758 0-41.203-18.487-41.203-41.331v-275.558c0-30.434 24.597-55.108 54.933-55.108h329.6c30.341 0 54.933 24.674 54.933 55.108v344.448c0 22.844-18.457 41.331-41.195 41.331zM457.395 51.311c0-15.821-12.889-28.711-28.711-28.711h-344.507c-15.834 0-28.71 12.889-28.71 28.711v287.091c0 7.923 6.43 14.353 14.358 14.353h14.353v-287.091c0-7.936 6.417-14.353 14.353-14.353 7.941 0 14.358 6.417 14.358 14.353v344.512c0 7.923 6.43 14.353 14.353 14.353h315.801c7.911 0 14.353-6.43 14.353-14.353v-358.865zM306.646 266.56h114.838c3.976 0 7.176 3.217 7.176 7.176 0 3.964-3.2 7.177-7.176 7.177h-114.837c-3.947 0-7.181-3.213-7.181-7.177 0.005-3.959 3.234-7.176 7.181-7.176zM306.646 309.624h114.838c3.976 0 7.176 3.217 7.176 7.176 0 3.964-3.2 7.176-7.176 7.176h-114.837c-3.947 0-7.181-3.213-7.181-7.176 0.005-3.959 3.234-7.176 7.181-7.176zM306.646 352.687h114.838c3.976 0 7.176 3.217 7.176 7.176 0 3.964-3.2 7.177-7.176 7.177h-114.837c-3.947 0-7.181-3.213-7.181-7.177 0.005-3.959 3.234-7.176 7.181-7.176zM263.608 65.608h-114.833c-3.959 0-7.177-3.23-7.177-7.176 0-3.976 3.217-7.176 7.177-7.176h114.838c3.951 0 7.181 3.2 7.181 7.176-0.005 3.947-3.217 7.176-7.185 7.176zM263.608 108.676h-114.833c-3.959 0-7.177-3.234-7.177-7.181 0-3.976 3.217-7.176 7.177-7.176h114.838c3.951 0 7.181 3.2 7.181 7.176-0.005 3.947-3.217 7.181-7.185 7.181zM263.608 151.736h-114.833c-3.959 0-7.177-3.23-7.177-7.176 0-3.981 3.217-7.181 7.177-7.181h114.838c3.951 0 7.181 3.2 7.181 7.181-0.005 3.951-3.217 7.176-7.185 7.176zM421.509 65.608h-114.833c-3.981 0-7.181-3.23-7.181-7.176 0-3.976 3.2-7.176 7.181-7.176h114.833c3.951 0 7.181 3.2 7.181 7.176 0 3.947-3.23 7.176-7.181 7.176zM421.509 108.676h-114.833c-3.981 0-7.181-3.234-7.181-7.181 0-3.976 3.2-7.176 7.181-7.176h114.833c3.951 0 7.181 3.2 7.181 7.176 0 3.947-3.23 7.181-7.181 7.181zM421.509 151.736h-114.833c-3.981 0-7.181-3.23-7.181-7.176 0-3.981 3.2-7.181 7.181-7.181h114.833c3.951 0 7.181 3.2 7.181 7.181 0 3.951-3.23 7.176-7.181 7.176zM421.509 237.867h-272.734c-3.959 0-7.177-3.217-7.177-7.177 0-3.964 3.217-7.176 7.177-7.176h272.734c3.951 0 7.181 3.213 7.181 7.177 0 3.959-3.23 7.177-7.181 7.177zM421.509 194.799h-272.734c-3.959 0-7.177-3.23-7.177-7.176 0-3.981 3.217-7.181 7.177-7.181h272.734c3.951 0 7.181 3.2 7.181 7.181 0 3.947-3.23 7.176-7.181 7.176zM155.951 266.632h100.48c7.94 0 14.358 6.413 14.358 14.353v100.424c0 7.936-6.417 14.353-14.358 14.353h-100.48c-7.94 0-14.353-6.417-14.353-14.353v-100.424c0-7.923 6.413-14.353 14.353-14.353zM170.304 367.113h71.774v-71.774h-71.774v71.774z" />
<glyph unicode="&#xe64f;" d="M258.134 471.228c-135.838 0-245.969-110.136-245.969-245.969 0-135.838 110.131-245.974 245.969-245.974s245.969 110.135 245.969 245.974c0 135.868-110.131 245.969-245.969 245.969zM169.698 102.264c0-5.197-4.211-9.413-9.412-9.413h-37.688c-5.201 0-9.412 4.216-9.412 9.413v164.731c0 5.201 4.211 9.413 9.412 9.413h37.688c5.201 0 9.412-4.211 9.412-9.413v-164.731zM169.698 314.782c0-5.197-4.211-9.413-9.412-9.413h-37.688c-5.201 0-9.412 4.216-9.412 9.413v33.467c0 5.201 4.211 9.413 9.412 9.413h37.688c5.201 0 9.412-4.211 9.412-9.413v-33.467zM403.080 102.267c0-5.205-4.207-9.413-9.413-9.413h-37.688c-5.201 0-9.408 4.207-9.408 9.413v69.555c0 23.065-1.207 37.982-3.627 44.753-2.406 6.771-6.332 12.032-11.767 15.786-5.427 3.755-11.968 5.632-19.61 5.632-9.788 0-18.573-2.679-26.351-8.042-7.774-5.368-13.103-12.472-15.987-21.321s-4.327-25.207-4.327-49.075v-57.288c0-5.205-4.211-9.413-9.412-9.413h-37.688c-5.201 0-9.417 4.207-9.417 9.413v164.728c0 5.197 4.215 9.412 9.416 9.412h33.664c5.201 0 9.416-4.215 9.416-9.412v-12.553c0-5.197 2.547-6.037 6.046-2.193 17.579 19.324 39.031 28.988 64.35 28.988 12.467 0 23.868-2.249 34.193-6.737 10.325-4.497 18.134-10.227 23.428-17.199 5.295-6.976 8.981-14.886 11.063-23.735 2.078-8.849 3.111-21.521 3.111-38.011v-93.286z" />
<glyph unicode="&#xe650;" d="M185.814 170.927l71.569-34.283c5.696-2.731 12.536-0.44 15.433 5.175l42.505 82.304c2.885 5.581 9.659 7.885 15.347 5.218l61.017-28.613c5.555-2.599 12.177-0.469 15.168 4.889l67.089 120.183c3.149 5.637 1.135 12.757-4.51 15.902l-10.142 5.662c-5.637 3.144-12.757 1.126-15.906-4.51l-51.195-91.734c-2.986-5.355-9.613-7.488-15.168-4.886l-61.974 29.060c-5.683 2.663-12.467 0.359-15.347-5.218l-42.385-82.031c-2.901-5.615-9.737-7.906-15.437-5.175l-69.93 33.523c-5.478 2.624-12.053 0.618-15.13-4.616l-73.084-124.386c-3.269-5.56-1.408-12.728 4.16-15.995l10.026-5.897c5.564-3.277 12.728-1.408 16 4.156l56.772 96.644c3.077 5.235 9.647 7.249 15.121 4.625z" />
<glyph unicode="&#xe651;" d="M496.158 256l-76.279 108.945c-1.382 1.971-3.478 3.311-5.858 3.729-2.346 0.389-4.796-0.128-6.776-1.498l-43.558-30.528c-4.096-2.875-5.094-8.525-2.219-12.634l1.6-2.283c-22.123-13.935-33.707-13.606-46.856-13.162-14.712 0.49-31.3 0.99-60.211-17.937-28.911 18.931-45.491 18.406-60.207 17.928-13.159-0.418-24.743-0.755-46.874 13.162l1.613 2.304c2.875 4.109 1.877 9.75-2.219 12.625l-43.563 30.524c-1.971 1.369-4.416 1.903-6.775 1.51-2.373-0.426-4.475-1.771-5.854-3.738l-76.279-108.933c-1.383-1.971-1.92-4.407-1.506-6.775 0.418-2.368 1.758-4.476 3.729-5.85l43.575-30.511c1.578-1.11 3.401-1.639 5.193-1.639 2.859 0 5.674 1.339 7.437 3.865l1.737 2.479 39.3-27.524c-2.171-3.17-3.725-6.754-4.416-10.654-1.263-7.173 0.337-14.383 4.497-20.318 5.078-7.24 13.423-11.584 22.319-11.584 1.314 0 2.615 0.111 3.895 0.298 0.619-4.087 2.061-8.022 4.493-11.49 5.069-7.245 13.415-11.579 22.31-11.579 1.314 0 2.615 0.111 3.895 0.295 0.614-4.019 2.018-7.953 4.497-11.498 5.082-7.236 13.423-11.567 22.323-11.567 1.31 0 2.602 0.111 3.882 0.295 0.61-4.010 2.014-7.953 4.488-11.486 5.077-7.245 13.41-11.575 22.31-11.575 5.598 0 10.978 1.694 15.56 4.902 3.516 2.462 6.174 5.649 8.115 9.173l13.129-9.178c4.74-3.324 10.168-4.92 15.556-4.92 8.593 0 17.041 4.045 22.336 11.606 2.432 3.473 3.874 7.399 4.493 11.481 1.293-0.188 2.59-0.281 3.882-0.281 8.593 0 17.050 4.036 22.336 11.584 2.415 3.464 3.861 7.382 4.488 11.456 1.288-0.183 2.594-0.29 3.896-0.29 8.581 0 17.033 4.045 22.315 11.589 2.428 3.469 3.87 7.402 4.493 11.481 1.263-0.179 2.551-0.29 3.832-0.29 1.6 0 3.213 0.137 4.817 0.423 7.173 1.272 13.41 5.231 17.553 11.17 6.678 9.531 6.293 21.863 0.077 30.942l39.317 27.537 1.728-2.479c1.762-2.522 4.578-3.865 7.433-3.865 1.796 0 3.618 0.534 5.201 1.642l43.571 30.511c1.971 1.374 3.307 3.482 3.729 5.85 0.414 2.359-0.123 4.8-1.502 6.758zM147.798 170.726l-4.928-3.461c-3.955-2.769-9.899-1.685-12.642 2.219-1.374 1.971-1.899 4.373-1.476 6.771 0.418 2.394 1.737 4.476 3.695 5.849l4.983 3.481c1.511 1.054 3.294 1.613 5.15 1.613 2.982 0 5.773-1.433 7.458-3.844 2.867-4.096 1.869-9.762-2.24-12.63zM183.446 151.402l-9.877-6.912c-3.946-2.765-9.886-1.681-12.625 2.223-1.382 1.971-1.907 4.382-1.481 6.776 0.418 2.402 1.741 4.476 3.699 5.858l19.823 13.88c1.514 1.067 3.306 1.625 5.159 1.625 2.987 0 5.777-1.447 7.463-3.849 2.841-4.062 1.877-9.673-2.137-12.557l-10.001-7.014c-0.005-0.013-0.017-0.026-0.022-0.030zM219.123 132.122l-4.886-3.422c-0.017-0.013-0.042-0.030-0.060-0.038-0.017-0.013-0.022-0.026-0.038-0.038l-9.861-6.904c-3.955-2.765-9.89-1.698-12.63 2.231-2.871 4.087-1.864 9.762 2.232 12.625l2.035 1.43 7.863 5.504c0.017 0.013 0.030 0.030 0.051 0.043l4.894 3.439c1.514 1.058 3.298 1.625 5.159 1.625 2.982 0 5.773-1.438 7.454-3.849 0.038-0.043 0.072-0.089 0.102-0.137 2.761-4.087 1.741-9.664-2.317-12.51zM234.961 98.957c-3.942-2.76-9.881-1.694-12.608 2.214-2.855 4.083-1.869 9.715 2.185 12.608l0.081 0.051c1.506 1.046 3.277 1.604 5.125 1.604 2.982 0 5.768-1.438 7.45-3.844 2.871-4.104 1.864-9.771-2.232-12.634zM381.764 169.498c-1.382-1.971-3.464-3.286-5.858-3.707-2.398-0.406-4.805 0.106-6.776 1.481l-9.848 6.89c-0.017 0.013-0.030 0.026-0.047 0.038l-44.578 31.224c-4.109 2.88-9.762 1.877-12.63-2.223-2.872-4.101-1.873-9.75 2.231-12.625l24.555-17.199c0.068-0.060 0.128-0.132 0.209-0.183l19.844-13.88c1.95-1.378 3.255-3.439 3.67-5.82 0.431-2.394-0.103-4.796-1.481-6.776-2.872-4.091-8.542-5.077-12.625-2.223l-9.796 6.861c-0.038 0.022-0.068 0.064-0.111 0.094l-34.671 24.264c-1.531 1.079-3.289 1.613-5.039 1.647-0.973 0.013-1.928-0.166-2.854-0.443-0.926-0.29-1.792-0.726-2.594-1.31-0.798-0.584-1.541-1.263-2.137-2.116-0.952-1.361-1.442-2.893-1.57-4.438-0.26-3.111 1.054-6.272 3.798-8.188l34.743-24.329c1.925-1.382 3.221-3.435 3.644-5.79 0.418-2.402-0.106-4.805-1.489-6.771-2.872-4.096-8.546-5.107-12.642-2.236l-9.882 6.916c-0.005 0.005-0.005 0.013-0.005 0.013l-24.768 17.327c-4.101 2.88-9.758 1.873-12.625-2.227s-1.869-9.753 2.231-12.625l24.772-17.336c1.954-1.382 3.269-3.456 3.69-5.837 0.423-2.402-0.106-4.805-1.493-6.788-2.875-4.096-8.546-5.090-12.638-2.227l-21.171 14.827c-0.81 2.863-1.98 5.649-3.772 8.222-3.085 4.399-7.369 7.693-12.245 9.634 2.355 7.736 1.382 16.401-3.597 23.531-0.055 0.077-0.107 0.132-0.154 0.217-4.813 6.741-12.476 10.863-20.744 11.294-0.154 5.111-1.711 10.236-4.851 14.728-5.077 7.257-13.423 11.592-22.323 11.592-5.594 0-10.978-1.698-15.56-4.902l-3.865-2.714c-0.798 2.923-1.988 5.773-3.819 8.38-5.077 7.249-13.415 11.589-22.319 11.589-4.527 0-8.883-1.156-12.809-3.277l-43.367 30.353 52.121 74.437c27.464-17.383 43.567-16.875 57.861-16.427 12.454 0.401 23.493 0.721 43.392-11.038l-28.587-20.032c-12.288-8.606-15.287-25.6-6.681-37.883 4.155-5.935 10.389-9.899 17.553-11.161 1.605-0.29 3.217-0.431 4.817-0.431 5.525 0 10.901 1.685 15.505 4.911l45.244 31.675 91.904-64.358c4.096-2.872 5.094-8.534 2.236-12.625zM382.459 202.21l-89.642 62.762c-0.051 0.043-0.111 0.060-0.171 0.098-0.295 0.196-0.606 0.354-0.926 0.521-0.222 0.111-0.443 0.234-0.674 0.333-0.281 0.115-0.584 0.201-0.879 0.281-0.273 0.081-0.542 0.175-0.815 0.231-0.281 0.051-0.567 0.064-0.849 0.094-0.295 0.030-0.584 0.064-0.875 0.064s-0.584-0.034-0.879-0.064c-0.281-0.030-0.572-0.043-0.849-0.098-0.273-0.051-0.546-0.145-0.81-0.226-0.303-0.081-0.598-0.166-0.887-0.281-0.231-0.098-0.443-0.214-0.666-0.333-0.32-0.158-0.632-0.32-0.935-0.525-0.060-0.034-0.115-0.051-0.175-0.094l-50.436-35.32c-1.967-1.378-4.365-1.899-6.771-1.476-2.398 0.423-4.476 1.741-5.858 3.712-2.867 4.096-1.864 9.762 2.232 12.63l39.621 27.755c0.005 0 0.005 0.008 0.009 0.013 27.226 19.047 39.825 18.671 54.404 18.155 14.31-0.49 30.4-0.947 57.856 16.435l52.135-74.445-43.158-30.221z" />
<glyph unicode="&#xe652;" d="M233.399 271.616c0 62.396-50.645 113.041-113.041 113.041s-113.041-50.646-113.041-113.041c0-62.395 50.645-113.041 113.041-113.041s113.041 50.645 113.041 113.041zM380.066 334.012l-23.091 2.026-2.031-23.906 62.801-5.265 1.216 64.418-23.501 0.406-0.401-18.231c-106.56 129.246-238.238 52.672-239.45 51.861l12.155-20.258c4.859 2.837 117.896 68.066 212.301-51.050zM99.29 108.335l23.096-1.622 1.621 23.911-62.801 4.86-0.81-64.418 23.902-0.409 0.406 18.637c107.776-128.435 238.643-51.050 239.859-50.236l-12.561 20.258c-5.265-2.841-117.495-69.286-212.71 49.019zM213.142 271.616c0 51.051-41.733 92.783-92.783 92.783s-92.783-41.732-92.783-92.783 41.733-92.783 92.783-92.783c51.050 0 92.783 41.327 92.783 92.783zM152.776 322.262v0c-7.702 8.913-18.637 14.178-30.793 14.178s-23.096-5.671-30.793-14.178c-6.080-6.891-9.319-16.209-9.319-25.933v-23.096c0-22.28 17.826-40.111 40.111-40.111s40.111 17.831 40.111 40.111v23.096c0.401 10.129-3.247 19.042-9.319 25.933zM153.178 273.233c0-17.016-13.777-31.194-31.198-31.194-17.019 0-31.198 13.773-31.198 31.194v19.447c0 8.512 6.886 14.993 14.989 14.993 4.864-1.216 10.129-1.621 16.209-1.621 11.345 0 21.069 2.432 26.739 5.674 2.432-4.458 4.053-9.724 4.053-15.399v-23.096h0.405zM62.422 216.512c-4.459-2.837-8.107-7.291-8.913-16.205l-0.406-10.534c0-1.622 0-3.247 0.406-4.459 1.212-4.049 4.455-6.486 8.102-6.486h48.214l-14.183 57.531-33.221-19.849zM129.681 227.047h-14.993c-2.427 0-4.859-2.838-4.859-6.076v-5.265c0-6.887 3.243-12.561 7.697-14.587l-2.432-22.285h13.372l-2.432 22.285c4.459 2.026 7.701 7.702 7.701 14.587v5.265c0.806 3.238-1.625 6.076-4.053 6.076zM149.129 237.581l33.225-20.258c4.454-2.837 8.102-7.291 8.913-16.209l0.405-10.534c0-1.622 0-3.243-0.405-4.459-1.216-4.049-4.458-6.887-8.102-6.887h-48.623l14.588 58.346zM502.021 171.132c0 62.4-50.646 113.046-113.037 113.046-62.395 0-113.041-50.645-113.041-113.046 0-62.396 50.646-113.037 113.041-113.037 62.392 0 113.037 50.641 113.037 113.037zM481.762 171.132c0 51.055-41.728 92.787-92.779 92.787-51.055 0-92.783-41.732-92.783-92.787 0-51.050 41.728-92.779 92.783-92.779 51.050 0 92.779 41.327 92.779 92.779zM459.077 90.103c0.81 0.807 1.216 1.212 2.026 1.617-1.212 6.49-4.459 9.724-8.503 11.75l-40.111 21.474c9.724 7.697 16.205 20.258 16.205 34.44v24.712c0 10.534-3.644 20.258-9.319 27.554-7.291 9.318-18.231 14.989-30.387 14.989-12.16 0-23.096-6.076-30.387-14.989-6.075-7.296-9.322-17.019-9.322-27.554v-24.712c0-14.183 6.486-26.748 16.209-34.44l-40.111-21.474c-3.644-2.026-6.486-4.454-7.697-9.318h0.406c3.243 0 6.481-0.81 8.913-2.031 0.81 1.216 1.622 2.031 2.837 2.432l37.274 19.853v-34.437h-29.982c0.406-1.216 0.406-2.432 0.81-3.644h2.026c6.481 0 11.345-2.432 14.584-6.080h75.767c2.432 2.833 6.075 4.864 10.534 5.671 0.409 1.216 0.81 2.837 1.625 4.053h-19.046v4.049c0 7.697-4.864 14.183-11.341 16.209v14.178l37.269-19.853c1.622-0.807 3.247-2.026 3.648-5.671 1.212 0.815 3.234 1.221 6.072 1.221zM391.010 84.429v-4.049h-15.394v38.49c4.049-1.622 8.503-2.432 13.372-2.432 4.864 0 9.319 0.81 13.372 2.432v-18.231c-6.494-2.026-11.349-8.512-11.349-16.209zM413.291 84.429v-4.049h-13.372v4.049c0 4.053 2.837 7.291 6.486 7.291 4.053-0.406 6.887-3.238 6.887-7.291zM388.983 126.161c-17.015 0-30.793 14.993-30.793 33.224v20.663c0 8.913 6.882 16.205 14.993 16.205 4.86-1.216 10.129-1.622 15.8-1.622 11.345 0 21.069 2.432 26.739 6.080 2.432-4.864 4.053-10.534 4.053-16.615v-24.712c0-18.231-13.781-33.224-30.793-33.224z" />
<glyph unicode="&#xe653;" d="M373.824 184.772h-22.776c-4.271 22.651-13.453 44.126-26.858 62.835l15.808 15.812c1.541 1.541 2.402 3.623 2.402 5.807 0 2.176-0.862 4.267-2.402 5.798l-27.584 27.592c-3.209 3.2-8.409 3.2-11.618 0l-16.269-16.277c-18.565 12.68-39.616 21.299-61.632 25.208v23.112c0 4.536-3.678 8.218-8.214 8.218h-39.014c-4.536 0-8.214-3.682-8.214-8.218v-23.112c-22.195-3.938-43.409-12.655-62.063-25.498l-15.847 15.834c-3.209 3.209-8.401 3.209-11.609 0l-27.584-27.593c-1.541-1.54-2.41-3.631-2.41-5.807s0.87-4.267 2.41-5.807l15.51-15.505c-13.243-18.629-22.314-39.949-26.555-62.4h-20.702c-4.535 0-8.217-3.673-8.217-8.214v-39.010c0-4.539 3.682-8.217 8.217-8.217h20.015c3.767-22.626 12.502-44.275 25.549-63.351l-14.545-14.541c-3.209-3.209-3.209-8.409 0-11.614l27.588-27.597c1.536-1.541 3.631-2.406 5.807-2.406s4.266 0.866 5.807 2.406l14.088 14.084c19.23-13.769 41.293-23.070 64.546-27.183v-19.687c0-4.536 3.678-8.214 8.214-8.214h39.014c4.536 0 8.214 3.678 8.214 8.214v19.687c23.061 4.079 44.979 13.282 64.111 26.889l14.511-14.511c3.085-3.085 8.534-3.085 11.618 0l27.592 27.589c3.209 3.209 3.209 8.406 0 11.614l-14.848 14.848c13.226 19.192 22.050 40.977 25.848 63.782h22.089c4.536 0 8.214 3.67 8.214 8.217v39.006c0.005 4.531-3.673 8.209-8.209 8.209zM196.215 70.469c-47.816 0-86.588 38.762-86.588 86.588 0 47.813 38.767 86.579 86.588 86.579s86.583-38.767 86.583-86.579c0-47.825-38.767-86.587-86.584-86.587zM245.5 157.056c0-27.221-22.067-49.288-49.28-49.288s-49.28 22.067-49.28 49.288c0 27.213 22.067 49.28 49.28 49.28s49.28-22.072 49.28-49.28zM499.401 341.129l-11.021 4.744c2.961 12.979 3.050 26.415 0.252 39.33l11.729 4.663c2.402 0.96 3.579 3.687 2.628 6.093l-8.243 20.714c-0.96 2.415-3.682 3.589-6.101 2.629l-12.087-4.808c-7.053 11.119-16.461 20.587-27.529 27.686l5.056 11.738c0.49 1.144 0.503 2.423 0.051 3.592-0.461 1.148-1.365 2.087-2.509 2.569l-20.476 8.823c-2.381 1.024-5.137-0.077-6.166-2.449l-5.201-12.083c-12.536 2.812-25.536 2.94-38.050 0.371l-4.885 12.275c-0.96 2.406-3.695 3.579-6.101 2.628l-20.714-8.248c-2.402-0.96-3.579-3.69-2.624-6.093l4.885-12.28c-10.952-6.771-20.373-15.885-27.567-26.641l-11.755 5.060c-2.389 1.024-5.142-0.077-6.166-2.454l-8.815-20.476c-0.495-1.147-0.517-2.432-0.055-3.592 0.461-1.156 1.365-2.087 2.505-2.573l11.512-4.962c-3.094-12.685-3.409-25.924-0.918-38.741l-10.995-4.377c-2.406-0.956-3.584-3.682-2.628-6.093l8.243-20.715c0.96-2.415 3.682-3.589 6.101-2.629l10.628 4.233c6.779-11.226 15.987-20.877 26.944-28.245l-4.651-10.795c-1.019-2.385 0.077-5.145 2.449-6.174l20.476-8.819c1.147-0.49 2.432-0.512 3.589-0.047 1.156 0.457 2.087 1.361 2.577 2.496l4.505 10.454c13.115-3.247 26.794-3.529 40.009-0.802l4.164-10.445c0.955-2.415 3.678-3.588 6.097-2.628l20.711 8.239c2.411 0.956 3.589 3.695 2.628 6.093l-4.156 10.454c11.379 7.035 21.069 16.55 28.356 27.823l10.777-4.647c2.283-0.977 5.18 0.166 6.166 2.454l8.815 20.476c1.033 2.393-0.064 5.15-2.44 6.178zM418.483 321.092c-25.387-10.095-54.157 2.291-64.256 27.682s2.291 54.157 27.682 64.264c25.387 10.091 54.157-2.299 64.264-27.682 10.095-25.391-2.3-54.161-27.69-64.264zM423.825 376.678c5.308-13.342-1.199-28.463-14.541-33.77-13.342-5.312-28.467 1.207-33.779 14.553-5.303 13.342 1.203 28.463 14.55 33.771s28.476-1.212 33.771-14.554z" />
<glyph unicode="&#xe654;" d="M167.616 163.644c-34.466 0-62.383 27.917-62.383 62.383s27.917 62.387 62.383 62.387c34.466 0 62.383-27.921 62.383-62.387s-27.917-62.383-62.383-62.383zM349.295 163.644c-34.466 0-62.383 27.917-62.383 62.383s27.917 62.387 62.383 62.387 62.383-27.921 62.383-62.387-27.917-62.383-62.383-62.383z" />
<glyph unicode="&#xe655;" d="M258.134 471.232c-135.838 0-245.974-110.135-245.974-245.973s110.135-245.969 245.974-245.969 245.969 110.135 245.969 245.969c0 135.868-110.131 245.974-245.969 245.974zM167.616 163.644c-34.466 0-62.387 27.917-62.387 62.383s27.921 62.387 62.387 62.387c34.466 0 62.383-27.921 62.383-62.387s-27.917-62.383-62.383-62.383zM349.295 163.644c-34.466 0-62.383 27.917-62.383 62.383s27.917 62.387 62.383 62.387 62.383-27.921 62.383-62.387-27.917-62.383-62.383-62.383z" />
<glyph unicode="&#xe656;" d="M282.227 207.373v63.099h54.486v46.537c0 54.003 32.994 83.417 81.165 83.417l4.262-0.008c0.098 0.243 0.217 0.486 0.333 0.729l-3.17 3.793c-44.356 39.275-103.254 62.494-167.595 60.548-129.498-3.917-233.814-111.364-234.107-240.921-0.311-136.273 112.201-246.349 249.37-242.043 24.064 0.76 47.27 5.115 69.12 12.519l0.623 212.335h-54.486zM470.613 340.937c-0.576 0.183-1.118 0.409-1.656 0.635-0.414-0.022-0.802-0.060-1.224-0.060-0.397 0-0.772 0.038-1.156 0.055v-0.072l-33.421-0.013c-26.202 0-31.271-12.45-31.271-30.724v-40.286h62.49l-0.026-63.104h-62.459l1.25-177.032c56.96 42.534 94.827 109.466 97.502 184.879 1.625 45.709-9.498 88.687-30.029 125.721zM336.089-4.988l0.606 0.243c-0.205-0.068-0.406-0.145-0.606-0.217v-0.026zM403.14 30.336c-1.058-0.793-2.146-1.541-3.213-2.313zM423.082 400.418l-0.61 0.73c-0.115-0.243-0.231-0.487-0.333-0.73h0.943zM419.303 404.941l3.17-3.793c0.094 0.209 0.175 0.409 0.277 0.618-1.139 1.066-2.279 2.137-3.447 3.174zM424.226 400.414c-0.486 0.457-0.981 0.896-1.476 1.353-0.103-0.209-0.183-0.414-0.273-0.618l0.61-0.734h1.139z" />
<glyph unicode="&#xe657;" d="M150.289 334.661c8.047 0 14.571-6.524 14.571-14.57 0-8.043-6.524-14.567-14.571-14.567s-14.571 6.524-14.571 14.567c0 8.042 6.524 14.57 14.571 14.57zM194.505 332.74h192.443v-25.302h-192.444v25.302zM426.053 433.318h-75.678v24.175c0 0-56.538 15.271-94.246 15.271s-94.259-15.271-94.259-15.271v-24.175h-73.792c-11.008 0-19.942-9.101-19.942-20.347v-413.509c0-11.23 8.934-20.352 19.942-20.352h337.976c11.025 0 19.942 9.122 19.942 20.352v413.509c0 11.247-8.93 20.347-19.942 20.347zM256.87 456.99c11.375 0 20.582-9.207 20.582-20.587 0-11.358-9.207-20.566-20.582-20.566-11.379 0-20.587 9.208-20.587 20.566 0 11.379 9.208 20.587 20.587 20.587zM423.719-0.243h-333.675v409.075h60.267v-15.351h211.042v15.351h62.383v-409.071h-0.017zM150.289 278.37c8.047 0 14.571-6.524 14.571-14.571 0-8.042-6.524-14.566-14.571-14.566s-14.571 6.524-14.571 14.566c0 8.047 6.524 14.571 14.571 14.571zM194.505 276.45h192.443v-25.302h-192.444v25.302zM150.289 218.624c8.047 0 14.571-6.524 14.571-14.57 0-8.043-6.524-14.567-14.571-14.567s-14.571 6.524-14.571 14.567c0 8.047 6.524 14.57 14.571 14.57zM194.505 216.709h192.443v-25.301h-192.444v25.301zM150.289 162.338c8.047 0 14.571-6.524 14.571-14.57 0-8.043-6.524-14.567-14.571-14.567s-14.571 6.524-14.571 14.567c0 8.047 6.524 14.57 14.571 14.57zM194.505 160.418h192.443v-25.301h-192.444v25.301zM150.289 102.998c8.047 0 14.571-6.519 14.571-14.57 0-8.043-6.524-14.567-14.571-14.567s-14.571 6.524-14.571 14.567c0 8.047 6.524 14.57 14.571 14.57zM194.505 101.077h192.443v-25.305h-192.444v25.305z" />
<glyph unicode="&#xe658;" d="M203.247 443.081c-28.923 0-52.471-23.557-52.471-52.502 0-10.214 8.35-18.535 18.594-18.535 10.214 0 18.526 8.32 18.526 18.535 0 8.469 6.887 15.364 15.343 15.364h105.528c8.426 0 15.291-6.895 15.291-15.364 0-10.214 8.337-18.535 18.599-18.535 10.245 0 18.577 8.32 18.577 18.535 0 28.945-23.539 52.502-52.471 52.502h-105.514zM58.023 5.188h395.968c27.806 0 50.363 22.541 50.363 50.402v247.402c0 27.832-22.567 50.389-50.363 50.389h-395.968c-27.823 0-50.359-22.57-50.359-50.389v-247.402c-0.005-27.861 22.545-50.402 50.359-50.402z" />
<glyph unicode="&#xe659;" d="M258.134 163.874c24.106 0 43.648 19.55 43.648 43.648h-87.296c0-24.098 19.546-43.648 43.648-43.648zM472.034 39.471l-132.839 274.057v124.714h18.709c10.334 0 18.705 8.371 18.705 18.705 0 10.326-8.371 18.705-18.705 18.705h-199.539c-10.329 0-18.709-8.38-18.709-18.705 0-10.334 8.38-18.705 18.709-18.705h18.701v-124.714l-132.83-274.057c-2.786-5.752-4.352-12.194-4.352-19.021 0-24.098 19.541-43.644 43.648-43.644h349.197c24.103 0 43.644 19.546 43.644 43.644 0.005 6.827-1.553 13.269-4.339 19.021zM258.134 163.874c-24.102 0-43.648 19.546-43.648 43.648h-47.21l43.464 89.685c2.466 5.090 3.746 10.662 3.746 16.32v124.714h87.296v-124.714c0-5.658 1.284-11.23 3.742-16.32l43.473-89.685h-47.215c0-24.103-19.541-43.648-43.648-43.648zM332.962 104.635c-15.497 0-28.062 12.561-28.062 28.062 0 15.488 12.565 28.053 28.062 28.053s28.058-12.565 28.058-28.053c0-15.497-12.561-28.062-28.058-28.062z" />
</font>
</defs>
</svg>
