<?xml version="1.0" encoding="utf-8"?>
<!-- Generator: Adobe Illustrator 17.1.0, SVG Export Plug-In . SVG Version: 6.00 Build 0)  -->
<!DOCTYPE svg PUBLIC "-//W3C//DTD SVG 1.1//EN" "http://www.w3.org/Graphics/SVG/1.1/DTD/svg11.dtd">
<svg version="1.1" id="Layer_2" xmlns="http://www.w3.org/2000/svg" xmlns:xlink="http://www.w3.org/1999/xlink" x="0px" y="0px"
	 width="51.6px" height="42.6px" viewBox="0 0 51.6 42.6" enable-background="new 0 0 51.6 42.6" xml:space="preserve">
<path opacity="0.5" fill="#535959" d="M39.3,31.8H12.3c-0.8,0-1.4-0.6-1.4-1.4V12.3c0-0.8,0.6-1.4,1.4-1.4h27.1
	c0.8,0,1.4,0.6,1.4,1.4v18.1C40.8,31.1,40.1,31.8,39.3,31.8z M12.3,11.8c-0.3,0-0.5,0.2-0.5,0.5v18.1c0,0.3,0.2,0.5,0.5,0.5h27.1
	c0.3,0,0.5-0.2,0.5-0.5V12.3c0-0.3-0.2-0.5-0.5-0.5H12.3z"/>
<path opacity="0.75" fill="#FFFFFF" d="M12.3,11.8c-0.3,0-0.5,0.2-0.5,0.5v18.1c0,0.3,0.2,0.5,0.5,0.5h27.1c0.3,0,0.5-0.2,0.5-0.5
	V12.3c0-0.3-0.2-0.5-0.5-0.5H12.3z"/>
<rect x="26.8" y="14.8" fill="#535656" width="10" height="7"/>
<rect x="14.8" y="14.8" fill="#535656" width="10" height="1"/>
<rect x="14.8" y="16.8" fill="#535656" width="10" height="1"/>
<rect x="14.8" y="18.8" fill="#535656" width="10" height="1"/>
<rect x="14.8" y="20.8" fill="#535656" width="10" height="1"/>
<rect x="14.8" y="22.8" fill="#535656" width="10" height="1"/>
<rect x="14.8" y="24.8" fill="#535656" width="10" height="1"/>
<rect x="14.8" y="26.8" fill="#535656" width="10" height="1"/>
<rect x="26.8" y="22.8" fill="#535656" width="10" height="1"/>
<rect x="26.8" y="22.8" fill="#535656" width="10" height="1"/>
<rect x="26.8" y="24.8" fill="#535656" width="10" height="1"/>
<rect x="26.8" y="26.8" fill="#535656" width="10" height="1"/>
</svg>
