<?xml version="1.0" encoding="utf-8"?>
<!-- Generator: Adobe Illustrator 17.1.0, SVG Export Plug-In . SVG Version: 6.00 Build 0)  -->
<!DOCTYPE svg PUBLIC "-//W3C//DTD SVG 1.1//EN" "http://www.w3.org/Graphics/SVG/1.1/DTD/svg11.dtd">
<svg version="1.1" id="Layer_1" xmlns="http://www.w3.org/2000/svg" xmlns:xlink="http://www.w3.org/1999/xlink" x="0px" y="0px"
	 width="612px" height="612.5px" viewBox="0 0 612 612.5" enable-background="new 0 0 612 612.5" xml:space="preserve">
<path fill="#02A388" enable-background="new    " d="M306,64.8c132.5,0,241.5,107.9,241.5,241.5S439.7,547.8,306,547.8
	C173.5,547.8,64.5,440,64.5,306.2S172.3,64.8,306,64.8L306,64.8z M480.7,193.6c-17.6,9.4-38.7,17.6-59.8,23.4
	c7,23.4,11.7,50.4,12.9,77.4h80.9C511.2,257,499.4,223,480.7,193.6L480.7,193.6z M396.3,223c-24.6,4.7-51.6,8.2-77.4,9.4v61H408
	C406.8,268.8,402.1,245.2,396.3,223L396.3,223z M293.1,231.2c-27-1.2-52.8-3.5-77.4-9.4c-5.9,22.3-10.6,45.7-11.7,71.5h89.1V231.2
	L293.1,231.2z M191.1,217.1c-21.1-5.9-42.2-14.1-59.8-23.4C112.5,223,100.8,257,98.5,294.5h80.9
	C180.6,266.4,184.1,240.5,191.1,217.1L191.1,217.1z M146.6,172.5c15.2,8.2,34,15.2,52.8,19.9c10.6-30.5,27-59.8,46.9-85.6
	C206.3,118.6,172.3,142.1,146.6,172.5L146.6,172.5z M223.9,198.4c22.3,4.7,45.7,7,70.3,8.2V98.8c-2.3,0-4.7,0-7,0
	C257.9,124.6,236.8,164.4,223.9,198.4L223.9,198.4z M318.9,206.5c23.4-1.2,48.1-3.5,70.3-8.2c-12.9-35.2-35.2-75-63.3-99.7
	c-2.3,0-4.7,0-7,0L318.9,206.5L318.9,206.5z M412.7,193.6c18.8-4.7,36.3-11.7,52.8-19.9c-25.8-30.5-59.8-53.9-98.5-65.7
	C385.7,132.8,402.1,163.2,412.7,193.6L412.7,193.6z M465.4,438.8c-15.2-8.2-34-15.2-52.8-19.9c-10.6,30.5-27,59.8-46.9,85.6
	C404.5,492.7,439.7,470.3,465.4,438.8L465.4,438.8z M388.1,413c-22.3-4.7-45.7-7-70.3-8.2v107.9c2.3,0,4.7,0,7,0
	C352.9,488,375.2,448.2,388.1,413L388.1,413z M293.1,406c-23.4,1.2-48.1,3.5-70.3,8.2c12.9,35.2,35.2,75,63.3,99.7c2.3,0,4.7,0,7,0
	V406L293.1,406z M199.3,418.9c-18.8,4.7-36.3,11.7-52.8,19.9c25.8,30.5,59.8,53.9,98.5,65.7C225.1,479.8,209.9,449.2,199.3,418.9
	L199.3,418.9z M131.3,418.9c17.6-9.4,38.7-17.6,59.8-23.4c-7-23.4-11.7-50.4-12.9-77.4H98.5C100.8,355.5,112.6,389.5,131.3,418.9
	L131.3,418.9z M215.7,389.5c24.6-4.7,51.6-8.2,77.4-9.4V318H204C205.2,343.8,208.7,367.2,215.7,389.5L215.7,389.5z M318.9,381.2
	c27,1.2,52.8,3.5,77.4,9.4c5.9-22.3,10.6-45.7,11.7-71.5h-89.1V381.2L318.9,381.2z M420.9,395.4c21.1,5.9,42.2,14.1,59.8,23.4
	c18.8-29.3,30.5-63.3,32.8-100.8h-80.9C431.4,346.1,426.8,372,420.9,395.4L420.9,395.4z"/>
</svg>
