<?xml version="1.0" encoding="utf-8"?>
<!-- Generator: Adobe Illustrator 17.1.0, SVG Export Plug-In . SVG Version: 6.00 Build 0)  -->
<!DOCTYPE svg PUBLIC "-//W3C//DTD SVG 1.1//EN" "http://www.w3.org/Graphics/SVG/1.1/DTD/svg11.dtd">
<svg version="1.1" id="Layer_1" xmlns="http://www.w3.org/2000/svg" xmlns:xlink="http://www.w3.org/1999/xlink" x="0px" y="0px"
	 width="51.7px" height="51.7px" viewBox="0 0 51.7 51.7" enable-background="new 0 0 51.7 51.7" xml:space="preserve">
<g>
	<path fill="#6C6C6C" d="M41.4,40.1l-7.2-7.2c2.1-2.4,3.4-5.6,3.4-9c0-7.3-6.4-13.7-13.7-13.7c-7.6,0-13.7,6.1-13.7,13.7
		c0,7.6,6.1,13.7,13.7,13.7c3.5,0,6.6-1.3,9.1-3.5l7.2,7.2c0.2,0.2,0.5,0.2,0.7,0l0.5-0.5C41.6,40.6,41.6,40.3,41.4,40.1z
		 M23.9,35.8c-6.6,0-12-5.4-12-11.9c0-6.6,5.4-12,12-12c6.4,0,12,5.6,12,12C35.8,30.5,30.5,35.8,23.9,35.8z"/>
</g>
</svg>
