<?xml version="1.0" encoding="utf-8"?>
<!-- Generator: Adobe Illustrator 17.1.0, SVG Export Plug-In . SVG Version: 6.00 Build 0)  -->
<!DOCTYPE svg PUBLIC "-//W3C//DTD SVG 1.1//EN" "http://www.w3.org/Graphics/SVG/1.1/DTD/svg11.dtd">
<svg version="1.1" id="Layer_1" xmlns="http://www.w3.org/2000/svg" xmlns:xlink="http://www.w3.org/1999/xlink" x="0px" y="0px"
	 width="612px" height="515.4px" viewBox="0 0 612 515.4" enable-background="new 0 0 612 515.4" xml:space="preserve">
<path fill="#55ACEE" d="M557.1,102.4c-18,8-37.9,14-58.9,16c21-13,37.9-32.9,44.9-56.9c-20,12-41.9,20-64.9,25
	c-19-20-45.9-32.9-74.9-32.9c-57.9,0-103.8,46.9-103.8,102.8c0,8,1,16,3,23c-85.9-3-161.7-43.9-212.7-106.8c-9,15-14,32.9-14,51.9
	c0,35.9,18,66.9,45.9,85.9c-17-1-32.9-5-46.9-13v1c0,49.9,35.9,91.8,82.9,100.8c-9,2-18,4-27,4c-7,0-13-1-19-2
	c13,40.9,50.9,70.9,95.8,71.9c-34.9,28-79.9,43.9-127.8,43.9c-8,0-17-1-25-1c45.9,29,99.8,45.9,157.7,45.9
	c189.7,0,292.5-156.7,292.5-292.5c0-4,0-9,0-13C525.1,141.3,543.1,122.3,557.1,102.4z"/>
</svg>
