<?xml version="1.0" encoding="utf-8"?>
<!-- Generator: Adobe Illustrator 17.1.0, SVG Export Plug-In . SVG Version: 6.00 Build 0)  -->
<!DOCTYPE svg PUBLIC "-//W3C//DTD SVG 1.1//EN" "http://www.w3.org/Graphics/SVG/1.1/DTD/svg11.dtd">
<svg version="1.1" id="Layer_1" xmlns="http://www.w3.org/2000/svg" xmlns:xlink="http://www.w3.org/1999/xlink" x="0px" y="0px"
	 width="612px" height="792px" viewBox="0 0 612 792" enable-background="new 0 0 612 792" xml:space="preserve">
<path opacity="0.6" fill="#FFFFFF" enable-background="new    " d="M294.7,162.6c4.5,2.7,9,6.3,14.4,11.7
	c5.4,5.4,9.9,11.7,15.3,19.8c4.5,7.2,9,16.2,12.6,26.1c2.7,9.9,4.5,21.6,4.5,34.3c0,24.3-5.4,43.3-16.2,57.7
	c-5.4,7.2-10.8,13.5-16.2,19.8c-6.3,6.3-12.6,11.7-19.8,18c-3.6,4.5-8.1,9-10.8,14.4c-3.6,5.4-6.3,11.7-6.3,18.9
	c0,7.2,1.8,12.6,6.3,17.1c3.6,4.5,7.2,8.1,9.9,11.7l22.5,18.9c14.4,11.7,27,24.3,37.9,38.8c9.9,14.4,15.3,33.3,16.2,55.9
	c0,32.4-14.4,62.2-43.3,87.4c-29.7,26.1-73,39.7-129.8,40.6c-47.8,0-82.9-10.8-106.4-30.6c-23.4-18-35.2-40.6-35.2-65.8
	c0-12.6,3.6-26.1,11.7-41.5c7.2-15.3,20.7-28.8,40.6-40.6c21.6-12.6,45.1-20.7,69.4-25.2c24.3-3.6,44.2-5.4,59.5-6.3
	c-4.5-6.3-9-13.5-12.6-20.7c-4.5-7.2-6.3-15.3-6.3-25.2c0-6.3,0.9-10.8,2.7-15.3c1.8-4.5,2.7-8.1,4.5-11.7
	c-8.1,0.9-15.3,0.9-21.6,0.9c-36.1,0-63.1-11.7-82-34.3c-19.8-20.7-29.7-45.1-29.7-72.1c0-33.3,14.4-63.1,42.4-90.1
	c18.9-16.2,39.7-26.1,59.5-30.6c18-3.6,37-6.3,55-6.3h135.2l-41.5,24.3H294.7z M320.9,552.8c0-17.1-5.4-32.4-17.1-45.1
	c-11.7-11.7-30.6-27-55.9-44.2c-4.5,0-9-0.9-15.3-0.9c-3.6,0-12.6,0-26.1,0.9c-14.4,1.8-27.9,5.4-43.3,9.9
	c-3.6,0.9-8.1,3.6-14.4,6.3c-6.3,2.7-12.6,7.2-18.9,12.6c-6.3,5.4-11.7,12.6-16.2,20.7c-5.4,9-7.2,18.9-7.2,30.6
	c0,23.4,10.8,43.3,32.4,58.6c20.7,15.3,48.7,23.4,83.8,23.4c31.5-0.9,55.9-7.2,73-20.7C312.8,590.7,320.9,573.6,320.9,552.8z
	 M227.1,354.5c18-0.9,32.4-7.2,44.2-18.9c5.4-9,9-17.1,10.8-26.1c0.9-9,1.8-16.2,1.8-22.5c0-27-7.2-53.2-20.7-81.1
	c-6.3-12.6-14.4-23.4-25.2-31.5s-22.5-11.7-37-12.6c-18,0-33.3,8.1-46,22.5c-9.9,15.3-15.3,31.5-14.4,50.5
	c0,24.3,7.2,49.6,21.6,76.6c7.2,12.6,16.2,22.5,27,31.5C200.1,350,212.7,354.5,227.1,354.5z"/>
<polygon opacity="0.6" fill="#FFFFFF" enable-background="new    " points="561.5,212.1 491.2,212.1 491.2,141.8 456.1,141.8 
	456.1,212.1 385.8,212.1 385.8,247.3 456.1,247.3 456.1,317.6 491.2,317.6 491.2,247.3 561.5,247.3 "/>
</svg>
