<?xml version="1.0" standalone="no"?>
<!DOCTYPE svg PUBLIC "-//W3C//DTD SVG 1.1//EN" "http://www.w3.org/Graphics/SVG/1.1/DTD/svg11.dtd" >
<svg xmlns="http://www.w3.org/2000/svg">
<metadata></metadata>
<defs>
<font id="trade_gothic_lt_std_cnregular" horiz-adv-x="909" >
<font-face units-per-em="2048" ascent="1479" descent="-569" />
<missing-glyph horiz-adv-x="454" />
<glyph horiz-adv-x="2048" />
<glyph horiz-adv-x="2048" />
<glyph unicode="&#xd;" horiz-adv-x="2048" />
<glyph unicode=" "  horiz-adv-x="454" />
<glyph unicode="&#x09;" horiz-adv-x="454" />
<glyph unicode="&#xa0;" horiz-adv-x="454" />
<glyph unicode="!" horiz-adv-x="681" d="M254 0v193h172v-193h-172zM254 1479h172l-33 -1041h-106z" />
<glyph unicode="&#x22;" horiz-adv-x="681" d="M147 954v525h127v-525h-127zM408 954v525h127v-525h-127z" />
<glyph unicode="#" d="M37 465v115h184l37 319h-170v115h180l54 465h118l-51 -465h203l51 465h121l-53 -465h161v-115h-172l-36 -319h159v-115h-172l-51 -465h-121l51 465h-202l-52 -465h-120l53 465h-172zM340 580h205l35 319h-203z" />
<glyph unicode="$" d="M78 406h147q7 -237 168 -283v602q-56 37 -90.5 62t-80 66.5t-70.5 79.5t-43.5 90.5t-18.5 109.5q0 138 84 233.5t219 112.5v196h103v-196q147 -21 226.5 -127.5t84.5 -266.5h-148q-5 95 -45.5 171t-117.5 100v-522q37 -25 54 -36.5t51.5 -36.5t52.5 -41t46.5 -43.5 t43.5 -49.5t34.5 -53.5t29 -61.5t16.5 -67.5t7 -77.5q0 -157 -91.5 -255t-243.5 -112v-238h-103v238q-151 23 -233 132t-82 274zM238 1149q0 -74 40 -131t115 -113v451q-70 -15 -112.5 -72t-42.5 -135zM496 123q87 7 137.5 71.5t50.5 165.5q0 89 -48.5 157t-139.5 138v-532z " />
<glyph unicode="%" horiz-adv-x="1593" d="M94 1159q0 132 92.5 226t227.5 94t227 -94t92 -226t-92 -225.5t-227 -93.5t-227.5 93.5t-92.5 225.5zM217 1159q0 -79 57 -137.5t140 -58.5t139.5 58t56.5 138t-56.5 138.5t-139.5 58.5t-140 -58.5t-57 -138.5zM287 -20l848 1519h118l-847 -1519h-119zM786 319 q0 132 92.5 226t227.5 94t227 -94t92 -226t-92 -225.5t-227 -93.5t-227.5 93.5t-92.5 225.5zM909 319q0 -79 57 -137.5t140 -58.5t140 58.5t57 137.5q0 80 -57 138.5t-140 58.5t-140 -58.5t-57 -138.5z" />
<glyph unicode="&#x26;" horiz-adv-x="1138" d="M102 356q0 45 8 87t25 80.5t33 68t44 64.5t44.5 54t48 52.5t41.5 44.5q-37 78 -70.5 188t-33.5 191q0 152 72.5 232.5t185.5 80.5q120 0 197 -75.5t77 -182.5q0 -43 -8.5 -84t-18.5 -71.5t-34.5 -68t-39 -58.5t-51 -59t-51 -52t-57.5 -55q113 -230 264 -408 q47 123 66 332l143 -8q-10 -137 -31 -232t-71 -207q71 -83 180 -159l-86 -111q-41 19 -93 58t-91 81q-59 -72 -142 -115.5t-172 -43.5q-174 0 -276.5 101.5t-102.5 274.5zM250 369q0 -117 64.5 -185.5t183.5 -68.5q59 0 115 35.5t92 87.5q-166 195 -299 448 q-65 -66 -110.5 -151.5t-45.5 -165.5zM389 1198q0 -21 2 -42t4.5 -37.5t8 -38.5t9 -34t11.5 -35t11.5 -31.5t13.5 -33.5t12 -31q85 96 125.5 171.5t40.5 166.5q0 54 -33 95t-74 41q-63 0 -97 -44t-34 -147z" />
<glyph unicode="'" horiz-adv-x="454" d="M164 954v525h127v-525h-127z" />
<glyph unicode="(" horiz-adv-x="569" d="M135 637q0 247 61 450.5t193 411.5l98 -61q-217 -393 -217 -801t217 -801l-98 -61q-132 208 -193 411.5t-61 450.5z" />
<glyph unicode=")" horiz-adv-x="569" d="M82 -164q217 393 217 801t-217 801l98 61q132 -208 193 -411.5t61 -450.5t-61 -450.5t-193 -411.5z" />
<glyph unicode="*" d="M92 1163l41 135l295 -143l-41 324h135l-41 -324l295 143l41 -135l-315 -65l233 -230l-119 -90l-161 283l-162 -283l-119 90l234 230z" />
<glyph unicode="+" horiz-adv-x="1228" d="M82 465v135h465v465h135v-465h465v-135h-465v-465h-135v465h-465z" />
<glyph unicode="," horiz-adv-x="454" d="M129 -307l94 307h-82v193h172v-205l-123 -295h-61z" />
<glyph unicode="-" horiz-adv-x="681" d="M88 465v135h504v-135h-504z" />
<glyph unicode="." horiz-adv-x="454" d="M141 0v193h172v-193h-172z" />
<glyph unicode="/" horiz-adv-x="569" d="M-20 -20l475 1519h135l-475 -1519h-135z" />
<glyph unicode="0" d="M98 739q0 398 87 579t270 181t269.5 -181t86.5 -579t-86.5 -578.5t-269.5 -180.5t-270 181t-87 578zM246 739q0 -238 25 -380.5t69.5 -199.5t114.5 -57t114.5 57t69.5 199.5t25 380.5t-25 380.5t-69.5 199.5t-114.5 57t-114.5 -57t-69.5 -199.5t-25 -380.5z" />
<glyph unicode="1" d="M213 1294v90q134 32 233 115h99v-1376h172v-123h-500v123h180v1188z" />
<glyph unicode="2" d="M98 0v123q36 119 106 239.5t142 214t139.5 186t110.5 190t43 190.5q0 113 -49.5 173t-128.5 60q-92 0 -149 -76t-66 -235h-135q21 434 346 434q150 0 239.5 -98.5t89.5 -278.5q0 -76 -18.5 -143.5t-52.5 -126.5t-76.5 -115t-95 -121t-103.5 -133t-107 -162.5t-100 -197.5 h562v-123h-697z" />
<glyph unicode="3" d="M86 352h135q19 -250 213 -250q79 0 138 83t59 227q0 178 -77.5 245.5t-258.5 67.5v123q87 0 142.5 12t95 43.5t56.5 86t17 140.5q0 127 -45.5 186.5t-126.5 59.5q-60 0 -100.5 -32t-57 -77t-18.5 -100l-135 17q13 139 89 227t212 88q64 0 122 -22t105 -65t75 -113.5 t28 -159.5q0 -150 -54.5 -241t-138.5 -107v-5q79 -26 129.5 -85.5t69 -128.5t18.5 -154q0 -110 -30 -196t-81.5 -137.5t-114.5 -78t-134 -26.5q-146 0 -238 104.5t-94 267.5z" />
<glyph unicode="4" d="M49 336v70l406 1073h215v-1020h153v-123h-153v-336h-148v336h-473zM188 459h334v884h-4z" />
<glyph unicode="5" d="M115 332l135 12q5 -44 16.5 -83t32.5 -77t56.5 -60t82.5 -22q99 0 160 100.5t61 286.5q0 193 -55.5 278t-146.5 85q-62 0 -115 -41t-72 -102l-114 20l49 750h520l-12 -123h-389l-29 -451q83 70 197 70q136 0 225.5 -125t89.5 -356q0 -244 -103 -379t-258 -135 q-152 0 -236.5 99t-94.5 253z" />
<glyph unicode="6" d="M106 659q0 840 373 840q135 0 201 -73.5t90 -213.5l-135 -8q-7 52 -25 88.5t-42 53.5t-46 23.5t-47 6.5q-211 0 -217 -592q106 113 227 113q65 0 120 -24.5t100.5 -76t71.5 -142.5t26 -212q0 -215 -85.5 -338.5t-232.5 -123.5q-100 0 -168 31.5t-117 108t-71.5 209 t-22.5 330.5zM254 508q0 -216 53 -311t156 -95q92 0 142 79.5t50 262.5q0 330 -184 330q-123 0 -217 -127v-139z" />
<glyph unicode="7" d="M123 1356v123h663v-78l-430 -1401h-155l430 1356h-508z" />
<glyph unicode="8" d="M90 373q0 244 238 413q-105 83 -155 170t-50 211q0 144 96 238t236 94t235.5 -94t95.5 -238q0 -124 -49.5 -211t-154.5 -170q237 -168 237 -413q0 -166 -99 -279.5t-265 -113.5t-265.5 113.5t-99.5 279.5zM238 367q0 -103 56 -184t161 -81t161 81t56 184q0 76 -31.5 141 t-74 107.5t-111.5 93.5q-69 -51 -111.5 -93.5t-74 -107.5t-31.5 -141zM270 1184q0 -109 49 -192t136 -136q184 113 184 328q0 78 -47.5 135t-136.5 57t-137 -57t-48 -135z" />
<glyph unicode="9" d="M106 1036q0 215 85.5 339t232.5 124q100 0 168 -31.5t117 -108.5t71.5 -209.5t22.5 -330.5q0 -839 -373 -839q-135 0 -201 73t-90 213l135 8q7 -52 25 -88.5t42 -53.5t46 -23.5t47 -6.5q211 0 217 592q-105 -112 -227 -112q-65 0 -120 24.5t-100.5 76t-71.5 142 t-26 211.5zM254 1034q0 -329 184 -329q123 0 217 126v140q0 216 -53 310.5t-156 94.5q-92 0 -142 -79.5t-50 -262.5z" />
<glyph unicode=":" horiz-adv-x="454" d="M141 0v193h172v-193h-172zM141 557v193h172v-193h-172z" />
<glyph unicode=";" horiz-adv-x="454" d="M129 -307l94 307h-82v193h172v-205l-123 -295h-61zM141 557v193h172v-193h-172z" />
<glyph unicode="&#x3c;" horiz-adv-x="1228" d="M82 481v103l1065 475v-141l-864 -386l864 -385v-141z" />
<glyph unicode="=" horiz-adv-x="1228" d="M82 246v135h1065v-135h-1065zM82 684v135h1065v-135h-1065z" />
<glyph unicode="&#x3e;" horiz-adv-x="1228" d="M82 6v141l864 385l-864 386v141l1065 -475v-103z" />
<glyph unicode="?" horiz-adv-x="796" d="M131 1225q11 120 83.5 197t191.5 77q110 0 185 -71.5t75 -202.5q0 -70 -15.5 -131.5t-40.5 -107t-55.5 -88.5t-60.5 -84t-55 -83t-40.5 -96.5t-15.5 -114.5v-82h-115v103q0 88 26 164t62.5 132.5t73 111.5t62.5 125.5t26 150.5q0 74 -35.5 112.5t-83.5 38.5 q-62 0 -100 -53.5t-45 -122.5zM227 0v193h172v-193h-172z" />
<glyph unicode="@" horiz-adv-x="1638" d="M94 743q0 155 60.5 295t162 241t242 160.5t293.5 59.5q140 0 267 -47t220.5 -129t149 -199.5t55.5 -251.5q0 -101 -31 -195t-81.5 -164t-113 -123t-128 -80t-123.5 -27q-55 0 -91 35t-42 100l-4 -2q-50 -56 -116 -94.5t-134 -38.5q-128 0 -210.5 93t-82.5 226 q0 105 35 207.5t95.5 184t152 132t196.5 50.5q162 0 230 -160l45 127h129l-176 -578q-21 -68 -21 -110q0 -52 45 -52q71 0 142 69t116 176.5t45 213.5q0 118 -46.5 217.5t-125 165.5t-181 102.5t-214.5 36.5q-131 0 -248 -51.5t-199 -138.5t-130 -204.5t-48 -246.5 q0 -136 50 -257t135 -207t202.5 -135.5t247.5 -49.5q146 0 283 65.5t221 178.5h129q-98 -166 -269.5 -262t-367.5 -96q-159 0 -301.5 59.5t-244 161.5t-161 243.5t-59.5 298.5zM543 616q0 -88 48 -143t124 -55q84 0 159.5 74.5t116.5 174.5t41 185q0 74 -51 133t-115 59 q-90 0 -166.5 -71t-116.5 -168.5t-40 -188.5z" />
<glyph unicode="A" d="M18 0l326 1479h221l326 -1479h-160l-88 438h-377l-88 -438h-160zM289 573h332l-164 795h-4z" />
<glyph unicode="B" horiz-adv-x="1024" d="M135 0v1479h393q163 0 256 -100t93 -265q0 -118 -56 -206t-170 -122v-4q130 -34 194 -131.5t64 -240.5q0 -207 -116.5 -308.5t-358.5 -101.5h-299zM295 135h160q295 0 295 275q0 150 -70.5 224.5t-224.5 74.5h-160v-574zM295 844h90q175 0 253.5 61t78.5 209 q0 125 -60 177t-202 52h-160v-499z" />
<glyph unicode="C" horiz-adv-x="1024" d="M94 739q0 206 29.5 354t86 236t133.5 129t179 41q166 0 263 -117t116 -350h-160q-15 172 -69.5 252t-149.5 80q-142 0 -205 -142t-63 -483q0 -230 29 -367t86.5 -197t152.5 -60q117 0 177 89t63 288h160q-3 -246 -107 -379t-293 -133q-102 0 -179 40.5t-133.5 128.5 t-86 236t-29.5 354z" />
<glyph unicode="D" horiz-adv-x="1024" d="M135 0v1479h275q121 0 210 -36.5t155.5 -120t100 -229t33.5 -354.5q0 -168 -22.5 -294.5t-63.5 -210.5t-103.5 -137t-137.5 -75t-172 -22h-275zM295 135h86q75 0 128.5 14t101.5 53t77 106t45.5 174t16.5 257t-16.5 257t-45.5 174t-77 106t-101.5 53t-128.5 14h-86v-1208 z" />
<glyph unicode="E" d="M135 0v1479h676v-136h-516v-503h381v-135h-381v-570h541v-135h-701z" />
<glyph unicode="F" horiz-adv-x="796" d="M135 0v1479h635v-136h-475v-503h356v-135h-356v-705h-160z" />
<glyph unicode="G" horiz-adv-x="1024" d="M94 739q0 165 19.5 293.5t55 216t88.5 144t117 81.5t144 25q79 0 143 -27t106.5 -71.5t73 -107t46.5 -128.5t22 -141h-159q-21 340 -232 340q-91 0 -148 -59t-86.5 -197.5t-29.5 -368.5t29.5 -368.5t86.5 -197t148 -58.5q113 0 172.5 59.5t59.5 173.5v209h-201v135h360 v-692h-102l-21 111q-97 -131 -268 -131q-100 0 -176 40.5t-133 128.5t-86 236t-29 354z" />
<glyph unicode="H" horiz-adv-x="1024" d="M135 0v1479h160v-639h434v639h160v-1479h-160v705h-434v-705h-160z" />
<glyph unicode="I" horiz-adv-x="454" d="M147 0v1479h160v-1479h-160z" />
<glyph unicode="J" horiz-adv-x="569" d="M-12 -8l12 139q46 -16 92 -16q98 0 140 48.5t42 168.5v1147h160v-1110q0 -152 -37.5 -236.5t-114.5 -118.5t-212 -34q-20 0 -82 12z" />
<glyph unicode="K" d="M115 0v1479h159v-754h5l413 754h172l-286 -516l340 -963h-173l-274 799h-4l-193 -344v-455h-159z" />
<glyph unicode="L" horiz-adv-x="796" d="M135 0v1479h160v-1344h479v-135h-639z" />
<glyph unicode="M" horiz-adv-x="1251" d="M115 0v1479h254l258 -1119h4l252 1119h254v-1479h-148v1356h-4l-307 -1356h-105l-307 1356h-4v-1356h-147z" />
<glyph unicode="N" horiz-adv-x="1024" d="M115 0v1479h250l380 -1090h5v1090h159v-1479h-172l-458 1286h-5v-1286h-159z" />
<glyph unicode="O" horiz-adv-x="1024" d="M94 739q0 760 418 760t418 -760q0 -759 -418 -759t-418 759zM254 739q0 -147 13.5 -257.5t36 -179.5t56 -111.5t70.5 -59t82 -16.5t82 16.5t70.5 59t56 111.5t36 179.5t13.5 257.5t-13.5 257.5t-36 179.5t-56 112t-70.5 59.5t-82 16.5t-82 -16.5t-70.5 -59.5t-56 -112 t-36 -179.5t-13.5 -257.5z" />
<glyph unicode="P" d="M115 0v1479h348q179 0 286 -111t107 -295t-107 -294.5t-286 -110.5h-189v-668h-159zM274 803h168q122 0 188 67.5t66 202.5t-66 202.5t-188 67.5h-168v-540z" />
<glyph unicode="Q" horiz-adv-x="1024" d="M94 739q0 760 418 760t418 -760q0 -397 -115 -585q35 -56 71.5 -90.5t84.5 -38.5v-140q-82 4 -139 47.5t-103 120.5q-87 -73 -217 -73q-418 0 -418 759zM254 739q0 -147 13.5 -257.5t36 -179.5t56 -111.5t70.5 -59t82 -16.5q89 0 143 65q-49 67 -110 107v131 q94 -26 172 -121q53 142 53 442q0 147 -13.5 257.5t-36 179.5t-56 112t-70.5 59.5t-82 16.5t-82 -16.5t-70.5 -59.5t-56 -112t-36 -179.5t-13.5 -257.5z" />
<glyph unicode="R" horiz-adv-x="1024" d="M135 0v1479h357q182 0 293.5 -101.5t111.5 -281.5q0 -130 -59.5 -226t-178.5 -137l250 -733h-168l-237 700l-209 -8v-692h-160zM295 831h139q166 0 234.5 63t68.5 193t-68.5 193t-234.5 63h-139v-512z" />
<glyph unicode="S" d="M74 397h147q3 -133 65.5 -207.5t178.5 -74.5q101 0 160 63t59 180q0 68 -33 127t-85 104.5t-115.5 89.5t-127 91.5t-115.5 100t-85 125.5t-33 159q0 156 98 250t258 94q162 0 259 -105t106 -296h-147q-21 266 -228 266q-91 0 -147 -54.5t-56 -140.5q0 -67 33 -124.5 t85 -100.5t115.5 -85t127 -89.5t115.5 -102.5t85 -135t33 -176q0 -178 -98 -277t-280 -99q-171 0 -271.5 114.5t-103.5 302.5z" />
<glyph unicode="T" horiz-adv-x="796" d="M14 1343v136h766v-136h-303v-1343h-160v1343h-303z" />
<glyph unicode="U" horiz-adv-x="1024" d="M135 389v1090h160v-1086q0 -60 10 -107t33 -87.5t67 -62t107 -21.5t107 21.5t67 62t33 87.5t10 107v1086h160v-1090q0 -188 -93 -298.5t-284 -110.5t-284 110.5t-93 298.5z" />
<glyph unicode="V" d="M33 1479h160l260 -1172h4l260 1172h160l-349 -1479h-147z" />
<glyph unicode="W" horiz-adv-x="1251" d="M12 1479h148l176 -1155h4l221 1155h131l230 -1155h4l164 1155h147l-238 -1479h-135l-233 1161h-4l-234 -1161h-135z" />
<glyph unicode="X" d="M29 0l319 786l-307 693h172l225 -525l209 525h172l-291 -693l353 -786h-172l-271 618l-237 -618h-172z" />
<glyph unicode="Y" d="M33 1479h172l254 -648l246 648h172l-340 -852v-627h-160v627z" />
<glyph unicode="Z" d="M90 0v115l533 1228h-484v136h680v-111l-549 -1233h549v-135h-729z" />
<glyph unicode="[" horiz-adv-x="569" d="M123 -205v1684h377v-82h-242v-1520h242v-82h-377z" />
<glyph unicode="\" horiz-adv-x="569" d="M-20 1499h135l475 -1519h-135z" />
<glyph unicode="]" horiz-adv-x="569" d="M70 -123h241v1520h-241v82h376v-1684h-376v82z" />
<glyph unicode="^" horiz-adv-x="1228" d="M127 604l430 875h115l430 -875h-148l-340 701l-340 -701h-147z" />
<glyph unicode="_" horiz-adv-x="1024" d="M0 -154h1024v-102h-1024v102z" />
<glyph unicode="`" horiz-adv-x="454" d="M-16 1466h159l201 -282h-102z" />
<glyph unicode="a" d="M98 254q0 75 32 141.5t82.5 114t119 86t134 62t134.5 38.5v76q0 88 -41.5 139.5t-112.5 51.5q-53 0 -94 -33.5t-61 -78t-29 -97.5l-135 20q24 137 103 224t212 87q146 0 226 -80.5t80 -222.5v-594q0 -147 26 -188h-153l-19 90q-44 -44 -110.5 -77t-116.5 -33 q-125 0 -201 74.5t-76 199.5zM246 266q0 -164 151 -164q96 0 203 111v360q-46 -14 -89.5 -31.5t-93 -46t-86 -60.5t-61 -76.5t-24.5 -92.5z" />
<glyph unicode="b" d="M135 0q25 95 25 287v1192h147v-492q98 98 197 98q66 0 119.5 -29.5t96.5 -92.5t67 -172.5t24 -258.5t-24 -258.5t-67 -172t-96.5 -92t-119.5 -29.5q-136 0 -221 122l-33 -102h-115zM307 205q33 -45 77.5 -74t78.5 -29q65 0 107.5 38t68 135.5t25.5 256.5q0 236 -49 333.5 t-148 97.5q-31 0 -63 -17t-49.5 -32.5t-47.5 -45.5v-663z" />
<glyph unicode="c" horiz-adv-x="796" d="M72 532q0 288 78.5 420.5t246.5 132.5q140 0 214.5 -85.5t97.5 -249.5h-144q-10 114 -53 163.5t-115 49.5q-66 0 -102.5 -34t-56 -128.5t-19.5 -268.5t19.5 -268.5t56 -128t102.5 -33.5q74 0 114 50.5t58 183.5h144q-20 -165 -98.5 -260.5t-217.5 -95.5 q-168 0 -246.5 132t-78.5 420z" />
<glyph unicode="d" d="M98 532q0 149 24 258.5t67.5 172.5t97 92.5t119.5 29.5q98 0 196 -98v492h148v-1192q0 -195 24 -287h-139l-6 102h-4q-82 -122 -219 -122q-66 0 -119.5 29.5t-97 92t-67.5 172t-24 258.5zM246 532q0 -121 13.5 -205.5t40.5 -133t62.5 -70t83.5 -21.5q34 0 78.5 29 t77.5 74v663q-30 30 -47.5 45.5t-49.5 32.5t-63 17q-99 0 -147.5 -97.5t-48.5 -333.5z" />
<glyph unicode="e" horiz-adv-x="796" d="M72 532q0 288 78.5 420.5t246.5 132.5q164 0 245 -134.5t81 -372.5v-70h-504v-59q0 -192 46.5 -269.5t152.5 -77.5q77 0 119.5 57.5t58.5 143.5l139 -16q-18 -128 -108.5 -217.5t-229.5 -89.5q-168 0 -246.5 132t-78.5 420zM219 631h356q-3 177 -42 254.5t-136 77.5 q-85 0 -131 -75.5t-47 -256.5z" />
<glyph unicode="f" horiz-adv-x="569" d="M37 942v123h164v217q0 111 50 164t167 53q44 0 114 -12v-115q-38 17 -79 17q-52 0 -78.5 -30t-26.5 -83v-211h172v-123h-172v-942h-147v942h-164z" />
<glyph unicode="g" d="M98 -119q0 70 41.5 126t114.5 87q-50 16 -82.5 54t-32.5 90q0 56 41.5 93.5t98.5 47.5q-60 42 -93.5 129t-33.5 176q0 188 84 294.5t225 106.5q58 0 113.5 -25t80.5 -73q57 98 181 98v-135q-16 4 -43 4q-49 0 -93 -41q33 -109 33 -204q0 -191 -78.5 -286t-208.5 -95 q-16 0 -49 4t-49 4q-26 -6 -50 -24.5t-24 -45.5q0 -22 12 -37t41.5 -25.5t53 -16t74 -14.5t77.5 -15q67 -14 112 -30t89.5 -44.5t67 -73.5t22.5 -108q0 -107 -98 -178.5t-262 -71.5q-178 0 -271.5 61t-93.5 168zM233 -88q0 -69 59 -109.5t175 -40.5q221 0 221 152 q0 24 -15 43t-36 31t-57.5 23.5t-64 17t-72 14.5t-66.5 14q-144 -62 -144 -145zM287 707q0 -269 155 -269q156 0 156 269q0 268 -156 268q-155 0 -155 -268z" />
<glyph unicode="h" d="M147 0v1479h148v-531q47 56 114.5 96.5t118.5 40.5q234 0 234 -278v-807h-148v786q0 92 -28 134.5t-88 42.5q-97 0 -203 -132v-831h-148z" />
<glyph unicode="i" horiz-adv-x="454" d="M154 0v1065h147v-1065h-147zM154 1307v172h147v-172h-147z" />
<glyph unicode="j" horiz-adv-x="454" d="M8 -217q36 -8 49 -8q103 0 103 131v1159h147v-1171q0 -130 -52.5 -186t-164.5 -56q-24 0 -82 8v123zM160 1307v172h147v-172h-147z" />
<glyph unicode="k" horiz-adv-x="796" d="M135 0v1479h148v-934h4l282 520h152l-197 -340l246 -725h-152l-192 578h-4l-139 -263v-315h-148z" />
<glyph unicode="l" horiz-adv-x="454" d="M154 0v1479h147v-1479h-147z" />
<glyph unicode="m" horiz-adv-x="1366" d="M164 0v1065h135v-117q49 58 113 97.5t135 39.5q63 0 116.5 -37.5t73.5 -97.5q121 135 248 135q103 0 159 -65t56 -180v-840h-147v819q0 81 -25.5 112.5t-85.5 31.5q-16 0 -32 -3.5t-28 -7t-27 -12.5t-22.5 -14t-22 -18.5t-19 -18t-19 -20t-16.5 -17.5v-852h-148v819 q0 81 -27.5 112.5t-88.5 31.5q-42 0 -80 -20.5t-55.5 -38.5t-45.5 -52v-852h-147z" />
<glyph unicode="n" d="M147 0v1065h140v-117q56 57 123.5 97t117.5 40q234 0 234 -278v-807h-148v786q0 92 -28 134.5t-88 42.5q-97 0 -203 -132v-831h-148z" />
<glyph unicode="o" horiz-adv-x="796" d="M72 532q0 288 78.5 420.5t246.5 132.5t247 -133t79 -420t-79 -419.5t-247 -132.5t-246.5 132t-78.5 420zM219 532q0 -174 19.5 -268.5t56 -128t102.5 -33.5t102.5 33.5t56 128t19.5 268.5t-19.5 268.5t-56 128.5t-102.5 34t-102.5 -34t-56 -128.5t-19.5 -268.5z" />
<glyph unicode="p" d="M160 -348v1413h123v-102h4q79 122 217 122q66 0 119.5 -29.5t96.5 -92.5t67 -172.5t24 -258.5t-24 -258.5t-67 -172t-96.5 -92t-119.5 -29.5q-99 0 -197 98v-426h-147zM307 197q30 -30 47.5 -45.5t49.5 -32.5t63 -17q65 0 107 38t66 135t24 257q0 120 -14 205t-41 134 t-62.5 70.5t-83.5 21.5q-34 0 -78.5 -29t-77.5 -74v-663z" />
<glyph unicode="q" d="M98 532q0 149 24 258.5t67.5 172.5t97 92.5t119.5 29.5q138 0 217 -122h4v102h123v-1413h-148v426q-98 -98 -196 -98q-66 0 -119.5 29.5t-97 92t-67.5 172t-24 258.5zM246 532q0 -236 48.5 -333t147.5 -97q31 0 63 17t49.5 32.5t47.5 45.5v663q-33 45 -77.5 74t-78.5 29 q-65 0 -107.5 -38.5t-67.5 -136t-25 -256.5z" />
<glyph unicode="r" horiz-adv-x="569" d="M135 0v1065h148v-129h4q63 92 119.5 120.5t150.5 28.5v-139q-90 0 -153.5 -40t-120.5 -148v-758h-148z" />
<glyph unicode="s" horiz-adv-x="796" d="M78 262l135 29q62 -189 195 -189q61 0 107 48.5t46 113.5q0 50 -25 92t-64.5 73t-87.5 61t-96 62t-87.5 69t-64.5 90t-25 116q0 106 78.5 182t197.5 76q121 0 195.5 -66t101.5 -188l-123 -36q-24 82 -63.5 125t-120.5 43q-52 0 -85.5 -36.5t-33.5 -90.5q0 -44 25 -81.5 t64.5 -67t88 -59t96.5 -63t87.5 -72.5t64.5 -95.5t25 -123.5q0 -126 -82.5 -210t-208.5 -84q-139 0 -219.5 71t-120.5 211z" />
<glyph unicode="t" horiz-adv-x="569" d="M16 942v123h144v356h147v-356h197v-123h-197v-745q0 -48 27 -77.5t80 -29.5q24 0 90 21v-111q-68 -20 -139 -20q-106 0 -155.5 54t-49.5 175v733h-144z" />
<glyph unicode="u" d="M147 258v807h148v-786q0 -92 28.5 -134.5t88.5 -42.5q97 0 202 131v832h148v-1065h-139v117q-55 -57 -123.5 -97t-118.5 -40q-234 0 -234 278z" />
<glyph unicode="v" horiz-adv-x="796" d="M37 1065h147l213 -918h4l209 918h148l-262 -1065h-197z" />
<glyph unicode="w" horiz-adv-x="1138" d="M37 1065h139l152 -782h4l172 782h139l176 -782h4l140 782h139l-221 -1065h-123l-185 827h-4l-184 -827h-123z" />
<glyph unicode="x" horiz-adv-x="681" d="M2 0l246 553l-246 512h152l176 -373l155 373h152l-229 -512l270 -553h-152l-192 418l-180 -418h-152z" />
<glyph unicode="y" horiz-adv-x="681" d="M4 1065h152l200 -815h4l164 815h152l-244 -1042q-43 -181 -125 -276t-211 -95h-76v123h46q87 0 143 60t78 173z" />
<glyph unicode="z" horiz-adv-x="681" d="M47 0v111l410 831h-377v123h553v-98l-422 -844h422v-123h-586z" />
<glyph unicode="{" horiz-adv-x="569" d="M33 596v82q64 0 91.5 38t27.5 134v453q0 96 51.5 146t140.5 50h131v-82h-106q-82 0 -82 -106v-482q0 -88 -46 -134.5t-110 -55.5v-4q64 -9 110 -56t46 -135v-481q0 -106 82 -106h106v-82h-131q-89 0 -140.5 50t-51.5 146v453q0 96 -27.5 134t-91.5 38z" />
<glyph unicode="|" horiz-adv-x="454" d="M160 -20v1519h135v-1519h-135z" />
<glyph unicode="}" horiz-adv-x="569" d="M94 -143h107q82 0 82 106v481q0 88 45.5 135t109.5 56v4q-64 9 -109.5 55.5t-45.5 134.5v482q0 106 -82 106h-107v82h131q89 0 141 -50t52 -146v-453q0 -96 27.5 -134t91.5 -38v-82q-64 0 -91.5 -38t-27.5 -134v-453q0 -96 -52 -146t-141 -50h-131v82z" />
<glyph unicode="~" horiz-adv-x="1228" d="M123 489q47 81 109.5 131t158.5 50q85 0 236 -68q8 -3 45 -19t50 -21.5t40 -15t45.5 -13t34.5 -3.5q30 0 56.5 11.5t50.5 36t40 45.5t39 55l78 -103q-47 -81 -109.5 -130.5t-158.5 -49.5q-85 0 -236 68q-8 3 -45 19t-50 21.5t-40 15t-45.5 13t-34.5 3.5 q-30 0 -56.5 -11.5t-50.5 -36t-40 -45.5t-39 -55z" />
<glyph unicode="&#xa1;" horiz-adv-x="681" d="M256 -414l33 1041h106l33 -1041h-172zM256 872v193h172v-193h-172z" />
<glyph unicode="&#xa2;" d="M125 553q0 287 79 420t247 133q37 0 71 -6l51 231h99l-60 -266q122 -80 150 -295h-144q-9 96 -40 143l-177 -784q21 -6 50 -6q74 0 114 50t58 183h143q-20 -165 -98 -260.5t-217 -95.5q-47 0 -76 10l-56 -243h-98l64 278q-82 55 -121 179.5t-39 328.5zM272 553 q0 -270 47 -354l177 778q-18 6 -45 6q-66 0 -103 -33.5t-56.5 -128t-19.5 -268.5z" />
<glyph unicode="&#xa3;" d="M66 -20v139q94 43 135 142t41 218q0 35 -2.5 67t-7.5 69.5t-7 60.5h-159v123h135q-4 20 -18 76t-20.5 86.5t-13 78.5t-6.5 88q0 184 84.5 277.5t212.5 93.5q77 0 136 -24t96.5 -63t62.5 -96t36 -115t15 -128h-135q-17 145 -61 224t-135 79q-81 0 -122.5 -51t-41.5 -174 q0 -55 9 -113t25.5 -132t22.5 -107h217v-123h-192q1 -16 8.5 -77t7.5 -95q0 -152 -49 -266q103 -119 201 -119q70 0 110.5 59.5t40.5 210.5h135q0 -157 -30.5 -246.5t-90.5 -126t-163 -36.5q-70 0 -142 45t-116 110q-98 -137 -219 -155z" />
<glyph unicode="&#xa4;" d="M12 379l94 100q-42 41 -66 114t-24 146t24 146t66 114l-94 101l86 86l95 -96q98 92 262 92t262 -92l94 96l86 -86l-94 -101q41 -41 65.5 -114t24.5 -146t-24.5 -146t-65.5 -114l94 -100l-86 -86l-94 96q-98 -92 -262 -92t-262 92l-95 -96zM160 739q0 -136 82 -223.5 t213 -87.5t213 87.5t82 223.5t-82 224t-213 88t-213 -88t-82 -224z" />
<glyph unicode="&#xa5;" d="M39 1479h147l273 -680l264 680h147l-221 -557h209v-123h-258l-70 -172v-17h328v-123h-328v-487h-147v487h-328v123h328v17l-70 172h-258v123h209z" />
<glyph unicode="&#xa6;" horiz-adv-x="454" d="M160 -20v581h135v-581h-135zM160 918v581h135v-581h-135z" />
<glyph unicode="&#xa7;" horiz-adv-x="1024" d="M131 821q0 90 71.5 146.5t166.5 56.5q-123 120 -123 258q0 91 67.5 154t182.5 63q165 0 307 -164l-98 -78q-36 52 -89 92t-104 40q-131 0 -131 -121q0 -37 28 -82t73.5 -91t100 -96.5t109 -104t100 -107t73.5 -113.5t28 -115q0 -101 -64 -162t-165 -61q122 -144 122 -260 q0 -106 -74.5 -177t-181.5 -71q-199 0 -329 172l98 78q35 -61 96.5 -100t130.5 -39q52 0 88.5 39.5t36.5 91.5q0 43 -28.5 92.5t-74.5 98t-101.5 100.5t-111 107.5t-101.5 110.5t-74.5 118.5t-28.5 123.5zM266 811q0 -45 69.5 -139t163 -172t150.5 -78q44 0 76.5 37.5 t32.5 83.5q0 54 -69.5 150t-160 170.5t-143.5 74.5q-57 0 -88 -34.5t-31 -92.5z" />
<glyph unicode="&#xa8;" horiz-adv-x="454" d="M25 1204v209h135v-209h-135zM295 1204v209h135v-209h-135z" />
<glyph unicode="&#xa9;" horiz-adv-x="1638" d="M53 741q0 210 104.5 385t280.5 274t383 99q206 0 381 -99t279 -274t104 -385q0 -159 -61 -301.5t-164.5 -242.5t-244 -158.5t-294.5 -58.5q-155 0 -296 58.5t-245 158.5t-165.5 242.5t-61.5 301.5zM201 741q0 -135 47.5 -253.5t130 -203t197.5 -133.5t245 -49 q129 0 243 49t196 133.5t130 203t48 253.5q0 176 -81 322t-223 229.5t-313 83.5q-173 0 -315.5 -83.5t-223.5 -229t-81 -322.5zM393 741q0 207 121 338t326 131q149 0 254.5 -82.5t128.5 -230.5h-129q-18 84 -85.5 137t-166.5 53q-143 0 -222 -96.5t-79 -245.5 q0 -147 83.5 -250.5t221.5 -103.5q99 0 166.5 57t81.5 146h131q-32 -148 -135.5 -237t-243.5 -89q-202 0 -327.5 135t-125.5 338z" />
<glyph unicode="&#xaa;" horiz-adv-x="544" d="M41 1008q0 56 30.5 103.5t80 79t99 51.5t101.5 32v37q0 50 -20.5 74t-65.5 24q-91 0 -110 -109l-95 13q13 81 64.5 133.5t138.5 52.5q96 0 147.5 -48t51.5 -134v-356q0 -91 16 -113h-106l-13 37q-20 -23 -61.5 -36t-77.5 -13q-83 0 -131.5 45.5t-48.5 126.5zM152 1008 q0 -44 19 -63t65 -19q36 0 68 19t48 46v185q-45 -15 -86 -35.5t-77.5 -57t-36.5 -75.5z" />
<glyph unicode="&#xab;" horiz-adv-x="1024" d="M168 532l254 316h139l-262 -316l262 -315h-139zM463 532l254 316h139l-262 -316l262 -315h-139z" />
<glyph unicode="&#xac;" horiz-adv-x="1228" d="M82 684v135h1065v-573h-135v438h-930z" />
<glyph unicode="&#xad;" horiz-adv-x="681" d="M88 465v135h504v-135h-504z" />
<glyph unicode="&#xae;" horiz-adv-x="1638" d="M53 741q0 210 104.5 385t280.5 274t383 99q206 0 381 -99t279 -274t104 -385q0 -159 -61 -301.5t-164.5 -242.5t-244 -158.5t-294.5 -58.5q-155 0 -296 58.5t-245 158.5t-165.5 242.5t-61.5 301.5zM201 741q0 -135 47.5 -253.5t130 -203t197.5 -133.5t245 -49 q129 0 243 49t196 133.5t130 203t48 253.5q0 176 -81 322t-223 229.5t-313 83.5q-173 0 -315.5 -83.5t-223.5 -229t-81 -322.5zM530 291v889h338q308 0 308 -252q0 -112 -61 -171.5t-154 -72.5l239 -393h-162l-235 389h-137v-389h-136zM666 795h147q129 0 178 27t49 112 q0 69 -45 100t-149 31h-180v-270z" />
<glyph unicode="&#xaf;" horiz-adv-x="454" d="M-45 1257v99h545v-99h-545z" />
<glyph unicode="&#xb0;" horiz-adv-x="819" d="M106 1196q0 125 89 214t215 89t214.5 -89t88.5 -214t-88.5 -214t-214.5 -89t-215 89t-89 214zM213 1196q0 -86 56.5 -147.5t140.5 -61.5t140 61.5t56 147.5t-56 147.5t-140 61.5t-140.5 -61.5t-56.5 -147.5z" />
<glyph unicode="&#xb1;" horiz-adv-x="1228" d="M82 0v135h1065v-135h-1065zM82 582v135h465v348h135v-348h465v-135h-465v-349h-135v349h-465z" />
<glyph unicode="&#xb2;" horiz-adv-x="544" d="M45 598v102q24 66 67.5 135.5t86.5 123.5t83.5 107.5t65.5 107.5t25 104q0 54 -23.5 84.5t-66.5 30.5q-55 0 -86.5 -34t-40.5 -120h-103q16 260 228 260q97 0 156 -57.5t59 -161.5q0 -63 -25 -125t-65 -116.5t-83 -105t-87 -112t-68 -116.5h332v-107h-455z" />
<glyph unicode="&#xb3;" horiz-adv-x="544" d="M37 811h110q3 -56 28.5 -87.5t86.5 -31.5q49 0 78 39.5t29 116.5q0 91 -47.5 128.5t-149.5 39.5v106q97 -2 138.5 30.5t41.5 125.5q0 115 -90 115q-49 0 -68.5 -21.5t-21.5 -68.5h-111q0 89 49.5 142.5t145.5 53.5q87 0 149 -55.5t62 -159.5q0 -176 -123 -207v-4 q139 -45 139 -223q0 -132 -61 -198t-162 -66q-105 0 -164 61.5t-59 163.5z" />
<glyph unicode="&#xb4;" horiz-adv-x="454" d="M111 1184l200 282h160l-258 -282h-102z" />
<glyph unicode="&#xb5;" d="M147 -348v1413h148v-786q0 -92 28.5 -134.5t88.5 -42.5q97 0 202 131v832h148v-1065h-139v117q-55 -57 -123.5 -97t-118.5 -40q-49 0 -86 12v-340h-148z" />
<glyph unicode="&#xb6;" horiz-adv-x="1024" d="M23 1081q0 102 36 181t97.5 125t136.5 69t160 23h575v-111h-143v-1540h-135v1540h-175v-1540h-135v868q-186 0 -301.5 108.5t-115.5 276.5z" />
<glyph unicode="&#xb7;" horiz-adv-x="454" d="M127 532q0 41 29.5 71t70.5 30t71 -30t30 -71t-30 -70.5t-71 -29.5t-70.5 29.5t-29.5 70.5z" />
<glyph unicode="&#xb8;" horiz-adv-x="454" d="M16 -410l29 91q80 -29 133 -29q61 0 99 23.5t38 60.5t-29 62.5t-81 25.5q-29 0 -86 -21l-29 29l123 168h78l-94 -119l4 -4q21 12 63 12q69 0 115.5 -38.5t46.5 -108.5q0 -82 -64.5 -133t-156.5 -51q-119 0 -189 32z" />
<glyph unicode="&#xb9;" horiz-adv-x="544" d="M106 1360v74q75 16 138 65h88v-803h106v-98h-327v98h94v672z" />
<glyph unicode="&#xba;" horiz-adv-x="477" d="M27 1167q0 173 50 252.5t159 79.5t161 -80t52 -252t-52 -251.5t-161 -79.5t-159 79t-50 252zM141 1167q0 -139 20.5 -188t74.5 -49q37 0 57.5 19.5t30.5 71t10 146.5q0 140 -21.5 189t-76.5 49q-54 0 -74.5 -49t-20.5 -189z" />
<glyph unicode="&#xbb;" horiz-adv-x="1024" d="M168 217l262 315l-262 316h139l254 -316l-254 -315h-139zM463 217l262 315l-262 316h139l254 -316l-254 -315h-139z" />
<glyph unicode="&#xbc;" horiz-adv-x="1363" d="M139 1360v74q74 16 137 65h89v-803h106v-98h-328v98h95v672zM186 -20l899 1519h127l-899 -1519h-127zM784 197v92l246 598h154v-584h102v-106h-102v-197h-115v197h-285zM899 303h170v424h-4z" />
<glyph unicode="&#xbd;" horiz-adv-x="1363" d="M139 1360v74q74 16 137 65h89v-803h106v-98h-328v98h95v672zM178 -20l899 1519h127l-899 -1519h-127zM856 0v102q24 66 67.5 135.5t86.5 123.5t83.5 107.5t65.5 107.5t25 104q0 54 -23.5 84.5t-66.5 30.5q-55 0 -86.5 -34t-40.5 -120h-103q16 260 228 260q97 0 156 -57.5 t59 -161.5q0 -63 -25 -125t-65 -116.5t-83 -105.5t-87 -112.5t-68 -116.5h332v-106h-455z" />
<glyph unicode="&#xbe;" horiz-adv-x="1363" d="M78 811h110q3 -56 28.5 -87.5t86.5 -31.5q49 0 78 39.5t29 116.5q0 91 -47.5 128.5t-149.5 39.5v106q97 -2 138.5 30.5t41.5 125.5q0 115 -90 115q-49 0 -68.5 -21.5t-21.5 -68.5h-111q0 89 49.5 142.5t145.5 53.5q87 0 149 -55.5t62 -159.5q0 -176 -123 -207v-4 q139 -45 139 -223q0 -132 -61 -198t-162 -66q-105 0 -164 61.5t-59 163.5zM178 -20l899 1519h127l-899 -1519h-127zM784 197v92l246 598h154v-584h102v-106h-102v-197h-115v197h-285zM899 303h170v424h-4z" />
<glyph unicode="&#xbf;" horiz-adv-x="796" d="M131 -160q0 70 15.5 131.5t40.5 107t55 88.5t60.5 84t55.5 83t40.5 96.5t15.5 114.5v82h114v-103q0 -75 -18.5 -141.5t-46 -113t-60 -98t-60 -96t-46 -106t-18.5 -129.5q0 -74 35 -112.5t83 -38.5q62 0 100.5 54t45.5 122l123 -25q-11 -120 -83.5 -197t-191.5 -77 q-110 0 -185 71.5t-75 202.5zM397 872v193h172v-193h-172z" />
<glyph unicode="&#xc0;" d="M18 0l326 1479h221l326 -1479h-160l-88 438h-377l-88 -438h-160zM211 1839h160l200 -283h-102zM289 573h332l-164 795h-4z" />
<glyph unicode="&#xc1;" d="M18 0l326 1479h221l326 -1479h-160l-88 438h-377l-88 -438h-160zM289 573h332l-164 795h-4zM338 1556l201 283h159l-258 -283h-102z" />
<glyph unicode="&#xc2;" d="M18 0l326 1479h221l326 -1479h-160l-88 438h-377l-88 -438h-160zM178 1556l207 283h139l207 -283h-131l-145 209l-146 -209h-131zM289 573h332l-164 795h-4z" />
<glyph unicode="&#xc3;" d="M18 0l326 1479h221l326 -1479h-160l-88 438h-377l-88 -438h-160zM166 1577q2 73 46.5 137t111.5 64q57 0 145 -45t123 -45q40 0 56 27.5t22 74.5h73q-5 -87 -42.5 -144t-116.5 -57q-47 0 -135 45t-127 45q-74 0 -82 -102h-74zM289 573h332l-164 795h-4z" />
<glyph unicode="&#xc4;" d="M18 0l326 1479h221l326 -1479h-160l-88 438h-377l-88 -438h-160zM252 1577v209h135v-209h-135zM289 573h332l-164 795h-4zM522 1577v209h135v-209h-135z" />
<glyph unicode="&#xc5;" d="M18 0l326 1479h221l326 -1479h-160l-88 438h-377l-88 -438h-160zM260 1751q0 80 56.5 137.5t138.5 57.5t138 -57.5t56 -137.5t-56 -137.5t-138 -57.5t-138.5 57.5t-56.5 137.5zM289 573h332l-164 795h-4zM346 1751q0 -43 33 -76t76 -33t75.5 33t32.5 76t-32.5 76 t-75.5 33t-76 -33t-33 -76z" />
<glyph unicode="&#xc6;" horiz-adv-x="1478" d="M18 0l594 1479h768v-136h-487v-503h381v-135h-381v-570h512v-135h-672v438h-377l-168 -438h-170zM410 573h323v816h-4z" />
<glyph unicode="&#xc7;" horiz-adv-x="1024" d="M94 739q0 206 29.5 354t86 236t133.5 129t179 41q166 0 263 -117t116 -350h-160q-15 172 -69.5 252t-149.5 80q-142 0 -205 -142t-63 -483q0 -230 29 -367t86.5 -197t152.5 -60q117 0 177 89t63 288h160q-3 -233 -96.5 -364.5t-264.5 -145.5l-80 -101l4 -4q21 12 64 12 q69 0 115.5 -38.5t46.5 -108.5q0 -82 -65 -133t-157 -51q-118 0 -188 32l29 91q80 -29 133 -29q61 0 99 23.5t38 60.5t-29.5 62.5t-81.5 25.5q-29 0 -86 -21l-28 29l108 150q-190 14 -289.5 193.5t-99.5 563.5z" />
<glyph unicode="&#xc8;" d="M135 0v1479h676v-136h-516v-503h381v-135h-381v-570h541v-135h-701zM223 1839h160l201 -283h-103z" />
<glyph unicode="&#xc9;" d="M135 0v1479h676v-136h-516v-503h381v-135h-381v-570h541v-135h-701zM350 1556l201 283h160l-258 -283h-103z" />
<glyph unicode="&#xca;" d="M135 0v1479h676v-136h-516v-503h381v-135h-381v-570h541v-135h-701zM190 1556l207 283h140l206 -283h-131l-145 209l-145 -209h-132z" />
<glyph unicode="&#xcb;" d="M135 0v1479h676v-136h-516v-503h381v-135h-381v-570h541v-135h-701zM264 1577v209h135v-209h-135zM535 1577v209h135v-209h-135z" />
<glyph unicode="&#xcc;" horiz-adv-x="454" d="M-16 1839h159l201 -283h-102zM147 0v1479h160v-1479h-160z" />
<glyph unicode="&#xcd;" horiz-adv-x="454" d="M111 1556l200 283h160l-258 -283h-102zM147 0v1479h160v-1479h-160z" />
<glyph unicode="&#xce;" horiz-adv-x="454" d="M-49 1556l207 283h139l207 -283h-131l-146 209l-145 -209h-131zM147 0v1479h160v-1479h-160z" />
<glyph unicode="&#xcf;" horiz-adv-x="454" d="M25 1577v209h135v-209h-135zM147 0v1479h160v-1479h-160zM295 1577v209h135v-209h-135z" />
<glyph unicode="&#xd0;" horiz-adv-x="1024" d="M25 705v135h110v639h275q121 0 210 -36.5t155.5 -120t100 -229t33.5 -354.5q0 -168 -22.5 -294.5t-63.5 -210.5t-103.5 -137t-137.5 -75t-172 -22h-275v705h-110zM295 135h86q75 0 128.5 14t101.5 53t77 106t45.5 174t16.5 257t-16.5 257t-45.5 174t-77 106t-101.5 53 t-128.5 14h-86v-503h246v-135h-246v-570z" />
<glyph unicode="&#xd1;" horiz-adv-x="1024" d="M115 0v1479h250l380 -1090h5v1090h159v-1479h-172l-458 1286h-5v-1286h-159zM223 1577q2 73 46.5 137t111.5 64q57 0 145 -45t123 -45q40 0 56 27.5t22 74.5h74q-5 -87 -43 -144t-117 -57q-47 0 -135 45t-127 45q-74 0 -82 -102h-74z" />
<glyph unicode="&#xd2;" horiz-adv-x="1024" d="M94 739q0 760 418 760t418 -760q0 -759 -418 -759t-418 759zM254 739q0 -147 13.5 -257.5t36 -179.5t56 -111.5t70.5 -59t82 -16.5t82 16.5t70.5 59t56 111.5t36 179.5t13.5 257.5t-13.5 257.5t-36 179.5t-56 112t-70.5 59.5t-82 16.5t-82 -16.5t-70.5 -59.5t-56 -112 t-36 -179.5t-13.5 -257.5zM268 1839h160l201 -283h-103z" />
<glyph unicode="&#xd3;" horiz-adv-x="1024" d="M94 739q0 760 418 760t418 -760q0 -759 -418 -759t-418 759zM254 739q0 -147 13.5 -257.5t36 -179.5t56 -111.5t70.5 -59t82 -16.5t82 16.5t70.5 59t56 111.5t36 179.5t13.5 257.5t-13.5 257.5t-36 179.5t-56 112t-70.5 59.5t-82 16.5t-82 -16.5t-70.5 -59.5t-56 -112 t-36 -179.5t-13.5 -257.5zM395 1556l201 283h160l-258 -283h-103z" />
<glyph unicode="&#xd4;" horiz-adv-x="1024" d="M94 739q0 760 418 760t418 -760q0 -759 -418 -759t-418 759zM236 1556l206 283h140l206 -283h-131l-145 209l-145 -209h-131zM254 739q0 -147 13.5 -257.5t36 -179.5t56 -111.5t70.5 -59t82 -16.5t82 16.5t70.5 59t56 111.5t36 179.5t13.5 257.5t-13.5 257.5t-36 179.5 t-56 112t-70.5 59.5t-82 16.5t-82 -16.5t-70.5 -59.5t-56 -112t-36 -179.5t-13.5 -257.5z" />
<glyph unicode="&#xd5;" horiz-adv-x="1024" d="M94 739q0 760 418 760t418 -760q0 -759 -418 -759t-418 759zM223 1577q2 73 46.5 137t111.5 64q57 0 145 -45t123 -45q40 0 56 27.5t22 74.5h74q-5 -87 -43 -144t-117 -57q-47 0 -135 45t-127 45q-74 0 -82 -102h-74zM254 739q0 -147 13.5 -257.5t36 -179.5t56 -111.5 t70.5 -59t82 -16.5t82 16.5t70.5 59t56 111.5t36 179.5t13.5 257.5t-13.5 257.5t-36 179.5t-56 112t-70.5 59.5t-82 16.5t-82 -16.5t-70.5 -59.5t-56 -112t-36 -179.5t-13.5 -257.5z" />
<glyph unicode="&#xd6;" horiz-adv-x="1024" d="M94 739q0 760 418 760t418 -760q0 -759 -418 -759t-418 759zM254 739q0 -147 13.5 -257.5t36 -179.5t56 -111.5t70.5 -59t82 -16.5t82 16.5t70.5 59t56 111.5t36 179.5t13.5 257.5t-13.5 257.5t-36 179.5t-56 112t-70.5 59.5t-82 16.5t-82 -16.5t-70.5 -59.5t-56 -112 t-36 -179.5t-13.5 -257.5zM309 1577v209h135v-209h-135zM580 1577v209h135v-209h-135z" />
<glyph unicode="&#xd7;" horiz-adv-x="1228" d="M82 98l434 434l-434 435l98 98l434 -436l435 436l98 -98l-434 -435l434 -434l-98 -98l-435 436l-434 -436z" />
<glyph unicode="&#xd8;" horiz-adv-x="1024" d="M61 -246l156 389q-123 191 -123 596q0 760 418 760q126 0 213 -69l86 217h111l-119 -304q127 -192 127 -604q0 -759 -418 -759q-133 0 -221 77l-119 -303h-111zM254 739q0 -257 39 -397h4l371 942q-61 80 -156 80q-45 0 -82 -16.5t-70.5 -59.5t-56 -112t-36 -179.5 t-13.5 -257.5zM350 205q60 -90 162 -90q45 0 82 16.5t70.5 59t56 111.5t36 179.5t13.5 257.5q0 259 -41 416h-4z" />
<glyph unicode="&#xd9;" horiz-adv-x="1024" d="M135 389v1090h160v-1086q0 -60 10 -107t33 -87.5t67 -62t107 -21.5t107 21.5t67 62t33 87.5t10 107v1086h160v-1090q0 -188 -93 -298.5t-284 -110.5t-284 110.5t-93 298.5zM268 1839h160l201 -283h-103z" />
<glyph unicode="&#xda;" horiz-adv-x="1024" d="M135 389v1090h160v-1086q0 -60 10 -107t33 -87.5t67 -62t107 -21.5t107 21.5t67 62t33 87.5t10 107v1086h160v-1090q0 -188 -93 -298.5t-284 -110.5t-284 110.5t-93 298.5zM395 1556l201 283h160l-258 -283h-103z" />
<glyph unicode="&#xdb;" horiz-adv-x="1024" d="M135 389v1090h160v-1086q0 -60 10 -107t33 -87.5t67 -62t107 -21.5t107 21.5t67 62t33 87.5t10 107v1086h160v-1090q0 -188 -93 -298.5t-284 -110.5t-284 110.5t-93 298.5zM236 1556l206 283h140l206 -283h-131l-145 209l-145 -209h-131z" />
<glyph unicode="&#xdc;" horiz-adv-x="1024" d="M135 389v1090h160v-1086q0 -60 10 -107t33 -87.5t67 -62t107 -21.5t107 21.5t67 62t33 87.5t10 107v1086h160v-1090q0 -188 -93 -298.5t-284 -110.5t-284 110.5t-93 298.5zM309 1577v209h135v-209h-135zM580 1577v209h135v-209h-135z" />
<glyph unicode="&#xdd;" d="M33 1479h172l254 -648l246 648h172l-340 -852v-627h-160v627zM338 1556l201 283h159l-258 -283h-102z" />
<glyph unicode="&#xde;" d="M115 0v1479h159v-332h189q179 0 286 -111t107 -295t-107 -294.5t-286 -110.5h-189v-336h-159zM274 471h168q122 0 188 67.5t66 202.5q0 136 -66 203.5t-188 67.5h-168v-541z" />
<glyph unicode="&#xdf;" d="M147 0v1188q0 128 80.5 219.5t218.5 91.5q150 0 239 -102t89 -271q0 -116 -37 -187t-110 -112q42 -21 73 -48t61 -72t46 -117.5t16 -167.5q0 -442 -280 -442q-57 0 -113 24v127q50 -29 100 -29q32 0 57 13t46 44.5t32 91.5t11 146q0 197 -49 277t-172 80v123 q88 6 130 61.5t42 189.5q0 130 -48.5 189t-123.5 59q-71 0 -115.5 -52.5t-44.5 -135.5v-1188h-148z" />
<glyph unicode="&#xe0;" d="M98 254q0 75 32 141.5t82.5 114t119 86t134 62t134.5 38.5v76q0 88 -41.5 139.5t-112.5 51.5q-53 0 -94 -33.5t-61 -78t-29 -97.5l-135 20q24 137 103 224t212 87q146 0 226 -80.5t80 -222.5v-594q0 -147 26 -188h-153l-19 90q-44 -44 -110.5 -77t-116.5 -33 q-125 0 -201 74.5t-76 199.5zM211 1466h160l200 -282h-102zM246 266q0 -164 151 -164q96 0 203 111v360q-46 -14 -89.5 -31.5t-93 -46t-86 -60.5t-61 -76.5t-24.5 -92.5z" />
<glyph unicode="&#xe1;" d="M98 254q0 75 32 141.5t82.5 114t119 86t134 62t134.5 38.5v76q0 88 -41.5 139.5t-112.5 51.5q-53 0 -94 -33.5t-61 -78t-29 -97.5l-135 20q24 137 103 224t212 87q146 0 226 -80.5t80 -222.5v-594q0 -147 26 -188h-153l-19 90q-44 -44 -110.5 -77t-116.5 -33 q-125 0 -201 74.5t-76 199.5zM246 266q0 -164 151 -164q96 0 203 111v360q-46 -14 -89.5 -31.5t-93 -46t-86 -60.5t-61 -76.5t-24.5 -92.5zM338 1184l201 282h159l-258 -282h-102z" />
<glyph unicode="&#xe2;" d="M98 254q0 75 32 141.5t82.5 114t119 86t134 62t134.5 38.5v76q0 88 -41.5 139.5t-112.5 51.5q-53 0 -94 -33.5t-61 -78t-29 -97.5l-135 20q24 137 103 224t212 87q146 0 226 -80.5t80 -222.5v-594q0 -147 26 -188h-153l-19 90q-44 -44 -110.5 -77t-116.5 -33 q-125 0 -201 74.5t-76 199.5zM178 1184l207 282h139l207 -282h-131l-145 209l-146 -209h-131zM246 266q0 -164 151 -164q96 0 203 111v360q-46 -14 -89.5 -31.5t-93 -46t-86 -60.5t-61 -76.5t-24.5 -92.5z" />
<glyph unicode="&#xe3;" d="M98 254q0 75 32 141.5t82.5 114t119 86t134 62t134.5 38.5v76q0 88 -41.5 139.5t-112.5 51.5q-53 0 -94 -33.5t-61 -78t-29 -97.5l-135 20q24 137 103 224t212 87q146 0 226 -80.5t80 -222.5v-594q0 -147 26 -188h-153l-19 90q-44 -44 -110.5 -77t-116.5 -33 q-125 0 -201 74.5t-76 199.5zM166 1204q2 73 46.5 137t111.5 64q57 0 145 -45t123 -45q40 0 56 27.5t22 74.5h73q-5 -87 -42.5 -143.5t-116.5 -56.5q-47 0 -135 45t-127 45t-59 -29.5t-23 -73.5h-74zM246 266q0 -164 151 -164q96 0 203 111v360q-46 -14 -89.5 -31.5t-93 -46 t-86 -60.5t-61 -76.5t-24.5 -92.5z" />
<glyph unicode="&#xe4;" d="M98 254q0 75 32 141.5t82.5 114t119 86t134 62t134.5 38.5v76q0 88 -41.5 139.5t-112.5 51.5q-53 0 -94 -33.5t-61 -78t-29 -97.5l-135 20q24 137 103 224t212 87q146 0 226 -80.5t80 -222.5v-594q0 -147 26 -188h-153l-19 90q-44 -44 -110.5 -77t-116.5 -33 q-125 0 -201 74.5t-76 199.5zM246 266q0 -164 151 -164q96 0 203 111v360q-46 -14 -89.5 -31.5t-93 -46t-86 -60.5t-61 -76.5t-24.5 -92.5zM252 1204v209h135v-209h-135zM522 1204v209h135v-209h-135z" />
<glyph unicode="&#xe5;" d="M98 254q0 75 32 141.5t82.5 114t119 86t134 62t134.5 38.5v76q0 88 -41.5 139.5t-112.5 51.5q-53 0 -94 -33.5t-61 -78t-29 -97.5l-135 20q24 137 103 224t212 87q146 0 226 -80.5t80 -222.5v-594q0 -147 26 -188h-153l-19 90q-44 -44 -110.5 -77t-116.5 -33 q-125 0 -201 74.5t-76 199.5zM246 266q0 -164 151 -164q96 0 203 111v360q-46 -14 -89.5 -31.5t-93 -46t-86 -60.5t-61 -76.5t-24.5 -92.5zM260 1378q0 80 56.5 137.5t138.5 57.5t138 -57.5t56 -137.5t-56 -137t-138 -57t-138.5 57t-56.5 137zM346 1378q0 -43 33 -75.5 t76 -32.5t75.5 32.5t32.5 75.5t-32.5 76t-75.5 33t-76 -33t-33 -76z" />
<glyph unicode="&#xe6;" horiz-adv-x="1251" d="M61 254q0 75 32 142t80.5 113.5t113.5 85.5t122.5 62t116.5 39v76q0 94 -37 142.5t-100 48.5q-60 0 -105.5 -64.5t-58.5 -144.5l-135 20q24 137 102.5 224t210.5 87q149 0 218 -131q92 131 231 131q164 0 245 -134.5t81 -372.5v-70h-504v-59q0 -179 59 -263t139 -84 q77 0 120 58t59 143l139 -16q-18 -127 -105.5 -217t-214.5 -90q-192 0 -266 145q-133 -145 -266 -145q-125 0 -201 74.5t-76 199.5zM209 266q0 -164 151 -164q45 0 92.5 33.5t73.5 77.5v360q-317 -133 -317 -307zM674 631h356q-3 177 -42 254.5t-136 77.5 q-78 0 -126.5 -82.5t-51.5 -249.5z" />
<glyph unicode="&#xe7;" horiz-adv-x="796" d="M72 532q0 288 78.5 420.5t246.5 132.5q140 0 214.5 -85.5t97.5 -249.5h-144q-10 114 -53 163.5t-115 49.5q-66 0 -102.5 -34t-56 -128.5t-19.5 -268.5t19.5 -268.5t56 -128t102.5 -33.5q74 0 114 50.5t58 183.5h144q-18 -148 -83 -241t-179 -111l-82 -103l4 -4 q21 12 63 12q69 0 115.5 -38.5t46.5 -108.5q0 -82 -64.5 -133t-156.5 -51q-119 0 -189 32l29 91q80 -29 133 -29q61 0 99 23.5t38 60.5t-29 62.5t-81 25.5q-29 0 -86 -21l-29 29l109 148q-154 9 -226.5 142.5t-72.5 409.5z" />
<glyph unicode="&#xe8;" horiz-adv-x="796" d="M72 532q0 288 78.5 420.5t246.5 132.5q164 0 245 -134.5t81 -372.5v-70h-504v-59q0 -192 46.5 -269.5t152.5 -77.5q77 0 119.5 57.5t58.5 143.5l139 -16q-18 -128 -108.5 -217.5t-229.5 -89.5q-168 0 -246.5 132t-78.5 420zM156 1466h159l201 -282h-102zM219 631h356 q-3 177 -42 254.5t-136 77.5q-85 0 -131 -75.5t-47 -256.5z" />
<glyph unicode="&#xe9;" horiz-adv-x="796" d="M72 532q0 288 78.5 420.5t246.5 132.5q164 0 245 -134.5t81 -372.5v-70h-504v-59q0 -192 46.5 -269.5t152.5 -77.5q77 0 119.5 57.5t58.5 143.5l139 -16q-18 -128 -108.5 -217.5t-229.5 -89.5q-168 0 -246.5 132t-78.5 420zM219 631h356q-3 177 -42 254.5t-136 77.5 q-85 0 -131 -75.5t-47 -256.5zM283 1184l200 282h160l-258 -282h-102z" />
<glyph unicode="&#xea;" horiz-adv-x="796" d="M72 532q0 288 78.5 420.5t246.5 132.5q164 0 245 -134.5t81 -372.5v-70h-504v-59q0 -192 46.5 -269.5t152.5 -77.5q77 0 119.5 57.5t58.5 143.5l139 -16q-18 -128 -108.5 -217.5t-229.5 -89.5q-168 0 -246.5 132t-78.5 420zM123 1184l207 282h139l207 -282h-131l-146 209 l-145 -209h-131zM219 631h356q-3 177 -42 254.5t-136 77.5q-85 0 -131 -75.5t-47 -256.5z" />
<glyph unicode="&#xeb;" horiz-adv-x="796" d="M72 532q0 288 78.5 420.5t246.5 132.5q164 0 245 -134.5t81 -372.5v-70h-504v-59q0 -192 46.5 -269.5t152.5 -77.5q77 0 119.5 57.5t58.5 143.5l139 -16q-18 -128 -108.5 -217.5t-229.5 -89.5q-168 0 -246.5 132t-78.5 420zM197 1204v209h135v-209h-135zM219 631h356 q-3 177 -42 254.5t-136 77.5q-85 0 -131 -75.5t-47 -256.5zM467 1204v209h135v-209h-135z" />
<glyph unicode="&#xec;" horiz-adv-x="454" d="M-16 1466h159l201 -282h-102zM154 0v1065h147v-1065h-147z" />
<glyph unicode="&#xed;" horiz-adv-x="454" d="M111 1184l200 282h160l-258 -282h-102zM154 0v1065h147v-1065h-147z" />
<glyph unicode="&#xee;" horiz-adv-x="454" d="M-49 1184l207 282h139l207 -282h-131l-146 209l-145 -209h-131zM154 0v1065h147v-1065h-147z" />
<glyph unicode="&#xef;" horiz-adv-x="454" d="M25 1204v209h135v-209h-135zM154 0v1065h147v-1065h-147zM295 1204v209h135v-209h-135z" />
<glyph unicode="&#xf0;" horiz-adv-x="796" d="M72 532q0 288 78.5 420.5t246.5 132.5q71 0 101 -18q-20 81 -68 162l-186 -70l-49 94l174 66q-46 65 -99 115l136 45q57 -54 96 -109l200 76l50 -94l-191 -72q162 -284 162 -748q0 -287 -79 -419.5t-247 -132.5t-246.5 132t-78.5 420zM219 532q0 -174 19.5 -268.5 t56 -128t102.5 -33.5t102.5 33.5t56 128t19.5 268.5t-19.5 268.5t-56 128.5t-102.5 34t-102.5 -34t-56 -128.5t-19.5 -268.5z" />
<glyph unicode="&#xf1;" d="M147 0v1065h140v-117q56 57 123.5 97t117.5 40q234 0 234 -278v-807h-148v786q0 92 -28 134.5t-88 42.5q-97 0 -203 -132v-831h-148zM166 1204q2 73 46.5 137t111.5 64q57 0 145 -45t123 -45q40 0 56 27.5t22 74.5h73q-5 -87 -42.5 -143.5t-116.5 -56.5q-47 0 -135 45 t-127 45t-59 -29.5t-23 -73.5h-74z" />
<glyph unicode="&#xf2;" horiz-adv-x="796" d="M72 532q0 288 78.5 420.5t246.5 132.5t247 -133t79 -420t-79 -419.5t-247 -132.5t-246.5 132t-78.5 420zM156 1466h159l201 -282h-102zM219 532q0 -174 19.5 -268.5t56 -128t102.5 -33.5t102.5 33.5t56 128t19.5 268.5t-19.5 268.5t-56 128.5t-102.5 34t-102.5 -34 t-56 -128.5t-19.5 -268.5z" />
<glyph unicode="&#xf3;" horiz-adv-x="796" d="M72 532q0 288 78.5 420.5t246.5 132.5t247 -133t79 -420t-79 -419.5t-247 -132.5t-246.5 132t-78.5 420zM219 532q0 -174 19.5 -268.5t56 -128t102.5 -33.5t102.5 33.5t56 128t19.5 268.5t-19.5 268.5t-56 128.5t-102.5 34t-102.5 -34t-56 -128.5t-19.5 -268.5zM283 1184 l200 282h160l-258 -282h-102z" />
<glyph unicode="&#xf4;" horiz-adv-x="796" d="M72 532q0 288 78.5 420.5t246.5 132.5t247 -133t79 -420t-79 -419.5t-247 -132.5t-246.5 132t-78.5 420zM123 1184l207 282h139l207 -282h-131l-146 209l-145 -209h-131zM219 532q0 -174 19.5 -268.5t56 -128t102.5 -33.5t102.5 33.5t56 128t19.5 268.5t-19.5 268.5 t-56 128.5t-102.5 34t-102.5 -34t-56 -128.5t-19.5 -268.5z" />
<glyph unicode="&#xf5;" horiz-adv-x="796" d="M72 532q0 288 78.5 420.5t246.5 132.5t247 -133t79 -420t-79 -419.5t-247 -132.5t-246.5 132t-78.5 420zM111 1204q2 73 46 137t111 64q58 0 146 -45t123 -45q40 0 55.5 27t21.5 75h74q-5 -86 -43 -143t-117 -57q-47 0 -135 45t-127 45t-59 -29.5t-23 -73.5h-73zM219 532 q0 -174 19.5 -268.5t56 -128t102.5 -33.5t102.5 33.5t56 128t19.5 268.5t-19.5 268.5t-56 128.5t-102.5 34t-102.5 -34t-56 -128.5t-19.5 -268.5z" />
<glyph unicode="&#xf6;" horiz-adv-x="796" d="M72 532q0 288 78.5 420.5t246.5 132.5t247 -133t79 -420t-79 -419.5t-247 -132.5t-246.5 132t-78.5 420zM197 1204v209h135v-209h-135zM219 532q0 -174 19.5 -268.5t56 -128t102.5 -33.5t102.5 33.5t56 128t19.5 268.5t-19.5 268.5t-56 128.5t-102.5 34t-102.5 -34 t-56 -128.5t-19.5 -268.5zM467 1204v209h135v-209h-135z" />
<glyph unicode="&#xf7;" horiz-adv-x="1228" d="M82 465v135h1065v-135h-1065zM479 115q0 55 39.5 95t95.5 40t96 -40t40 -95t-40 -95t-96 -40t-95.5 40t-39.5 95zM479 950q0 56 39.5 95.5t95.5 39.5t96 -40t40 -95t-40 -95t-96 -40t-95.5 39.5t-39.5 95.5z" />
<glyph unicode="&#xf8;" horiz-adv-x="796" d="M43 -246l129 326q-100 129 -100 452q0 288 78.5 420.5t246.5 132.5q98 0 156 -41l96 246h103l-125 -315q96 -128 96 -443q0 -287 -79 -419.5t-247 -132.5q-92 0 -147 36l-105 -262h-102zM219 532q0 -178 19 -278h4l262 670q-36 39 -107 39q-66 0 -102.5 -34t-56 -128.5 t-19.5 -268.5zM297 137q32 -35 100 -35q66 0 102.5 33.5t56 128t19.5 268.5q0 171 -16 265h-4z" />
<glyph unicode="&#xf9;" d="M147 258v807h148v-786q0 -92 28.5 -134.5t88.5 -42.5q97 0 202 131v832h148v-1065h-139v117q-55 -57 -123.5 -97t-118.5 -40q-234 0 -234 278zM211 1466h160l200 -282h-102z" />
<glyph unicode="&#xfa;" d="M147 258v807h148v-786q0 -92 28.5 -134.5t88.5 -42.5q97 0 202 131v832h148v-1065h-139v117q-55 -57 -123.5 -97t-118.5 -40q-234 0 -234 278zM338 1184l201 282h159l-258 -282h-102z" />
<glyph unicode="&#xfb;" d="M147 258v807h148v-786q0 -92 28.5 -134.5t88.5 -42.5q97 0 202 131v832h148v-1065h-139v117q-55 -57 -123.5 -97t-118.5 -40q-234 0 -234 278zM178 1184l207 282h139l207 -282h-131l-145 209l-146 -209h-131z" />
<glyph unicode="&#xfc;" d="M147 258v807h148v-786q0 -92 28.5 -134.5t88.5 -42.5q97 0 202 131v832h148v-1065h-139v117q-55 -57 -123.5 -97t-118.5 -40q-234 0 -234 278zM252 1204v209h135v-209h-135zM522 1204v209h135v-209h-135z" />
<glyph unicode="&#xfd;" horiz-adv-x="681" d="M4 1065h152l200 -815h4l164 815h152l-244 -1042q-43 -181 -125 -276t-211 -95h-76v123h46q87 0 143 60t78 173zM225 1184l201 282h160l-258 -282h-103z" />
<glyph unicode="&#xfe;" d="M160 -348v1827h139v-492h4q79 98 201 98q66 0 119.5 -29.5t96.5 -92.5t67 -172.5t24 -258.5t-24 -258.5t-67 -172t-96.5 -92t-119.5 -29.5q-99 0 -197 98v-426h-147zM307 197q30 -30 47.5 -45.5t49.5 -32.5t63 -17q65 0 107 38t66 135t24 257q0 120 -14 205t-41 134 t-62.5 70.5t-83.5 21.5q-34 0 -78.5 -29t-77.5 -74v-663z" />
<glyph unicode="&#xff;" horiz-adv-x="681" d="M4 1065h152l200 -815h4l164 815h152l-244 -1042q-43 -181 -125 -276t-211 -95h-76v123h46q87 0 143 60t78 173zM139 1204v209h135v-209h-135zM410 1204v209h135v-209h-135z" />
<glyph unicode="&#x152;" horiz-adv-x="1478" d="M74 739q0 175 20.5 301t60.5 211.5t106.5 135.5t151 71t201.5 21h766v-136h-479v-503h365v-135h-365v-570h504v-135h-791q-117 0 -201.5 21t-151 71t-106.5 135t-60.5 211t-20.5 301zM233 739q0 -175 21.5 -294.5t65 -185t99.5 -93t134 -27.5q104 0 146 42.5t42 162.5 v791q0 120 -41.5 162t-146.5 42q-78 0 -134 -27.5t-99.5 -93t-65 -185t-21.5 -294.5z" />
<glyph unicode="&#x153;" horiz-adv-x="1251" d="M47 532q0 287 79 420t247 133q98 0 161.5 -43.5t96.5 -136.5q39 90 97 135t128 45q164 0 245 -134.5t81 -372.5v-70h-480v-59q0 -182 49 -264.5t126 -82.5q41 0 73 17.5t51.5 47.5t31.5 63.5t18 72.5l139 -16q-14 -126 -101.5 -216.5t-214.5 -90.5q-172 0 -249 165 q-66 -165 -252 -165q-168 0 -247 132.5t-79 419.5zM195 532q0 -174 19.5 -268.5t56 -128t102.5 -33.5t103.5 33.5t58 128.5t20.5 268t-20.5 268t-58 129t-103.5 34t-102.5 -34t-56 -128.5t-19.5 -268.5zM702 631h332q-3 177 -42 254.5t-136 77.5q-143 0 -154 -332z" />
<glyph unicode="&#x178;" d="M33 1479h172l254 -648l246 648h172l-340 -852v-627h-160v627zM252 1577v209h135v-209h-135zM522 1577v209h135v-209h-135z" />
<glyph unicode="&#x2c6;" horiz-adv-x="454" d="M-49 1184l207 282h139l207 -282h-131l-146 209l-145 -209h-131z" />
<glyph unicode="&#x2dc;" horiz-adv-x="454" d="M-61 1204q2 73 46 137t111 64q58 0 146 -45t123 -45q40 0 55.5 27t21.5 75h74q-5 -86 -43 -143t-117 -57q-47 0 -135 45t-127 45t-59 -29.5t-23 -73.5h-73z" />
<glyph unicode="&#x2000;" horiz-adv-x="973" />
<glyph unicode="&#x2001;" horiz-adv-x="1946" />
<glyph unicode="&#x2002;" horiz-adv-x="973" />
<glyph unicode="&#x2003;" horiz-adv-x="1946" />
<glyph unicode="&#x2004;" horiz-adv-x="648" />
<glyph unicode="&#x2005;" horiz-adv-x="486" />
<glyph unicode="&#x2006;" horiz-adv-x="324" />
<glyph unicode="&#x2007;" horiz-adv-x="324" />
<glyph unicode="&#x2008;" horiz-adv-x="243" />
<glyph unicode="&#x2009;" horiz-adv-x="389" />
<glyph unicode="&#x200a;" horiz-adv-x="108" />
<glyph unicode="&#x2010;" horiz-adv-x="681" d="M88 465v135h504v-135h-504z" />
<glyph unicode="&#x2011;" horiz-adv-x="681" d="M88 465v135h504v-135h-504z" />
<glyph unicode="&#x2012;" horiz-adv-x="681" d="M88 465v135h504v-135h-504z" />
<glyph unicode="&#x2013;" horiz-adv-x="1024" d="M0 483v99h1024v-99h-1024z" />
<glyph unicode="&#x2014;" horiz-adv-x="2048" d="M0 483v99h2048v-99h-2048z" />
<glyph unicode="&#x2018;" horiz-adv-x="454" d="M147 999v205l123 295h62l-94 -307h81v-193h-172z" />
<glyph unicode="&#x2019;" horiz-adv-x="454" d="M123 979l94 307h-82v193h172v-205l-123 -295h-61z" />
<glyph unicode="&#x201a;" horiz-adv-x="454" d="M123 -307l94 307h-82v193h172v-205l-123 -295h-61z" />
<glyph unicode="&#x201c;" horiz-adv-x="796" d="M147 999v205l123 295h62l-94 -307h81v-193h-172zM489 999v205l123 295h62l-94 -307h82v-193h-173z" />
<glyph unicode="&#x201d;" horiz-adv-x="796" d="M123 979l94 307h-82v193h172v-205l-123 -295h-61zM465 979l94 307h-82v193h172v-205l-123 -295h-61z" />
<glyph unicode="&#x201e;" horiz-adv-x="796" d="M123 -307l94 307h-82v193h172v-205l-123 -295h-61zM465 -307l94 307h-82v193h172v-205l-123 -295h-61z" />
<glyph unicode="&#x2022;" horiz-adv-x="1024" d="M141 739q0 154 107.5 261.5t261.5 107.5t262.5 -107.5t108.5 -261.5t-108.5 -262t-262.5 -108t-261.5 108t-107.5 262z" />
<glyph unicode="&#x2026;" horiz-adv-x="2048" d="M256 0v193h172v-193h-172zM938 0v193h172v-193h-172zM1620 0v193h172v-193h-172z" />
<glyph unicode="&#x202f;" horiz-adv-x="389" />
<glyph unicode="&#x2039;" horiz-adv-x="681" d="M147 532l254 316h140l-262 -316l262 -315h-140z" />
<glyph unicode="&#x203a;" horiz-adv-x="681" d="M141 217l262 315l-262 316h140l254 -316l-254 -315h-140z" />
<glyph unicode="&#x205f;" horiz-adv-x="486" />
<glyph unicode="&#x20ac;" d="M31 498l30 123h93q-2 39 -2 118v70h-121l30 123h97q7 97 23 176t48 154t78 125.5t117 81t162 30.5q187 0 315 -156l-41 -161q-69 91 -130.5 136.5t-147.5 45.5q-58 0 -103 -24t-73 -63t-47 -97t-27.5 -116.5t-12.5 -131.5h478l-31 -123h-451v-188h402l-31 -123h-364 q6 -86 21.5 -150.5t45.5 -119.5t82 -84t125 -29q72 0 143 34.5t121 86.5v-158q-107 -98 -270 -98q-87 0 -155.5 26t-115 70.5t-79.5 111.5t-51 142t-27 168h-131z" />
<glyph unicode="&#x2122;" horiz-adv-x="2027" d="M78 1368v111h684v-111h-275v-756h-135v756h-274zM901 612v867h215l258 -658l254 658h217v-867h-135v731h-4l-289 -731h-90l-285 731h-6v-731h-135z" />
<glyph unicode="&#xe000;" horiz-adv-x="1064" d="M0 0v1065h1065v-1065h-1065z" />
<glyph unicode="&#xfb01;" d="M4 942v123h164v217q0 111 50 164t167 53q45 0 115 -12v-115q-38 17 -80 17q-52 0 -78.5 -30t-26.5 -83v-211h172v-123h-172v-942h-147v942h-164zM629 0v1065h147v-1065h-147zM629 1307v172h147v-172h-147z" />
<glyph unicode="&#xfb02;" d="M4 942v123h164v217q0 111 50 164t167 53q45 0 115 -12v-115q-38 17 -80 17q-52 0 -78.5 -30t-26.5 -83v-211h172v-123h-172v-942h-147v942h-164zM629 0v1479h147v-1479h-147z" />
</font>
</defs>
</svg>
