<?xml version="1.0" standalone="no"?>
<!DOCTYPE svg PUBLIC "-//W3C//DTD SVG 1.1//EN" "http://www.w3.org/Graphics/SVG/1.1/DTD/svg11.dtd" >
<svg xmlns="http://www.w3.org/2000/svg">
<metadata></metadata>
<defs>
<font id="istk_maquette_webregular" horiz-adv-x="420" >
<font-face units-per-em="1000" ascent="800" descent="-200" />
<missing-glyph horiz-adv-x="270" />
<glyph unicode="ff" horiz-adv-x="656" d="M643 642q-12 3 -27.5 6t-33.5 3q-38 0 -56.5 -15t-18.5 -53v-63h122v-72h-122v-448h-87v448h-219v-448h-87v448h-89v72h89v61q0 73 41.5 108.5t113.5 35.5q22 0 44 -3t36 -8l-12 -72q-12 3 -27.5 6t-34.5 3q-37 0 -55.5 -15t-18.5 -53v-63h219v61q0 73 42 108.5t113 35.5 q22 0 44 -3t36 -8z" />
<glyph unicode="fi" horiz-adv-x="579" d="M337 642q-12 3 -27.5 6t-35.5 3q-36 0 -54.5 -15t-18.5 -53v-63h122v-72h-122v-448h-87v448h-89v72h89v61q0 73 41.5 108.5t113.5 35.5q22 0 44 -3t36 -8zM414 0v520h87v-520h-87zM404 668q0 23 15 38.5t38 15.5t38.5 -15.5t15.5 -38.5t-15.5 -38t-38.5 -15t-38 15 t-15 38z" />
<glyph unicode="fl" horiz-adv-x="587" d="M337 642q-12 3 -27.5 6t-35.5 3q-36 0 -54.5 -15t-18.5 -53v-63h122v-72h-122v-448h-87v448h-89v72h89v61q0 73 41.5 108.5t113.5 35.5q22 0 44 -3t36 -8zM419 0v714h87v-714h-87z" />
<glyph horiz-adv-x="0" />
<glyph horiz-adv-x="0" />
<glyph horiz-adv-x="270" />
<glyph unicode=" "  horiz-adv-x="270" />
<glyph unicode="&#x09;" horiz-adv-x="270" />
<glyph unicode="&#xa0;" horiz-adv-x="270" />
<glyph unicode="!" horiz-adv-x="268" d="M157 201h-46l-25 360v153h96v-153zM71 53q0 26 18.5 44.5t44.5 18.5t44.5 -18.5t18.5 -44.5t-18.5 -44.5t-44.5 -18.5t-44.5 18.5t-18.5 44.5z" />
<glyph unicode="&#x22;" horiz-adv-x="388" d="M308 468h-40l-30 213v33h100v-33zM121 468h-41l-30 213v33h101v-33z" />
<glyph unicode="#" horiz-adv-x="633" d="M481 455l-34 -196h121v-56h-130l-36 -203h-60l36 203h-167l-36 -203h-61l35 203h-78v56h88l33 196h-121v55h131l35 204h61l-35 -204h167l36 204h60l-36 -204h78v-55h-87zM253 455l-33 -196h167l34 196h-168z" />
<glyph unicode="$" horiz-adv-x="580" d="M269 -58v47q-76 6 -135.5 41t-93.5 92l74 43q31 -50 72 -71t83 -26v252q-35 9 -71.5 22.5t-66.5 36t-49 56t-19 82.5q0 44 16.5 78.5t44.5 58.5t65.5 38t79.5 16v47h54v-48q60 -6 111 -33.5t86 -76.5l-66 -46q-51 64 -131 76v-229q37 -11 75 -25.5t68 -37.5t49 -56.5 t19 -82.5q0 -42 -14.5 -78.5t-41.5 -64t-66.5 -44.5t-88.5 -20v-47h-54zM448 190q0 25 -8.5 43.5t-24.5 32t-39 23t-53 17.5v-239q59 4 92 36.5t33 86.5zM151 523q0 -25 10 -43t26.5 -31t37.5 -22t44 -15v218q-50 -3 -84 -30t-34 -77z" />
<glyph unicode="%" horiz-adv-x="750" d="M168 0h-66l481 714h66zM50 574q0 31 12 58.5t32 48t47.5 32.5t58.5 12t58.5 -12t48 -32.5t32.5 -48t12 -58.5t-12 -58.5t-32.5 -47.5t-48 -32t-58.5 -12t-58.5 12t-47.5 32t-32 47.5t-12 58.5zM108 574q0 -19 7 -36t19.5 -29.5t29.5 -19.5t36 -7t36 7t29.5 19.5t20 29.5 t7.5 36t-7.5 36t-20 29.5t-29.5 20t-36 7.5t-36 -7.5t-29.5 -20t-19.5 -29.5t-7 -36zM400 139q0 31 12 58.5t32 48t47.5 32.5t58.5 12t58.5 -12t48 -32.5t32.5 -48t12 -58.5t-12 -58.5t-32.5 -47.5t-48 -32t-58.5 -12t-58.5 12t-47.5 32t-32 47.5t-12 58.5zM458 139 q0 -19 7 -36t19.5 -29.5t29.5 -19.5t36 -7t36 7t29.5 19.5t20 29.5t7.5 36t-7.5 36t-20 29.5t-29.5 20t-36 7.5t-36 -7.5t-29.5 -20t-19.5 -29.5t-7 -36z" />
<glyph unicode="&#x26;" horiz-adv-x="656" d="M633 326q-2 -29 -10 -58.5t-20 -58t-27.5 -54t-31.5 -44.5l96 -111h-112l-47 57q-42 -33 -94 -51.5t-111 -18.5q-50 0 -94 13.5t-77 39t-52 63t-19 84.5q0 40 13.5 72t36 57t52 44t62.5 33q-18 21 -33 40t-26 39t-17 42t-6 48q0 39 14.5 69.5t40 52t60.5 32.5t75 11 q42 0 76 -12t57.5 -33.5t36.5 -51t13 -64.5q0 -63 -41.5 -111.5t-123.5 -86.5l168 -196q14 18 25 39t19 43t12.5 43.5t6.5 40.5zM283 66q33 0 75 10.5t73 38.5l-189 223q-24 -11 -45.5 -24t-37 -30t-25 -38t-9.5 -48q0 -30 12 -54.5t33.5 -42t50.5 -26.5t62 -9zM408 562 q0 46 -30.5 68.5t-69.5 22.5q-42 0 -74 -23t-32 -69q0 -40 23 -72t54 -66q24 12 47 25t41.5 29.5t29.5 37t11 47.5z" />
<glyph unicode="'" horiz-adv-x="200" d="M119 468h-40l-29 213v33h100v-33z" />
<glyph unicode="(" horiz-adv-x="289" d="M213 -94q-91 95 -131 204t-40 223q0 113 40 222.5t131 204.5l56 -46q-79 -84 -113.5 -181t-34.5 -200q0 -104 34.5 -200.5t113.5 -181.5z" />
<glyph unicode=")" horiz-adv-x="289" d="M76 760q91 -96 131 -205t40 -222t-40.5 -223t-130.5 -204l-57 45q80 85 114.5 181.5t34.5 200.5q0 103 -34.5 200t-114.5 181z" />
<glyph unicode="*" horiz-adv-x="432" d="M232 516q4 -27 7 -46.5t4.5 -36.5t2 -33.5t0.5 -37.5h-61q0 21 0.5 37.5t2 33.5t4.5 36.5t8 46.5q-21 -18 -36.5 -30.5t-29.5 -22t-28 -18t-32 -18.5l-30 52q18 10 32 18t29.5 15t34 14.5t44.5 16.5q-26 10 -44.5 17.5t-34 14.5t-29.5 14.5t-32 18.5l30 52 q18 -10 32 -18.5t28 -18t29.5 -22t36.5 -30.5q-5 27 -8 46.5t-4.5 36.5t-2 33.5t-0.5 37.5h61q0 -21 -0.5 -37.5t-2 -33.5t-4.5 -36.5t-7 -46.5q21 18 36.5 30.5t29.5 22t28 18t31 18.5l31 -52q-18 -11 -32.5 -18.5t-30 -14.5t-34 -14.5t-44.5 -17.5q26 -9 44.5 -16.5 t34 -14.5t30 -15t32.5 -18l-31 -52q-17 10 -31 18.5t-28 18t-29.5 22t-36.5 30.5z" />
<glyph unicode="+" horiz-adv-x="596" d="M336 222v-222h-76v222h-222v76h222v222h76v-222h222v-76h-222z" />
<glyph unicode="," horiz-adv-x="251" d="M125 -6q-26 0 -45 17t-19 43q0 23 15.5 42.5t45.5 19.5q28 0 46.5 -21t18.5 -66q0 -50 -28 -92t-68 -71l-30 36q27 17 45.5 43t18.5 49z" />
<glyph unicode="-" horiz-adv-x="382" d="M62 266v76h258v-76h-258z" />
<glyph unicode="." horiz-adv-x="251" d="M62 53q0 26 18.5 44.5t44.5 18.5t44.5 -18.5t18.5 -44.5t-18.5 -44.5t-44.5 -18.5t-44.5 18.5t-18.5 44.5z" />
<glyph unicode="/" horiz-adv-x="320" d="M86 0h-71l220 714h71z" />
<glyph unicode="0" horiz-adv-x="629" d="M575 357q0 -69 -12.5 -135.5t-42.5 -118.5t-80 -84t-125 -32t-125.5 32t-80.5 84t-42.5 118.5t-12.5 135.5t12.5 135.5t42.5 118.5t80.5 84t125.5 32t125 -32t80 -84t42.5 -118.5t12.5 -135.5zM478 357q0 59 -8 111.5t-27 91.5t-50.5 62t-77.5 23q-47 0 -78 -23 t-50.5 -62t-27.5 -91.5t-8 -111.5t8 -111.5t27.5 -92t50.5 -62.5t78 -23q46 0 77.5 23t50.5 62.5t27 92t8 111.5z" />
<glyph unicode="1" horiz-adv-x="387" d="M296 0h-95v604q-12 -7 -30.5 -14t-41 -13t-47 -11t-48.5 -8l-12 70q72 14 121 34t81 52h72v-714z" />
<glyph unicode="2" horiz-adv-x="565" d="M47 0v73q103 84 173 147t113 113t61.5 91t18.5 80q0 33 -12 58.5t-31.5 42.5t-45.5 25.5t-54 8.5q-51 0 -92 -24.5t-66 -65.5l-74 48q40 61 100 95.5t139 34.5q51 0 94 -14.5t74.5 -42.5t49.5 -68.5t18 -91.5q0 -50 -18.5 -96.5t-58 -96t-101 -105.5t-148.5 -125h335v-87 h-475z" />
<glyph unicode="3" horiz-adv-x="587" d="M283 727q47 0 88.5 -13t72 -37t48.5 -58.5t18 -77.5q0 -54 -27 -95.5t-75 -62.5q67 -24 97 -74.5t30 -107.5q0 -46 -17.5 -85.5t-50.5 -68t-79.5 -44.5t-104.5 -16q-82 0 -147 34t-100 106l85 40q13 -28 32.5 -46t42 -28.5t45.5 -14.5t44 -4q76 0 114 37t38 97 q0 56 -37 91.5t-120 35.5h-71v81h70q26 0 50.5 6t43.5 19.5t30.5 35t11.5 51.5t-11 51t-30 34.5t-43.5 20t-51.5 6.5q-51 0 -92 -23t-67 -65l-74 49q42 63 102 94.5t135 31.5z" />
<glyph unicode="4" horiz-adv-x="591" d="M454 169v-169h-93v169h-328v79q36 64 63 127.5t44.5 123.5t26.5 115t9 100h94q0 -46 -10 -102.5t-28.5 -117t-46 -122.5t-62.5 -120h238v268h93v-268h104v-83h-104z" />
<glyph unicode="5" horiz-adv-x="584" d="M539 230q0 -45 -14.5 -88.5t-45 -78t-79 -55.5t-115.5 -21q-78 0 -144 32.5t-103 105.5l87 41q25 -52 68.5 -72.5t89.5 -20.5q33 0 62 9.5t50 28t33.5 47.5t12.5 68q0 73 -42 113t-114 40q-48 0 -86 -18.5t-64 -50.5l-58 27l23 377h401v-87h-324l-15 -212q32 25 71 35 t75 10q50 0 92.5 -16.5t73 -47t48 -73t17.5 -93.5z" />
<glyph unicode="6" horiz-adv-x="581" d="M422 714q-33 -28 -69.5 -64.5t-71 -77t-62.5 -83t-44 -82.5q14 16 32.5 27.5t39 18.5t41.5 10t39 3q46 0 86.5 -16.5t70.5 -47t47 -74t17 -96.5q0 -54 -18 -99t-51 -77.5t-79 -50.5t-102 -18t-102 17.5t-79 51t-51 83t-18 112.5q0 66 19 127.5t52 119t77.5 111.5 t95.5 105h130zM145 229q0 -70 40.5 -114t112.5 -44q74 0 112.5 44t38.5 114q0 71 -38.5 114t-112.5 43q-72 0 -112.5 -43.5t-40.5 -113.5z" />
<glyph unicode="7" horiz-adv-x="534" d="M512 636q-38 -47 -86 -116t-90.5 -152t-73.5 -177t-35 -191h-102q5 88 33.5 177.5t70 172t89 154t89.5 123.5h-387v87h492v-78z" />
<glyph unicode="8" horiz-adv-x="611" d="M306 70q76 0 116 37t40 101q0 60 -37.5 96t-118.5 36q-82 0 -119.5 -37.5t-37.5 -96.5q0 -64 41 -100t116 -36zM306 418q25 0 48.5 5.5t42.5 18.5t30.5 34.5t11.5 53.5q0 30 -11 51.5t-29.5 35t-42.5 20t-50 6.5t-50.5 -6.5t-43 -20t-29.5 -35t-11 -51.5 q0 -32 11.5 -53.5t30.5 -34.5t43 -18.5t49 -5.5zM306 -13q-60 0 -107.5 16t-80 44.5t-50 67.5t-17.5 85q0 57 30.5 107t96.5 78q-48 21 -75.5 62t-27.5 95q0 43 18 77.5t49 58.5t73.5 36.5t90.5 12.5t90 -12.5t73 -36.5t49 -58.5t18 -77.5q0 -54 -27.5 -95t-75.5 -62 q67 -28 97 -78t30 -107q0 -46 -17.5 -85t-50 -67.5t-79.5 -44.5t-107 -16z" />
<glyph unicode="9" horiz-adv-x="580" d="M158 0q33 27 70 63.5t71 77t62.5 83t44.5 82.5q-14 -16 -32.5 -27t-39.5 -18t-42 -10t-39 -3q-47 0 -87 16.5t-69.5 47t-46.5 73.5t-17 96q0 54 18 99.5t50.5 78t78.5 50.5t103 18q56 0 102 -17.5t78.5 -51.5t50.5 -83.5t18 -112.5q0 -66 -19 -127.5t-52 -118.5t-77 -111 t-95 -105h-131zM435 484q0 70 -40 114t-113 44q-74 0 -112.5 -44t-38.5 -114q0 -71 38.5 -113.5t112.5 -42.5q73 0 113 43.5t40 112.5z" />
<glyph unicode=":" horiz-adv-x="295" d="M85 467q0 26 18.5 44.5t44.5 18.5t44.5 -18.5t18.5 -44.5t-18.5 -44.5t-44.5 -18.5t-44.5 18.5t-18.5 44.5zM85 53q0 26 18.5 44.5t44.5 18.5t44.5 -18.5t18.5 -44.5t-18.5 -44.5t-44.5 -18.5t-44.5 18.5t-18.5 44.5z" />
<glyph unicode=";" horiz-adv-x="295" d="M85 467q0 26 18.5 44.5t44.5 18.5t44.5 -18.5t18.5 -44.5t-18.5 -44.5t-44.5 -18.5t-44.5 18.5t-18.5 44.5zM149 -6q-27 0 -45.5 17t-18.5 43q0 23 15.5 42.5t45.5 19.5q28 0 46.5 -21t18.5 -66q0 -50 -28.5 -92t-67.5 -71l-30 36q27 17 45.5 43t18.5 49z" />
<glyph unicode="&#x3c;" horiz-adv-x="596" d="M242 260l212 -212l-54 -54l-266 266l266 266l54 -54z" />
<glyph unicode="=" horiz-adv-x="596" d="M38 342v76h520v-76h-520zM38 102v76h520v-76h-520z" />
<glyph unicode="&#x3e;" horiz-adv-x="596" d="M142 472l54 54l266 -266l-266 -266l-54 54l212 212z" />
<glyph unicode="?" horiz-adv-x="511" d="M466 527q0 -45 -15.5 -77.5t-38.5 -56.5t-50.5 -42t-50.5 -35.5t-38.5 -36.5t-15.5 -44v-34h-84v36q0 38 14.5 65t36.5 47.5t47.5 37.5t47.5 36.5t36.5 43.5t14.5 58q0 24 -8 45t-24.5 36.5t-41 25t-58.5 9.5q-48 0 -85.5 -17t-70.5 -46l-52 63q45 39 97.5 61.5 t115.5 22.5q47 0 88 -14t71 -39.5t47 -62.5t17 -82zM154 53q0 26 18.5 44.5t44.5 18.5t44.5 -18.5t18.5 -44.5t-18.5 -44.5t-44.5 -18.5t-44.5 18.5t-18.5 44.5z" />
<glyph unicode="@" horiz-adv-x="836" d="M530 222q-24 -35 -58.5 -52.5t-75.5 -17.5q-39 0 -70.5 15t-53.5 41t-34 62t-12 77t12 76.5t34 62t54 41.5t72 15q33 0 62.5 -13t54.5 -42v47h75v-263q0 -26 12 -44.5t45 -18.5q47 0 70 40t23 102q0 67 -23 125.5t-64.5 101.5t-100 67.5t-129.5 24.5t-129.5 -25.5 t-100.5 -69.5t-65 -102t-23 -123q0 -66 23 -124t65 -101.5t100 -68.5t129 -25q43 0 83.5 10t75.5 32l28 -51q-42 -23 -89 -36t-101 -13q-84 0 -153.5 29t-120 80t-78.5 120t-28 148q0 78 28 147t78.5 120.5t121 81t155.5 29.5t155 -29.5t120 -80t77.5 -117.5t27.5 -142 q0 -47 -11.5 -84.5t-32 -63.5t-50 -40.5t-65.5 -14.5q-32 0 -64 14.5t-49 52.5zM515 347q0 27 -7 50t-20.5 40.5t-33.5 27.5t-47 10q-26 0 -45.5 -10t-32 -27.5t-19 -40.5t-6.5 -50t6.5 -50t19.5 -40.5t32.5 -27.5t45.5 -10q27 0 47 10t33.5 27.5t20 41t6.5 49.5z" />
<glyph unicode="A" horiz-adv-x="680" d="M564 0l-74 203h-304l-75 -203h-100l275 714h109l275 -714h-106zM340 625l-125 -339h245z" />
<glyph unicode="B" horiz-adv-x="683" d="M634 206q0 -43 -14.5 -80.5t-44.5 -65.5t-75 -44t-105 -16h-305v714h285q111 0 170.5 -46t59.5 -127q0 -54 -25 -93t-66 -62q60 -25 90 -72t30 -108zM510 527q0 53 -34 77t-104 24h-189v-212h199q66 0 97 30t31 81zM537 211q0 53 -32.5 88t-100.5 35h-221v-249h209 q70 0 107.5 33t37.5 93z" />
<glyph unicode="C" horiz-adv-x="698" d="M586 534q-32 51 -82.5 78.5t-115.5 27.5q-56 0 -100.5 -20.5t-76 -57.5t-48 -89.5t-16.5 -115.5q0 -64 17 -116.5t49 -89.5t77 -57t102 -20q66 0 113.5 27.5t83.5 79.5l75 -51q-49 -70 -116 -106.5t-156 -36.5q-78 0 -141.5 27.5t-108.5 76.5t-69.5 117t-24.5 149 q0 80 24.5 148t69 117.5t107 77t138.5 27.5q88 0 157.5 -37t115.5 -104z" />
<glyph unicode="D" horiz-adv-x="746" d="M359 87q58 0 103 19.5t75 54.5t45.5 85t15.5 111t-15.5 111t-45.5 85t-75 54.5t-103 19.5h-176v-540h176zM90 0v714h269q81 0 144 -27t106 -75t65.5 -113.5t22.5 -141.5q0 -77 -22.5 -142t-65.5 -113t-106 -75t-144 -27h-269z" />
<glyph unicode="E" horiz-adv-x="632" d="M90 0v714h484v-87h-391v-211h348v-82h-348v-247h401v-87h-494z" />
<glyph unicode="F" horiz-adv-x="603" d="M183 627v-211h347v-82h-347v-334h-93v714h482v-87h-389z" />
<glyph unicode="G" horiz-adv-x="751" d="M391 640q-57 0 -102.5 -20.5t-77 -58t-48 -89t-16.5 -114.5q0 -64 17 -116.5t48 -89.5t75.5 -57.5t100.5 -20.5q46 0 87 14.5t71.5 42t49 68.5t21.5 94h-208v83h298q5 -22 5 -50q0 -69 -21.5 -131t-63 -108t-101.5 -73t-138 -27q-77 0 -139.5 28t-107 77.5t-69 117.5 t-24.5 148q0 81 24.5 148.5t70 116.5t109 76.5t141.5 27.5q91 0 159 -37.5t113 -102.5l-77 -51q-31 51 -81 77.5t-116 26.5z" />
<glyph unicode="H" horiz-adv-x="753" d="M570 0v334h-387v-334h-93v714h93v-294h387v294h93v-714h-93z" />
<glyph unicode="I" horiz-adv-x="273" d="M90 0v714h93v-714h-93z" />
<glyph unicode="J" horiz-adv-x="510" d="M334 714h93v-473q0 -52 -8 -94t-30 -75q-29 -45 -75 -65t-103 -20q-63 0 -112.5 26.5t-78.5 77.5l74 48q23 -38 54.5 -52.5t63.5 -14.5q34 0 57 11t37.5 30.5t21 47.5t6.5 62v491z" />
<glyph unicode="K" horiz-adv-x="669" d="M553 0l-242 348l-128 -145v-203h-93v714h93v-388l340 388h117l-265 -297l293 -417h-115z" />
<glyph unicode="L" horiz-adv-x="588" d="M90 0v714h93v-627h390v-87h-483z" />
<glyph unicode="M" horiz-adv-x="896" d="M713 0v597l-227 -597h-77l-229 598v-598h-90v714h138l220 -585l223 585h135v-714h-93z" />
<glyph unicode="N" horiz-adv-x="753" d="M554 0l-375 594v-594h-89v714h117l366 -580v580h90v-714h-109z" />
<glyph unicode="O" horiz-adv-x="775" d="M728 357q0 -79 -24 -146.5t-68 -117t-107 -78t-141 -28.5t-141 28.5t-107.5 78t-68.5 117t-24 146.5t24 147t68.5 117.5t107.5 77.5t141 28t141 -28t107 -77.5t68 -117.5t24 -147zM630 357q0 62 -16.5 114t-48 89t-76.5 57.5t-101 20.5q-57 0 -101.5 -20.5t-76 -57.5 t-48 -89t-16.5 -114t16.5 -114t48 -89t76 -57.5t101.5 -20.5q56 0 101 20.5t76.5 57.5t48 89t16.5 114z" />
<glyph unicode="P" horiz-adv-x="645" d="M370 374q76 0 112.5 34t36.5 92t-37 92.5t-112 34.5h-187v-253h187zM183 287v-287h-93v714h280q60 0 105.5 -15.5t77 -43.5t47.5 -67.5t16 -87.5t-16 -87.5t-47.5 -67t-77 -43t-105.5 -15.5h-187z" />
<glyph unicode="Q" horiz-adv-x="775" d="M728 357q0 -88 -29.5 -161t-83.5 -124l54 -66l-63 -52l-59 71q-70 -38 -159 -38q-78 0 -141 28.5t-107.5 78t-68.5 117t-24 146.5t24 146.5t68.5 117t107.5 78t141 28.5t141 -28.5t107 -78t68 -117t24 -146.5zM630 357q0 62 -16.5 114t-48 89t-76.5 57.5t-101 20.5 q-57 0 -101.5 -20.5t-76 -57.5t-48 -89t-16.5 -114t16.5 -114t48 -89.5t76 -58t101.5 -20.5q54 0 100 22l-82 103l62 51l86 -108q37 38 56.5 92t19.5 122z" />
<glyph unicode="R" horiz-adv-x="674" d="M530 0l-152 291h-195v-291h-93v714h305q53 0 96 -14.5t73 -41.5t46.5 -65.5t16.5 -85.5q0 -75 -40 -126t-112 -74l161 -307h-106zM530 500q0 59 -37.5 93t-100.5 34h-209v-253h207q66 0 103 34.5t37 91.5z" />
<glyph unicode="S" horiz-adv-x="621" d="M303 642q-30 0 -57 -7t-47 -20.5t-31.5 -34t-11.5 -46.5q0 -35 23 -57t61 -36q29 -11 65 -20t73.5 -20t72.5 -26t62.5 -38t44.5 -55.5t17 -78.5q0 -47 -17.5 -86.5t-51 -68t-81.5 -45t-108 -16.5q-93 0 -165.5 37.5t-113.5 102.5l79 49q20 -30 45 -50t52 -32.5 t54.5 -17.5t53.5 -5q73 0 115.5 33.5t42.5 90.5q0 30 -12.5 50.5t-35 34t-54 23.5t-70.5 19q-43 10 -87 23.5t-79.5 36.5t-58 58t-22.5 88q0 49 20 86t53.5 62t78 38t94.5 13q78 0 143 -30t110 -89l-72 -53q-31 42 -78.5 64.5t-106.5 22.5z" />
<glyph unicode="T" horiz-adv-x="625" d="M359 627v-627h-93v627h-240v87h573v-87h-240z" />
<glyph unicode="U" horiz-adv-x="717" d="M635 259q0 -62 -21 -112.5t-58 -86t-88 -54.5t-111 -19t-110.5 19t-87 54.5t-57 86t-20.5 112.5v455h93v-455q0 -84 48.5 -134t133.5 -50q42 0 76 13t58 37t37 58t13 76v455h94v-455z" />
<glyph unicode="V" horiz-adv-x="636" d="M624 714l-256 -714h-99l-257 714h101l205 -603l209 603h97z" />
<glyph unicode="W" horiz-adv-x="955" d="M744 0h-99l-168 572l-168 -572h-99l-184 714h99l140 -574l170 574h87l170 -575l140 575h98z" />
<glyph unicode="X" horiz-adv-x="654" d="M533 0l-206 300l-208 -300h-112l261 372l-241 342h111l190 -275l189 275h110l-241 -342l261 -372h-114z" />
<glyph unicode="Y" horiz-adv-x="614" d="M356 299v-299h-96v298l-254 416h109l195 -327l194 327h106z" />
<glyph unicode="Z" horiz-adv-x="626" d="M41 0v81l411 546h-394v87h515v-79l-411 -548h420v-87h-541z" />
<glyph unicode="[" horiz-adv-x="298" d="M80 -78v822h208v-69h-129v-685h129v-68h-208z" />
<glyph unicode="\" horiz-adv-x="320" d="M234 0l-220 714h71l220 -714h-71z" />
<glyph unicode="]" horiz-adv-x="299" d="M9 -78v68h131v685h-131v69h210v-822h-210z" />
<glyph unicode="^" horiz-adv-x="580" d="M503 430l-212 213l-214 -213l-52 54l229 229h72l229 -229z" />
<glyph unicode="_" horiz-adv-x="597" d="M0 -125v50h597v-50h-597z" />
<glyph unicode="`" horiz-adv-x="320" d="M161 590l-90 118l65 32l93 -150h-68z" />
<glyph unicode="a" horiz-adv-x="567" d="M555 2q-13 -5 -30 -7.5t-30 -2.5q-37 0 -66 19t-35 64q-35 -50 -83 -68.5t-96 -18.5q-81 0 -129 41.5t-48 116.5q0 45 17.5 74t44.5 46t58.5 24.5t59.5 11.5q30 4 59.5 7.5t53 10.5t38 20.5t14.5 38.5q0 22 -10.5 36.5t-27.5 23.5t-38 12.5t-42 3.5q-42 0 -84 -14 t-78 -41l-40 66q46 32 96 49t112 17q44 0 81 -9.5t63.5 -30.5t41.5 -53t15 -77v-246q0 -56 41 -56q20 0 31 8zM385 290q-13 -17 -29 -25.5t-35 -13.5t-40.5 -8t-45.5 -7q-22 -4 -41.5 -9t-34.5 -14.5t-23.5 -25t-8.5 -39.5q0 -47 31.5 -67.5t76.5 -20.5q28 0 55 8t48 25 t34 43.5t13 63.5v90z" />
<glyph unicode="b" horiz-adv-x="633" d="M165 714v-280q37 54 84 76t101 22q55 0 99.5 -21t75.5 -57.5t47.5 -86t16.5 -107.5t-16.5 -107.5t-47.5 -86t-75.5 -57.5t-99.5 -21q-54 0 -101 22t-84 75v-85h-87v714h87zM165 259q0 -40 11 -75t32 -60.5t52.5 -40.5t72.5 -15t71.5 15t51 41t30.5 60.5t10 74.5t-10 75 t-30.5 61t-51 41t-71.5 15t-72.5 -15t-52.5 -41t-32 -61t-11 -75z" />
<glyph unicode="c" horiz-adv-x="536" d="M506 97q-33 -48 -85.5 -78.5t-124.5 -30.5q-58 0 -104.5 20.5t-79.5 57t-50.5 86.5t-17.5 108t17.5 108t50.5 86.5t79.5 57t104.5 20.5q69 0 121 -29.5t86 -78.5l-65 -52q-23 38 -57.5 59.5t-81.5 21.5q-38 0 -68 -14.5t-51 -40.5t-32.5 -61.5t-11.5 -76.5 q0 -42 11.5 -77t32.5 -61t51 -40.5t67 -14.5q50 0 84 22t57 56z" />
<glyph unicode="d" horiz-adv-x="634" d="M469 0v85q-37 -53 -84.5 -75t-100.5 -22q-56 0 -100 21t-75 57.5t-47.5 86t-16.5 106.5q0 58 16.5 108t47.5 86.5t75 57.5t100 21q54 0 101 -22.5t84 -75.5v280h87v-714h-87zM469 260q0 40 -11 75t-32.5 60.5t-53 40.5t-72.5 15t-71.5 -15t-51 -41t-30.5 -60.5t-10 -74.5 t10 -75t30 -61t51 -41t72 -15q42 0 73.5 15t52.5 41t32 61t11 75z" />
<glyph unicode="e" horiz-adv-x="586" d="M547 273q0 -12 -0.5 -20.5t-1.5 -13.5h-408q4 -81 51 -126t124 -45q91 0 154 68l58 -57q-40 -43 -92.5 -67t-121.5 -24q-63 0 -112.5 20.5t-83.5 56.5t-52 85.5t-18 107.5q0 57 17.5 107t50.5 87t80 58.5t107 21.5q57 0 103 -20t78.5 -55t49.5 -82.5t17 -101.5zM457 306 q-7 75 -52 113t-107 38q-34 0 -62 -11t-49 -31.5t-33 -48t-15 -60.5h318z" />
<glyph unicode="f" horiz-adv-x="350" d="M337 642q-12 3 -27.5 6t-35.5 3q-36 0 -54.5 -15t-18.5 -53v-63h122v-72h-122v-448h-87v448h-89v72h89v61q0 73 41.5 108.5t113.5 35.5q22 0 44 -3t36 -8z" />
<glyph unicode="g" horiz-adv-x="636" d="M558 84q0 -60 -12 -106t-44 -81q-38 -45 -95.5 -63t-123.5 -18q-65 0 -118.5 15.5t-98.5 46.5l44 71q35 -25 78.5 -39.5t95.5 -14.5q40 0 74 9.5t59 30t39.5 53t14.5 78.5v56q-32 -50 -83 -73.5t-107 -23.5q-52 0 -95.5 19t-74.5 52.5t-48 80t-17 100.5q0 55 18 102 t49.5 81t75.5 53t96 19q57 0 105.5 -23.5t80.5 -74.5v86h87v-436zM471 279q0 36 -11 67.5t-32 55t-52.5 37t-73.5 13.5t-72.5 -14t-51 -37.5t-30.5 -55t-10 -66.5q0 -36 10 -68t30.5 -56t51.5 -38t72 -14t72.5 14t53 38t32.5 56t11 68z" />
<glyph unicode="h" horiz-adv-x="597" d="M78 0v714h87v-280q32 48 76.5 73t101.5 25q85 0 133.5 -51.5t48.5 -145.5v-335h-87v315q0 23 -4.5 47t-17 43.5t-35.5 32t-59 12.5q-33 0 -62 -11.5t-50 -33t-33 -51.5t-12 -66v-288h-87z" />
<glyph unicode="i" horiz-adv-x="243" d="M78 0v520h87v-520h-87zM68 668q0 23 15 38.5t38 15.5t38.5 -15.5t15.5 -38.5t-15.5 -38t-38.5 -15t-38 15t-15 38z" />
<glyph unicode="j" horiz-adv-x="255" d="M177 -1q0 -46 -13 -80t-36 -56.5t-55 -33.5t-69 -11q-24 0 -46 4t-37 11l24 72q10 -5 24 -8t30 -3q51 0 71 28t20 75v523h87v-521zM80 668q0 23 15 38.5t38 15.5q22 0 38 -15.5t16 -38.5t-15.5 -38t-38.5 -15t-38 15t-15 38z" />
<glyph unicode="k" horiz-adv-x="569" d="M426 520h110l-210 -213l237 -307h-110l-188 249l-100 -101v-148h-87v714h87v-463z" />
<glyph unicode="l" horiz-adv-x="249" d="M81 0v714h87v-714h-87z" />
<glyph unicode="m" horiz-adv-x="922" d="M78 0v520h87v-84q32 47 73 71.5t96 24.5q58 0 98 -27t58 -78q32 49 78.5 77t105.5 28q84 0 130 -51t46 -142v-339h-87v318q0 24 -4 48t-16 42.5t-33.5 30t-55.5 11.5q-31 0 -58 -11.5t-46.5 -32.5t-31 -50t-11.5 -65v-291h-87v318q0 24 -4 48t-16 42.5t-33.5 30 t-55.5 11.5q-32 0 -58.5 -11.5t-46 -32t-30.5 -50t-11 -65.5v-291h-87z" />
<glyph unicode="n" horiz-adv-x="597" d="M78 0v520h87v-86q32 48 76.5 73t101.5 25q85 0 133.5 -51.5t48.5 -145.5v-335h-87v315q0 23 -4.5 47t-17 43.5t-35.5 32t-59 12.5q-33 0 -62 -11.5t-50 -33t-33 -51.5t-12 -66v-288h-87z" />
<glyph unicode="o" horiz-adv-x="600" d="M556 259q0 -59 -18 -108.5t-51 -85.5t-80.5 -56.5t-106.5 -20.5t-106.5 20.5t-80.5 56.5t-51 85.5t-18 108.5t18 109t51 86.5t80.5 57t106.5 20.5t106.5 -20.5t80.5 -57t51 -86.5t18 -109zM463 259q0 41 -11 76.5t-31.5 61.5t-51 41t-69.5 15t-69.5 -15t-51.5 -41 t-32 -61.5t-11 -76.5t11 -76t32 -61t51.5 -41t69.5 -15t69.5 15t51 41t31.5 61t11 76z" />
<glyph unicode="p" horiz-adv-x="633" d="M165 520v-86q37 54 84 76t101 22q55 0 99.5 -21t75.5 -57.5t47.5 -86.5t16.5 -107q0 -58 -16.5 -107.5t-47.5 -86t-75.5 -57.5t-99.5 -21q-54 0 -101 22t-84 75v-259h-87v694h87zM165 259q0 -40 11 -74.5t32 -60.5t52.5 -41t72.5 -15t71.5 15t51 41t30.5 60.5t10 74.5 t-10 75t-30.5 61t-51 41t-71.5 15t-72.5 -15t-52.5 -41t-32 -61t-11 -75z" />
<glyph unicode="q" horiz-adv-x="634" d="M469 -174v259q-37 -53 -84.5 -75t-100.5 -22q-56 0 -100 21t-75 57.5t-47.5 86t-16.5 106.5q0 58 16.5 107.5t47.5 86.5t75 58t100 21q54 0 101 -22.5t84 -75.5v86h87v-694h-87zM469 260q0 40 -11 75t-32.5 60.5t-53 40.5t-72.5 15t-71.5 -15t-51 -40.5t-30.5 -60.5 t-10 -75q0 -39 10 -74t30 -61.5t51 -41.5t72 -15t72.5 15t53 41t32.5 61t11 75z" />
<glyph unicode="r" horiz-adv-x="393" d="M359 428q-13 7 -27.5 11.5t-32.5 4.5q-26 0 -50 -11.5t-43 -33t-30 -54t-11 -74.5v-271h-87v520h87v-88q26 42 64.5 70t86.5 28q23 0 41.5 -5.5t29.5 -13.5z" />
<glyph unicode="s" horiz-adv-x="518" d="M475 154q0 -75 -56 -120.5t-157 -45.5q-77 0 -136 28.5t-94 82.5l64 48q30 -42 73.5 -63t97.5 -21q53 0 87 21t34 63q0 20 -9 32.5t-26.5 21t-44.5 14.5t-63 13q-38 7 -72 17t-59.5 27t-40 43t-14.5 64q0 40 16.5 68.5t43.5 47.5t62 28t73 9q37 0 68.5 -7.5t58 -20 t48 -28t36.5 -31.5l-58 -55q-28 32 -67 49.5t-87 17.5q-21 0 -40.5 -4t-35 -12.5t-25 -21.5t-9.5 -32q0 -20 10.5 -33t28 -21t41 -13.5t49.5 -10.5q39 -8 75.5 -17.5t65 -26t45.5 -43t17 -68.5z" />
<glyph unicode="t" horiz-adv-x="394" d="M380 23q-45 -35 -113 -35q-46 0 -80.5 16t-55.5 50q-12 19 -17 42.5t-5 60.5v291h-90v72h90v146h87v-146h168v-72h-168v-291q0 -90 80 -90q23 0 39.5 7t27.5 15z" />
<glyph unicode="u" horiz-adv-x="597" d="M519 520v-520h-87v85q-33 -47 -77 -72t-101 -25q-85 0 -133.5 51.5t-48.5 144.5v336h87v-316q0 -23 4.5 -47t17 -43.5t35 -32t58.5 -12.5q34 0 63 11.5t50 33t33 51.5t12 66v289h87z" />
<glyph unicode="v" horiz-adv-x="535" d="M313 0h-91l-208 520h98l157 -416l157 416h95z" />
<glyph unicode="w" horiz-adv-x="788" d="M616 0h-95l-126 408l-128 -408h-95l-144 520h93l105 -415l130 415h80l129 -415l106 415h89z" />
<glyph unicode="x" horiz-adv-x="538" d="M416 0l-148 210l-148 -210h-106l201 271l-183 249h105l134 -191l132 191h103l-182 -249l198 -271h-106z" />
<glyph unicode="y" horiz-adv-x="535" d="M312 -24q-15 -39 -31 -69t-37 -50.5t-48 -30.5t-63 -10q-62 0 -106 32l38 64q14 -9 29.5 -14.5t32.5 -5.5q36 0 56.5 23t35.5 56l14 31l-220 518h100l166 -404l147 404h94z" />
<glyph unicode="z" horiz-adv-x="508" d="M40 0v71l302 371h-289v78h404v-70l-304 -373h313v-77h-426z" />
<glyph unicode="{" horiz-adv-x="359" d="M311 -84q-37 0 -68 11t-53.5 33t-35 53.5t-12.5 72.5v113q0 45 -19.5 72.5t-70.5 27.5h-29v68h29q51 0 70.5 27.5t19.5 71.5v113q0 41 12.5 73t35 53.5t53.5 32.5t68 11h41v-68h-37q-51 0 -72 -28t-21 -74v-105q0 -56 -21.5 -90.5t-62.5 -50.5q41 -16 62.5 -50.5 t21.5 -90.5v-105q0 -47 21 -74.5t72 -27.5h37v-69h-41z" />
<glyph unicode="|" horiz-adv-x="229" d="M81 -174v974h67v-974h-67z" />
<glyph unicode="}" horiz-adv-x="359" d="M308 299q-52 0 -71.5 -27.5t-19.5 -72.5v-113q0 -82 -46.5 -126t-121.5 -44h-42v69h37q53 0 73.5 27.5t20.5 74.5v104q0 57 21.5 91.5t62.5 50.5q-41 15 -62.5 50t-21.5 91v105q0 46 -20.5 74t-73.5 28h-37v68h42q75 0 121.5 -43.5t46.5 -126.5v-113q0 -44 19.5 -71.5 t71.5 -27.5h28v-68h-28z" />
<glyph unicode="~" horiz-adv-x="610" d="M52 275q40 49 81 79t92 30q19 0 37 -5.5t44 -21.5q21 -13 35 -21.5t24.5 -13.5t18.5 -7t17 -2q28 0 52.5 17t59.5 55l47 -42q-40 -49 -81 -79t-92 -30q-19 0 -37 5.5t-44 21.5q-21 13 -35 21.5t-24.5 13.5t-18.5 7t-17 2q-28 0 -52.5 -17t-59.5 -55z" />
<glyph unicode="&#xa1;" horiz-adv-x="266" d="M181 -21v-153h-96v153l25 340h46zM70 467q0 26 18.5 44.5t44.5 18.5t44.5 -18.5t18.5 -44.5t-18.5 -44.5t-44.5 -18.5t-44.5 18.5t-18.5 44.5z" />
<glyph unicode="&#xa2;" horiz-adv-x="580" d="M521 97q-30 -43 -75.5 -72t-107.5 -35v-84h-54v84q-52 4 -93.5 26.5t-71 58.5t-45 83t-15.5 102q0 54 15.5 101.5t45 83t71 58t93.5 27.5v83h54v-83q60 -5 104.5 -33.5t75.5 -72.5l-65 -52q-20 32 -48.5 53t-66.5 26v-383q39 5 67.5 26.5t48.5 50.5zM151 260 q0 -75 35.5 -127.5t97.5 -63.5v381q-31 -6 -55.5 -22.5t-42 -41.5t-26.5 -57t-9 -69z" />
<glyph unicode="&#xa3;" horiz-adv-x="580" d="M563 109q-19 -55 -57 -88t-91 -33q-27 0 -52.5 7t-50.5 15.5t-50 15.5t-52 7q-29 0 -69 -10.5t-84 -35.5l-34 67q64 38 87.5 78.5t23.5 80.5q0 42 -18 89h-94v67h69q-17 38 -28 73.5t-11 76.5q0 48 18.5 86.5t50.5 65.5t76 42t94 15q79 0 139 -34.5t101 -97.5l-78 -46 q-25 40 -64.5 65t-96.5 25q-30 0 -56 -8t-45.5 -24t-31 -40t-11.5 -56q0 -37 12 -71t29 -72h212v-67h-193q10 -30 10 -65q0 -38 -12 -74t-44 -70q13 6 27 9.5t27 5.5t22.5 2.5t14.5 0.5q25 0 47.5 -5.5t42.5 -12.5t38 -12.5t36 -5.5q26 0 42.5 15t30.5 47z" />
<glyph unicode="&#xa4;" horiz-adv-x="580" d="M168 303q0 -25 9.5 -47t26 -38.5t38.5 -26t48 -9.5q25 0 47.5 9.5t39 26t26 38.5t9.5 47t-9.5 47.5t-26 39t-39 26t-47.5 9.5q-26 0 -48 -9.5t-38.5 -26t-26 -39t-9.5 -47.5zM100 303q0 29 8.5 55.5t23.5 48.5l-72 72l54 55l72 -73q22 15 48.5 23.5t55.5 8.5t55 -8.5 t48 -23.5l72 73l54 -55l-71 -72q14 -23 22.5 -49t8.5 -55t-8.5 -55t-22.5 -48l71 -71l-54 -55l-72 71q-22 -14 -48 -22.5t-55 -8.5t-55.5 8.5t-48.5 22.5l-72 -71l-54 55l72 70q-15 23 -23.5 49t-8.5 55z" />
<glyph unicode="&#xa5;" horiz-adv-x="580" d="M377 372h146v-54h-174l-15 -27v-67h189v-55h-189v-169h-94v169h-190v55h190v66l-15 28h-175v54h148l-174 342h108l158 -339l155 339h107z" />
<glyph unicode="&#xa6;" horiz-adv-x="225" d="M82 424v314h61v-314h-61zM82 -84v314h61v-314h-61z" />
<glyph unicode="&#xa7;" horiz-adv-x="531" d="M246 161q-43 27 -81.5 56.5t-67.5 65.5t-46 79.5t-17 97.5q0 56 18.5 104.5t53.5 84.5t84 57t111 21q52 0 97.5 -15t80.5 -43l-51 -65q-24 22 -55.5 34t-72.5 12q-102 0 -151 -80l141 -89q44 -28 81.5 -57.5t64.5 -64.5t42.5 -77.5t15.5 -94.5q0 -56 -18.5 -105t-53 -85 t-83.5 -57t-111 -21q-51 0 -96.5 14.5t-80.5 43.5l49 65q25 -22 56.5 -34t72.5 -12q102 0 151 81zM412 186q0 42 -13 74t-38 60.5t-61.5 56t-84.5 60.5l-93 64q-3 -8 -4 -17.5t-1 -20.5q0 -42 12 -74.5t36 -61t61 -56.5t88 -62l94 -63q3 16 3.5 25.5t0.5 14.5z" />
<glyph unicode="&#xa8;" horiz-adv-x="320" d="M17 640q0 20 14 34t33 14q20 0 34 -14t14 -34q0 -19 -14 -33t-34 -14q-19 0 -33 13.5t-14 33.5zM207 640q0 20 14 34t33 14q20 0 34 -14t14 -34q0 -19 -14 -33t-34 -14q-19 0 -33 13.5t-14 33.5z" />
<glyph unicode="&#xa9;" horiz-adv-x="826" d="M593 249q-29 -48 -76 -75.5t-103 -27.5q-44 0 -82 16.5t-66 45.5t-44.5 67t-16.5 82t16.5 82.5t44.5 67t66 45t82 16.5q55 0 101.5 -26.5t75.5 -75.5l-53 -36q-20 35 -53 54.5t-71 19.5q-30 0 -56 -11.5t-45.5 -32t-30.5 -47t-11 -56.5t11 -56.5t30.5 -46.5t45.5 -31.5 t56 -11.5q39 0 71.5 19.5t53.5 53.5zM37 357q0 78 29.5 146.5t80.5 119.5t119.5 80.5t146.5 29.5t146.5 -29.5t119.5 -80.5t80.5 -119.5t29.5 -146.5t-29.5 -146.5t-80.5 -119.5t-119.5 -80.5t-146.5 -29.5t-146.5 29.5t-119.5 80.5t-80.5 119.5t-29.5 146.5zM88 357 q0 -68 25.5 -127t70 -103.5t103.5 -70t126 -25.5t126.5 25.5t104 70t70 103.5t25.5 127q0 67 -25.5 126t-70 103.5t-104 70t-126.5 25.5t-126 -25.5t-103.5 -70t-70 -103.5t-25.5 -126z" />
<glyph unicode="&#xaa;" horiz-adv-x="441" d="M393 383q-9 -5 -22 -6t-21 -1q-25 0 -44 10t-25 36q-24 -29 -54 -39t-63 -10q-50 0 -83 27t-33 75q0 38 16.5 58.5t41.5 30t54 12.5t54 6.5t41.5 11t16.5 26.5q0 12 -6.5 20t-17 13t-24 7t-26.5 2q-27 0 -54.5 -8.5t-50.5 -25.5l-31 47q31 22 66.5 33.5t72.5 11.5 q72 0 104.5 -31t32.5 -100v-131q0 -16 5 -23t19 -7q4 0 10 1.5t11 3.5zM274 559q-15 -14 -34 -19.5t-50 -10.5q-33 -5 -55 -13.5t-22 -37.5q0 -26 19.5 -38t45.5 -12q18 0 35.5 5t31 15t21.5 25.5t8 36.5v49z" />
<glyph unicode="&#xab;" horiz-adv-x="464" d="M32 275l144 192l51 -40l-121 -167l121 -168l-51 -39l-144 192v30zM220 275l144 192l52 -40l-122 -167l122 -168l-52 -39l-144 192v30z" />
<glyph unicode="&#xac;" horiz-adv-x="593" d="M455 66v200h-400v76h476v-276h-76z" />
<glyph unicode="&#xad;" horiz-adv-x="382" d="M62 266v76h258v-76h-258z" />
<glyph unicode="&#xae;" horiz-adv-x="460" d="M316 443h-41l-38 72h-46v-72h-36v194h89q29 0 47.5 -16.5t18.5 -44.5q0 -20 -11 -35t-28 -21zM274 576q0 14 -9.5 22.5t-20.5 8.5h-53v-62h53q11 0 20.5 8.5t9.5 22.5zM42 539q0 39 14.5 73t40 59.5t60 40.5t73.5 15t73 -15t59.5 -40.5t40.5 -59.5t15 -73t-15 -73.5 t-40.5 -60t-59.5 -40t-73 -14.5t-73.5 14.5t-60 40t-40 60t-14.5 73.5zM67 539q0 -34 13 -63.5t35 -51.5t51.5 -35t63.5 -13t63.5 13t51.5 35t35 51.5t13 63.5t-13 63.5t-35 51.5t-51.5 35t-63.5 13t-63.5 -13t-51.5 -35t-35 -51.5t-13 -63.5z" />
<glyph unicode="&#xaf;" horiz-adv-x="328" d="M13 608v58h300v-58h-300z" />
<glyph unicode="&#xb0;" horiz-adv-x="383" d="M40 574q0 31 12 58.5t32 48t47.5 32.5t58.5 12t58.5 -12t48 -32.5t32.5 -48t12 -58.5t-12 -58.5t-32.5 -47.5t-48 -32t-58.5 -12t-58.5 12t-47.5 32t-32 47.5t-12 58.5zM98 574q0 -19 7 -36t19.5 -29.5t29.5 -19.5t36 -7t36 7t29.5 19.5t20 29.5t7.5 36t-7.5 36t-20 29.5 t-29.5 20t-36 7.5t-36 -7.5t-29.5 -20t-19.5 -29.5t-7 -36z" />
<glyph unicode="&#xb1;" horiz-adv-x="596" d="M38 0v76h520v-76h-520zM336 416v-222h-76v222h-222v76h222v222h76v-222h222v-76h-222z" />
<glyph unicode="&#xb2;" d="M61 384v54q62 49 104.5 84.5t68.5 63.5t37.5 50t11.5 43q0 35 -25.5 53t-58.5 18q-31 0 -55.5 -15.5t-40.5 -38.5l-55 33q28 39 66.5 62.5t89.5 23.5q33 0 60.5 -9t48 -26t32 -41.5t11.5 -55.5q0 -29 -9 -53t-30.5 -50t-57 -57.5t-89.5 -74.5h202v-64h-311z" />
<glyph unicode="&#xb3;" d="M372 505q0 -29 -11.5 -52.5t-32.5 -40.5t-49.5 -26.5t-62.5 -9.5q-59 0 -101 22t-67 72l64 24q17 -31 45 -42t59 -11q40 0 62 19t22 48q0 28 -19.5 43.5t-54.5 15.5h-55v63h52q10 0 22 3t22 10t16.5 18.5t6.5 27.5q0 32 -25.5 46.5t-57.5 14.5q-65 0 -98 -48l-54 34 q56 79 157 79q31 0 57.5 -7.5t46.5 -22.5t31.5 -37t11.5 -50t-12 -52t-39 -40q37 -14 50.5 -43t13.5 -58z" />
<glyph unicode="&#xb4;" horiz-adv-x="320" d="M102 590l93 150l65 -32l-90 -118h-68z" />
<glyph unicode="&#xb6;" horiz-adv-x="555" d="M426 -174v831h-65v-831h-63v478h-58q-44 0 -81.5 14.5t-65 41t-43 64.5t-15.5 85t16 84.5t44 64t65.5 41t79.5 14.5h236v-887h-50z" />
<glyph unicode="&#xb7;" horiz-adv-x="197" d="M162 260q0 -26 -18.5 -45t-44.5 -19t-45.5 18.5t-19.5 45.5q0 26 19.5 45.5t45.5 19.5t44.5 -19.5t18.5 -45.5z" />
<glyph unicode="&#xb8;" horiz-adv-x="320" d="M130 -25q14 5 31 5q41 0 62.5 -21t21.5 -53q0 -37 -30.5 -63.5t-87.5 -26.5q-25 0 -44 5.5t-26 10.5l9 45q8 -5 21 -8.5t28 -3.5q24 0 39.5 7.5t15.5 24.5q0 11 -10 18.5t-40 7.5z" />
<glyph unicode="&#xb9;" d="M187 447v278q-18 -8 -48 -15t-60 -11l-10 54q48 9 81 21.5t54 32.5h52v-360h94v-63h-271v63h108z" />
<glyph unicode="&#xba;" horiz-adv-x="425" d="M383 547q0 -37 -12 -69t-34 -55t-54 -36.5t-71 -13.5t-70.5 13.5t-53.5 36.5t-34 55t-12 69t12 69t34 55t53.5 36t70.5 13t71 -13t54 -36t34 -55t12 -69zM314 547q0 48 -26 80.5t-76 32.5q-48 0 -75 -32.5t-27 -80.5t27 -80.5t75 -32.5q50 0 76 32.5t26 80.5z" />
<glyph unicode="&#xbb;" horiz-adv-x="464" d="M431 245l-143 -192l-52 39l122 168l-122 167l52 40l143 -192v-30zM243 245l-143 -192l-52 39l121 168l-121 167l52 40l143 -192v-30z" />
<glyph unicode="&#xbc;" horiz-adv-x="1040" d="M187 354v278q-18 -8 -48 -15t-60 -11l-10 54q48 9 81 21.5t54 32.5h52v-360h94v-63h-271v63h108zM938 96v-96h-68v96h-211v57q17 30 32.5 64t26.5 69t18 69.5t8 66.5h68q-2 -63 -25 -133.5t-56 -130.5h140v169h67v-169h63v-62h-63zM312 0h-66l481 714h66z" />
<glyph unicode="&#xbd;" horiz-adv-x="1040" d="M187 354v278q-18 -8 -48 -15t-60 -11l-10 54q48 9 81 21.5t54 32.5h52v-360h94v-63h-271v63h108zM681 0v53q62 49 104.5 85t68.5 64t37.5 50t11.5 43q0 35 -25.5 53t-58.5 18q-31 0 -55.5 -15.5t-40.5 -39.5l-55 34q28 38 66.5 61.5t89.5 23.5q33 0 60.5 -9t48 -25.5 t32 -41.5t11.5 -56q0 -28 -9 -52t-30.5 -50.5t-57 -58t-89.5 -74.5h202v-63h-311zM312 0h-66l481 714h66z" />
<glyph unicode="&#xbe;" horiz-adv-x="1040" d="M372 412q0 -29 -11.5 -52.5t-32.5 -40.5t-49.5 -26.5t-62.5 -9.5q-59 0 -101 22t-67 72l64 24q17 -31 45 -42t59 -11q40 0 62 19t22 48q0 28 -19.5 43.5t-54.5 15.5h-55v63h52q10 0 22 3t22 10t16.5 18.5t6.5 27.5q0 32 -25.5 46.5t-57.5 14.5q-65 0 -98 -48l-54 34 q56 79 157 79q31 0 57.5 -7.5t46.5 -22.5t31.5 -37t11.5 -50t-12 -52t-39 -40q37 -14 50.5 -43t13.5 -58zM938 96v-96h-68v96h-211v57q17 30 32.5 64t26.5 69t18 69.5t8 66.5h68q-2 -63 -25 -133.5t-56 -130.5h140v169h67v-169h63v-62h-63zM312 0h-66l481 714h66z" />
<glyph unicode="&#xbf;" horiz-adv-x="512" d="M55 13q0 44 15.5 75.5t38.5 55t50.5 41t50.5 34t38.5 34.5t15.5 43v23h84v-25q0 -37 -14.5 -63t-36.5 -46t-47.5 -36.5t-47.5 -35t-36.5 -42t-14.5 -56.5q0 -23 8 -44t24.5 -37t41.5 -25t59 -9q47 0 84.5 17t70.5 46l52 -63q-45 -39 -97.5 -61.5t-114.5 -22.5 q-48 0 -89 14t-71 39.5t-47 62t-17 81.5zM367 467q0 -26 -18.5 -44.5t-44.5 -18.5t-44.5 18.5t-18.5 44.5t18.5 44.5t44.5 18.5t44.5 -18.5t18.5 -44.5z" />
<glyph unicode="&#xc0;" horiz-adv-x="680" d="M564 0l-74 203h-304l-75 -203h-100l275 714h109l275 -714h-106zM340 625l-125 -339h245zM319 758l-90 118l65 32l93 -150h-68z" />
<glyph unicode="&#xc1;" horiz-adv-x="680" d="M564 0l-74 203h-304l-75 -203h-100l275 714h109l275 -714h-106zM340 625l-125 -339h245zM287 758l93 150l65 -32l-90 -118h-68z" />
<glyph unicode="&#xc2;" horiz-adv-x="680" d="M564 0l-74 203h-304l-75 -203h-100l275 714h109l275 -714h-106zM340 625l-125 -339h245zM375 893q26 -26 54 -52.5t63 -52.5l-28 -38l-123 73l-122 -73l-29 38q35 26 63 52.5t54 52.5h68z" />
<glyph unicode="&#xc3;" horiz-adv-x="680" d="M564 0l-74 203h-304l-75 -203h-100l275 714h109l275 -714h-106zM340 625l-125 -339h245zM504 847q-14 -38 -39.5 -60.5t-56.5 -22.5q-17 0 -34 6t-33.5 13t-32 13t-29.5 6q-17 0 -33 -8.5t-33 -28.5l-35 23q14 38 39.5 60.5t56.5 22.5q17 0 34 -6t33.5 -13t32 -13 t30.5 -6q17 0 32.5 8.5t32.5 28.5z" />
<glyph unicode="&#xc4;" horiz-adv-x="680" d="M564 0l-74 203h-304l-75 -203h-100l275 714h109l275 -714h-106zM340 625l-125 -339h245zM196 808q0 20 14 34t33 14q20 0 34 -14t14 -34q0 -19 -14 -33t-34 -14q-19 0 -33 13.5t-14 33.5zM386 808q0 20 14 34t33 14q20 0 34 -14t14 -34q0 -19 -14 -33t-34 -14 q-19 0 -33 13.5t-14 33.5z" />
<glyph unicode="&#xc5;" horiz-adv-x="680" d="M383 730q0 18 -12.5 31t-29.5 13q-18 0 -30.5 -13t-12.5 -31q0 -17 12.5 -29.5t30.5 -12.5q17 0 29.5 12.5t12.5 29.5zM340 625l-125 -339h245zM564 0l-74 203h-304l-75 -203h-100l261 676q-22 22 -22 54q0 38 26.5 65t64.5 27t64.5 -27t26.5 -65q0 -16 -6 -30t-16 -24 l260 -676h-106z" />
<glyph unicode="&#xc6;" horiz-adv-x="894" d="M414 0v203h-219l-83 -203h-101l300 714h525v-87h-327v-209h286v-82h-286v-249h337v-87h-432zM414 631h-43l-141 -345h184v345z" />
<glyph unicode="&#xc7;" horiz-adv-x="698" d="M586 534q-32 51 -82.5 78.5t-115.5 27.5q-56 0 -100.5 -20.5t-76 -57.5t-48 -89.5t-16.5 -115.5q0 -64 17 -116.5t49 -89.5t77 -57t102 -20q66 0 113.5 27.5t83.5 79.5l75 -51q-49 -70 -116 -106.5t-156 -36.5q-78 0 -141.5 27.5t-108.5 76.5t-69.5 117t-24.5 149 q0 80 24.5 148t69 117.5t107 77t138.5 27.5q88 0 157.5 -37t115.5 -104zM332 -25q14 5 31 5q41 0 62.5 -21t21.5 -53q0 -37 -30.5 -63.5t-87.5 -26.5q-25 0 -44 5.5t-26 10.5l9 45q8 -5 21 -8.5t28 -3.5q24 0 39.5 7.5t15.5 24.5q0 11 -10 18.5t-40 7.5z" />
<glyph unicode="&#xc8;" horiz-adv-x="632" d="M90 0v714h484v-87h-391v-211h348v-82h-348v-247h401v-87h-494zM320 758l-90 118l65 32l93 -150h-68z" />
<glyph unicode="&#xc9;" horiz-adv-x="632" d="M90 0v714h484v-87h-391v-211h348v-82h-348v-247h401v-87h-494zM285 758l93 150l65 -32l-90 -118h-68z" />
<glyph unicode="&#xca;" horiz-adv-x="632" d="M90 0v714h484v-87h-391v-211h348v-82h-348v-247h401v-87h-494zM364 893q26 -26 54 -52.5t63 -52.5l-28 -38l-123 73l-122 -73l-29 38q35 26 63 52.5t54 52.5h68z" />
<glyph unicode="&#xcb;" horiz-adv-x="632" d="M90 0v714h484v-87h-391v-211h348v-82h-348v-247h401v-87h-494zM187 808q0 20 14 34t33 14q20 0 34 -14t14 -34q0 -19 -14 -33t-34 -14q-19 0 -33 13.5t-14 33.5zM377 808q0 20 14 34t33 14q20 0 34 -14t14 -34q0 -19 -14 -33t-34 -14q-19 0 -33 13.5t-14 33.5z" />
<glyph unicode="&#xcc;" horiz-adv-x="273" d="M90 0v714h93v-714h-93zM113 758l-90 118l65 32l93 -150h-68z" />
<glyph unicode="&#xcd;" horiz-adv-x="273" d="M90 0v714h93v-714h-93zM90 758l93 150l65 -32l-90 -118h-68z" />
<glyph unicode="&#xce;" horiz-adv-x="273" d="M90 0v714h93v-714h-93zM171 893q26 -26 54 -52.5t63 -52.5l-28 -38l-123 73l-122 -73l-29 38q35 26 63 52.5t54 52.5h68z" />
<glyph unicode="&#xcf;" horiz-adv-x="273" d="M90 0v714h93v-714h-93zM-6 808q0 20 14 34t33 14q20 0 34 -14t14 -34q0 -19 -14 -33t-34 -14q-19 0 -33 13.5t-14 33.5zM184 808q0 20 14 34t33 14q20 0 34 -14t14 -34q0 -19 -14 -33t-34 -14q-19 0 -33 13.5t-14 33.5z" />
<glyph unicode="&#xd0;" horiz-adv-x="756" d="M707 357q0 -78 -21.5 -143.5t-64 -113t-104.5 -74t-143 -26.5h-275v327h-62v77h62v310h275q81 0 143 -26.5t104.5 -74t64 -113t21.5 -143.5zM607 357q0 129 -61.5 199.5t-172.5 70.5h-180v-223h196v-77h-196v-240h180q111 0 172.5 70.5t61.5 199.5z" />
<glyph unicode="&#xd1;" horiz-adv-x="753" d="M554 0l-375 594v-594h-89v714h117l366 -580v580h90v-714h-109zM548 847q-14 -38 -39.5 -60.5t-56.5 -22.5q-17 0 -34 6t-33.5 13t-32 13t-29.5 6q-17 0 -33 -8.5t-33 -28.5l-35 23q14 38 39.5 60.5t56.5 22.5q17 0 34 -6t33.5 -13t32 -13t30.5 -6q17 0 32.5 8.5 t32.5 28.5z" />
<glyph unicode="&#xd2;" horiz-adv-x="775" d="M728 357q0 -79 -24 -146.5t-68 -117t-107 -78t-141 -28.5t-141 28.5t-107.5 78t-68.5 117t-24 146.5t24 147t68.5 117.5t107.5 77.5t141 28t141 -28t107 -77.5t68 -117.5t24 -147zM630 357q0 62 -16.5 114t-48 89t-76.5 57.5t-101 20.5q-57 0 -101.5 -20.5t-76 -57.5 t-48 -89t-16.5 -114t16.5 -114t48 -89t76 -57.5t101.5 -20.5q56 0 101 20.5t76.5 57.5t48 89t16.5 114zM364 758l-90 118l65 32l93 -150h-68z" />
<glyph unicode="&#xd3;" horiz-adv-x="775" d="M728 357q0 -79 -24 -146.5t-68 -117t-107 -78t-141 -28.5t-141 28.5t-107.5 78t-68.5 117t-24 146.5t24 147t68.5 117.5t107.5 77.5t141 28t141 -28t107 -77.5t68 -117.5t24 -147zM630 357q0 62 -16.5 114t-48 89t-76.5 57.5t-101 20.5q-57 0 -101.5 -20.5t-76 -57.5 t-48 -89t-16.5 -114t16.5 -114t48 -89t76 -57.5t101.5 -20.5q56 0 101 20.5t76.5 57.5t48 89t16.5 114zM338 758l93 150l65 -32l-90 -118h-68z" />
<glyph unicode="&#xd4;" horiz-adv-x="775" d="M728 357q0 -79 -24 -146.5t-68 -117t-107 -78t-141 -28.5t-141 28.5t-107.5 78t-68.5 117t-24 146.5t24 147t68.5 117.5t107.5 77.5t141 28t141 -28t107 -77.5t68 -117.5t24 -147zM630 357q0 62 -16.5 114t-48 89t-76.5 57.5t-101 20.5q-57 0 -101.5 -20.5t-76 -57.5 t-48 -89t-16.5 -114t16.5 -114t48 -89t76 -57.5t101.5 -20.5q56 0 101 20.5t76.5 57.5t48 89t16.5 114zM421 893q26 -26 54 -52.5t63 -52.5l-28 -38l-123 73l-122 -73l-29 38q35 26 63 52.5t54 52.5h68z" />
<glyph unicode="&#xd5;" horiz-adv-x="775" d="M728 357q0 -79 -24 -146.5t-68 -117t-107 -78t-141 -28.5t-141 28.5t-107.5 78t-68.5 117t-24 146.5t24 147t68.5 117.5t107.5 77.5t141 28t141 -28t107 -77.5t68 -117.5t24 -147zM630 357q0 62 -16.5 114t-48 89t-76.5 57.5t-101 20.5q-57 0 -101.5 -20.5t-76 -57.5 t-48 -89t-16.5 -114t16.5 -114t48 -89t76 -57.5t101.5 -20.5q56 0 101 20.5t76.5 57.5t48 89t16.5 114zM550 847q-14 -38 -39.5 -60.5t-56.5 -22.5q-17 0 -34 6t-33.5 13t-32 13t-29.5 6q-17 0 -33 -8.5t-33 -28.5l-35 23q14 38 39.5 60.5t56.5 22.5q17 0 34 -6t33.5 -13 t32 -13t30.5 -6q17 0 32.5 8.5t32.5 28.5z" />
<glyph unicode="&#xd6;" horiz-adv-x="775" d="M728 357q0 -79 -24 -146.5t-68 -117t-107 -78t-141 -28.5t-141 28.5t-107.5 78t-68.5 117t-24 146.5t24 147t68.5 117.5t107.5 77.5t141 28t141 -28t107 -77.5t68 -117.5t24 -147zM630 357q0 62 -16.5 114t-48 89t-76.5 57.5t-101 20.5q-57 0 -101.5 -20.5t-76 -57.5 t-48 -89t-16.5 -114t16.5 -114t48 -89t76 -57.5t101.5 -20.5q56 0 101 20.5t76.5 57.5t48 89t16.5 114zM245 808q0 20 14 34t33 14q20 0 34 -14t14 -34q0 -19 -14 -33t-34 -14q-19 0 -33 13.5t-14 33.5zM435 808q0 20 14 34t33 14q20 0 34 -14t14 -34q0 -19 -14 -33t-34 -14 q-19 0 -33 13.5t-14 33.5z" />
<glyph unicode="&#xd7;" horiz-adv-x="596" d="M352 260l212 -212l-54 -54l-212 212l-212 -212l-54 54l212 212l-212 212l54 54l212 -212l212 212l54 -54z" />
<glyph unicode="&#xd8;" horiz-adv-x="775" d="M119 22l37 53q-52 51 -80.5 123t-28.5 159q0 79 24 147t68.5 117.5t107.5 77.5t141 28q54 0 101 -14t86 -40l35 51l46 -33l-37 -53q53 -50 81 -122t28 -159q0 -79 -24 -146.5t-68 -117t-107 -78t-141 -28.5q-55 0 -102 13.5t-85 39.5l-36 -50zM630 357q0 63 -17 114 t-49 88l-311 -444q55 -40 135 -40q56 0 101 20.5t76.5 58t48 89.5t16.5 114zM146 357q0 -63 16.5 -115t48.5 -89l311 445q-28 19 -61.5 29.5t-72.5 10.5q-57 0 -101.5 -20.5t-76 -57.5t-48 -89t-16.5 -114z" />
<glyph unicode="&#xd9;" horiz-adv-x="717" d="M635 259q0 -62 -21 -112.5t-58 -86t-88 -54.5t-111 -19t-110.5 19t-87 54.5t-57 86t-20.5 112.5v455h93v-455q0 -84 48.5 -134t133.5 -50q42 0 76 13t58 37t37 58t13 76v455h94v-455zM343 758l-90 118l65 32l93 -150h-68z" />
<glyph unicode="&#xda;" horiz-adv-x="717" d="M635 259q0 -62 -21 -112.5t-58 -86t-88 -54.5t-111 -19t-110.5 19t-87 54.5t-57 86t-20.5 112.5v455h93v-455q0 -84 48.5 -134t133.5 -50q42 0 76 13t58 37t37 58t13 76v455h94v-455zM316 758l93 150l65 -32l-90 -118h-68z" />
<glyph unicode="&#xdb;" horiz-adv-x="717" d="M635 259q0 -62 -21 -112.5t-58 -86t-88 -54.5t-111 -19t-110.5 19t-87 54.5t-57 86t-20.5 112.5v455h93v-455q0 -84 48.5 -134t133.5 -50q42 0 76 13t58 37t37 58t13 76v455h94v-455zM393 893q26 -26 54 -52.5t63 -52.5l-28 -38l-123 73l-122 -73l-29 38q35 26 63 52.5 t54 52.5h68z" />
<glyph unicode="&#xdc;" horiz-adv-x="717" d="M635 259q0 -62 -21 -112.5t-58 -86t-88 -54.5t-111 -19t-110.5 19t-87 54.5t-57 86t-20.5 112.5v455h93v-455q0 -84 48.5 -134t133.5 -50q42 0 76 13t58 37t37 58t13 76v455h94v-455zM216 808q0 20 14 34t33 14q20 0 34 -14t14 -34q0 -19 -14 -33t-34 -14q-19 0 -33 13.5 t-14 33.5zM406 808q0 20 14 34t33 14q20 0 34 -14t14 -34q0 -19 -14 -33t-34 -14q-19 0 -33 13.5t-14 33.5z" />
<glyph unicode="&#xdd;" horiz-adv-x="614" d="M356 299v-299h-96v298l-254 416h109l195 -327l194 327h106zM272 758l93 150l65 -32l-90 -118h-68z" />
<glyph unicode="&#xde;" horiz-adv-x="646" d="M183 191v-191h-93v714h93v-97h187q60 0 105.5 -15.5t77 -43t47.5 -67t16 -87.5t-16 -87.5t-47.5 -67t-77 -43t-105.5 -15.5h-187zM370 278q76 0 112.5 34t36.5 92t-37 92t-112 34h-187v-252h187z" />
<glyph unicode="&#xdf;" horiz-adv-x="618" d="M575 202q0 -50 -16.5 -90t-46.5 -67.5t-73.5 -42t-97.5 -14.5q-26 0 -57 5t-54 15l20 78q19 -11 43.5 -15.5t42.5 -4.5q72 0 110 39t38 103q0 71 -44.5 103.5t-116.5 32.5h-59v76h41q27 0 51 7t42 21t28.5 36t10.5 51q0 31 -11 52.5t-30 35t-44 20t-52 6.5 q-28 0 -53 -7.5t-43.5 -22.5t-29.5 -37t-11 -50v-532h-85v533q0 45 16.5 80.5t46.5 60t71.5 38t91.5 13.5q46 0 87 -12t71 -34.5t47.5 -56t17.5 -75.5q0 -49 -21.5 -86.5t-77.5 -67.5q75 -24 111 -73.5t36 -117.5z" />
<glyph unicode="&#xe0;" horiz-adv-x="567" d="M555 2q-13 -5 -30 -7.5t-30 -2.5q-37 0 -66 19t-35 64q-35 -50 -83 -68.5t-96 -18.5q-81 0 -129 41.5t-48 116.5q0 45 17.5 74t44.5 46t58.5 24.5t59.5 11.5q30 4 59.5 7.5t53 10.5t38 20.5t14.5 38.5q0 22 -10.5 36.5t-27.5 23.5t-38 12.5t-42 3.5q-42 0 -84 -14 t-78 -41l-40 66q46 32 96 49t112 17q44 0 81 -9.5t63.5 -30.5t41.5 -53t15 -77v-246q0 -56 41 -56q20 0 31 8zM385 290q-13 -17 -29 -25.5t-35 -13.5t-40.5 -8t-45.5 -7q-22 -4 -41.5 -9t-34.5 -14.5t-23.5 -25t-8.5 -39.5q0 -47 31.5 -67.5t76.5 -20.5q28 0 55 8t48 25 t34 43.5t13 63.5v90zM251 590l-90 118l65 32l93 -150h-68z" />
<glyph unicode="&#xe1;" horiz-adv-x="567" d="M555 2q-13 -5 -30 -7.5t-30 -2.5q-37 0 -66 19t-35 64q-35 -50 -83 -68.5t-96 -18.5q-81 0 -129 41.5t-48 116.5q0 45 17.5 74t44.5 46t58.5 24.5t59.5 11.5q30 4 59.5 7.5t53 10.5t38 20.5t14.5 38.5q0 22 -10.5 36.5t-27.5 23.5t-38 12.5t-42 3.5q-42 0 -84 -14 t-78 -41l-40 66q46 32 96 49t112 17q44 0 81 -9.5t63.5 -30.5t41.5 -53t15 -77v-246q0 -56 41 -56q20 0 31 8zM385 290q-13 -17 -29 -25.5t-35 -13.5t-40.5 -8t-45.5 -7q-22 -4 -41.5 -9t-34.5 -14.5t-23.5 -25t-8.5 -39.5q0 -47 31.5 -67.5t76.5 -20.5q28 0 55 8t48 25 t34 43.5t13 63.5v90zM225 590l93 150l65 -32l-90 -118h-68z" />
<glyph unicode="&#xe2;" horiz-adv-x="567" d="M555 2q-13 -5 -30 -7.5t-30 -2.5q-37 0 -66 19t-35 64q-35 -50 -83 -68.5t-96 -18.5q-81 0 -129 41.5t-48 116.5q0 45 17.5 74t44.5 46t58.5 24.5t59.5 11.5q30 4 59.5 7.5t53 10.5t38 20.5t14.5 38.5q0 22 -10.5 36.5t-27.5 23.5t-38 12.5t-42 3.5q-42 0 -84 -14 t-78 -41l-40 66q46 32 96 49t112 17q44 0 81 -9.5t63.5 -30.5t41.5 -53t15 -77v-246q0 -56 41 -56q20 0 31 8zM385 290q-13 -17 -29 -25.5t-35 -13.5t-40.5 -8t-45.5 -7q-22 -4 -41.5 -9t-34.5 -14.5t-23.5 -25t-8.5 -39.5q0 -47 31.5 -67.5t76.5 -20.5q28 0 55 8t48 25 t34 43.5t13 63.5v90zM297 725q26 -26 54 -52.5t63 -52.5l-28 -38l-123 73l-122 -73l-29 38q35 26 63 52.5t54 52.5h68z" />
<glyph unicode="&#xe3;" horiz-adv-x="567" d="M555 2q-13 -5 -30 -7.5t-30 -2.5q-37 0 -66 19t-35 64q-35 -50 -83 -68.5t-96 -18.5q-81 0 -129 41.5t-48 116.5q0 45 17.5 74t44.5 46t58.5 24.5t59.5 11.5q30 4 59.5 7.5t53 10.5t38 20.5t14.5 38.5q0 22 -10.5 36.5t-27.5 23.5t-38 12.5t-42 3.5q-42 0 -84 -14 t-78 -41l-40 66q46 32 96 49t112 17q44 0 81 -9.5t63.5 -30.5t41.5 -53t15 -77v-246q0 -56 41 -56q20 0 31 8zM385 290q-13 -17 -29 -25.5t-35 -13.5t-40.5 -8t-45.5 -7q-22 -4 -41.5 -9t-34.5 -14.5t-23.5 -25t-8.5 -39.5q0 -47 31.5 -67.5t76.5 -20.5q28 0 55 8t48 25 t34 43.5t13 63.5v90zM430 679q-14 -38 -39.5 -60.5t-56.5 -22.5q-17 0 -34 6t-33.5 13t-32 13t-29.5 6q-17 0 -33 -8.5t-33 -28.5l-35 23q14 38 39.5 60.5t56.5 22.5q17 0 34 -6t33.5 -13t32 -13t30.5 -6q17 0 32.5 8.5t32.5 28.5z" />
<glyph unicode="&#xe4;" horiz-adv-x="567" d="M555 2q-13 -5 -30 -7.5t-30 -2.5q-37 0 -66 19t-35 64q-35 -50 -83 -68.5t-96 -18.5q-81 0 -129 41.5t-48 116.5q0 45 17.5 74t44.5 46t58.5 24.5t59.5 11.5q30 4 59.5 7.5t53 10.5t38 20.5t14.5 38.5q0 22 -10.5 36.5t-27.5 23.5t-38 12.5t-42 3.5q-42 0 -84 -14 t-78 -41l-40 66q46 32 96 49t112 17q44 0 81 -9.5t63.5 -30.5t41.5 -53t15 -77v-246q0 -56 41 -56q20 0 31 8zM385 290q-13 -17 -29 -25.5t-35 -13.5t-40.5 -8t-45.5 -7q-22 -4 -41.5 -9t-34.5 -14.5t-23.5 -25t-8.5 -39.5q0 -47 31.5 -67.5t76.5 -20.5q28 0 55 8t48 25 t34 43.5t13 63.5v90zM125 640q0 20 14 34t33 14q20 0 34 -14t14 -34q0 -19 -14 -33t-34 -14q-19 0 -33 13.5t-14 33.5zM315 640q0 20 14 34t33 14q20 0 34 -14t14 -34q0 -19 -14 -33t-34 -14q-19 0 -33 13.5t-14 33.5z" />
<glyph unicode="&#xe5;" horiz-adv-x="567" d="M555 2q-13 -5 -30 -7.5t-30 -2.5q-37 0 -66 19t-35 64q-35 -50 -83 -68.5t-96 -18.5q-81 0 -129 41.5t-48 116.5q0 45 17.5 74t44.5 46t58.5 24.5t59.5 11.5q30 4 59.5 7.5t53 10.5t38 20.5t14.5 38.5q0 22 -10.5 36.5t-27.5 23.5t-38 12.5t-42 3.5q-42 0 -84 -14 t-78 -41l-40 66q46 32 96 49t112 17q44 0 81 -9.5t63.5 -30.5t41.5 -53t15 -77v-246q0 -56 41 -56q20 0 31 8zM385 290q-13 -17 -29 -25.5t-35 -13.5t-40.5 -8t-45.5 -7q-22 -4 -41.5 -9t-34.5 -14.5t-23.5 -25t-8.5 -39.5q0 -47 31.5 -67.5t76.5 -20.5q28 0 55 8t48 25 t34 43.5t13 63.5v90zM373 679q0 -21 -8 -39.5t-22.5 -32.5t-34 -22t-41.5 -8q-23 0 -42 8t-33.5 22t-22.5 32.5t-8 39.5t8 39.5t22.5 33t33.5 22.5t42 8q22 0 41.5 -8t34 -22.5t22.5 -33t8 -39.5zM323 679q0 23 -16.5 40t-39.5 17t-40 -17t-17 -40q0 -24 17 -40.5t40 -16.5 t39.5 16.5t16.5 40.5z" />
<glyph unicode="&#xe6;" horiz-adv-x="917" d="M385 290q-13 -17 -29 -25.5t-35 -13.5t-40.5 -8t-45.5 -7q-22 -4 -41.5 -9t-34.5 -14.5t-23.5 -25t-8.5 -39.5q0 -47 31.5 -67.5t76.5 -20.5q28 0 55 8t48 25t34 43.5t13 63.5v90zM856 79q-41 -43 -93 -67t-121 -24t-123.5 26.5t-88.5 80.5q-30 -52 -80 -79.5t-119 -27.5 q-43 0 -78.5 10.5t-61 30.5t-39.5 49.5t-14 68.5q0 45 17.5 73t44.5 45t58.5 25t59.5 12q31 4 61 7.5t53 11t37 21t14 37.5q0 22 -10.5 36.5t-27.5 23.5t-38 12.5t-41 3.5q-43 0 -85 -14t-78 -41l-40 66q44 31 94.5 48.5t109.5 17.5q57 0 105.5 -19.5t74.5 -69.5 q38 48 84 68.5t100 20.5q57 0 102.5 -20t78 -55t49.5 -82.5t17 -101.5q0 -12 -0.5 -20.5t-1.5 -13.5h-408q4 -81 51.5 -126t123.5 -45q47 0 85.5 17.5t68.5 50.5zM789 306q-7 75 -52 113t-108 38q-34 0 -62 -11t-49 -31.5t-33 -48t-15 -60.5h319z" />
<glyph unicode="&#xe7;" horiz-adv-x="536" d="M506 97q-33 -48 -85.5 -78.5t-124.5 -30.5q-58 0 -104.5 20.5t-79.5 57t-50.5 86.5t-17.5 108t17.5 108t50.5 86.5t79.5 57t104.5 20.5q69 0 121 -29.5t86 -78.5l-65 -52q-23 38 -57.5 59.5t-81.5 21.5q-38 0 -68 -14.5t-51 -40.5t-32.5 -61.5t-11.5 -76.5 q0 -42 11.5 -77t32.5 -61t51 -40.5t67 -14.5q50 0 84 22t57 56zM239 -25q14 5 31 5q41 0 62.5 -21t21.5 -53q0 -37 -30.5 -63.5t-87.5 -26.5q-25 0 -44 5.5t-26 10.5l9 45q8 -5 21 -8.5t28 -3.5q24 0 39.5 7.5t15.5 24.5q0 11 -10 18.5t-40 7.5z" />
<glyph unicode="&#xe8;" horiz-adv-x="586" d="M547 273q0 -12 -0.5 -20.5t-1.5 -13.5h-408q4 -81 51 -126t124 -45q91 0 154 68l58 -57q-40 -43 -92.5 -67t-121.5 -24q-63 0 -112.5 20.5t-83.5 56.5t-52 85.5t-18 107.5q0 57 17.5 107t50.5 87t80 58.5t107 21.5q57 0 103 -20t78.5 -55t49.5 -82.5t17 -101.5zM457 306 q-7 75 -52 113t-107 38q-34 0 -62 -11t-49 -31.5t-33 -48t-15 -60.5h318zM277 590l-90 118l65 32l93 -150h-68z" />
<glyph unicode="&#xe9;" horiz-adv-x="586" d="M547 273q0 -12 -0.5 -20.5t-1.5 -13.5h-408q4 -81 51 -126t124 -45q91 0 154 68l58 -57q-40 -43 -92.5 -67t-121.5 -24q-63 0 -112.5 20.5t-83.5 56.5t-52 85.5t-18 107.5q0 57 17.5 107t50.5 87t80 58.5t107 21.5q57 0 103 -20t78.5 -55t49.5 -82.5t17 -101.5zM457 306 q-7 75 -52 113t-107 38q-34 0 -62 -11t-49 -31.5t-33 -48t-15 -60.5h318zM250 590l93 150l65 -32l-90 -118h-68z" />
<glyph unicode="&#xea;" horiz-adv-x="586" d="M547 273q0 -12 -0.5 -20.5t-1.5 -13.5h-408q4 -81 51 -126t124 -45q91 0 154 68l58 -57q-40 -43 -92.5 -67t-121.5 -24q-63 0 -112.5 20.5t-83.5 56.5t-52 85.5t-18 107.5q0 57 17.5 107t50.5 87t80 58.5t107 21.5q57 0 103 -20t78.5 -55t49.5 -82.5t17 -101.5zM457 306 q-7 75 -52 113t-107 38q-34 0 -62 -11t-49 -31.5t-33 -48t-15 -60.5h318zM329 725q26 -26 54 -52.5t63 -52.5l-28 -38l-123 73l-122 -73l-29 38q35 26 63 52.5t54 52.5h68z" />
<glyph unicode="&#xeb;" horiz-adv-x="586" d="M547 273q0 -12 -0.5 -20.5t-1.5 -13.5h-408q4 -81 51 -126t124 -45q91 0 154 68l58 -57q-40 -43 -92.5 -67t-121.5 -24q-63 0 -112.5 20.5t-83.5 56.5t-52 85.5t-18 107.5q0 57 17.5 107t50.5 87t80 58.5t107 21.5q57 0 103 -20t78.5 -55t49.5 -82.5t17 -101.5zM457 306 q-7 75 -52 113t-107 38q-34 0 -62 -11t-49 -31.5t-33 -48t-15 -60.5h318zM154 640q0 20 14 34t33 14q20 0 34 -14t14 -34q0 -19 -14 -33t-34 -14q-19 0 -33 13.5t-14 33.5zM344 640q0 20 14 34t33 14q20 0 34 -14t14 -34q0 -19 -14 -33t-34 -14q-19 0 -33 13.5t-14 33.5z " />
<glyph unicode="&#xec;" horiz-adv-x="243" d="M78 0v520h87v-520h-87zM98 590l-90 118l65 32l93 -150h-68z" />
<glyph unicode="&#xed;" horiz-adv-x="243" d="M75 590l93 150l65 -32l-90 -118h-68zM78 0v520h87v-520h-87z" />
<glyph unicode="&#xee;" horiz-adv-x="243" d="M78 0v520h87v-520h-87zM155 725q26 -26 54 -52.5t63 -52.5l-28 -38l-123 73l-122 -73l-29 38q35 26 63 52.5t54 52.5h68z" />
<glyph unicode="&#xef;" horiz-adv-x="243" d="M-11 630q0 20 14 34t33 14q20 0 34 -14t14 -34t-14 -33.5t-34 -13.5t-33.5 13.5t-13.5 33.5zM159 630q0 20 14 34t33 14q20 0 34 -14t14 -34t-14 -33.5t-34 -13.5q-19 0 -33 13.5t-14 33.5zM78 0v520h87v-520h-87z" />
<glyph unicode="&#xf0;" horiz-adv-x="616" d="M282 494q44 0 85.5 -15t72.5 -47q-19 41 -48 78t-65 71l-126 -60l-18 42l102 49q-40 31 -86 54l59 59q29 -17 57 -35t54 -41l120 56l19 -41l-101 -48q67 -66 110 -152t43 -192q0 -57 -15 -112t-55 -97q-36 -37 -84 -56t-104 -19q-59 0 -106 19.5t-80.5 53t-51.5 80 t-18 100.5q0 55 17 101.5t48.5 80t74.5 52.5t96 19zM472 241q0 36 -11.5 68t-33 56t-53.5 37.5t-73 13.5t-71.5 -14t-51 -38t-30.5 -56t-10 -67q0 -36 10 -67.5t30.5 -55t51.5 -37.5t72 -14q42 0 74 13.5t53 37.5t32 55.5t11 67.5z" />
<glyph unicode="&#xf1;" horiz-adv-x="597" d="M78 0v520h87v-86q32 48 76.5 73t101.5 25q85 0 133.5 -51.5t48.5 -145.5v-335h-87v315q0 23 -4.5 47t-17 43.5t-35.5 32t-59 12.5q-33 0 -62 -11.5t-50 -33t-33 -51.5t-12 -66v-288h-87zM480 679q-14 -38 -39.5 -60.5t-56.5 -22.5q-17 0 -34 6t-33.5 13t-32 13t-29.5 6 q-17 0 -33 -8.5t-33 -28.5l-35 23q14 38 39.5 60.5t56.5 22.5q17 0 34 -6t33.5 -13t32 -13t30.5 -6q17 0 32.5 8.5t32.5 28.5z" />
<glyph unicode="&#xf2;" horiz-adv-x="600" d="M265 590l-90 118l65 32l93 -150h-68zM556 259q0 -59 -18 -108.5t-51 -85.5t-80.5 -56.5t-106.5 -20.5t-106.5 20.5t-80.5 56.5t-51 85.5t-18 108.5t18 109t51 86.5t80.5 57t106.5 20.5t106.5 -20.5t80.5 -57t51 -86.5t18 -109zM463 259q0 41 -11 76.5t-31.5 61.5t-51 41 t-69.5 15t-69.5 -15t-51.5 -41t-32 -61.5t-11 -76.5t11 -76t32 -61t51.5 -41t69.5 -15t69.5 15t51 41t31.5 61t11 76z" />
<glyph unicode="&#xf3;" horiz-adv-x="600" d="M239 590l93 150l65 -32l-90 -118h-68zM556 259q0 -59 -18 -108.5t-51 -85.5t-80.5 -56.5t-106.5 -20.5t-106.5 20.5t-80.5 56.5t-51 85.5t-18 108.5t18 109t51 86.5t80.5 57t106.5 20.5t106.5 -20.5t80.5 -57t51 -86.5t18 -109zM463 259q0 41 -11 76.5t-31.5 61.5t-51 41 t-69.5 15t-69.5 -15t-51.5 -41t-32 -61.5t-11 -76.5t11 -76t32 -61t51.5 -41t69.5 -15t69.5 15t51 41t31.5 61t11 76z" />
<glyph unicode="&#xf4;" horiz-adv-x="600" d="M334 725q26 -26 54 -52.5t63 -52.5l-28 -38l-123 73l-122 -73l-29 38q35 26 63 52.5t54 52.5h68zM556 259q0 -59 -18 -108.5t-51 -85.5t-80.5 -56.5t-106.5 -20.5t-106.5 20.5t-80.5 56.5t-51 85.5t-18 108.5t18 109t51 86.5t80.5 57t106.5 20.5t106.5 -20.5t80.5 -57 t51 -86.5t18 -109zM463 259q0 41 -11 76.5t-31.5 61.5t-51 41t-69.5 15t-69.5 -15t-51.5 -41t-32 -61.5t-11 -76.5t11 -76t32 -61t51.5 -41t69.5 -15t69.5 15t51 41t31.5 61t11 76z" />
<glyph unicode="&#xf5;" horiz-adv-x="600" d="M556 259q0 -59 -18 -108.5t-51 -85.5t-80.5 -56.5t-106.5 -20.5t-106.5 20.5t-80.5 56.5t-51 85.5t-18 108.5t18 109t51 86.5t80.5 57t106.5 20.5t106.5 -20.5t80.5 -57t51 -86.5t18 -109zM463 259q0 41 -11 76.5t-31.5 61.5t-51 41t-69.5 15t-69.5 -15t-51.5 -41 t-32 -61.5t-11 -76.5t11 -76t32 -61t51.5 -41t69.5 -15t69.5 15t51 41t31.5 61t11 76zM463 679q-14 -38 -39.5 -60.5t-56.5 -22.5q-17 0 -34 6t-33.5 13t-32 13t-29.5 6q-17 0 -33 -8.5t-33 -28.5l-35 23q14 38 39.5 60.5t56.5 22.5q17 0 34 -6t33.5 -13t32 -13t30.5 -6 q17 0 32.5 8.5t32.5 28.5z" />
<glyph unicode="&#xf6;" horiz-adv-x="600" d="M556 259q0 -59 -18 -108.5t-51 -85.5t-80.5 -56.5t-106.5 -20.5t-106.5 20.5t-80.5 56.5t-51 85.5t-18 108.5t18 109t51 86.5t80.5 57t106.5 20.5t106.5 -20.5t80.5 -57t51 -86.5t18 -109zM463 259q0 41 -11 76.5t-31.5 61.5t-51 41t-69.5 15t-69.5 -15t-51.5 -41 t-32 -61.5t-11 -76.5t11 -76t32 -61t51.5 -41t69.5 -15t69.5 15t51 41t31.5 61t11 76zM158 640q0 20 14 34t33 14q20 0 34 -14t14 -34q0 -19 -14 -33t-34 -14q-19 0 -33 13.5t-14 33.5zM348 640q0 20 14 34t33 14q20 0 34 -14t14 -34q0 -19 -14 -33t-34 -14q-19 0 -33 13.5 t-14 33.5z" />
<glyph unicode="&#xf7;" horiz-adv-x="596" d="M360 458q0 -26 -18 -44.5t-44 -18.5t-44 18.5t-18 44.5q0 25 18 43.5t44 18.5t44 -18.5t18 -43.5zM360 62q0 -25 -18 -43.5t-44 -18.5t-44 18.5t-18 43.5t18 44t44 19t44 -19t18 -44zM38 222v76h520v-76h-520z" />
<glyph unicode="&#xf8;" horiz-adv-x="600" d="M99 20l24 34q-38 37 -58.5 89.5t-20.5 115.5q0 59 18 109t51 86.5t80.5 57t106.5 20.5q38 0 71 -9t62 -26l23 33l45 -31l-24 -34q38 -37 58.5 -89.5t20.5 -116.5q0 -59 -18 -108.5t-51 -85.5t-80.5 -56.5t-106.5 -20.5q-39 0 -72 8.5t-62 25.5l-22 -33zM136 259 q0 -38 9.5 -71.5t28.5 -58.5l211 300q-36 25 -85 25q-39 0 -69.5 -15t-51.5 -41.5t-32 -62t-11 -76.5zM463 259q0 38 -9.5 72t-28.5 59l-211 -300q36 -25 86 -25q39 0 69.5 15t51 41.5t31.5 61.5t11 76z" />
<glyph unicode="&#xf9;" horiz-adv-x="597" d="M519 520v-520h-87v85q-33 -47 -77 -72t-101 -25q-85 0 -133.5 51.5t-48.5 144.5v336h87v-316q0 -23 4.5 -47t17 -43.5t35 -32t58.5 -12.5q34 0 63 11.5t50 33t33 51.5t12 66v289h87zM266 590l-90 118l65 32l93 -150h-68z" />
<glyph unicode="&#xfa;" horiz-adv-x="597" d="M519 520v-520h-87v85q-33 -47 -77 -72t-101 -25q-85 0 -133.5 51.5t-48.5 144.5v336h87v-316q0 -23 4.5 -47t17 -43.5t35 -32t58.5 -12.5q34 0 63 11.5t50 33t33 51.5t12 66v289h87zM251 590l93 150l65 -32l-90 -118h-68z" />
<glyph unicode="&#xfb;" horiz-adv-x="597" d="M519 520v-520h-87v85q-33 -47 -77 -72t-101 -25q-85 0 -133.5 51.5t-48.5 144.5v336h87v-316q0 -23 4.5 -47t17 -43.5t35 -32t58.5 -12.5q34 0 63 11.5t50 33t33 51.5t12 66v289h87zM329 725q26 -26 54 -52.5t63 -52.5l-28 -38l-123 73l-122 -73l-29 38q35 26 63 52.5 t54 52.5h68z" />
<glyph unicode="&#xfc;" horiz-adv-x="597" d="M519 520v-520h-87v85q-33 -47 -77 -72t-101 -25q-85 0 -133.5 51.5t-48.5 144.5v336h87v-316q0 -23 4.5 -47t17 -43.5t35 -32t58.5 -12.5q34 0 63 11.5t50 33t33 51.5t12 66v289h87zM152 640q0 20 14 34t33 14q20 0 34 -14t14 -34q0 -19 -14 -33t-34 -14q-19 0 -33 13.5 t-14 33.5zM342 640q0 20 14 34t33 14q20 0 34 -14t14 -34q0 -19 -14 -33t-34 -14q-19 0 -33 13.5t-14 33.5z" />
<glyph unicode="&#xfd;" horiz-adv-x="535" d="M312 -24q-15 -39 -31 -69t-37 -50.5t-48 -30.5t-63 -10q-62 0 -106 32l38 64q14 -9 29.5 -14.5t32.5 -5.5q36 0 56.5 23t35.5 56l14 31l-220 518h100l166 -404l147 404h94zM231 590l93 150l65 -32l-90 -118h-68z" />
<glyph unicode="&#xfe;" horiz-adv-x="633" d="M165 714v-280q37 54 84 76t100 22q56 0 100.5 -21t75.5 -57.5t47.5 -86.5t16.5 -107q0 -58 -16.5 -107.5t-47.5 -86t-75.5 -57.5t-100.5 -21q-53 0 -100 22t-84 75v-259h-87v888h87zM165 259q0 -40 11 -74.5t32.5 -60.5t53 -41t72.5 -15t71.5 15t50.5 41t30 60.5t10 74.5 t-10 75t-30 61t-50.5 41t-71.5 15q-42 0 -73.5 -15t-53 -41t-32 -61t-10.5 -75z" />
<glyph unicode="&#xff;" horiz-adv-x="535" d="M312 -24q-15 -39 -31 -69t-37 -50.5t-48 -30.5t-63 -10q-62 0 -106 32l38 64q14 -9 29.5 -14.5t32.5 -5.5q36 0 56.5 23t35.5 56l14 31l-220 518h100l166 -404l147 404h94zM129 640q0 20 14 34t33 14q20 0 34 -14t14 -34q0 -19 -14 -33t-34 -14q-19 0 -33 13.5t-14 33.5z M319 640q0 20 14 34t33 14q20 0 34 -14t14 -34q0 -19 -14 -33t-34 -14q-19 0 -33 13.5t-14 33.5z" />
<glyph unicode="&#x100;" horiz-adv-x="680" d="M205 758v57h270v-57h-270zM564 0l-74 203h-304l-75 -203h-100l275 714h109l275 -714h-106zM340 625l-125 -339h245z" />
<glyph unicode="&#x101;" horiz-adv-x="567" d="M555 2q-13 -5 -30 -7.5t-30 -2.5q-37 0 -66 19t-35 64q-35 -50 -83 -68.5t-96 -18.5q-81 0 -129 41.5t-48 116.5q0 45 17.5 74t44.5 46t58.5 24.5t59.5 11.5q30 4 59.5 7.5t53 10.5t38 20.5t14.5 38.5q0 22 -10.5 36.5t-27.5 23.5t-38 12.5t-42 3.5q-42 0 -84 -14 t-78 -41l-40 66q46 32 96 49t112 17q44 0 81 -9.5t63.5 -30.5t41.5 -53t15 -77v-246q0 -56 41 -56q20 0 31 8zM385 290q-13 -17 -29 -25.5t-35 -13.5t-40.5 -8t-45.5 -7q-22 -4 -41.5 -9t-34.5 -14.5t-23.5 -25t-8.5 -39.5q0 -47 31.5 -67.5t76.5 -20.5q28 0 55 8t48 25 t34 43.5t13 63.5v90zM118 608v58h300v-58h-300z" />
<glyph unicode="&#x102;" horiz-adv-x="680" d="M564 0l-74 203h-304l-75 -203h-100l275 714h109l275 -714h-106zM340 625l-125 -339h245zM341 759q-67 0 -108 33.5t-49 83.5l51 15q8 -29 35 -48.5t71 -19.5t71 19.5t35 48.5l50 -15q-4 -25 -16.5 -46.5t-32.5 -37t-47 -24.5t-60 -9z" />
<glyph unicode="&#x103;" horiz-adv-x="567" d="M555 2q-13 -5 -30 -7.5t-30 -2.5q-37 0 -66 19t-35 64q-35 -50 -83 -68.5t-96 -18.5q-81 0 -129 41.5t-48 116.5q0 45 17.5 74t44.5 46t58.5 24.5t59.5 11.5q30 4 59.5 7.5t53 10.5t38 20.5t14.5 38.5q0 22 -10.5 36.5t-27.5 23.5t-38 12.5t-42 3.5q-42 0 -84 -14 t-78 -41l-40 66q46 32 96 49t112 17q44 0 81 -9.5t63.5 -30.5t41.5 -53t15 -77v-246q0 -56 41 -56q20 0 31 8zM385 290q-13 -17 -29 -25.5t-35 -13.5t-40.5 -8t-45.5 -7q-22 -4 -41.5 -9t-34.5 -14.5t-23.5 -25t-8.5 -39.5q0 -47 31.5 -67.5t76.5 -20.5q28 0 55 8t48 25 t34 43.5t13 63.5v90zM267 591q-67 0 -108 33.5t-49 83.5l51 15q8 -29 35 -48.5t71 -19.5t71 19.5t35 48.5l50 -15q-4 -25 -16.5 -46.5t-32.5 -37t-47 -24.5t-60 -9z" />
<glyph unicode="&#x104;" horiz-adv-x="680" d="M395 714l275 -714q-65 -4 -90.5 -20t-25.5 -38q0 -18 13.5 -29t36.5 -11q22 0 38 10t28 24v-67q-10 -10 -30 -19.5t-49 -9.5q-41 0 -71 22.5t-30 60.5q0 26 16 48t55 39l-71 193h-304l-75 -203h-100l276 714h108zM341 625l-126 -339h245z" />
<glyph unicode="&#x105;" horiz-adv-x="566" d="M555 2q-13 -5 -30 -7.5t-29 -2.5q-15 0 -28 3q-13 -15 -20.5 -30.5t-7.5 -32.5q0 -23 14 -34.5t36 -11.5q23 0 38.5 10t27.5 24v-67q-11 -11 -31 -20t-49 -9q-41 0 -71 21.5t-30 63.5q0 24 13 50t45 50q-15 10 -25.5 26t-13.5 40q-35 -50 -83 -68.5t-96 -18.5 q-81 0 -129 41.5t-48 116.5q0 45 17.5 74t44.5 46t58.5 24.5t59.5 11.5q30 4 59.5 7.5t53 10.5t38 20.5t14.5 38.5q0 22 -10.5 36.5t-27.5 23.5t-38 12.5t-42 3.5q-42 0 -84 -14t-78 -41l-40 66q46 32 96 49t112 17q44 0 81 -9.5t63.5 -30.5t41.5 -53t15 -77v-246 q0 -56 41 -56q20 0 31 8zM385 290q-13 -17 -29 -25.5t-35 -13.5t-40.5 -8t-45.5 -7q-22 -4 -41.5 -9t-34.5 -14.5t-23.5 -25t-8.5 -39.5q0 -47 31.5 -67.5t76.5 -20.5q28 0 55 8t48 25t34 43.5t13 63.5v90z" />
<glyph unicode="&#x106;" horiz-adv-x="698" d="M586 534q-32 51 -82.5 78.5t-115.5 27.5q-56 0 -100.5 -20.5t-76 -57.5t-48 -89.5t-16.5 -115.5q0 -64 17 -116.5t49 -89.5t77 -57t102 -20q66 0 113.5 27.5t83.5 79.5l75 -51q-49 -70 -116 -106.5t-156 -36.5q-78 0 -141.5 27.5t-108.5 76.5t-69.5 117t-24.5 149 q0 80 24.5 148t69 117.5t107 77t138.5 27.5q88 0 157.5 -37t115.5 -104zM341 758l93 150l65 -32l-90 -118h-68z" />
<glyph unicode="&#x107;" horiz-adv-x="536" d="M506 97q-33 -48 -85.5 -78.5t-124.5 -30.5q-58 0 -104.5 20.5t-79.5 57t-50.5 86.5t-17.5 108t17.5 108t50.5 86.5t79.5 57t104.5 20.5q69 0 121 -29.5t86 -78.5l-65 -52q-23 38 -57.5 59.5t-81.5 21.5q-38 0 -68 -14.5t-51 -40.5t-32.5 -61.5t-11.5 -76.5 q0 -42 11.5 -77t32.5 -61t51 -40.5t67 -14.5q50 0 84 22t57 56zM248 590l93 150l65 -32l-90 -118h-68z" />
<glyph unicode="&#x108;" horiz-adv-x="698" d="M586 534q-32 51 -82.5 78.5t-115.5 27.5q-56 0 -100.5 -20.5t-76 -57.5t-48 -89.5t-16.5 -115.5q0 -64 17 -116.5t49 -89.5t77 -57t102 -20q66 0 113.5 27.5t83.5 79.5l75 -51q-49 -70 -116 -106.5t-156 -36.5q-78 0 -141.5 27.5t-108.5 76.5t-69.5 117t-24.5 149 q0 80 24.5 148t69 117.5t107 77t138.5 27.5q88 0 157.5 -37t115.5 -104zM420 902q26 -26 54 -52.5t63 -52.5l-28 -38l-123 73l-122 -73l-29 38q35 26 63 52.5t54 52.5h68z" />
<glyph unicode="&#x109;" horiz-adv-x="536" d="M506 97q-33 -48 -85.5 -78.5t-124.5 -30.5q-58 0 -104.5 20.5t-79.5 57t-50.5 86.5t-17.5 108t17.5 108t50.5 86.5t79.5 57t104.5 20.5q69 0 121 -29.5t86 -78.5l-65 -52q-23 38 -57.5 59.5t-81.5 21.5q-38 0 -68 -14.5t-51 -40.5t-32.5 -61.5t-11.5 -76.5 q0 -42 11.5 -77t32.5 -61t51 -40.5t67 -14.5q50 0 84 22t57 56zM326 725q26 -26 54 -52.5t63 -52.5l-28 -38l-123 73l-122 -73l-29 38q35 26 63 52.5t54 52.5h68z" />
<glyph unicode="&#x10a;" horiz-adv-x="698" d="M586 534q-32 51 -82.5 78.5t-115.5 27.5q-56 0 -100.5 -20.5t-76 -57.5t-48 -89.5t-16.5 -115.5q0 -64 17 -116.5t49 -89.5t77 -57t102 -20q66 0 113.5 27.5t83.5 79.5l75 -51q-49 -70 -116 -106.5t-156 -36.5q-78 0 -141.5 27.5t-108.5 76.5t-69.5 117t-24.5 149 q0 80 24.5 148t69 117.5t107 77t138.5 27.5q88 0 157.5 -37t115.5 -104zM340 808q0 20 14 34t33 14q20 0 34 -14t14 -34q0 -19 -14 -33t-34 -14q-19 0 -33 13.5t-14 33.5z" />
<glyph unicode="&#x10b;" horiz-adv-x="536" d="M506 97q-33 -48 -85.5 -78.5t-124.5 -30.5q-58 0 -104.5 20.5t-79.5 57t-50.5 86.5t-17.5 108t17.5 108t50.5 86.5t79.5 57t104.5 20.5q69 0 121 -29.5t86 -78.5l-65 -52q-23 38 -57.5 59.5t-81.5 21.5q-38 0 -68 -14.5t-51 -40.5t-32.5 -61.5t-11.5 -76.5 q0 -42 11.5 -77t32.5 -61t51 -40.5t67 -14.5q50 0 84 22t57 56zM241 640q0 20 14 34t33 14q20 0 34 -14t14 -34q0 -19 -14 -33t-34 -14q-19 0 -33 13.5t-14 33.5z" />
<glyph unicode="&#x10c;" horiz-adv-x="698" d="M586 534q-32 51 -82.5 78.5t-115.5 27.5q-56 0 -100.5 -20.5t-76 -57.5t-48 -89.5t-16.5 -115.5q0 -64 17 -116.5t49 -89.5t77 -57t102 -20q66 0 113.5 27.5t83.5 79.5l75 -51q-49 -70 -116 -106.5t-156 -36.5q-78 0 -141.5 27.5t-108.5 76.5t-69.5 117t-24.5 149 q0 80 24.5 148t69 117.5t107 77t138.5 27.5q88 0 157.5 -37t115.5 -104zM358 752q-26 26 -54 52.5t-63 52.5l29 38l122 -73l123 73l28 -38q-35 -26 -63 -52.5t-54 -52.5h-68z" />
<glyph unicode="&#x10d;" horiz-adv-x="536" d="M506 97q-33 -48 -85.5 -78.5t-124.5 -30.5q-58 0 -104.5 20.5t-79.5 57t-50.5 86.5t-17.5 108t17.5 108t50.5 86.5t79.5 57t104.5 20.5q69 0 121 -29.5t86 -78.5l-65 -52q-23 38 -57.5 59.5t-81.5 21.5q-38 0 -68 -14.5t-51 -40.5t-32.5 -61.5t-11.5 -76.5 q0 -42 11.5 -77t32.5 -61t51 -40.5t67 -14.5q50 0 84 22t57 56zM260 584q-26 26 -54 52.5t-63 52.5l29 38l122 -73l123 73l28 -38q-35 -26 -63 -52.5t-54 -52.5h-68z" />
<glyph unicode="&#x10e;" horiz-adv-x="746" d="M359 87q58 0 103 19.5t75 54.5t45.5 85t15.5 111t-15.5 111t-45.5 85t-75 54.5t-103 19.5h-176v-540h176zM90 0v714h269q81 0 144 -27t106 -75t65.5 -113.5t22.5 -141.5q0 -77 -22.5 -142t-65.5 -113t-106 -75t-144 -27h-269zM321 752q-26 26 -54 52.5t-63 52.5l29 38 l122 -73l123 73l28 -38q-35 -26 -63 -52.5t-54 -52.5h-68z" />
<glyph unicode="&#x10f;" horiz-adv-x="670" d="M469 0v85q-37 -53 -84.5 -75t-100.5 -22q-56 0 -100 21t-75 57.5t-47.5 86t-16.5 106.5q0 58 16.5 108t47.5 86.5t75 57.5t100 21q54 0 101 -22.5t84 -75.5v280h87v-714h-87zM469 260q0 40 -11 75t-32.5 60.5t-53 40.5t-72.5 15t-71.5 -15t-51 -41t-30.5 -60.5t-10 -74.5 t10 -75t30 -61t51 -41t72 -15q42 0 73.5 15t52.5 41t32 61t11 75zM735 640q0 -49 -20 -87t-58 -73l-32 33q20 20 31.5 45.5t11.5 50.5q0 13 -3.5 23t-7.5 20t-7.5 20.5t-3.5 24.5v17h89v-74z" />
<glyph unicode="&#x110;" horiz-adv-x="756" d="M707 357q0 -78 -21.5 -143.5t-64 -113t-104.5 -74t-143 -26.5h-275v327h-62v77h62v310h275q81 0 143 -26.5t104.5 -74t64 -113t21.5 -143.5zM607 357q0 129 -61.5 199.5t-172.5 70.5h-180v-223h196v-77h-196v-240h180q111 0 172.5 70.5t61.5 199.5z" />
<glyph unicode="&#x111;" horiz-adv-x="634" d="M469 0v85q-37 -53 -84.5 -75t-99.5 -22q-56 0 -100.5 21t-75.5 57.5t-47.5 86t-16.5 106.5q0 58 16.5 108t47.5 86.5t75.5 57.5t100.5 21q52 0 99.5 -22.5t84.5 -75.5v178h-139v54h139v48h87v-48h75v-54h-75v-612h-87zM469 260q0 40 -11 75t-32.5 60.5t-53 40.5t-73.5 15 q-41 0 -71 -15t-50.5 -41t-30.5 -60.5t-10 -74.5t10 -75t30.5 -61t50.5 -41t71 -15q42 0 74 15t53 41t32 61t11 75z" />
<glyph unicode="&#x112;" horiz-adv-x="632" d="M90 0v714h484v-87h-391v-211h348v-82h-348v-247h401v-87h-494zM183 776v58h300v-58h-300z" />
<glyph unicode="&#x113;" horiz-adv-x="586" d="M547 273q0 -12 -0.5 -20.5t-1.5 -13.5h-408q4 -81 51 -126t124 -45q91 0 154 68l58 -57q-40 -43 -92.5 -67t-121.5 -24q-63 0 -112.5 20.5t-83.5 56.5t-52 85.5t-18 107.5q0 57 17.5 107t50.5 87t80 58.5t107 21.5q57 0 103 -20t78.5 -55t49.5 -82.5t17 -101.5zM457 306 q-7 75 -52 113t-107 38q-34 0 -62 -11t-49 -31.5t-33 -48t-15 -60.5h318zM148 608v58h300v-58h-300z" />
<glyph unicode="&#x114;" horiz-adv-x="632" d="M90 0v714h484v-87h-391v-211h348v-82h-348v-247h401v-87h-494zM335 759q-67 0 -108 33.5t-49 83.5l51 15q8 -29 35 -48.5t71 -19.5t71 19.5t35 48.5l50 -15q-4 -25 -16.5 -46.5t-32.5 -37t-47 -24.5t-60 -9z" />
<glyph unicode="&#x115;" horiz-adv-x="586" d="M547 273q0 -12 -0.5 -20.5t-1.5 -13.5h-408q4 -81 51 -126t124 -45q91 0 154 68l58 -57q-40 -43 -92.5 -67t-121.5 -24q-63 0 -112.5 20.5t-83.5 56.5t-52 85.5t-18 107.5q0 57 17.5 107t50.5 87t80 58.5t107 21.5q57 0 103 -20t78.5 -55t49.5 -82.5t17 -101.5zM457 306 q-7 75 -52 113t-107 38q-34 0 -62 -11t-49 -31.5t-33 -48t-15 -60.5h318zM296 591q-67 0 -108 33.5t-49 83.5l51 15q8 -29 35 -48.5t71 -19.5t71 19.5t35 48.5l50 -15q-4 -25 -16.5 -46.5t-32.5 -37t-47 -24.5t-60 -9z" />
<glyph unicode="&#x116;" horiz-adv-x="632" d="M90 0v714h484v-87h-391v-211h348v-82h-348v-247h401v-87h-494zM287 808q0 20 14 34t33 14q20 0 34 -14t14 -34q0 -19 -14 -33t-34 -14q-19 0 -33 13.5t-14 33.5z" />
<glyph unicode="&#x117;" horiz-adv-x="586" d="M547 273q0 -12 -0.5 -20.5t-1.5 -13.5h-408q4 -81 51 -126t124 -45q91 0 154 68l58 -57q-40 -43 -92.5 -67t-121.5 -24q-63 0 -112.5 20.5t-83.5 56.5t-52 85.5t-18 107.5q0 57 17.5 107t50.5 87t80 58.5t107 21.5q57 0 103 -20t78.5 -55t49.5 -82.5t17 -101.5zM457 306 q-7 75 -52 113t-107 38q-34 0 -62 -11t-49 -31.5t-33 -48t-15 -60.5h318zM247 640q0 20 14 34t33 14q20 0 34 -14t14 -34q0 -19 -14 -33t-34 -14q-19 0 -33 13.5t-14 33.5z" />
<glyph unicode="&#x118;" horiz-adv-x="634" d="M501 0q-28 -25 -28 -53q0 -21 13.5 -33t35.5 -12t37 10t27 24v-67q-11 -11 -31 -20t-46 -9q-41 0 -70.5 23t-29.5 64q0 19 7.5 37.5t24.5 35.5h-351v714h488v-87h-394v-209h347v-82h-347v-249h402v-87h-85z" />
<glyph unicode="&#x119;" horiz-adv-x="588" d="M547 272q0 -11 -0.5 -19.5t-1.5 -13.5h-408q4 -81 51 -126t124 -45q91 0 154 68l58 -57q-20 -21 -33.5 -31.5t-30.5 -21.5q-32 -21 -48.5 -42.5t-16.5 -47.5q0 -25 14 -37.5t37 -12.5q22 0 37.5 10t27.5 24v-67q-11 -11 -31 -20t-49 -9q-41 0 -71 21.5t-30 63.5 q0 20 9 41.5t30 42.5q-14 -2 -28.5 -3.5t-31.5 -1.5q-63 0 -112.5 20.5t-83 56.5t-51.5 85.5t-18 107.5q0 57 17.5 107t50.5 87t80 58.5t107 21.5q57 0 103 -20t78.5 -55t49.5 -82.5t17 -102.5zM457 306q-7 75 -52 113t-107 38q-34 0 -62 -11t-49 -31.5t-33 -48t-15 -60.5 h318z" />
<glyph unicode="&#x11a;" horiz-adv-x="632" d="M90 0v714h484v-87h-391v-211h348v-82h-348v-247h401v-87h-494zM296 752q-26 26 -54 52.5t-63 52.5l29 38l122 -73l123 73l28 -38q-35 -26 -63 -52.5t-54 -52.5h-68z" />
<glyph unicode="&#x11b;" horiz-adv-x="586" d="M547 273q0 -12 -0.5 -20.5t-1.5 -13.5h-408q4 -81 51 -126t124 -45q91 0 154 68l58 -57q-40 -43 -92.5 -67t-121.5 -24q-63 0 -112.5 20.5t-83.5 56.5t-52 85.5t-18 107.5q0 57 17.5 107t50.5 87t80 58.5t107 21.5q57 0 103 -20t78.5 -55t49.5 -82.5t17 -101.5zM457 306 q-7 75 -52 113t-107 38q-34 0 -62 -11t-49 -31.5t-33 -48t-15 -60.5h318zM262 584q-26 26 -54 52.5t-63 52.5l29 38l122 -73l123 73l28 -38q-35 -26 -63 -52.5t-54 -52.5h-68z" />
<glyph unicode="&#x11c;" horiz-adv-x="751" d="M391 640q-57 0 -102.5 -20.5t-77 -58t-48 -89t-16.5 -114.5q0 -64 17 -116.5t48 -89.5t75.5 -57.5t100.5 -20.5q46 0 87 14.5t71.5 42t49 68.5t21.5 94h-208v83h298q5 -22 5 -50q0 -69 -21.5 -131t-63 -108t-101.5 -73t-138 -27q-77 0 -139.5 28t-107 77.5t-69 117.5 t-24.5 148q0 81 24.5 148.5t70 116.5t109 76.5t141.5 27.5q91 0 159 -37.5t113 -102.5l-77 -51q-31 51 -81 77.5t-116 26.5zM421 893q26 -26 54 -52.5t63 -52.5l-28 -38l-123 73l-122 -73l-29 38q35 26 63 52.5t54 52.5h68z" />
<glyph unicode="&#x11d;" horiz-adv-x="636" d="M558 84q0 -60 -12 -106t-44 -81q-38 -45 -95.5 -63t-123.5 -18q-65 0 -118.5 15.5t-98.5 46.5l44 71q35 -25 78.5 -39.5t95.5 -14.5q40 0 74 9.5t59 30t39.5 53t14.5 78.5v56q-32 -50 -83 -73.5t-107 -23.5q-52 0 -95.5 19t-74.5 52.5t-48 80t-17 100.5q0 55 18 102 t49.5 81t75.5 53t96 19q57 0 105.5 -23.5t80.5 -74.5v86h87v-436zM471 279q0 36 -11 67.5t-32 55t-52.5 37t-73.5 13.5t-72.5 -14t-51 -37.5t-30.5 -55t-10 -66.5q0 -36 10 -68t30.5 -56t51.5 -38t72 -14t72.5 14t53 38t32.5 56t11 68zM336 725q26 -26 54 -52.5t63 -52.5 l-28 -38l-123 73l-122 -73l-29 38q35 26 63 52.5t54 52.5h68z" />
<glyph unicode="&#x11e;" horiz-adv-x="751" d="M391 640q-57 0 -102.5 -20.5t-77 -58t-48 -89t-16.5 -114.5q0 -64 17 -116.5t48 -89.5t75.5 -57.5t100.5 -20.5q46 0 87 14.5t71.5 42t49 68.5t21.5 94h-208v83h298q5 -22 5 -50q0 -69 -21.5 -131t-63 -108t-101.5 -73t-138 -27q-77 0 -139.5 28t-107 77.5t-69 117.5 t-24.5 148q0 81 24.5 148.5t70 116.5t109 76.5t141.5 27.5q91 0 159 -37.5t113 -102.5l-77 -51q-31 51 -81 77.5t-116 26.5zM389 763q-67 0 -108 33.5t-49 83.5l51 15q8 -29 35 -48.5t71 -19.5t71 19.5t35 48.5l50 -15q-4 -25 -16.5 -46.5t-32.5 -37t-47 -24.5t-60 -9z" />
<glyph unicode="&#x11f;" horiz-adv-x="636" d="M558 84q0 -60 -12 -106t-44 -81q-38 -45 -95.5 -63t-123.5 -18q-65 0 -118.5 15.5t-98.5 46.5l44 71q35 -25 78.5 -39.5t95.5 -14.5q40 0 74 9.5t59 30t39.5 53t14.5 78.5v56q-32 -50 -83 -73.5t-107 -23.5q-52 0 -95.5 19t-74.5 52.5t-48 80t-17 100.5q0 55 18 102 t49.5 81t75.5 53t96 19q57 0 105.5 -23.5t80.5 -74.5v86h87v-436zM471 279q0 36 -11 67.5t-32 55t-52.5 37t-73.5 13.5t-72.5 -14t-51 -37.5t-30.5 -55t-10 -66.5q0 -36 10 -68t30.5 -56t51.5 -38t72 -14t72.5 14t53 38t32.5 56t11 68zM301 591q-67 0 -108 33.5t-49 83.5 l51 15q8 -29 35 -48.5t71 -19.5t71 19.5t35 48.5l50 -15q-4 -25 -16.5 -46.5t-32.5 -37t-47 -24.5t-60 -9z" />
<glyph unicode="&#x120;" horiz-adv-x="751" d="M391 640q-57 0 -102.5 -20.5t-77 -58t-48 -89t-16.5 -114.5q0 -64 17 -116.5t48 -89.5t75.5 -57.5t100.5 -20.5q46 0 87 14.5t71.5 42t49 68.5t21.5 94h-208v83h298q5 -22 5 -50q0 -69 -21.5 -131t-63 -108t-101.5 -73t-138 -27q-77 0 -139.5 28t-107 77.5t-69 117.5 t-24.5 148q0 81 24.5 148.5t70 116.5t109 76.5t141.5 27.5q91 0 159 -37.5t113 -102.5l-77 -51q-31 51 -81 77.5t-116 26.5zM341 808q0 20 14 34t33 14q20 0 34 -14t14 -34q0 -19 -14 -33t-34 -14q-19 0 -33 13.5t-14 33.5z" />
<glyph unicode="&#x121;" horiz-adv-x="636" d="M558 84q0 -60 -12 -106t-44 -81q-38 -45 -95.5 -63t-123.5 -18q-65 0 -118.5 15.5t-98.5 46.5l44 71q35 -25 78.5 -39.5t95.5 -14.5q40 0 74 9.5t59 30t39.5 53t14.5 78.5v56q-32 -50 -83 -73.5t-107 -23.5q-52 0 -95.5 19t-74.5 52.5t-48 80t-17 100.5q0 55 18 102 t49.5 81t75.5 53t96 19q57 0 105.5 -23.5t80.5 -74.5v86h87v-436zM471 279q0 36 -11 67.5t-32 55t-52.5 37t-73.5 13.5t-72.5 -14t-51 -37.5t-30.5 -55t-10 -66.5q0 -36 10 -68t30.5 -56t51.5 -38t72 -14t72.5 14t53 38t32.5 56t11 68zM252 640q0 20 14 34t33 14 q20 0 34 -14t14 -34q0 -19 -14 -33t-34 -14q-19 0 -33 13.5t-14 33.5z" />
<glyph unicode="&#x122;" horiz-adv-x="751" d="M391 640q-57 0 -102.5 -20.5t-77 -58t-48 -89t-16.5 -114.5q0 -64 17 -116.5t48 -89.5t75.5 -57.5t100.5 -20.5q46 0 87 14.5t71.5 42t49 68.5t21.5 94h-208v83h298q5 -22 5 -50q0 -69 -21.5 -131t-63 -108t-101.5 -73t-138 -27q-77 0 -139.5 28t-107 77.5t-69 117.5 t-24.5 148q0 81 24.5 148.5t70 116.5t109 76.5t141.5 27.5q91 0 159 -37.5t113 -102.5l-77 -51q-31 51 -81 77.5t-116 26.5zM286 -173l69 117h85l-115 -144z" />
<glyph unicode="&#x123;" horiz-adv-x="636" d="M397 700l-69 -117h-85l115 144zM558 84q0 -60 -12 -106t-44 -81q-38 -45 -95.5 -63t-123.5 -18q-65 0 -118.5 15.5t-98.5 46.5l44 71q35 -25 78.5 -39.5t95.5 -14.5q40 0 74 9.5t59 30t39.5 53t14.5 78.5v56q-32 -50 -83 -73.5t-107 -23.5q-52 0 -95.5 19t-74.5 52.5 t-48 80t-17 100.5q0 55 18 102t49.5 81t75.5 53t96 19q57 0 105.5 -23.5t80.5 -74.5v86h87v-436zM471 279q0 36 -11 67.5t-32 55t-52.5 37t-73.5 13.5t-72.5 -14t-51 -37.5t-30.5 -55t-10 -66.5q0 -36 10 -68t30.5 -56t51.5 -38t72 -14t72.5 14t53 38t32.5 56t11 68z" />
<glyph unicode="&#x124;" horiz-adv-x="753" d="M570 0v334h-387v-334h-93v714h93v-294h387v294h93v-714h-93zM409 893q26 -26 54 -52.5t63 -52.5l-28 -38l-123 73l-122 -73l-29 38q35 26 63 52.5t54 52.5h68z" />
<glyph unicode="&#x125;" horiz-adv-x="597" d="M78 0v714h87v-280q32 48 76.5 73t101.5 25q85 0 133.5 -51.5t48.5 -145.5v-335h-87v315q0 23 -4.5 47t-17 43.5t-35.5 32t-59 12.5q-33 0 -62 -11.5t-50 -33t-33 -51.5t-12 -66v-288h-87zM157 867q26 -26 54 -52.5t63 -52.5l-28 -38l-123 73l-122 -73l-29 38 q35 26 63 52.5t54 52.5h68z" />
<glyph unicode="&#x126;" horiz-adv-x="754" d="M570 0v335h-387v-335h-93v569h-38v56h38v89h93v-89h387v89h94v-89h38v-56h-38v-569h-94zM570 421v148h-387v-148h387z" />
<glyph unicode="&#x127;" horiz-adv-x="597" d="M78 0v611h-75v55h75v48h87v-48h138v-55h-138v-177q32 48 76.5 73t101.5 25q85 0 133.5 -51.5t48.5 -145.5v-335h-87v315q0 23 -4.5 47t-17 43.5t-35.5 32t-59 12.5q-33 0 -62 -11.5t-50 -33t-33 -51.5t-12 -66v-288h-87z" />
<glyph unicode="&#x128;" horiz-adv-x="273" d="M90 0v714h93v-714h-93zM300 847q-14 -38 -39.5 -60.5t-56.5 -22.5q-17 0 -34 6t-33.5 13t-32 13t-29.5 6q-17 0 -33 -8.5t-33 -28.5l-35 23q14 38 39.5 60.5t56.5 22.5q17 0 34 -6t33.5 -13t32 -13t30.5 -6q17 0 32.5 8.5t32.5 28.5z" />
<glyph unicode="&#x129;" horiz-adv-x="243" d="M285 679q-14 -38 -39.5 -60.5t-56.5 -22.5q-17 0 -34 6t-33.5 13t-32 13t-29.5 6q-17 0 -33 -8.5t-33 -28.5l-35 23q14 38 39.5 60.5t56.5 22.5q17 0 34 -6t33.5 -13t32 -13t30.5 -6q17 0 32.5 8.5t32.5 28.5zM78 0v520h87v-520h-87z" />
<glyph unicode="&#x12a;" horiz-adv-x="273" d="M90 0v714h93v-714h-93zM-13 776v58h300v-58h-300z" />
<glyph unicode="&#x12b;" horiz-adv-x="243" d="M-28 608v58h300v-58h-300zM78 0v520h87v-520h-87z" />
<glyph unicode="&#x12c;" horiz-adv-x="273" d="M90 0v714h93v-714h-93zM138 759q-67 0 -108 33.5t-49 83.5l51 15q8 -29 35 -48.5t71 -19.5t71 19.5t35 48.5l50 -15q-4 -25 -16.5 -46.5t-32.5 -37t-47 -24.5t-60 -9z" />
<glyph unicode="&#x12d;" horiz-adv-x="243" d="M78 0v520h87v-520h-87zM122 591q-67 0 -108 33.5t-49 83.5l51 15q8 -29 35 -48.5t71 -19.5t71 19.5t35 48.5l50 -15q-4 -25 -16.5 -46.5t-32.5 -37t-47 -24.5t-60 -9z" />
<glyph unicode="&#x12e;" horiz-adv-x="273" d="M183 0q-29 -4 -50.5 -18t-21.5 -40q0 -20 13 -30t30 -10q18 0 31 9.5t21 20.5v-67q-8 -9 -25 -17t-40 -8q-37 0 -64 22.5t-27 62.5q0 20 8.5 39t31.5 36v714h93v-714z" />
<glyph unicode="&#x12f;" horiz-adv-x="243" d="M78 520h87v-520q-11 -2 -26 -7t-29 -13t-24 -20.5t-10 -29.5q0 -20 13.5 -31t33.5 -11t37 9.5t26 21.5v-67q-11 -11 -30 -19t-44 -8q-40 0 -68.5 23t-28.5 61q0 26 15.5 50t47.5 41v520zM68 668q0 23 15 38.5t38 15.5t38.5 -15.5t15.5 -38.5t-15.5 -38t-38.5 -15t-38 15 t-15 38z" />
<glyph unicode="&#x130;" horiz-adv-x="273" d="M90 0v714h93v-714h-93zM89 808q0 20 14 34t33 14q20 0 34 -14t14 -34q0 -19 -14 -33t-34 -14q-19 0 -33 13.5t-14 33.5z" />
<glyph unicode="&#x131;" horiz-adv-x="243" d="M78 0v520h87v-520h-87z" />
<glyph unicode="&#x134;" horiz-adv-x="510" d="M334 714h93v-473q0 -52 -8 -94t-30 -75q-29 -45 -75 -65t-103 -20q-63 0 -112.5 26.5t-78.5 77.5l74 48q23 -38 54.5 -52.5t63.5 -14.5q34 0 57 11t37.5 30.5t21 47.5t6.5 62v491zM414 893q26 -26 54 -52.5t63 -52.5l-28 -38l-123 73l-122 -73l-29 38q35 26 63 52.5 t54 52.5h68z" />
<glyph unicode="&#x135;" horiz-adv-x="255" d="M167 725q26 -26 54 -52.5t63 -52.5l-28 -38l-123 73l-122 -73l-29 38q35 26 63 52.5t54 52.5h68zM177 -1q0 -92 -48.5 -136.5t-127.5 -44.5q-20 0 -42.5 4t-37.5 11l24 72q11 -5 24.5 -8t27.5 -3q52 0 72.5 27.5t20.5 75.5v523h87v-521z" />
<glyph unicode="&#x136;" horiz-adv-x="669" d="M553 0l-242 348l-128 -145v-203h-93v714h93v-388l340 388h117l-265 -297l293 -417h-115zM267 -173l69 117h85l-115 -144z" />
<glyph unicode="&#x137;" horiz-adv-x="567" d="M426 520h110l-210 -213l237 -307h-110l-188 249l-100 -101v-148h-87v714h87v-463zM210 -173l69 117h85l-115 -144z" />
<glyph unicode="&#x138;" horiz-adv-x="569" d="M426 520h110l-210 -213l237 -307h-110l-188 249l-100 -101v-148h-87v520h87v-269z" />
<glyph unicode="&#x139;" horiz-adv-x="588" d="M90 0v714h93v-627h390v-87h-483zM102 758l93 150l65 -32l-90 -118h-68z" />
<glyph unicode="&#x13a;" horiz-adv-x="249" d="M81 0v714h87v-714h-87zM79 744l93 150l65 -32l-90 -118h-68z" />
<glyph unicode="&#x13b;" horiz-adv-x="588" d="M90 0v714h93v-627h390v-87h-483zM244 -173l69 117h85l-115 -144z" />
<glyph unicode="&#x13c;" horiz-adv-x="249" d="M81 0v714h87v-714h-87zM14 -173l69 117h85l-115 -144z" />
<glyph unicode="&#x13d;" horiz-adv-x="588" d="M90 0v714h93v-627h390v-87h-483zM363 640q0 -49 -20 -87t-58 -73l-32 33q20 20 31.5 45.5t11.5 50.5q0 13 -3.5 23t-7.5 20t-7.5 20.5t-3.5 24.5v17h89v-74z" />
<glyph unicode="&#x13e;" horiz-adv-x="291" d="M81 0v714h87v-714h-87zM354 640q0 -49 -20 -87t-58 -73l-32 33q20 20 31.5 45.5t11.5 50.5q0 13 -3.5 23t-7.5 20t-7.5 20.5t-3.5 24.5v17h89v-74z" />
<glyph unicode="&#x13f;" horiz-adv-x="588" d="M90 0v714h93v-627h390v-87h-483zM477 357q0 -26 -18.5 -45t-44.5 -19t-45.5 18.5t-19.5 45.5q0 26 19.5 45.5t45.5 19.5t44.5 -19.5t18.5 -45.5z" />
<glyph unicode="&#x140;" horiz-adv-x="459" d="M81 0v714h87v-714h-87zM418 260q0 -26 -18.5 -45t-44.5 -19t-45.5 18.5t-19.5 45.5q0 26 19.5 45.5t45.5 19.5t44.5 -19.5t18.5 -45.5z" />
<glyph unicode="&#x141;" horiz-adv-x="601" d="M104 0v292l-63 -24v71l63 23v352h93v-317l229 88v-71l-229 -87v-240h389v-87h-482z" />
<glyph unicode="&#x142;" horiz-adv-x="307" d="M201 396v-396h-88v360l-112 -52v75l112 51v280h88v-243l114 53v-75z" />
<glyph unicode="&#x143;" horiz-adv-x="753" d="M554 0l-375 594v-594h-89v714h117l366 -580v580h90v-714h-109zM349 758l93 150l65 -32l-90 -118h-68z" />
<glyph unicode="&#x144;" horiz-adv-x="597" d="M78 0v520h87v-86q32 48 76.5 73t101.5 25q85 0 133.5 -51.5t48.5 -145.5v-335h-87v315q0 23 -4.5 47t-17 43.5t-35.5 32t-59 12.5q-33 0 -62 -11.5t-50 -33t-33 -51.5t-12 -66v-288h-87zM265 590l93 150l65 -32l-90 -118h-68z" />
<glyph unicode="&#x145;" horiz-adv-x="753" d="M554 0l-375 594v-594h-89v714h117l366 -580v580h90v-714h-109zM272 -173l69 117h85l-115 -144z" />
<glyph unicode="&#x146;" horiz-adv-x="597" d="M78 0v520h87v-86q32 48 76.5 73t101.5 25q85 0 133.5 -51.5t48.5 -145.5v-335h-87v315q0 23 -4.5 47t-17 43.5t-35.5 32t-59 12.5q-33 0 -62 -11.5t-50 -33t-33 -51.5t-12 -66v-288h-87zM202 -173l69 117h85l-115 -144z" />
<glyph unicode="&#x147;" horiz-adv-x="753" d="M554 0l-375 594v-594h-89v714h117l366 -580v580h90v-714h-109zM342 752q-26 26 -54 52.5t-63 52.5l29 38l122 -73l123 73l28 -38q-35 -26 -63 -52.5t-54 -52.5h-68z" />
<glyph unicode="&#x148;" horiz-adv-x="597" d="M78 0v520h87v-86q32 48 76.5 73t101.5 25q85 0 133.5 -51.5t48.5 -145.5v-335h-87v315q0 23 -4.5 47t-17 43.5t-35.5 32t-59 12.5q-33 0 -62 -11.5t-50 -33t-33 -51.5t-12 -66v-288h-87zM271 584q-26 26 -54 52.5t-63 52.5l29 38l122 -73l123 73l28 -38 q-35 -26 -63 -52.5t-54 -52.5h-68z" />
<glyph unicode="&#x14a;" horiz-adv-x="753" d="M663 73q0 -65 -15 -109.5t-41.5 -71.5t-62.5 -39t-77 -12q-35 0 -69 9t-61 30l44 72q14 -11 36 -18.5t47 -7.5q42 0 67 21.5t34 57.5l-386 589v-594h-89v714h115l368 -561v561h90v-641z" />
<glyph unicode="&#x14b;" horiz-adv-x="597" d="M525 -1q0 -90 -47 -135.5t-128 -45.5q-21 0 -43 4t-38 11l24 72q11 -5 24.5 -8t27.5 -3q52 0 72.5 27.5t20.5 73.5v320q0 23 -4.5 47t-17 43.5t-35.5 32t-59 12.5q-33 0 -62 -11.5t-50 -33t-33 -51.5t-12 -66v-288h-87v520h87v-86q32 48 76.5 73t101.5 25 q85 0 133.5 -51.5t48.5 -145.5v-336z" />
<glyph unicode="&#x14c;" horiz-adv-x="775" d="M728 357q0 -79 -24 -146.5t-68 -117t-107 -78t-141 -28.5t-141 28.5t-107.5 78t-68.5 117t-24 146.5t24 147t68.5 117.5t107.5 77.5t141 28t141 -28t107 -77.5t68 -117.5t24 -147zM630 357q0 62 -16.5 114t-48 89t-76.5 57.5t-101 20.5q-57 0 -101.5 -20.5t-76 -57.5 t-48 -89t-16.5 -114t16.5 -114t48 -89t76 -57.5t101.5 -20.5q56 0 101 20.5t76.5 57.5t48 89t16.5 114zM237 776v58h300v-58h-300z" />
<glyph unicode="&#x14d;" horiz-adv-x="600" d="M556 259q0 -59 -18 -108.5t-51 -85.5t-80.5 -56.5t-106.5 -20.5t-106.5 20.5t-80.5 56.5t-51 85.5t-18 108.5t18 109t51 86.5t80.5 57t106.5 20.5t106.5 -20.5t80.5 -57t51 -86.5t18 -109zM463 259q0 41 -11 76.5t-31.5 61.5t-51 41t-69.5 15t-69.5 -15t-51.5 -41 t-32 -61.5t-11 -76.5t11 -76t32 -61t51.5 -41t69.5 -15t69.5 15t51 41t31.5 61t11 76zM150 608v58h300v-58h-300z" />
<glyph unicode="&#x14e;" horiz-adv-x="775" d="M728 357q0 -79 -24 -146.5t-68 -117t-107 -78t-141 -28.5t-141 28.5t-107.5 78t-68.5 117t-24 146.5t24 147t68.5 117.5t107.5 77.5t141 28t141 -28t107 -77.5t68 -117.5t24 -147zM630 357q0 62 -16.5 114t-48 89t-76.5 57.5t-101 20.5q-57 0 -101.5 -20.5t-76 -57.5 t-48 -89t-16.5 -114t16.5 -114t48 -89t76 -57.5t101.5 -20.5q56 0 101 20.5t76.5 57.5t48 89t16.5 114zM388 759q-67 0 -108 33.5t-49 83.5l51 15q8 -29 35 -48.5t71 -19.5t71 19.5t35 48.5l50 -15q-4 -25 -16.5 -46.5t-32.5 -37t-47 -24.5t-60 -9z" />
<glyph unicode="&#x14f;" horiz-adv-x="600" d="M556 259q0 -59 -18 -108.5t-51 -85.5t-80.5 -56.5t-106.5 -20.5t-106.5 20.5t-80.5 56.5t-51 85.5t-18 108.5t18 109t51 86.5t80.5 57t106.5 20.5t106.5 -20.5t80.5 -57t51 -86.5t18 -109zM463 259q0 41 -11 76.5t-31.5 61.5t-51 41t-69.5 15t-69.5 -15t-51.5 -41 t-32 -61.5t-11 -76.5t11 -76t32 -61t51.5 -41t69.5 -15t69.5 15t51 41t31.5 61t11 76zM300 591q-67 0 -108 33.5t-49 83.5l51 15q8 -29 35 -48.5t71 -19.5t71 19.5t35 48.5l50 -15q-4 -25 -16.5 -46.5t-32.5 -37t-47 -24.5t-60 -9z" />
<glyph unicode="&#x150;" horiz-adv-x="775" d="M728 357q0 -79 -24 -146.5t-68 -117t-107 -78t-141 -28.5t-141 28.5t-107.5 78t-68.5 117t-24 146.5t24 147t68.5 117.5t107.5 77.5t141 28t141 -28t107 -77.5t68 -117.5t24 -147zM630 357q0 62 -16.5 114t-48 89t-76.5 57.5t-101 20.5q-57 0 -101.5 -20.5t-76 -57.5 t-48 -89t-16.5 -114t16.5 -114t48 -89t76 -57.5t101.5 -20.5q56 0 101 20.5t76.5 57.5t48 89t16.5 114zM259 757l93 150l65 -32l-90 -118h-68zM415 757l93 150l65 -32l-90 -118h-68z" />
<glyph unicode="&#x151;" horiz-adv-x="600" d="M556 259q0 -59 -18 -108.5t-51 -85.5t-80.5 -56.5t-106.5 -20.5t-106.5 20.5t-80.5 56.5t-51 85.5t-18 108.5t18 109t51 86.5t80.5 57t106.5 20.5t106.5 -20.5t80.5 -57t51 -86.5t18 -109zM463 259q0 41 -11 76.5t-31.5 61.5t-51 41t-69.5 15t-69.5 -15t-51.5 -41 t-32 -61.5t-11 -76.5t11 -76t32 -61t51.5 -41t69.5 -15t69.5 15t51 41t31.5 61t11 76zM191 590l93 150l65 -32l-90 -118h-68zM347 590l93 150l65 -32l-90 -118h-68z" />
<glyph unicode="&#x152;" horiz-adv-x="1078" d="M482 0q-22 -6 -45.5 -9.5t-50.5 -3.5q-77 0 -140 28.5t-107 78t-68 117.5t-24 147t24 146.5t68.5 117t107 77.5t139.5 28q27 0 50.5 -3.5t46.5 -9.5h537v-87h-399q41 -39 66 -93.5t33 -117.5h258v-82h-254q-3 -75 -29.5 -138.5t-73.5 -108.5h409v-87h-548zM630 357 q0 63 -16.5 114.5t-48 89t-76.5 58t-102 20.5t-101.5 -20.5t-76 -58t-48 -89t-16.5 -114.5q0 -62 16.5 -114t48 -89.5t76 -58t101.5 -20.5t102 20.5t76.5 58t48 89.5t16.5 114z" />
<glyph unicode="&#x153;" horiz-adv-x="1001" d="M962 270q0 -11 -0.5 -18.5t-1.5 -12.5h-408q4 -81 51.5 -126t124.5 -45q47 0 84.5 17t66.5 49l61 -55q-41 -43 -93.5 -67t-121.5 -24q-78 0 -132.5 31.5t-86.5 85.5q-31 -54 -84 -85.5t-125 -31.5q-59 0 -106 20.5t-79.5 57t-50 86t-17.5 107.5t17.5 108t50 87t79.5 57.5 t106 20.5q72 0 125.5 -32t84.5 -86q30 54 83 86t125 32q57 0 102.5 -20t78 -55t49.5 -83t17 -104zM460 259q0 41 -11 76.5t-31.5 61.5t-50.5 41t-69 15t-69 -15t-50.5 -41t-31.5 -61.5t-11 -76.5t11 -76t31.5 -61t50.5 -41t69 -15t69 15t50.5 41t31.5 61t11 76zM872 306 q-7 75 -51.5 113t-107.5 38q-34 0 -62 -11t-49 -31.5t-33 -48t-15 -60.5h318z" />
<glyph unicode="&#x154;" horiz-adv-x="674" d="M530 0l-152 291h-195v-291h-93v714h305q53 0 96 -14.5t73 -41.5t46.5 -65.5t16.5 -85.5q0 -75 -40 -126t-112 -74l161 -307h-106zM530 500q0 59 -37.5 93t-100.5 34h-209v-253h207q66 0 103 34.5t37 91.5zM279 758l93 150l65 -32l-90 -118h-68z" />
<glyph unicode="&#x155;" horiz-adv-x="393" d="M359 428q-13 7 -27.5 11.5t-32.5 4.5q-26 0 -50 -11.5t-43 -33t-30 -54t-11 -74.5v-271h-87v520h87v-88q26 42 64.5 70t86.5 28q23 0 41.5 -5.5t29.5 -13.5zM164 590l93 150l65 -32l-90 -118h-68z" />
<glyph unicode="&#x156;" horiz-adv-x="674" d="M530 0l-152 291h-195v-291h-93v714h305q53 0 96 -14.5t73 -41.5t46.5 -65.5t16.5 -85.5q0 -75 -40 -126t-112 -74l161 -307h-106zM530 500q0 59 -37.5 93t-100.5 34h-209v-253h207q66 0 103 34.5t37 91.5zM242 -173l69 117h85l-115 -144z" />
<glyph unicode="&#x157;" horiz-adv-x="393" d="M359 428q-13 7 -27.5 11.5t-32.5 4.5q-26 0 -50 -11.5t-43 -33t-30 -54t-11 -74.5v-271h-87v520h87v-88q26 42 64.5 70t86.5 28q23 0 41.5 -5.5t29.5 -13.5zM11 -173l69 117h85l-115 -144z" />
<glyph unicode="&#x158;" horiz-adv-x="674" d="M530 0l-152 291h-195v-291h-93v714h305q53 0 96 -14.5t73 -41.5t46.5 -65.5t16.5 -85.5q0 -75 -40 -126t-112 -74l161 -307h-106zM530 500q0 59 -37.5 93t-100.5 34h-209v-253h207q66 0 103 34.5t37 91.5zM290 752q-26 26 -54 52.5t-63 52.5l29 38l122 -73l123 73l28 -38 q-35 -26 -63 -52.5t-54 -52.5h-68z" />
<glyph unicode="&#x159;" horiz-adv-x="393" d="M359 428q-13 7 -27.5 11.5t-32.5 4.5q-26 0 -50 -11.5t-43 -33t-30 -54t-11 -74.5v-271h-87v520h87v-88q26 42 64.5 70t86.5 28q23 0 41.5 -5.5t29.5 -13.5zM194 584q-26 26 -54 52.5t-63 52.5l29 38l122 -73l123 73l28 -38q-35 -26 -63 -52.5t-54 -52.5h-68z" />
<glyph unicode="&#x15a;" horiz-adv-x="621" d="M303 642q-30 0 -57 -7t-47 -20.5t-31.5 -34t-11.5 -46.5q0 -35 23 -57t61 -36q29 -11 65 -20t73.5 -20t72.5 -26t62.5 -38t44.5 -55.5t17 -78.5q0 -47 -17.5 -86.5t-51 -68t-81.5 -45t-108 -16.5q-93 0 -165.5 37.5t-113.5 102.5l79 49q20 -30 45 -50t52 -32.5 t54.5 -17.5t53.5 -5q73 0 115.5 33.5t42.5 90.5q0 30 -12.5 50.5t-35 34t-54 23.5t-70.5 19q-43 10 -87 23.5t-79.5 36.5t-58 58t-22.5 88q0 49 20 86t53.5 62t78 38t94.5 13q78 0 143 -30t110 -89l-72 -53q-31 42 -78.5 64.5t-106.5 22.5zM257 758l93 150l65 -32l-90 -118 h-68z" />
<glyph unicode="&#x15b;" horiz-adv-x="518" d="M216 590l93 150l65 -32l-90 -118h-68zM475 154q0 -75 -56 -120.5t-157 -45.5q-77 0 -136 28.5t-94 82.5l64 48q30 -42 73.5 -63t97.5 -21q53 0 87 21t34 63q0 20 -9 32.5t-26.5 21t-44.5 14.5t-63 13q-38 7 -72 17t-59.5 27t-40 43t-14.5 64q0 40 16.5 68.5t43.5 47.5 t62 28t73 9q37 0 68.5 -7.5t58 -20t48 -28t36.5 -31.5l-58 -55q-28 32 -67 49.5t-87 17.5q-21 0 -40.5 -4t-35 -12.5t-25 -21.5t-9.5 -32q0 -20 10.5 -33t28 -21t41 -13.5t49.5 -10.5q39 -8 75.5 -17.5t65 -26t45.5 -43t17 -68.5z" />
<glyph unicode="&#x15c;" horiz-adv-x="621" d="M303 642q-30 0 -57 -7t-47 -20.5t-31.5 -34t-11.5 -46.5q0 -35 23 -57t61 -36q29 -11 65 -20t73.5 -20t72.5 -26t62.5 -38t44.5 -55.5t17 -78.5q0 -47 -17.5 -86.5t-51 -68t-81.5 -45t-108 -16.5q-93 0 -165.5 37.5t-113.5 102.5l79 49q20 -30 45 -50t52 -32.5 t54.5 -17.5t53.5 -5q73 0 115.5 33.5t42.5 90.5q0 30 -12.5 50.5t-35 34t-54 23.5t-70.5 19q-43 10 -87 23.5t-79.5 36.5t-58 58t-22.5 88q0 49 20 86t53.5 62t78 38t94.5 13q78 0 143 -30t110 -89l-72 -53q-31 42 -78.5 64.5t-106.5 22.5zM343 893q26 -26 54 -52.5 t63 -52.5l-28 -38l-123 73l-122 -73l-29 38q35 26 63 52.5t54 52.5h68z" />
<glyph unicode="&#x15d;" horiz-adv-x="518" d="M475 154q0 -75 -56 -120.5t-157 -45.5q-77 0 -136 28.5t-94 82.5l64 48q30 -42 73.5 -63t97.5 -21q53 0 87 21t34 63q0 20 -9 32.5t-26.5 21t-44.5 14.5t-63 13q-38 7 -72 17t-59.5 27t-40 43t-14.5 64q0 40 16.5 68.5t43.5 47.5t62 28t73 9q37 0 68.5 -7.5t58 -20 t48 -28t36.5 -31.5l-58 -55q-28 32 -67 49.5t-87 17.5q-21 0 -40.5 -4t-35 -12.5t-25 -21.5t-9.5 -32q0 -20 10.5 -33t28 -21t41 -13.5t49.5 -10.5q39 -8 75.5 -17.5t65 -26t45.5 -43t17 -68.5zM299 725q26 -26 54 -52.5t63 -52.5l-28 -38l-123 73l-122 -73l-29 38 q35 26 63 52.5t54 52.5h68z" />
<glyph unicode="&#x15e;" horiz-adv-x="621" d="M303 642q-30 0 -57 -7t-47 -20.5t-31.5 -34t-11.5 -46.5q0 -35 23 -57t61 -36q29 -11 65 -20t73.5 -20t72.5 -26t62.5 -38t44.5 -55.5t17 -78.5q0 -47 -17.5 -86.5t-51 -68t-81.5 -45t-108 -16.5q-93 0 -165.5 37.5t-113.5 102.5l79 49q20 -30 45 -50t52 -32.5 t54.5 -17.5t53.5 -5q73 0 115.5 33.5t42.5 90.5q0 30 -12.5 50.5t-35 34t-54 23.5t-70.5 19q-43 10 -87 23.5t-79.5 36.5t-58 58t-22.5 88q0 49 20 86t53.5 62t78 38t94.5 13q78 0 143 -30t110 -89l-72 -53q-31 42 -78.5 64.5t-106.5 22.5zM265 -25q14 5 31 5q41 0 62.5 -21 t21.5 -53q0 -37 -30.5 -63.5t-87.5 -26.5q-25 0 -44 5.5t-26 10.5l9 45q8 -5 21 -8.5t28 -3.5q24 0 39.5 7.5t15.5 24.5q0 11 -10 18.5t-40 7.5z" />
<glyph unicode="&#x15f;" horiz-adv-x="518" d="M475 154q0 -75 -56 -120.5t-157 -45.5q-77 0 -136 28.5t-94 82.5l64 48q30 -42 73.5 -63t97.5 -21q53 0 87 21t34 63q0 20 -9 32.5t-26.5 21t-44.5 14.5t-63 13q-38 7 -72 17t-59.5 27t-40 43t-14.5 64q0 40 16.5 68.5t43.5 47.5t62 28t73 9q37 0 68.5 -7.5t58 -20 t48 -28t36.5 -31.5l-58 -55q-28 32 -67 49.5t-87 17.5q-21 0 -40.5 -4t-35 -12.5t-25 -21.5t-9.5 -32q0 -20 10.5 -33t28 -21t41 -13.5t49.5 -10.5q39 -8 75.5 -17.5t65 -26t45.5 -43t17 -68.5zM213 -25q14 5 31 5q41 0 62.5 -21t21.5 -53q0 -37 -30.5 -63.5t-87.5 -26.5 q-25 0 -44 5.5t-26 10.5l9 45q8 -5 21 -8.5t28 -3.5q24 0 39.5 7.5t15.5 24.5q0 11 -10 18.5t-40 7.5z" />
<glyph unicode="&#x160;" horiz-adv-x="621" d="M303 642q-30 0 -57 -7t-47 -20.5t-31.5 -34t-11.5 -46.5q0 -35 23 -57t61 -36q29 -11 65 -20t73.5 -20t72.5 -26t62.5 -38t44.5 -55.5t17 -78.5q0 -47 -17.5 -86.5t-51 -68t-81.5 -45t-108 -16.5q-93 0 -165.5 37.5t-113.5 102.5l79 49q20 -30 45 -50t52 -32.5 t54.5 -17.5t53.5 -5q73 0 115.5 33.5t42.5 90.5q0 30 -12.5 50.5t-35 34t-54 23.5t-70.5 19q-43 10 -87 23.5t-79.5 36.5t-58 58t-22.5 88q0 49 20 86t53.5 62t78 38t94.5 13q78 0 143 -30t110 -89l-72 -53q-31 42 -78.5 64.5t-106.5 22.5zM272 752q-26 26 -54 52.5 t-63 52.5l29 38l122 -73l123 73l28 -38q-35 -26 -63 -52.5t-54 -52.5h-68z" />
<glyph unicode="&#x161;" horiz-adv-x="518" d="M220 584q-26 26 -54 52.5t-63 52.5l29 38l122 -73l123 73l28 -38q-35 -26 -63 -52.5t-54 -52.5h-68zM475 154q0 -75 -56 -120.5t-157 -45.5q-77 0 -136 28.5t-94 82.5l64 48q30 -42 73.5 -63t97.5 -21q53 0 87 21t34 63q0 20 -9 32.5t-26.5 21t-44.5 14.5t-63 13 q-38 7 -72 17t-59.5 27t-40 43t-14.5 64q0 40 16.5 68.5t43.5 47.5t62 28t73 9q37 0 68.5 -7.5t58 -20t48 -28t36.5 -31.5l-58 -55q-28 32 -67 49.5t-87 17.5q-21 0 -40.5 -4t-35 -12.5t-25 -21.5t-9.5 -32q0 -20 10.5 -33t28 -21t41 -13.5t49.5 -10.5q39 -8 75.5 -17.5 t65 -26t45.5 -43t17 -68.5z" />
<glyph unicode="&#x162;" horiz-adv-x="625" d="M359 627v-627h-93v627h-240v87h573v-87h-240zM203 -173l69 117h85l-115 -144z" />
<glyph unicode="&#x163;" horiz-adv-x="398" d="M382 23q-45 -35 -113 -35q-46 0 -80.5 16t-55.5 50q-12 19 -17 42.5t-5 60.5v291h-90v72h90v146h87v-146h168v-72h-168v-291q0 -90 80 -90q23 0 39.5 7t27.5 15zM136 -173l69 117h85l-115 -144z" />
<glyph unicode="&#x164;" horiz-adv-x="625" d="M359 627v-627h-93v627h-240v87h573v-87h-240zM278 752q-26 26 -54 52.5t-63 52.5l29 38l122 -73l123 73l28 -38q-35 -26 -63 -52.5t-54 -52.5h-68z" />
<glyph unicode="&#x165;" horiz-adv-x="394" d="M380 23q-45 -35 -113 -35q-46 0 -80.5 16t-55.5 50q-12 19 -17 42.5t-5 60.5v291h-90v72h90v146h87v-146h168v-72h-168v-291q0 -90 80 -90q23 0 39.5 7t27.5 15zM358.349 702.328q0 -41.4453 -18.0752 -73.5869t-52.417 -61.7451l-28.9199 27.9121 q18.0742 16.917 28.4678 38.4854q10.3926 21.5684 10.3926 42.7139q0 10.9961 -3.16309 19.4541t-6.77734 16.917q-3.61523 8.45801 -6.77832 17.3389t-3.16309 20.7227v14.3789h80.4336v-62.5908z" />
<glyph unicode="&#x166;" horiz-adv-x="625" d="M359 343v-343h-94v343h-112v57h112v227h-239v87h573v-87h-240v-227h113v-57h-113z" />
<glyph unicode="&#x167;" horiz-adv-x="395" d="M109 266h-89v54h89v128h-89v72h89v146h88v-146h168v-72h-168v-128h124v-54h-124v-109q0 -90 79 -90q24 0 40 7t27 15l37 -66q-45 -35 -113 -35q-46 0 -81 15.5t-55 50.5q-11 19 -16.5 42.5t-5.5 60.5v109z" />
<glyph unicode="&#x168;" horiz-adv-x="717" d="M635 259q0 -62 -21 -112.5t-58 -86t-88 -54.5t-111 -19t-110.5 19t-87 54.5t-57 86t-20.5 112.5v455h93v-455q0 -84 48.5 -134t133.5 -50q42 0 76 13t58 37t37 58t13 76v455h94v-455zM525 847q-14 -38 -39.5 -60.5t-56.5 -22.5q-17 0 -34 6t-33.5 13t-32 13t-29.5 6 q-17 0 -33 -8.5t-33 -28.5l-35 23q14 38 39.5 60.5t56.5 22.5q17 0 34 -6t33.5 -13t32 -13t30.5 -6q17 0 32.5 8.5t32.5 28.5z" />
<glyph unicode="&#x169;" horiz-adv-x="597" d="M519 520v-520h-87v85q-33 -47 -77 -72t-101 -25q-85 0 -133.5 51.5t-48.5 144.5v336h87v-316q0 -23 4.5 -47t17 -43.5t35 -32t58.5 -12.5q34 0 63 11.5t50 33t33 51.5t12 66v289h87zM460 679q-14 -38 -39.5 -60.5t-56.5 -22.5q-17 0 -34 6t-33.5 13t-32 13t-29.5 6 q-17 0 -33 -8.5t-33 -28.5l-35 23q14 38 39.5 60.5t56.5 22.5q17 0 34 -6t33.5 -13t32 -13t30.5 -6q17 0 32.5 8.5t32.5 28.5z" />
<glyph unicode="&#x16a;" horiz-adv-x="717" d="M635 259q0 -62 -21 -112.5t-58 -86t-88 -54.5t-111 -19t-110.5 19t-87 54.5t-57 86t-20.5 112.5v455h93v-455q0 -84 48.5 -134t133.5 -50q42 0 76 13t58 37t37 58t13 76v455h94v-455zM209 776v58h300v-58h-300z" />
<glyph unicode="&#x16b;" horiz-adv-x="597" d="M519 520v-520h-87v85q-33 -47 -77 -72t-101 -25q-85 0 -133.5 51.5t-48.5 144.5v336h87v-316q0 -23 4.5 -47t17 -43.5t35 -32t58.5 -12.5q34 0 63 11.5t50 33t33 51.5t12 66v289h87zM146 608v58h300v-58h-300z" />
<glyph unicode="&#x16c;" horiz-adv-x="717" d="M635 259q0 -62 -21 -112.5t-58 -86t-88 -54.5t-111 -19t-110.5 19t-87 54.5t-57 86t-20.5 112.5v455h93v-455q0 -84 48.5 -134t133.5 -50q42 0 76 13t58 37t37 58t13 76v455h94v-455zM359 759q-67 0 -108 33.5t-49 83.5l51 15q8 -29 35 -48.5t71 -19.5t71 19.5t35 48.5 l50 -15q-4 -25 -16.5 -46.5t-32.5 -37t-47 -24.5t-60 -9z" />
<glyph unicode="&#x16d;" horiz-adv-x="597" d="M519 520v-520h-87v85q-33 -47 -77 -72t-101 -25q-85 0 -133.5 51.5t-48.5 144.5v336h87v-316q0 -23 4.5 -47t17 -43.5t35 -32t58.5 -12.5q34 0 63 11.5t50 33t33 51.5t12 66v289h87zM296 591q-67 0 -108 33.5t-49 83.5l51 15q8 -29 35 -48.5t71 -19.5t71 19.5t35 48.5 l50 -15q-4 -25 -16.5 -46.5t-32.5 -37t-47 -24.5t-60 -9z" />
<glyph unicode="&#x16e;" horiz-adv-x="717" d="M635 259q0 -62 -21 -112.5t-58 -86t-88 -54.5t-111 -19t-110.5 19t-87 54.5t-57 86t-20.5 112.5v455h93v-455q0 -84 48.5 -134t133.5 -50q42 0 76 13t58 37t37 58t13 76v455h94v-455zM465 815q0 -21 -8 -39.5t-22.5 -32.5t-34 -22t-41.5 -8q-23 0 -42 8t-33.5 22 t-22.5 32.5t-8 39.5t8 39.5t22.5 33t33.5 22.5t42 8q22 0 41.5 -8t34 -22.5t22.5 -33t8 -39.5zM415 815q0 23 -16.5 40t-39.5 17t-40 -17t-17 -40q0 -24 17 -40.5t40 -16.5t39.5 16.5t16.5 40.5z" />
<glyph unicode="&#x16f;" horiz-adv-x="597" d="M519 520v-520h-87v85q-33 -47 -77 -72t-101 -25q-85 0 -133.5 51.5t-48.5 144.5v336h87v-316q0 -23 4.5 -47t17 -43.5t35 -32t58.5 -12.5q34 0 63 11.5t50 33t33 51.5t12 66v289h87zM401 679q0 -21 -8 -39.5t-22.5 -32.5t-34 -22t-41.5 -8q-23 0 -42 8t-33.5 22 t-22.5 32.5t-8 39.5t8 39.5t22.5 33t33.5 22.5t42 8q22 0 41.5 -8t34 -22.5t22.5 -33t8 -39.5zM351 679q0 23 -16.5 40t-39.5 17t-40 -17t-17 -40q0 -24 17 -40.5t40 -16.5t39.5 16.5t16.5 40.5z" />
<glyph unicode="&#x170;" horiz-adv-x="717" d="M635 259q0 -62 -21 -112.5t-58 -86t-88 -54.5t-111 -19t-110.5 19t-87 54.5t-57 86t-20.5 112.5v455h93v-455q0 -84 48.5 -134t133.5 -50q42 0 76 13t58 37t37 58t13 76v455h94v-455zM238 758l93 150l65 -32l-90 -118h-68zM394 758l93 150l65 -32l-90 -118h-68z" />
<glyph unicode="&#x171;" horiz-adv-x="597" d="M519 520v-520h-87v85q-33 -47 -77 -72t-101 -25q-85 0 -133.5 51.5t-48.5 144.5v336h87v-316q0 -23 4.5 -47t17 -43.5t35 -32t58.5 -12.5q34 0 63 11.5t50 33t33 51.5t12 66v289h87zM180 590l93 150l65 -32l-90 -118h-68zM336 590l93 150l65 -32l-90 -118h-68z" />
<glyph unicode="&#x172;" horiz-adv-x="717" d="M635 259q0 -77 -31 -134.5t-85 -92.5q-31 -20 -52 -40t-21 -45q0 -21 13.5 -33t35.5 -12t37 10t27 24v-67q-11 -11 -31 -20t-46 -9q-41 0 -70.5 23t-29.5 64q0 16 5.5 32.5t17.5 31.5q-11 -2 -23.5 -3t-24.5 -1q-60 0 -110.5 19t-87 54.5t-57 86t-20.5 112.5v455h93v-455 q0 -84 48.5 -134t133.5 -50q42 0 76 13t58 37t37 58t13 76v455h94v-455z" />
<glyph unicode="&#x173;" horiz-adv-x="597" d="M432 85q-32 -47 -76.5 -72t-101.5 -25q-46 0 -80.5 15.5t-57 42.5t-33.5 62.5t-11 75.5v336h87v-311q0 -31 6.5 -56.5t20.5 -44t36 -29t54 -10.5q33 0 61.5 11.5t49.5 33t33 51.5t12 66v289h87v-520q-14 -2 -31 -7.5t-31.5 -14t-24.5 -21t-10 -28.5q0 -18 13 -30t36 -12 q21 0 36 10t26 22v-67q-11 -11 -30.5 -19t-43.5 -8q-42 0 -70.5 23.5t-28.5 59.5q0 26 16.5 52t55.5 40v85z" />
<glyph unicode="&#x174;" horiz-adv-x="955" d="M744 0h-99l-168 572l-168 -572h-99l-184 714h99l140 -574l170 574h87l170 -575l140 575h98zM511 893q26 -26 54 -52.5t63 -52.5l-28 -38l-123 73l-122 -73l-29 38q35 26 63 52.5t54 52.5h68z" />
<glyph unicode="&#x175;" horiz-adv-x="788" d="M616 0h-95l-126 408l-128 -408h-95l-144 520h93l105 -415l130 415h80l129 -415l106 415h89zM430 725q26 -26 54 -52.5t63 -52.5l-28 -38l-123 73l-122 -73l-29 38q35 26 63 52.5t54 52.5h68z" />
<glyph unicode="&#x176;" horiz-adv-x="614" d="M356 299v-299h-96v298l-254 416h109l195 -327l194 327h106zM343 893q26 -26 54 -52.5t63 -52.5l-28 -38l-123 73l-122 -73l-29 38q35 26 63 52.5t54 52.5h68z" />
<glyph unicode="&#x177;" horiz-adv-x="535" d="M312 -24q-15 -39 -31 -69t-37 -50.5t-48 -30.5t-63 -10q-62 0 -106 32l38 64q14 -9 29.5 -14.5t32.5 -5.5q36 0 56.5 23t35.5 56l14 31l-220 518h100l166 -404l147 404h94zM302 725q26 -26 54 -52.5t63 -52.5l-28 -38l-123 73l-122 -73l-29 38q35 26 63 52.5t54 52.5h68z " />
<glyph unicode="&#x178;" horiz-adv-x="614" d="M356 299v-299h-96v298l-254 416h109l195 -327l194 327h106zM166 808q0 20 14 34t33 14q20 0 34 -14t14 -34q0 -19 -14 -33t-34 -14q-19 0 -33 13.5t-14 33.5zM356 808q0 20 14 34t33 14q20 0 34 -14t14 -34q0 -19 -14 -33t-34 -14q-19 0 -33 13.5t-14 33.5z" />
<glyph unicode="&#x179;" horiz-adv-x="626" d="M41 0v81l411 546h-394v87h515v-79l-411 -548h420v-87h-541zM249 758l93 150l65 -32l-90 -118h-68z" />
<glyph unicode="&#x17a;" horiz-adv-x="508" d="M40 0v71l302 371h-289v78h404v-70l-304 -373h313v-77h-426zM213 590l93 150l65 -32l-90 -118h-68z" />
<glyph unicode="&#x17b;" horiz-adv-x="626" d="M41 0v81l411 546h-394v87h515v-79l-411 -548h420v-87h-541zM257 808q0 20 14 34t33 14q20 0 34 -14t14 -34q0 -19 -14 -33t-34 -14q-19 0 -33 13.5t-14 33.5z" />
<glyph unicode="&#x17c;" horiz-adv-x="508" d="M40 0v71l302 371h-289v78h404v-70l-304 -373h313v-77h-426zM203 640q0 20 14 34t33 14q20 0 34 -14t14 -34q0 -19 -14 -33t-34 -14q-19 0 -33 13.5t-14 33.5z" />
<glyph unicode="&#x17d;" horiz-adv-x="626" d="M41 0v81l411 546h-394v87h515v-79l-411 -548h420v-87h-541zM269 752q-26 26 -54 52.5t-63 52.5l29 38l122 -73l123 73l28 -38q-35 -26 -63 -52.5t-54 -52.5h-68z" />
<glyph unicode="&#x17e;" horiz-adv-x="508" d="M40 0v71l302 371h-289v78h404v-70l-304 -373h313v-77h-426zM212 584q-26 26 -54 52.5t-63 52.5l29 38l122 -73l123 73l28 -38q-35 -26 -63 -52.5t-54 -52.5h-68z" />
<glyph unicode="&#x192;" horiz-adv-x="580" d="M503 637q-14 6 -25.5 9t-28.5 3q-49 0 -72.5 -22.5t-30.5 -64.5l-16 -99h130l-13 -70h-130l-58 -341q-6 -37 -20.5 -68t-37 -53t-54 -34.5t-73.5 -12.5q-26 0 -47.5 4.5t-38.5 12.5l28 71q13 -5 27 -8.5t31 -3.5q45 0 68 23t31 65l59 345h-101l12 70h102l16 95 q12 76 57.5 122t127.5 46q26 0 47 -4.5t37 -12.5z" />
<glyph unicode="&#x1fa;" horiz-adv-x="680" d="M383 730q0 18 -12.5 31t-29.5 13q-18 0 -30.5 -13t-12.5 -31q0 -17 12.5 -29.5t30.5 -12.5q17 0 29.5 12.5t12.5 29.5zM340 625l-125 -339h245zM564 0l-74 203h-304l-75 -203h-100l261 676q-22 22 -22 54q0 38 26.5 65t64.5 27t64.5 -27t26.5 -65q0 -16 -6 -30t-16 -24 l260 -676h-106zM296 844l93 150l65 -32l-90 -118h-68z" />
<glyph unicode="&#x1fb;" horiz-adv-x="567" d="M555 2q-13 -5 -30 -7.5t-30 -2.5q-37 0 -66 19t-35 64q-35 -50 -83 -68.5t-96 -18.5q-81 0 -129 41.5t-48 116.5q0 45 17.5 74t44.5 46t58.5 24.5t59.5 11.5q30 4 59.5 7.5t53 10.5t38 20.5t14.5 38.5q0 22 -10.5 36.5t-27.5 23.5t-38 12.5t-42 3.5q-42 0 -84 -14 t-78 -41l-40 66q46 32 96 49t112 17q44 0 81 -9.5t63.5 -30.5t41.5 -53t15 -77v-246q0 -56 41 -56q20 0 31 8zM385 290q-13 -17 -29 -25.5t-35 -13.5t-40.5 -8t-45.5 -7q-22 -4 -41.5 -9t-34.5 -14.5t-23.5 -25t-8.5 -39.5q0 -47 31.5 -67.5t76.5 -20.5q28 0 55 8t48 25 t34 43.5t13 63.5v90zM373 659q0 -21 -8 -39.5t-22.5 -32.5t-34 -22t-41.5 -8q-23 0 -42 8t-33.5 22t-22.5 32.5t-8 39.5t8 39.5t22.5 33t33.5 22.5t42 8q22 0 41.5 -8t34 -22.5t22.5 -33t8 -39.5zM323 659q0 23 -16.5 40t-39.5 17t-40 -17t-17 -40q0 -24 17 -40.5t40 -16.5 t39.5 16.5t16.5 40.5zM237 785l93 150l65 -32l-90 -118h-68z" />
<glyph unicode="&#x1fc;" horiz-adv-x="894" d="M414 0v203h-219l-83 -203h-101l300 714h525v-87h-327v-209h286v-82h-286v-249h337v-87h-432zM414 631h-43l-141 -345h184v345zM426 758l93 150l65 -32l-90 -118h-68z" />
<glyph unicode="&#x1fd;" horiz-adv-x="917" d="M385 290q-13 -17 -29 -25.5t-35 -13.5t-40.5 -8t-45.5 -7q-22 -4 -41.5 -9t-34.5 -14.5t-23.5 -25t-8.5 -39.5q0 -47 31.5 -67.5t76.5 -20.5q28 0 55 8t48 25t34 43.5t13 63.5v90zM856 79q-41 -43 -93 -67t-121 -24t-123.5 26.5t-88.5 80.5q-30 -52 -80 -79.5t-119 -27.5 q-43 0 -78.5 10.5t-61 30.5t-39.5 49.5t-14 68.5q0 45 17.5 73t44.5 45t58.5 25t59.5 12q31 4 61 7.5t53 11t37 21t14 37.5q0 22 -10.5 36.5t-27.5 23.5t-38 12.5t-41 3.5q-43 0 -85 -14t-78 -41l-40 66q44 31 94.5 48.5t109.5 17.5q57 0 105.5 -19.5t74.5 -69.5 q38 48 84 68.5t100 20.5q57 0 102.5 -20t78 -55t49.5 -82.5t17 -101.5q0 -12 -0.5 -20.5t-1.5 -13.5h-408q4 -81 51.5 -126t123.5 -45q47 0 85.5 17.5t68.5 50.5zM789 306q-7 75 -52 113t-108 38q-34 0 -62 -11t-49 -31.5t-33 -48t-15 -60.5h319zM390 590l93 150l65 -32 l-90 -118h-68z" />
<glyph unicode="&#x1fe;" horiz-adv-x="775" d="M119 22l37 53q-52 51 -80.5 123t-28.5 159q0 79 24 147t68.5 117.5t107.5 77.5t141 28q54 0 101 -14t86 -40l35 51l46 -33l-37 -53q53 -50 81 -122t28 -159q0 -79 -24 -146.5t-68 -117t-107 -78t-141 -28.5q-55 0 -102 13.5t-85 39.5l-36 -50zM630 357q0 63 -17 114 t-49 88l-311 -444q55 -40 135 -40q56 0 101 20.5t76.5 58t48 89.5t16.5 114zM146 357q0 -63 16.5 -115t48.5 -89l311 445q-28 19 -61.5 29.5t-72.5 10.5q-57 0 -101.5 -20.5t-76 -57.5t-48 -89t-16.5 -114zM338 758l93 150l65 -32l-90 -118h-68z" />
<glyph unicode="&#x1ff;" horiz-adv-x="600" d="M263 590l93 150l65 -32l-90 -118h-68zM99 20l24 34q-38 37 -58.5 89.5t-20.5 115.5q0 59 18 109t51 86.5t80.5 57t106.5 20.5q38 0 71 -9t62 -26l23 33l45 -31l-24 -34q38 -37 58.5 -89.5t20.5 -116.5q0 -59 -18 -108.5t-51 -85.5t-80.5 -56.5t-106.5 -20.5 q-39 0 -72 8.5t-62 25.5l-22 -33zM136 259q0 -38 9.5 -71.5t28.5 -58.5l211 300q-36 25 -85 25q-39 0 -69.5 -15t-51.5 -41.5t-32 -62t-11 -76.5zM463 259q0 38 -9.5 72t-28.5 59l-211 -300q36 -25 86 -25q39 0 69.5 15t51 41.5t31.5 61.5t11 76z" />
<glyph unicode="&#x218;" horiz-adv-x="621" d="M303 642q-30 0 -57 -7t-47 -20.5t-31.5 -34t-11.5 -46.5q0 -35 23 -57t61 -36q29 -11 65 -20t73.5 -20t72.5 -26t62.5 -38t44.5 -55.5t17 -78.5q0 -47 -17.5 -86.5t-51 -68t-81.5 -45t-108 -16.5q-93 0 -165.5 37.5t-113.5 102.5l79 49q20 -30 45 -50t52 -32.5 t54.5 -17.5t53.5 -5q73 0 115.5 33.5t42.5 90.5q0 30 -12.5 50.5t-35 34t-54 23.5t-70.5 19q-43 10 -87 23.5t-79.5 36.5t-58 58t-22.5 88q0 49 20 86t53.5 62t78 38t94.5 13q78 0 143 -30t110 -89l-72 -53q-31 42 -78.5 64.5t-106.5 22.5zM211 -173l69 117h85l-115 -144z " />
<glyph unicode="&#x219;" horiz-adv-x="518" d="M475 154q0 -75 -56 -120.5t-157 -45.5q-77 0 -136 28.5t-94 82.5l64 48q30 -42 73.5 -63t97.5 -21q53 0 87 21t34 63q0 20 -9 32.5t-26.5 21t-44.5 14.5t-63 13q-38 7 -72 17t-59.5 27t-40 43t-14.5 64q0 40 16.5 68.5t43.5 47.5t62 28t73 9q37 0 68.5 -7.5t58 -20 t48 -28t36.5 -31.5l-58 -55q-28 32 -67 49.5t-87 17.5q-21 0 -40.5 -4t-35 -12.5t-25 -21.5t-9.5 -32q0 -20 10.5 -33t28 -21t41 -13.5t49.5 -10.5q39 -8 75.5 -17.5t65 -26t45.5 -43t17 -68.5zM167 -173l69 117h85l-115 -144z" />
<glyph unicode="&#x237;" horiz-adv-x="245" d="M177 -1q0 -92 -48.5 -136.5t-127.5 -44.5q-20 0 -42.5 4t-37.5 11l24 72q11 -5 24.5 -8t27.5 -3q52 0 72.5 27.5t20.5 75.5v523h87v-521z" />
<glyph unicode="&#x259;" horiz-adv-x="579" d="M272 451q-48 0 -85 -20.5t-60 -62.5l-70 47q35 54 89.5 85.5t127.5 31.5q58 0 106.5 -21t82.5 -57.5t53 -87t19 -109.5q0 -57 -18 -106.5t-51 -85.5t-80 -56.5t-105 -20.5q-59 0 -104.5 21t-76 57t-46 82.5t-15.5 97.5q0 20 3 35h402q-6 85 -54.5 127.5t-117.5 42.5z M283 63q66 0 107.5 39t51.5 111h-315q2 -31 13 -58t30.5 -47.5t47.5 -32.5t65 -12z" />
<glyph unicode="&#x2c6;" horiz-adv-x="324" d="M199 725q26 -26 54 -52.5t63 -52.5l-28 -38l-123 73l-122 -73l-29 38q35 26 63 52.5t54 52.5h68z" />
<glyph unicode="&#x2c7;" horiz-adv-x="324" d="M131 584q-26 26 -54 52.5t-63 52.5l29 38l122 -73l123 73l28 -38q-35 -26 -63 -52.5t-54 -52.5h-68z" />
<glyph unicode="&#x2d8;" horiz-adv-x="324" d="M165 591q-67 0 -108 33.5t-49 83.5l51 15q8 -29 35 -48.5t71 -19.5t71 19.5t35 48.5l50 -15q-4 -25 -16.5 -46.5t-32.5 -37t-47 -24.5t-60 -9z" />
<glyph unicode="&#x2d9;" horiz-adv-x="320" d="M112 640q0 20 14 34t33 14q20 0 34 -14t14 -34q0 -19 -14 -33t-34 -14q-19 0 -33 13.5t-14 33.5z" />
<glyph unicode="&#x2da;" horiz-adv-x="320" d="M269 679q0 -21 -8 -39.5t-22.5 -32.5t-34 -22t-41.5 -8q-23 0 -42 8t-33.5 22t-22.5 32.5t-8 39.5t8 39.5t22.5 33t33.5 22.5t42 8q22 0 41.5 -8t34 -22.5t22.5 -33t8 -39.5zM219 679q0 23 -16.5 40t-39.5 17t-40 -17t-17 -40q0 -24 17 -40.5t40 -16.5t39.5 16.5 t16.5 40.5z" />
<glyph unicode="&#x2db;" horiz-adv-x="320" d="M217 32q-32 -21 -52.5 -46t-20.5 -54q0 -23 14 -34.5t36 -11.5q23 0 38.5 10t27.5 24v-67q-11 -11 -31 -20t-49 -9q-41 0 -71 21.5t-30 63.5q0 29 20.5 61.5t73.5 61.5h44z" />
<glyph unicode="&#x2dc;" horiz-adv-x="332" d="M328 679q-14 -38 -39.5 -60.5t-56.5 -22.5q-17 0 -34 6t-33.5 13t-32 13t-29.5 6q-17 0 -33 -8.5t-33 -28.5l-35 23q14 38 39.5 60.5t56.5 22.5q17 0 34 -6t33.5 -13t32 -13t30.5 -6q17 0 32.5 8.5t32.5 28.5z" />
<glyph unicode="&#x2dd;" horiz-adv-x="352" d="M47 590l93 150l65 -32l-90 -118h-68zM203 590l93 150l65 -32l-90 -118h-68z" />
<glyph unicode="&#x394;" horiz-adv-x="606" d="M574 0h-542v14l265 712h12l265 -712v-14zM128 69h350l-175 477z" />
<glyph unicode="&#x3a9;" horiz-adv-x="622" d="M310 727q59 0 108 -23t84 -64t54 -97t19 -123q0 -62 -15.5 -113t-38 -94t-49.5 -78.5t-49 -66.5h142v-68h-207l-18 64q38 51 68.5 94t52 84.5t33 84t11.5 91.5q0 54 -13.5 98.5t-39 76.5t-61.5 50t-80 18q-45 0 -80.5 -18t-61 -50.5t-39 -77t-13.5 -98.5q0 -49 11.5 -91 t32.5 -83.5t51.5 -84.5t68.5 -94l-17 -64h-207v68h142q-24 33 -50.5 69t-49 78.5t-37.5 92.5t-15 112q0 67 19 123.5t53.5 97t83 63.5t107.5 23z" />
<glyph unicode="&#x3bc;" horiz-adv-x="580" d="M66 -174v694h87v-311q0 -68 28 -105t87 -37q30 0 57 10.5t47 31t31.5 51t11.5 70.5v290h87v-404q0 -28 7.5 -42t27.5 -14q7 0 15 1.5t12 4.5l10 -64q-11 -5 -26.5 -7.5t-27.5 -2.5q-38 0 -66 21.5t-31 64.5q-31 -48 -73 -69t-84 -21q-40 0 -69.5 16t-43.5 39v-217h-87z " />
<glyph unicode="&#x3c0;" horiz-adv-x="595" d="M492 450v-450h-70v450h-249v-450h-70v450h-70v70h529v-70h-70z" />
<glyph unicode="&#x1e80;" horiz-adv-x="955" d="M744 0h-99l-168 572l-168 -572h-99l-184 714h99l140 -574l170 574h87l170 -575l140 575h98zM447 758l-90 118l65 32l93 -150h-68z" />
<glyph unicode="&#x1e81;" horiz-adv-x="788" d="M616 0h-95l-126 408l-128 -408h-95l-144 520h93l105 -415l130 415h80l129 -415l106 415h89zM372 590l-90 118l65 32l93 -150h-68z" />
<glyph unicode="&#x1e82;" horiz-adv-x="955" d="M744 0h-99l-168 572l-168 -572h-99l-184 714h99l140 -574l170 574h87l170 -575l140 575h98zM443 758l93 150l65 -32l-90 -118h-68z" />
<glyph unicode="&#x1e83;" horiz-adv-x="788" d="M616 0h-95l-126 408l-128 -408h-95l-144 520h93l105 -415l130 415h80l129 -415l106 415h89zM350 590l93 150l65 -32l-90 -118h-68z" />
<glyph unicode="&#x1e84;" horiz-adv-x="955" d="M744 0h-99l-168 572l-168 -572h-99l-184 714h99l140 -574l170 574h87l170 -575l140 575h98zM334 808q0 20 14 34t33 14q20 0 34 -14t14 -34q0 -19 -14 -33t-34 -14q-19 0 -33 13.5t-14 33.5zM524 808q0 20 14 34t33 14q20 0 34 -14t14 -34q0 -19 -14 -33t-34 -14 q-19 0 -33 13.5t-14 33.5z" />
<glyph unicode="&#x1e85;" horiz-adv-x="788" d="M616 0h-95l-126 408l-128 -408h-95l-144 520h93l105 -415l130 415h80l129 -415l106 415h89zM253 640q0 20 14 34t33 14q20 0 34 -14t14 -34q0 -19 -14 -33t-34 -14q-19 0 -33 13.5t-14 33.5zM443 640q0 20 14 34t33 14q20 0 34 -14t14 -34q0 -19 -14 -33t-34 -14 q-19 0 -33 13.5t-14 33.5z" />
<glyph unicode="&#x1ef2;" horiz-adv-x="614" d="M356 299v-299h-96v298l-254 416h109l195 -327l194 327h106zM276 758l-90 118l65 32l93 -150h-68z" />
<glyph unicode="&#x1ef3;" horiz-adv-x="535" d="M312 -24q-15 -39 -31 -69t-37 -50.5t-48 -30.5t-63 -10q-62 0 -106 32l38 64q14 -9 29.5 -14.5t32.5 -5.5q36 0 56.5 23t35.5 56l14 31l-220 518h100l166 -404l147 404h94zM253 590l-90 118l65 32l93 -150h-68z" />
<glyph unicode="&#x2000;" horiz-adv-x="497" />
<glyph unicode="&#x2001;" horiz-adv-x="994" />
<glyph unicode="&#x2002;" horiz-adv-x="497" />
<glyph unicode="&#x2003;" horiz-adv-x="994" />
<glyph unicode="&#x2004;" horiz-adv-x="331" />
<glyph unicode="&#x2005;" horiz-adv-x="248" />
<glyph unicode="&#x2006;" horiz-adv-x="165" />
<glyph unicode="&#x2007;" horiz-adv-x="165" />
<glyph unicode="&#x2008;" horiz-adv-x="124" />
<glyph unicode="&#x2009;" horiz-adv-x="198" />
<glyph unicode="&#x200a;" horiz-adv-x="55" />
<glyph unicode="&#x2010;" horiz-adv-x="382" d="M62 266v76h258v-76h-258z" />
<glyph unicode="&#x2011;" horiz-adv-x="382" d="M62 266v76h258v-76h-258z" />
<glyph unicode="&#x2012;" horiz-adv-x="382" d="M62 266v76h258v-76h-258z" />
<glyph unicode="&#x2013;" horiz-adv-x="580" d="M52 233v76h476v-76h-476z" />
<glyph unicode="&#x2014;" horiz-adv-x="964" d="M52 233v76h860v-76h-860z" />
<glyph unicode="&#x2018;" horiz-adv-x="224" d="M111 597q26 0 45 -17t19 -43q0 -23 -15.5 -42.5t-45.5 -19.5q-28 0 -46.5 21t-18.5 66q0 50 28 92t68 71l30 -36q-27 -17 -45.5 -43t-18.5 -49z" />
<glyph unicode="&#x2019;" horiz-adv-x="214" d="M113 601q-26 0 -45 17t-19 43q0 23 15.5 42.5t45.5 19.5q28 0 46.5 -21t18.5 -66q0 -50 -28 -92t-68 -71l-30 36q27 17 45.5 43t18.5 49z" />
<glyph unicode="&#x201a;" horiz-adv-x="246" d="M123 -6q-26 0 -45 17t-19 43q0 23 15.5 42.5t45.5 19.5q28 0 46.5 -21t18.5 -66q0 -50 -28 -92t-68 -71l-30 36q27 17 45.5 43t18.5 49z" />
<glyph unicode="&#x201c;" horiz-adv-x="410" d="M296 597q26 0 45 -17t19 -43q0 -23 -15.5 -42.5t-45.5 -19.5q-28 0 -46.5 21t-18.5 66q0 50 28 92t68 71l30 -36q-27 -17 -45.5 -43t-18.5 -49zM111 597q26 0 45 -17t19 -43q0 -23 -15.5 -42.5t-45.5 -19.5q-28 0 -46.5 21t-18.5 66q0 50 28 92t68 71l30 -36 q-27 -17 -45.5 -43t-18.5 -49z" />
<glyph unicode="&#x201d;" horiz-adv-x="398" d="M113 601q-26 0 -45 17t-19 43q0 23 15.5 42.5t45.5 19.5q28 0 46.5 -21t18.5 -66q0 -50 -28 -92t-68 -71l-30 36q27 17 45.5 43t18.5 49zM298 601q-26 0 -45 17t-19 43q0 23 15.5 42.5t45.5 19.5q28 0 46.5 -21t18.5 -66q0 -50 -28 -92t-68 -71l-30 36q27 17 45.5 43 t18.5 49z" />
<glyph unicode="&#x201e;" horiz-adv-x="431" d="M123 -6q-26 0 -45 17t-19 43q0 23 15.5 42.5t45.5 19.5q28 0 46.5 -21t18.5 -66q0 -50 -28 -92t-68 -71l-30 36q27 17 45.5 43t18.5 49zM308 -6q-26 0 -45 17t-19 43q0 23 15.5 42.5t45.5 19.5q28 0 46.5 -21t18.5 -66q0 -50 -28 -92t-68 -71l-30 36q27 17 45.5 43 t18.5 49z" />
<glyph unicode="&#x2020;" horiz-adv-x="484" d="M284 444v-444h-84v444h-167v76h167v194h84v-194h167v-76h-167z" />
<glyph unicode="&#x2021;" horiz-adv-x="501" d="M292 194v-194h-84v194h-166v75h166v176h-166v75h166v194h84v-194h167v-75h-167v-176h167v-75h-167z" />
<glyph unicode="&#x2022;" horiz-adv-x="368" d="M318 356q0 -28 -10.5 -52.5t-29 -42.5t-43 -28.5t-51.5 -10.5q-28 0 -52.5 10.5t-42.5 28.5t-28.5 42.5t-10.5 52.5t10.5 52.5t28.5 42.5t42.5 28.5t52.5 10.5q27 0 51.5 -10.5t43 -28.5t29 -42.5t10.5 -52.5z" />
<glyph unicode="&#x2025;" horiz-adv-x="502" d="M62 53q0 26 18.5 44.5t44.5 18.5t44.5 -18.5t18.5 -44.5t-18.5 -44.5t-44.5 -18.5t-44.5 18.5t-18.5 44.5zM313 53q0 26 18.5 44.5t44.5 18.5t44.5 -18.5t18.5 -44.5t-18.5 -44.5t-44.5 -18.5t-44.5 18.5t-18.5 44.5z" />
<glyph unicode="&#x2026;" horiz-adv-x="753" d="M62 53q0 26 18.5 44.5t44.5 18.5t44.5 -18.5t18.5 -44.5t-18.5 -44.5t-44.5 -18.5t-44.5 18.5t-18.5 44.5zM313 53q0 26 18.5 44.5t44.5 18.5t44.5 -18.5t18.5 -44.5t-18.5 -44.5t-44.5 -18.5t-44.5 18.5t-18.5 44.5zM564 53q0 26 18.5 44.5t44.5 18.5t44.5 -18.5 t18.5 -44.5t-18.5 -44.5t-44.5 -18.5t-44.5 18.5t-18.5 44.5z" />
<glyph unicode="&#x202f;" horiz-adv-x="198" />
<glyph unicode="&#x2030;" horiz-adv-x="1110" d="M168 0h-66l481 714h66zM50 574q0 31 12 58.5t32 48t47.5 32.5t58.5 12t58.5 -12t48 -32.5t32.5 -48t12 -58.5t-12 -58.5t-32.5 -47.5t-48 -32t-58.5 -12t-58.5 12t-47.5 32t-32 47.5t-12 58.5zM108 574q0 -19 7 -36t19.5 -29.5t29.5 -19.5t36 -7t36 7t29.5 19.5t20 29.5 t7.5 36t-7.5 36t-20 29.5t-29.5 20t-36 7.5t-36 -7.5t-29.5 -20t-19.5 -29.5t-7 -36zM400 139q0 31 12 58.5t32 48t47.5 32.5t58.5 12t58.5 -12t48 -32.5t32.5 -48t12 -58.5t-12 -58.5t-32.5 -47.5t-48 -32t-58.5 -12t-58.5 12t-47.5 32t-32 47.5t-12 58.5zM458 139 q0 -19 7 -36t19.5 -29.5t29.5 -19.5t36 -7t36 7t29.5 19.5t20 29.5t7.5 36t-7.5 36t-20 29.5t-29.5 20t-36 7.5t-36 -7.5t-29.5 -20t-19.5 -29.5t-7 -36zM760 139q0 31 12 58.5t32 48t47.5 32.5t58.5 12t58.5 -12t48 -32.5t32.5 -48t12 -58.5t-12 -58.5t-32.5 -47.5t-48 -32 t-58.5 -12t-58.5 12t-47.5 32t-32 47.5t-12 58.5zM818 139q0 -19 7 -36t19.5 -29.5t29.5 -19.5t36 -7t36 7t29.5 19.5t20 29.5t7.5 36t-7.5 36t-20 29.5t-29.5 20t-36 7.5t-36 -7.5t-29.5 -20t-19.5 -29.5t-7 -36z" />
<glyph unicode="&#x2039;" horiz-adv-x="275" d="M32 275l144 192l51 -40l-121 -167l121 -168l-51 -39l-144 192v30z" />
<glyph unicode="&#x203a;" horiz-adv-x="276" d="M243 245l-143 -192l-52 39l121 168l-121 167l52 40l143 -192v-30z" />
<glyph unicode="&#x2044;" horiz-adv-x="200" d="M-108 0h-66l481 714h66z" />
<glyph unicode="&#x205f;" horiz-adv-x="248" />
<glyph unicode="&#x2070;" d="M370 596q0 -46 -7 -86t-25.5 -70t-49.5 -47t-79 -17q-47 0 -78 17t-49 47t-25 70t-7 86t7 86t25 69.5t49 46.5t78 17q48 0 79 -17t49.5 -46.5t25.5 -69.5t7 -86zM300 596q0 36 -4 65t-14 49.5t-27.5 32t-45.5 11.5q-27 0 -44.5 -11.5t-27 -32t-13.5 -49.5t-4 -65t4 -65 t13.5 -50t27 -32.5t44.5 -11.5q28 0 45.5 11.5t27.5 32.5t14 50t4 65z" />
<glyph unicode="&#x2074;" d="M318 481v-97h-68v97h-211v57q17 30 32.5 63.5t26.5 69t18 70t8 66.5h68q-1 -32 -7.5 -66t-17.5 -68t-25.5 -67t-30.5 -63h140v168h67v-168h63v-62h-63z" />
<glyph unicode="&#x2075;" d="M371 520q0 -26 -9 -51.5t-28.5 -46t-50.5 -33.5t-74 -13q-50 0 -91.5 20t-68.5 63l59 33q17 -30 45 -41t57 -11q35 0 62 20t27 61q0 38 -24 59t-69 21q-57 0 -91 -40l-40 19l13 227h259v-64h-200q-2 -27 -4.5 -53t-5.5 -54q21 14 44.5 19t42.5 5q66 0 106.5 -37 t40.5 -103z" />
<glyph unicode="&#x2076;" d="M118 522q0 -37 24 -59.5t68 -22.5q45 0 68.5 22.5t23.5 60.5t-23.5 61t-68.5 23q-44 0 -68 -23.5t-24 -61.5zM283 807q-49 -37 -89 -82.5t-60 -93.5q20 19 47.5 26.5t46.5 7.5q31 0 57.5 -10t46 -28.5t30.5 -44.5t11 -58t-12 -59.5t-33 -47t-51 -30.5t-66 -11 q-75 0 -119.5 42.5t-44.5 120.5q0 41 11 78.5t29.5 70.5t43.5 63t54 56h98z" />
<glyph unicode="&#x2077;" d="M372 752q-24 -29 -54 -71.5t-57.5 -91.5t-47.5 -102t-22 -103h-75q3 51 22 102.5t45 98.5t54 87.5t50 70.5h-239v64h324v-55z" />
<glyph unicode="&#x2078;" d="M373 501q0 -30 -12.5 -53.5t-34 -39.5t-51.5 -24t-65 -8q-36 0 -65.5 8t-51.5 24t-34 39.5t-12 53.5q0 36 17.5 64t54.5 45q-29 14 -42.5 37t-13.5 55q0 54 41 83.5t106 29.5q66 0 106.5 -29.5t40.5 -83.5q0 -31 -16 -54t-42 -38q35 -17 54.5 -45.5t19.5 -63.5zM288 698 q0 30 -24 43t-54 13q-31 0 -54 -13t-23 -43q0 -32 23 -47t53 -15q31 0 55 15t24 47zM302 506q0 38 -27.5 55.5t-64.5 17.5q-38 0 -65.5 -17t-27.5 -55q0 -19 7.5 -32t20 -21.5t29.5 -12.5t36 -4q18 0 35 3.5t29.5 12t20 21.5t7.5 32z" />
<glyph unicode="&#x2079;" d="M303 668q0 37 -24.5 60t-69.5 23t-68 -23t-23 -61t23 -60.5t68 -22.5t69.5 23t24.5 61zM138 384q48 36 89 81.5t59 92.5q-20 -18 -47 -25t-46 -7q-32 0 -58.5 10t-46 28t-30.5 44t-11 58q0 33 12 60t33 47t51 31t66 11q75 0 119.5 -42.5t44.5 -120.5q0 -41 -10.5 -78 t-29.5 -70.5t-44 -63t-53 -56.5h-98z" />
<glyph unicode="&#x2080;" d="M370 118q0 -45 -7 -85t-25.5 -70t-49.5 -47t-79 -17q-47 0 -78 17t-49 47t-25 70t-7 85q0 46 7 86t25 69.5t49 46.5t78 17q48 0 79 -17t49.5 -46.5t25.5 -69.5t7 -86zM300 118q0 36 -4 65t-14 50t-27.5 32.5t-45.5 11.5q-27 0 -44.5 -11.5t-27 -32.5t-13.5 -50t-4 -65 t4 -65t13.5 -49.5t27 -32t44.5 -11.5q28 0 45.5 11.5t27.5 32t14 49.5t4 65z" />
<glyph unicode="&#x2081;" d="M187 -31v279q-18 -8 -48 -15.5t-60 -10.5l-10 53q48 10 81 22.5t54 31.5h52v-360h94v-62h-271v62h108z" />
<glyph unicode="&#x2082;" d="M61 -93v53q62 49 104.5 85t68.5 64t37.5 50t11.5 43q0 35 -25.5 53t-58.5 18q-31 0 -55.5 -15.5t-40.5 -39.5l-55 34q28 38 66.5 61.5t89.5 23.5q33 0 60.5 -9t48 -25.5t32 -41.5t11.5 -56q0 -28 -9 -52t-30.5 -50.5t-57 -58t-89.5 -74.5h202v-63h-311z" />
<glyph unicode="&#x2083;" d="M372 28q0 -29 -11.5 -52.5t-32.5 -40.5t-49.5 -26.5t-62.5 -9.5q-59 0 -101 22t-67 71l64 25q17 -32 45 -43t59 -11q40 0 62 19.5t22 48.5q0 28 -19.5 43.5t-54.5 15.5h-55v62h52q10 0 22 3t22 10.5t16.5 18.5t6.5 28q0 32 -25.5 46.5t-57.5 14.5q-65 0 -98 -48l-54 33 q55 79 157 79q31 0 57.5 -7.5t46.5 -22.5t31.5 -36.5t11.5 -49.5q0 -29 -12 -53t-39 -39q37 -14 50.5 -43.5t13.5 -57.5z" />
<glyph unicode="&#x2084;" d="M318 3v-96h-68v96h-211v57q17 30 32.5 64t26.5 69t18 69.5t8 66.5h68q-2 -63 -25 -133.5t-56 -130.5h140v169h67v-169h63v-62h-63z" />
<glyph unicode="&#x2085;" d="M371 43q0 -26 -9 -51.5t-28.5 -46t-50.5 -33.5t-74 -13q-50 0 -91.5 20t-68.5 63l59 32q17 -29 45 -40t57 -11q35 0 62 19.5t27 60.5q0 38 -24 59.5t-69 21.5q-56 0 -91 -41l-40 19l13 227h259v-64h-200q-2 -26 -4.5 -52.5t-5.5 -54.5q21 14 44.5 19t42.5 5 q66 0 106.5 -37t40.5 -102z" />
<glyph unicode="&#x2086;" d="M118 45q0 -37 24 -60t68 -23q45 0 68.5 23t23.5 61q0 37 -23.5 60t-68.5 23q-44 0 -68 -23t-24 -61zM283 329q-49 -36 -89 -82t-60 -93q20 18 47.5 26t46.5 8q31 0 57.5 -10t46 -28.5t30.5 -44.5t11 -58q0 -33 -12 -60t-33 -46.5t-51 -30.5t-66 -11q-75 0 -119.5 42 t-44.5 121q0 41 11 78t29.5 70.5t43.5 63t54 55.5h98z" />
<glyph unicode="&#x2087;" d="M372 274q-24 -29 -54 -71.5t-57.5 -91.5t-47.5 -101.5t-22 -102.5h-75q3 51 22 102.5t45 98.5t54 87.5t50 69.5h-239v64h324v-55z" />
<glyph unicode="&#x2088;" d="M373 24q0 -30 -12.5 -53.5t-34 -39.5t-51.5 -24t-65 -8q-36 0 -65.5 8t-51.5 24t-34 39.5t-12 53.5q0 35 17.5 63t54.5 45q-29 14 -42.5 37.5t-13.5 54.5q0 55 41 84t106 29q66 0 106.5 -29t40.5 -84q0 -31 -16 -54t-42 -37q35 -17 54.5 -45.5t19.5 -63.5zM288 220 q0 30 -24 43.5t-54 13.5q-31 0 -54 -13.5t-23 -43.5q0 -32 23 -46.5t53 -14.5q31 0 55 14.5t24 46.5zM302 28q0 39 -27.5 56.5t-64.5 17.5q-38 0 -65.5 -17.5t-27.5 -55.5q0 -37 27.5 -53.5t65.5 -16.5q37 0 64.5 16t27.5 53z" />
<glyph unicode="&#x2089;" d="M303 190q0 38 -24.5 61t-69.5 23t-68 -23.5t-23 -61.5q0 -37 23 -59.5t68 -22.5t69.5 23t24.5 60zM138 -93q48 35 89 81t59 92q-20 -17 -47 -24t-46 -7q-32 0 -58.5 10t-46 28t-30.5 43.5t-11 57.5q0 33 12 60.5t33 47t51 30.5t66 11q75 0 119.5 -42t44.5 -121 q0 -41 -10.5 -78t-29.5 -70.5t-44 -63t-53 -55.5h-98z" />
<glyph unicode="&#x20ac;" horiz-adv-x="580" d="M356 -12q-53 0 -100 19.5t-84 56t-62.5 88t-36.5 115.5h-72v52h65q-1 6 -1 14v22v23.5t2 17.5h-66v52h73q11 60 36 110.5t63.5 87.5t88.5 58t110 21q64 0 110.5 -18.5t77.5 -42.5l-39 -75q-31 25 -66 37.5t-78 12.5q-81 0 -133 -50.5t-72 -140.5h277l-26 -52h-260 q-2 -10 -2 -17v-22v-23t1 -15h222l-26 -52h-188q16 -93 66.5 -143.5t125.5 -50.5q48 0 86.5 17t66.5 46l44 -70q-32 -33 -85 -55.5t-118 -22.5z" />
<glyph unicode="&#x2113;" horiz-adv-x="481" d="M442 72q-8 -12 -21.5 -27t-32.5 -27.5t-44.5 -21t-57.5 -8.5q-78 0 -116.5 43t-38.5 123v87q-20 -14 -37 -23t-31 -14l-30 70q42 17 98 55v188q0 34 4 71t19 67.5t44 50t78 19.5q35 0 60.5 -11.5t42.5 -31t25.5 -45.5t8.5 -56q0 -38 -15.5 -77.5t-43 -77t-64 -72 t-78.5 -63.5v-135q0 -45 20 -69t60 -24q35 0 58.5 19.5t34.5 37.5zM212 386q51 44 87 95t36 102q0 30 -14 49.5t-44 19.5q-20 0 -32.5 -8t-19.5 -20.5t-10 -29t-3 -33.5v-175z" />
<glyph unicode="&#x2116;" horiz-adv-x="1236" d="M808 365q0 -35 10 -65t28.5 -51.5t45.5 -34t60 -12.5t59.5 12.5t45 34t28.5 51.5t10 65q0 34 -10 64t-28.5 52t-45 34.5t-59.5 12.5t-60 -12.5t-45.5 -34.5t-28.5 -52t-10 -64zM746 62h413v-62h-413v62zM731 365q0 52 17 95t46 74t69 48t86 17t87 -17t72 -48t48.5 -74 t17.5 -95t-17.5 -95t-47.5 -73.5t-70.5 -47t-86.5 -16.5t-86.5 16.5t-70.5 47t-47 73.5t-17 95zM648 0h-72l-325 562q2 -53 3.5 -97t2.5 -82t1.5 -72t0.5 -67q0 -58 -5 -106.5t-23 -83.5q-15 -30 -41.5 -48.5t-64.5 -18.5q-36 0 -59.5 11.5t-40.5 32.5l46 49q9 -11 20.5 -17 t25.5 -6q39 0 51 43t12 121v493h73l325 -562q-2 53 -3.5 96.5t-2.5 81.5t-1.5 72t-0.5 67q0 59 4.5 107t22.5 84q16 30 42 48.5t64 18.5t63 -14t45 -40l-53 -40q-9 11 -20.5 17.5t-25.5 6.5q-39 0 -51.5 -43.5t-12.5 -121.5v-492z" />
<glyph unicode="&#x2117;" horiz-adv-x="826" d="M348 306v-152h-67v404h173q63 0 100.5 -34.5t37.5 -90.5q0 -26 -9 -49t-26 -40.5t-43 -27.5t-60 -10h-106zM524 432q0 39 -25 54.5t-72 15.5h-79v-141h79q48 0 72.5 15.5t24.5 55.5zM37 357q0 78 29.5 146.5t80.5 119.5t119.5 80.5t146.5 29.5t146.5 -29.5t119.5 -80.5 t80.5 -119.5t29.5 -146.5t-29.5 -146.5t-80.5 -119.5t-119.5 -80.5t-146.5 -29.5t-146.5 29.5t-119.5 80.5t-80.5 119.5t-29.5 146.5zM88 357q0 -68 25.5 -127t70 -103.5t103.5 -70t126 -25.5t126.5 25.5t104 70t70 103.5t25.5 127q0 67 -25.5 126t-70 103.5t-104 70 t-126.5 25.5t-126 -25.5t-103.5 -70t-70 -103.5t-25.5 -126z" />
<glyph unicode="&#x2122;" horiz-adv-x="702" d="M590 432v222l-75 -222h-56l-74 222v-222h-51v281h78l76 -228l77 228h76v-281h-51zM191 664v-232h-53v232h-94v49h243v-49h-96z" />
<glyph unicode="&#x212e;" horiz-adv-x="623" d="M167 273v-187q31 -30 68 -45.5t82 -15.5q65 0 113 29t86 95l36 -22q-24 -37 -48.5 -63t-52.5 -43t-61 -25t-73 -8q-61 0 -110 22t-83.5 60.5t-53.5 90.5t-19 112t19 112t53.5 90.5t83.5 60.5t110 22q60 0 109 -21t84 -59t54.5 -90t19.5 -115h-417zM468 310v150 q-67 62 -152 62q-45 0 -81.5 -16t-67.5 -46v-150h301z" />
<glyph unicode="&#x2153;" horiz-adv-x="1040" d="M187 354v278q-18 -8 -48 -15t-60 -11l-10 54q48 9 81 21.5t54 32.5h52v-360h94v-63h-271v63h108zM992 121q0 -29 -11.5 -52.5t-32.5 -40.5t-49.5 -26.5t-62.5 -9.5q-59 0 -101 22t-67 71l64 25q17 -32 45 -43t59 -11q40 0 62 19.5t22 48.5q0 28 -19.5 43.5t-54.5 15.5 h-55v62h52q10 0 22 3t22 10.5t16.5 18.5t6.5 28q0 32 -25.5 46.5t-57.5 14.5q-65 0 -98 -48l-54 33q55 79 157 79q31 0 57.5 -7.5t46.5 -22.5t31.5 -36.5t11.5 -49.5q0 -29 -12 -53t-39 -39q37 -14 50.5 -43.5t13.5 -57.5zM312 0h-66l481 714h66z" />
<glyph unicode="&#x2154;" horiz-adv-x="1040" d="M61 291v54q62 49 104.5 84.5t68.5 63.5t37.5 50t11.5 43q0 35 -25.5 53t-58.5 18q-31 0 -55.5 -15.5t-40.5 -38.5l-55 33q28 39 66.5 62.5t89.5 23.5q33 0 60.5 -9t48 -26t32 -41.5t11.5 -55.5q0 -29 -9 -53t-30.5 -50t-57 -57.5t-89.5 -74.5h202v-64h-311zM992 121 q0 -29 -11.5 -52.5t-32.5 -40.5t-49.5 -26.5t-62.5 -9.5q-59 0 -101 22t-67 71l64 25q17 -32 45 -43t59 -11q40 0 62 19.5t22 48.5q0 28 -19.5 43.5t-54.5 15.5h-55v62h52q10 0 22 3t22 10.5t16.5 18.5t6.5 28q0 32 -25.5 46.5t-57.5 14.5q-65 0 -98 -48l-54 33 q55 79 157 79q31 0 57.5 -7.5t46.5 -22.5t31.5 -36.5t11.5 -49.5q0 -29 -12 -53t-39 -39q37 -14 50.5 -43.5t13.5 -57.5zM312 0h-66l481 714h66z" />
<glyph unicode="&#x2155;" horiz-adv-x="1040" d="M187 354v278q-18 -8 -48 -15t-60 -11l-10 54q48 9 81 21.5t54 32.5h52v-360h94v-63h-271v63h108zM991 136q0 -26 -9 -51.5t-28.5 -46t-50.5 -33.5t-74 -13q-50 0 -91.5 20t-68.5 63l59 32q17 -29 45 -40t57 -11q35 0 62 19.5t27 60.5q0 38 -24 59.5t-69 21.5 q-56 0 -91 -41l-40 19l13 227h259v-64h-200q-2 -26 -4.5 -52.5t-5.5 -54.5q21 14 44.5 19t42.5 5q66 0 106.5 -37t40.5 -102zM312 0h-66l481 714h66z" />
<glyph unicode="&#x2156;" horiz-adv-x="1040" d="M61 291v54q62 49 104.5 84.5t68.5 63.5t37.5 50t11.5 43q0 35 -25.5 53t-58.5 18q-31 0 -55.5 -15.5t-40.5 -38.5l-55 33q28 39 66.5 62.5t89.5 23.5q33 0 60.5 -9t48 -26t32 -41.5t11.5 -55.5q0 -29 -9 -53t-30.5 -50t-57 -57.5t-89.5 -74.5h202v-64h-311zM991 136 q0 -26 -9 -51.5t-28.5 -46t-50.5 -33.5t-74 -13q-50 0 -91.5 20t-68.5 63l59 32q17 -29 45 -40t57 -11q35 0 62 19.5t27 60.5q0 38 -24 59.5t-69 21.5q-56 0 -91 -41l-40 19l13 227h259v-64h-200q-2 -26 -4.5 -52.5t-5.5 -54.5q21 14 44.5 19t42.5 5q66 0 106.5 -37 t40.5 -102zM312 0h-66l481 714h66z" />
<glyph unicode="&#x2157;" horiz-adv-x="1040" d="M372 412q0 -29 -11.5 -52.5t-32.5 -40.5t-49.5 -26.5t-62.5 -9.5q-59 0 -101 22t-67 72l64 24q17 -31 45 -42t59 -11q40 0 62 19t22 48q0 28 -19.5 43.5t-54.5 15.5h-55v63h52q10 0 22 3t22 10t16.5 18.5t6.5 27.5q0 32 -25.5 46.5t-57.5 14.5q-65 0 -98 -48l-54 34 q56 79 157 79q31 0 57.5 -7.5t46.5 -22.5t31.5 -37t11.5 -50t-12 -52t-39 -40q37 -14 50.5 -43t13.5 -58zM991 136q0 -26 -9 -51.5t-28.5 -46t-50.5 -33.5t-74 -13q-50 0 -91.5 20t-68.5 63l59 32q17 -29 45 -40t57 -11q35 0 62 19.5t27 60.5q0 38 -24 59.5t-69 21.5 q-56 0 -91 -41l-40 19l13 227h259v-64h-200q-2 -26 -4.5 -52.5t-5.5 -54.5q21 14 44.5 19t42.5 5q66 0 106.5 -37t40.5 -102zM312 0h-66l481 714h66z" />
<glyph unicode="&#x2158;" horiz-adv-x="1040" d="M318 388v-97h-68v97h-211v57q17 30 32.5 63.5t26.5 69t18 70t8 66.5h68q-1 -32 -7.5 -66t-17.5 -68t-25.5 -67t-30.5 -63h140v168h67v-168h63v-62h-63zM991 136q0 -26 -9 -51.5t-28.5 -46t-50.5 -33.5t-74 -13q-50 0 -91.5 20t-68.5 63l59 32q17 -29 45 -40t57 -11 q35 0 62 19.5t27 60.5q0 38 -24 59.5t-69 21.5q-56 0 -91 -41l-40 19l13 227h259v-64h-200q-2 -26 -4.5 -52.5t-5.5 -54.5q21 14 44.5 19t42.5 5q66 0 106.5 -37t40.5 -102zM312 0h-66l481 714h66z" />
<glyph unicode="&#x2159;" horiz-adv-x="1040" d="M187 354v278q-18 -8 -48 -15t-60 -11l-10 54q48 9 81 21.5t54 32.5h52v-360h94v-63h-271v63h108zM738 138q0 -37 24 -60t68 -23q45 0 68.5 23t23.5 61q0 37 -23.5 60t-68.5 23q-44 0 -68 -23t-24 -61zM903 422q-49 -36 -89 -82t-60 -93q20 18 47.5 26t46.5 8 q31 0 57.5 -10t46 -28.5t30.5 -44.5t11 -58q0 -33 -12 -60t-33 -46.5t-51 -30.5t-66 -11q-75 0 -119.5 42t-44.5 121q0 41 11 78t29.5 70.5t43.5 63t54 55.5h98zM312 0h-66l481 714h66z" />
<glyph unicode="&#x215a;" horiz-adv-x="1040" d="M371 427q0 -26 -9 -51.5t-28.5 -46t-50.5 -33.5t-74 -13q-50 0 -91.5 20t-68.5 63l59 33q17 -30 45 -41t57 -11q35 0 62 20t27 61q0 38 -24 59t-69 21q-57 0 -91 -40l-40 19l13 227h259v-64h-200q-2 -27 -4.5 -53t-5.5 -54q21 14 44.5 19t42.5 5q66 0 106.5 -37 t40.5 -103zM738 138q0 -37 24 -60t68 -23q45 0 68.5 23t23.5 61q0 37 -23.5 60t-68.5 23q-44 0 -68 -23t-24 -61zM903 422q-49 -36 -89 -82t-60 -93q20 18 47.5 26t46.5 8q31 0 57.5 -10t46 -28.5t30.5 -44.5t11 -58q0 -33 -12 -60t-33 -46.5t-51 -30.5t-66 -11 q-75 0 -119.5 42t-44.5 121q0 41 11 78t29.5 70.5t43.5 63t54 55.5h98zM312 0h-66l481 714h66z" />
<glyph unicode="&#x215b;" horiz-adv-x="1040" d="M187 354v278q-18 -8 -48 -15t-60 -11l-10 54q48 9 81 21.5t54 32.5h52v-360h94v-63h-271v63h108zM993 117q0 -30 -12.5 -53.5t-34 -39.5t-51.5 -24t-65 -8q-36 0 -65.5 8t-51.5 24t-34 39.5t-12 53.5q0 35 17.5 63t54.5 45q-29 14 -42.5 37.5t-13.5 54.5q0 55 41 84 t106 29q66 0 106.5 -29t40.5 -84q0 -31 -16 -54t-42 -37q35 -17 54.5 -45.5t19.5 -63.5zM908 313q0 30 -24 43.5t-54 13.5q-31 0 -54 -13.5t-23 -43.5q0 -32 23 -46.5t53 -14.5q31 0 55 14.5t24 46.5zM922 121q0 39 -27.5 56.5t-64.5 17.5q-38 0 -65.5 -17.5t-27.5 -55.5 q0 -37 27.5 -53.5t65.5 -16.5q37 0 64.5 16t27.5 53zM312 0h-66l481 714h66z" />
<glyph unicode="&#x215c;" horiz-adv-x="1040" d="M372 412q0 -29 -11.5 -52.5t-32.5 -40.5t-49.5 -26.5t-62.5 -9.5q-59 0 -101 22t-67 72l64 24q17 -31 45 -42t59 -11q40 0 62 19t22 48q0 28 -19.5 43.5t-54.5 15.5h-55v63h52q10 0 22 3t22 10t16.5 18.5t6.5 27.5q0 32 -25.5 46.5t-57.5 14.5q-65 0 -98 -48l-54 34 q56 79 157 79q31 0 57.5 -7.5t46.5 -22.5t31.5 -37t11.5 -50t-12 -52t-39 -40q37 -14 50.5 -43t13.5 -58zM993 117q0 -30 -12.5 -53.5t-34 -39.5t-51.5 -24t-65 -8q-36 0 -65.5 8t-51.5 24t-34 39.5t-12 53.5q0 35 17.5 63t54.5 45q-29 14 -42.5 37.5t-13.5 54.5q0 55 41 84 t106 29q66 0 106.5 -29t40.5 -84q0 -31 -16 -54t-42 -37q35 -17 54.5 -45.5t19.5 -63.5zM908 313q0 30 -24 43.5t-54 13.5q-31 0 -54 -13.5t-23 -43.5q0 -32 23 -46.5t53 -14.5q31 0 55 14.5t24 46.5zM922 121q0 39 -27.5 56.5t-64.5 17.5q-38 0 -65.5 -17.5t-27.5 -55.5 q0 -37 27.5 -53.5t65.5 -16.5q37 0 64.5 16t27.5 53zM312 0h-66l481 714h66z" />
<glyph unicode="&#x215d;" horiz-adv-x="1040" d="M371 427q0 -26 -9 -51.5t-28.5 -46t-50.5 -33.5t-74 -13q-50 0 -91.5 20t-68.5 63l59 33q17 -30 45 -41t57 -11q35 0 62 20t27 61q0 38 -24 59t-69 21q-57 0 -91 -40l-40 19l13 227h259v-64h-200q-2 -27 -4.5 -53t-5.5 -54q21 14 44.5 19t42.5 5q66 0 106.5 -37 t40.5 -103zM993 117q0 -30 -12.5 -53.5t-34 -39.5t-51.5 -24t-65 -8q-36 0 -65.5 8t-51.5 24t-34 39.5t-12 53.5q0 35 17.5 63t54.5 45q-29 14 -42.5 37.5t-13.5 54.5q0 55 41 84t106 29q66 0 106.5 -29t40.5 -84q0 -31 -16 -54t-42 -37q35 -17 54.5 -45.5t19.5 -63.5z M908 313q0 30 -24 43.5t-54 13.5q-31 0 -54 -13.5t-23 -43.5q0 -32 23 -46.5t53 -14.5q31 0 55 14.5t24 46.5zM922 121q0 39 -27.5 56.5t-64.5 17.5q-38 0 -65.5 -17.5t-27.5 -55.5q0 -37 27.5 -53.5t65.5 -16.5q37 0 64.5 16t27.5 53zM312 0h-66l481 714h66z" />
<glyph unicode="&#x215e;" horiz-adv-x="1040" d="M372 659q-24 -29 -54 -71.5t-57.5 -91.5t-47.5 -102t-22 -103h-75q3 51 22 102.5t45 98.5t54 87.5t50 70.5h-239v64h324v-55zM993 117q0 -30 -12.5 -53.5t-34 -39.5t-51.5 -24t-65 -8q-36 0 -65.5 8t-51.5 24t-34 39.5t-12 53.5q0 35 17.5 63t54.5 45q-29 14 -42.5 37.5 t-13.5 54.5q0 55 41 84t106 29q66 0 106.5 -29t40.5 -84q0 -31 -16 -54t-42 -37q35 -17 54.5 -45.5t19.5 -63.5zM908 313q0 30 -24 43.5t-54 13.5q-31 0 -54 -13.5t-23 -43.5q0 -32 23 -46.5t53 -14.5q31 0 55 14.5t24 46.5zM922 121q0 39 -27.5 56.5t-64.5 17.5 q-38 0 -65.5 -17.5t-27.5 -55.5q0 -37 27.5 -53.5t65.5 -16.5q37 0 64.5 16t27.5 53zM312 0h-66l481 714h66z" />
<glyph unicode="&#x2190;" horiz-adv-x="918" d="M88 357l330 330l52 -52l-241 -241h588v-74h-588l241 -242l-52 -52z" />
<glyph unicode="&#x2191;" horiz-adv-x="918" d="M459 753l346 -347l-51 -52l-258 257v-587h-74v587l-258 -257l-52 52z" />
<glyph unicode="&#x2192;" horiz-adv-x="918" d="M500 26l-52 52l240 242h-587v74h587l-240 241l52 52l330 -330z" />
<glyph unicode="&#x2193;" horiz-adv-x="918" d="M112 355l52 52l258 -257v588h74v-588l258 257l51 -52l-346 -346z" />
<glyph unicode="&#x2196;" horiz-adv-x="918" d="M682 552h-365l417 -416l-53 -53l-417 416v-365h-73v490h491v-72z" />
<glyph unicode="&#x2197;" horiz-adv-x="918" d="M236 624h490v-490h-72v365l-417 -416l-53 53l417 416h-365v72z" />
<glyph unicode="&#x2198;" horiz-adv-x="918" d="M236 163h365l-417 416l53 53l417 -417v365h72v-490h-490v73z" />
<glyph unicode="&#x2199;" horiz-adv-x="918" d="M682 90h-491v490h73v-365l417 417l53 -53l-417 -416h365v-73z" />
<glyph unicode="&#x2202;" horiz-adv-x="593" d="M272 494q44 0 85.5 -15t72.5 -47q-17 36 -42.5 70t-57 64t-68 55.5t-73.5 44.5l59 59q58 -32 112.5 -77t96.5 -102t67.5 -126t25.5 -149q0 -67 -19.5 -119.5t-54 -89t-82.5 -55.5t-104 -19q-58 0 -105 19t-80 53.5t-51 81t-18 102.5q0 53 17 99t48.5 79.5t74.5 52.5 t96 19zM462 241q0 36 -11 68t-33 56t-53.5 37.5t-72.5 13.5t-72 -14t-51.5 -38t-30.5 -55.5t-10 -67.5t10 -67.5t30.5 -55t51 -37.5t72.5 -14t73.5 13.5t53 37.5t32.5 55.5t11 67.5z" />
<glyph unicode="&#x220f;" horiz-adv-x="609" d="M499 644v-644h-70v644h-249v-644h-70v644h-70v70h529v-70h-70z" />
<glyph unicode="&#x2211;" horiz-adv-x="564" d="M517 0h-481v24l302 333l-302 333v24h481v-70h-341l258 -287l-258 -288h341v-69z" />
<glyph unicode="&#x2212;" horiz-adv-x="596" d="M38 222v76h520v-76h-520z" />
<glyph unicode="&#x221a;" horiz-adv-x="580" d="M587 721l-374 -763h-12l-189 382l62 31l132 -269l318 650z" />
<glyph unicode="&#x221e;" horiz-adv-x="784" d="M739 275q0 -34 -13 -64t-35 -52t-52 -35t-64 -13q-32 0 -59.5 10.5t-53.5 36.5l-70 70l-71 -70q-26 -26 -53 -36.5t-60 -10.5q-34 0 -63.5 13t-51.5 35t-35 52t-13 64t13 63.5t35 51.5t51.5 35t63.5 13q33 0 60 -10t53 -36l71 -71l70 71q26 26 53.5 36t59.5 10 q34 0 64 -13t52 -35t35 -51.5t13 -63.5zM671 275q0 19 -7.5 36.5t-20.5 30.5t-30.5 20.5t-37.5 7.5q-21 0 -39.5 -9.5t-35 -23.5t-31.5 -30.5t-30 -31.5l67 -67q30 -29 69 -29q40 0 68 28t28 68zM278 341q-16 16 -32.5 22.5t-37.5 6.5q-20 0 -37 -7.5t-30 -20.5t-20.5 -30.5 t-7.5 -36.5q0 -20 7.5 -37.5t20.5 -30.5t30 -20.5t37 -7.5q21 0 39.5 9.5t35 23.5t32 31t30.5 32z" />
<glyph unicode="&#x222b;" horiz-adv-x="311" d="M248 665q-19 22 -41 22q-41 0 -41 -60q0 -17 2.5 -49.5t6.5 -73.5t8.5 -87t9.5 -91q5 -50 9.5 -96.5t8 -86.5t5.5 -71t2 -49q0 -61 -27.5 -92.5t-76.5 -31.5q-32 0 -53.5 11.5t-36.5 27.5l42 45q18 -22 41 -22q41 0 41 60q0 16 -2.5 48.5t-6.5 73.5t-9 87.5t-9 91.5 q-5 49 -9.5 96t-8 86.5t-5.5 70.5t-2 49q0 61 27.5 93t76.5 32q32 0 53.5 -11.5t36.5 -27.5z" />
<glyph unicode="&#x2248;" horiz-adv-x="580" d="M38 190q11 15 25 30.5t31 29t38 22t45 8.5q28 0 53.5 -9t63.5 -25q36 -16 61.5 -24.5t51.5 -8.5q32 0 58 14t48 35l32 -32q-11 -15 -24.5 -30.5t-30.5 -29t-38 -22t-45 -8.5q-28 0 -53.5 9t-63.5 25q-36 16 -61.5 24.5t-51.5 8.5q-32 0 -58 -14.5t-48 -34.5zM38 380 q11 14 25 30t31 29t38 21.5t45 8.5q28 0 53.5 -9t63.5 -25q36 -16 61.5 -25t51.5 -9q32 0 58 14t48 36l32 -33q-11 -14 -24.5 -30t-30.5 -29t-38 -21.5t-45 -8.5q-28 0 -53.5 9t-63.5 25q-36 15 -61.5 24t-51.5 9q-32 0 -58 -14.5t-48 -35.5z" />
<glyph unicode="&#x2260;" horiz-adv-x="580" d="M282 159l-57 -169h-60l57 169h-197v72h220l30 90h-250v73h274l57 170h60l-56 -170h196v-73h-221l-30 -90h251v-72h-274z" />
<glyph unicode="&#x2264;" horiz-adv-x="596" d="M476 707l38 -64l-311 -190l311 -190l-38 -64l-408 254zM38 0v76h520v-76h-520z" />
<glyph unicode="&#x2265;" horiz-adv-x="596" d="M528 453l-408 -254l-38 64l311 190l-311 190l38 64zM38 0v76h520v-76h-520z" />
<glyph unicode="&#x25a0;" horiz-adv-x="814" d="M50 0v714h714v-714h-714z" />
<glyph unicode="&#x25a1;" horiz-adv-x="814" d="M50 0v714h714v-714h-714zM714 50v614h-614v-614h614z" />
<glyph unicode="&#x25b2;" horiz-adv-x="532" d="M500 0h-468l234 720z" />
<glyph unicode="&#x25b6;" horiz-adv-x="469" d="M70 710l353 -353l-353 -353v706z" />
<glyph unicode="&#x25b7;" horiz-adv-x="469" d="M70 710l353 -353l-353 -353v706zM114 110l247 247l-247 247v-494z" />
<glyph unicode="&#x25ba;" horiz-adv-x="830" d="M70 123v468l720 -234z" />
<glyph unicode="&#x25bb;" horiz-adv-x="830" d="M70 123v468l720 -234zM662 357l-552 179v-358z" />
<glyph unicode="&#x25bc;" horiz-adv-x="532" d="M32 714h468l-234 -720z" />
<glyph unicode="&#x25c0;" horiz-adv-x="469" d="M399 4l-353 353l353 353v-706z" />
<glyph unicode="&#x25c1;" horiz-adv-x="469" d="M399 4l-353 353l353 353v-706zM355 604l-247 -247l247 -247v494z" />
<glyph unicode="&#x25c4;" horiz-adv-x="830" d="M760 591v-468l-720 234z" />
<glyph unicode="&#x25c5;" horiz-adv-x="830" d="M760 591v-468l-720 234zM168 357l552 -179v358z" />
<glyph unicode="&#x25ca;" horiz-adv-x="609" d="M306 -24h-12l-255 381l255 381h12l255 -381zM300 622l-178 -265l178 -266l177 266z" />
<glyph unicode="&#x25cb;" horiz-adv-x="814" d="M30 357q0 78 29.5 146.5t81 120t120 81t146.5 29.5t146.5 -29.5t120 -81t81 -120t29.5 -146.5t-29.5 -146.5t-81 -120t-120 -81t-146.5 -29.5t-146.5 29.5t-120 81t-81 120t-29.5 146.5zM80 357q0 -68 26 -127.5t70 -103.5t103.5 -70t127.5 -26q67 0 127 26t104 70 t70 103.5t26 127.5q0 67 -26 127t-70 104t-104 70t-127 26q-68 0 -127.5 -26t-103.5 -70t-70 -104t-26 -127z" />
<glyph unicode="&#x25cf;" horiz-adv-x="814" d="M30 357q0 78 29.5 146.5t81 120t120 81t146.5 29.5t146.5 -29.5t120 -81t81 -120t29.5 -146.5t-29.5 -146.5t-81 -120t-120 -81t-146.5 -29.5t-146.5 29.5t-120 81t-81 120t-29.5 146.5z" />
<glyph unicode="&#x271a;" horiz-adv-x="814" d="M296 246h-246v222h246v246h222v-246h246v-222h-246v-246h-222v246z" />
<glyph unicode="&#x2765;" horiz-adv-x="582" d="M359 355q38 0 71.5 -14t58 -38.5t39 -57.5t14.5 -70q0 -38 -14.5 -71.5t-39 -58.5t-58 -39.5t-71.5 -14.5t-71 14.5t-58 39.5q-27 27 -46.5 63.5t-40.5 79.5q-38 75 -74.5 119.5t-68.5 44.5v10q32 0 68.5 44.5t74.5 119.5q19 37 38.5 75.5t48.5 67.5q25 24 58 39t71 15 t71.5 -14.5t58 -39.5t39 -58.5t14.5 -71.5t-14.5 -70.5t-39 -57.5t-58 -39t-71.5 -14v-3z" />
<glyph unicode="&#x3008;" horiz-adv-x="297" d="M209 -17l-190 370v8l190 370l65 -33l-175 -341l175 -341z" />
<glyph unicode="&#x3009;" horiz-adv-x="297" d="M88 731l190 -370v-8l-190 -370l-65 33l175 341l-175 341z" />
<glyph unicode="&#x300a;" horiz-adv-x="467" d="M274 698l-175 -341l175 -341l-65 -33l-190 370v8l190 370zM444 698l-175 -341l175 -341l-65 -33l-190 370v8l190 370z" />
<glyph unicode="&#x300b;" horiz-adv-x="467" d="M258 731l190 -370v-8l-190 -370l-65 33l175 341l-175 341zM88 731l190 -370v-8l-190 -370l-65 33l175 341l-175 341z" />
<glyph unicode="&#xe000;" horiz-adv-x="520" d="M0 520h520v-520h-520v520z" />
<glyph unicode="&#xf6c3;" horiz-adv-x="228" d="M16 -173l69 117h85l-115 -144z" />
<glyph horiz-adv-x="580" d="M533 358q0 -68 -11.5 -134t-39.5 -119t-75 -85.5t-117 -32.5q-71 0 -117.5 32.5t-74.5 85.5t-39.5 119t-11.5 134q0 70 11.5 136t39.5 118t74.5 83.5t117.5 31.5q70 0 117 -31.5t75 -83.5t39.5 -118t11.5 -136zM436 358q0 61 -7 114t-23.5 91.5t-45 60.5t-70.5 22 t-70.5 -22t-45.5 -60.5t-24 -91.5t-7 -114q0 -59 7 -111.5t24 -92.5t45.5 -63.5t70.5 -23.5t70.5 23.5t45 63.5t23.5 92.5t7 111.5z" />
<glyph horiz-adv-x="580" d="M101 0v77h167v526q-12 -7 -31 -14.5t-41.5 -14t-47 -12t-48.5 -8.5l-11 74q72 14 121 34t81 52h71v-637h158v-77h-419z" />
<glyph horiz-adv-x="580" d="M54 0v73q103 84 173 147t113 113t61.5 91t18.5 80q0 33 -12 58.5t-31.5 42.5t-45.5 25.5t-54 8.5q-51 0 -92 -24.5t-66 -65.5l-74 48q40 61 100 95.5t139 34.5q51 0 94 -14.5t74.5 -42.5t49.5 -68.5t18 -91.5q0 -50 -18.5 -96.5t-58 -96t-101 -105.5t-148.5 -125h335v-87 h-475z" />
<glyph horiz-adv-x="580" d="M280 727q47 0 88.5 -13t72 -37t48.5 -58.5t18 -77.5q0 -54 -27 -95.5t-75 -62.5q67 -24 97 -74.5t30 -107.5q0 -46 -17.5 -85.5t-50.5 -68t-79.5 -44.5t-104.5 -16q-82 0 -147 34t-100 106l85 40q13 -28 32.5 -46t42 -28.5t45.5 -14.5t44 -4q76 0 114 37t38 97 q0 56 -37 91.5t-120 35.5h-71v81h70q26 0 50.5 6t43.5 19.5t30.5 35t11.5 51.5t-11 51t-30 34.5t-43.5 20t-51.5 6.5q-51 0 -92 -23t-67 -65l-74 49q42 63 102 94.5t135 31.5z" />
<glyph horiz-adv-x="580" d="M453 169v-169h-93v169h-328v79q36 64 63 127.5t44.5 123.5t26.5 115t9 100h94q0 -46 -10 -102.5t-28.5 -117t-46 -122.5t-62.5 -120h238v268h93v-268h104v-83h-104z" />
<glyph horiz-adv-x="580" d="M535 230q0 -45 -14.5 -88.5t-45 -78t-79 -55.5t-115.5 -21q-78 0 -144 32.5t-103 105.5l87 41q25 -52 68.5 -72.5t89.5 -20.5q33 0 62 9.5t50 28t33.5 47.5t12.5 68q0 73 -42 113t-114 40q-48 0 -86 -18.5t-64 -50.5l-58 27l23 377h401v-87h-324l-15 -212q32 25 71 35 t75 10q50 0 92.5 -16.5t73 -47t48 -73t17.5 -93.5z" />
<glyph horiz-adv-x="580" d="M420 714q-33 -28 -69.5 -64.5t-71 -77t-62.5 -83t-44 -82.5q14 16 32.5 27.5t39 18.5t41.5 10t39 3q46 0 86.5 -16.5t70.5 -47t47 -74t17 -96.5q0 -54 -18 -99t-51 -77.5t-79 -50.5t-102 -18t-102 17.5t-79 51t-51 83t-18 112.5q0 66 19 127.5t52 119t77.5 111.5 t95.5 105h130zM143 229q0 -70 40.5 -114t112.5 -44q74 0 112.5 44t38.5 114q0 71 -38.5 114t-112.5 43q-72 0 -112.5 -43.5t-40.5 -113.5z" />
<glyph horiz-adv-x="580" d="M535 636q-38 -47 -86 -116t-90.5 -152t-73.5 -177t-35 -191h-102q5 88 33.5 177.5t70 172t89 154t89.5 123.5h-387v87h492v-78z" />
<glyph horiz-adv-x="580" d="M290 70q76 0 116 37t40 101q0 60 -37.5 96t-118.5 36q-82 0 -119.5 -37.5t-37.5 -96.5q0 -64 41 -100t116 -36zM290 418q25 0 48.5 5.5t42.5 18.5t30.5 34.5t11.5 53.5q0 30 -11 51.5t-29.5 35t-42.5 20t-50 6.5t-50.5 -6.5t-43 -20t-29.5 -35t-11 -51.5 q0 -32 11.5 -53.5t30.5 -34.5t43 -18.5t49 -5.5zM290 -13q-60 0 -107.5 16t-80 44.5t-50 67.5t-17.5 85q0 57 30.5 107t96.5 78q-48 21 -75.5 62t-27.5 95q0 43 18 77.5t49 58.5t73.5 36.5t90.5 12.5t90 -12.5t73 -36.5t49 -58.5t18 -77.5q0 -54 -27.5 -95t-75.5 -62 q67 -28 97 -78t30 -107q0 -46 -17.5 -85t-50 -67.5t-79.5 -44.5t-107 -16z" />
<glyph horiz-adv-x="580" d="M160 0q33 27 70 63.5t71 77t62.5 83t44.5 82.5q-14 -16 -32.5 -27t-39.5 -18t-42 -10t-39 -3q-47 0 -87 16.5t-69.5 47t-46.5 73.5t-17 96q0 54 18 99.5t50.5 78t78.5 50.5t103 18q56 0 102 -17.5t78.5 -51.5t50.5 -83.5t18 -112.5q0 -66 -19 -127.5t-52 -118.5t-77 -111 t-95 -105h-131zM437 484q0 70 -40 114t-113 44q-74 0 -112.5 -44t-38.5 -114q0 -71 38.5 -113.5t112.5 -42.5q73 0 113 43.5t40 112.5z" />
<glyph horiz-adv-x="266" d="M181 153v-153h-96v153l25 360h46zM70 661q0 26 18.5 44.5t44.5 18.5t44.5 -18.5t18.5 -44.5t-18.5 -44.5t-44.5 -18.5t-44.5 18.5t-18.5 44.5z" />
<glyph horiz-adv-x="477" d="M30 186q0 45 15.5 77.5t38.5 56.5t50.5 42t50.5 35.5t38.5 36.5t15.5 44v34h84v-36q0 -38 -14.5 -65t-36.5 -47.5t-47.5 -37.5t-47.5 -36.5t-36.5 -43.5t-14.5 -58q0 -24 8 -45t24.5 -36.5t41 -25t58.5 -9.5q48 0 85.5 17t70.5 46l52 -63q-45 -39 -97.5 -61.5 t-115.5 -22.5q-47 0 -88 14t-71 39.5t-47 62.5t-17 82zM342 660q0 -26 -18.5 -44.5t-44.5 -18.5t-44.5 18.5t-18.5 44.5t18.5 44.5t44.5 18.5t44.5 -18.5t18.5 -44.5z" />
<glyph horiz-adv-x="382" d="M62 352v76h258v-76h-258z" />
<glyph horiz-adv-x="596" d="M38 319v76h520v-76h-520z" />
<glyph horiz-adv-x="935" d="M38 319v76h859v-76h-859z" />
<glyph horiz-adv-x="197" d="M162 357q0 -26 -18.5 -45t-44.5 -19t-45.5 18.5t-19.5 45.5q0 26 19.5 45.5t45.5 19.5t44.5 -19.5t18.5 -45.5z" />
<glyph horiz-adv-x="596" d="M336 319v-222h-76v222h-222v76h222v222h76v-222h222v-76h-222z" />
<glyph horiz-adv-x="596" d="M38 319v76h520v-76h-520z" />
<glyph horiz-adv-x="596" d="M360 555q0 -26 -18 -44.5t-44 -18.5t-44 18.5t-18 44.5q0 25 18 43.5t44 18.5t44 -18.5t18 -43.5zM360 159q0 -25 -18 -43.5t-44 -18.5t-44 18.5t-18 43.5t18 44t44 19t44 -19t18 -44zM38 319v76h520v-76h-520z" />
<glyph horiz-adv-x="596" d="M38 439v76h520v-76h-520zM38 199v76h520v-76h-520z" />
<glyph horiz-adv-x="596" d="M352 357l212 -212l-54 -54l-212 212l-212 -212l-54 54l212 212l-212 212l54 54l212 -212l212 212l54 -54z" />
<glyph horiz-adv-x="596" d="M242 357l212 -212l-54 -54l-266 266l266 266l54 -54z" />
<glyph horiz-adv-x="596" d="M142 569l54 54l266 -266l-266 -266l-54 54l212 212z" />
<glyph d="M370 503q0 -46 -7 -86t-25.5 -70t-49.5 -47t-79 -17q-47 0 -78 17t-49 47t-25 70t-7 86t7 86t25 69.5t49 46.5t78 17q48 0 79 -17t49.5 -46.5t25.5 -69.5t7 -86zM300 503q0 36 -4 65t-14 49.5t-27.5 32t-45.5 11.5q-27 0 -44.5 -11.5t-27 -32t-13.5 -49.5t-4 -65t4 -65 t13.5 -50t27 -32.5t44.5 -11.5q28 0 45.5 11.5t27.5 32.5t14 50t4 65z" />
<glyph d="M187 354v278q-18 -8 -48 -15t-60 -11l-10 54q48 9 81 21.5t54 32.5h52v-360h94v-63h-271v63h108z" />
<glyph d="M61 291v54q62 49 104.5 84.5t68.5 63.5t37.5 50t11.5 43q0 35 -25.5 53t-58.5 18q-31 0 -55.5 -15.5t-40.5 -38.5l-55 33q28 39 66.5 62.5t89.5 23.5q33 0 60.5 -9t48 -26t32 -41.5t11.5 -55.5q0 -29 -9 -53t-30.5 -50t-57 -57.5t-89.5 -74.5h202v-64h-311z" />
<glyph d="M372 412q0 -29 -11.5 -52.5t-32.5 -40.5t-49.5 -26.5t-62.5 -9.5q-59 0 -101 22t-67 72l64 24q17 -31 45 -42t59 -11q40 0 62 19t22 48q0 28 -19.5 43.5t-54.5 15.5h-55v63h52q10 0 22 3t22 10t16.5 18.5t6.5 27.5q0 32 -25.5 46.5t-57.5 14.5q-65 0 -98 -48l-54 34 q56 79 157 79q31 0 57.5 -7.5t46.5 -22.5t31.5 -37t11.5 -50t-12 -52t-39 -40q37 -14 50.5 -43t13.5 -58z" />
<glyph d="M318 388v-97h-68v97h-211v57q17 30 32.5 63.5t26.5 69t18 70t8 66.5h68q-1 -32 -7.5 -66t-17.5 -68t-25.5 -67t-30.5 -63h140v168h67v-168h63v-62h-63z" />
<glyph d="M371 427q0 -26 -9 -51.5t-28.5 -46t-50.5 -33.5t-74 -13q-50 0 -91.5 20t-68.5 63l59 33q17 -30 45 -41t57 -11q35 0 62 20t27 61q0 38 -24 59t-69 21q-57 0 -91 -40l-40 19l13 227h259v-64h-200q-2 -27 -4.5 -53t-5.5 -54q21 14 44.5 19t42.5 5q66 0 106.5 -37 t40.5 -103z" />
<glyph d="M118 429q0 -37 24 -59.5t68 -22.5q45 0 68.5 22.5t23.5 60.5t-23.5 61t-68.5 23q-44 0 -68 -23.5t-24 -61.5zM283 714q-49 -37 -89 -82.5t-60 -93.5q20 19 47.5 26.5t46.5 7.5q31 0 57.5 -10t46 -28.5t30.5 -44.5t11 -58t-12 -59.5t-33 -47t-51 -30.5t-66 -11 q-75 0 -119.5 42.5t-44.5 120.5q0 41 11 78.5t29.5 70.5t43.5 63t54 56h98z" />
<glyph d="M372 659q-24 -29 -54 -71.5t-57.5 -91.5t-47.5 -102t-22 -103h-75q3 51 22 102.5t45 98.5t54 87.5t50 70.5h-239v64h324v-55z" />
<glyph d="M373 408q0 -30 -12.5 -53.5t-34 -39.5t-51.5 -24t-65 -8q-36 0 -65.5 8t-51.5 24t-34 39.5t-12 53.5q0 36 17.5 64t54.5 45q-29 14 -42.5 37t-13.5 55q0 54 41 83.5t106 29.5q66 0 106.5 -29.5t40.5 -83.5q0 -31 -16 -54t-42 -38q35 -17 54.5 -45.5t19.5 -63.5zM288 605 q0 30 -24 43t-54 13q-31 0 -54 -13t-23 -43q0 -32 23 -47t53 -15q31 0 55 15t24 47zM302 413q0 38 -27.5 55.5t-64.5 17.5q-38 0 -65.5 -17t-27.5 -55q0 -19 7.5 -32t20 -21.5t29.5 -12.5t36 -4q18 0 35 3.5t29.5 12t20 21.5t7.5 32z" />
<glyph d="M303 575q0 37 -24.5 60t-69.5 23t-68 -23t-23 -61t23 -60.5t68 -22.5t69.5 23t24.5 61zM138 291q48 36 89 81.5t59 92.5q-20 -18 -47 -25t-46 -7q-32 0 -58.5 10t-46 28t-30.5 44t-11 58q0 33 12 60t33 47t51 31t66 11q75 0 119.5 -42.5t44.5 -120.5q0 -41 -10.5 -78 t-29.5 -70.5t-44 -63t-53 -56.5h-98z" />
<glyph d="M370 211q0 -45 -7 -85t-25.5 -70t-49.5 -47t-79 -17q-47 0 -78 17t-49 47t-25 70t-7 85q0 46 7 86t25 69.5t49 46.5t78 17q48 0 79 -17t49.5 -46.5t25.5 -69.5t7 -86zM300 211q0 36 -4 65t-14 50t-27.5 32.5t-45.5 11.5q-27 0 -44.5 -11.5t-27 -32.5t-13.5 -50t-4 -65 t4 -65t13.5 -49.5t27 -32t44.5 -11.5q28 0 45.5 11.5t27.5 32t14 49.5t4 65z" />
<glyph d="M187 62v279q-18 -8 -48 -15.5t-60 -10.5l-10 53q48 10 81 22.5t54 31.5h52v-360h94v-62h-271v62h108z" />
<glyph d="M61 0v53q62 49 104.5 85t68.5 64t37.5 50t11.5 43q0 35 -25.5 53t-58.5 18q-31 0 -55.5 -15.5t-40.5 -39.5l-55 34q28 38 66.5 61.5t89.5 23.5q33 0 60.5 -9t48 -25.5t32 -41.5t11.5 -56q0 -28 -9 -52t-30.5 -50.5t-57 -58t-89.5 -74.5h202v-63h-311z" />
<glyph d="M372 121q0 -29 -11.5 -52.5t-32.5 -40.5t-49.5 -26.5t-62.5 -9.5q-59 0 -101 22t-67 71l64 25q17 -32 45 -43t59 -11q40 0 62 19.5t22 48.5q0 28 -19.5 43.5t-54.5 15.5h-55v62h52q10 0 22 3t22 10.5t16.5 18.5t6.5 28q0 32 -25.5 46.5t-57.5 14.5q-65 0 -98 -48l-54 33 q55 79 157 79q31 0 57.5 -7.5t46.5 -22.5t31.5 -36.5t11.5 -49.5q0 -29 -12 -53t-39 -39q37 -14 50.5 -43.5t13.5 -57.5z" />
<glyph d="M318 96v-96h-68v96h-211v57q17 30 32.5 64t26.5 69t18 69.5t8 66.5h68q-2 -63 -25 -133.5t-56 -130.5h140v169h67v-169h63v-62h-63z" />
<glyph d="M371 136q0 -26 -9 -51.5t-28.5 -46t-50.5 -33.5t-74 -13q-50 0 -91.5 20t-68.5 63l59 32q17 -29 45 -40t57 -11q35 0 62 19.5t27 60.5q0 38 -24 59.5t-69 21.5q-56 0 -91 -41l-40 19l13 227h259v-64h-200q-2 -26 -4.5 -52.5t-5.5 -54.5q21 14 44.5 19t42.5 5 q66 0 106.5 -37t40.5 -102z" />
<glyph d="M118 138q0 -37 24 -60t68 -23q45 0 68.5 23t23.5 61q0 37 -23.5 60t-68.5 23q-44 0 -68 -23t-24 -61zM283 422q-49 -36 -89 -82t-60 -93q20 18 47.5 26t46.5 8q31 0 57.5 -10t46 -28.5t30.5 -44.5t11 -58q0 -33 -12 -60t-33 -46.5t-51 -30.5t-66 -11q-75 0 -119.5 42 t-44.5 121q0 41 11 78t29.5 70.5t43.5 63t54 55.5h98z" />
<glyph d="M372 367q-24 -29 -54 -71.5t-57.5 -91.5t-47.5 -101.5t-22 -102.5h-75q3 51 22 102.5t45 98.5t54 87.5t50 69.5h-239v64h324v-55z" />
<glyph d="M373 117q0 -30 -12.5 -53.5t-34 -39.5t-51.5 -24t-65 -8q-36 0 -65.5 8t-51.5 24t-34 39.5t-12 53.5q0 35 17.5 63t54.5 45q-29 14 -42.5 37.5t-13.5 54.5q0 55 41 84t106 29q66 0 106.5 -29t40.5 -84q0 -31 -16 -54t-42 -37q35 -17 54.5 -45.5t19.5 -63.5zM288 313 q0 30 -24 43.5t-54 13.5q-31 0 -54 -13.5t-23 -43.5q0 -32 23 -46.5t53 -14.5q31 0 55 14.5t24 46.5zM302 121q0 39 -27.5 56.5t-64.5 17.5q-38 0 -65.5 -17.5t-27.5 -55.5q0 -37 27.5 -53.5t65.5 -16.5q37 0 64.5 16t27.5 53z" />
<glyph d="M303 283q0 38 -24.5 61t-69.5 23t-68 -23.5t-23 -61.5q0 -37 23 -59.5t68 -22.5t69.5 23t24.5 60zM138 0q48 35 89 81t59 92q-20 -17 -47 -24t-46 -7q-32 0 -58.5 10t-46 28t-30.5 43.5t-11 57.5q0 33 12 60.5t33 47t51 30.5t66 11q75 0 119.5 -42t44.5 -121 q0 -41 -10.5 -78t-29.5 -70.5t-44 -63t-53 -55.5h-98z" />
<glyph horiz-adv-x="243" d="M78 0v520h87v-520h-87zM74 640q0 20 14 34t33 14q20 0 34 -14t14 -34q0 -19 -14 -33t-34 -14q-19 0 -33 13.5t-14 33.5z" />
<glyph horiz-adv-x="232" d="M173 640q0 -49 -20 -87t-58 -73l-32 33q20 20 31.5 45.5t11.5 50.5q0 13 -3.5 23t-7.5 20t-7.5 20.5t-3.5 24.5v17h89v-74z" />
<glyph horiz-adv-x="918" d="M205 304h325l-124 -125l72 -71l248 249l-248 249l-72 -71l124 -125h-325v-106zM878 357q0 -87 -33 -163t-90 -133t-133 -90t-163 -33t-163 33t-133 90t-90 133t-33 163t33 163t90 133t133 90t163 33t163 -33t133 -90t90 -133t33 -163z" />
<glyph horiz-adv-x="918" d="M878 357q0 -87 -33 -163t-90 -133t-133 -90t-163 -33t-163 33t-133 90t-90 133t-33 163t33 163t90 133t133 90t163 33t163 -33t133 -90t90 -133t33 -163zM648 194v352h-352v-101h176l-230 -230l75 -75l230 230v-176h101z" />
<glyph horiz-adv-x="918" d="M878 357q0 -87 -33 -163t-90 -133t-133 -90t-163 -33t-163 33t-133 90t-90 133t-33 163t33 163t90 133t133 90t163 33t163 -33t133 -90t90 -133t33 -163zM512 103v325l125 -124l71 72l-249 248l-249 -248l71 -72l125 124v-325h106z" />
<glyph horiz-adv-x="918" d="M40 357q0 87 33 163t90 133t133 90t163 33t163 -33t133 -90t90 -133t33 -163t-33 -163t-90 -133t-133 -90t-163 -33t-163 33t-133 90t-90 133t-33 163zM371 194v176l230 -230l75 75l-230 230h176v101h-352v-352h101z" />
<glyph horiz-adv-x="918" d="M878 357q0 -87 -33 -163t-90 -133t-133 -90t-163 -33t-163 33t-133 90t-90 133t-33 163t33 163t90 133t133 90t163 33t163 -33t133 -90t90 -133t33 -163zM713 410h-326l125 125l-72 71l-248 -249l248 -249l72 71l-125 125h326v106z" />
<glyph horiz-adv-x="918" d="M40 357q0 87 33 163t90 133t133 90t163 33t163 -33t133 -90t90 -133t33 -163t-33 -163t-90 -133t-133 -90t-163 -33t-163 33t-133 90t-90 133t-33 163zM270 520v-352h352v101h-176l230 230l-75 75l-230 -230v176h-101z" />
<glyph horiz-adv-x="918" d="M40 357q0 87 33 163t90 133t133 90t163 33t163 -33t133 -90t90 -133t33 -163t-33 -163t-90 -133t-133 -90t-163 -33t-163 33t-133 90t-90 133t-33 163zM406 611v-326l-125 125l-71 -72l249 -248l249 248l-71 72l-125 -125v326h-106z" />
<glyph horiz-adv-x="918" d="M878 357q0 -87 -33 -163t-90 -133t-133 -90t-163 -33t-163 33t-133 90t-90 133t-33 163t33 163t90 133t133 90t163 33t163 -33t133 -90t90 -133t33 -163zM547 520v-176l-230 230l-75 -75l230 -230h-176v-101h352v352h-101z" />
<glyph horiz-adv-x="918" d="M205 410h325l-124 125l72 71l248 -249l-248 -249l-72 71l124 125h-325v106zM878 357q0 -87 -33 -163t-90 -133t-133 -90t-163 -33t-163 33t-133 90t-90 133t-33 163t33 163t90 133t133 90t163 33t163 -33t133 -90t90 -133t33 -163zM828 357q0 76 -29 143t-79.5 117.5 t-117.5 79.5t-143 29t-143 -29t-117.5 -79.5t-79.5 -117.5t-29 -143t29 -143t79.5 -117.5t117.5 -79.5t143 -29t143 29t117.5 79.5t79.5 117.5t29 143z" />
<glyph horiz-adv-x="918" d="M878 357q0 -87 -33 -163t-90 -133t-133 -90t-163 -33t-163 33t-133 90t-90 133t-33 163t33 163t90 133t133 90t163 33t163 -33t133 -90t90 -133t33 -163zM547 194v176l-230 -230l-75 75l230 230h-176v101h352v-352h-101zM828 357q0 76 -29 143t-79.5 117.5t-117.5 79.5 t-143 29t-143 -29t-117.5 -79.5t-79.5 -117.5t-29 -143t29 -143t79.5 -117.5t117.5 -79.5t143 -29t143 29t117.5 79.5t79.5 117.5t29 143z" />
<glyph horiz-adv-x="918" d="M878 357q0 -87 -33 -163t-90 -133t-133 -90t-163 -33t-163 33t-133 90t-90 133t-33 163t33 163t90 133t133 90t163 33t163 -33t133 -90t90 -133t33 -163zM406 103v325l-125 -124l-71 72l249 248l249 -248l-71 -72l-125 124v-325h-106zM828 357q0 76 -29 143t-79.5 117.5 t-117.5 79.5t-143 29t-143 -29t-117.5 -79.5t-79.5 -117.5t-29 -143t29 -143t79.5 -117.5t117.5 -79.5t143 -29t143 29t117.5 79.5t79.5 117.5t29 143z" />
<glyph horiz-adv-x="918" d="M270 194v352h352v-101h-176l230 -230l-75 -75l-230 230v-176h-101zM40 357q0 87 33 163t90 133t133 90t163 33t163 -33t133 -90t90 -133t33 -163t-33 -163t-90 -133t-133 -90t-163 -33t-163 33t-133 90t-90 133t-33 163zM90 357q0 -76 29 -143t79.5 -117.5t117.5 -79.5 t143 -29t143 29t117.5 79.5t79.5 117.5t29 143t-29 143t-79.5 117.5t-117.5 79.5t-143 29t-143 -29t-117.5 -79.5t-79.5 -117.5t-29 -143z" />
<glyph horiz-adv-x="918" d="M878 357q0 -87 -33 -163t-90 -133t-133 -90t-163 -33t-163 33t-133 90t-90 133t-33 163t33 163t90 133t133 90t163 33t163 -33t133 -90t90 -133t33 -163zM713 304h-326l125 -125l-72 -71l-248 249l248 249l72 -71l-125 -125h326v-106zM828 357q0 76 -29 143t-79.5 117.5 t-117.5 79.5t-143 29t-143 -29t-117.5 -79.5t-79.5 -117.5t-29 -143t29 -143t79.5 -117.5t117.5 -79.5t143 -29t143 29t117.5 79.5t79.5 117.5t29 143z" />
<glyph horiz-adv-x="918" d="M40 357q0 87 33 163t90 133t133 90t163 33t163 -33t133 -90t90 -133t33 -163t-33 -163t-90 -133t-133 -90t-163 -33t-163 33t-133 90t-90 133t-33 163zM371 520v-176l230 230l75 -75l-230 -230h176v-101h-352v352h101zM90 357q0 -76 29 -143t79.5 -117.5t117.5 -79.5 t143 -29t143 29t117.5 79.5t79.5 117.5t29 143t-29 143t-79.5 117.5t-117.5 79.5t-143 29t-143 -29t-117.5 -79.5t-79.5 -117.5t-29 -143z" />
<glyph horiz-adv-x="918" d="M40 357q0 87 33 163t90 133t133 90t163 33t163 -33t133 -90t90 -133t33 -163t-33 -163t-90 -133t-133 -90t-163 -33t-163 33t-133 90t-90 133t-33 163zM512 611v-326l125 125l71 -72l-249 -248l-249 248l71 72l125 -125v326h106zM90 357q0 -76 29 -143t79.5 -117.5 t117.5 -79.5t143 -29t143 29t117.5 79.5t79.5 117.5t29 143t-29 143t-79.5 117.5t-117.5 79.5t-143 29t-143 -29t-117.5 -79.5t-79.5 -117.5t-29 -143z" />
<glyph horiz-adv-x="918" d="M878 357q0 -87 -33 -163t-90 -133t-133 -90t-163 -33t-163 33t-133 90t-90 133t-33 163t33 163t90 133t133 90t163 33t163 -33t133 -90t90 -133t33 -163zM648 520v-352h-352v101h176l-230 230l75 75l230 -230v176h101zM828 357q0 76 -29 143t-79.5 117.5t-117.5 79.5 t-143 29t-143 -29t-117.5 -79.5t-79.5 -117.5t-29 -143t29 -143t79.5 -117.5t117.5 -79.5t143 -29t143 29t117.5 79.5t79.5 117.5t29 143z" />
<glyph horiz-adv-x="1242" d="M303 642q-30 0 -57 -7t-47 -20.5t-31.5 -34t-11.5 -46.5q0 -35 23 -57t61 -36q29 -11 65 -20t73.5 -20t72.5 -26t62.5 -38t44.5 -55.5t17 -78.5q0 -47 -17.5 -86.5t-51 -68t-81.5 -45t-108 -16.5q-93 0 -165.5 37.5t-113.5 102.5l79 49q20 -30 45 -50t52 -32.5 t54.5 -17.5t53.5 -5q73 0 115.5 33.5t42.5 90.5q0 30 -12.5 50.5t-35 34t-54 23.5t-70.5 19q-43 10 -87 23.5t-79.5 36.5t-58 58t-22.5 88q0 49 20 86t53.5 62t78 38t94.5 13q78 0 143 -30t110 -89l-72 -53q-31 42 -78.5 64.5t-106.5 22.5zM924 642q-30 0 -57 -7t-47 -20.5 t-31.5 -34t-11.5 -46.5q0 -35 23 -57t61 -36q29 -11 65 -20t73.5 -20t72.5 -26t62.5 -38t44.5 -55.5t17 -78.5q0 -47 -17.5 -86.5t-51 -68t-81.5 -45t-108 -16.5q-93 0 -165.5 37.5t-113.5 102.5l79 49q20 -30 45 -50t52 -32.5t54.5 -17.5t53.5 -5q73 0 115.5 33.5 t42.5 90.5q0 30 -12.5 50.5t-35 34t-54 23.5t-70.5 19q-43 10 -87 23.5t-79.5 36.5t-58 58t-22.5 88q0 49 20 86t53.5 62t78 38t94.5 13q78 0 143 -30t110 -89l-72 -53q-31 42 -78.5 64.5t-106.5 22.5z" />
</font>
</defs>
</svg>
