<?xml version="1.0" encoding="utf-8"?>
<!-- Generator: Adobe Illustrator 17.1.0, SVG Export Plug-In . SVG Version: 6.00 Build 0)  -->
<!DOCTYPE svg PUBLIC "-//W3C//DTD SVG 1.1//EN" "http://www.w3.org/Graphics/SVG/1.1/DTD/svg11.dtd">
<svg version="1.1" id="Layer_1" xmlns="http://www.w3.org/2000/svg" xmlns:xlink="http://www.w3.org/1999/xlink" width="150px" height="54px" x="0px" y="0px"
	 viewBox="0 0 120.8 50.8" enable-background="new 0 0 120.8 50.8" xml:space="preserve">
<g>
	<path fill="#FFFFFF" d="M12,32.7H7.1V14.5H12V32.7z M16.7,25.7c1.5,1.7,3.8,2.9,6.2,2.9c2.3,0,3.8-1.4,3.8-3.3
		c0-3.4-4.9-3.8-8.4-5.9c-2.1-1.2-3.7-3-3.7-6c0-4.7,4.3-7.4,8.7-7.4c2.7,0,5.1,0.6,7.6,2.5l-2.6,3.8c-1.1-1-2.8-1.7-4.5-1.7
		c-1.9,0-4.1,0.8-4.1,2.9c0,4.2,12.1,2.9,12.1,11.8c0,4.7-4.2,7.9-8.9,7.9c-3.5,0-6.8-1.5-9.5-3.9L16.7,25.7z M47,32.7
		c-0.6,0.2-2.1,0.4-3,0.4c-2.9,0-5.1-1-6.3-2.6c-0.9-1.2-1.4-2.9-1.4-5.4v-6.4h-5.1v-4.1h5.1V9.4h4.9v5.1h6v4.1h-6v6.9
		c0,1.1,0.2,1.8,0.6,2.3c0.5,0.6,1.3,0.9,2.5,0.9c0.7,0,1.7-0.1,2-0.2L47,32.7z M57.8,14.1c5.5,0,9.7,4.2,9.7,9.5
		c0,5.3-4.2,9.5-9.7,9.5c-5.5,0-9.7-4.2-9.7-9.5C48.1,18.3,52.3,14.1,57.8,14.1z M57.8,28.5c2.9,0,4.8-2.2,4.8-5c0-2.7-2-5-4.8-5
		c-2.9,0-4.8,2.3-4.8,5C53,26.3,54.9,28.5,57.8,28.5z M86.8,29c-2.1,2.9-4.8,4.1-8.3,4.1c-5.6,0-9.8-4.2-9.8-9.5
		c0-5.3,4.2-9.5,9.8-9.5c3.2,0,6,1.5,7.7,3.6l-3.5,3c-1-1.3-2.4-2.2-4.2-2.2c-2.8,0-4.9,2.2-4.9,5c0,2.9,2.1,5,5,5
		c2,0,3.6-1.2,4.4-2.4L86.8,29z M97.8,22.7l10,10h-6.6l-7.7-7.9v7.9h-4.9V6.4h4.9v14l6.3-5.9h6.9L97.8,22.7z M6.4,9.2
		C6.4,7.4,7.8,6,9.6,6c1.8,0,3.2,1.4,3.2,3.2c0,1.8-1.4,3.2-3.2,3.2C7.8,12.4,6.4,11,6.4,9.2z M108,29.9c0-1.8,1.4-3.2,3.2-3.2
		c1.8,0,3.2,1.4,3.2,3.2c0,1.8-1.4,3.2-3.2,3.2C109.4,33.1,108,31.6,108,29.9z"/>
</g>
<path fill="#FFFFFF" d="M42.9,41.8h0.7V37h-0.7v-0.7h1.5v2.2c0.5-0.5,1-0.7,1.7-0.7c1.4,0,2.5,1.1,2.5,2.5c0,1.4-1.1,2.5-2.5,2.5
	c-0.7,0-1.2-0.2-1.7-0.7v0.6h-1.5V41.8z M46.1,38.4c-0.9,0-1.7,0.7-1.7,1.8c0,1,0.8,1.7,1.7,1.7c0.9,0,1.7-0.7,1.7-1.8
	C47.7,39.2,47,38.4,46.1,38.4z M49.7,43.4h0.8l0.4-0.9l-1.6-3.9h-0.6v-0.8h2.1v0.8h-0.7l1.1,2.9l1.1-2.9h-0.7v-0.8h2.1v0.8h-0.6
	l-1.9,4.9h0.7v0.8h-2.3V43.4z M58.8,39.4h3.9v3.2H62v-1c-0.7,0.8-1.5,1.1-2.5,1.1c-1.9,0-3.3-1.5-3.3-3.3c0-1.7,1.4-3.3,3.3-3.3
	c0.7,0,1.3,0.2,1.9,0.7v-0.5h0.7V38h-0.8c-0.5-0.6-1.1-0.9-1.9-0.9c-1.4,0-2.4,1.1-2.4,2.4c0,1.4,1,2.4,2.3,2.4c1,0,1.9-0.7,2.2-1.7
	h-2.9V39.4z M68.3,41.1c-0.4,1.1-1.3,1.6-2.4,1.6c-1.4,0-2.5-1.1-2.5-2.5c0-1.4,1.2-2.5,2.5-2.5c1.4,0,2.5,1.1,2.5,2.6
	c0,0.1,0,0.2,0,0.3h-4.1c0.1,0.9,0.8,1.4,1.6,1.4c0.6,0,1.1-0.3,1.4-0.9H68.3z M67.6,39.8c-0.2-0.9-0.8-1.4-1.6-1.4
	c-0.8,0-1.5,0.5-1.6,1.4H67.6z M69.5,38.5h-0.7v-0.7h0.7v-1.5h0.8v1.5H71v0.7h-0.7v3.3H71v0.8h-1.5V38.5z M72.2,38.5h-0.7v-0.7h0.7
	v-1.5H73v1.5h0.7v0.7H73v3.3h0.7v0.8h-1.5V38.5z M75.2,43.4H76l0.4-0.9l-1.6-3.9h-0.6v-0.8h2.1v0.8h-0.7l1.1,2.9l1.1-2.9h-0.7v-0.8
	h2.1v0.8h-0.6l-1.9,4.9h0.7v0.8h-2.3V43.4z M81.8,41.8h0.7V37h-0.7v-0.8h2.3V37h-0.7v4.8h0.7v0.8h-2.3V41.8z M84.8,41.8h0.7v-3.3
	h-0.7v-0.7h1.5v0.7c0.3-0.5,0.7-0.8,1.3-0.8c0.7,0,1.2,0.3,1.5,1c0.4-0.7,0.8-1,1.5-1c1.2,0,1.7,0.9,1.7,2.1v2.1h0.7v0.8h-2.2v-0.8
	h0.7v-2.1c0-0.8-0.4-1.2-1-1.2c-0.8,0-1.2,0.6-1.2,1.7v1.7H90v0.8h-2.2v-0.8h0.7v-1.6c0-1.1-0.1-1.8-1.1-1.8c-0.7,0-1.2,0.6-1.2,1.7
	v1.7H87v0.8h-2.2V41.8z M97.5,42c-0.5,0.5-1,0.7-1.7,0.7c-1.5,0-2.5-1.1-2.5-2.5c0-1.4,1-2.5,2.5-2.5c0.7,0,1.2,0.2,1.7,0.7v-0.6H99
	v0.7h-0.7v3.3H99v0.8h-1.5V42z M95.8,38.4c-0.9,0-1.7,0.7-1.7,1.7c0,1,0.8,1.8,1.7,1.8c0.9,0,1.7-0.8,1.7-1.7
	C97.5,39.2,96.7,38.4,95.8,38.4z M100.6,42.9c0.2,0.5,0.6,0.8,1.3,0.8c0.9,0,1.6-0.6,1.6-1.5l0-0.2c-0.5,0.5-1,0.8-1.7,0.8
	c-1.4,0-2.5-1.1-2.5-2.5c0-1.4,1-2.5,2.5-2.5c0.7,0,1.2,0.2,1.7,0.8v-0.7h1.5v0.8h-0.7v3.3c0,1.7-1,2.6-2.4,2.6
	c-1.2,0-1.9-0.5-2.2-1.5H100.6z M103.6,40.2c0-1-0.8-1.8-1.7-1.8c-0.9,0-1.7,0.7-1.7,1.7c0,1,0.8,1.8,1.7,1.8
	C102.8,41.9,103.6,41.2,103.6,40.2z M110.2,41.1c-0.4,1.1-1.3,1.6-2.4,1.6c-1.4,0-2.5-1.1-2.5-2.5c0-1.4,1.2-2.5,2.5-2.5
	c1.4,0,2.5,1.1,2.5,2.6c0,0.1,0,0.2,0,0.3h-4.1c0.1,0.9,0.8,1.4,1.6,1.4c0.6,0,1.1-0.3,1.4-0.9H110.2z M109.5,39.8
	c-0.2-0.9-0.8-1.4-1.6-1.4c-0.8,0-1.5,0.5-1.6,1.4H109.5z M110.9,41.1h0.8c0,0.5,0.4,0.9,1,0.9c0.5,0,0.8-0.3,0.8-0.7
	c0-0.5-0.4-0.7-1.2-0.9c-1.1-0.2-1.3-0.8-1.3-1.4c0-0.8,0.6-1.4,1.5-1.4c0.4,0,0.7,0.1,1,0.4v-0.3h0.7V39h-0.7
	c-0.1-0.5-0.4-0.7-0.8-0.7c-0.4,0-0.7,0.2-0.7,0.6c0,0.5,0.4,0.6,1.2,0.8c0.9,0.3,1.4,0.6,1.4,1.4c0,0.9-0.6,1.5-1.6,1.5
	c-0.5,0-0.8-0.1-1.1-0.5v0.4h-0.7V41.1z"/>
</svg>
