<?xml version="1.0" standalone="no"?>
<!DOCTYPE svg PUBLIC "-//W3C//DTD SVG 1.1//EN" "http://www.w3.org/Graphics/SVG/1.1/DTD/svg11.dtd" >
<svg xmlns="http://www.w3.org/2000/svg">
<metadata></metadata>
<defs>
<font id="pf_centro_slab_proitalic" horiz-adv-x="1110" >
<font-face units-per-em="2048" ascent="1536" descent="-512" />
<missing-glyph horiz-adv-x="538" />
<glyph unicode="&#xfb01;" horiz-adv-x="1112" d="M-281 -414l31 111q74 -14 139 -14q105 0 156.5 78t85.5 280l102 836h-167l10 84l170 38l16 119q16 112 53.5 187.5t95.5 114.5t120.5 54t144.5 15q128 0 278 -35l-28 -119q-137 25 -238 25q-48 0 -84.5 -7.5t-63 -19.5t-46.5 -37t-33 -50t-23 -69.5t-16 -84t-14 -103.5 h258q111 0 301 33l28 -14q-19 -156 -52.5 -446t-51.5 -433q91 7 170 51l39 -67q-66 -66 -140.5 -99.5t-128.5 -33.5q-60 0 -82 29t-22 85q0 30 3.5 66t10.5 83.5t9 67.5l67 566h-424q-29 -232 -78 -646q-31 -255 -60 -361q-60 -219 -198 -283q-64 -29 -147 -29 q-104 3 -191 28z" />
<glyph unicode="&#xfb02;" horiz-adv-x="1112" d="M-281 -414l31 111q74 -14 139 -14q102 0 155 79t87 281l102 834h-165q2 23 10 84l168 38l22 160q11 78 41 136t71 94.5t98 58.5t116.5 30.5t132.5 8.5q35 0 168 -14l117 24l37 -20l-156 -1348q89 6 168 51l43 -74q-65 -65 -135 -97t-127 -32q-62 0 -86.5 32.5t-24.5 96.5 q0 27 3.5 68t10.5 98t9 82q108 900 116 981q-97 19 -184 19q-119 0 -184.5 -53t-79.5 -183q-8 -86 -14 -129h286q-6 -35 -14 -112h-287q-29 -232 -78 -646q-31 -255 -60 -361q-60 -219 -198 -283q-64 -29 -147 -29q-104 3 -191 28z" />
<glyph unicode="&#xfb03;" horiz-adv-x="1683" d="M-268 -416l30 109q89 -17 140 -17q111 0 162.5 81.5t78.5 279.5q19 144 60.5 480.5t42.5 359.5h-168l10 84l170 38l8 76q28 206 147 298.5t326 92.5q88 0 230 -36q60 46 141 70t166 24q123 0 270 -35l-28 -119q-136 25 -226 25q-129 0 -197.5 -51.5t-84.5 -184.5 l-17 -170h230q213 0 319 27l29 -12q-93 -759 -107 -875q88 6 170 51q5 -10 18.5 -31.5t20.5 -35.5q-66 -66 -139.5 -99.5t-128.5 -33.5t-78.5 25t-26.5 71q0 24 3 59q13 140 45 401t41 341h-410q-33 -304 -72 -617q-31 -256 -60 -362q-60 -221 -199 -286q-65 -30 -150 -30 q-82 0 -176 27l30 110q66 -12 127 -12q51 0 90.5 21.5t63.5 52.5t42.5 81.5t27.5 93.5t18 103q12 83 35.5 278.5t43 366t19.5 173.5h-413q-55 -468 -78 -650q-11 -94 -18 -145t-22.5 -133.5t-33 -128.5t-48 -104t-68.5 -87.5t-93 -51t-123 -21.5q-92 0 -190 28zM420 989h414 q17 145 26 211q9 62 31 115q-106 18 -172 18q-41 0 -70.5 -3t-63 -12.5t-57 -28.5t-45 -48.5t-35 -75t-20.5 -106.5z" />
<glyph unicode="&#xfb04;" horiz-adv-x="1687" d="M-268 -416l30 109q79 -15 140 -15q74 0 118.5 32t73 108t49.5 219q11 75 56.5 446t46.5 394h-168l10 84l170 38l6 56q15 200 146 310t329 101q107 -3 230 -36q104 96 301 96q87 0 178 -13l145 25l37 -20q-114 -963 -166 -1389q88 6 170 51l39 -67q-68 -67 -136.5 -101.5 t-123.5 -34.5q-64 0 -87 35t-23 103q0 33 29.5 280t67.5 556.5t50 428.5q-89 17 -170 17q-122 0 -187.5 -54t-82.5 -184q-14 -129 -17 -170h287l-14 -112h-287q-39 -356 -82 -678q-29 -229 -50 -311q-49 -197 -164 -266q-74 -44 -183 -44q-82 0 -174 27l30 110 q66 -12 125 -12q53 0 92.5 20t63.5 49.5t42 83t27 99t19 119.5q10 76 51 428.5t43 374.5h-413q-55 -468 -78 -650q-11 -97 -17.5 -147t-19.5 -127.5t-26.5 -117.5t-35 -94.5t-48.5 -81t-64.5 -54.5t-86 -38.5t-108.5 -10.5q-92 0 -190 28zM420 989h414q17 145 26 211 q9 62 31 115q-118 20 -184 20q-114 0 -187 -61t-92 -215z" />
<glyph horiz-adv-x="2048" />
<glyph horiz-adv-x="2048" />
<glyph unicode="&#xd;" horiz-adv-x="2048" />
<glyph unicode=" "  horiz-adv-x="538" />
<glyph unicode="&#x09;" horiz-adv-x="538" />
<glyph unicode="&#xa0;" horiz-adv-x="538" />
<glyph unicode="!" horiz-adv-x="446" d="M76 72q0 50 34 84t83 34q42 0 68 -27t26 -67v-12q-4 -44 -39.5 -74t-79.5 -30q-41 0 -66.5 26.5t-25.5 65.5zM162 346l37 449q9 117 34 333.5t33 296.5h160l-156 -1079h-108z" />
<glyph unicode="&#x22;" horiz-adv-x="540" d="M217 987l23 416h147l-82 -416h-88zM418 987l22 416h146l-76 -416h-92z" />
<glyph unicode="#" horiz-adv-x="1058" d="M88 399l29 97h151l117 344h-160l29 94h162l121 352h102l-119 -352h291l121 352h102l-121 -352h140l-29 -94h-141l-117 -344h149l-30 -97h-152l-131 -399h-102l129 399h-291l-131 -399h-103l132 399h-148zM373 496h291l114 344h-291z" />
<glyph unicode="$" d="M98 106q16 114 33 261h111l-21 -174q70 -37 182 -52l66 531q-123 46 -187.5 115.5t-64.5 189.5q0 162 94.5 257t243.5 126l16 137h74l-203 -1651h-75q4 25 11 80t11 82q-179 22 -291 98zM356 993q0 -71 32.5 -108.5t98.5 -67.5l52 412q-80 -21 -131.5 -79t-51.5 -157z M508 -154q39 305 205 1651h73l-16 -131q146 -13 238 -76l-33 -260h-111l23 174q-49 27 -131 37l-62 -493q55 -23 90 -39.5t78 -46t67 -60.5t41 -78t17 -104q0 -176 -104.5 -279t-278.5 -127q-4 -28 -11 -85t-11 -83h-74zM621 147q104 18 164.5 83.5t60.5 177.5 q0 73 -43 118.5t-127 79.5z" />
<glyph unicode="%" horiz-adv-x="1638" d="M115 844q0 37 3.5 78t14.5 94t28 101t46.5 95.5t67.5 82t94.5 56t124.5 21.5q278 0 278 -317q0 -69 -9.5 -136t-36 -138t-66.5 -123.5t-107 -86.5t-152 -34q-286 0 -286 307zM248 834q0 -91 38 -141t128 -50q51 0 91.5 26t65 66.5t40.5 95t22 105.5t6 104q0 224 -147 224 q-47 0 -85.5 -20t-63 -50.5t-43.5 -73t-28.5 -81.5t-15 -83.5t-7 -71t-1.5 -50.5zM483 -45l779 1481h108l-774 -1481h-113zM1030 297q0 56 7.5 116t32 137t64 136t111 100t164.5 41q81 0 138 -26.5t86.5 -73.5t42 -99t12.5 -116q0 -71 -9.5 -138.5t-36 -138.5t-66.5 -123.5 t-107 -86t-152 -33.5q-81 0 -138.5 24t-89 68t-45.5 96t-14 117zM1163 287q0 -187 166 -187q63 0 109.5 37.5t70.5 99.5t34.5 126t10.5 133q0 223 -147 223q-47 0 -85.5 -19.5t-63 -50t-43.5 -73t-28.5 -82t-15 -84t-7 -71.5t-1.5 -52z" />
<glyph unicode="&#x26;" horiz-adv-x="1736" d="M74 662q15 109 52.5 211.5t104.5 199t155 168t212 115t268 43.5q127 0 230 -32t172.5 -86.5t116 -130t67.5 -160t21 -179.5q0 -108 -29 -221q36 -4 51 -4q89 0 140.5 28.5t95.5 92.5l71 -58q-51 -88 -126 -130t-193 -42q-33 0 -74 6q-42 -103 -109.5 -193t-154 -160.5 t-196 -111.5t-226.5 -41q-112 0 -195.5 33t-132 90.5t-71.5 127.5t-23 153q0 142 39.5 260t102.5 190t136 111t146 39q96 0 151.5 -57.5t55.5 -128.5q0 -100 -86 -172v-5q104 23 201 23q98 0 266 -35q24 84 24 193q0 104 -27.5 189t-84 152t-151.5 104.5t-222 37.5 q-140 0 -257 -52t-197 -142t-132 -201t-76 -238q-23 1 -67.5 7t-48.5 6zM440 399q0 -153 78 -231t225 -78q157 0 309.5 116.5t223.5 297.5q-152 33 -264 33q-141 0 -293 -56q-14 4 -23 18t-18 41t-12 33q133 96 133 181q0 44 -26 69t-66 25q-44 0 -89 -26t-86 -77 t-66.5 -141t-25.5 -205z" />
<glyph unicode="'" horiz-adv-x="382" d="M217 987l23 416h147l-80 -416h-90z" />
<glyph unicode="(" horiz-adv-x="565" d="M127 371q0 166 32 324t76.5 270.5t106 219t106.5 164.5t93 111l61 -47q-32 -43 -67 -99.5t-85 -163t-88 -222.5t-65 -278.5t-27 -330.5q0 -117 13 -221t36.5 -184.5t38.5 -121.5t37 -91l-78 -51q-30 47 -57.5 105t-60 149t-52.5 213t-20 254z" />
<glyph unicode=")" horiz-adv-x="569" d="M-25 -297q24 34 44 63.5t57 94.5t66 128t63 157.5t56.5 190t38 218.5t15.5 250q0 345 -129 610l74 45q32 -47 62 -107.5t63.5 -149t53.5 -205t20 -240.5q0 -170 -34.5 -334.5t-81 -280.5t-110.5 -224.5t-107.5 -165t-86.5 -103.5z" />
<glyph unicode="*" horiz-adv-x="774" d="M184 1135q16 89 72 163l186 -116l-16 231q90 20 168 0q-76 -230 -76 -231l223 102q21 -36 27.5 -73t1.5 -95l-240 -14l146 -162q-58 -67 -141 -100l-72 217l-123 -215q-77 30 -121 98q14 12 82 72.5t105 91.5z" />
<glyph unicode="+" d="M193 553l14 119h325l41 332h121l-41 -332h322l-14 -119h-322l-43 -344h-119l41 344h-325z" />
<glyph unicode="," horiz-adv-x="417" d="M6 -172q47 42 73.5 78t37.5 86q-29 7 -45.5 30.5t-16.5 55.5q0 49 34 86t85 37q45 0 72.5 -32t27.5 -83q0 -85 -70.5 -176t-164.5 -135z" />
<glyph unicode="-" horiz-adv-x="727" d="M111 471l18 139h514l-18 -139h-514z" />
<glyph unicode="." horiz-adv-x="413" d="M53 76q0 51 34.5 87t82.5 36q42 0 68 -28.5t26 -70.5q0 -50 -36.5 -85t-82.5 -35q-39 0 -65.5 28t-26.5 68z" />
<glyph unicode="/" horiz-adv-x="661" d="M-31 -57l693 1493h106l-692 -1493h-107z" />
<glyph unicode="0" d="M90 485q0 48 3 99t11 118t21 130t36 132t52.5 128t72.5 113t95 92t121.5 60.5t150.5 22.5q422 0 422 -563q0 -79 -8 -157.5t-26.5 -162t-47 -156.5t-73 -139t-100 -113.5t-131.5 -75t-165 -27.5q-423 0 -434 499zM250 473q2 -82 17.5 -144t47.5 -111t88.5 -75t135.5 -26 q72 0 131 31.5t98.5 87t68.5 124t45 150t23.5 157.5t7.5 154q0 426 -264 426q-79 0 -143 -36t-104.5 -90t-71 -132t-45 -147t-23.5 -151t-10.5 -127t-1.5 -91z" />
<glyph unicode="1" d="M150 0l14 121h287l133 1071l-322 -49l-8 98l360 119h148l-152 -1239h273l-15 -121h-718z" />
<glyph unicode="2" d="M31 0l12 113q35 31 105.5 91.5t124 106.5t126.5 113t127 122t111.5 123t94 126t60 120.5t23.5 116.5q0 103 -66 156t-180 53q-163 0 -352 -108l-53 102q214 147 434 147q174 0 278.5 -81.5t104.5 -237.5q0 -52 -14 -106.5t-35.5 -104t-57.5 -104.5t-71 -100.5t-85 -99 t-90 -93t-95.5 -90t-92.5 -82.5t-91 -78.5t-81 -69.5l2 -12h518l23 188h131l-37 -311h-874z" />
<glyph unicode="3" d="M18 61q18 37 50 111q181 -63 338 -63q104 0 191.5 37t142.5 109.5t55 166.5q0 121 -86 190.5t-224 69.5q-54 0 -106 -8q-13 59 -21 110q210 36 324.5 120t114.5 177q0 77 -57 128t-175 51q-146 0 -342 -89q-8 18 -22.5 53t-22.5 52q100 57 209.5 87t206.5 30 q183 0 272.5 -77t89.5 -196q0 -66 -27 -128.5t-94 -123t-165 -94.5v-10q126 -21 206 -110t80 -218q0 -91 -38 -173.5t-106.5 -145.5t-170 -100t-221.5 -37q-255 0 -402 81z" />
<glyph unicode="4" d="M59 385l15 117l727 858h168q-5 -39 -45 -361t-60 -491h193l-15 -123h-194l-33 -266h141l-12 -119h-430l12 119h133l35 266h-635zM227 508h484l82 661h-11l-104 -127q-76 -89 -225.5 -267t-225.5 -267z" />
<glyph unicode="5" d="M53 63l51 121q172 -63 322 -63q178 0 287.5 88.5t109.5 265.5q0 122 -80.5 186t-205.5 64q-113 0 -236 -55l-88 65l90 625h719l-35 -289h-127l19 162h-451l-59 -420q4 1 25 8t38 11t44 10t58 9t64 3q79 0 146.5 -21.5t122 -64.5t85.5 -115.5t31 -167.5q0 -101 -30.5 -185 t-82 -142t-120 -98.5t-144 -59t-155.5 -18.5q-243 0 -398 81z" />
<glyph unicode="6" d="M117 457q0 193 41 360.5t117 293t194 197.5t264 72q95 0 169.5 -19.5t115.5 -43.5l-43 -117q-113 49 -246 49q-83 0 -153.5 -37.5t-115 -91t-79 -125.5t-51.5 -128t-27 -111l10 -6q171 100 346 100q75 0 137 -20.5t111.5 -62t77 -112t27.5 -163.5q0 -230 -142 -368 t-362 -138q-110 0 -188 34.5t-121.5 100t-62.5 147.5t-19 189zM272 444q0 -51 6.5 -94.5t23.5 -88t44.5 -76t73.5 -51t106 -19.5q155 0 240.5 102t85.5 262q0 115 -55 178.5t-183 63.5q-40 0 -79.5 -5.5t-70.5 -14.5t-58.5 -20t-48.5 -22t-35.5 -20t-24.5 -16l-10 -7 q-15 -128 -15 -172z" />
<glyph unicode="7" d="M203 0l694 1233h-510l-27 -207h-131l41 334h801l-12 -121l-694 -1239h-162z" />
<glyph unicode="8" d="M84 317q0 121 77 245.5t220 195.5q-150 96 -150 243q0 163 129 273t326 110q101 0 180.5 -33.5t130 -106.5t50.5 -177q0 -88 -60.5 -179t-181.5 -173q88 -49 140 -130.5t52 -193.5q0 -75 -31.5 -146t-91 -130t-156 -95t-214.5 -36q-200 0 -310 93.5t-110 239.5zM248 326 q0 -96 68 -156.5t196 -60.5q157 0 243.5 79t86.5 193q0 108 -79 174.5t-274 142.5q-67 -40 -116 -89.5t-75 -99.5t-38 -95t-12 -88zM395 1018q0 -22 6.5 -42t15 -35.5t27 -32.5t32.5 -28t42.5 -27t45.5 -24.5l53 -26.5t55 -28q219 142 219 283q0 36 -11 68.5t-35.5 62 t-70.5 46.5t-108 17t-112 -18.5t-78.5 -45.5t-47.5 -60t-26 -60t-7 -49z" />
<glyph unicode="9" d="M121 49l41 117q116 -49 264 -49q84 0 155 37.5t115.5 92t79 125t50.5 128t24 110.5l-6 6q-63 -38 -163 -70t-185 -32q-156 0 -253.5 88t-97.5 268q0 230 141.5 370t360.5 140q110 0 187.5 -35t121 -100.5t63 -148t19.5 -189.5q0 -194 -41 -360.5t-117.5 -291.5 t-194.5 -196t-265 -71q-95 0 -179 19.5t-120 41.5zM301 879q0 -236 240 -236q55 0 108 10.5t90.5 25.5t65 30t45.5 27l18 12q13 110 13 161q0 53 -5.5 96.5t-22 89.5t-43.5 77t-73.5 51t-109.5 20q-154 0 -240 -100.5t-86 -263.5z" />
<glyph unicode=":" horiz-adv-x="407" d="M61 82q0 50 35.5 85.5t83.5 35.5q41 0 66.5 -27t25.5 -67q0 -52 -33.5 -88.5t-82.5 -36.5q-42 0 -68.5 28t-26.5 70zM139 727q0 49 37.5 84t83.5 35q41 0 66.5 -27t25.5 -67q0 -51 -35.5 -88t-83.5 -37q-41 0 -67.5 29t-26.5 71z" />
<glyph unicode=";" horiz-adv-x="407" d="M6 -172q48 42 75 78t38 86q-29 7 -45.5 30.5t-16.5 55.5q0 49 34 86t85 37q45 0 72.5 -32t27.5 -83q0 -85 -70.5 -176t-164.5 -135zM139 727q0 49 37.5 84t83.5 35q41 0 66.5 -27t25.5 -67q0 -51 -35.5 -88t-83.5 -37q-41 0 -67.5 29t-26.5 71z" />
<glyph unicode="&#x3c;" d="M180 557l13 105l841 409l-18 -145l-678 -320q18 -8 305.5 -164.5t294.5 -160.5l-16 -136z" />
<glyph unicode="=" d="M152 410l14 116h801l-15 -116h-800zM188 707l15 118h801l-15 -118h-801z" />
<glyph unicode="&#x3e;" d="M131 145l16 144l682 323q-10 5 -157 83.5t-290 154.5t-157 82l19 139l741 -409l-14 -105z" />
<glyph unicode="?" horiz-adv-x="876" d="M164 1083q4 43 35 293q192 66 370 66q163 0 249.5 -59.5t92.5 -168.5q0 -78 -29.5 -146.5t-73 -117t-110.5 -100.5q-168 -123 -233.5 -205.5t-65.5 -185.5q0 -13 1 -45t1 -52q-20 -3 -64 -11t-67 -11q-8 63 -8 125q0 131 66.5 225.5t234.5 218.5q46 35 73 58t54.5 54 t40 63.5t12.5 70.5q0 150 -200 150q-122 0 -234 -35l-22 -187h-123zM233 70q0 48 34.5 83t84.5 35q41 0 66.5 -27t25.5 -67q0 -49 -35.5 -81.5t-80.5 -32.5q-41 0 -68 26t-27 64z" />
<glyph unicode="@" horiz-adv-x="1832" d="M170 616q0 177 71 335.5t190.5 271.5t283 179t342.5 66q303 0 480 -161t177 -433q0 -105 -25.5 -195.5t-69 -154t-100 -109t-118.5 -67.5t-125 -22q-61 0 -103 19.5t-63.5 56.5t-29.5 83t-5 105h-6q-32 -76 -72 -130t-81 -80.5t-76.5 -38t-71.5 -11.5q-96 0 -153.5 71.5 t-57.5 208.5q0 150 44.5 270.5t138.5 195.5t223 75q81 0 190 -39l41 45q25 -2 76 -10q-8 -50 -33.5 -181t-39 -222t-13.5 -162q0 -154 121 -154q34 0 72 14t79 47.5t73.5 81.5t53.5 124t21 167q0 238 -145.5 372t-401.5 134q-215 0 -394 -99.5t-281.5 -270.5t-102.5 -375 q0 -171 68.5 -303.5t198 -206.5t300.5 -74q147 5 246 39q4 -16 13.5 -43.5t12.5 -38.5q-115 -53 -291 -53q-203 0 -353 87.5t-227 239t-77 346.5zM686 627q0 -96 32.5 -145.5t88.5 -49.5q70 0 144.5 87.5t138.5 285.5q7 34 19 104.5t19 106.5q-82 35 -167 35 q-62 0 -111 -28.5t-79 -73t-50 -102.5t-27.5 -112.5t-7.5 -107.5z" />
<glyph unicode="A" horiz-adv-x="1327" d="M-12 0q9 61 12 125h117q79 183 175 400.5t212 477.5t178 400h209l252 -1278h108l-14 -125h-418q8 58 15 125h137q-43 234 -47 262h-529l-112 -262h141l-14 -125h-422zM453 518h448q-49 280 -108 596q-3 22 -11.5 67.5t-11.5 69.5h-6q-1 -1 -4.5 -11.5t-8 -23t-16.5 -40.5 t-28 -64z" />
<glyph unicode="B" horiz-adv-x="1228" d="M29 0q7 47 14 127h137q11 90 63.5 507t78.5 642h-129q9 88 14 125h618q179 0 269 -85t90 -229q0 -71 -20.5 -133t-74 -122t-137.5 -99q56 -17 96.5 -50t62 -76t31 -86.5t9.5 -90.5q0 -83 -24.5 -154.5t-67 -121.5t-98.5 -85t-119 -52t-129 -17h-684zM348 127h318 q153 0 231 84t78 223q0 99 -62 164.5t-180 65.5h-319zM430 786h283q138 0 219.5 78.5t81.5 202.5q0 97 -59.5 153t-180.5 56h-282q-13 -90 -62 -490z" />
<glyph unicode="C" horiz-adv-x="1132" d="M125 545q0 76 7.5 151.5t27.5 165t52.5 167t86.5 152t124 127.5t171.5 85t222.5 32q197 0 340 -57l-39 -328h-131l27 217q-110 29 -207 29q-164 0 -279.5 -95t-171 -258t-55.5 -380q0 -424 404 -424q167 0 321 47l25 -127q-72 -29 -186 -47t-210 -18q-530 0 -530 561z " />
<glyph unicode="D" horiz-adv-x="1318" d="M31 0l14 125h137l142 1151h-129l14 127h545q508 0 508 -567q0 -136 -22.5 -256.5t-73.5 -228t-127 -184.5t-190 -122t-255 -45h-563zM354 127h217q36 0 70.5 4t88 20t99 43.5t94.5 80t83.5 123t56.5 179t22 242.5q0 89 -14 161t-36 119t-55 81t-63.5 52t-70.5 28.5 t-67.5 13t-61.5 2.5h-221z" />
<glyph unicode="E" horiz-adv-x="1142" d="M31 0l14 125h133l141 1151h-126l14 125h960l-39 -318h-129l25 193h-537l-59 -481l518 10l-14 -137l-518 8l-68 -551h578l24 197h133l-39 -322h-1011z" />
<glyph unicode="F" horiz-adv-x="1095" d="M31 0l14 125h133l141 1151h-126l14 125h950l-39 -318h-127l23 193h-527l-59 -481l512 10l-16 -137l-510 8l-68 -551h191l-15 -125h-491z" />
<glyph unicode="G" horiz-adv-x="1257" d="M125 545q0 77 8.5 154.5t31 166.5t57.5 167t92 151t130 125.5t176 84t226 31.5q202 0 342 -57l-39 -324h-129l27 213q-96 29 -211 29q-130 0 -233 -55t-168.5 -152.5t-99.5 -229t-34 -288.5q0 -100 18.5 -176t61 -135.5t117 -91t180.5 -31.5q123 0 225 31l55 444h-192 l14 119h451l-12 -119h-105l-67 -553q-201 -65 -402 -65q-137 0 -238 40t-162 115t-90.5 176t-29.5 230z" />
<glyph unicode="H" horiz-adv-x="1396" d="M31 0l14 127h127l141 1149h-127l15 127h422l-15 -127h-125l-59 -475h637l59 475h-123l15 127h424l-15 -127h-129l-141 -1149h127l-12 -127h-424l14 127h123l68 545h-637l-68 -545h125l-14 -127h-422z" />
<glyph unicode="I" horiz-adv-x="700" d="M88 0l14 125h125l142 1151h-125l14 127h422l-14 -127h-129l-142 -1151h129l-14 -125h-422z" />
<glyph unicode="J" horiz-adv-x="710" d="M-131 -244q109 43 181.5 91t116.5 110.5t65.5 129.5t33.5 163l127 1026h-203l15 127h553l-15 -127h-180l-125 -1002q-33 -269 -156 -419.5t-382 -214.5z" />
<glyph unicode="K" horiz-adv-x="1280" d="M31 0l14 127h127l141 1149h-127l15 125h420l-15 -125h-127l-65 -526l592 526l-121 -2l14 127h426l-14 -127h-113l-483 -424l399 -721h115l-15 -129h-428l15 129h129l-340 619l-197 -175l-55 -446h127l-14 -127h-420z" />
<glyph unicode="L" horiz-adv-x="1099" d="M31 0l14 125h133l141 1151h-126l14 125h442l-16 -125h-144l-143 -1151h561l31 250h133l-45 -375h-995z" />
<glyph unicode="M" horiz-adv-x="1726" d="M29 0q5 37 14 125h127q27 226 80 653.5t61 497.5h-127l17 125h321q37 -118 119.5 -393t130.5 -424l74 -240h12l129 240q366 664 447 817h331l-16 -125h-123l-141 -1151h123q-7 -68 -15 -125h-411q3 21 7 62.5t7 62.5h125l123 1008h-4q-84 -160 -113 -211 q-65 -116 -202.5 -368.5t-217.5 -395.5h-151l-109 346q-69 216 -133 432l-59 197h-6q-39 -336 -121 -1008h129q-3 -20 -7.5 -62t-7.5 -63h-413z" />
<glyph unicode="N" horiz-adv-x="1462" d="M29 0q7 47 14 127h135q26 224 78 642.5t63 506.5h-135l17 125h313l430 -875q15 -31 56 -115.5t63 -131.5h10l123 997h-139q5 37 14 125h428q-3 -21 -7 -62.5t-7 -62.5h-129l-158 -1276h-160q-68 133 -220 443.5t-245 488.5l-106 221q-1 0 -3 -1t-3 -1l-125 -1024h139 q-7 -47 -14 -127h-432z" />
<glyph unicode="O" horiz-adv-x="1347" d="M125 532q0 135 23 261t74.5 241.5t127.5 201t189.5 136.5t251.5 51q111 0 197 -29.5t142 -80.5t92 -125t51 -156.5t15 -181.5q0 -182 -42.5 -338.5t-122 -274.5t-204 -185.5t-278.5 -67.5q-516 0 -516 548zM297 530q0 -207 84 -310t264 -103q98 0 177.5 40.5t133 109 t90 163.5t52.5 201t16 223q0 438 -326 438q-79 0 -146 -24t-116.5 -65.5t-89 -100.5t-65 -125t-42.5 -143t-24.5 -151.5t-7.5 -152.5z" />
<glyph unicode="P" horiz-adv-x="1134" d="M31 0l14 125h127l141 1151h-127l15 127h573q177 0 277 -92t100 -267q0 -64 -14.5 -127t-49 -125.5t-86 -110t-132 -77t-179.5 -29.5h-295l-55 -450h170l-14 -125h-465zM412 698h262q55 0 105.5 18t96 55.5t72.5 104.5t27 156q0 120 -62 182t-168 62h-264z" />
<glyph unicode="Q" horiz-adv-x="1347" d="M125 532q0 135 23 261t74.5 241.5t127.5 201t189.5 136.5t251.5 51q111 0 197 -29.5t142 -80.5t92 -125t51 -156.5t15 -181.5q0 -285 -100.5 -501.5t-286.5 -305.5l293 -78l-80 -153l-502 176q-487 11 -487 544zM297 530q0 -207 84 -310t264 -103q98 0 177.5 40.5 t133 109t90 163.5t52.5 201t16 223q0 438 -326 438q-79 0 -146 -24t-116.5 -65.5t-89 -100.5t-65 -125t-42.5 -143t-24.5 -151.5t-7.5 -152.5z" />
<glyph unicode="R" horiz-adv-x="1228" d="M33 0l12 125h127l141 1151h-125l15 127h581q178 0 276.5 -86.5t98.5 -257.5q0 -67 -16.5 -130t-51 -121.5t-95.5 -102.5t-142 -64l164 -514l147 -21v-96q-35 -12 -91 -20t-91 -8q-57 0 -81 25t-44 83l-164 526h-295l-59 -491h160l-15 -125h-452zM416 739h272q43 0 82.5 8 t79.5 29.5t68.5 54.5t46.5 87.5t18 123.5q0 234 -229 234h-273z" />
<glyph unicode="S" horiz-adv-x="1085" d="M35 90l33 275h131l-25 -181q119 -61 289 -61q172 0 273.5 71.5t101.5 206.5q0 34 -8 62.5t-19.5 49.5t-34.5 39.5t-44 30.5t-57 25.5t-64 21.5t-74 21q-72 21 -120.5 39t-100 47t-81.5 63t-49.5 84.5t-19.5 114.5q0 102 38.5 184t105 134t153 79t186.5 27 q93 0 198.5 -20.5t180.5 -63.5l-35 -276h-131l25 184q-104 41 -240 41q-131 0 -219 -69t-88 -199q0 -39 17 -72t40.5 -54.5t65 -42.5t72.5 -32.5t81 -27.5q156 -46 207 -70q136 -61 176 -174q19 -54 19 -123q0 -92 -29.5 -166.5t-81 -125t-122.5 -84.5t-152 -49t-172 -15 q-266 0 -426 106z" />
<glyph unicode="T" horiz-adv-x="1099" d="M111 1067l41 336h1036l-39 -336h-131l24 209h-303l-141 -1151h166l-14 -125h-494l14 125h162l141 1151h-309l-24 -209h-129z" />
<glyph unicode="U" horiz-adv-x="1402" d="M166 1276l14 127h426l-14 -127h-139l-97 -774q-5 -45 -5 -85q0 -300 313 -300q170 0 273 97.5t126 287.5l96 774h-139l16 127h424l-14 -127h-123l-96 -772q-31 -246 -169 -383t-392 -137q-278 0 -392 140q-90 110 -90 293q0 48 6 101l95 758h-119z" />
<glyph unicode="V" horiz-adv-x="1269" d="M127 1276l14 127h412l-14 -127h-125l147 -819l47 -285h8l117 289l342 815h-123l15 127h409l-14 -127h-119l-555 -1276h-199l-245 1276h-117z" />
<glyph unicode="W" horiz-adv-x="1853" d="M127 1276l14 127h430l-14 -127h-139l96 -854l23 -236h4l94 238l313 776l-12 76h-135l14 127h440l-14 -127h-143l145 -870l33 -211h4l82 235l295 846h-137l14 127h428l-16 -127h-121q-60 -170 -231.5 -632t-235.5 -644h-195l-127 760l-30 205h-7l-84 -213l-307 -752h-202 l-162 1276h-117z" />
<glyph unicode="X" horiz-adv-x="1265" d="M-14 0l14 127h96l459 614l-258 535h-127l14 127h441l-15 -127h-131l205 -428l328 428h-125l14 127h432l-14 -127h-117l-428 -549l293 -600h127l-14 -127h-455l14 127h142l-238 485l-360 -485h159l-14 -127h-442z" />
<glyph unicode="Y" horiz-adv-x="1167" d="M127 1276l14 127h398l-15 -127h-125l213 -539h9l352 539h-129l14 127h408l-15 -127h-104l-455 -666l-59 -485h160l-15 -125h-497l14 125h162l57 479l-283 672h-104z" />
<glyph unicode="Z" horiz-adv-x="1056" d="M-8 0l14 125l873 1151h-553l-27 -211h-129l41 338h889l-15 -125l-874 -1151h633l30 233h134l-45 -360h-971z" />
<glyph unicode="[" horiz-adv-x="516" d="M14 -326l217 1753h338q-6 -39 -14 -110h-193l-188 -1530h193q-3 -19 -7.5 -56.5t-7.5 -56.5h-338z" />
<glyph unicode="\" horiz-adv-x="661" d="M152 1436h106l328 -1493h-109z" />
<glyph unicode="]" horiz-adv-x="516" d="M-27 -326q3 19 7.5 56.5t7.5 56.5h190l189 1530h-193l12 110h340l-215 -1753h-338z" />
<glyph unicode="^" horiz-adv-x="880" d="M86 780l424 617h94l268 -617h-116l-211 486l-330 -486h-129z" />
<glyph unicode="_" horiz-adv-x="993" d="M-84 -270l12 96h992l-13 -96h-991z" />
<glyph unicode="`" horiz-adv-x="991" d="M367 1397l125 102l206 -338l-75 -57z" />
<glyph unicode="a" horiz-adv-x="1116" d="M82 330q0 140 33 262.5t95 217.5t160.5 149.5t221.5 54.5q101 0 239 -53l52 55l98 -6q-98 -632 -119 -881q74 5 176 64q1 -3 39 -70q-60 -60 -136.5 -103t-127.5 -43q-108 0 -108 132q0 67 22 192h-10q-147 -319 -379 -319q-118 0 -187 88t-69 260zM248 352 q0 -120 40 -181.5t109 -61.5q88 0 182 109t175 355l43 267q-109 43 -207 43q-77 0 -138 -36t-98.5 -91.5t-62 -128.5t-34 -140.5t-9.5 -134.5z" />
<glyph unicode="b" horiz-adv-x="1038" d="M27 1362l8 80q144 39 274 39q51 0 71.5 -21t20.5 -61q0 -42 -32 -318t-52 -376h11q149 315 374 315q119 0 189 -89t70 -261q0 -140 -33.5 -262.5t-97 -217.5t-164 -149.5t-226.5 -54.5q-164 0 -352 86l-10 20q88 635 151 1239zM248 160q104 -41 201 -41q77 0 139 35.5 t99.5 90.5t62 127t34 139t9.5 134q0 120 -40.5 182t-109.5 62q-88 0 -182 -110t-174 -355z" />
<glyph unicode="c" horiz-adv-x="911" d="M82 348q0 60 5.5 119t21.5 127t40 127t65 115t93.5 96t127.5 64t165 24q118 0 211 -37q33 -12 48 -29t15 -45v-12q-2 -26 -23 -99.5t-44 -125.5l-86 6l10 192q-67 23 -141 23q-84 0 -151 -43t-108.5 -116.5t-63 -166t-21.5 -196.5q0 -258 223 -258q130 0 285 61l37 -102 q-71 -37 -167.5 -61.5t-187.5 -24.5q-185 0 -268 95t-86 267z" />
<glyph unicode="d" horiz-adv-x="1122" d="M82 330q0 116 21 218.5t64 187.5t105 146.5t147 95.5t187 34q81 0 203 -39l41 356l-205 31l6 82q159 39 275 39q53 0 73.5 -27.5t20.5 -75.5q0 -14 -20 -177.5t-61.5 -497.5t-70.5 -574q89 15 176 64l43 -66q-55 -62 -131.5 -104.5t-148.5 -42.5q-54 0 -76 30.5t-22 87.5 q0 71 22 203h-8q-148 -319 -385 -319q-118 0 -187 88t-69 260zM246 352q0 -120 40.5 -181.5t110.5 -61.5q41 0 84.5 23.5t91 75t96 145t91.5 220.5q6 52 20.5 151.5t16.5 115.5q-109 43 -207 43q-77 0 -139 -36t-99 -91.5t-62 -128.5t-34.5 -140.5t-9.5 -134.5z" />
<glyph unicode="e" horiz-adv-x="946" d="M82 377q0 86 14 170t52 172t95 154t152 108.5t215 42.5q132 0 203.5 -71t71.5 -179q0 -92 -46.5 -160t-134.5 -110.5t-200 -65.5t-258 -32q-2 -16 -2 -52q0 -245 219 -245q145 0 303 71l37 -98q-69 -41 -171.5 -68.5t-201.5 -27.5q-83 0 -145 20.5t-100 55t-61.5 86 t-32.5 106.5t-9 123zM254 508q475 22 475 248q0 65 -34.5 102t-106.5 37q-142 0 -227.5 -102.5t-106.5 -284.5z" />
<glyph unicode="f" horiz-adv-x="679" d="M-279 -410l31 111q73 -14 139 -14q47 0 83 15.5t61 43t44 73.5t31.5 99t22.5 127q25 187 49 386.5t37 313t14 132.5h-165q2 23 10 84l168 38l16 109q29 191 116.5 289t248.5 98q102 0 194 -27l-28 -120q-68 18 -148 18q-47 0 -81.5 -13.5t-65 -46.5t-50.5 -94.5 t-30 -152.5l-8 -70h274q0 -2 -12 -112h-279q-22 -172 -78 -687q-8 -62 -14.5 -105t-17.5 -100.5t-22 -97.5t-29 -87t-38.5 -79t-49 -64t-62 -51t-76.5 -30.5t-94 -11.5q-93 0 -191 26z" />
<glyph unicode="g" horiz-adv-x="1042" d="M55 -377l49 119q52 -26 125 -42.5t136 -16.5q55 0 100 11.5t76 29.5t56 49t40 61t27 75.5t18.5 82t13.5 90.5l29 215q-2 2 -8 2q-148 -313 -377 -313q-118 0 -188 88t-70 260q0 112 20.5 212.5t63 185.5t103 147.5t145.5 97.5t186 35q181 -3 354 -82l9 -21 q-31 -246 -123 -936q-6 -43 -14.5 -80t-26 -82t-41 -80t-61.5 -70t-85.5 -58t-115 -37.5t-148.5 -14.5q-151 0 -293 72zM248 358q0 -121 40.5 -183t110.5 -62q88 0 182.5 110.5t174.5 356.5l37 260q-107 43 -201 43q-77 0 -139 -35.5t-99.5 -90t-62 -126.5t-34 -139 t-9.5 -134z" />
<glyph unicode="h" horiz-adv-x="1165" d="M88 1360l8 80q144 39 275 39q51 0 72.5 -16.5t21.5 -53.5q0 -40 -31.5 -314t-48.5 -393l8 -2q43 87 98.5 153t109.5 100t99.5 50.5t81.5 16.5q107 0 153 -55.5t46 -157.5q0 -59 -70 -676q86 6 166 51l39 -67q-67 -67 -136.5 -103.5t-123.5 -36.5q-61 0 -86 28t-25 85 q0 5 5 55q63 543 63 621q0 123 -92 123q-40 0 -86 -25.5t-96 -77t-99.5 -144t-87.5 -212.5l-59 -428h-164q33 243 84 676.5t74 652.5z" />
<glyph unicode="i" horiz-adv-x="598" d="M92 901l6 82q156 39 250 39q52 0 73 -16t21 -52q0 -6 -24.5 -203t-50.5 -403t-27 -217q88 6 170 51l39 -67q-66 -67 -136 -103.5t-126 -36.5q-113 0 -113 115q0 17 4 53l92 727zM270 1249q0 51 33.5 87t79.5 36q40 0 68 -28.5t28 -69.5q0 -49 -32 -84t-82 -35 q-39 0 -67 27.5t-28 66.5z" />
<glyph unicode="j" horiz-adv-x="552" d="M-109 -352q49 21 88.5 49.5t68 58t50.5 68.5t36 74.5t25 83t17 86t12 92.5l74 710l-178 31l8 82q156 39 248 39q51 0 74.5 -16.5t23.5 -51.5q0 -7 -38 -356t-46 -418q-12 -102 -30.5 -182t-51.5 -156t-79.5 -131.5t-115.5 -97.5t-159 -64zM262 1249q0 51 33.5 87t79.5 36 q40 0 68 -28.5t28 -69.5q0 -49 -32.5 -84t-82.5 -35q-39 0 -66.5 27.5t-27.5 66.5z" />
<glyph unicode="k" horiz-adv-x="958" d="M41 1356l6 80q163 49 266 49q45 0 67 -23q17 -19 18 -47q0 -7 -1 -14q-21 -169 -59 -438.5t-53 -380.5h6q66 111 147 207.5t180 164.5t183 68q50 0 86 -31.5t51 -85.5l-57 -59q-61 28 -111 28q-45 0 -87.5 -17t-82 -52t-67.5 -66.5t-68 -81.5q72 -152 169 -327.5 t130 -208.5q15 4 28.5 8.5t27 11t23 11.5t22.5 13.5t19 12.5t19.5 13.5t16.5 11.5q7 -9 24.5 -29t24.5 -29q-124 -168 -234 -168q-35 0 -65 16.5t-57.5 47.5t-59.5 88.5t-65 126t-82 173.5q-28 62 -44 95q-44 -64 -63 -97t-45 -91q-23 -141 -45 -336h-164q102 694 176 1333z " />
<glyph unicode="l" horiz-adv-x="571" d="M90 1362l6 80q147 39 273 39q50 0 72 -15.5t22 -52.5q0 -40 -29.5 -284.5t-72 -577.5t-52.5 -420q89 6 168 51l39 -67q-66 -67 -135 -103.5t-125 -36.5q-60 0 -86.5 27.5t-26.5 85.5q0 15 4 55l144 1188z" />
<glyph unicode="m" horiz-adv-x="1691" d="M61 901l7 80q144 41 268 41q50 0 71 -17t21 -53q0 -37 -31 -260h9q45 91 95.5 158.5t98.5 102.5t88.5 51t77.5 16q190 0 190 -197q0 -21 -6 -137l6 -2q40 86 91.5 154.5t101.5 107t94.5 58.5t79.5 20q197 0 197 -213q0 -59 -70 -676q84 3 164 51l39 -67 q-66 -67 -135 -103t-125 -36q-60 0 -84.5 27t-24.5 83q0 11 4 57q64 543 64 625q0 117 -90 117q-84 0 -173 -115t-163 -348q-8 -63 -21 -175.5t-31 -250.5h-161l28 229q52 462 52 541q0 51 -22 83t-69 32q-84 0 -170.5 -112t-160.5 -349l-58 -424h-163q54 400 106 870z" />
<glyph unicode="n" horiz-adv-x="1171" d="M61 899l7 82q147 39 268 39q52 0 70 -16.5t18 -61.5q0 -86 -29 -250h8q44 90 101.5 157.5t113 102t101.5 50.5t84 16q109 0 152.5 -62.5t43.5 -175.5q0 -55 -69 -651q84 6 164 51q32 -53 39 -67q-67 -65 -142 -99t-129 -34q-53 0 -75.5 26.5t-22.5 79.5q0 35 4 55 q63 555 63 627q0 53 -22.5 85t-69.5 32q-42 0 -88.5 -26t-96 -78.5t-98.5 -145t-87 -213.5l-58 -422h-161q61 474 108 868z" />
<glyph unicode="o" horiz-adv-x="1015" d="M82 377q0 91 16.5 179.5t55 173.5t94.5 148.5t142.5 102.5t191.5 39q99 0 173 -32.5t116.5 -90t62.5 -128.5t20 -157q0 -85 -14.5 -167.5t-50.5 -167t-91.5 -148t-144.5 -103.5t-202 -40q-369 0 -369 391zM246 356q0 -247 221 -247q75 0 133.5 36t92.5 89.5t56 124 t29.5 132t7.5 121.5q0 277 -211 277q-77 0 -137.5 -37.5t-95.5 -94t-57.5 -131t-30.5 -140t-8 -130.5z" />
<glyph unicode="p" horiz-adv-x="1095" d="M-70 -426l15 123h145l139 1171l-196 31l6 82q144 39 270 39q90 0 90 -62q0 -2 -32 -272h10q42 91 92 157t100.5 101.5t97.5 51.5t95 16q117 0 185.5 -90t68.5 -263q0 -144 -33.5 -266.5t-97.5 -214.5t-164 -144t-227 -52q-73 0 -203 36q-6 -53 -20.5 -160.5t-20.5 -160.5 h184q-3 -20 -7 -61t-7 -62h-490zM303 152q102 -41 205 -41q77 0 138.5 35t98.5 89.5t61.5 126t34 138t9.5 131.5q0 122 -40 184t-110 62q-89 0 -185 -109t-177 -354q-5 -44 -17.5 -131t-17.5 -131z" />
<glyph unicode="q" horiz-adv-x="1056" d="M82 330q0 140 33 262.5t96.5 217.5t164 149.5t226.5 54.5q171 0 354 -84l9 -19q-7 -45 -76 -613t-72 -603h150l-13 -123h-489l14 123h172q54 493 74 600h-8q-148 -313 -377 -313q-118 0 -188 88t-70 260zM248 354q0 -121 40.5 -182t110.5 -61q89 0 183 109.5t174 354.5 l39 265q-103 43 -203 43q-65 0 -118.5 -24.5t-90 -67.5t-63.5 -95.5t-42.5 -113.5t-22.5 -117.5t-7 -110.5z" />
<glyph unicode="r" horiz-adv-x="854" d="M86 899l6 82q147 39 246 39q53 0 72.5 -17t19.5 -63q0 -23 -3.5 -54t-12.5 -89.5t-13 -87.5h7q29 78 62.5 136.5t64 91.5t65 53t62 26t57.5 6q63 0 97.5 -34t37.5 -87l-70 -76q-50 27 -112 27q-83 0 -166.5 -117t-140.5 -340q-27 -213 -54 -395h-157q21 172 58.5 470 t49.5 398z" />
<glyph unicode="s" horiz-adv-x="874" d="M55 123q0 39 21 101t51 118l78 -4l-10 -209q73 -29 163 -29q69 0 127 17.5t98 59.5t40 102q0 33 -14.5 59.5t-42 46.5t-58.5 35.5t-70 32.5q-16 7 -24 10q-73 33 -119.5 58t-90.5 58.5t-64.5 72t-20.5 85.5q0 71 32 127t87 89.5t122.5 51t143.5 17.5q112 0 197 -35 t85 -92q0 -38 -21.5 -105.5t-49.5 -121.5l-78 4l10 200q-64 31 -145 31q-42 0 -78.5 -8.5t-67.5 -26t-49 -49t-18 -74.5q0 -36 38 -71.5t67 -50.5t96 -45q2 -1 3 -2t3 -1.5t4 -1.5q65 -28 106 -50t87 -57t69 -79.5t24 -99.5q0 -97 -60 -166.5t-154 -102t-210 -32.5 q-307 0 -307 137z" />
<glyph unicode="t" horiz-adv-x="735" d="M94 887l8 88l156 37l80 223l104 16l-30 -252h293l-13 -112h-291q-26 -190 -77 -608q-2 -12 -2 -37q0 -60 24.5 -90.5t89.5 -30.5q88 0 193 31l24 -109q-56 -24 -133.5 -38.5t-130.5 -14.5q-235 0 -235 192q0 5 1 16.5t1 16.5q13 100 39.5 326t42.5 346h-144z" />
<glyph unicode="u" horiz-adv-x="1167" d="M63 899l7 82q144 39 270 39q50 0 70 -17t20 -59q0 -38 -37 -349t-37 -362q0 -116 93 -116q90 0 193.5 114.5t176.5 348.5q58 401 60 419h155q-22 -156 -110 -870q83 5 166 51l38 -67q-64 -64 -137.5 -98.5t-126.5 -34.5q-56 0 -76 25.5t-20 88.5q0 59 20 207h-10 q-43 -88 -98.5 -153.5t-109.5 -99.5t-100 -50t-85 -16q-197 0 -197 204q0 68 70 684q-22 3 -195 29z" />
<glyph unicode="v" horiz-adv-x="1009" d="M6 899q63 60 125.5 93.5t104.5 33.5q41 0 62.5 -19.5t27.5 -68.5q9 -70 88 -782h10q144 164 250.5 362t113.5 359q-59 -14 -147 -39l-23 69q134 113 220 113q47 0 78.5 -29.5t31.5 -83.5q-1 -112 -52 -249t-129 -260.5t-165.5 -230t-167.5 -175.5h-149l-109 878l-143 -41 q-13 30 -27 70z" />
<glyph unicode="w" horiz-adv-x="1456" d="M6 895q140 129 244 129q20 0 35 -7t25 -24t16.5 -34t11 -47.5t6.5 -52.5t4 -62q5 -71 14.5 -197.5t17 -233.5t11.5 -204h10q85 100 172 244t132 262q-6 96 -15 202l-143 -43l-27 70q68 61 132 94t110 33q52 -4 67 -41.5t21 -153.5q35 -550 43 -667h8q137 155 233 352 t103 363q-27 -8 -78.5 -22.5t-66.5 -18.5l-21 69q142 123 240 123q45 0 64.5 -30t19.5 -101q0 -106 -47.5 -240.5t-120.5 -258.5t-157 -232t-161 -174h-149l-37 452q-1 0 -2 1t-2 1q-62 -130 -156.5 -260t-161.5 -194h-145q-3 36 -31 372.5t-49 505.5l-143 -43z" />
<glyph unicode="x" horiz-adv-x="972" d="M35 61q0 3 1 9.5t1 9.5l358 416l-153 368l-158 -55l-35 74q140 131 234 131q38 0 63 -18.5t43 -63.5l127 -305q45 63 133 191t133 192h17l106 -90v-19l-340 -383l162 -385q81 8 174 64q29 -42 49 -64q-67 -82 -137 -120t-121 -38q-38 0 -61.5 19t-42.5 57 q-69 146 -144 336q-138 -203 -292 -418q-2 0 -8 -1t-9 -1z" />
<glyph unicode="y" horiz-adv-x="1032" d="M-225 -307l69 41q57 -64 168 -64q192 0 391 228q-41 238 -99.5 531t-94.5 433l-152 -41l-26 70q64 59 128 91t101 32q40 0 59.5 -18.5t32.5 -69.5q25 -91 78.5 -375t87.5 -502q123 172 206 425t83 394l-148 -39q-13 50 -20 70q130 121 223 121q53 0 77 -31.5t24 -111.5 q0 -97 -27 -218.5t-78.5 -250.5t-121 -256.5t-159 -241t-187.5 -200.5t-213 -138t-228 -51q-108 0 -154 44q-29 28 -29 73q0 25 9 55z" />
<glyph unicode="z" horiz-adv-x="935" d="M20 100l666 781h-410l-79 -211l-82 8l22 242q9 79 99 79h630l25 -104l-664 -778h488l82 215l73 -4l-28 -250q-7 -78 -97 -78h-706z" />
<glyph unicode="{" horiz-adv-x="526" d="M74 557l12 92q80 22 109.5 69.5t48.5 158.5l39 305q4 34 11.5 64.5t24 67.5t39.5 63t60.5 43.5t85.5 17.5h102l-16 -111h-49q-21 0 -37.5 -4.5t-27.5 -10t-19.5 -19.5t-12.5 -22t-8.5 -30t-5.5 -30.5t-4 -36.5l-39 -324q-24 -207 -149 -244q53 -30 74.5 -70t21.5 -98 q0 -36 -6 -80l-58 -460q-2 -20 -2 -58q3 -37 18.5 -56.5t53.5 -19.5h59l-12 -110h-78q-106 0 -149 42.5t-43 129.5q0 29 2 43q14 92 34.5 268.5t24.5 204.5q6 40 6 74q0 105 -110 141z" />
<glyph unicode="|" horiz-adv-x="483" d="M182 -285v1719h113v-1719h-113z" />
<glyph unicode="}" horiz-adv-x="526" d="M-49 -344l16 111h49q21 0 37.5 4.5t27.5 10t19.5 19.5t12.5 22t8.5 30t5.5 30.5t4 36.5l45 418q5 42 15 78.5t27.5 71t45 59.5t62.5 35q-53 30 -75 70t-22 98q0 28 7 79l51 367q2 20 2 57q-3 37 -18.5 56.5t-53.5 19.5h-59l12 111h78q106 0 149 -42.5t43 -129.5 q0 -29 -2 -43q-36 -241 -53 -379q-6 -41 -6 -74q0 -105 110 -141l-12 -92q-80 -22 -109.5 -69.5t-48.5 -158.5l-45 -399q-4 -34 -11.5 -64.5t-24 -67.5t-39.5 -63t-60.5 -43.5t-85.5 -17.5h-102z" />
<glyph unicode="~" d="M168 563q43 81 108 127.5t138 46.5q65 0 207.5 -48t193.5 -48l148 98l59 -55q-43 -81 -108.5 -129.5t-139.5 -48.5q-67 0 -142 24t-139.5 48t-107.5 24l-158 -96z" />
<glyph unicode="&#xa1;" horiz-adv-x="446" d="M39 -428l82 627l72 448h108l-37 -448l-65 -627h-160zM176 897q0 49 36.5 85t82.5 36q41 0 67.5 -27t26.5 -67q0 -48 -35 -83.5t-86 -35.5q-41 0 -66.5 26.5t-25.5 65.5z" />
<glyph unicode="&#xa2;" d="M195 348q0 55 5 110t18 118t33.5 119t54.5 110.5t77.5 96t106 71.5t137.5 41l24 200h88l-24 -194q117 0 209 -37q33 -12 48 -29t15 -45v-12q-2 -26 -23 -99.5t-44 -125.5l-86 6l10 192q-67 23 -142 23h-4l-94 -780q119 3 262 61l37 -102q-143 -75 -315 -84l-19 -156h-90 l19 156q-158 13 -229 106t-74 254zM358 371q0 -216 156 -252l94 758q-81 -28 -138.5 -105t-84.5 -179.5t-27 -221.5z" />
<glyph unicode="&#xa3;" d="M74 0l10 123q46 19 81.5 57t58 90.5t35.5 99t24 105.5l28 162h-135l12 108h140l34 220q64 411 414 411q91 0 181.5 -19t146.5 -50l-29 -267h-127l21 170q-105 33 -191 33q-66 0 -113 -20t-76.5 -62t-46 -89t-30.5 -118l-33 -209h369l-14 -108h-373l-27 -166 q-47 -273 -143 -346h690l-12 -125h-895z" />
<glyph unicode="&#xa4;" horiz-adv-x="1097" d="M143 268l129 125q-77 98 -77 232q0 143 77 235l-127 131l74 78l129 -131q99 80 230 80q120 0 227 -80l127 131l78 -80l-131 -127q75 -101 75 -233q0 -127 -73 -236l129 -123l-78 -82l-129 129q-94 -77 -225 -77t-228 77l-129 -131zM309 627q0 -114 78 -193.5t188 -79.5 q108 0 187.5 80t79.5 193q0 112 -79 192t-188 80q-110 0 -188 -79.5t-78 -192.5z" />
<glyph unicode="&#xa5;" d="M131 1235l16 125h383l-16 -125h-123l184 -535h7l317 535h-125l14 125h392l-17 -125h-98l-352 -563h276l-10 -82h-819l10 82h270l-207 563h-102zM137 403l10 89h820l-11 -89h-333l-33 -280h162l-15 -123h-483l14 123h160l35 280h-326z" />
<glyph unicode="&#xa6;" horiz-adv-x="483" d="M236 -285v783h112v-783h-112zM236 700v734h112v-734h-112z" />
<glyph unicode="&#xa7;" horiz-adv-x="937" d="M68 -221l32 252h119l-20 -160q103 -29 190 -29q105 0 181.5 59t76.5 158q0 58 -40.5 100.5t-119.5 82.5q-21 11 -59 29.5t-62 30t-58 30.5t-55.5 35t-45.5 40t-38 47.5t-23 54.5t-9 66q0 80 42 158.5t124 134.5q-98 82 -98 199q0 102 55 175t144 107.5t200 34.5 q150 0 293 -51q-30 -215 -35 -258h-121l21 160q-91 27 -172 27q-94 0 -157.5 -47.5t-63.5 -131.5q0 -29 15 -56.5t32.5 -46t55.5 -43t59.5 -36t68.5 -35.5q57 -29 91.5 -50t75 -55.5t60 -77.5t19.5 -97q0 -62 -38.5 -140t-127.5 -155q63 -39 92 -102.5t29 -122.5 q0 -107 -58 -186.5t-148.5 -117.5t-197.5 -38q-85 0 -176.5 15t-152.5 40zM283 594q0 -36 17 -66t51.5 -54.5t66 -41t84 -41t80.5 -39.5q57 52 87.5 108.5t32.5 98.5q-1 39 -18.5 70.5t-51.5 56t-65 41t-81.5 40t-77.5 38.5q-58 -45 -91.5 -100.5t-33.5 -110.5z" />
<glyph unicode="&#xa8;" horiz-adv-x="1001" d="M324 1239q1 41 34 71.5t70 30.5q42 0 66.5 -23.5t23.5 -62.5q-2 -44 -33 -74t-77 -30q-38 0 -62 25t-22 63zM698 1239q1 42 33 72t70 30q40 0 64.5 -23.5t23.5 -62.5q0 -44 -32.5 -74t-78.5 -30q-38 0 -60 24.5t-20 63.5z" />
<glyph unicode="&#xa9;" horiz-adv-x="1667" d="M106 682q0 152 56.5 289t154 236.5t234 158.5t289.5 59q158 0 295.5 -58.5t233 -159t150 -237t54.5 -288.5t-58.5 -290t-157 -237.5t-234 -158.5t-283.5 -59q-167 0 -306.5 58.5t-232.5 159.5t-144 237t-51 290zM193 682q0 -183 75.5 -331t224.5 -238t347 -90 q132 0 251.5 52.5t205.5 141t137 210.5t51 255q0 180 -81.5 329.5t-230 237.5t-333.5 88q-179 0 -328 -88t-234 -238t-85 -329zM430 666q0 70 11.5 137.5t42 140t77 126t125 88t178.5 34.5q135 0 248 -41v-236h-92v152q-82 20 -152 20q-155 0 -232 -111t-77 -310 q0 -73 8.5 -130.5t30 -110t56.5 -87.5t90.5 -55.5t129.5 -20.5q130 0 236 33l20 -92q-50 -20 -129 -33.5t-149 -13.5q-422 0 -422 510z" />
<glyph unicode="&#xaa;" horiz-adv-x="770" d="M80 793q0 123 39 219t121.5 154.5t197.5 58.5q68 -3 154 -35l31 37l84 -4q-65 -457 -76 -566q45 5 112 43q3 -4 37 -55q-46 -43 -99 -72.5t-89 -29.5q-78 0 -78 100q0 38 10 100h-4q-51 -98 -120.5 -147t-133.5 -49q-86 0 -136 62.5t-50 183.5zM207 803q0 -77 27 -117.5 t73 -40.5q56 0 118.5 70.5t113.5 222.5q3 18 8 50t9 58t7 50q-80 30 -135 30q-50 0 -89.5 -21.5t-63.5 -55t-40 -78t-22 -86t-6 -82.5z" />
<glyph unicode="&#xab;" horiz-adv-x="860" d="M109 346l10 80l330 326l61 -54l-240 -313l164 -311l-74 -51zM403 346l11 80l329 326l60 -54l-238 -313l162 -311l-72 -51z" />
<glyph unicode="&#xac;" d="M193 553l14 119h768l-55 -463h-121l41 344h-647z" />
<glyph unicode="&#xad;" horiz-adv-x="727" d="M111 471l18 139h514l-18 -139h-514z" />
<glyph unicode="&#xae;" horiz-adv-x="1159" d="M145 965q0 135 61.5 247t173 178t249.5 66q139 0 250.5 -66t173 -178t61.5 -247q0 -134 -61.5 -246t-173.5 -178t-250 -66q-208 0 -346 142.5t-138 347.5zM215 965q0 -175 117 -297.5t297 -122.5q187 0 300 121.5t113 298.5q0 176 -116.5 298.5t-296.5 122.5 q-178 0 -296 -122.5t-118 -298.5zM406 672v67h51v463h-51v68h251q86 0 135.5 -42.5t49.5 -125.5q0 -44 -28 -90.5t-81 -69.5l96 -203l62 -8v-55q-38 -10 -78 -10q-45 0 -65 49l-103 215h-100v-191h67v-67h-206zM545 995h104q105 0 105 105q0 53 -29.5 78.5t-73.5 25.5h-106 v-209z" />
<glyph unicode="&#xaf;" horiz-adv-x="1001" d="M268 1206l17 131h647l-17 -131h-647z" />
<glyph unicode="&#xb0;" horiz-adv-x="706" d="M109 1116q3 109 81 185.5t187 76.5q107 0 179.5 -77.5t72.5 -184.5q-1 -109 -78 -183.5t-186 -74.5q-118 0 -188.5 73t-67.5 185zM203 1110q-2 -68 44 -116t115 -48q68 0 118.5 48t51.5 116q0 71 -48 121.5t-117 50.5q-68 0 -115 -50.5t-49 -121.5z" />
<glyph unicode="&#xb1;" d="M125 0l14 109h766l-14 -109h-766zM193 549l14 121h323l39 321h121l-39 -321h322l-15 -121h-321l-43 -332h-119l41 332h-323z" />
<glyph unicode="&#xb2;" horiz-adv-x="745" d="M33 727l10 94q214 165 308 256q171 164 171 260q0 107 -141 107q-99 0 -225 -70l-54 88q150 97 299 97q117 0 187.5 -51.5t70.5 -149.5q0 -48 -18 -97.5t-55.5 -98.5t-73.5 -89t-94 -88.5t-92.5 -75.5t-92.5 -71h287q3 28 8 104h115l-18 -215h-592z" />
<glyph unicode="&#xb3;" horiz-adv-x="745" d="M18 772l39 96q119 -43 222 -43q93 0 160 45t67 117q0 66 -46.5 98.5t-125.5 32.5q-40 0 -92 -8l-15 94q134 24 207.5 69.5t73.5 96.5q0 76 -133 76q-97 0 -225 -53l-39 86q136 75 284 75q121 0 183.5 -47t62.5 -118q0 -58 -45 -115t-113 -86q77 -20 118.5 -72t41.5 -119 q0 -117 -99 -197.5t-259 -80.5q-170 0 -267 53z" />
<glyph unicode="&#xb4;" horiz-adv-x="1001" d="M502 1159l278 338l103 -102l-318 -293z" />
<glyph unicode="&#xb6;" horiz-adv-x="1046" d="M160 1001q0 178 120 298t289 120h541l-14 -121h-133l-209 -1695h-117l209 1695h-133l-209 -1695h-281l17 118h159l115 945h-29q-148 0 -236.5 92.5t-88.5 242.5z" />
<glyph unicode="&#xb7;" horiz-adv-x="407" d="M119 573q0 49 36 84t83 35q41 0 67.5 -26.5t26.5 -67.5q0 -50 -37 -87.5t-84 -37.5q-39 0 -65.5 29t-26.5 71z" />
<glyph unicode="&#xb8;" horiz-adv-x="899" d="M195 -502l6 78q116 9 184 41.5t68 87.5q0 74 -191 74l-20 41l227 256q9 -7 28.5 -19.5t28.5 -19.5l-143 -164q92 -6 143.5 -41.5t51.5 -101.5q0 -96 -98 -164t-285 -68z" />
<glyph unicode="&#xb9;" horiz-adv-x="745" d="M111 729l8 107h182q56 439 72 579l-203 -29l-6 91l239 69h121l-86 -710h170l-8 -107h-489z" />
<glyph unicode="&#xba;" horiz-adv-x="700" d="M66 811q-1 77 17 148t56.5 133.5t107.5 100.5t161 38q70 0 122 -21.5t82 -59.5t44.5 -85t15.5 -104q1 -56 -8.5 -110t-34 -110t-62 -97.5t-99.5 -68t-140 -26.5q-138 0 -200 71t-62 191zM193 797q4 -150 145 -150q61 0 104.5 32.5t63.5 84.5t28 100t7 97q-4 172 -138 172 q-63 0 -107.5 -34t-65.5 -89t-29.5 -107.5t-7.5 -105.5z" />
<glyph unicode="&#xbb;" horiz-adv-x="860" d="M57 74l238 311l-160 313l74 54l252 -326l-10 -80l-334 -323zM352 74l236 311l-160 313l76 54l250 -326l-11 -80l-333 -323z" />
<glyph unicode="&#xbc;" horiz-adv-x="1638" d="M205 545l8 106h182q55 431 72 580l-203 -29l-6 90l240 70h120l-86 -711h170l-8 -106h-489zM516 -45l778 1481h109l-774 -1481h-113zM932 227l8 88q125 135 234.5 253t154.5 166t78 85h121l-55 -487h122l-10 -105h-125l-14 -125h90l-8 -102h-311l12 102h90l14 125h-401z M1085 332h261l40 330q-130 -148 -301 -330z" />
<glyph unicode="&#xbd;" horiz-adv-x="1638" d="M168 545l8 106h182q55 431 72 580l-203 -29l-6 90l240 70h121l-86 -711h170l-9 -106h-489zM467 -45l778 1481h109l-774 -1481h-113zM1008 0l8 92q16 13 60.5 47.5t69.5 54.5t69 56t71.5 61.5t64 60.5t59 63t44 59t31.5 59t10 53q0 109 -141 109q-103 0 -226 -72l-53 92 q150 96 299 96q118 0 188 -52t70 -154q0 -32 -10 -65.5t-23 -62.5t-40.5 -64.5t-47 -59.5t-59 -60.5t-59 -54.5t-65.5 -55t-60.5 -48t-59.5 -46h285q2 18 8 100h115l-19 -209h-589z" />
<glyph unicode="&#xbe;" horiz-adv-x="1638" d="M164 588l39 96q119 -43 221 -43q93 0 160 45t67 117q0 66 -46.5 98.5t-125.5 32.5q-40 0 -92 -8l-14 94q134 24 207 69.5t73 96.5q0 76 -133 76q-94 0 -225 -54l-39 86q138 76 285 76q121 0 183 -47.5t62 -118.5q0 -58 -44.5 -114.5t-112.5 -85.5q77 -20 118 -72t41 -119 q0 -117 -99 -197.5t-259 -80.5q-169 0 -266 53zM526 -45l779 1481h108l-774 -1481h-113zM973 227l8 88q125 135 234.5 253t154.5 166t78 85h121l-56 -487h123l-10 -105h-125l-14 -125h90l-8 -102h-312l13 102h90l14 125h-401zM1126 332h260l41 330q-130 -148 -301 -330z" />
<glyph unicode="&#xbf;" horiz-adv-x="876" d="M14 -197q0 177 211 340q169 119 234 204.5t65 189.5q0 12 -1 43t-1 51q97 17 131 22q9 -71 9 -125q0 -132 -65.5 -226t-234.5 -218q-94 -69 -137 -121t-43 -123q0 -149 199 -149q120 0 235 35q13 103 21 186h125q-5 -49 -17.5 -146.5t-17.5 -146.5q-189 -65 -373 -65 q-170 0 -255 64t-85 185zM481 899q0 49 36 83t81 34q41 0 66.5 -26.5t25.5 -65.5q0 -48 -33.5 -83.5t-83.5 -35.5q-41 0 -66.5 27t-25.5 67z" />
<glyph unicode="&#xc0;" horiz-adv-x="1327" d="M-12 0q9 61 12 125h117q79 183 175 400.5t212 477.5t178 400h209l252 -1278h108l-14 -125h-418q8 58 15 125h137q-43 234 -47 262h-529l-112 -262h141l-14 -125h-422zM453 518h448q-49 280 -108 596q-3 22 -11.5 67.5t-11.5 69.5h-6q-1 -1 -4.5 -11.5t-8 -23t-16.5 -40.5 t-28 -64zM492 1657l86 139l319 -235l-51 -80z" />
<glyph unicode="&#xc1;" horiz-adv-x="1327" d="M-12 0q9 61 12 125h117q79 183 175 400.5t212 477.5t178 400h209l252 -1278h108l-14 -125h-418q8 58 15 125h137q-43 234 -47 262h-529l-112 -262h141l-14 -125h-422zM453 518h448q-49 280 -108 596q-3 22 -11.5 67.5t-11.5 69.5h-6q-1 -1 -4.5 -11.5t-8 -23t-16.5 -40.5 t-28 -64zM690 1552l365 240l71 -127l-391 -186z" />
<glyph unicode="&#xc2;" horiz-adv-x="1327" d="M-12 0q9 61 12 125h117q79 183 175 400.5t212 477.5t178 400h209l252 -1278h108l-14 -125h-418q8 58 15 125h137q-43 234 -47 262h-529l-112 -262h141l-14 -125h-422zM428 1505l334 293h108l269 -289l-54 -59l-282 203l-332 -205zM453 518h448q-49 280 -108 596 q-3 22 -11.5 67.5t-11.5 69.5h-6q-1 -1 -4.5 -11.5t-8 -23t-16.5 -40.5t-28 -64z" />
<glyph unicode="&#xc3;" horiz-adv-x="1327" d="M-12 0q9 61 12 125h117q79 183 175 400.5t212 477.5t178 400h209l252 -1278h108l-14 -125h-418q8 58 15 125h137q-43 234 -47 262h-529l-112 -262h141l-14 -125h-422zM453 518h448q-49 280 -108 596q-3 22 -11.5 67.5t-11.5 69.5h-6q-1 -1 -4.5 -11.5t-8 -23t-16.5 -40.5 t-28 -64zM475 1544q34 71 85.5 112.5t107.5 41.5q51 0 148 -39t130 -39l123 80l47 -45q-30 -70 -80.5 -113t-107.5 -43q-51 0 -105 20t-99 40t-75 20l-123 -80z" />
<glyph unicode="&#xc4;" horiz-adv-x="1327" d="M-12 0q9 61 12 125h117q79 183 175 400.5t212 477.5t178 400h209l252 -1278h108l-14 -125h-418q8 58 15 125h137q-43 234 -47 262h-529l-112 -262h141l-14 -125h-422zM453 518h448q-49 280 -108 596q-3 22 -11.5 67.5t-11.5 69.5h-6q-1 -1 -4.5 -11.5t-8 -23t-16.5 -40.5 t-28 -64zM520 1579q1 40 34.5 70t70.5 30q40 0 64.5 -23t23.5 -59q-1 -44 -33 -74t-74 -30q-38 0 -62 24.5t-24 61.5zM893 1577q1 42 31 72t69 30q40 0 64.5 -23t23.5 -59q-2 -44 -33 -74t-77 -30q-36 0 -58 23.5t-20 60.5z" />
<glyph unicode="&#xc5;" horiz-adv-x="1327" d="M-12 0q9 61 12 125h117q79 183 175 400.5t212 477.5t178 400h209l252 -1278h108l-14 -125h-418q8 58 15 125h137q-43 234 -47 262h-529l-112 -262h141l-14 -125h-422zM453 518h448q-49 280 -108 596q-3 22 -11.5 67.5t-11.5 69.5h-6q-1 -1 -4.5 -11.5t-8 -23t-16.5 -40.5 t-28 -64zM594 1659q11 90 79.5 153.5t164.5 63.5q88 0 141 -64t41 -153q-9 -90 -77.5 -152.5t-158.5 -62.5t-145.5 62.5t-44.5 152.5zM684 1655q-6 -56 24 -92.5t87 -36.5q53 0 91 37t44 92q8 55 -22 93t-83 38q-56 0 -95.5 -37.5t-45.5 -93.5z" />
<glyph unicode="&#xc6;" horiz-adv-x="1894" d="M10 0l4 125h117l815 1274h873l-15 -316h-127l9 193h-469l-19 -481l473 10l-4 -137l-473 6l-23 -549h517l10 197h133l-14 -322h-953l4 125h136l12 297h-514l-193 -297h148l-4 -125h-443zM582 553h440l31 715h-13z" />
<glyph unicode="&#xc7;" horiz-adv-x="1132" d="M125 545q0 76 7.5 151.5t27.5 165t52.5 167t86.5 152t124 127.5t171.5 85t222.5 32q197 0 340 -57l-39 -328h-131l27 217q-110 29 -207 29q-164 0 -279.5 -95t-171 -258t-55.5 -380q0 -424 404 -424q167 0 321 47l25 -127q-64 -26 -164 -43t-193 -20l-123 -144 q92 -6 143.5 -41.5t51.5 -101.5q0 -96 -98 -163.5t-285 -67.5l6 77q116 9 184 41.5t68 87.5q0 74 -190 74l-21 41l174 197q-479 23 -479 559z" />
<glyph unicode="&#xc8;" horiz-adv-x="1142" d="M31 0l14 125h133l141 1151h-126l14 125h960l-39 -318h-129l25 193h-537l-59 -481l518 10l-14 -137l-518 8l-68 -551h578l24 197h133l-39 -322h-1011zM475 1657l86 139l320 -235l-52 -80z" />
<glyph unicode="&#xc9;" horiz-adv-x="1142" d="M31 0l14 125h133l141 1151h-126l14 125h960l-39 -318h-129l25 193h-537l-59 -481l518 10l-14 -137l-518 8l-68 -551h578l24 197h133l-39 -322h-1011zM580 1552l364 240l72 -127l-391 -186z" />
<glyph unicode="&#xca;" horiz-adv-x="1142" d="M31 0l14 125h133l141 1151h-126l14 125h960l-39 -318h-129l25 193h-537l-59 -481l518 10l-14 -137l-518 8l-68 -551h578l24 197h133l-39 -322h-1011zM379 1505l334 293h108l269 -289l-54 -59l-282 203l-332 -205z" />
<glyph unicode="&#xcb;" horiz-adv-x="1142" d="M31 0l14 125h133l141 1151h-126l14 125h960l-39 -318h-129l25 193h-537l-59 -481l518 10l-14 -137l-518 8l-68 -551h578l24 197h133l-39 -322h-1011zM467 1579q1 40 34 70t70 30q40 0 64.5 -23t23.5 -59q-1 -44 -32.5 -74t-73.5 -30q-38 0 -62 24.5t-24 61.5zM840 1577 q1 42 31 72t69 30q40 0 64.5 -23t23.5 -59q-2 -44 -33 -74t-77 -30q-36 0 -58 23.5t-20 60.5z" />
<glyph unicode="&#xcc;" horiz-adv-x="700" d="M88 0l14 125h125l142 1151h-125l14 127h422l-14 -127h-129l-142 -1151h129l-14 -125h-422zM197 1657l86 139l319 -235l-51 -80z" />
<glyph unicode="&#xcd;" horiz-adv-x="700" d="M88 0l14 125h125l142 1151h-125l14 127h422l-14 -127h-129l-142 -1151h129l-14 -125h-422zM332 1552l364 240l72 -127l-391 -186z" />
<glyph unicode="&#xce;" horiz-adv-x="700" d="M88 0l14 125h125l142 1151h-125l14 127h422l-14 -127h-129l-142 -1151h129l-14 -125h-422zM123 1505l334 293h108l269 -289l-54 -59l-282 203l-332 -205z" />
<glyph unicode="&#xcf;" horiz-adv-x="700" d="M88 0l14 125h125l142 1151h-125l14 127h422l-14 -127h-129l-142 -1151h129l-14 -125h-422zM201 1579q1 40 34 70t70 30q40 0 64.5 -23t23.5 -59q-1 -44 -32.5 -74t-73.5 -30q-38 0 -62 24.5t-24 61.5zM573 1577q1 42 31.5 72t69.5 30q40 0 64.5 -23t23.5 -59 q-2 -44 -33.5 -74t-77.5 -30q-36 0 -58 23.5t-20 60.5z" />
<glyph unicode="&#xd0;" horiz-adv-x="1318" d="M31 0l14 125h137l66 539h-129l14 96h127l64 516h-129l14 127h545q508 0 508 -567q0 -136 -22.5 -256.5t-73.5 -228t-127 -184.5t-190 -122t-255 -45h-563zM354 127h217q36 0 70.5 4t88 20t99 43.5t94.5 80t83.5 123t56.5 179t22 242.5q0 89 -14 161t-36 119t-55 81 t-63.5 52t-70.5 28.5t-67.5 13t-61.5 2.5h-221l-64 -516h291l-12 -96h-291z" />
<glyph unicode="&#xd1;" horiz-adv-x="1462" d="M29 0q7 47 14 127h135q26 224 78 642.5t63 506.5h-135l17 125h313l430 -875q15 -31 56 -115.5t63 -131.5h10l123 997h-139q5 37 14 125h428q-3 -21 -7 -62.5t-7 -62.5h-129l-158 -1276h-160q-68 133 -220 443.5t-245 488.5l-106 221q-1 0 -3 -1t-3 -1l-125 -1024h139 q-7 -47 -14 -127h-432zM535 1614q34 71 85 112t107 41q51 0 148.5 -38.5t130.5 -38.5l122 79l48 -45q-30 -69 -81 -112t-108 -43q-51 0 -104.5 20t-98.5 40t-75 20l-123 -80z" />
<glyph unicode="&#xd2;" horiz-adv-x="1347" d="M125 532q0 135 23 261t74.5 241.5t127.5 201t189.5 136.5t251.5 51q111 0 197 -29.5t142 -80.5t92 -125t51 -156.5t15 -181.5q0 -182 -42.5 -338.5t-122 -274.5t-204 -185.5t-278.5 -67.5q-516 0 -516 548zM297 530q0 -207 84 -310t264 -103q98 0 177.5 40.5t133 109 t90 163.5t52.5 201t16 223q0 438 -326 438q-79 0 -146 -24t-116.5 -65.5t-89 -100.5t-65 -125t-42.5 -143t-24.5 -151.5t-7.5 -152.5zM518 1657l86 139l320 -235l-52 -80z" />
<glyph unicode="&#xd3;" horiz-adv-x="1347" d="M125 532q0 135 23 261t74.5 241.5t127.5 201t189.5 136.5t251.5 51q111 0 197 -29.5t142 -80.5t92 -125t51 -156.5t15 -181.5q0 -182 -42.5 -338.5t-122 -274.5t-204 -185.5t-278.5 -67.5q-516 0 -516 548zM297 530q0 -207 84 -310t264 -103q98 0 177.5 40.5t133 109 t90 163.5t52.5 201t16 223q0 438 -326 438q-79 0 -146 -24t-116.5 -65.5t-89 -100.5t-65 -125t-42.5 -143t-24.5 -151.5t-7.5 -152.5zM715 1552l364 240l72 -127l-391 -186z" />
<glyph unicode="&#xd4;" horiz-adv-x="1347" d="M125 532q0 135 23 261t74.5 241.5t127.5 201t189.5 136.5t251.5 51q111 0 197 -29.5t142 -80.5t92 -125t51 -156.5t15 -181.5q0 -182 -42.5 -338.5t-122 -274.5t-204 -185.5t-278.5 -67.5q-516 0 -516 548zM297 530q0 -207 84 -310t264 -103q98 0 177.5 40.5t133 109 t90 163.5t52.5 201t16 223q0 438 -326 438q-79 0 -146 -24t-116.5 -65.5t-89 -100.5t-65 -125t-42.5 -143t-24.5 -151.5t-7.5 -152.5zM473 1505l334 293h108l269 -289l-54 -59l-282 203l-332 -205z" />
<glyph unicode="&#xd5;" horiz-adv-x="1347" d="M125 532q0 135 23 261t74.5 241.5t127.5 201t189.5 136.5t251.5 51q111 0 197 -29.5t142 -80.5t92 -125t51 -156.5t15 -181.5q0 -182 -42.5 -338.5t-122 -274.5t-204 -185.5t-278.5 -67.5q-516 0 -516 548zM297 530q0 -207 84 -310t264 -103q98 0 177.5 40.5t133 109 t90 163.5t52.5 201t16 223q0 438 -326 438q-79 0 -146 -24t-116.5 -65.5t-89 -100.5t-65 -125t-42.5 -143t-24.5 -151.5t-7.5 -152.5zM522 1618q34 71 85.5 112.5t107.5 41.5q51 0 148 -39t130 -39l123 80l47 -45q-30 -70 -80.5 -113t-107.5 -43q-51 0 -105 20t-99 40 t-75 20l-123 -80z" />
<glyph unicode="&#xd6;" horiz-adv-x="1347" d="M125 532q0 135 23 261t74.5 241.5t127.5 201t189.5 136.5t251.5 51q111 0 197 -29.5t142 -80.5t92 -125t51 -156.5t15 -181.5q0 -182 -42.5 -338.5t-122 -274.5t-204 -185.5t-278.5 -67.5q-516 0 -516 548zM297 530q0 -207 84 -310t264 -103q98 0 177.5 40.5t133 109 t90 163.5t52.5 201t16 223q0 438 -326 438q-79 0 -146 -24t-116.5 -65.5t-89 -100.5t-65 -125t-42.5 -143t-24.5 -151.5t-7.5 -152.5zM553 1579q1 40 34 70t70 30q40 0 64.5 -23t23.5 -59q-1 -44 -32.5 -74t-73.5 -30q-38 0 -62 24.5t-24 61.5zM926 1577q1 42 31 72t69 30 q40 0 64.5 -23t23.5 -59q-2 -44 -33 -74t-77 -30q-36 0 -58 23.5t-20 60.5z" />
<glyph unicode="&#xd7;" d="M205 328l293 266l-224 264l95 84l221 -264l280 260l76 -88l-282 -260l221 -260l-90 -86l-224 262l-292 -268z" />
<glyph unicode="&#xd8;" horiz-adv-x="1347" d="M39 -10q79 88 166 192q-80 132 -80 332q0 138 22 266t73 246.5t126.5 205.5t189.5 139t255 52q235 0 362 -137q94 108 121 141h98l-174 -200q88 -135 88 -396q0 -143 -27 -270.5t-81 -232.5t-130.5 -181.5t-181 -118.5t-227.5 -42q-261 0 -389 137l-117 -133h-94z M297 545q0 -141 33 -228q550 653 714 846q-80 127 -256 127q-107 0 -193 -45t-140.5 -118t-91 -171.5t-51.5 -200.5t-15 -210zM360 244q83 -129 285 -129q97 0 176.5 40.5t133 109t90 163.5t53 201t16.5 223q0 147 -39 238z" />
<glyph unicode="&#xd9;" horiz-adv-x="1402" d="M166 1276l14 127h426l-14 -127h-139l-97 -774q-47 -385 308 -385q170 0 273 97.5t126 287.5l96 774h-139l16 127h424l-14 -127h-123l-96 -772q-31 -246 -169 -383t-392 -137q-278 0 -392 139.5t-84 394.5l95 758h-119zM528 1657l86 139l320 -235l-51 -80z" />
<glyph unicode="&#xda;" horiz-adv-x="1402" d="M166 1276l14 127h426l-14 -127h-139l-97 -774q-47 -385 308 -385q170 0 273 97.5t126 287.5l96 774h-139l16 127h424l-14 -127h-123l-96 -772q-31 -246 -169 -383t-392 -137q-278 0 -392 139.5t-84 394.5l95 758h-119zM709 1552l364 240l72 -127l-391 -186z" />
<glyph unicode="&#xdb;" horiz-adv-x="1402" d="M166 1276l14 127h426l-14 -127h-139l-97 -774q-47 -385 308 -385q170 0 273 97.5t126 287.5l96 774h-139l16 127h424l-14 -127h-123l-96 -772q-31 -246 -169 -383t-392 -137q-278 0 -392 139.5t-84 394.5l95 758h-119zM465 1505l346 289h113l278 -285l-55 -57l-293 199 l-344 -201z" />
<glyph unicode="&#xdc;" horiz-adv-x="1402" d="M166 1276l14 127h426l-14 -127h-139l-97 -774q-47 -385 308 -385q170 0 273 97.5t126 287.5l96 774h-139l16 127h424l-14 -127h-123l-96 -772q-31 -246 -169 -383t-392 -137q-278 0 -392 139.5t-84 394.5l95 758h-119zM575 1579q1 40 34.5 70t70.5 30q40 0 64.5 -23 t23.5 -59q-1 -44 -32.5 -74t-73.5 -30q-38 0 -62.5 24.5t-24.5 61.5zM948 1577q1 42 31.5 72t69.5 30q40 0 64.5 -23t23.5 -59q-2 -44 -33.5 -74t-77.5 -30q-36 0 -58 23.5t-20 60.5z" />
<glyph unicode="&#xdd;" horiz-adv-x="1167" d="M127 1276l14 127h398l-15 -127h-125l213 -539h9l352 539h-129l14 127h408l-15 -127h-104l-455 -666l-59 -485h160l-15 -125h-497l14 125h162l57 479l-283 672h-104zM590 1550l364 240l72 -127l-391 -186z" />
<glyph unicode="&#xde;" horiz-adv-x="1134" d="M29 0l14 121h129l139 1157h-131l15 125h458l-14 -125h-160l-20 -154h282q179 0 279 -88.5t100 -259.5q0 -64 -14.5 -125t-49 -121t-85.5 -105t-130.5 -72.5t-178.5 -26.5h-295l-27 -205h162l-15 -121h-458zM379 442h266q43 0 84 10t81 34.5t69.5 61.5t48 94t18.5 128 q0 118 -62 178t-169 60h-269z" />
<glyph unicode="&#xdf;" horiz-adv-x="1165" d="M-268 -410l32 111q71 -14 138 -14q110 0 164 87q56 88 92 342q15 101 45 368q22 190 35 300h-144l12 111h142l28 219q6 45 21.5 89.5t49.5 94t81 86.5t122.5 61.5t168.5 24.5q77 -2 134.5 -23.5t88.5 -56t45.5 -71t16.5 -76.5q0 -65 -26.5 -122t-64 -96t-75 -73.5 t-64 -71t-26.5 -73.5q0 -38 24 -77.5t60.5 -72t79 -73.5t79 -80.5t60.5 -95.5t24 -117q0 -60 -21.5 -115t-63.5 -101.5t-114 -74t-163 -27.5q-72 0 -149.5 14.5t-129.5 37.5l45 116q102 -47 223 -47q87 0 145 44t58 128q0 33 -8 62t-26.5 55.5t-32.5 43t-42 44.5t-40 41 q-39 42 -60.5 67t-50 65t-42 77.5t-13.5 75.5q0 49 26.5 95.5t64 82.5t75 71.5t64 76.5t26.5 83q0 23 -6.5 43.5t-24 43.5t-55.5 36.5t-92 13.5q-102 0 -161.5 -67.5t-72.5 -169.5q-19 -148 -53.5 -438t-52.5 -432q-31 -257 -61 -365q-62 -219 -201 -281q-63 -28 -144 -28 t-190 28z" />
<glyph unicode="&#xe0;" horiz-adv-x="1116" d="M82 330q0 140 33 262.5t95 217.5t160.5 149.5t221.5 54.5q101 0 239 -53l52 55l98 -6q-98 -632 -119 -881q74 5 176 64q1 -3 39 -70q-60 -60 -136.5 -103t-127.5 -43q-108 0 -108 132q0 67 22 192h-10q-147 -319 -379 -319q-118 0 -187 88t-69 260zM248 352 q0 -120 40 -181.5t109 -61.5q88 0 182 109t175 355l43 267q-109 43 -207 43q-77 0 -138 -36t-98.5 -91.5t-62 -128.5t-34 -140.5t-9.5 -134.5zM373 1397l125 102l207 -338l-76 -57z" />
<glyph unicode="&#xe1;" horiz-adv-x="1116" d="M82 330q0 140 33 262.5t95 217.5t160.5 149.5t221.5 54.5q101 0 239 -53l52 55l98 -6q-98 -632 -119 -881q74 5 176 64q1 -3 39 -70q-60 -60 -136.5 -103t-127.5 -43q-108 0 -108 132q0 67 22 192h-10q-147 -319 -379 -319q-118 0 -187 88t-69 260zM248 352 q0 -120 40 -181.5t109 -61.5q88 0 182 109t175 355l43 267q-109 43 -207 43q-77 0 -138 -36t-98.5 -91.5t-62 -128.5t-34 -140.5t-9.5 -134.5zM543 1159l278 338l103 -102l-318 -293z" />
<glyph unicode="&#xe2;" horiz-adv-x="1116" d="M82 330q0 140 33 262.5t95 217.5t160.5 149.5t221.5 54.5q101 0 239 -53l52 55l98 -6q-98 -632 -119 -881q74 5 176 64q1 -3 39 -70q-60 -60 -136.5 -103t-127.5 -43q-108 0 -108 132q0 67 22 192h-10q-147 -319 -379 -319q-118 0 -187 88t-69 260zM248 352 q0 -120 40 -181.5t109 -61.5q88 0 182 109t175 355l43 267q-109 43 -207 43q-77 0 -138 -36t-98.5 -91.5t-62 -128.5t-34 -140.5t-9.5 -134.5zM299 1149l334 291h108l267 -289l-52 -59l-282 204l-332 -204z" />
<glyph unicode="&#xe3;" horiz-adv-x="1116" d="M82 330q0 140 33 262.5t95 217.5t160.5 149.5t221.5 54.5q101 0 239 -53l52 55l98 -6q-98 -632 -119 -881q74 5 176 64q1 -3 39 -70q-60 -60 -136.5 -103t-127.5 -43q-108 0 -108 132q0 67 22 192h-10q-147 -319 -379 -319q-118 0 -187 88t-69 260zM248 352 q0 -120 40 -181.5t109 -61.5q88 0 182 109t175 355l43 267q-109 43 -207 43q-77 0 -138 -36t-98.5 -91.5t-62 -128.5t-34 -140.5t-9.5 -134.5zM342 1221q34 71 85 112t108 41q51 0 148 -39t130 -39l123 80l47 -45q-30 -69 -80.5 -112t-107.5 -43q-51 0 -105 20t-99 39.5 t-75 19.5l-123 -79z" />
<glyph unicode="&#xe4;" horiz-adv-x="1116" d="M82 330q0 140 33 262.5t95 217.5t160.5 149.5t221.5 54.5q101 0 239 -53l52 55l98 -6q-98 -632 -119 -881q74 5 176 64q1 -3 39 -70q-60 -60 -136.5 -103t-127.5 -43q-108 0 -108 132q0 67 22 192h-10q-147 -319 -379 -319q-118 0 -187 88t-69 260zM248 352 q0 -120 40 -181.5t109 -61.5q88 0 182 109t175 355l43 267q-109 43 -207 43q-77 0 -138 -36t-98.5 -91.5t-62 -128.5t-34 -140.5t-9.5 -134.5zM375 1239q1 41 34 71.5t70 30.5q42 0 66.5 -23.5t23.5 -62.5q-2 -44 -33 -74t-77 -30q-38 0 -62 25t-22 63zM750 1239 q1 42 32.5 72t69.5 30q40 0 64.5 -23.5t23.5 -62.5q0 -44 -32.5 -74t-78.5 -30q-38 0 -59.5 24.5t-19.5 63.5z" />
<glyph unicode="&#xe5;" horiz-adv-x="1116" d="M82 330q0 140 33 262.5t95 217.5t160.5 149.5t221.5 54.5q101 0 239 -53l52 55l98 -6q-98 -632 -119 -881q74 5 176 64q1 -3 39 -70q-60 -60 -136.5 -103t-127.5 -43q-108 0 -108 132q0 67 22 192h-10q-147 -319 -379 -319q-118 0 -187 88t-69 260zM248 352 q0 -120 40 -181.5t109 -61.5q88 0 182 109t175 355l43 267q-109 43 -207 43q-77 0 -138 -36t-98.5 -91.5t-62 -128.5t-34 -140.5t-9.5 -134.5zM457 1346q11 90 79 153.5t164 63.5q88 0 141.5 -64t41.5 -153q-9 -91 -78 -153.5t-158 -62.5q-90 0 -145.5 63t-44.5 153z M547 1341q-6 -56 23.5 -92.5t86.5 -36.5q53 0 91.5 37t44.5 92q8 55 -22 93.5t-83 38.5q-56 0 -95.5 -38t-45.5 -94z" />
<glyph unicode="&#xe6;" horiz-adv-x="1550" d="M53 211q0 60 16 108.5t59 94t114 75t187 47t271 15.5q17 122 17 147q0 108 -45 149.5t-154 41.5q-58 0 -144 -17t-161 -43l-31 109q184 80 373 80q45 0 79.5 -5.5t76.5 -21.5t73 -54.5t47 -96.5q133 184 383 184q132 0 203.5 -71t71.5 -179q0 -87 -47 -149.5 t-136.5 -97.5t-199.5 -52t-256 -20q-4 -54 -4 -88q0 -54 9 -95.5t31.5 -80.5t68 -60.5t112.5 -21.5q145 0 303 71l39 -98q-68 -41 -171.5 -68.5t-203.5 -27.5q-236 0 -309 176q-212 -185 -438 -185q-69 0 -117.5 21t-72.5 57t-34 74t-10 82zM227 238q0 -63 32.5 -100.5 t102.5 -37.5q177 0 334 150q-10 49 -10 123q0 55 4 88q-117 -3 -202.5 -17.5t-135 -35t-78.5 -50.5t-38 -57.5t-9 -62.5zM856 547q239 5 363 54t124 155q0 64 -38.5 101.5t-112.5 37.5q-147 0 -235 -99t-101 -249z" />
<glyph unicode="&#xe7;" horiz-adv-x="911" d="M82 348q0 60 5.5 119t21.5 127t40 127t65 115t93.5 96t127.5 64t165 24q118 0 211 -37q33 -12 48 -29t15 -45v-12q-2 -26 -23 -99.5t-44 -125.5l-86 6l10 192q-67 23 -141 23q-84 0 -151 -43t-108.5 -116.5t-63 -166t-21.5 -196.5q0 -258 223 -258q130 0 285 61l37 -102 q-141 -72 -308 -84l-98 -115q92 -6 143.5 -41.5t51.5 -101.5q0 -96 -98 -164t-285 -68l6 78q116 9 184 41.5t68 87.5q0 74 -191 74l-20 41l147 168q-302 19 -309 360z" />
<glyph unicode="&#xe8;" horiz-adv-x="946" d="M82 377q0 86 14 170t52 172t95 154t152 108.5t215 42.5q132 0 203.5 -71t71.5 -179q0 -92 -46.5 -160t-134.5 -110.5t-200 -65.5t-258 -32q-2 -16 -2 -52q0 -245 219 -245q145 0 303 71l37 -98q-69 -41 -171.5 -68.5t-201.5 -27.5q-83 0 -145 20.5t-100 55t-61.5 86 t-32.5 106.5t-9 123zM254 508q475 22 475 248q0 65 -34.5 102t-106.5 37q-142 0 -227.5 -102.5t-106.5 -284.5zM317 1397l125 102l207 -338l-76 -57z" />
<glyph unicode="&#xe9;" horiz-adv-x="946" d="M82 377q0 86 14 170t52 172t95 154t152 108.5t215 42.5q132 0 203.5 -71t71.5 -179q0 -92 -46.5 -160t-134.5 -110.5t-200 -65.5t-258 -32q-2 -16 -2 -52q0 -245 219 -245q145 0 303 71l37 -98q-69 -41 -171.5 -68.5t-201.5 -27.5q-83 0 -145 20.5t-100 55t-61.5 86 t-32.5 106.5t-9 123zM254 508q475 22 475 248q0 65 -34.5 102t-106.5 37q-142 0 -227.5 -102.5t-106.5 -284.5zM514 1159l279 338l102 -102l-317 -293z" />
<glyph unicode="&#xea;" horiz-adv-x="946" d="M82 377q0 86 14 170t52 172t95 154t152 108.5t215 42.5q132 0 203.5 -71t71.5 -179q0 -92 -46.5 -160t-134.5 -110.5t-200 -65.5t-258 -32q-2 -16 -2 -52q0 -245 219 -245q145 0 303 71l37 -98q-69 -41 -171.5 -68.5t-201.5 -27.5q-83 0 -145 20.5t-100 55t-61.5 86 t-32.5 106.5t-9 123zM215 1149l334 291h108l267 -289l-52 -59l-282 204l-332 -204zM254 508q475 22 475 248q0 65 -34.5 102t-106.5 37q-142 0 -227.5 -102.5t-106.5 -284.5z" />
<glyph unicode="&#xeb;" horiz-adv-x="946" d="M82 377q0 86 14 170t52 172t95 154t152 108.5t215 42.5q132 0 203.5 -71t71.5 -179q0 -92 -46.5 -160t-134.5 -110.5t-200 -65.5t-258 -32q-2 -16 -2 -52q0 -245 219 -245q145 0 303 71l37 -98q-69 -41 -171.5 -68.5t-201.5 -27.5q-83 0 -145 20.5t-100 55t-61.5 86 t-32.5 106.5t-9 123zM254 508q475 22 475 248q0 65 -34.5 102t-106.5 37q-142 0 -227.5 -102.5t-106.5 -284.5zM330 1239q1 41 34 71.5t70 30.5q42 0 66.5 -23.5t23.5 -62.5q-2 -44 -33 -74t-77 -30q-38 0 -62 25t-22 63zM705 1239q1 42 32.5 72t69.5 30q40 0 64.5 -23.5 t23.5 -62.5q0 -44 -32.5 -74t-78.5 -30q-38 0 -59.5 24.5t-19.5 63.5z" />
<glyph unicode="&#xec;" horiz-adv-x="598" d="M86 1397l125 102l207 -338l-76 -57zM92 901l6 82q156 39 250 39q52 0 73 -16t21 -52q0 -6 -24.5 -203t-50.5 -403t-27 -217q88 6 170 51l39 -67q-66 -67 -136 -103.5t-126 -36.5q-113 0 -113 115q0 15 4 51l92 729z" />
<glyph unicode="&#xed;" horiz-adv-x="634" d="M92 901l6 82q156 39 250 39q52 0 73 -16t21 -52q0 -6 -24.5 -203t-50.5 -403t-27 -217q88 6 170 51l39 -67q-66 -67 -136 -103.5t-126 -36.5q-113 0 -113 115q0 15 4 51l92 729zM295 1159l278 338l103 -102l-318 -293z" />
<glyph unicode="&#xee;" horiz-adv-x="655" d="M-12 1149l334 291h108l266 -289l-51 -59l-283 204l-331 -204zM92 901l6 82q156 39 250 39q52 0 73 -16t21 -52q0 -6 -24.5 -203t-50.5 -403t-27 -217q88 6 170 51l39 -67q-66 -67 -136 -103.5t-126 -36.5q-113 0 -113 115q0 15 4 51l92 729z" />
<glyph unicode="&#xef;" horiz-adv-x="598" d="M76 1239q1 41 34 71.5t70 30.5q42 0 66.5 -23.5t23.5 -62.5q-2 -44 -33 -74t-77 -30q-38 0 -62 25t-22 63zM92 901l6 82q156 39 250 39q52 0 73 -16t21 -52q0 -6 -24.5 -203t-50.5 -403t-27 -217q88 6 170 51l39 -67q-66 -67 -136 -103.5t-126 -36.5q-113 0 -113 115 q0 15 4 51l92 729zM451 1239q1 42 32.5 72t69.5 30q40 0 64.5 -23.5t23.5 -62.5q0 -44 -32.5 -74t-78.5 -30q-38 0 -59.5 24.5t-19.5 63.5z" />
<glyph unicode="&#xf0;" horiz-adv-x="1017" d="M82 342q0 131 38 241.5t102 184.5t148.5 115t176.5 41q72 0 141 -19.5t109 -46.5q-28 200 -150 350l-219 -139l-43 66l207 135q-64 64 -170 125l55 92q134 -61 228 -146l204 129l43 -65l-192 -123q194 -223 194 -586q0 -65 -5.5 -127.5t-21 -135t-39.5 -135t-64 -121.5 t-91.5 -101t-125.5 -67t-163 -25q-170 0 -266 97.5t-96 260.5zM246 354q0 -245 221 -245q62 0 112.5 24.5t84 64t59.5 95t40 109.5t22.5 117t11 108.5t2.5 91.5q-58 43 -125.5 61.5t-120.5 18.5q-79 0 -141 -45t-96.5 -114.5t-52 -143t-17.5 -142.5z" />
<glyph unicode="&#xf1;" horiz-adv-x="1171" d="M61 899l7 82q147 39 268 39q52 0 70 -16.5t18 -61.5q0 -86 -29 -250h8q44 90 101.5 157.5t113 102t101.5 50.5t84 16q109 0 152.5 -62.5t43.5 -175.5q0 -55 -69 -651q84 6 164 51q32 -53 39 -67q-67 -65 -142 -99t-129 -34q-53 0 -75.5 26.5t-22.5 79.5q0 35 4 55 q63 555 63 627q0 53 -22.5 85t-69.5 32q-42 0 -88.5 -26t-96 -78.5t-98.5 -145t-87 -213.5l-58 -422h-161q61 474 108 868zM291 1233q34 71 85 112t107 41q51 0 148.5 -38.5t130.5 -38.5l123 80l47 -46q-30 -69 -81 -112t-108 -43q-51 0 -104.5 20t-98.5 40t-75 20l-123 -80 z" />
<glyph unicode="&#xf2;" horiz-adv-x="1015" d="M82 377q0 91 16.5 179.5t55 173.5t94.5 148.5t142.5 102.5t191.5 39q99 0 173 -32.5t116.5 -90t62.5 -128.5t20 -157q0 -85 -14.5 -167.5t-50.5 -167t-91.5 -148t-144.5 -103.5t-202 -40q-369 0 -369 391zM246 356q0 -247 221 -247q75 0 133.5 36t92.5 89.5t56 124 t29.5 132t7.5 121.5q0 277 -211 277q-77 0 -137.5 -37.5t-95.5 -94t-57.5 -131t-30.5 -140t-8 -130.5zM367 1397l125 102l206 -338l-75 -57z" />
<glyph unicode="&#xf3;" horiz-adv-x="1015" d="M82 377q0 91 16.5 179.5t55 173.5t94.5 148.5t142.5 102.5t191.5 39q99 0 173 -32.5t116.5 -90t62.5 -128.5t20 -157q0 -85 -14.5 -167.5t-50.5 -167t-91.5 -148t-144.5 -103.5t-202 -40q-369 0 -369 391zM246 356q0 -247 221 -247q75 0 133.5 36t92.5 89.5t56 124 t29.5 132t7.5 121.5q0 277 -211 277q-77 0 -137.5 -37.5t-95.5 -94t-57.5 -131t-30.5 -140t-8 -130.5zM532 1159l279 338l102 -102l-317 -293z" />
<glyph unicode="&#xf4;" horiz-adv-x="1015" d="M82 377q0 91 16.5 179.5t55 173.5t94.5 148.5t142.5 102.5t191.5 39q99 0 173 -32.5t116.5 -90t62.5 -128.5t20 -157q0 -85 -14.5 -167.5t-50.5 -167t-91.5 -148t-144.5 -103.5t-202 -40q-369 0 -369 391zM246 356q0 -247 221 -247q75 0 133.5 36t92.5 89.5t56 124 t29.5 132t7.5 121.5q0 277 -211 277q-77 0 -137.5 -37.5t-95.5 -94t-57.5 -131t-30.5 -140t-8 -130.5zM248 1149l334 291h108l266 -289l-51 -59l-282 204l-332 -204z" />
<glyph unicode="&#xf5;" horiz-adv-x="1015" d="M82 377q0 91 16.5 179.5t55 173.5t94.5 148.5t142.5 102.5t191.5 39q99 0 173 -32.5t116.5 -90t62.5 -128.5t20 -157q0 -85 -14.5 -167.5t-50.5 -167t-91.5 -148t-144.5 -103.5t-202 -40q-369 0 -369 391zM246 356q0 -247 221 -247q75 0 133.5 36t92.5 89.5t56 124 t29.5 132t7.5 121.5q0 277 -211 277q-77 0 -137.5 -37.5t-95.5 -94t-57.5 -131t-30.5 -140t-8 -130.5zM305 1219q34 71 85 112t108 41q51 0 148 -39t130 -39l123 80l47 -45q-30 -69 -80.5 -112t-107.5 -43q-51 0 -105 20t-99 39.5t-75 19.5l-123 -79z" />
<glyph unicode="&#xf6;" horiz-adv-x="1015" d="M82 377q0 91 16.5 179.5t55 173.5t94.5 148.5t142.5 102.5t191.5 39q99 0 173 -32.5t116.5 -90t62.5 -128.5t20 -157q0 -85 -14.5 -167.5t-50.5 -167t-91.5 -148t-144.5 -103.5t-202 -40q-369 0 -369 391zM246 356q0 -247 221 -247q75 0 133.5 36t92.5 89.5t56 124 t29.5 132t7.5 121.5q0 277 -211 277q-77 0 -137.5 -37.5t-95.5 -94t-57.5 -131t-30.5 -140t-8 -130.5zM344 1239q1 41 34.5 71.5t70.5 30.5q42 0 66.5 -23.5t23.5 -62.5q-2 -44 -33.5 -74t-77.5 -30q-38 0 -62 25t-22 63zM719 1239q1 42 32.5 72t69.5 30q40 0 64.5 -23.5 t23.5 -62.5q0 -44 -32 -74t-78 -30q-38 0 -60 24.5t-20 63.5z" />
<glyph unicode="&#xf7;" d="M186 553l15 119h770l-15 -119h-770zM438 279q1 45 35 76.5t78 31.5q38 0 63.5 -26t24.5 -64q-1 -45 -35 -80t-76 -35q-38 0 -64.5 28.5t-25.5 68.5zM518 928q1 44 36 77t77 33q40 0 65 -26t23 -66q-1 -45 -36 -80t-75 -35q-39 0 -64.5 29t-25.5 68z" />
<glyph unicode="&#xf8;" horiz-adv-x="1017" d="M23 -14l120 137q-61 94 -61 239q0 95 15.5 185t53 177t93 152t143 104.5t195.5 39.5q168 0 266 -98l82 96h82q-53 -58 -125 -144q67 -105 67 -301q0 -83 -17 -163.5t-56 -158t-96 -136t-143 -94t-191 -35.5q-176 0 -269 90q-25 -32 -78 -88q-13 0 -39.5 -1t-41.5 -1z M248 369q0 -70 16 -119q87 100 246 289t229 270q-51 80 -164 80q-75 0 -134.5 -36.5t-95 -92t-58 -128t-31 -137t-8.5 -126.5zM289 188q53 -79 178 -79q62 0 113 24t84.5 65.5t57.5 91t37 106.5t19 106.5t6 95.5q0 91 -20 147z" />
<glyph unicode="&#xf9;" horiz-adv-x="1167" d="M63 899l7 82q144 39 270 39q50 0 70 -17t20 -59q0 -38 -37 -349t-37 -362q0 -116 93 -116q90 0 193.5 114.5t176.5 348.5q58 401 60 419h155q-22 -156 -110 -870q83 5 166 51l38 -67q-64 -64 -137.5 -98.5t-126.5 -34.5q-56 0 -76 25.5t-20 88.5q0 59 20 207h-10 q-43 -88 -98.5 -153.5t-109.5 -99.5t-100 -50t-85 -16q-197 0 -197 204q0 68 70 684q-22 3 -195 29zM395 1397l125 102l207 -338l-76 -57z" />
<glyph unicode="&#xfa;" horiz-adv-x="1167" d="M63 899l7 82q144 39 270 39q50 0 70 -17t20 -59q0 -38 -37 -349t-37 -362q0 -116 93 -116q90 0 193.5 114.5t176.5 348.5q58 401 60 419h155q-22 -156 -110 -870q83 5 166 51l38 -67q-64 -64 -137.5 -98.5t-126.5 -34.5q-56 0 -76 25.5t-20 88.5q0 59 20 207h-10 q-43 -88 -98.5 -153.5t-109.5 -99.5t-100 -50t-85 -16q-197 0 -197 204q0 68 70 684q-22 3 -195 29zM553 1159l278 338l103 -102l-318 -293z" />
<glyph unicode="&#xfb;" horiz-adv-x="1167" d="M63 899l7 82q144 39 270 39q50 0 70 -17t20 -59q0 -38 -37 -349t-37 -362q0 -116 93 -116q90 0 193.5 114.5t176.5 348.5q58 401 60 419h155q-22 -156 -110 -870q83 5 166 51l38 -67q-64 -64 -137.5 -98.5t-126.5 -34.5q-56 0 -76 25.5t-20 88.5q0 59 20 207h-10 q-43 -88 -98.5 -153.5t-109.5 -99.5t-100 -50t-85 -16q-197 0 -197 204q0 68 70 684q-22 3 -195 29zM303 1149l334 291h108l267 -289l-51 -59l-283 204l-332 -204z" />
<glyph unicode="&#xfc;" horiz-adv-x="1167" d="M63 899l7 82q144 39 270 39q50 0 70 -17t20 -59q0 -38 -37 -349t-37 -362q0 -116 93 -116q90 0 193.5 114.5t176.5 348.5q58 401 60 419h155q-22 -156 -110 -870q83 5 166 51l38 -67q-64 -64 -137.5 -98.5t-126.5 -34.5q-56 0 -76 25.5t-20 88.5q0 59 20 207h-10 q-43 -88 -98.5 -153.5t-109.5 -99.5t-100 -50t-85 -16q-197 0 -197 204q0 68 70 684q-22 3 -195 29zM375 1239q1 41 34 71.5t70 30.5q42 0 66.5 -23.5t23.5 -62.5q-2 -44 -33 -74t-77 -30q-38 0 -62 25t-22 63zM750 1239q1 42 32.5 72t69.5 30q40 0 64.5 -23.5t23.5 -62.5 q0 -44 -32.5 -74t-78.5 -30q-38 0 -59.5 24.5t-19.5 63.5z" />
<glyph unicode="&#xfd;" horiz-adv-x="1032" d="M-225 -307l69 41q57 -64 168 -64q192 0 391 228q-41 238 -99.5 531t-94.5 433l-152 -41l-26 70q64 59 128 91t101 32q40 0 59.5 -18.5t32.5 -69.5q25 -91 78.5 -375t87.5 -502q123 172 206 425t83 394l-148 -39q-13 50 -20 70q130 121 223 121q53 0 77 -31.5t24 -111.5 q0 -97 -27 -218.5t-78.5 -250.5t-121 -256.5t-159 -241t-187.5 -200.5t-213 -138t-228 -51q-108 0 -154 44t-20 128zM453 1159l278 338l103 -102l-318 -293z" />
<glyph unicode="&#xfe;" horiz-adv-x="1087" d="M-78 -426q3 21 7.5 62t7.5 61h145q94 789 188 1630l-194 31l6 82q144 39 270 39q90 0 90 -68q0 -11 -32 -295t-50 -430h9q43 92 93 157.5t100.5 101t97 51.5t94.5 16q116 0 185 -91t69 -264q0 -144 -33 -265.5t-96.5 -213.5t-164.5 -144t-229 -52q-74 0 -200 36l-43 -321 h184q-8 -82 -14 -123h-490zM295 152q104 -41 207 -41q77 0 138 35t98.5 89t62 125t34 137.5t9.5 131.5q0 122 -41 185t-111 63q-89 0 -184.5 -109t-175.5 -354z" />
<glyph unicode="&#xff;" horiz-adv-x="1032" d="M-225 -307l69 41q57 -64 168 -64q192 0 391 228q-41 238 -99.5 531t-94.5 433l-152 -41l-26 70q64 59 128 91t101 32q40 0 59.5 -18.5t32.5 -69.5q25 -91 78.5 -375t87.5 -502q123 172 206 425t83 394l-148 -39q-13 50 -20 70q130 121 223 121q53 0 77 -31.5t24 -111.5 q0 -97 -27 -218.5t-78.5 -250.5t-121 -256.5t-159 -241t-187.5 -200.5t-213 -138t-228 -51q-108 0 -154 44t-20 128zM299 1239q1 41 34 71.5t70 30.5q42 0 67 -23.5t24 -62.5q-2 -44 -33.5 -74t-77.5 -30q-38 0 -62 25t-22 63zM674 1239q1 42 32.5 72t69.5 30 q40 0 64.5 -23.5t23.5 -62.5q0 -44 -32 -74t-78 -30q-38 0 -60 24.5t-20 63.5z" />
<glyph unicode="&#x152;" horiz-adv-x="1619" d="M121 532q0 136 23 262t74.5 241.5t127.5 201t189.5 136t252.5 50.5q105 0 185 -24h674q-4 -31 -17.5 -143.5t-19.5 -172.5h-129l22 193h-502l-61 -481q160 2 485 10l-16 -137q-480 6 -481 6l-68 -549h541l24 197h134q-4 -36 -17.5 -148.5t-19.5 -173.5h-744 q-82 -14 -143 -14q-514 0 -514 546zM291 524q0 -205 84.5 -307t265.5 -102q33 0 49 2l146 1169q-32 4 -50 4h-2q-109 -1 -195.5 -47.5t-141 -121.5t-91 -177t-51 -205.5t-14.5 -214.5z" />
<glyph unicode="&#x153;" horiz-adv-x="1640" d="M82 377q0 92 16 179.5t54 172.5t93.5 148t141.5 102t191 39q124 0 206 -55.5t121 -149.5q138 209 402 209q136 0 207 -70.5t71 -177.5q0 -92 -47 -162t-134.5 -114t-202.5 -67t-259 -28q-2 -14 -2 -49q0 -37 5 -69t19.5 -66t38 -58t63.5 -39.5t93 -15.5q136 0 303 72 l37 -96q-65 -42 -168 -68t-205 -26q-237 0 -307 192q-134 -192 -370 -192q-105 0 -178.5 29t-113.5 84t-57.5 122t-17.5 154zM246 356q0 -247 221 -247q75 0 133.5 36t92.5 89.5t56 124t29.5 132t7.5 121.5q0 277 -211 277q-77 0 -137.5 -37.5t-95.5 -94t-57.5 -131 t-30.5 -140t-8 -130.5zM952 502q232 9 359 73t127 179q0 64 -38.5 101.5t-111.5 37.5q-148 0 -231.5 -103t-104.5 -288z" />
<glyph unicode="&#x178;" horiz-adv-x="1167" d="M127 1276l14 127h398l-15 -127h-125l213 -539h9l352 539h-129l14 127h408l-15 -127h-104l-455 -666l-59 -485h160l-15 -125h-497l14 125h162l57 479l-283 672h-104zM446 1579q1 40 34.5 70t70.5 30q40 0 64.5 -23t23.5 -59q-1 -44 -33 -74t-74 -30q-38 0 -62 24.5 t-24 61.5zM819 1577q1 42 31.5 72t69.5 30q40 0 64.5 -23t23.5 -59q-2 -44 -33.5 -74t-77.5 -30q-36 0 -58 23.5t-20 60.5z" />
<glyph unicode="&#x2c6;" horiz-adv-x="1001" d="M233 1149l334 291h109l266 -289l-51 -59l-283 204l-332 -204z" />
<glyph unicode="&#x2dc;" horiz-adv-x="1001" d="M285 1219q34 71 85 112t107 41q51 0 148.5 -39t130.5 -39l123 80l47 -45q-30 -69 -81 -112t-108 -43q-51 0 -104.5 20t-98.5 39.5t-75 19.5l-123 -79z" />
<glyph unicode="&#x2000;" horiz-adv-x="938" />
<glyph unicode="&#x2001;" horiz-adv-x="1876" />
<glyph unicode="&#x2002;" horiz-adv-x="938" />
<glyph unicode="&#x2003;" horiz-adv-x="1876" />
<glyph unicode="&#x2004;" horiz-adv-x="625" />
<glyph unicode="&#x2005;" horiz-adv-x="469" />
<glyph unicode="&#x2006;" horiz-adv-x="312" />
<glyph unicode="&#x2007;" horiz-adv-x="312" />
<glyph unicode="&#x2008;" horiz-adv-x="234" />
<glyph unicode="&#x2009;" horiz-adv-x="375" />
<glyph unicode="&#x200a;" horiz-adv-x="104" />
<glyph unicode="&#x2010;" horiz-adv-x="727" d="M111 471l18 139h514l-18 -139h-514z" />
<glyph unicode="&#x2011;" horiz-adv-x="727" d="M111 471l18 139h514l-18 -139h-514z" />
<glyph unicode="&#x2012;" horiz-adv-x="727" d="M111 471l18 139h514l-18 -139h-514z" />
<glyph unicode="&#x2013;" horiz-adv-x="993" d="M66 463l16 123h874l-14 -123h-876z" />
<glyph unicode="&#x2014;" horiz-adv-x="1986" d="M72 463l16 123h1841l-14 -123h-1843z" />
<glyph unicode="&#x2018;" horiz-adv-x="428" d="M190 1122q0 89 73 189.5t171 146.5l33 -55q-94 -81 -113 -180q62 -25 62 -97q0 -44 -38 -80t-85 -36t-75 31t-28 81z" />
<glyph unicode="&#x2019;" horiz-adv-x="428" d="M182 1065q93 75 113 180q-57 22 -57 86q0 50 32.5 88.5t85.5 38.5q46 0 74.5 -30.5t28.5 -77.5q0 -91 -71 -191t-173 -149z" />
<glyph unicode="&#x201a;" horiz-adv-x="417" d="M6 -172q47 42 73.5 78t37.5 86q-32 9 -48.5 35t-13.5 61q3 45 38 79t81 34q49 0 77 -35.5t23 -91.5q-7 -84 -75.5 -170t-159.5 -129z" />
<glyph unicode="&#x201c;" horiz-adv-x="681" d="M117 1122q0 89 72.5 189.5t170.5 146.5l33 -55q-92 -77 -112 -180q61 -25 61 -97q0 -44 -38 -80t-85 -36t-74.5 31t-27.5 81zM385 1122q0 89 72 189t170 147l35 -55q-93 -77 -115 -180q59 -21 59 -90q0 -48 -35 -85.5t-86 -37.5q-47 0 -73.5 31t-26.5 81z" />
<glyph unicode="&#x201d;" horiz-adv-x="681" d="M182 1065q93 75 113 180q-57 22 -57 86q0 50 32.5 88.5t85.5 38.5q46 0 74.5 -30.5t28.5 -77.5q0 -91 -70.5 -191t-171.5 -149zM449 1065q92 77 112 180q-57 22 -57 86q0 50 32.5 88.5t84.5 38.5q47 0 74.5 -31t27.5 -81q0 -90 -71 -189.5t-171 -146.5z" />
<glyph unicode="&#x201e;" horiz-adv-x="677" d="M84 -172q47 41 73.5 77.5t37.5 86.5q-32 9 -48.5 35t-11.5 61q2 45 37 79t80 34q49 0 77 -35.5t23 -91.5q-7 -84 -75.5 -170t-159.5 -129zM346 -172q49 40 75 76.5t36 87.5q-31 9 -47.5 35t-12.5 61q3 45 38.5 79t80.5 34q49 0 76 -35.5t24 -91.5q-9 -84 -77 -170 t-158 -129z" />
<glyph unicode="&#x2022;" horiz-adv-x="641" d="M119 543q0 97 72.5 169t164.5 72q83 0 139 -57.5t56 -142.5q0 -97 -72 -170.5t-166 -73.5q-82 0 -138 59.5t-56 143.5z" />
<glyph unicode="&#x2026;" horiz-adv-x="1267" d="M53 86q1 47 36.5 80t80.5 33q44 0 70.5 -31t23.5 -74q-3 -46 -39 -80t-80 -34q-43 0 -69.5 31t-22.5 75zM432 86q3 47 38.5 80t80.5 33q44 0 70.5 -31t23.5 -74q-4 -47 -40 -80.5t-81 -33.5q-41 0 -68 31t-24 75zM831 86q3 47 39.5 80t81.5 33q42 0 68.5 -31t23.5 -74 q-3 -46 -39.5 -80t-78.5 -34q-43 0 -71 31t-24 75z" />
<glyph unicode="&#x202f;" horiz-adv-x="375" />
<glyph unicode="&#x2039;" horiz-adv-x="624" d="M113 346l10 80l332 326l57 -54l-240 -315l164 -311l-71 -49z" />
<glyph unicode="&#x203a;" horiz-adv-x="624" d="M82 78l237 311l-159 313l69 50l252 -326l-10 -80l-334 -323z" />
<glyph unicode="&#x205f;" horiz-adv-x="469" />
<glyph unicode="&#x20ac;" d="M80 551l10 84h828l-11 -84h-573v-29q0 -89 20 -160t63.5 -126t117.5 -85t176 -30q108 0 207 24q11 85 16 140h121l-31 -244q-145 -55 -342 -55q-253 0 -381.5 133.5t-128.5 380.5q0 8 1 25t1 26h-94zM102 733l9 84h98q13 85 43 164t81.5 151.5t118.5 126t160.5 85.5 t202.5 32q185 0 326 -53q-19 -145 -33 -268h-123l21 159q-89 29 -191 29q-184 0 -289 -109t-155 -317h569q-2 -33 -10 -84h-828z" />
<glyph unicode="&#x2122;" horiz-adv-x="1515" d="M98 1214v189h541v-189h-80v105h-135v-508h84v-78h-283v78h86v508h-131v-105h-82zM692 733v78h72v508h-72v84h197l131 -295l63 -143h11l61 139l139 299h195v-84h-70v-508h70v-78h-246v78h70v414h-4l-68 -148l-108 -233h-89l-112 233l-62 137h-2v-403h72v-78h-248z" />
<glyph unicode="&#x25fc;" horiz-adv-x="1013" d="M0 0v1014h1014v-1014h-1014z" />
</font>
</defs>
</svg>
